<svg width="161" height="50" viewBox="0 0 161 50" fill="none" xmlns="http://www.w3.org/2000/svg">
<g clip-path="url(#clip0_204_2489)">
<mask id="mask0_204_2489" style="mask-type:luminance" maskUnits="userSpaceOnUse" x="45" y="17" width="71" height="16">
<path d="M115.667 17.5H45.667V32.5H115.667V17.5Z" fill="white"/>
</mask>
<g mask="url(#mask0_204_2489)">
<path fill-rule="evenodd" clip-rule="evenodd" d="M73.2884 29.2337C70.7016 31.3661 66.9512 32.5001 63.7216 32.5001C59.1956 32.5001 55.1196 30.6312 52.0351 27.5203C51.7932 27.2758 52.009 26.9422 52.3001 27.1314C55.6276 29.2944 59.7432 30.5971 63.9932 30.5971C66.8604 30.5971 70.0123 29.9322 72.9124 28.5582C73.3498 28.3513 73.7166 28.8802 73.2884 29.2337Z" fill="#F79C34"/>
<path fill-rule="evenodd" clip-rule="evenodd" d="M74.3652 27.8603C74.0341 27.3872 72.1782 27.6361 71.3442 27.7478C71.0916 27.7819 71.0523 27.5351 71.2799 27.3566C72.7607 26.1947 75.1873 26.5301 75.4693 26.9194C75.7532 27.3114 75.3943 30.029 74.0071 31.3256C73.7934 31.5249 73.5903 31.4186 73.6851 31.1555C73.9976 30.2841 74.6964 28.3342 74.3652 27.8603Z" fill="#F79C34"/>
<path fill-rule="evenodd" clip-rule="evenodd" d="M71.4027 19.1497V18.021C71.4035 17.8491 71.5193 17.7349 71.6589 17.7353L76.1885 17.7349C76.3332 17.7349 76.4498 17.8522 76.4498 18.0197V18.9876C76.4482 19.1501 76.3257 19.3619 76.1088 19.6981L73.7623 23.4402C74.6331 23.4176 75.5544 23.5633 76.3459 24.0599C76.5244 24.172 76.5723 24.3381 76.5862 24.5007V25.7051C76.5862 25.8712 76.4236 26.063 76.2523 25.9633C74.8584 25.1474 73.0084 25.0583 71.4665 25.9731C71.3091 26.067 71.1445 25.8774 71.1445 25.7113V24.5662C71.1445 24.3833 71.1477 24.0697 71.3131 23.7906L74.0311 19.4345L71.6644 19.4341C71.5197 19.4341 71.4035 19.3189 71.4027 19.1497Z" fill="#333E47"/>
<path fill-rule="evenodd" clip-rule="evenodd" d="M54.8806 26.2H53.5025C53.3713 26.1907 53.2666 26.0809 53.2559 25.94L53.257 18.0398C53.257 17.8821 53.376 17.7559 53.5231 17.7559L54.8064 17.7554C54.9405 17.763 55.0483 17.8763 55.0567 18.0208V19.052H55.0828C55.4171 18.0544 56.0473 17.5889 56.8963 17.5889C57.7581 17.5889 58.2986 18.0544 58.6845 19.052C59.0188 18.0544 59.7778 17.5889 60.588 17.5889C61.167 17.5889 61.7971 17.8551 62.183 18.4535C62.6204 19.1189 62.5308 20.0827 62.5308 20.9306L62.5292 25.9161C62.5292 26.0734 62.4106 26.2 62.2635 26.2H60.8874C60.7486 26.1903 60.6399 26.068 60.6399 25.9165L60.6395 21.7283C60.6395 21.3961 60.6653 20.5651 60.6007 20.2493C60.498 19.7169 60.1894 19.5671 59.7909 19.5671C59.4562 19.5671 59.1088 19.8165 58.9672 20.2152C58.8256 20.6147 58.8387 21.2792 58.8387 21.7283V25.9161C58.8387 26.0734 58.7198 26.2 58.573 26.2H57.1965C57.0581 26.1903 56.9491 26.068 56.9491 25.9165L56.9475 21.7283C56.9475 20.8473 57.0764 19.5512 56.0988 19.5512C55.1082 19.5512 55.1471 20.8141 55.1471 21.7283L55.1463 25.9161C55.1463 26.0734 55.0273 26.2 54.8806 26.2Z" fill="#333E47"/>
<path fill-rule="evenodd" clip-rule="evenodd" d="M80.3617 19.2017C79.3457 19.2017 79.2814 20.7472 79.2814 21.7115C79.2814 22.6758 79.2687 24.7374 80.3494 24.7374C81.4169 24.7374 81.4685 23.0749 81.4685 22.061C81.4685 21.3961 81.4423 20.5979 81.2623 19.9662C81.108 19.4174 80.7991 19.2017 80.3617 19.2017ZM80.3494 17.5889C82.3945 17.5889 83.5005 19.5512 83.5005 22.0446C83.5005 24.4543 82.2787 26.3666 80.3494 26.3666C78.3424 26.3666 77.249 24.4047 77.249 21.9613C77.249 19.5007 78.355 17.5889 80.3494 17.5889Z" fill="#333E47"/>
<path fill-rule="evenodd" clip-rule="evenodd" d="M86.153 26.2H84.7797C84.6421 26.1903 84.5327 26.068 84.5327 25.9165L84.5303 18.0137C84.5422 17.8688 84.6564 17.7559 84.7952 17.7559L86.0733 17.7554C86.1939 17.7625 86.293 17.8538 86.3184 17.9765V19.1849H86.3442C86.7304 18.104 87.2702 17.5889 88.2219 17.5889C88.8394 17.5889 89.4441 17.8383 89.83 18.52C90.1901 19.1516 90.1901 20.2152 90.1901 20.9802V25.9515C90.175 26.0915 90.0624 26.2 89.926 26.2H88.5447C88.417 26.1912 88.3143 26.0862 88.2992 25.9515V21.6623C88.2992 20.7977 88.3897 19.5339 87.4375 19.5339C87.1032 19.5339 86.7943 19.7833 86.64 20.1656C86.4469 20.648 86.4211 21.1299 86.4211 21.6623V25.9161C86.4187 26.0734 86.2998 26.2 86.153 26.2Z" fill="#333E47"/>
<path fill-rule="evenodd" clip-rule="evenodd" d="M69.1811 26.1806C69.0903 26.2719 68.959 26.2781 68.8559 26.2165C68.3982 25.7917 68.3162 25.5955 68.0659 25.1906C67.3097 26.0513 66.7739 26.3095 65.794 26.3095C64.634 26.3095 63.7314 25.5095 63.7314 23.9104C63.7314 22.6608 64.3378 21.8112 65.2011 21.3949C65.9487 21.0281 66.9928 20.9616 67.7923 20.8615V20.6618C67.7923 20.2945 67.8181 19.8622 67.6245 19.5455C67.4568 19.262 67.1348 19.1455 66.8512 19.1455C66.3254 19.1455 65.8586 19.4463 65.7436 20.0695C65.7194 20.2082 65.629 20.3459 65.5045 20.353L64.1685 20.1913C64.0558 20.1625 63.9305 20.0615 63.9626 19.8693C64.266 18.0846 65.6929 17.5282 66.9896 17.5132H67.092C67.7558 17.5225 68.6037 17.7258 69.12 18.2791C69.7906 18.9789 69.7256 19.9118 69.7256 20.9284V23.3262C69.7256 24.0477 69.994 24.364 70.2459 24.7525C70.3343 24.8929 70.3537 25.059 70.2415 25.1618C69.9599 25.4254 69.4599 25.9104 69.185 26.1842L69.1811 26.1806ZM67.7923 22.4278C67.7923 23.0276 67.805 23.5273 67.5345 24.0606C67.3152 24.4934 66.967 24.76 66.5804 24.76C66.0522 24.76 65.7428 24.3104 65.7428 23.6438C65.7428 22.3326 66.7953 22.0943 67.7923 22.0943V22.4278Z" fill="#333E47"/>
<path fill-rule="evenodd" clip-rule="evenodd" d="M51.117 26.1787C51.0258 26.2699 50.8941 26.2761 50.7914 26.2145C50.3334 25.7897 50.2513 25.5935 50.0015 25.1886C49.2448 26.0493 48.7095 26.3076 47.7295 26.3076C46.5696 26.3076 45.667 25.5076 45.667 23.9085C45.667 22.6589 46.2725 21.8093 47.1367 21.3929C47.8842 21.0261 48.9284 20.9597 49.7274 20.8596V20.6598C49.7274 20.2926 49.7536 19.8603 49.5601 19.5435C49.3923 19.26 49.0699 19.1435 48.7868 19.1435C48.2609 19.1435 47.7934 19.4443 47.6792 20.0676C47.6554 20.2062 47.5646 20.344 47.4396 20.3511L46.104 20.1894C45.991 20.1606 45.8657 20.0596 45.8982 19.8673C46.2008 18.0827 47.628 17.5263 48.9252 17.5112H49.0275C49.6914 17.5205 50.5392 17.7239 51.0555 18.2771C51.7257 18.977 51.6611 19.9099 51.6611 20.9265V23.3242C51.6611 24.0458 51.9296 24.3621 52.1814 24.7505C52.269 24.891 52.2893 25.0571 52.177 25.1598C51.8955 25.4234 51.395 25.9084 51.1202 26.1822L51.117 26.1787ZM49.7274 22.4259C49.7274 23.0257 49.7405 23.5253 49.4697 24.0586C49.2508 24.4914 48.9026 24.7581 48.5155 24.7581C47.9873 24.7581 47.678 24.3085 47.678 23.6418C47.678 22.3307 48.7309 22.0923 49.7274 22.0923V22.4259Z" fill="#333E47"/>
<path fill-rule="evenodd" clip-rule="evenodd" d="M109.027 29.0344C109.027 28.8342 109.027 28.6543 109.027 28.4541C109.027 28.2889 109.1 28.1751 109.254 28.1852C109.542 28.2309 109.949 28.2765 110.239 28.21C110.616 28.1223 110.887 27.8233 111.047 27.4136C111.273 26.8369 111.422 26.3718 111.517 26.0666L108.65 18.134C108.602 17.9993 108.587 17.7495 108.828 17.7495H109.83C110.021 17.7495 110.099 17.8851 110.142 18.0179L112.22 24.4613L114.204 18.0179C114.245 17.8859 114.326 17.7495 114.516 17.7495H115.461C115.7 17.7495 115.686 17.9989 115.639 18.134L112.795 26.3142C112.427 27.403 111.937 29.1372 110.833 29.4384C110.279 29.6001 109.581 29.5416 109.171 29.3498C109.067 29.2918 109.027 29.1367 109.027 29.0344Z" fill="#333E47"/>
<path fill-rule="evenodd" clip-rule="evenodd" d="M107.691 25.7169C107.691 25.8644 107.582 25.9854 107.449 25.9854H106.743C106.59 25.9854 106.486 25.8622 106.466 25.7169L106.395 25.1796C106.071 25.4866 105.672 25.7564 105.24 25.9442C104.409 26.3047 103.45 26.3645 102.638 25.8073C102.051 25.4046 101.739 24.6175 101.739 23.8056C101.739 23.1774 101.913 22.5546 102.297 22.1024C102.81 21.4844 103.553 21.181 104.45 21.181C104.992 21.181 105.768 21.2523 106.332 21.4583V20.377C106.332 19.2776 105.918 18.8019 104.825 18.8019C103.99 18.8019 103.351 18.9427 102.462 19.2515C102.32 19.2568 102.237 19.1359 102.237 18.9884V18.3717C102.237 18.2238 102.35 18.0807 102.472 18.0373C103.107 17.7281 104.006 17.5354 104.963 17.5C106.209 17.5 107.691 17.8141 107.691 19.9553V25.7169ZM106.332 24.1382V22.5068C105.858 22.3619 105.073 22.3017 104.769 22.3017C104.29 22.3017 103.764 22.4284 103.49 22.7584C103.285 23.0003 103.192 23.3475 103.192 23.6833C103.192 24.1174 103.326 24.5528 103.64 24.7681C104.005 25.045 104.571 25.0113 105.103 24.8425C105.614 24.6804 106.094 24.3938 106.332 24.1382Z" fill="#333E47"/>
<path fill-rule="evenodd" clip-rule="evenodd" d="M97.2713 18.8262C98.8393 18.8262 99.2665 20.2034 99.2665 21.7803C99.2752 22.8435 99.1003 23.7914 98.6074 24.334C98.2386 24.7402 97.8265 24.851 97.2063 24.851C96.6543 24.851 95.9282 24.5294 95.3856 24.0815V19.5726C95.9504 19.088 96.6709 18.8262 97.2713 18.8262ZM95.1453 29.3173H94.1987C94.0663 29.3173 93.958 29.1964 93.958 29.0489C93.958 25.3767 93.958 21.7042 93.958 18.032C93.958 17.8845 94.0663 17.7636 94.1987 17.7636H94.9233C95.0755 17.7636 95.1798 17.8867 95.1993 18.032L95.2754 18.6092C95.9539 17.9363 96.8276 17.5049 97.66 17.5049C99.9914 17.5049 100.758 19.6506 100.758 21.8818C100.758 24.2689 99.5853 26.1869 97.6021 26.1869C96.7669 26.1869 95.9861 25.8427 95.3856 25.2447V29.0489C95.3856 29.1964 95.2774 29.3173 95.1453 29.3173Z" fill="#333E47"/>
</g>
</g>
<defs>
<clipPath id="clip0_204_2489">
<rect width="70" height="15" fill="white" transform="translate(45.667 17.5)"/>
</clipPath>
</defs>
</svg>
