<svg width="160" height="50" viewBox="0 0 160 50" fill="none" xmlns="http://www.w3.org/2000/svg">
<g clip-path="url(#clip0_204_2477)">
<path d="M60.6848 15.7231C59.9712 16.5676 58.8295 17.2336 57.6877 17.1384C57.545 15.9967 58.104 14.7835 58.7581 14.0343C59.4717 13.166 60.7205 12.5476 61.7315 12.5C61.8504 13.6893 61.3866 14.8549 60.6848 15.7231ZM61.7196 17.3644C60.0664 17.2693 58.6511 18.304 57.8661 18.304C57.0692 18.304 55.868 17.412 54.5597 17.4358C52.859 17.4596 51.2771 18.4229 50.4089 19.9572C48.6249 23.0257 49.9451 27.569 51.6696 30.0666C52.5141 31.3035 53.525 32.6594 54.8571 32.6118C56.1178 32.5642 56.6173 31.7912 58.1397 31.7912C59.6739 31.7912 60.114 32.6118 61.446 32.588C62.8257 32.5642 63.6939 31.3511 64.5383 30.1142C65.5017 28.7108 65.8942 27.343 65.918 27.2716C65.8942 27.2479 63.2538 26.2369 63.23 23.1922C63.2063 20.647 65.3114 19.4339 65.4065 19.3625C64.2172 17.6023 62.3618 17.412 61.7196 17.3644ZM71.27 13.9153V32.4572H74.1482V26.118H78.1325C81.7719 26.118 84.329 23.6204 84.329 20.0048C84.329 16.3892 81.8195 13.9153 78.2277 13.9153H71.27ZM74.1482 16.3416H77.4665C79.9641 16.3416 81.3913 17.6736 81.3913 20.0167C81.3913 22.3597 79.9641 23.7036 77.4546 23.7036H74.1482V16.3416ZM89.5859 32.5999C91.3937 32.5999 93.0707 31.6841 93.8319 30.2331H93.8913V32.4572H96.5555V23.2279C96.5555 20.5519 94.4146 18.8273 91.1201 18.8273C88.0635 18.8273 85.8038 20.5756 85.7205 22.9781H88.3133C88.5274 21.8363 89.5859 21.0871 91.0369 21.0871C92.7971 21.0871 93.7843 21.9077 93.7843 23.4182V24.441L90.1925 24.6551C86.8504 24.8573 85.0426 26.225 85.0426 28.6037C85.0426 31.0062 86.9099 32.5999 89.5859 32.5999ZM90.359 30.3996C88.8247 30.3996 87.8495 29.6622 87.8495 28.5324C87.8495 27.3668 88.789 26.6889 90.5849 26.5818L93.7843 26.3796V27.4263C93.7843 29.1627 92.3095 30.3996 90.359 30.3996ZM100.112 37.5C102.918 37.5 104.239 36.4296 105.392 33.1827L110.447 19.0057H107.521L104.132 29.9596H104.072L100.682 19.0057H97.6734L102.55 32.5048L102.288 33.3254C101.848 34.7169 101.134 35.2521 99.8618 35.2521C99.6358 35.2521 99.1958 35.2284 99.0174 35.2046V37.4286C99.1839 37.4762 99.8975 37.5 100.112 37.5Z" fill="black"/>
</g>
<defs>
<clipPath id="clip0_204_2477">
<rect width="60.8944" height="25" fill="white" transform="translate(49.5527 12.5)"/>
</clipPath>
</defs>
</svg>
