<svg width="161" height="50" viewBox="0 0 161 50" fill="none" xmlns="http://www.w3.org/2000/svg">
<g clip-path="url(#clip0_204_2480)">
<path d="M78.8894 25.4265V31.5289H76.9209V16.437H82.039C83.2857 16.437 84.4668 16.8963 85.3855 17.7493C86.3041 18.5367 86.7634 19.7179 86.7634 20.9646C86.7634 22.2113 86.3041 23.3268 85.3855 24.1798C84.4668 25.0328 83.3513 25.4921 82.039 25.4921L78.8894 25.4265ZM78.8894 18.2743V23.5236H82.1702C82.892 23.5236 83.6138 23.2612 84.0731 22.7362C85.123 21.752 85.123 20.1116 84.1387 19.1273L84.0731 19.0617C83.5482 18.5367 82.892 18.2087 82.1702 18.2743H78.8894Z" fill="#5F6368"/>
<path d="M91.2903 20.8989C92.7338 20.8989 93.8493 21.2926 94.7023 22.08C95.5553 22.8674 95.949 23.9173 95.949 25.2296V31.5288H94.1118V30.0853H94.0462C93.2588 31.2664 92.1433 31.8569 90.8309 31.8569C89.7155 31.8569 88.7312 31.5288 87.9438 30.8727C87.222 30.2165 86.7627 29.2979 86.7627 28.3136C86.7627 27.2638 87.1564 26.4107 87.9438 25.7546C88.7312 25.0984 89.8467 24.8359 91.159 24.8359C92.3401 24.8359 93.2588 25.0328 93.9805 25.4921V25.0328C93.9805 24.3766 93.7181 23.7204 93.1931 23.3267C92.6682 22.8674 92.012 22.605 91.2903 22.605C90.1748 22.605 89.3218 23.0643 88.7312 23.9829L87.0252 22.933C88.075 21.5551 89.453 20.8989 91.2903 20.8989ZM88.7968 28.3792C88.7968 28.9042 89.0593 29.3635 89.453 29.626C89.9123 29.954 90.4372 30.1509 90.9622 30.1509C91.7496 30.1509 92.537 29.8228 93.1275 29.2323C93.7837 28.6417 94.1118 27.9199 94.1118 27.1325C93.5212 26.6732 92.6682 26.4107 91.5527 26.4107C90.7653 26.4107 90.1092 26.6076 89.5842 27.0013C89.0593 27.3294 88.7968 27.7887 88.7968 28.3792Z" fill="#5F6368"/>
<path d="M106.579 21.2271L100.083 36.1221H98.1146L100.542 30.9383L96.2773 21.2927H98.3771L101.461 28.7074H101.527L104.545 21.2927H106.579V21.2271Z" fill="#5F6368"/>
<path d="M71.0804 24.1139C71.0804 23.5234 71.0148 22.9328 70.9492 22.3423H62.7471V25.6887H67.4059C67.209 26.7386 66.6185 27.7229 65.6998 28.3134V30.4788H68.5213C70.1618 28.9696 71.0804 26.7386 71.0804 24.1139Z" fill="#4285F4"/>
<path d="M62.7477 32.5786C65.1099 32.5786 67.0784 31.7912 68.5219 30.4789L65.7004 28.3135C64.913 28.8385 63.9288 29.1665 62.7477 29.1665C60.5167 29.1665 58.5482 27.6574 57.892 25.5576H55.0049V27.7886C56.5141 30.7413 59.4668 32.5786 62.7477 32.5786Z" fill="#34A853"/>
<path d="M57.8915 25.5579C57.4978 24.508 57.4978 23.3269 57.8915 22.2114V19.9805H55.0044C53.7577 22.4083 53.7577 25.2954 55.0044 27.7889L57.8915 25.5579Z" fill="#FBBC04"/>
<path d="M62.7475 18.668C63.9942 18.668 65.1753 19.1274 66.0939 19.9804L68.5874 17.4869C67.0126 16.0434 64.9128 15.1904 62.8131 15.256C59.5323 15.256 56.5139 17.0932 55.0703 20.046L57.9575 22.277C58.548 20.1772 60.5165 18.668 62.7475 18.668Z" fill="#EA4335"/>
</g>
<defs>
<clipPath id="clip0_204_2480">
<rect width="52.4934" height="25" fill="white" transform="translate(54.0859 12.5)"/>
</clipPath>
</defs>
</svg>
