<svg width="70" height="70" viewBox="0 0 70 70" fill="none" xmlns="http://www.w3.org/2000/svg">
<rect width="70" height="70" rx="10" fill="white"/>
<g clip-path="url(#clip0_6_2813)">
<path d="M49.5332 29.8992C48.051 28.4346 46.5762 26.9602 45.1087 25.4758C44.9912 25.3536 44.8493 25.2575 44.6923 25.1937C44.5352 25.13 44.3665 25.1 44.197 25.1057C41.7706 25.1057 39.3442 25.1145 36.9189 25.1057C36.6081 25.1057 36.6158 25.243 36.6114 25.4659C36.607 25.6889 36.6213 25.8185 36.9211 25.8174C39.2278 25.8021 41.5345 25.8174 43.8488 25.8032C44.0685 25.8032 44.1311 25.8537 44.1289 26.08C44.1158 27.1971 44.1531 28.3163 44.1136 29.4323C44.104 29.6368 44.1373 29.841 44.2112 30.0319C44.2851 30.2228 44.398 30.3962 44.5427 30.5409C44.6875 30.6857 44.8609 30.7986 45.0518 30.8725C45.2427 30.9464 45.4469 30.9797 45.6514 30.9701C46.5301 30.9569 47.4187 30.9482 48.3007 30.9767C48.6577 30.9877 48.5863 30.79 48.6028 30.5824C48.6215 30.344 48.5633 30.2529 48.2985 30.2627C47.4198 30.2814 46.5323 30.2726 45.6492 30.2682C45.1461 30.2682 44.833 30.0101 44.8297 29.5751C44.8198 28.469 44.8297 27.3629 44.8297 26.2074C44.8678 26.232 44.9045 26.2588 44.9396 26.2876C46.3309 27.6789 47.7222 29.0702 49.1136 30.4616C49.183 30.5339 49.2358 30.6205 49.2684 30.7154C49.3011 30.8102 49.3127 30.911 49.3025 31.0108C49.3025 36.6193 49.3025 42.2271 49.3025 47.8341C49.3025 48.7865 48.7785 49.3071 47.8196 49.3071H33.482C32.5231 49.3071 32.0013 48.7876 32.0002 47.833C32.0002 46.11 32.0002 44.3862 32.0002 42.6617C32.0002 40.6845 32.0002 38.7052 32.0002 36.7236C32.0002 36.6237 32.0573 36.46 31.9453 36.4359C31.7587 36.3907 31.564 36.3907 31.3774 36.4359C31.2302 36.4765 31.3093 36.6555 31.3093 36.7775C31.3049 40.4389 31.3049 44.1002 31.3093 47.7616C31.3093 49.1896 32.1199 50.0013 33.5336 50.0013H47.7658C49.1861 50.0013 49.9945 49.1907 49.9945 47.766C49.9945 42.1905 49.9963 36.6145 50 31.0382C50.0086 30.826 49.9714 30.6143 49.8909 30.4178C49.8103 30.2212 49.6883 30.0443 49.5332 29.8992Z" fill="#050615"/>
<path d="M36.3664 28.1899C36.3719 23.7127 32.6955 20.0176 28.2139 20.0001C23.7324 19.9825 20.0296 23.6589 19.9999 28.1349C19.9703 32.6319 23.6511 36.3434 28.1744 36.3665C32.6537 36.3918 36.3598 32.6923 36.3664 28.1899ZM28.1755 35.669C24.0432 35.6503 20.6711 32.2639 20.6952 28.1525C20.7194 24.0411 24.1223 20.6756 28.2117 20.6954C32.3209 20.7162 35.6919 24.1103 35.6667 28.2031C35.6414 32.3342 32.2781 35.6866 28.1755 35.669Z" fill="#050615"/>
<path d="M38.7654 39.8529C41.1453 39.8376 43.5252 39.8376 45.9051 39.8529C46.2346 39.8529 46.1654 39.6717 46.1654 39.4949C46.1654 39.318 46.2357 39.1313 45.9062 39.1379C44.7155 39.1609 43.5248 39.1467 42.3341 39.1467C41.1435 39.1467 39.9528 39.1587 38.7621 39.139C38.4743 39.1335 38.4864 39.2752 38.5018 39.4619C38.5171 39.6486 38.4018 39.8562 38.7654 39.8529Z" fill="#050615"/>
<path d="M45.9106 40.8019C44.7101 40.8239 43.5084 40.8107 42.3067 40.8107C41.127 40.8107 39.9462 40.825 38.7665 40.8019C38.437 40.7953 38.5062 40.9799 38.5062 41.1578C38.5062 41.3358 38.4348 41.5192 38.7632 41.517C41.1446 41.5016 43.5245 41.5016 45.9029 41.517C46.1896 41.517 46.1819 41.383 46.1644 41.1952C46.1468 41.0073 46.2753 40.7953 45.9106 40.8019Z" fill="#050615"/>
<path d="M38.7665 43.1768C39.9561 43.1537 41.1468 43.168 42.3375 43.168C43.5281 43.168 44.7177 43.1559 45.9084 43.1768C46.1951 43.1768 46.1841 43.0428 46.1698 42.8549C46.1556 42.6671 46.2676 42.4617 45.9084 42.4639C43.527 42.4793 41.1471 42.4793 38.7687 42.4639C38.4392 42.4639 38.5073 42.6451 38.5084 42.8231C38.5095 43.001 38.4359 43.1866 38.7665 43.1768Z" fill="#050615"/>
<path d="M33.6863 29.6848C33.6537 29.5662 33.5907 29.4583 33.5033 29.3718C33.416 29.2852 33.3076 29.2231 33.1887 29.1916C32.9086 29.1092 32.8361 28.9401 32.8933 28.6709C32.9498 28.3993 32.9498 28.1188 32.8933 27.8471C32.8416 27.5879 32.902 27.4352 33.1789 27.3188C33.7281 27.087 33.8379 26.7377 33.5842 26.1852C33.4831 25.9655 33.3766 25.7459 33.2733 25.5262C32.9625 24.8671 32.6813 24.7573 32.0189 25.0429C31.9354 25.0802 31.8596 25.1527 31.7531 25.0956C31.5926 25.0168 31.4683 24.8797 31.4056 24.7122C31.3429 24.5448 31.3466 24.3597 31.4159 24.1949C31.4346 24.1455 31.4565 24.0971 31.4752 24.0477C31.6279 23.6534 31.5027 23.3085 31.1204 23.1151C30.781 22.9438 30.435 22.7856 30.089 22.6252C29.973 22.5701 29.8434 22.5502 29.7162 22.5677C29.5889 22.5853 29.4696 22.6396 29.3728 22.7241C29.2439 22.8201 29.151 22.9566 29.1092 23.1118C29.0378 23.3733 28.872 23.4216 28.6336 23.3711C28.363 23.308 28.0818 23.3046 27.8098 23.3612C27.5242 23.4249 27.3561 23.3744 27.2342 23.0613C27.0442 22.5747 26.6531 22.4594 26.172 22.6791C25.9524 22.7801 25.7327 22.8867 25.513 22.991C24.7913 23.3304 24.7057 23.5699 25.0231 24.3146C25.0517 24.3827 25.1494 24.4574 25.0659 24.5442C24.9122 24.7046 24.7727 24.8979 24.5848 25.0033C24.4618 25.0714 24.3014 24.9111 24.1597 24.8506C23.7445 24.6716 23.3777 24.7968 23.1712 25.1999C23.0415 25.4548 22.9229 25.714 22.8021 25.9688C22.4923 26.6367 22.5879 26.9146 23.2513 27.2276C23.4029 27.299 23.4765 27.3693 23.4502 27.5571C23.3925 27.8839 23.3895 28.218 23.4414 28.5457C23.4952 28.8214 23.3974 28.9532 23.1393 29.0631C22.6285 29.2828 22.5143 29.6398 22.7461 30.1461C22.8559 30.3768 22.9658 30.6064 23.0679 30.8359C23.3689 31.4796 23.6797 31.5916 24.3355 31.3017C24.4179 31.2654 24.509 31.1633 24.598 31.2379C24.7762 31.3713 24.9336 31.5305 25.0648 31.7103C25.1439 31.8344 24.9868 31.9772 24.9297 32.1068C24.7254 32.5692 24.8528 32.9317 25.312 33.1536C25.5591 33.2733 25.8063 33.3941 26.0567 33.5084C26.7092 33.8082 26.9278 33.7358 27.2243 33.0855C27.2349 33.0482 27.253 33.0135 27.2774 32.9834C27.3018 32.9533 27.3321 32.9284 27.3664 32.9104C27.4007 32.8923 27.4383 32.8814 27.4769 32.8782C27.5156 32.8751 27.5544 32.8798 27.5912 32.8922C27.8928 32.9618 28.2056 32.9674 28.5095 32.9086C28.7874 32.846 28.9423 32.9086 29.0587 33.192C29.2784 33.7127 29.6222 33.828 30.1373 33.6006C30.4471 33.4633 30.7568 33.326 31.0567 33.1701C31.4543 32.9636 31.6059 32.5934 31.4016 32.2133C31.2314 31.8981 31.2412 31.6773 31.551 31.4873C31.5774 31.4691 31.5992 31.4451 31.6147 31.417C31.7136 31.2577 31.819 31.2874 31.953 31.3807C32.1244 31.5016 32.2913 31.6466 32.511 31.6191C32.6317 31.6282 32.7524 31.6019 32.8584 31.5433C32.9643 31.4848 33.0509 31.3966 33.1075 31.2896C33.3271 30.8887 33.5095 30.4734 33.6929 30.0571C33.7348 29.9362 33.7325 29.8042 33.6863 29.6848ZM32.0387 27.2221C32.204 27.8518 32.204 28.5136 32.0387 29.1433C31.9915 29.3267 32.0387 29.3981 32.1914 29.4442L32.2199 29.4563C32.4396 29.5826 32.857 29.6551 32.8504 29.8067C32.8361 30.111 32.6176 30.4053 32.4836 30.7041C32.4385 30.8063 32.3737 30.7667 32.3045 30.7316C32.1057 30.6338 31.8959 30.5536 31.7037 30.4438C31.5598 30.3614 31.484 30.3944 31.3873 30.5174C31.1361 30.8492 30.8404 31.1449 30.5086 31.3961C30.3812 31.4928 30.3691 31.5741 30.4416 31.7158C30.5657 31.9596 30.6613 32.2166 30.7711 32.4671C30.4976 32.6022 30.2219 32.7351 29.9506 32.8746C29.8408 32.9306 29.7485 32.9427 29.7155 32.7999C29.5596 32.1277 29.174 31.9871 28.5238 32.1705C28.1162 32.2803 27.6571 32.21 27.2331 32.0837C27.0508 32.0299 26.9475 32.0684 26.8717 32.2584C26.7784 32.4912 26.6883 32.8405 26.5169 32.8977C26.3456 32.9548 26.0776 32.7087 25.8337 32.6231C25.5899 32.5374 25.5207 32.4166 25.6723 32.1771C25.7887 31.9926 25.9447 31.7773 25.9359 31.5818C25.9271 31.3862 25.636 31.3137 25.4921 31.1556C25.3823 31.0303 25.2527 30.9139 25.1417 30.7854C24.8056 30.3933 24.8122 30.3922 24.3388 30.6086C23.9346 30.7953 23.9346 30.7953 23.75 30.3988C23.4655 29.7902 23.4589 29.776 24.0642 29.5079C24.3124 29.3981 24.3772 29.2773 24.3047 29.0137C24.1573 28.456 24.1611 27.869 24.3157 27.3133C24.3662 27.1222 24.3695 26.9838 24.14 26.8992C23.9104 26.8146 23.5973 26.7619 23.5238 26.562C23.4502 26.3621 23.705 26.1336 23.772 25.9029C23.861 25.5954 24.0071 25.591 24.2718 25.7316C24.8155 26.0216 24.821 26.0007 25.2494 25.547C25.44 25.3471 25.6436 25.1599 25.859 24.9868C25.982 24.8891 26.0227 24.8034 25.9282 24.6716C25.9216 24.6639 25.9282 24.6518 25.9183 24.6419C25.8085 24.4003 25.558 24.0763 25.6349 23.9379C25.7777 23.6819 26.1709 23.6435 26.4477 23.493C26.5576 23.4359 26.5949 23.4589 26.6334 23.5644C26.7092 23.772 26.808 23.973 26.875 24.1839C26.9223 24.3322 26.9772 24.3838 27.1419 24.3388C27.7888 24.1591 28.4723 24.1591 29.1191 24.3388C29.2872 24.3849 29.3454 24.3256 29.4003 24.1894C29.476 24.0501 29.5438 23.9068 29.6035 23.7599C29.6859 23.4579 29.8419 23.4655 30.0637 23.6094C30.2856 23.7533 30.6371 23.7467 30.6898 23.9708C30.7338 24.1575 30.535 24.4102 30.4163 24.6233C30.3186 24.7957 30.3328 24.9012 30.502 25.0121C30.8222 25.2421 31.1036 25.5217 31.3357 25.8403C31.3862 25.9029 31.417 25.9952 31.5334 25.9919C31.7454 25.893 31.9728 25.7986 32.1837 25.6832C32.355 25.591 32.4616 25.5833 32.5407 25.7931C32.6362 26.049 32.8867 26.3192 32.8427 26.5367C32.7988 26.7542 32.4034 26.8036 32.1617 26.93C32.0354 27.0068 31.9948 27.0563 32.0387 27.2221Z" fill="#050615"/>
<path d="M28.2163 24.9769C27.5801 24.9715 26.9567 25.155 26.425 25.5042C25.8933 25.8535 25.4772 26.3527 25.2295 26.9386C24.9818 27.5246 24.9136 28.1708 25.0336 28.7956C25.1536 29.4203 25.4563 29.9953 25.9034 30.4479C26.3505 30.9004 26.9219 31.21 27.5451 31.3374C28.1684 31.4649 28.8154 31.4044 29.4043 31.1638C29.9932 30.9231 30.4973 30.5131 30.8529 29.9856C31.2085 29.4581 31.3995 28.8369 31.4017 28.2008C31.4035 27.3519 31.0696 26.5366 30.473 25.9328C29.8763 25.3289 29.0652 24.9853 28.2163 24.9769ZM28.1844 30.703C27.687 30.7021 27.201 30.5537 26.788 30.2766C26.3749 29.9994 26.0533 29.606 25.8639 29.146C25.6745 28.6861 25.6258 28.1803 25.724 27.6927C25.8221 27.205 26.0627 26.7574 26.4152 26.4066C26.7678 26.0557 27.2165 25.8173 27.7046 25.7215C28.1927 25.6257 28.6983 25.6768 29.1573 25.8684C29.6164 26.0601 30.0082 26.3835 30.2834 26.7979C30.5586 27.2123 30.7046 27.699 30.7031 28.1964C30.6979 28.8617 30.4305 29.498 29.9589 29.9673C29.4873 30.4366 28.8497 30.701 28.1844 30.703Z" fill="#050615"/>
</g>
<defs>
<clipPath id="clip0_6_2813">
<rect width="30" height="29.9945" fill="white" transform="translate(20 20)"/>
</clipPath>
</defs>
</svg>
