<svg width="70" height="70" viewBox="0 0 70 70" fill="none" xmlns="http://www.w3.org/2000/svg">
<rect width="70" height="70" rx="10" fill="white"/>
<g clip-path="url(#clip0_6_2808)">
<path d="M47.7947 35.3343C47.6107 35.3031 47.5729 35.2525 47.5766 35.085C47.5867 34.6379 47.5766 34.1907 47.5766 33.7427C47.5766 32.7941 47.0071 32.2218 46.0641 32.2209C44.6766 32.2209 43.2883 32.208 41.8999 32.2301C41.5696 32.2301 41.5209 32.1271 41.5227 31.8326C41.5337 29.47 41.5291 27.1064 41.5282 24.7428C41.5282 24.2919 41.4068 24.1686 40.9652 24.1677C39.9224 24.1677 38.8797 24.1677 37.837 24.1677C37.3843 24.1677 37.2748 24.28 37.2748 24.7372C37.2748 26.9625 37.2748 29.1881 37.2748 31.414C37.2748 32.2246 37.2748 32.2126 36.4624 32.2273C36.2076 32.2273 36.1404 32.1712 36.1432 31.9099C36.1579 30.5915 36.1524 29.2722 36.1487 27.9537C36.1487 27.5268 36.0199 27.4017 35.5967 27.4017C34.5411 27.4017 33.4858 27.4017 32.4308 27.4017C32.014 27.4017 31.9027 27.513 31.9027 27.9289C31.9027 29.0642 31.9027 30.1989 31.9027 31.3331C31.9027 32.2531 31.9027 32.2421 30.9928 32.2227C30.7876 32.2227 30.7462 32.151 30.7508 31.9642C30.7618 31.46 30.7581 30.9522 30.7508 30.4498C30.7508 30.0579 30.6303 29.9475 30.2328 29.9465C29.2115 29.9465 28.1906 29.9465 27.17 29.9465C26.5692 29.9465 26.5084 30.0091 26.5084 30.6219C26.5084 33.4433 26.5084 36.2648 26.5084 39.0863C26.5084 39.2133 26.5084 39.3393 26.5084 39.4654C26.513 39.7727 26.6612 39.9254 26.9767 39.9254C27.3089 39.9208 27.6419 39.9337 27.9741 39.9208C28.1581 39.9134 28.2391 39.9548 28.2326 40.1618C28.217 40.6219 28.2326 41.0819 28.2326 41.5999C28.1102 41.5309 28.033 41.4885 27.9566 41.4444C26.9735 40.8626 25.8273 40.6177 24.6923 40.747C21.3074 41.1214 19.1582 44.5495 20.3165 47.7394C20.5996 48.5316 21.0691 49.2441 21.6854 49.8168C22.3017 50.3895 23.0467 50.8054 23.8576 51.0296C24.6685 51.2538 25.5214 51.2796 26.3443 51.1049C27.1673 50.9302 27.9361 50.56 28.5859 50.0257C28.7699 49.8775 28.8536 49.8794 29.022 50.0376C29.5354 50.5207 30.1601 50.7369 30.8621 50.7369C36.3566 50.7369 41.8512 50.7369 47.3457 50.7369C48.919 50.7369 49.9963 49.6521 49.9963 48.0807C49.9963 44.7072 49.9963 41.3337 49.9963 37.9602C50 36.5589 49.183 35.5754 47.7947 35.3343ZM38.0422 28.5913C38.0422 27.4679 38.0477 26.3446 38.0366 25.2221C38.0366 24.9976 38.0928 24.9277 38.3219 24.9323C39.0432 24.9458 39.7651 24.9458 40.4877 24.9323C40.702 24.9323 40.7581 24.9939 40.7572 25.2028C40.7505 27.4618 40.7505 29.7199 40.7572 31.9771C40.7572 32.1749 40.7002 32.2273 40.5061 32.2246C39.7847 32.2135 39.0616 32.2108 38.3403 32.2246C38.1038 32.2292 38.033 32.1712 38.0357 31.9256C38.0468 30.816 38.0394 29.7037 38.0394 28.5913H38.0422ZM32.6608 30.1913C32.6608 29.6061 32.6682 29.0219 32.6562 28.4367C32.6562 28.2399 32.6856 28.1607 32.9138 28.1607C33.6499 28.1773 34.3813 28.1736 35.1146 28.1607C35.3115 28.1607 35.3648 28.2178 35.3639 28.4119C35.3556 29.608 35.3538 30.7967 35.3639 31.9891C35.3639 32.2043 35.2793 32.2237 35.1035 32.2218C34.3675 32.2145 33.6361 32.2117 32.9028 32.2218C32.7096 32.2218 32.6507 32.174 32.6553 31.9771C32.6663 31.3846 32.658 30.7875 32.658 30.1913H32.6608ZM30.4886 32.979C35.6408 32.979 40.7931 32.979 45.9454 32.979C46.6096 32.979 46.7964 33.1676 46.7964 33.8328C46.7964 34.2008 46.7771 34.5689 46.8029 34.9369C46.824 35.2304 46.7504 35.3196 46.4348 35.3178C43.7731 35.3031 41.1114 35.3095 38.4497 35.3095C35.8123 35.3095 33.1748 35.3095 30.5373 35.3095C30.2738 35.3208 30.0104 35.2828 29.7608 35.1973C29.5323 35.1181 29.3363 34.9657 29.2032 34.7637C29.0701 34.5618 29.0074 34.3216 29.0248 34.0803C29.0395 33.8389 29.1311 33.6086 29.286 33.4229C29.4409 33.2372 29.6511 33.1058 29.8859 33.048C30.0833 33.001 30.2857 32.9778 30.4886 32.979ZM27.894 39.1709C27.2877 39.1525 27.2877 39.1663 27.2877 38.5582V34.9461C27.2877 33.6387 27.296 32.3304 27.2804 31.0239C27.2804 30.758 27.3549 30.7019 27.6061 30.7083C28.3163 30.7258 29.0275 30.7212 29.7387 30.7083C29.9347 30.7083 30.0065 30.7626 29.9853 30.9577C29.9715 31.0833 29.9715 31.2101 29.9853 31.3358C30.0497 31.8878 30 32.2559 29.3109 32.4684C28.55 32.6993 28.2381 33.4234 28.2335 34.2165C28.2231 35.753 28.2231 37.2898 28.2335 38.8268C28.2345 39.1056 28.1581 39.1792 27.8894 39.1709H27.894ZM25.2507 50.4599C24.3654 50.4563 23.5009 50.1906 22.7664 49.6964C22.0318 49.2021 21.46 48.5015 21.1231 47.6827C20.7862 46.864 20.6992 45.9638 20.8732 45.0957C21.0471 44.2276 21.4742 43.4304 22.1005 42.8047C22.7269 42.179 23.5245 41.7527 24.3928 41.5797C25.2611 41.4066 26.1611 41.4945 26.9795 41.8323C27.7979 42.17 28.498 42.7425 28.9915 43.4776C29.485 44.2127 29.7498 45.0774 29.7525 45.9627C29.7524 46.5537 29.6359 47.1388 29.4095 47.6847C29.1832 48.2305 28.8515 48.7265 28.4334 49.1441C28.0154 49.5617 27.5191 49.8929 26.973 50.1187C26.4269 50.3445 25.8417 50.4604 25.2507 50.4599ZM49.2272 48.0678C49.2815 49.3899 48.2409 49.9843 47.284 49.9824C44.4012 49.9769 41.5218 49.9769 38.6457 49.9824H30.9707C30.426 49.9824 29.931 49.8463 29.5188 49.47C29.3983 49.3605 29.3486 49.2859 29.4692 49.1121C30.9928 46.9389 30.8621 44.4198 29.1343 42.4224C29.0521 42.3442 29.0041 42.2368 29.0009 42.1234C29.0009 40.0008 29.0009 37.8783 29.0009 35.6895C29.5317 36.0428 30.0699 36.0814 30.6257 36.0805C36.1785 36.075 41.7309 36.0735 47.2831 36.0759C47.8352 36.0759 48.3182 36.2296 48.723 36.6123C48.8855 36.7664 49.0136 36.9531 49.099 37.1602C49.1843 37.3672 49.2248 37.59 49.218 37.8139C49.218 38.6631 49.2088 39.5123 49.2253 40.3606C49.2309 40.6081 49.1333 40.6366 48.9263 40.6366C47.4699 40.6301 46.0125 40.6559 44.5561 40.6255C43.4401 40.6025 42.624 41.4536 42.7022 42.4942C42.7353 42.9542 42.7068 43.4142 42.7077 43.8742C42.7077 44.9194 43.4198 45.6288 44.4853 45.6343C45.9426 45.6416 47.4 45.6472 48.8564 45.6269C49.1738 45.6223 49.2355 45.7189 49.2244 46.0106C49.2069 46.6933 49.1987 47.3787 49.2272 48.066V48.0678ZM49.2272 44.6167C49.2272 44.8136 49.1462 44.8394 48.9806 44.8375C48.2013 44.832 47.4221 44.8375 46.6428 44.8375C45.9205 44.8375 45.1992 44.8375 44.477 44.8375C43.8329 44.8375 43.4833 44.4861 43.4741 43.8402C43.4668 43.359 43.4649 42.8769 43.4741 42.3957C43.487 41.8004 43.8173 41.4297 44.3997 41.4232C45.9353 41.4057 47.4708 41.4177 49.0073 41.4122C49.1692 41.4122 49.2263 41.4628 49.2253 41.6284C49.2189 42.6202 49.2171 43.6175 49.2263 44.6149L49.2272 44.6167Z" fill="#050615"/>
<path d="M21.6561 39.9281C22.7105 39.9281 23.7652 39.9281 24.8202 39.9281C25.2526 39.9281 25.3602 39.8177 25.3602 39.3761C25.3602 37.6586 25.3602 35.9388 25.3602 34.2164V29.0587C25.3602 28.5802 25.2738 28.4882 24.8082 28.4873C23.7655 28.4873 22.7228 28.4873 21.6801 28.4873C21.2256 28.4873 21.1087 28.6032 21.1078 29.0513C21.1078 32.491 21.1078 35.9311 21.1078 39.3715C21.1105 39.8002 21.2375 39.9272 21.6561 39.9281ZM22.1962 29.25C22.9175 29.2666 23.6398 29.2629 24.3611 29.25C24.5543 29.25 24.6086 29.2997 24.6077 29.4948C24.6021 32.6346 24.6021 35.7747 24.6077 38.9151C24.6077 39.1488 24.5156 39.1681 24.3316 39.1654C23.6214 39.1562 22.9102 39.1516 22.2008 39.1654C21.9579 39.1709 21.8963 39.1001 21.8981 38.8608C21.9082 37.3023 21.9036 35.7437 21.9036 34.1852C21.9036 32.6266 21.9091 31.091 21.8972 29.5444C21.8935 29.3043 21.9579 29.2445 22.1971 29.25H22.1962Z" fill="#050615"/>
<path d="M23.4704 26.0198L27.6107 28.0062C28.0606 28.2234 28.1102 28.2114 28.4589 27.8314C29.6449 26.5434 30.8382 25.2553 32.0122 23.9488C32.2026 23.7372 32.3535 23.7206 32.5936 23.8255C33.1061 24.0482 33.6379 24.2267 34.1439 24.4613C34.4429 24.6002 34.6674 24.5643 34.9342 24.3868C36.628 23.2569 38.331 22.1428 40.0313 21.024C40.2263 20.8952 40.4242 20.771 40.6689 20.6136C40.621 20.9614 40.5852 21.2439 40.5428 21.5263C40.4978 21.8244 40.6164 22.0554 40.8584 22.0784C41.1455 22.106 41.2752 21.9183 41.3102 21.6671C41.3966 21.0553 41.4657 20.4416 41.5494 19.827C41.5917 19.5133 41.4574 19.344 41.1556 19.3017C40.4196 19.2004 39.6835 19.1011 38.9475 19.0036C38.7009 18.9714 38.4994 19.0514 38.4589 19.3145C38.4148 19.5905 38.5749 19.7304 38.849 19.7654C39.2861 19.8224 39.7212 19.8932 40.1693 19.9595C40.1417 20.0046 40.1353 20.0294 40.1196 20.0405C38.2857 21.25 36.4526 22.4602 34.6205 23.671C34.4926 23.7547 34.3942 23.7271 34.2746 23.6774C33.6738 23.4317 33.0665 23.1999 32.4703 22.9414C32.1741 22.8135 31.9662 22.8641 31.7472 23.1061C30.7192 24.2402 29.6863 25.3648 28.6485 26.4799C28.4001 26.7458 28.2013 27.1883 27.883 27.2223C27.5647 27.2564 27.2242 26.9574 26.9004 26.801C25.8506 26.3005 24.8027 25.7963 23.7511 25.2976C23.4484 25.155 23.1806 25.2599 23.1309 25.5368C23.0813 25.8138 23.2634 25.9214 23.4704 26.0198Z" fill="#050615"/>
<path d="M25.3363 44.1024C25.7963 44.1346 26.0493 44.3563 26.1119 44.8163C26.1477 45.0786 26.2793 45.235 26.5305 45.212C26.7816 45.189 26.8985 45.0096 26.8755 44.763C26.8755 44.1604 26.513 43.6635 25.892 43.4409C25.708 43.3746 25.6104 43.3029 25.6362 43.0894C25.6684 42.8217 25.5442 42.6294 25.2617 42.6294C24.9793 42.6294 24.8606 42.8198 24.8817 43.0894C24.8955 43.2642 24.8643 43.3654 24.6655 43.4335C23.9221 43.6948 23.5946 44.2275 23.6452 45.0234C23.6875 45.6821 24.0629 46.075 24.821 46.2608C25.1117 46.32 25.3986 46.3962 25.6804 46.489C26.0659 46.6334 26.2011 46.9766 26.0594 47.3538C25.9398 47.6703 25.581 47.8755 25.1992 47.847C24.7566 47.8148 24.4815 47.5793 24.4144 47.1321C24.373 46.8561 24.2524 46.6988 23.9691 46.7356C23.6857 46.7724 23.624 46.9693 23.6443 47.214C23.693 47.8194 23.9957 48.25 24.5643 48.4643C24.7925 48.5508 24.9232 48.6364 24.8909 48.9124C24.8633 49.1544 25.017 49.3025 25.2645 49.3025C25.512 49.3025 25.6527 49.1571 25.638 48.9106C25.6233 48.664 25.6868 48.56 25.9324 48.4726C26.6216 48.2288 26.9178 47.7025 26.8764 46.9039C26.8442 46.2783 26.5158 45.9103 25.799 45.7079C25.4816 45.6159 25.155 45.5533 24.8459 45.4401C24.465 45.3003 24.3362 44.9912 24.4594 44.6121C24.5662 44.2662 24.9057 44.072 25.3363 44.1024Z" fill="#050615"/>
<path d="M45.3933 41.9302C45.2352 41.929 45.0783 41.9594 44.932 42.0196C44.7858 42.0798 44.653 42.1687 44.5416 42.281C44.4301 42.3933 44.3423 42.5267 44.2831 42.6735C44.224 42.8202 44.1948 42.9773 44.1973 43.1355C44.1973 43.451 44.3226 43.7536 44.5457 43.9767C44.7688 44.1998 45.0714 44.3251 45.3869 44.3251C45.7024 44.3251 46.005 44.1998 46.2281 43.9767C46.4512 43.7536 46.5765 43.451 46.5765 43.1355C46.5793 42.9783 46.5508 42.8221 46.4926 42.6761C46.4344 42.53 46.3477 42.397 46.2376 42.2848C46.1275 42.1726 45.9961 42.0835 45.8511 42.0226C45.7062 41.9617 45.5506 41.9303 45.3933 41.9302ZM45.42 43.5329C45.1698 43.5421 45.006 43.4161 44.9821 43.1548C44.9776 43.0978 44.9847 43.0404 45.0031 42.9863C45.0215 42.9321 45.0508 42.8823 45.0891 42.8398C45.1274 42.7974 45.174 42.7632 45.226 42.7393C45.278 42.7155 45.3343 42.7025 45.3915 42.7012C45.6132 42.6966 45.8065 42.8852 45.8166 43.152C45.8168 43.2038 45.8064 43.2551 45.786 43.3028C45.7657 43.3504 45.7358 43.3934 45.6982 43.4291C45.6607 43.4648 45.6162 43.4924 45.5676 43.5102C45.5189 43.5281 45.4672 43.5358 45.4154 43.5329H45.42Z" fill="#050615"/>
</g>
<defs>
<clipPath id="clip0_6_2808">
<rect width="30" height="32.2238" fill="white" transform="translate(20 19)"/>
</clipPath>
</defs>
</svg>
