<svg width="70" height="70" viewBox="0 0 70 70" fill="none" xmlns="http://www.w3.org/2000/svg">
<rect width="70" height="70" rx="10" fill="white"/>
<g clip-path="url(#clip0_6_2803)">
<path d="M48.5914 28.1979C48.8846 28.0444 49.1737 27.8821 49.4556 27.7133C49.9758 27.395 50.1543 26.8063 49.8595 26.2772C48.7853 24.3604 47.7027 22.4489 46.6118 20.5428C46.3106 20.0154 45.7121 19.8619 45.175 20.1478C44.7927 20.3481 44.4171 20.56 44.0483 20.7835C43.5411 21.0928 43.3844 21.6719 43.6509 22.1985C43.7147 22.3245 43.7915 22.4408 43.8601 22.5652C43.89 22.6177 43.9239 22.6823 43.8601 22.7267C43.8076 22.7606 43.7511 22.8269 43.6719 22.7679C43.6154 22.7259 43.5556 22.6871 43.4975 22.6484C41.2533 21.0822 38.6156 20.1754 35.8828 20.0307C33.1918 19.8614 30.5059 20.4329 28.117 21.6832C27.9499 21.7704 27.8634 21.7696 27.7253 21.6105C26.5025 20.2092 24.972 19.6842 23.1749 20.1858C21.5031 20.6518 20.4515 21.8011 20.1058 23.49C19.7601 25.1788 20.2996 26.6035 21.6072 27.7246C21.7631 27.8586 21.7777 27.9459 21.688 28.1155C21.4022 28.6441 21.1568 29.1935 20.9538 29.7591C20.0558 32.1615 19.7913 34.7547 20.1858 37.289C20.4067 38.7474 20.845 40.1644 21.4861 41.4929C21.5733 41.6738 21.537 41.7433 21.3746 41.824C21.1154 41.9549 20.865 42.1043 20.613 42.2497C20 42.6042 19.8385 43.1914 20.1874 43.8157C20.4111 44.2196 20.6397 44.6234 20.8674 45.0216C21.6891 46.4705 22.5102 47.9189 23.3308 49.3668C23.6943 50.0057 24.2726 50.1648 24.913 49.811C25.2636 49.6172 25.6157 49.4242 25.9573 49.2126C26.4557 48.904 26.6091 48.3475 26.3539 47.8226C26.2925 47.6966 26.2174 47.5803 26.1496 47.4543C26.1165 47.3937 26.0688 47.3307 26.1496 47.2709C26.2166 47.2225 26.2853 47.1902 26.3652 47.2564C26.4201 47.3002 26.4775 47.3407 26.5373 47.3775C28.6616 48.8431 31.1338 49.7246 33.7061 49.9338C36.7306 50.1863 39.5746 49.5879 42.2383 48.1384C42.3118 48.098 42.3788 48.0156 42.5137 48.0802C42.4661 48.1828 42.4249 48.274 42.3821 48.3637C42.2763 48.5858 42.2423 48.8128 42.4023 49.0187C42.5622 49.2247 42.7778 49.282 43.0484 49.2231C43.6138 49.0995 43.6138 49.1092 43.8989 49.5994C44.0321 49.8296 44.1896 50.0033 44.486 49.9895C44.7825 49.9758 44.9181 49.7739 45.028 49.5356C45.2234 49.1076 45.4318 48.6843 45.6208 48.2539C45.687 48.1052 45.7549 47.9906 45.9398 47.9922C46.1248 47.9938 46.1862 48.1238 46.2516 48.2668C46.4414 48.6868 46.6466 49.1003 46.8347 49.5203C46.947 49.7723 47.077 49.979 47.3936 49.9903C47.6925 50 47.8427 49.8143 47.9744 49.5865C48.2441 49.1189 48.2465 49.1205 48.7764 49.2101C48.7865 49.2115 48.7965 49.2137 48.8063 49.2166C48.9194 49.2621 49.0445 49.2684 49.1617 49.2345C49.2788 49.2005 49.3812 49.1282 49.4524 49.0292C49.6236 48.8152 49.5857 48.585 49.4734 48.3508C49.2731 47.9356 49.0841 47.5157 48.8894 47.0981C48.8491 47.0101 48.7699 46.9204 48.9161 46.8501C49.6268 46.5101 49.7197 45.9011 49.6034 45.2195C49.5664 45.0329 49.5983 44.8392 49.6931 44.6743C49.8183 44.4449 49.9515 44.2163 49.9822 43.9522C50.0125 43.7312 49.9827 43.506 49.8958 43.3005C49.809 43.095 49.6684 42.9167 49.4887 42.7843C49.3567 42.6852 49.2463 42.5601 49.1644 42.4168C49.0824 42.2735 49.0307 42.1149 49.0122 41.9508C48.9955 41.7488 48.9187 41.5564 48.7917 41.3984C48.6649 41.2562 48.6803 41.1407 48.753 40.9744C49.8837 38.3898 50.2286 35.689 49.8481 32.8977C49.6413 31.3649 49.1872 29.8759 48.5034 28.4886C48.425 28.3352 48.4468 28.2738 48.5914 28.1979ZM44.1412 23.6951C44.339 23.5522 44.4376 23.5635 44.5636 23.7961C45.0563 24.7039 45.5707 25.6004 46.086 26.4961C46.1749 26.6504 46.2064 26.7344 46.015 26.8418C45.0789 27.3676 44.1509 27.9079 43.222 28.4458C42.4951 28.8666 41.7682 28.9522 40.9533 28.63C39.8185 28.1817 38.6628 27.7779 37.4537 27.555C37.3714 27.5419 37.2926 27.5127 37.2217 27.469C37.1508 27.4254 37.0892 27.3681 37.0406 27.3005C36.9919 27.233 36.9571 27.1564 36.9382 27.0753C36.9193 26.9942 36.9166 26.9102 36.9303 26.8281C36.9764 26.505 37.2219 26.3144 37.616 26.3588C38.246 26.4291 38.8421 26.6496 39.451 26.8119C39.6837 26.8733 39.9122 26.9492 40.1448 27.0082C40.4881 27.0946 40.7304 26.971 40.8176 26.6778C40.8984 26.3976 40.7457 26.1545 40.4049 26.0608C39.4002 25.7854 38.41 25.4534 37.3737 25.3064C37.1855 25.2798 36.9941 25.2717 36.8084 25.2547C36.2252 25.2402 35.7002 25.4163 35.2051 25.7086C33.9576 26.4366 32.7092 27.1635 31.46 27.8893C31.0255 28.1429 30.578 28.3642 30.0764 28.4547C29.6476 28.5355 29.3205 28.3933 29.188 28.0711C29.0329 27.6858 29.1581 27.3442 29.5507 27.1019C31.8162 25.707 34.0857 24.3194 36.3439 22.9133C36.6374 22.7196 36.9697 22.5924 37.3175 22.5406C37.6654 22.4889 38.0203 22.5138 38.3575 22.6136C39.9316 23.0449 41.5154 23.4415 43.0823 23.897C43.5072 24.0246 43.8262 23.9229 44.1404 23.6951H44.1412ZM20.9805 24.3614C20.9885 23.4673 21.3473 22.6121 21.9796 21.9799C22.612 21.3477 23.4673 20.9892 24.3614 20.9814C26.2029 20.9814 27.7407 22.5159 27.7431 24.3606C27.7455 26.2053 26.2029 27.7423 24.3614 27.7423C22.5199 27.7423 20.9805 26.2053 20.9805 24.3614ZM25.3621 48.4299C25.0479 48.606 24.7313 48.778 24.4244 48.967C24.2297 49.0866 24.2015 48.9202 24.1449 48.8208C23.487 47.661 22.8322 46.5012 22.1807 45.3414C21.8213 44.705 21.4708 44.0629 21.0952 43.4361C20.9684 43.2245 21.0088 43.1316 21.2147 43.0323C21.4591 42.9162 21.6947 42.7826 21.9198 42.6325C22.1322 42.4895 22.2429 42.5154 22.3721 42.7496C23.2654 44.3593 24.1781 45.9601 25.0883 47.5641C25.1925 47.7466 25.2951 47.93 25.3976 48.1133C25.4267 48.1658 25.4534 48.2199 25.4784 48.2652C25.4921 48.3637 25.4259 48.392 25.3621 48.4299ZM25.8152 46.33C25.6537 46.4625 25.5616 46.4301 25.4574 46.242C24.9491 45.3196 24.4309 44.4029 23.9026 43.4919C23.8025 43.319 23.8219 43.2496 23.9955 43.1518C24.9203 42.6301 25.8394 42.0962 26.7586 41.5648C27.4855 41.1432 28.2124 41.0406 29.0265 41.3645C30.1693 41.8192 31.334 42.2222 32.5511 42.4508C32.6335 42.4643 32.7123 42.4941 32.783 42.5384C32.8537 42.5827 32.9149 42.6407 32.963 42.7088C33.0111 42.777 33.0451 42.8541 33.0632 42.9355C33.0812 43.017 33.0829 43.1012 33.068 43.1833C33.0196 43.5064 32.7708 43.6922 32.3775 43.6477C31.758 43.5775 31.1716 43.357 30.5707 43.2043C30.3284 43.1429 30.0918 43.0589 29.8503 42.9968C29.5103 42.9111 29.2664 43.0371 29.1807 43.3319C29.1 43.6106 29.2559 43.8521 29.5975 43.9458C30.6022 44.2196 31.5916 44.5531 32.6271 44.6993C32.8161 44.726 33.0075 44.734 33.1973 44.751C33.8014 44.7647 34.3385 44.5661 34.8506 44.2664C36.079 43.546 37.3123 42.8336 38.5424 42.1164C38.9866 41.8579 39.4414 41.6261 39.955 41.5454C40.2434 41.4993 40.5293 41.526 40.7247 41.7756C40.9073 42.0074 40.9065 42.2747 40.8055 42.5469C40.7456 42.687 40.638 42.8015 40.5018 42.8699L33.5559 47.1506C33.2942 47.3199 32.9992 47.4312 32.6909 47.4769C32.3826 47.5226 32.0681 47.5016 31.7685 47.4155C30.2129 46.9947 28.6485 46.6078 27.1002 46.1588C26.6172 46.011 26.2077 46.0069 25.8152 46.33ZM44.4117 48.4808C44.2357 48.1424 43.9796 48.0237 43.5952 48.1432C43.6538 47.9424 43.7391 47.7503 43.8488 47.5722C43.9969 47.8026 44.203 47.9901 44.4465 48.1157C44.7001 48.2426 44.4117 48.3492 44.4109 48.4808H44.4117ZM47.4736 48.5067C47.3161 48.2951 47.2224 48.1521 47.5334 48.0431C47.7434 47.9696 47.8686 47.7693 48.0236 47.5633C48.1092 47.7507 48.1852 47.9122 48.2821 48.1327C47.8928 48.0366 47.6166 48.1311 47.4728 48.5107L47.4736 48.5067ZM48.8983 43.5742C48.9281 43.594 48.9535 43.6196 48.9729 43.6496C48.9923 43.6796 49.0053 43.7132 49.0112 43.7485C49.017 43.7837 49.0155 43.8198 49.0068 43.8544C48.9981 43.889 48.9823 43.9215 48.9605 43.9498C48.6447 44.4546 48.5074 44.9901 48.656 45.5845C48.711 45.8042 48.6084 45.9431 48.3879 46.0118C48.1313 46.0845 47.893 46.2108 47.6889 46.3825C47.4848 46.5542 47.3194 46.7673 47.2038 47.0076C47.0932 47.2322 46.9139 47.2758 46.7015 47.1877C46.4575 47.0809 46.1941 47.0257 45.9277 47.0257C45.6614 47.0257 45.3979 47.0809 45.154 47.1877C44.9432 47.2758 44.7679 47.2249 44.654 46.9996C44.5405 46.7637 44.3785 46.5545 44.1786 46.3854C43.9788 46.2163 43.7456 46.0912 43.4942 46.0182C43.2681 45.9488 43.151 45.8187 43.1978 45.5732C43.3917 44.9836 43.2067 44.4635 42.9095 43.9651C42.8852 43.9327 42.8679 43.8955 42.8588 43.856C42.8496 43.8165 42.8489 43.7755 42.8565 43.7357C42.8641 43.6959 42.8799 43.6581 42.9029 43.6247C42.926 43.5913 42.9557 43.5632 42.9902 43.5419C43.2221 43.3729 43.4158 43.1571 43.559 42.9085C43.7021 42.6599 43.7915 42.384 43.8213 42.0986C43.8228 42.0579 43.833 42.018 43.8512 41.9816C43.8693 41.9452 43.895 41.913 43.9266 41.8873C43.9582 41.8617 43.9949 41.843 44.0343 41.8326C44.0736 41.8223 44.1148 41.8204 44.1549 41.8272C44.4361 41.8487 44.7186 41.8103 44.9838 41.7145C45.2491 41.6187 45.4909 41.4678 45.6935 41.2716C45.855 41.1222 46.0166 41.1302 46.1725 41.278C46.3756 41.4742 46.6183 41.6247 46.8844 41.7193C47.1505 41.8139 47.4337 41.8504 47.7151 41.8264C47.7532 41.8203 47.7921 41.8221 47.8295 41.8318C47.8669 41.8414 47.9018 41.8587 47.9322 41.8825C47.9625 41.9063 47.9876 41.9362 48.0058 41.9702C48.0241 42.0042 48.0351 42.0416 48.0382 42.08C48.0679 42.3756 48.1599 42.6616 48.308 42.9191C48.4561 43.1766 48.657 43.3999 48.8975 43.5742H48.8983ZM48.9791 35.9313C48.8809 37.5057 48.5126 39.0515 47.8904 40.5011C47.7393 40.8548 47.4324 40.9501 47.1005 40.7434C46.9817 40.6691 46.8727 40.5818 46.7596 40.4954C46.1862 40.0786 45.6782 40.0552 45.1306 40.4881C44.833 40.725 44.4657 40.857 44.0854 40.8637C43.4337 40.8936 42.9975 41.2425 42.8739 41.8717C42.81 42.2463 42.6171 42.5868 42.3288 42.8344C41.8183 43.2899 41.7254 43.8319 42.0582 44.4376C42.2443 44.7705 42.304 45.1594 42.2262 45.5328C42.1454 45.9956 42.3263 46.3785 42.6898 46.7088C42.1409 47.0926 41.5568 47.4234 40.9452 47.6966C37.3107 49.3442 33.6197 49.4541 29.8802 48.0552C29.8333 48.0374 29.7889 48.0132 29.7437 47.9914C29.6209 47.9777 29.5079 47.9176 29.4279 47.8234C29.5662 47.8177 29.7032 47.8525 29.822 47.9235C30.3454 48.0584 30.872 48.182 31.3913 48.3274C32.3654 48.6076 33.2667 48.4776 34.1301 47.9405C36.1412 46.6894 38.1628 45.4545 40.1804 44.2131C40.4881 44.0241 40.799 43.8391 41.1027 43.6437C41.406 43.4412 41.636 43.1463 41.7585 42.8028C41.881 42.4593 41.8895 42.0855 41.7828 41.7368C41.5736 41.0099 40.9897 40.5738 40.224 40.5536C39.5577 40.5366 38.9576 40.7563 38.3954 41.0769C37.0442 41.8458 35.7027 42.6325 34.3571 43.4119C34.2464 43.4757 34.135 43.5363 33.9815 43.6219C34.1584 42.941 34.0332 42.3813 33.5623 41.9177C33.366 41.7133 33.1127 41.5726 32.8354 41.5139C31.5714 41.2716 30.3664 40.8322 29.1678 40.3831C28.7516 40.2154 28.3028 40.1442 27.8551 40.175C27.4075 40.2057 26.9726 40.3377 26.5833 40.5608C25.5535 41.1262 24.5399 41.715 23.5263 42.3054C23.3526 42.4055 23.2605 42.4193 23.1725 42.2157C23.0848 41.999 22.9292 41.8165 22.7291 41.6956C22.6475 41.6342 22.5862 41.5498 22.553 41.4533C21.3763 39.1377 20.848 36.6881 21.0185 34.0898C21.1422 32.1818 21.653 30.3189 22.5199 28.6146C22.616 28.424 22.6903 28.3877 22.9027 28.4612C23.5895 28.7042 24.3263 28.7714 25.0457 28.6565C25.7651 28.5416 26.4443 28.2483 27.0212 27.8034C27.5981 27.3586 28.0544 26.7763 28.3484 26.1097C28.6424 25.4431 28.7647 24.7135 28.7042 23.9875C28.6794 23.6063 28.5944 23.2315 28.4522 22.8769C28.3715 22.6936 28.4175 22.6225 28.5855 22.5369C30.079 21.7733 31.6968 21.2826 33.3628 21.088C35.6976 20.8058 38.0657 21.1204 40.2458 22.0022C40.3201 22.0321 40.3944 22.0612 40.4671 22.0943C40.5177 22.1291 40.5657 22.1674 40.6109 22.209C39.9647 22.0378 39.3953 21.9142 38.8445 21.7349C37.7041 21.3642 36.6759 21.5346 35.6607 22.1807C33.4315 23.5942 31.17 24.9575 28.9239 26.3451C28.3149 26.7214 28.0436 27.395 28.1784 28.1502C28.2382 28.4634 28.3905 28.7515 28.6157 28.9773C28.8409 29.203 29.1286 29.3561 29.4416 29.4166C29.9569 29.52 30.4609 29.4215 30.9471 29.2357C31.3195 29.0869 31.679 28.9078 32.0221 28.7002C33.2352 27.9927 34.4489 27.2857 35.6631 26.5793C35.7657 26.5195 35.8707 26.4654 36.0168 26.3855C35.8472 27.0316 35.9514 27.5776 36.3892 28.0379C36.5902 28.2664 36.8586 28.425 37.1557 28.491C38.4293 28.7382 39.6433 29.1808 40.8515 29.6339C41.7327 29.9642 42.5654 29.8762 43.3795 29.4659C44.4174 28.9377 45.4052 28.319 46.4099 27.7335C46.6522 27.5945 46.758 27.605 46.8606 27.8635C46.9331 28.043 47.0632 28.1933 47.2305 28.2907C47.3296 28.3601 47.4058 28.4574 47.4494 28.5702C48.6208 30.8384 49.1485 33.3843 48.9751 35.9313H48.9791ZM48.0689 27.3781C47.8637 27.5146 47.7595 27.4855 47.6368 27.2642C46.9777 26.0721 46.3017 24.8897 45.6305 23.7048C45.2905 23.1031 44.9569 22.5038 44.6056 21.9029C44.5062 21.7325 44.4949 21.6283 44.6985 21.529C44.9852 21.3884 45.2582 21.218 45.5376 21.0605C45.5812 21.0363 45.6257 21.0137 45.6757 20.987C45.8033 21.0096 45.8243 21.134 45.8752 21.2245C46.7066 22.6874 47.5358 24.1512 48.3628 25.6157C48.5454 25.9388 48.7118 26.2716 48.9153 26.5801C49.0502 26.7844 48.9864 26.8692 48.7998 26.9629C48.5483 27.087 48.3043 27.2257 48.0689 27.3781Z" fill="#050615"/>
<path d="M38.6264 36.3528C38.1161 35.8077 37.4925 35.3812 36.7995 35.1033C38.1563 33.782 37.9092 32.0261 36.9327 31.0537C36.4298 30.5594 35.7568 30.2764 35.0518 30.2627C34.3467 30.2491 33.6632 30.5058 33.1415 30.9802C32.178 31.8403 31.737 33.6754 33.1876 35.1049L33.026 35.1857C31.3978 35.9433 30.406 37.1968 30.112 38.9745C30.011 39.5826 30.179 39.7434 30.809 39.7434C33.6089 39.7434 36.4067 39.7434 39.2023 39.7434C39.3027 39.746 39.4031 39.7408 39.5027 39.728C39.568 39.7218 39.6313 39.7021 39.6886 39.6702C39.7459 39.6383 39.7959 39.5949 39.8356 39.5427C39.8753 39.4905 39.9037 39.4306 39.9191 39.3669C39.9345 39.3031 39.9366 39.2369 39.9251 39.1723C39.8074 38.1171 39.3518 37.1281 38.6264 36.3528ZM35.0363 31.2483C36.0055 31.2572 36.7655 32.0455 36.7583 33.0365C36.7555 33.2675 36.7072 33.4957 36.6162 33.708C36.5252 33.9204 36.3932 34.1127 36.2279 34.2741C36.0626 34.4355 35.8671 34.5627 35.6526 34.6485C35.4381 34.7343 35.2088 34.777 34.9778 34.7742C34.7468 34.7714 34.5186 34.7231 34.3062 34.6321C34.0939 34.5411 33.9015 34.4092 33.7402 34.2438C33.4143 33.9099 33.2344 33.4602 33.2401 32.9937C33.2457 32.0035 34.0308 31.2386 35.0363 31.2483ZM31.1829 38.7378C31.376 37.5045 32.7708 35.7632 35 35.764C37.2477 35.764 38.6304 37.5271 38.8146 38.7386C38.5359 38.7612 31.4495 38.7612 31.1829 38.7378Z" fill="#050615"/>
<path d="M24.8315 25.6803C24.2887 25.9178 23.8421 25.7474 23.5699 25.207C23.5222 25.0944 23.4336 25.0041 23.322 24.954C23.2104 24.904 23.084 24.898 22.9682 24.9373C22.7073 25.0302 22.5846 25.2813 22.6653 25.5673C22.8164 26.1044 23.1798 26.4436 23.687 26.6318C23.8179 26.6802 23.876 26.723 23.8881 26.8741C23.9091 27.1454 24.0997 27.2868 24.355 27.2949C24.6102 27.3029 24.804 27.1616 24.8291 26.9177C24.8493 26.7174 24.9429 26.6827 25.0964 26.6302C25.7232 26.4185 26.0979 25.938 26.0987 25.3758C26.0987 24.6877 25.6141 24.1458 24.8169 23.9463C24.565 23.8833 24.3081 23.8356 24.0594 23.7597C23.8978 23.7096 23.7452 23.6232 23.75 23.4059C23.7549 23.1887 23.8881 23.0829 24.0674 23.0142C24.46 22.8608 24.8121 22.99 25.0366 23.3696C25.2119 23.662 25.4607 23.7557 25.7151 23.6264C25.9695 23.4972 26.0503 23.204 25.9 22.8995C25.7334 22.5406 25.4344 22.2599 25.0657 22.1161C24.926 22.0628 24.8476 22.0103 24.8323 21.8302C24.8105 21.5677 24.6045 21.4223 24.3477 21.4264C24.1054 21.4312 23.9043 21.5709 23.8922 21.8229C23.8825 22.0216 23.7815 22.0652 23.6386 22.1258C22.9924 22.4028 22.6694 22.9908 22.7889 23.6515C22.9173 24.3493 23.4391 24.6207 24.0521 24.7822C24.3218 24.8541 24.607 24.8719 24.8598 25.0067C25.0132 25.0875 25.1093 25.2006 25.1021 25.3888C25.0883 25.5656 24.9583 25.6254 24.8315 25.6803Z" fill="#050615"/>
<path d="M48.0043 26.0576C47.762 26.064 47.6336 26.1941 47.6198 26.4315C47.6151 26.4841 47.6214 26.537 47.6384 26.587C47.6555 26.6369 47.6828 26.6827 47.7187 26.7214C47.7545 26.7601 47.7981 26.7908 47.8466 26.8115C47.8952 26.8323 47.9475 26.8426 48.0002 26.8418C48.1065 26.8436 48.2092 26.8033 48.286 26.7299C48.3628 26.6564 48.4076 26.5556 48.4105 26.4493C48.4103 26.3967 48.3996 26.3446 48.3789 26.2962C48.3583 26.2478 48.3281 26.2041 48.2902 26.1676C48.2523 26.131 48.2075 26.1025 48.1584 26.0836C48.1093 26.0647 48.0569 26.0559 48.0043 26.0576Z" fill="#050615"/>
<path d="M21.9869 43.1614C21.934 43.1605 21.8815 43.1702 21.8325 43.19C21.7835 43.2098 21.739 43.2394 21.7017 43.2768C21.6643 43.3143 21.635 43.3589 21.6153 43.4079C21.5957 43.457 21.5861 43.5095 21.5872 43.5624C21.5884 43.6152 21.6002 43.6673 21.622 43.7155C21.6437 43.7637 21.675 43.807 21.7139 43.8428C21.7528 43.8786 21.7985 43.9061 21.8484 43.9238C21.8982 43.9415 21.951 43.9489 22.0038 43.9457C22.0566 43.9459 22.1088 43.9349 22.157 43.9136C22.2053 43.8922 22.2485 43.861 22.2839 43.8218C22.3192 43.7826 22.3459 43.7364 22.3623 43.6863C22.3786 43.6361 22.3841 43.583 22.3786 43.5305C22.3608 43.2931 22.2251 43.1663 21.9869 43.1614Z" fill="#050615"/>
<path d="M45.9415 41.7757C45.4631 41.7736 44.9949 41.9134 44.5961 42.1775C44.1972 42.4415 43.8857 42.8179 43.7008 43.2591C43.5159 43.7002 43.466 44.1863 43.5574 44.6558C43.6488 45.1254 43.8774 45.5572 44.2142 45.8968C44.5511 46.2364 44.9811 46.4685 45.4499 46.5636C45.9187 46.6588 46.4051 46.6128 46.8478 46.4314C47.2904 46.2501 47.6693 45.9415 47.9365 45.5448C48.2038 45.1481 48.3474 44.681 48.3491 44.2027C48.3504 43.8852 48.2891 43.5707 48.1688 43.2769C48.0485 42.9831 47.8715 42.7159 47.6479 42.4905C47.4244 42.2652 47.1586 42.086 46.8658 41.9634C46.573 41.8407 46.2589 41.7769 45.9415 41.7757ZM45.931 45.6395C45.6467 45.6391 45.3689 45.5544 45.1327 45.3961C44.8965 45.2379 44.7125 45.0132 44.604 44.7504C44.4954 44.4877 44.4671 44.1987 44.5227 43.9199C44.5783 43.6411 44.7152 43.385 44.9162 43.1839C45.1173 42.9829 45.3734 42.846 45.6522 42.7904C45.931 42.7348 46.22 42.7631 46.4827 42.8717C46.7455 42.9802 46.9702 43.1642 47.1284 43.4004C47.2866 43.6366 47.3714 43.9144 47.3718 44.1987C47.3685 44.5798 47.2156 44.9443 46.9461 45.2138C46.6766 45.4833 46.3121 45.6362 45.931 45.6395Z" fill="#050615"/>
</g>
<defs>
<clipPath id="clip0_6_2803">
<rect width="30" height="29.996" fill="white" transform="translate(20 20)"/>
</clipPath>
</defs>
</svg>
