<svg width="70" height="70" viewBox="0 0 70 70" fill="none" xmlns="http://www.w3.org/2000/svg">
<rect width="70" height="70" rx="10" fill="white"/>
<g clip-path="url(#clip0_6_2798)">
<path d="M22.1163 33.0718C22.3685 33.0791 22.4259 33.0136 22.4259 32.7622C22.4162 28.9314 22.4219 25.1015 22.413 21.2708C22.413 21.0202 22.4704 20.9612 22.7218 20.9612C30.907 20.9693 39.092 20.9693 47.2768 20.9612C47.5265 20.9612 47.588 21.0154 47.5872 21.2684C47.5785 24.9781 47.5764 28.6876 47.5807 32.3968C47.5807 33.0653 47.5807 33.0516 48.2452 33.071C48.4965 33.0782 48.5556 33.0136 48.5547 32.7614C48.5456 28.7294 48.5437 24.6974 48.5491 20.6653C48.5491 20.1286 48.4165 19.9993 47.8677 19.9993H22.1333C21.5739 20.0001 21.4551 20.1254 21.4551 20.6953V32.3984C21.4551 33.0661 21.4551 33.0524 22.1163 33.0718Z" fill="#050615"/>
<path d="M47.0108 32.9757C46.748 32.743 46.4379 32.57 46.1018 32.4689C45.7657 32.3677 45.4116 32.3407 45.0641 32.3897C44.7165 32.4388 44.3837 32.5627 44.0887 32.7529C43.7937 32.9431 43.5435 33.1951 43.3554 33.4914C42.7662 34.3895 42.2076 35.3086 41.6458 36.2244C41.6013 36.3118 41.5347 36.386 41.4525 36.4396C41.3704 36.4932 41.2757 36.5244 41.1778 36.53C40.5311 36.6019 39.8844 36.7127 39.2377 36.8105C38.3728 36.9406 37.845 37.6059 37.9056 38.487C37.9573 39.2428 38.6331 39.8377 39.4511 39.8385C40.6701 39.8385 41.8891 39.8337 43.1081 39.8434C43.408 39.8434 43.5931 39.7391 43.724 39.4659C43.9439 38.9962 44.1864 38.5371 44.4564 38.0003C44.6989 39.3147 44.9236 40.5466 45.1548 41.7777C45.2268 42.156 45.3634 42.2579 45.7546 42.2587H49.4115C49.8448 42.2587 49.9984 42.097 50 41.6516C50.0107 40.7149 49.8744 39.7823 49.5958 38.8879C49.0373 37.1298 48.275 35.4484 47.5895 33.7388C47.4608 33.4415 47.2623 33.1798 47.0108 32.9757ZM48.9985 41.0979C49.0098 41.2644 48.975 41.3008 48.8182 41.2976C48.3849 41.2895 47.9517 41.2976 47.5184 41.2976C47.1247 41.2976 46.7311 41.283 46.339 41.3032C46.1087 41.3154 46.0383 41.2378 45.9995 41.013C45.7328 39.4901 45.445 37.9712 45.1718 36.4499C45.1249 36.1929 45.0101 36.0167 44.7434 35.9787C44.4766 35.9407 44.3109 36.0854 44.1977 36.3141C43.8105 37.0966 43.4185 37.8767 43.0345 38.6583C42.9618 38.8063 42.8874 38.8847 42.6991 38.8822C41.6409 38.8701 40.5828 38.8822 39.5239 38.875C39.034 38.875 38.7544 38.5056 38.9298 38.1095C38.9698 38.0169 39.0346 37.9371 39.117 37.8789C39.1995 37.8207 39.2963 37.7864 39.397 37.7797C40.1827 37.6689 40.9668 37.5428 41.7541 37.4377C41.8584 37.4267 41.9584 37.3905 42.0456 37.3322C42.1328 37.2739 42.2045 37.1953 42.2545 37.1031C42.8575 36.129 43.4735 35.1631 44.0716 34.1858C44.4176 33.6199 44.8929 33.3015 45.5663 33.3774C46.2129 33.4478 46.6001 33.8479 46.8273 34.4412C47.4101 35.9666 48.0851 37.4555 48.6056 39.0043C48.8259 39.6824 48.9579 40.3861 48.9985 41.0979Z" fill="#050615"/>
<path d="M20.5538 42.2578C21.7932 42.2578 23.0327 42.2578 24.2721 42.2578C24.6351 42.2578 24.7765 42.1463 24.8452 41.7817C25.0764 40.5498 25.3011 39.3162 25.5445 37.9978C25.8177 38.5427 26.0586 39.0123 26.2889 39.4876C26.3333 39.5993 26.412 39.694 26.5137 39.7579C26.6155 39.8219 26.7349 39.8518 26.8548 39.8433C28.1045 39.8344 29.3534 39.8433 30.6031 39.8376C31.3564 39.8376 32.0152 39.2467 32.0912 38.5208C32.1761 37.7076 31.6588 36.9615 30.8828 36.8233C30.19 36.7013 29.4924 36.6043 28.794 36.5234C28.706 36.5186 28.6207 36.4909 28.5466 36.4432C28.4725 36.3954 28.412 36.3292 28.3712 36.251C27.8191 35.3521 27.2638 34.4557 26.6963 33.5665C26.1661 32.7347 25.403 32.3103 24.4104 32.3879C23.3797 32.4688 22.6821 33.029 22.2982 33.9812C21.7808 35.2627 21.267 36.5455 20.7566 37.8297C20.254 39.0614 19.9965 40.3794 19.9984 41.7097C20 42.0856 20.173 42.257 20.5538 42.2578ZM21.0032 41.0639C21.0756 40.0812 21.3006 39.1158 21.6701 38.2024C22.1793 36.9276 22.6934 35.6545 23.197 34.3781C23.4234 33.805 23.8154 33.4364 24.4338 33.3701C25.0805 33.3006 25.5558 33.5843 25.8945 34.1307C26.4813 35.0789 27.0924 36.0134 27.6607 36.9753C27.8539 37.2986 28.1004 37.4344 28.4521 37.4781C29.1707 37.5686 29.8861 37.6769 30.6023 37.7812C30.9256 37.8281 31.1366 38.0601 31.1244 38.3406C31.1115 38.6364 30.8731 38.866 30.5368 38.8717C29.9823 38.8814 29.4277 38.8717 28.8732 38.8717C28.3591 38.8717 27.845 38.862 27.3317 38.8765C27.2542 38.8874 27.1753 38.8713 27.1083 38.8308C27.0413 38.7903 26.9903 38.7279 26.9639 38.6542C26.5977 37.8952 26.2146 37.1442 25.8427 36.3909C25.7207 36.1411 25.576 35.9317 25.2559 35.9746C24.9358 36.0174 24.8517 36.2631 24.8064 36.5339C24.5373 38.0261 24.2592 39.5159 23.9981 41.0097C23.9593 41.2344 23.889 41.304 23.6586 41.2999C22.843 41.2846 22.0266 41.2886 21.2101 41.2999C21.0258 41.2975 20.9895 41.2595 21.0032 41.0639Z" fill="#050615"/>
<path d="M36.1143 28.3608C35.9793 28.4966 35.9163 28.4522 35.808 28.343C35.0498 27.5773 34.288 26.8144 33.5228 26.0546C33.1696 25.703 32.957 25.7046 32.6053 26.0546C31.6784 26.9804 30.7523 27.9065 29.8271 28.8329C29.6654 28.9945 29.3865 29.1667 29.3849 29.3349C29.3833 29.503 29.6783 29.6582 29.823 29.8368C29.9677 30.0155 30.051 30.009 30.2143 29.8425C31.0945 28.942 31.9926 28.0641 32.8769 27.162C33.0216 27.0149 33.0984 27.0004 33.2496 27.1572C33.9819 27.9073 34.7272 28.6437 35.4685 29.3842C35.8783 29.794 36.0594 29.7932 36.4724 29.3842L41.5165 24.3401C41.5892 24.2674 41.6668 24.1987 41.7744 24.0976V25.0814C41.7744 25.8153 41.7744 25.8089 42.5019 25.8089C42.7015 25.8089 42.75 25.7555 42.7444 25.5599C42.7339 24.7039 42.7444 23.847 42.7395 22.991C42.7395 22.5771 42.573 22.4171 42.1494 22.4163H40.0962C39.3291 22.4163 39.3348 22.4163 39.3509 23.1874C39.3509 23.3491 39.3938 23.3911 39.5522 23.3879C40.0413 23.3774 40.5303 23.3838 41.0517 23.3838C41.0305 23.4174 41.0076 23.4497 40.983 23.4808C39.3593 25.1078 37.7364 26.7344 36.1143 28.3608Z" fill="#050615"/>
<path d="M40.3209 47.0399C40.3107 46.4145 40.0566 45.8178 39.6128 45.3769C39.1691 44.936 38.5707 44.6858 37.9452 44.6796C35.9799 44.6742 34.0143 44.6742 32.0484 44.6796C31.4229 44.6886 30.8255 44.9411 30.3833 45.3835C29.941 45.8259 29.6887 46.4233 29.6799 47.0488C29.6799 47.6333 29.6799 48.2177 29.6799 48.8029C29.6799 49.5304 29.6799 49.5215 30.4179 49.5215C30.5998 49.5215 30.6605 49.4844 30.6532 49.292C30.6394 48.617 30.6467 47.9412 30.6475 47.2655C30.6475 46.2494 31.2457 45.6488 32.2545 45.6488C33.1706 45.6488 34.0881 45.6488 35.0069 45.6488C35.9543 45.6488 36.9017 45.6439 37.8498 45.6488C38.7261 45.6552 39.3453 46.2777 39.3558 47.1555C39.3631 47.7101 39.3558 48.2646 39.3558 48.8191C39.3558 49.5264 39.3558 49.5191 40.0784 49.5232C40.27 49.5232 40.3323 49.4827 40.329 49.2807C40.3145 48.5346 40.3274 47.7852 40.3209 47.0399Z" fill="#050615"/>
<path d="M32.0977 41.358C32.1139 43.2252 33.969 44.5994 35.7692 44.0991C36.4183 43.9154 36.9845 43.5143 37.373 42.9628C37.7615 42.4114 37.9487 41.7432 37.9032 41.0702C37.9032 40.97 37.9032 40.8689 37.9032 40.7679C37.8927 39.3371 36.8572 38.1586 35.3973 37.9193C34.0927 37.7059 32.7428 38.5312 32.2658 39.81C32.0791 40.3176 32.0937 40.8358 32.0977 41.358ZM34.5429 38.9329C35.7328 38.6581 36.8265 39.464 36.9267 40.6887C36.9865 41.4162 36.9203 42.1283 36.3407 42.6683C35.7611 43.2083 35.0562 43.3756 34.3053 43.0806C33.5309 42.7766 33.134 42.1687 33.0685 41.3426C33.0604 41.2432 33.0685 41.1413 33.0685 41.1001C33.0144 39.7801 33.809 39.1051 34.5429 38.9354V38.9329Z" fill="#050615"/>
<path d="M28.9249 34.6415C29.0421 34.6941 29.0947 34.6876 29.1399 34.5518C29.2321 34.277 29.3566 34.0126 29.4519 33.7386C29.5029 33.5931 29.5764 33.5446 29.7332 33.5446C33.249 33.5494 36.7645 33.5494 40.2797 33.5446C40.4195 33.5446 40.4939 33.5802 40.5408 33.7216C40.6297 33.9868 40.7388 34.2454 40.8471 34.5041C40.9385 34.724 40.9538 35.0764 41.139 35.1289C41.3241 35.1815 41.5916 34.9786 41.8285 34.9067C41.9901 34.8565 42.0209 34.7911 41.9538 34.6302C41.7307 34.0943 41.514 33.5551 41.3152 33.0135C41.2028 32.7063 41.0177 32.577 40.6847 32.5786C38.8012 32.5883 36.9178 32.5835 35.0343 32.5835C33.1202 32.5835 31.2068 32.5835 29.2951 32.5835C28.9904 32.5835 28.802 32.6958 28.7058 32.9876C28.6331 33.2059 28.5369 33.4161 28.4577 33.6343C28.3696 33.8768 28.1279 34.1549 28.237 34.3384C28.3461 34.5219 28.6881 34.5356 28.9249 34.6415Z" fill="#050615"/>
<path d="M23.387 29.6362C23.3813 31.0104 24.4378 32.0936 25.7797 32.0968C26.4213 32.1036 27.0394 31.8551 27.4979 31.4062C27.9564 30.9572 28.2178 30.3446 28.2245 29.7029C28.2313 29.0612 27.9828 28.4432 27.5339 27.9847C27.085 27.5262 26.4723 27.2648 25.8306 27.2581C24.4799 27.2548 23.3951 28.313 23.387 29.6362ZM25.8306 28.2273C26.6066 28.2378 27.2743 28.9232 27.2557 29.692C27.2526 29.979 27.1644 30.2586 27.0022 30.4954C26.84 30.7322 26.6112 30.9155 26.3447 31.0221C26.0782 31.1287 25.786 31.1538 25.5053 31.0941C25.2245 31.0345 24.9678 30.8928 24.7676 30.6871C24.5675 30.4814 24.4329 30.2209 24.381 29.9386C24.3291 29.6563 24.3621 29.365 24.476 29.1015C24.5898 28.838 24.7794 28.6143 25.0205 28.4586C25.2617 28.303 25.5436 28.2225 25.8306 28.2273Z" fill="#050615"/>
<path d="M41.7743 29.672C41.7732 30.1499 41.9137 30.6175 42.178 31.0156C42.4423 31.4138 42.8186 31.7248 43.2595 31.9093C43.7003 32.0939 44.186 32.1437 44.6551 32.0525C45.1242 31.9614 45.5559 31.7333 45.8956 31.3971C46.2352 31.061 46.4677 30.6317 46.5637 30.1635C46.6597 29.6953 46.6149 29.2092 46.4349 28.7665C46.255 28.3238 45.9479 27.9442 45.5525 27.6758C45.157 27.4074 44.691 27.2621 44.2131 27.2583C43.8937 27.2538 43.5766 27.313 43.2803 27.4323C42.984 27.5517 42.7145 27.7289 42.4875 27.9537C42.2604 28.1784 42.0804 28.446 41.958 28.7411C41.8355 29.0361 41.7731 29.3526 41.7743 29.672ZM44.2252 28.2275C45.0028 28.2437 45.6665 28.9324 45.643 29.6995C45.6188 30.49 44.9535 31.1383 44.1791 31.1254C43.3821 31.1125 42.716 30.4213 42.7459 29.6389C42.7622 29.258 42.9254 28.8983 43.2012 28.6351C43.477 28.372 43.844 28.2259 44.2252 28.2275Z" fill="#050615"/>
<path d="M28.8918 45.6392C27.7836 45.6545 26.6745 45.6481 25.5663 45.6392C25.4855 45.6392 25.3238 45.72 25.3311 45.5519C25.3513 45.0669 25.2276 44.5625 25.4119 44.0871C25.7837 43.1171 26.1685 42.1471 26.5484 41.1771C26.8225 40.4771 26.8192 40.486 26.1257 40.2128C25.9341 40.1376 25.8751 40.1958 25.8104 40.3631C25.3505 41.5401 24.8873 42.7146 24.4265 43.8883C24.3775 44.0092 24.3522 44.1385 24.3522 44.269C24.3578 44.864 24.3522 45.4581 24.3522 46.053C24.3522 46.4483 24.5219 46.6124 24.9261 46.6132C25.5817 46.6132 26.2364 46.6132 26.892 46.6132H28.5248C29.1909 46.6132 29.178 46.6132 29.1974 45.948C29.2079 45.6957 29.1416 45.6359 28.8918 45.6392Z" fill="#050615"/>
<path d="M45.5299 43.7847C45.1371 42.7977 44.7563 41.8059 44.3683 40.8173C44.281 40.5958 44.2309 40.2595 44.0725 40.1924C43.914 40.1254 43.6408 40.3363 43.4121 40.405C43.2197 40.4624 43.1995 40.5392 43.2754 40.7284C43.6271 41.5909 43.9334 42.472 44.3053 43.3256C44.5992 43.9754 44.7301 44.6871 44.6868 45.399C44.6731 45.618 44.6132 45.6552 44.4128 45.6528C43.4557 45.6423 42.4986 45.6479 41.5407 45.6479C40.7914 45.6479 40.8003 45.6479 40.8003 46.3965C40.8003 46.5961 40.8682 46.622 41.0428 46.6196C41.7283 46.6107 42.417 46.6196 43.0992 46.6196C43.7637 46.6196 44.4289 46.6196 45.0942 46.6196C45.4733 46.6196 45.6447 46.4466 45.6463 46.0675C45.6463 45.513 45.6423 44.9584 45.6463 44.4047C45.6503 44.1923 45.6107 43.9812 45.5299 43.7847Z" fill="#050615"/>
<path d="M30.4026 22.4146C29.5264 22.4259 28.6493 22.4195 27.7723 22.4195H25.5348C24.8356 22.4195 24.8461 22.4195 24.8323 23.1147C24.8283 23.3418 24.8857 23.3943 25.1112 23.3927C26.7142 23.3822 28.3163 23.3871 29.9184 23.3871C30.654 23.3871 30.6459 23.3871 30.6508 22.6596C30.6516 22.4639 30.5999 22.4122 30.4026 22.4146Z" fill="#050615"/>
<path d="M28.0131 24.3513C27.52 24.3626 27.0261 24.3513 26.5322 24.3513H25.5622C24.8275 24.3513 24.8347 24.3513 24.8307 25.0788C24.8307 25.2769 24.8816 25.3286 25.0788 25.3262C25.8872 25.314 26.6907 25.3213 27.4974 25.3213C28.2427 25.3213 28.2362 25.3213 28.2249 24.5647C28.2282 24.3958 28.1845 24.3473 28.0131 24.3513Z" fill="#050615"/>
</g>
<defs>
<clipPath id="clip0_6_2798">
<rect width="30" height="29.5215" fill="white" transform="translate(20 20)"/>
</clipPath>
</defs>
</svg>
