<svg width="70" height="70" viewBox="0 0 70 70" fill="none" xmlns="http://www.w3.org/2000/svg">
<rect width="70" height="70" rx="10" fill="white"/>
<g clip-path="url(#clip0_6_2793)">
<path d="M44.0743 40.8192C43.932 40.6618 43.7529 40.5421 43.5531 40.4707C43.3533 40.3993 43.139 40.3784 42.9291 40.4099C42.8333 40.4268 42.7347 40.4171 42.6441 40.3817C42.5535 40.3463 42.4744 40.2866 42.4155 40.2092C41.4199 39.1637 40.4233 38.1206 39.413 37.0899C39.2259 36.8983 39.2021 36.7894 39.3642 36.5524C41.1637 33.9445 41.7612 31.0668 41.0242 27.9872C39.6794 22.3666 34.3548 18.9366 28.6797 19.965C23.685 20.8698 19.9999 25.3101 20.009 30.4953C19.9928 30.9263 20.0205 31.3579 20.0918 31.7834C20.4002 34.042 21.2948 36.0399 22.8811 37.6795C25.633 40.5278 28.9779 41.5732 32.8694 40.8351C34.1857 40.5753 35.4363 40.0532 36.5465 39.2998C36.6599 39.2284 36.7382 39.1433 36.8788 39.2907C37.9423 40.4087 39.0173 41.5177 40.0899 42.6266C40.1331 42.6615 40.1651 42.7085 40.1816 42.7616C40.1982 42.8147 40.1986 42.8715 40.1829 42.9248C40.0434 43.4475 40.2226 43.8818 40.5707 44.2628C40.743 44.451 40.9233 44.6313 41.1013 44.8161C42.7273 46.5025 44.3525 48.189 45.977 49.8754C46.57 50.49 47.4306 50.5558 48.0304 50.0092C48.5596 49.5307 49.0717 49.0394 49.5668 48.5352C50.1269 47.9683 50.1451 47.1371 49.5929 46.5577C47.7628 44.6362 45.9233 42.7233 44.0743 40.8192ZM30.5812 39.9847C25.3654 39.9484 21.0919 35.6759 21.0828 30.4023C21.0783 25.1491 25.3779 20.8585 30.6583 20.8562C35.9785 20.8562 40.2192 25.1071 40.2282 30.4499C40.2305 35.6975 35.9014 40.0198 30.5858 39.9847H30.5812ZM40.8995 41.868C40.8473 41.9156 40.794 41.8136 40.7521 41.7716C39.7497 40.7353 38.747 39.6993 37.7439 38.6637C37.6226 38.539 37.6124 38.4619 37.7564 38.3587C37.852 38.2827 37.9426 38.2005 38.0274 38.1126C38.4809 37.6795 38.4809 37.6784 38.9345 38.1455C39.8038 39.0526 40.6731 39.9567 41.5424 40.8577L41.7215 41.046C41.7215 41.0641 41.7215 41.0789 41.7136 41.0845C41.4517 41.3476 41.1864 41.6152 40.9086 41.868H40.8995ZM48.7606 47.8141L47.3444 49.1747C47.3122 49.2122 47.2719 49.2419 47.2265 49.2615C47.1811 49.2812 47.1319 49.2902 47.0825 49.2881C47.0215 49.2911 46.9607 49.279 46.9055 49.2529C46.8504 49.2268 46.8025 49.1875 46.7661 49.1384C44.9739 47.2774 43.1816 45.4167 41.3893 43.5564C41.1625 43.316 41.1716 43.147 41.4199 42.9055C41.8485 42.4883 42.2817 42.0744 42.7125 41.6583C42.9869 41.3941 43.1309 41.3952 43.4053 41.6798C44.8416 43.1629 46.2737 44.6471 47.7016 46.1325C48.0474 46.4908 48.3921 46.8525 48.7425 47.2074C48.9466 47.4104 48.9829 47.6077 48.7697 47.8141H48.7606Z" fill="#050615"/>
<path d="M44.4236 29.4395C43.6548 30.1413 43.2296 31.5394 44.3261 32.8161L44.0233 33.0157C42.9518 33.7289 42.3973 34.7358 42.3373 36.0148C42.3202 36.3765 42.5334 36.6112 42.8498 36.6248C43.1661 36.6384 43.3645 36.4536 43.411 36.101C43.4264 35.9021 43.4521 35.7042 43.4881 35.508C43.7897 34.2607 44.9735 33.3899 46.1833 33.5101C47.5508 33.645 48.535 34.6723 48.594 36.0239C48.611 36.4128 48.8128 36.6316 49.1496 36.6248C49.4863 36.618 49.6757 36.3878 49.6632 35.9933C49.619 34.6734 49.0146 33.6722 47.9114 32.9681C47.722 32.8468 47.6914 32.7912 47.8456 32.5996C48.2067 32.1374 48.3807 31.5564 48.3333 30.9718C48.2859 30.3873 48.0203 29.8419 47.5895 29.444C47.1586 29.0462 46.5939 28.8248 46.0074 28.824C45.4209 28.8231 44.8556 29.0428 44.4236 29.4395ZM47.2583 31.189C47.2503 31.5183 47.1147 31.8315 46.88 32.0626C46.6454 32.2936 46.3301 32.4244 46.0008 32.4272C45.7487 32.429 45.5019 32.3555 45.2918 32.2161C45.0818 32.0767 44.9181 31.8779 44.8217 31.6449C44.7253 31.412 44.7007 31.1556 44.7509 30.9086C44.801 30.6616 44.9238 30.4351 45.1034 30.2583C45.283 30.0814 45.5113 29.9622 45.7591 29.9158C46.0069 29.8694 46.2629 29.8981 46.4943 29.998C46.7257 30.098 46.922 30.2647 47.0581 30.4769C47.1942 30.6891 47.2639 30.937 47.2583 31.189Z" fill="#050615"/>
<path d="M36.0114 46.1948C35.8277 46.0757 35.7846 46.0224 35.9331 45.8206C36.4796 45.079 36.5647 44.2729 36.1417 43.4451C35.7188 42.6174 35.034 42.241 34.1337 42.2058C33.9767 42.2132 33.8203 42.2303 33.6654 42.2568C32.011 42.6446 31.3409 44.486 32.3603 45.8591C32.4737 46.0202 32.4737 46.0734 32.3025 46.1664C32.0017 46.336 31.733 46.557 31.5087 46.8195C30.9282 47.4566 30.6049 48.2866 30.6016 49.1485C30.5975 49.218 30.6071 49.2876 30.6299 49.3534C30.6527 49.4191 30.6882 49.4797 30.7344 49.5318C30.7806 49.5838 30.8367 49.6262 30.8993 49.6565C30.9619 49.6869 31.0299 49.7046 31.0994 49.7086C31.1684 49.7147 31.2378 49.707 31.3038 49.686C31.3698 49.6649 31.4309 49.631 31.4836 49.5862C31.5364 49.5414 31.5797 49.4865 31.611 49.4248C31.6424 49.3631 31.6612 49.2958 31.6664 49.2267C31.6868 49.0839 31.7004 48.9399 31.7208 48.797C31.7714 48.4652 31.8901 48.1474 32.0694 47.8637C32.2488 47.58 32.485 47.3365 32.7631 47.1485C33.0412 46.9605 33.3552 46.8321 33.6853 46.7714C34.0154 46.7107 34.3545 46.719 34.6813 46.7957C35.8061 47.0792 36.4796 47.9081 36.5862 49.1406C36.618 49.508 36.8277 49.7223 37.1418 49.7075C37.4559 49.6928 37.6691 49.4592 37.6555 49.0975C37.6135 47.8491 37.0613 46.8762 36.0114 46.1948ZM34.1098 45.6278C33.9581 45.6284 33.8077 45.5991 33.6673 45.5415C33.5268 45.4839 33.3992 45.3992 33.2915 45.2922C33.1839 45.1852 33.0984 45.058 33.04 44.9179C32.9816 44.7778 32.9513 44.6276 32.951 44.4758C32.9491 44.1619 33.0719 43.86 33.2925 43.6366C33.5132 43.4132 33.8135 43.2866 34.1274 43.2847C34.4414 43.2827 34.7432 43.4056 34.9666 43.6262C35.19 43.8468 35.3166 44.1471 35.3186 44.4611C35.3072 45.2253 34.653 45.7061 34.1098 45.6256V45.6278Z" fill="#050615"/>
<path d="M24.8031 43.3193C25.5798 42.2988 25.2986 41.1842 24.6183 40.5708C24.2615 40.2501 23.8004 40.0699 23.3207 40.0636C22.841 40.0574 22.3754 40.2255 22.0104 40.5368C21.2881 41.1547 21.025 42.3351 21.7836 43.3227C21.0057 43.8103 20.4898 44.4849 20.3152 45.3977C20.2878 45.5504 20.2734 45.7052 20.2721 45.8603C20.2619 46.2594 20.449 46.4851 20.7858 46.4907C21.1225 46.4964 21.3108 46.2844 21.3402 45.8887C21.3969 45.121 21.7541 44.5393 22.456 44.2071C23.1578 43.8749 23.8336 43.9452 24.4595 44.3987C24.9902 44.7831 25.2079 45.3331 25.2532 45.9737C25.2804 46.3263 25.4993 46.5043 25.8202 46.4873C26.1411 46.4703 26.327 46.2447 26.3247 45.9034C26.3183 45.5823 26.2593 45.2643 26.1501 44.9623C25.9077 44.2736 25.4309 43.692 24.8031 43.3193ZM23.2758 42.8975C23.1599 42.8994 23.0449 42.8778 22.9376 42.8341C22.8303 42.7904 22.7329 42.7254 22.6514 42.6431C22.5698 42.5608 22.5058 42.4629 22.463 42.3552C22.4203 42.2475 22.3998 42.1323 22.4027 42.0165C22.4033 41.9005 22.4269 41.7857 22.4722 41.6789C22.5175 41.5721 22.5836 41.4754 22.6667 41.3944C22.7497 41.3133 22.848 41.2496 22.9559 41.2069C23.0637 41.1642 23.179 41.1434 23.295 41.1457C23.5294 41.1441 23.755 41.2346 23.9234 41.3976C24.0917 41.5607 24.1894 41.7833 24.1953 42.0176C24.1958 42.1367 24.172 42.2546 24.1254 42.3641C24.0788 42.4737 24.0105 42.5727 23.9244 42.655C23.8384 42.7373 23.7366 42.8012 23.625 42.8429C23.5135 42.8846 23.3947 42.9032 23.2758 42.8975Z" fill="#050615"/>
<path d="M41.5117 25.3633C41.8338 25.3803 42.0299 25.1875 42.0787 24.81C42.0953 24.6341 42.1252 24.4597 42.1683 24.2884C42.2926 23.8658 42.5595 23.4993 42.9235 23.2512C43.2875 23.0032 43.7262 22.8889 44.165 22.9277C45.1515 23.0411 45.8409 23.7657 45.9202 24.7827C45.9509 25.1785 46.147 25.3848 46.4872 25.369C46.8273 25.3531 46.9974 25.132 46.9861 24.7544C46.9577 23.7566 46.5178 22.9719 45.7161 22.3914C45.5551 22.278 45.4996 22.2191 45.63 22.0195C45.8961 21.6243 46.0063 21.1445 45.9396 20.6727C45.8728 20.201 45.6336 19.7707 45.2683 19.4649C44.9144 19.1653 44.4659 19.001 44.0023 19.001C43.5387 19.001 43.0901 19.1653 42.7363 19.4649C42.3722 19.7705 42.1331 20.1994 42.0648 20.6698C41.9964 21.1403 42.1034 21.6195 42.3655 22.0161C42.4937 22.21 42.454 22.2689 42.2839 22.388C41.9126 22.6418 41.6044 22.9772 41.3827 23.3685C41.161 23.7598 41.0318 24.1966 41.0049 24.6455C40.9947 25.1002 41.1875 25.3497 41.5117 25.3633ZM44.038 20.0942C44.1513 20.0969 44.2629 20.1223 44.3662 20.1688C44.4695 20.2152 44.5625 20.2819 44.6398 20.3648C44.717 20.4477 44.7768 20.5452 44.8158 20.6516C44.8548 20.758 44.8722 20.8711 44.8669 20.9843C44.8663 21.0975 44.8432 21.2095 44.799 21.3138C44.7548 21.418 44.6903 21.5124 44.6093 21.5915C44.5283 21.6707 44.4323 21.7329 44.3271 21.7746C44.2218 21.8164 44.1093 21.8368 43.9961 21.8347C43.8818 21.8319 43.7692 21.8067 43.6646 21.7604C43.5601 21.7141 43.4657 21.6477 43.3868 21.565C43.308 21.4822 43.2462 21.3847 43.205 21.2781C43.1638 21.1714 43.144 21.0577 43.1468 20.9435C43.1495 20.8292 43.1748 20.7165 43.2211 20.612C43.2673 20.5075 43.3338 20.4131 43.4165 20.3342C43.4993 20.2554 43.5967 20.1936 43.7034 20.1524C43.81 20.1112 43.9237 20.0914 44.038 20.0942Z" fill="#050615"/>
<path d="M30.4656 21.5773C25.6602 21.6352 21.7347 25.6332 21.7994 30.5803C21.8606 35.3426 25.8473 39.2533 30.681 39.2329C35.5646 39.2113 39.5161 35.2541 39.4855 30.4148C39.4526 25.4076 35.5147 21.5173 30.4656 21.5773ZM30.6583 38.1625C29.6367 38.1647 28.6248 37.9653 27.6804 37.5756C26.7361 37.186 25.8779 36.6137 25.1552 35.8917C24.4325 35.1697 23.8593 34.3122 23.4687 33.3682C23.0781 32.4243 22.8776 31.4125 22.8788 30.3909C22.8788 26.1366 26.3587 22.6579 30.6232 22.6443C31.6421 22.642 32.6515 22.8404 33.5938 23.2282C34.536 23.616 35.3927 24.1856 36.1148 24.9045C36.8369 25.6233 37.4104 26.4774 37.8025 27.4179C38.1945 28.3584 38.3975 29.3669 38.3998 30.3858C38.4021 31.4048 38.2037 32.4142 37.8159 33.3565C37.4281 34.2987 36.8585 35.1554 36.1397 35.8775C35.4208 36.5996 34.5667 37.1731 33.6263 37.5652C32.6858 37.9572 31.6773 38.1602 30.6583 38.1625Z" fill="#050615"/>
<path d="M34.8196 32.8776C34.408 31.6847 33.612 30.8366 32.4895 30.2765C33.8332 28.9702 33.5826 27.1549 32.5507 26.1866C32.0268 25.6885 31.3284 25.4159 30.6055 25.4273C29.8827 25.4388 29.1933 25.7334 28.6854 26.2478C27.6649 27.2819 27.522 29.0315 28.8101 30.2742C28.6899 30.3388 28.5913 30.3876 28.4971 30.4443C27.107 31.2833 26.3326 32.4977 26.2521 34.1328C26.2283 34.6271 26.4199 34.8244 26.9154 34.8244H34.374C34.874 34.8244 35.0793 34.6158 35.0543 34.1112C35.0357 33.6909 34.9567 33.2754 34.8196 32.8776ZM30.6515 26.5075C30.9857 26.5079 31.3122 26.6073 31.5899 26.7931C31.8677 26.9789 32.0842 27.2428 32.2121 27.5515C32.34 27.8602 32.3736 28.1999 32.3088 28.5277C32.2439 28.8555 32.0833 29.1568 31.8475 29.3934C31.6116 29.6301 31.3109 29.7916 30.9833 29.8576C30.6557 29.9236 30.3159 29.8911 30.0068 29.7642C29.6977 29.6373 29.433 29.4217 29.2463 29.1446C29.0596 28.8675 28.9591 28.5413 28.9575 28.2071C28.9599 27.7581 29.1389 27.328 29.4559 27.0099C29.773 26.6918 30.2024 26.5113 30.6515 26.5075ZM27.5764 33.7642C27.3497 33.7642 27.3848 33.6509 27.4132 33.5159C27.6581 32.3288 28.7886 31.2482 29.9961 31.0316C31.8897 30.7028 33.5452 31.8412 33.9182 33.7597C31.7922 33.7552 29.6832 33.7529 27.5764 33.7597V33.7642Z" fill="#050615"/>
</g>
<defs>
<clipPath id="clip0_6_2793">
<rect width="30" height="31.3799" fill="white" transform="translate(20 19)"/>
</clipPath>
</defs>
</svg>
