<svg width="160" height="50" viewBox="0 0 160 50" fill="none" xmlns="http://www.w3.org/2000/svg">
<g clip-path="url(#clip0_204_2450)">
<path d="M69.7388 37.4451V35.786C69.7388 35.1513 69.3522 34.7357 68.6886 34.7357C68.3567 34.7357 67.9959 34.8453 67.7478 35.2061C67.5545 34.9032 67.2775 34.7357 66.8619 34.7357C66.5848 34.7357 66.3078 34.8195 66.0887 35.1223V34.7905H65.5088V37.4451H66.0887V35.9793C66.0887 35.5089 66.3368 35.2866 66.7234 35.2866C67.1099 35.2866 67.3032 35.5347 67.3032 35.9793V37.4451H67.8831V35.9793C67.8831 35.5089 68.1602 35.2866 68.5178 35.2866C68.9044 35.2866 69.0977 35.5347 69.0977 35.9793V37.4451H69.7388ZM78.3406 34.7905H77.3999V33.9883H76.82V34.7905H76.2949V35.3156H76.82V36.5334C76.82 37.1423 77.0681 37.4999 77.7317 37.4999C77.9798 37.4999 78.2569 37.4161 78.4502 37.3066L78.2826 36.8072C78.1151 36.9168 77.9218 36.9458 77.7833 36.9458C77.5062 36.9458 77.3967 36.7782 77.3967 36.5044V35.3156H78.3374V34.7905H78.3406ZM83.2633 34.7325C82.9315 34.7325 82.7092 34.9 82.5706 35.1191V34.7873H81.9907V37.4419H82.5706V35.9471C82.5706 35.5057 82.7639 35.2544 83.1248 35.2544C83.2343 35.2544 83.3728 35.2834 83.4856 35.3092L83.6531 34.7551C83.5371 34.7325 83.3728 34.7325 83.2633 34.7325ZM75.8245 35.0096C75.5474 34.8163 75.1609 34.7325 74.7453 34.7325C74.0816 34.7325 73.6402 35.0643 73.6402 35.5895C73.6402 36.0308 73.9721 36.2821 74.552 36.3627L74.829 36.3917C75.1319 36.4464 75.2994 36.5302 75.2994 36.6687C75.2994 36.862 75.0771 37.0005 74.6905 37.0005C74.3039 37.0005 73.9978 36.862 73.8045 36.7235L73.5275 37.1648C73.8303 37.3871 74.2459 37.4967 74.6615 37.4967C75.4347 37.4967 75.8793 37.1359 75.8793 36.6397C75.8793 36.1694 75.5185 35.9213 74.9676 35.8375L74.6905 35.8085C74.4424 35.7795 74.2491 35.7248 74.2491 35.5605C74.2491 35.3672 74.4424 35.2576 74.7485 35.2576C75.0803 35.2576 75.4121 35.3962 75.5797 35.4799L75.8245 35.0096ZM91.253 34.7325C90.9212 34.7325 90.6989 34.9 90.5603 35.1191V34.7873H89.9804V37.4419H90.5603V35.9471C90.5603 35.5057 90.7536 35.2544 91.1145 35.2544C91.224 35.2544 91.3625 35.2834 91.4753 35.3092L91.6428 34.7615C91.5301 34.7325 91.3657 34.7325 91.253 34.7325ZM83.8432 36.1178C83.8432 36.92 84.3973 37.4999 85.2543 37.4999C85.6409 37.4999 85.9179 37.4161 86.195 37.1971L85.9179 36.7267C85.6956 36.8942 85.4766 36.9748 85.2253 36.9748C84.7549 36.9748 84.4231 36.6429 84.4231 36.1178C84.4231 35.6185 84.7549 35.2866 85.2253 35.2609C85.4733 35.2609 85.6956 35.3446 85.9179 35.5089L86.195 35.0386C85.9179 34.8163 85.6409 34.7357 85.2543 34.7357C84.3973 34.7325 83.8432 35.3156 83.8432 36.1178ZM89.2072 36.1178V34.7905H88.6273V35.1223C88.434 34.8743 88.157 34.7357 87.7962 34.7357C87.0487 34.7357 86.4688 35.3156 86.4688 36.1178C86.4688 36.92 87.0487 37.4999 87.7962 37.4999C88.1828 37.4999 88.4598 37.3614 88.6273 37.1133V37.4451H89.2072V36.1178ZM87.0777 36.1178C87.0777 35.6475 87.3806 35.2609 87.8799 35.2609C88.3503 35.2609 88.6821 35.6217 88.6821 36.1178C88.6821 36.5882 88.3503 36.9748 87.8799 36.9748C87.3838 36.9458 87.0777 36.585 87.0777 36.1178ZM80.1383 34.7325C79.3651 34.7325 78.811 35.2866 78.811 36.1146C78.811 36.9458 79.3651 37.4967 80.1673 37.4967C80.5539 37.4967 80.9405 37.3871 81.2465 37.1359L80.9695 36.7203C80.7472 36.8878 80.4701 36.9973 80.1963 36.9973C79.8355 36.9973 79.4779 36.8298 79.3941 36.3627H81.3561C81.3561 36.2789 81.3561 36.2241 81.3561 36.1404C81.3819 35.2866 80.8825 34.7325 80.1383 34.7325ZM80.1383 35.2319C80.4991 35.2319 80.7472 35.4542 80.802 35.8665H79.4199C79.4746 35.5089 79.7227 35.2319 80.1383 35.2319ZM94.5455 36.1178V33.7402H93.9656V35.1223C93.7723 34.8743 93.4953 34.7357 93.1344 34.7357C92.387 34.7357 91.8071 35.3156 91.8071 36.1178C91.8071 36.92 92.387 37.4999 93.1344 37.4999C93.521 37.4999 93.7981 37.3614 93.9656 37.1133V37.4451H94.5455V36.1178ZM92.416 36.1178C92.416 35.6475 92.7188 35.2609 93.2182 35.2609C93.6886 35.2609 94.0204 35.6217 94.0204 36.1178C94.0204 36.5882 93.6886 36.9748 93.2182 36.9748C92.7188 36.9458 92.416 36.585 92.416 36.1178ZM73.0023 36.1178V34.7905H72.4224V35.1223C72.2291 34.8743 71.9521 34.7357 71.5913 34.7357C70.8438 34.7357 70.2639 35.3156 70.2639 36.1178C70.2639 36.92 70.8438 37.4999 71.5913 37.4999C71.9779 37.4999 72.2549 37.3614 72.4224 37.1133V37.4451H73.0023V36.1178ZM70.8471 36.1178C70.8471 35.6475 71.1499 35.2609 71.6493 35.2609C72.1196 35.2609 72.4514 35.6217 72.4514 36.1178C72.4514 36.5882 72.1196 36.9748 71.6493 36.9748C71.1499 36.9458 70.8471 36.585 70.8471 36.1178Z" fill="black"/>
<path d="M84.3422 14.6294H75.6309V30.2802H84.3422V14.6294Z" fill="#FF5A00"/>
<path d="M76.211 22.4549C76.211 19.2751 77.7058 16.453 79.9997 14.6295C78.3115 13.3022 76.182 12.5 73.8592 12.5C68.3566 12.5 63.9043 16.9523 63.9043 22.4549C63.9043 27.9575 68.3566 32.4098 73.8592 32.4098C76.182 32.4098 78.3115 31.6076 79.9997 30.2803C77.7026 28.4826 76.211 25.6347 76.211 22.4549Z" fill="#EB001B"/>
<path d="M96.0954 22.4549C96.0954 27.9575 91.643 32.4098 86.1405 32.4098C83.8177 32.4098 81.6881 31.6076 80 30.2803C82.3228 28.4536 83.7887 25.6347 83.7887 22.4549C83.7887 19.2751 82.2938 16.453 80 14.6295C81.6849 13.3022 83.8144 12.5 86.1372 12.5C91.643 12.5 96.0954 16.9813 96.0954 22.4549Z" fill="#F79E1B"/>
</g>
<defs>
<clipPath id="clip0_204_2450">
<rect width="32.1907" height="25" fill="white" transform="translate(63.9043 12.5)"/>
</clipPath>
</defs>
</svg>
