<svg width="161" height="50" viewBox="0 0 161 50" fill="none" xmlns="http://www.w3.org/2000/svg">
<g clip-path="url(#clip0_204_2467)">
<path d="M63.6714 17.499C63.4773 17.499 63.3125 17.6399 63.2821 17.8318L61.0357 32.0783C61.0275 32.1303 61.0307 32.1835 61.0451 32.2342C61.0594 32.2849 61.0846 32.3318 61.1188 32.3719C61.153 32.4119 61.1955 32.4441 61.2434 32.4661C61.2912 32.4881 61.3433 32.4996 61.396 32.4996H64.0601C64.2539 32.4996 64.419 32.3584 64.4494 32.1668L65.1093 27.9832C65.1393 27.7917 65.3045 27.6505 65.4985 27.6505H67.9207C70.7508 27.6505 73.1532 25.5856 73.592 22.7875C74.0345 19.9657 71.83 17.5051 68.7056 17.499H63.6714ZM66.2612 20.6794H68.1991C69.7946 20.6794 70.3142 21.6208 70.1499 22.6619C69.9856 23.7052 69.1787 24.4737 67.6353 24.4737H65.6628L66.2612 20.6794ZM79.0105 21.6478C78.3378 21.6503 77.5637 21.7882 76.6947 22.1501C74.7013 22.981 73.7441 24.6982 73.3375 25.95C73.3375 25.95 72.0436 29.7694 74.967 31.8678C74.967 31.8678 77.6782 33.8879 80.7302 31.7433L80.6775 32.0783C80.6694 32.1303 80.6726 32.1834 80.6869 32.2341C80.7012 32.2847 80.7263 32.3316 80.7605 32.3717C80.7947 32.4117 80.8371 32.4438 80.8849 32.4659C80.9327 32.488 80.9847 32.4995 81.0373 32.4996H83.5664C83.7605 32.4996 83.9253 32.3584 83.9557 32.1668L85.4941 22.4108C85.5023 22.3587 85.4992 22.3055 85.4849 22.2548C85.4706 22.2041 85.4455 22.1571 85.4113 22.117C85.3771 22.0769 85.3347 22.0447 85.2869 22.0226C85.239 22.0005 85.187 21.989 85.1343 21.9889H82.6052C82.4111 21.9889 82.246 22.1301 82.2159 22.3216L82.1333 22.8468C82.1333 22.8468 81.0289 21.6403 79.0105 21.6478ZM79.0932 24.7293C79.3836 24.7293 79.6493 24.7694 79.8876 24.846C80.9788 25.1963 81.5975 26.2446 81.4185 27.3809C81.1977 28.7801 80.0502 29.8104 78.5787 29.8104C78.2885 29.8104 78.0229 29.7705 77.7843 29.694C76.6933 29.3437 76.0707 28.2954 76.2498 27.159C76.4706 25.7599 77.6216 24.7293 79.0932 24.7293Z" fill="#003087"/>
<path d="M100.091 17.499C99.8972 17.499 99.7324 17.6399 99.7021 17.8318L97.4556 32.0783C97.4474 32.1303 97.4506 32.1835 97.465 32.2342C97.4793 32.2849 97.5045 32.3318 97.5387 32.3719C97.573 32.4119 97.6155 32.4441 97.6633 32.4661C97.7112 32.4881 97.7632 32.4996 97.8159 32.4996H100.48C100.674 32.4996 100.839 32.3584 100.869 32.1668L101.529 27.9832C101.559 27.7917 101.724 27.6505 101.918 27.6505H104.341C107.171 27.6505 109.573 25.5856 110.011 22.7875C110.454 19.9657 108.25 17.5051 105.126 17.499H100.091ZM102.681 20.6794H104.619C106.215 20.6794 106.734 21.6208 106.57 22.6619C106.406 23.7052 105.599 24.4737 104.055 24.4737H102.083L102.681 20.6794ZM115.43 21.6478C114.757 21.6503 113.983 21.7882 113.114 22.1501C111.121 22.981 110.164 24.6982 109.757 25.95C109.757 25.95 108.464 29.7694 111.387 31.8678C111.387 31.8678 114.098 33.8879 117.15 31.7433L117.097 32.0783C117.089 32.1303 117.093 32.1835 117.107 32.2342C117.121 32.2849 117.146 32.3318 117.181 32.3719C117.215 32.4119 117.257 32.4441 117.305 32.4661C117.353 32.4881 117.405 32.4996 117.458 32.4996H119.987C120.181 32.4996 120.346 32.3584 120.376 32.1668L121.915 22.4108C121.923 22.3587 121.92 22.3054 121.906 22.2547C121.891 22.2039 121.866 22.1569 121.832 22.1168C121.798 22.0767 121.755 22.0445 121.707 22.0224C121.659 22.0003 121.607 21.9889 121.555 21.9889H119.025C118.831 21.9889 118.666 22.1301 118.636 22.3216L118.553 22.8468C118.553 22.8468 117.449 21.6403 115.43 21.6478ZM115.513 24.7293C115.803 24.7293 116.069 24.7694 116.307 24.846C117.398 25.1963 118.017 26.2446 117.838 27.3809C117.617 28.7801 116.47 29.8104 114.998 29.8104C114.708 29.8104 114.443 29.7705 114.204 29.694C113.113 29.3437 112.49 28.2954 112.669 27.159C112.89 25.7599 114.041 24.7293 115.513 24.7293Z" fill="#0070E0"/>
<path d="M86.6946 21.989C86.4941 21.989 86.3515 22.1848 86.4128 22.3755L89.1855 30.9797L86.6784 35.0344C86.5567 35.2312 86.6982 35.4854 86.9296 35.4854H89.8928C89.9775 35.4854 90.0608 35.4634 90.1346 35.4218C90.2084 35.3801 90.2702 35.3202 90.314 35.2476L98.0578 22.4373C98.1767 22.2405 98.0347 21.9888 97.8047 21.9888H94.8418C94.7562 21.9888 94.6722 22.0112 94.5978 22.0536C94.5235 22.096 94.4616 22.1571 94.418 22.2307L91.3699 27.3769L89.8226 22.2689C89.7722 22.1027 89.6188 21.9888 89.4453 21.9888L86.6946 21.989Z" fill="#003087"/>
<path d="M124.789 17.499C124.595 17.499 124.43 17.6402 124.4 17.8318L122.153 32.0777C122.145 32.1298 122.148 32.1831 122.162 32.2338C122.176 32.2846 122.202 32.3316 122.236 32.3717C122.27 32.4118 122.313 32.444 122.361 32.4661C122.408 32.4881 122.461 32.4996 122.513 32.4996H125.177C125.371 32.4996 125.536 32.3584 125.567 32.1668L127.813 17.9203C127.821 17.8683 127.818 17.8152 127.804 17.7645C127.789 17.7139 127.764 17.6669 127.73 17.6269C127.696 17.5869 127.654 17.5547 127.606 17.5327C127.558 17.5106 127.506 17.4991 127.453 17.499H124.789Z" fill="#0070E0"/>
<path d="M41.4616 17.499C41.29 17.4992 41.1241 17.5605 40.9936 17.672C40.8632 17.7835 40.7767 17.9379 40.7499 18.1074L39.5674 25.6076C39.6225 25.2573 39.9243 24.9992 40.2791 24.9992H43.7443C47.2318 24.9992 50.1911 22.455 50.7318 19.0073C50.772 18.75 50.7948 18.4901 50.8 18.2297C49.9138 17.7649 48.8726 17.499 47.7319 17.499H41.4616Z" fill="#001C64"/>
<path d="M50.7993 18.23C50.7941 18.4905 50.7713 18.7503 50.7311 19.0077C50.1904 22.4553 47.2308 24.9995 43.7436 24.9995H40.2784C39.9239 24.9995 39.6218 25.2573 39.5667 25.6079L38.4793 32.4999L37.7983 36.8235C37.785 36.9071 37.79 36.9925 37.8129 37.0739C37.8358 37.1553 37.8762 37.2308 37.9311 37.2951C37.986 37.3595 38.0542 37.4111 38.1311 37.4465C38.2079 37.4819 38.2915 37.5002 38.3761 37.5002H42.1373C42.3089 37.5 42.4748 37.4387 42.6053 37.3272C42.7357 37.2156 42.8221 37.0613 42.8489 36.8918L43.8396 30.6081C43.8665 30.4385 43.953 30.2841 44.0835 30.1726C44.2141 30.061 44.3802 29.9998 44.5519 29.9997H46.7664C50.2539 29.9997 53.2131 27.4556 53.7539 24.0079C54.1378 21.561 52.9055 19.3343 50.7993 18.23Z" fill="#0070E0"/>
<path d="M37.188 12.5C36.8336 12.5 36.5315 12.7578 36.4763 13.1078L33.5248 31.8236C33.4689 32.1789 33.7434 32.5003 34.1032 32.5003H38.48L39.5668 25.6082L40.7493 18.1081C40.7761 17.9386 40.8626 17.7842 40.993 17.6727C41.1235 17.5612 41.2894 17.4999 41.461 17.4997H47.7313C48.8723 17.4997 49.9131 17.7659 50.7994 18.2303C50.8601 15.0915 48.27 12.5 44.709 12.5H37.188Z" fill="#003087"/>
</g>
<defs>
<clipPath id="clip0_204_2467">
<rect width="94.2993" height="25" fill="white" transform="translate(33.5176 12.5)"/>
</clipPath>
</defs>
</svg>
