<svg width="70" height="71" viewBox="0 0 70 71" fill="none" xmlns="http://www.w3.org/2000/svg">
<rect y="0.5" width="70" height="70" rx="10" fill="white"/>
<g clip-path="url(#clip0_6_2829)">
<path d="M46.4036 46.7451C46.2893 46.579 46.23 46.4766 46.409 46.2815C49.1753 43.277 48.9812 38.8958 45.9659 36.1478C45.885 36.0818 45.8208 35.9976 45.7786 35.902C45.7365 35.8065 45.7175 35.7023 45.7233 35.598C45.7298 31.8248 45.7233 28.0441 45.7341 24.2677C45.7415 24.1087 45.7144 23.9499 45.6546 23.8024C45.5949 23.6548 45.504 23.5219 45.3881 23.4128C43.0243 21.0583 40.6669 18.6999 38.316 16.3375C38.2179 16.2305 38.0976 16.1462 37.9636 16.0903C37.8295 16.0345 37.685 16.0085 37.5399 16.0141C32.5539 16.0217 27.5668 16.0465 22.5797 16.0001C21.1934 15.9872 19.9881 17.0307 20 18.6036C20.0355 23.5098 20.0129 28.4139 20.0129 33.3222V48.0398C20.0129 49.7172 20.9831 50.6875 22.6574 50.6875C29.4721 50.6875 36.2868 50.6875 43.1015 50.6875C43.3581 50.6875 43.6222 50.7004 43.8562 50.6109C44.1472 50.5031 44.2389 50.6433 44.3434 50.8686C44.7747 51.7903 45.2134 52.7013 45.6457 53.6241C45.7819 53.9317 45.9879 54.2033 46.2473 54.4175C47.1097 55.1096 48.4034 55.0568 49.2356 54.2903C50.0905 53.5087 50.2479 52.3294 49.6 51.3796C48.5428 49.8301 47.4773 48.2852 46.4036 46.7451ZM38.2686 17.6937L41.1298 20.557L44.0286 23.4484H39.7164C39.3132 23.4484 38.9101 23.4484 38.5069 23.4484C38.3441 23.4484 38.2643 23.416 38.2643 23.2328C38.2708 21.4206 38.2686 19.6116 38.2686 17.6937ZM43.0918 49.6849C36.2757 49.6849 29.4599 49.6849 22.6444 49.6849C21.4963 49.6849 21.0036 49.1879 21.0026 48.0398C21.0026 38.2403 21.0026 28.4401 21.0026 18.6392C21.0036 17.5094 21.5233 16.9865 22.6455 16.9865C27.3781 16.9865 32.1097 16.9865 36.8424 16.9758C37.2294 16.9758 37.2865 17.0976 37.2844 17.4415C37.2693 19.5253 37.2757 21.6092 37.2768 23.6942C37.2768 24.313 37.4116 24.4488 38.039 24.4488C40.1484 24.4488 42.2588 24.4488 44.3704 24.4488C44.5979 24.4488 44.7337 24.4553 44.7326 24.7614C44.7208 28.1767 44.7251 31.5909 44.724 35.0029C44.724 35.0665 44.7121 35.1312 44.7024 35.2325C42.7619 34.231 40.7826 34.078 38.7473 34.8218C38.5694 32.4361 37.1895 31.1036 35.0151 30.4492C36.7949 28.8041 36.4241 26.5381 35.1875 25.3705C34.5451 24.7674 33.6929 24.4384 32.8118 24.4535C31.9308 24.4686 31.0903 24.8266 30.4689 25.4514C29.2895 26.6372 28.9898 28.8591 30.7287 30.446C30.2156 30.6228 29.7089 30.7877 29.2518 31.067C27.8277 31.9337 27.0375 33.1745 27.0202 34.866C27.0116 35.7123 27.0202 36.5596 27.0202 37.407C27.0202 37.9169 27.1518 38.0538 27.6671 38.0538C29.9669 38.0538 32.2667 38.0538 34.5666 38.0538H35.0517C34.823 38.5332 34.6285 39.0282 34.4696 39.535C34.406 39.7593 34.2227 39.6504 34.0998 39.6515C31.1287 39.6579 28.1579 39.6579 25.1875 39.6515C24.5159 39.6515 24.4016 39.7668 24.4006 40.4503C24.4006 40.9613 24.4006 41.4723 24.4006 41.9833C24.4006 42.4943 24.5547 42.6528 25.0754 42.6528C28.0196 42.6528 30.9637 42.6582 33.9079 42.6474C34.213 42.6474 34.3273 42.7153 34.4016 43.0419C35.1487 46.3128 38.1748 48.6219 41.5276 48.5077C41.984 48.4938 42.4376 48.4309 42.8805 48.3201C43.0293 48.2824 43.1198 48.2673 43.1953 48.4419C43.3624 48.8322 43.5565 49.2106 43.7634 49.645C43.5015 49.6612 43.2988 49.6849 43.0918 49.6849ZM36.1341 35.3932C36.1341 34.8908 35.9853 34.6666 35.65 34.6547C35.3148 34.6429 35.1466 34.8703 35.1455 35.4093C35.1455 35.8664 35.1358 36.3246 35.1455 36.7806C35.152 36.9962 35.1002 37.0836 34.8609 37.0814C33.5299 37.0706 32.2003 37.0706 30.8721 37.0814C30.6468 37.0814 30.5703 37.0243 30.5778 36.7925C30.595 36.2686 30.5778 35.7435 30.5843 35.2196C30.5843 34.8865 30.4441 34.6612 30.0959 34.6633C29.7477 34.6655 29.6065 34.8919 29.6076 35.2228C29.6076 35.7479 29.5957 36.2718 29.6129 36.7957C29.6205 37.0286 29.545 37.0922 29.3208 37.0803C28.8896 37.0588 28.3311 37.2259 28.0735 37.0135C27.8158 36.8011 28.0002 36.2093 27.9948 35.7845C27.9862 35.1819 27.9452 34.576 28.1091 33.9831C28.426 32.8328 29.1936 32.0879 30.2738 31.6696C31.9616 30.9917 33.8474 30.9998 35.5293 31.6922C36.9782 32.2711 37.7576 33.4872 37.7522 35.0126C37.7522 35.1776 37.7522 35.3188 37.5754 35.4191C37.0612 35.7101 36.6224 36.1025 36.133 36.5661L36.1341 35.3932ZM30.4894 27.7929C30.493 27.161 30.7474 26.5565 31.1967 26.1122C31.6461 25.6679 32.2535 25.4203 32.8854 25.4239C33.5172 25.4275 34.1218 25.6819 34.5661 26.1312C35.0104 26.5806 35.258 27.188 35.2544 27.8199C35.2526 28.1327 35.1892 28.4422 35.0679 28.7306C34.9465 29.019 34.7695 29.2806 34.547 29.5006C34.3246 29.7206 34.0609 29.8946 33.7712 30.0127C33.4815 30.1308 33.1713 30.1907 32.8584 30.1889C32.5455 30.1871 32.2361 30.1237 31.9477 30.0024C31.6593 29.881 31.3977 29.704 31.1777 29.4815C30.9577 29.2591 30.7837 28.9954 30.6656 28.7057C30.5475 28.4159 30.4876 28.1058 30.4894 27.7929ZM34.2227 40.9937C34.1591 41.6707 34.185 41.6739 33.5155 41.6739H29.8102C28.453 41.6739 27.0968 41.6642 25.7395 41.6814C25.4517 41.6814 25.387 41.6017 25.3935 41.3246C25.4096 40.6217 25.3935 40.6206 26.1093 40.6206C28.688 40.6206 31.2678 40.6206 33.8465 40.6206C34.1364 40.6142 34.255 40.6487 34.2227 40.9937ZM41.2634 47.518C37.901 47.4975 35.1692 44.755 35.1832 41.4162C35.1924 39.8025 35.8411 38.2582 36.9872 37.122C38.1332 35.9859 39.6831 35.3506 41.2969 35.3554C44.7046 35.3673 47.3835 38.0948 47.3587 41.5284C47.3361 44.8304 44.5795 47.5396 41.2634 47.518ZM47.9398 53.885C47.3534 54.0294 46.8186 53.7826 46.5459 53.2134C45.7438 51.5391 44.9525 49.8606 44.1515 48.1875C44.0653 48.0096 44.0675 47.9169 44.2734 47.8339C44.6335 47.6889 44.9716 47.4944 45.2781 47.256C45.443 47.1267 45.5142 47.1827 45.6155 47.3294C46.6763 48.8753 47.74 50.4187 48.8066 51.9596C48.9367 52.1502 49.0065 52.3756 49.0071 52.6064C49.0103 53.2123 48.5802 53.7319 47.9398 53.885Z" fill="#050615"/>
<path d="M40.9035 37.2377C39.7305 37.3628 38.7053 38.5314 38.7193 39.7011C38.7193 40.0245 38.8692 40.2336 39.1764 40.2531C39.4837 40.2725 39.6777 40.0978 39.695 39.7669C39.7015 39.6735 39.7155 39.5809 39.737 39.4898C39.9009 38.7255 40.4862 38.2177 41.2193 38.1961C41.5842 38.1841 41.9422 38.2977 42.2332 38.5181C42.5243 38.7385 42.7308 39.0523 42.8181 39.4068C42.9038 39.7563 42.8645 40.1247 42.707 40.4483C42.5494 40.7718 42.2836 41.03 41.9556 41.178C41.118 41.5607 40.7299 42.1795 40.7967 43.0711C40.7967 43.2522 40.7967 43.4139 40.7967 43.5745C40.8086 43.8785 40.9865 44.065 41.2732 44.0661C41.5815 44.0661 41.7605 43.8656 41.7777 43.5508C41.7907 43.3494 41.7907 43.1474 41.7777 42.946C41.7465 42.5267 41.9395 42.2809 42.3168 42.1041C43.5328 41.5273 44.0999 40.3005 43.743 39.0758C43.3711 37.8145 42.2586 37.0922 40.9035 37.2377Z" fill="#050615"/>
<path d="M41.2452 44.6657C40.9541 44.7066 40.7849 44.8813 40.7978 45.1853C40.8107 45.4893 40.9994 45.6359 41.2711 45.6488C41.4034 45.648 41.5302 45.5959 41.6247 45.5034C41.7192 45.4108 41.7741 45.2852 41.7778 45.1529C41.7767 44.8823 41.5104 44.629 41.2452 44.6657Z" fill="#050615"/>
</g>
<defs>
<clipPath id="clip0_6_2829">
<rect width="30" height="38.9047" fill="white" transform="translate(20 16)"/>
</clipPath>
</defs>
</svg>
