<svg width="70" height="71" viewBox="0 0 70 71" fill="none" xmlns="http://www.w3.org/2000/svg">
<rect y="0.5" width="70" height="70" rx="10" fill="white"/>
<g clip-path="url(#clip0_6_2834)">
<path d="M49.7741 42.4407C49.1556 41.9812 48.5295 41.5293 47.9158 41.064C47.6679 40.8726 47.3864 40.729 47.1882 40.4781C46.2117 39.238 45.2339 37.9995 44.2549 36.7626C44.1256 36.6062 44.0575 36.4082 44.0634 36.2054C44.0701 32.5157 44.0634 28.826 44.0739 25.1364C44.0797 25.0178 44.0596 24.8994 44.015 24.7895C43.9703 24.6795 43.9022 24.5806 43.8154 24.4997C42.3628 23.0566 40.9136 21.6075 39.468 20.1523C39.4192 20.1005 39.3596 20.06 39.2934 20.0337C39.2273 20.0074 39.1562 19.996 39.0851 20.0001C32.8884 20.0039 26.6913 20.0058 20.494 20.0058C20.0546 20.0058 20 20.0681 20 20.5506V51.1863C20 51.6927 20.0498 51.7425 20.5562 51.7425H43.5627C44.0031 51.7425 44.0682 51.6784 44.071 51.2485C44.071 51.0072 44.071 50.7698 44.071 50.5247V47.9102C44.9978 48.16 45.9054 48.3419 46.6818 48.8905C46.9321 49.0568 47.1913 49.2092 47.4582 49.3472C47.6075 49.4305 47.7588 49.4429 47.8632 49.2696C47.9675 49.0963 47.8833 48.9824 47.7444 48.9077C47.0274 48.5248 46.384 48.0078 45.5837 47.779C42.1959 46.8114 38.7988 45.8735 35.3925 44.9653C34.8181 44.8131 34.4734 44.3344 34.5424 43.8327C34.6209 43.2583 35.0613 42.8974 35.6864 42.9194C36.6017 42.951 37.516 42.9951 38.4312 43.0429C39.5197 43.1004 40.4015 42.7193 40.9644 41.7706C41.5273 40.8218 41.4632 39.8645 40.8687 38.9454C40.6073 38.5414 40.3277 38.1489 40.0511 37.7554C39.6881 37.2212 39.1358 36.8448 38.5059 36.7023C37.583 36.4869 36.6572 36.281 35.74 36.0446C35.5116 35.98 35.2677 35.9986 35.0517 36.0972C34.1901 36.4582 33.3208 36.8019 32.4505 37.1436C31.8761 37.3696 31.3974 37.1953 31.1878 36.6975C30.9781 36.1997 31.1954 35.7172 31.743 35.4673C32.7789 34.9943 33.8173 34.5259 34.8583 34.0619C35.1869 33.9089 35.5551 33.8624 35.9114 33.9288C36.8688 34.103 37.8367 34.2246 38.7931 34.4075C39.4001 34.5214 40.0377 34.53 40.5872 34.8862C41.4871 35.4606 42.4062 36.0072 43.3243 36.5625C43.4693 36.6476 43.5975 36.7586 43.7025 36.8899C44.3544 37.7257 45.0045 38.5634 45.6689 39.3887C46.1217 39.9506 46.4913 40.5959 47.0465 41.0554C47.8249 41.6988 48.6664 42.2655 49.4782 42.8687C49.6372 42.9864 49.7961 43.0803 49.9435 42.8783C50.091 42.6762 49.9234 42.5499 49.7741 42.4407ZM39.4575 21.012L43.0333 24.584H41.8174C41.1195 24.584 40.4225 24.584 39.7246 24.584C39.6021 24.584 39.4537 24.6309 39.4546 24.4088C39.4604 23.2705 39.4575 22.1331 39.4575 21.012ZM38.526 37.2595C38.728 37.2995 38.9165 37.3905 39.0736 37.5237C39.8538 38.2666 40.5364 39.0938 40.7777 40.1689C41.0237 41.2718 40.0616 42.4494 38.9271 42.5011C38.5671 42.5183 38.2053 42.5011 37.8003 42.5011C38.7021 40.3948 38.3747 38.5232 36.8056 36.8373C37.3896 36.9818 37.9583 37.1187 38.526 37.2595ZM35.3035 36.5702C35.4289 36.5194 35.5361 36.5912 35.6405 36.6487C37.5552 37.6884 38.3364 40.28 37.3274 42.2158C37.245 42.3728 37.1598 42.4522 36.9703 42.4369C36.6151 42.4082 36.2542 42.4369 35.8884 42.3689C37.5925 39.9755 36.0655 37.449 34.2044 37.0287C34.6037 36.8612 34.9521 36.7128 35.3035 36.5702ZM33.5199 37.4902C34.9646 37.4902 36.122 38.7137 36.1048 40.2149C36.0876 41.716 34.9234 42.929 33.5199 42.9242C32.1164 42.9194 30.9743 41.7007 30.9743 40.2005C30.9743 38.7003 32.103 37.4864 33.5199 37.4902ZM31.2107 37.5295C31.5937 37.6673 31.4348 37.8071 31.2557 38.0081C29.5746 39.8951 30.577 42.8993 33.0489 43.4029C33.3821 43.4709 33.719 43.4297 34.0962 43.4211C34.0091 43.7313 33.9718 44.0242 34.0647 44.3009C34.1451 44.5383 34.0235 44.5249 33.8665 44.5402C31.902 44.7317 29.9863 43.4297 29.4712 41.491C29.0452 39.8894 29.43 38.4753 30.5913 37.2786C30.7359 37.1283 30.8221 37.1168 30.9427 37.2949C31.0072 37.3976 31.1004 37.4791 31.2107 37.5295ZM28.4344 35.4501C26.5675 35.0125 24.7208 36.2159 24.29 38.1527C23.8926 39.9468 25.1324 41.828 26.9524 42.211C27.5662 42.3531 28.2081 42.3125 28.7991 42.0942C29.0404 41.9984 29.1112 42.0578 29.1955 42.2799C29.3592 42.7107 29.3774 42.7117 28.9399 42.84C28.5349 42.9587 28.1223 43.0429 27.769 43.0199C25.4618 43.0199 23.6792 41.4039 23.4886 39.0947C23.3288 37.1465 24.5714 35.2098 26.7906 34.7119C28.1252 34.4123 29.341 34.7406 30.4027 35.6099C30.5856 35.7593 30.6832 36.439 30.5396 36.6161C30.396 36.7932 30.3367 36.6075 30.2697 36.5338C29.7872 35.9889 29.1454 35.6097 28.4353 35.4501H28.4344ZM28.4612 35.9977C27.2587 37.1982 26.0659 38.3901 24.8826 39.5734C24.5695 38.7175 24.8242 37.5744 25.5374 36.8344C26.354 35.9881 27.343 35.7334 28.4622 35.9977H28.4612ZM28.8824 41.3053C28.9102 41.4288 28.9025 41.513 28.7369 41.5686C28.1568 41.76 27.5785 41.828 27.0309 41.6787L28.8011 39.9133C28.7501 40.3786 28.778 40.8492 28.8834 41.3053H28.8824ZM29.2654 38.2322C29.1036 38.6821 28.8097 39.0095 28.4823 39.3312C27.837 39.9631 27.1987 40.6013 26.5675 41.2459C26.4153 41.401 26.2928 41.4575 26.1157 41.3005C26.0199 41.2144 25.9002 41.1483 25.7988 41.064C25.0137 40.4169 25.0061 40.2924 25.6982 39.6002C26.7351 38.573 27.7748 37.5515 28.7886 36.5051C29.0308 36.2552 29.1965 36.2609 29.4368 36.4716C29.6143 36.6152 29.7798 36.773 29.9317 36.9435C29.969 36.9895 29.9997 37.0393 30.0341 37.0891C29.9805 37.1551 29.9384 37.2126 29.8896 37.2662C29.625 37.547 29.415 37.8745 29.2702 38.2322H29.2654ZM43.5196 35.9345C43.514 35.9749 43.5056 36.0149 43.4947 36.0542C42.7786 35.6166 42.0721 35.2299 41.4163 34.7703C40.6504 34.2352 39.805 34.0044 38.8994 33.8819C37.9353 33.7507 36.9789 33.566 36.0186 33.409C35.5788 33.322 35.123 33.3687 34.7099 33.543C33.6262 34.0303 32.5137 34.463 31.474 35.0288C31.0011 35.2863 30.7675 35.2059 30.3683 34.9331C28.8355 33.8924 27.1802 33.7708 25.5269 34.6181C23.8524 35.474 22.9822 36.8995 22.9602 38.7807C22.9209 42.1315 26.2612 44.4292 29.3956 43.2239C29.6206 43.1367 29.7201 43.1894 29.8676 43.3579C31.0059 44.6657 32.4323 45.2563 34.1757 45.04C34.2714 45.0285 34.3997 45.0026 34.4543 45.0505C35.0488 45.5752 35.8233 45.6115 36.5299 45.8116C38.7452 46.4397 40.9692 47.038 43.1931 47.6373C43.4545 47.7072 43.5464 47.8192 43.5387 48.1016C43.5164 49.0054 43.5164 49.9095 43.5387 50.8139C43.5474 51.1288 43.4708 51.2092 43.1491 51.2083C37.3858 51.1968 31.6224 51.1942 25.8591 51.2006C24.2076 51.2006 22.5552 51.1939 20.9038 51.2064C20.6338 51.2064 20.5419 51.1566 20.5419 50.8598C20.5514 40.8649 20.5514 30.8697 20.5419 20.8742C20.5419 20.5975 20.6185 20.541 20.8817 20.541C26.8021 20.5487 32.7221 20.5487 38.6418 20.541C38.9003 20.541 38.9578 20.6109 38.9549 20.8588C38.9405 22.0766 38.9472 23.2944 38.9472 24.5122C38.9472 25.1249 38.9472 25.1249 39.5791 25.1249C40.7968 25.1249 42.0146 25.1249 43.2324 25.1249C43.4143 25.1249 43.5368 25.1153 43.5359 25.3776C43.5244 28.8969 43.5206 32.4168 43.5244 35.9374L43.5196 35.9345Z" fill="#050615"/>
<path d="M40.816 28.173C40.7796 28.173 40.7442 28.173 40.7078 28.173H23.8994C23.8151 28.173 23.7309 28.173 23.6466 28.173C23.4733 28.1654 23.3546 28.2554 23.346 28.4152C23.3355 28.6 23.4619 28.691 23.6495 28.6871C23.7452 28.6871 23.841 28.6871 23.9367 28.6871H40.8189C41.0161 28.6871 41.2478 28.7015 41.2449 28.4296C41.242 28.1577 41.018 28.1644 40.816 28.173Z" fill="#050615"/>
<path d="M23.7165 24.1052H36.371C36.4552 24.1094 36.5397 24.1078 36.6237 24.1004C36.7798 24.0794 36.9109 24.0047 36.9109 23.8314C36.9109 23.6581 36.7855 23.5806 36.6285 23.5624C36.5329 23.5551 36.437 23.5535 36.3413 23.5576H23.7184C23.5269 23.5576 23.3565 23.6093 23.346 23.8123C23.3336 24.0401 23.5155 24.1043 23.7165 24.1052Z" fill="#050615"/>
<path d="M24.7256 48.4857C25.1085 48.658 25.458 48.5287 25.6829 48.1104C25.8515 47.7781 25.9585 47.4181 25.9989 47.0477C26.0755 46.5001 26.1205 46.457 26.6566 46.3335C26.736 46.3153 26.8184 46.3086 26.9687 46.2856C26.7772 46.5949 26.6738 46.8706 26.7092 47.1827C26.7145 47.2705 26.7403 47.3559 26.7845 47.432C26.8288 47.5081 26.8902 47.5728 26.9639 47.6209C27.0376 47.669 27.1215 47.6992 27.2089 47.709C27.2964 47.7189 27.3849 47.7081 27.4675 47.6776C27.9615 47.5158 28.3683 46.7739 28.1654 46.3009C28.0294 45.985 28.1558 45.8864 28.4028 45.7983C28.535 45.7436 28.6702 45.6966 28.8078 45.6576C29.2204 45.5619 29.3563 45.6461 29.4435 46.0539C29.4818 46.232 29.5459 46.3574 29.746 46.3258C29.9461 46.2942 29.9748 46.1458 29.9681 45.9735C29.949 45.4843 29.5947 45.132 29.0864 45.1042C28.578 45.0765 28.1348 45.3053 27.7183 45.5829C27.612 45.6528 27.5268 45.7591 27.3717 45.7447C27.0234 45.7121 26.6722 45.7603 26.3454 45.8854C26.1722 45.9515 26.1138 45.8941 26.1233 45.7083C26.1377 45.4441 26.1233 45.1789 26.1233 44.9137C26.1233 44.7108 26.0975 44.4934 25.8361 44.5059C25.5748 44.5183 25.5767 44.7404 25.5776 44.9396C25.5776 45.2402 25.5661 45.5418 25.5776 45.8424C25.5934 45.9586 25.5732 46.0768 25.5198 46.1812C25.4664 46.2856 25.3824 46.3711 25.2789 46.4264C24.8623 46.6766 24.5415 47.0591 24.3675 47.513C24.2124 47.9438 24.3541 48.3181 24.7256 48.4857ZM27.5881 46.3546C27.7394 46.7375 27.6379 46.9701 27.2329 47.1836C27.2013 46.8198 27.3985 46.6035 27.5881 46.3546ZM24.8749 47.6527C24.9956 47.3655 25.2004 47.1434 25.4905 46.9127C25.4292 47.2708 25.3833 47.5627 25.2464 47.8299C25.1842 47.9514 25.0961 48.0654 24.9372 47.9907C24.7782 47.916 24.8232 47.7772 24.8749 47.6527Z" fill="#050615"/>
<path d="M32.6094 30.7408C32.5037 30.719 32.3956 30.7106 32.2878 30.7159C29.4795 30.7159 26.6712 30.7159 23.8629 30.7159C23.7551 30.7129 23.6473 30.7216 23.5413 30.7417C23.4803 30.753 23.4259 30.7869 23.389 30.8366C23.352 30.8863 23.3353 30.9482 23.3421 31.0098C23.3435 31.0651 23.364 31.1182 23.4002 31.1601C23.4363 31.202 23.4858 31.2301 23.5403 31.2396C23.6466 31.2574 23.7542 31.2658 23.862 31.2644C25.2725 31.2644 26.6827 31.2644 28.0926 31.2644C29.4903 31.2644 30.8884 31.2644 32.2868 31.2644C32.3945 31.2684 32.5024 31.2607 32.6085 31.2415C32.6625 31.2321 32.7114 31.2039 32.7465 31.1618C32.7816 31.1197 32.8005 31.0665 32.7999 31.0117C32.8088 30.9508 32.7939 30.8887 32.7585 30.8384C32.7231 30.788 32.6698 30.7531 32.6094 30.7408Z" fill="#050615"/>
<path d="M23.5719 26.3808C23.6792 26.3914 23.7883 26.3961 23.8965 26.3961H32.2457C32.3657 26.3968 32.4856 26.3898 32.6047 26.3751C32.6586 26.3691 32.7082 26.343 32.7437 26.302C32.7792 26.261 32.7979 26.2081 32.7961 26.1539C32.8056 26.0933 32.7915 26.0314 32.7568 25.9809C32.7221 25.9304 32.6694 25.895 32.6095 25.882C32.5031 25.8627 32.3947 25.8562 32.2868 25.8629H23.862C23.7662 25.8583 23.6702 25.8608 23.5748 25.8706C23.5414 25.8729 23.5088 25.8817 23.4789 25.8966C23.4489 25.9116 23.4222 25.9322 23.4002 25.9575C23.3783 25.9827 23.3615 26.0121 23.3509 26.0438C23.3402 26.0755 23.336 26.1091 23.3383 26.1424C23.3386 26.2048 23.3631 26.2646 23.4067 26.3091C23.4503 26.3536 23.5096 26.3793 23.5719 26.3808Z" fill="#050615"/>
<path d="M27.5737 38.9349C27.0586 39.4385 26.5512 39.9488 26.0419 40.459C26.0098 40.4955 25.9898 40.541 25.9844 40.5893C25.9791 40.6376 25.9888 40.6864 26.0122 40.729C26.0353 40.7731 26.0691 40.8107 26.1107 40.8382C26.1522 40.8656 26.2 40.8821 26.2497 40.886C26.2937 40.8767 26.3356 40.8592 26.3732 40.8343C26.894 40.3202 27.4167 39.808 27.927 39.2843C27.9466 39.2609 27.9613 39.2338 27.9704 39.2046C27.9795 39.1754 27.9827 39.1447 27.9798 39.1143C27.977 39.0838 27.9681 39.0543 27.9538 39.0273C27.9395 39.0002 27.9199 38.9763 27.8963 38.9569C27.7996 38.8602 27.6733 38.8373 27.5737 38.9349Z" fill="#050615"/>
<path d="M28.3569 37.6155C28.1912 37.604 27.8581 37.9621 27.8677 38.1287C27.8661 38.1599 27.8708 38.1912 27.8816 38.2206C27.8923 38.25 27.9088 38.277 27.9302 38.2999C27.9515 38.3229 27.9772 38.3413 28.0058 38.3541C28.0343 38.367 28.0652 38.374 28.0965 38.3747C28.2975 38.3747 28.6173 38.0396 28.6106 37.8644C28.6114 37.8311 28.6054 37.798 28.5928 37.7671C28.5803 37.7362 28.5616 37.7082 28.5378 37.6849C28.514 37.6615 28.4856 37.6433 28.4545 37.6314C28.4234 37.6195 28.3902 37.6141 28.3569 37.6155Z" fill="#050615"/>
</g>
<defs>
<clipPath id="clip0_6_2834">
<rect width="30" height="31.7462" fill="white" transform="translate(20 20)"/>
</clipPath>
</defs>
</svg>
