<svg width="70" height="71" viewBox="0 0 70 71" fill="none" xmlns="http://www.w3.org/2000/svg">
<rect y="0.5" width="70" height="70" rx="10" fill="white"/>
<g clip-path="url(#clip0_6_2839)">
<path d="M26.9951 19.2307C26.8327 19.5563 26.9707 19.8122 27.3401 19.8467C27.6422 19.8744 27.946 19.8467 28.2498 19.8576C28.5948 19.8677 28.652 19.9232 28.6621 20.2623C28.6705 20.5653 28.6621 20.869 28.6671 21.172C28.661 21.3088 28.6956 21.4444 28.7664 21.5616C28.912 21.7736 29.1872 21.7728 29.3512 21.5616C29.4079 21.4985 29.4428 21.4188 29.4505 21.3344C29.4699 20.5703 29.6609 19.792 29.2654 19.0624C29.2584 19.0425 29.2584 19.0208 29.2654 19.001H27.0683C27.0961 19.0935 27.0313 19.1575 26.9951 19.2307Z" fill="#050615"/>
<path d="M26.8445 19.6496C26.9379 19.8819 27.1323 19.9576 27.3788 19.9475C27.6927 19.9349 28.0083 19.961 28.3213 19.9391C28.5527 19.9231 28.599 20.0081 28.5872 20.2193C28.5695 20.5433 28.5813 20.8689 28.5872 21.1937C28.5872 21.6018 28.7656 21.8307 29.0752 21.829C29.3849 21.8273 29.5498 21.6085 29.5524 21.1878C29.5524 20.6829 29.5439 20.1781 29.5524 19.6791C29.5591 19.4014 29.4859 19.1742 29.2637 19.0008C29.2567 19.0207 29.2567 19.0424 29.2637 19.0623C29.6592 19.7927 29.4682 20.571 29.4489 21.3342C29.4411 21.4187 29.4063 21.4984 29.3496 21.5614C29.1813 21.7726 28.9103 21.7735 28.7647 21.5614C28.6945 21.444 28.6605 21.3085 28.6671 21.1718C28.6596 20.8689 28.6671 20.5651 28.6621 20.2622C28.652 19.9256 28.5948 19.8676 28.2498 19.8575C27.946 19.8482 27.6422 19.8743 27.3401 19.8465C26.9707 19.812 26.8353 19.5562 26.9951 19.2306C27.0313 19.1574 27.0961 19.0934 27.0641 19C27.0515 19.0236 27.0439 19.0547 27.0246 19.069C26.826 19.2205 26.752 19.4207 26.8445 19.6496Z" fill="#050615"/>
<path d="M21.1882 21.3292C21.1833 21.3798 21.1894 21.4309 21.2059 21.4789C21.2224 21.527 21.249 21.571 21.2839 21.608C21.3188 21.645 21.3612 21.6741 21.4082 21.6933C21.4553 21.7126 21.5059 21.7215 21.5567 21.7196C21.7637 21.7289 21.9194 21.5581 21.9329 21.2989C21.9497 20.9623 21.9329 20.6257 21.9396 20.2933C21.9472 19.9164 22.001 19.8642 22.3856 19.8566C22.6473 19.8507 22.9098 19.8566 23.1715 19.8566C23.6856 19.8465 23.822 19.6042 23.5754 19.1489C23.5588 19.1283 23.547 19.1042 23.5406 19.0785C23.5342 19.0528 23.5334 19.026 23.5384 19H21.3977C20.9795 19.7439 21.2269 20.55 21.1882 21.3292Z" fill="#050615"/>
<path d="M21.0813 19.5049C21.0897 20.1107 21.0813 20.7174 21.0855 21.3233C21.0855 21.6271 21.2917 21.8341 21.5618 21.8341C21.8319 21.8341 22.0254 21.6279 22.0313 21.3199C22.038 20.9438 22.0431 20.5668 22.0313 20.1915C22.0246 20.0039 22.0667 19.934 22.2686 19.9433C22.6338 19.961 23.0007 19.9492 23.3625 19.9475C23.452 19.9497 23.5399 19.9242 23.6143 19.8745C23.6887 19.8248 23.746 19.7533 23.7782 19.6698C23.8187 19.584 23.8319 19.4878 23.8161 19.3942C23.8004 19.3007 23.7563 19.2142 23.6898 19.1464C23.6425 19.0944 23.592 19.0455 23.5384 19C23.5338 19.0256 23.5347 19.0519 23.5411 19.0772C23.5475 19.1024 23.5592 19.126 23.5754 19.1464C23.822 19.6042 23.6856 19.844 23.1715 19.8541C22.9098 19.86 22.6473 19.8541 22.3856 19.8541C22.001 19.8617 21.9472 19.9138 21.9396 20.2908C21.9329 20.6274 21.9497 20.964 21.9329 21.2964C21.9194 21.5547 21.7646 21.7255 21.5567 21.7171C21.5059 21.719 21.4553 21.71 21.4082 21.6908C21.3612 21.6715 21.3188 21.6424 21.2839 21.6055C21.249 21.5685 21.2224 21.5245 21.2059 21.4764C21.1894 21.4283 21.1833 21.3773 21.1882 21.3267C21.2269 20.55 20.9795 19.7439 21.3977 19C21.2243 19.1237 21.0779 19.2524 21.0813 19.5049Z" fill="#050615"/>
<path d="M33.1605 37.4878C33.1605 37.5921 33.1605 37.6981 33.1681 37.8025C33.1908 38.0793 33.3658 38.2232 33.6225 38.2282C33.8791 38.2333 34.0542 38.0835 34.1063 37.8252C34.119 37.721 34.1215 37.6159 34.1139 37.5113V25.2032C34.1139 24.7277 34.1139 24.7277 34.5767 24.7277H46.0341C46.9261 24.7277 47.818 24.7328 48.71 24.7277C48.9532 24.7277 49.0516 24.8119 49.0466 25.0584C49.034 25.4363 49.0382 25.8158 49.0466 26.1919C49.0516 26.5024 49.2443 26.6968 49.5254 26.6968C49.8064 26.6968 49.989 26.5083 49.9932 26.186C49.9991 25.7451 49.9932 25.305 49.9932 24.8641C49.9914 24.7221 49.9612 24.582 49.9044 24.452C49.8477 24.3219 49.7654 24.2045 49.6625 24.1067C49.3832 23.8173 49.0314 23.7752 48.6528 23.7752C43.9406 23.7797 39.2283 23.7797 34.5161 23.7752C34.4219 23.7752 34.3276 23.7802 34.2334 23.7802C33.9686 23.7847 33.7157 23.8911 33.5274 24.0773C33.2531 24.3297 33.1605 24.6444 33.1622 25.0096C33.1689 26.3105 33.1622 27.6123 33.1689 28.9132C33.1689 29.1059 33.1285 29.1656 32.9266 29.1446C32.4114 29.0973 31.8954 29.2257 31.4624 29.509C31.396 29.5502 31.348 29.6343 31.2504 29.6133C30.897 28.4058 29.3773 27.3413 27.6245 28.3629C27.6245 27.9615 27.6312 27.5946 27.6245 27.2277C27.6245 27.0653 27.6683 27.0073 27.8366 27.0123C28.2346 27.0224 28.6343 27.0233 29.0323 27.0123C29.363 27.0031 29.5372 26.8558 29.5498 26.5445C29.5675 25.915 29.5658 25.2823 29.5498 24.6562C29.5499 24.593 29.5375 24.5303 29.5134 24.4719C29.4892 24.4134 29.4538 24.3603 29.4091 24.3156C29.3643 24.2709 29.3112 24.2355 29.2528 24.2113C29.1943 24.1872 29.1317 24.1748 29.0685 24.1749C28.9394 24.1798 28.8171 24.234 28.7268 24.3264C28.6365 24.4187 28.585 24.5422 28.5829 24.6714C28.5703 24.891 28.5829 25.1114 28.5829 25.3319C28.5829 26.0842 28.5829 26.0783 27.8256 26.0615C27.6573 26.0615 27.6144 26.0135 27.6178 25.8494C27.627 25.2604 27.6329 24.6714 27.6178 24.0823C27.5858 22.837 26.6922 21.9071 25.43 21.7961C24.3546 21.7052 23.2985 22.5088 23.0688 23.6389C22.9577 24.185 23.0293 24.7479 23.0293 25.3033C23.0217 26.0758 23.0293 26.0699 22.261 26.0606C22.0885 26.0606 22.0237 26.0202 22.0304 25.8359C22.0447 25.459 22.0388 25.0786 22.0304 24.7033C22.0254 24.3911 21.8335 24.1816 21.5659 24.1774C21.2984 24.1732 21.0863 24.3945 21.0838 24.721C21.0838 25.31 21.0796 25.8991 21.0838 26.4881C21.0838 26.8339 21.2571 27.0073 21.603 27.014C21.9808 27.0216 22.3603 27.0317 22.7364 27.014C22.9771 27.0005 23.0343 27.078 23.0301 27.311C23.0158 28.1088 23.02 28.9098 23.0301 29.7033C23.0266 29.7639 23.0357 29.8244 23.0568 29.8813C23.0779 29.9381 23.1105 29.9899 23.1527 30.0335C23.1948 30.0771 23.2455 30.1115 23.3016 30.1344C23.3577 30.1574 23.418 30.1685 23.4786 30.167C23.5414 30.1706 23.6043 30.1616 23.6635 30.1404C23.7227 30.1192 23.7771 30.0863 23.8233 30.0437C23.8696 30.001 23.9068 29.9495 23.9327 29.8922C23.9586 29.8349 23.9727 29.773 23.9742 29.7101C23.981 29.6259 23.9742 29.5418 23.9742 29.4576C23.9742 27.6737 23.9742 25.8898 23.9742 24.1067C23.9742 23.543 24.2469 23.1214 24.7644 22.8908C25.2819 22.6603 25.7691 22.7402 26.1949 23.1071C26.5584 23.4184 26.6408 23.8366 26.64 24.2977C26.6333 27.9391 26.6333 31.5798 26.64 35.22C26.637 35.3454 26.6463 35.4708 26.6678 35.5944C26.6828 35.7001 26.7368 35.7962 26.8192 35.864C26.9016 35.9317 27.0064 35.9662 27.1129 35.9605C27.2189 35.9711 27.3252 35.9422 27.4112 35.8793C27.4972 35.8164 27.557 35.7239 27.5791 35.6197C27.6055 35.5078 27.6168 35.3929 27.6127 35.2781C27.6127 33.6103 27.6077 31.9416 27.6178 30.2738C27.616 30.0754 27.658 29.8791 27.7406 29.6987C27.8232 29.5183 27.9445 29.3582 28.0958 29.2299C28.2472 29.1016 28.4249 29.0082 28.6164 28.9562C28.8079 28.9042 29.0085 28.895 29.2039 28.9292C29.9343 29.0394 30.3896 29.6074 30.3913 30.4245C30.3913 32.4176 30.3913 34.4111 30.3913 36.4048C30.387 36.5097 30.3896 36.6149 30.3988 36.7195C30.435 36.9829 30.589 37.1301 30.8583 37.136C31.1637 37.1436 31.3421 36.9374 31.3421 36.5731C31.3421 34.8842 31.3421 33.1946 31.3421 31.5058C31.3421 30.6811 32.0481 30.0155 32.8164 30.0938C33.0461 30.1173 33.1689 30.1695 33.1673 30.4657C33.1529 32.8083 33.1605 35.1476 33.1605 37.4878Z" fill="#050615"/>
<path d="M43.4584 27.2163C44.3157 27.4653 45.0996 27.9193 45.7422 28.5391C45.9887 28.773 46.2344 28.7915 46.4423 28.6114C46.6728 28.4128 46.6602 28.0998 46.3977 27.8465C45.1649 26.6592 43.6839 26.0794 41.98 26.0492C41.4865 26.0383 40.9939 26.095 40.5158 26.2174C37.866 26.8772 36.0342 28.8992 35.6866 31.6028C35.4241 33.6535 36.056 35.4298 37.5067 36.894C38.1993 37.5932 39.0626 37.7767 39.9966 37.4696C41.6552 36.9243 42.2316 34.8063 40.9517 33.4558C40.3214 32.7918 40.3568 31.873 40.9854 31.3016C41.6139 30.7302 42.5168 30.8085 43.1395 31.4749C43.6878 32.0679 44.1042 32.7702 44.3613 33.5357C44.4665 33.842 44.7122 33.9749 44.963 33.8942C45.2373 33.81 45.3601 33.5458 45.2625 33.2387C44.9519 32.2355 44.3856 31.3304 43.6192 30.6124C43.3574 30.3699 43.0453 30.1882 42.7052 30.0803C42.3651 29.9723 42.0054 29.9408 41.6517 29.988C41.298 30.0352 40.9591 30.1599 40.6592 30.3532C40.3592 30.5466 40.1057 30.8037 39.9167 31.1064C39.6244 31.5593 39.4936 32.0976 39.5455 32.6342C39.5974 33.1707 39.829 33.674 40.2028 34.0624C40.6134 34.5042 40.7918 35.0015 40.6235 35.5855C40.3055 36.6996 38.9355 37.016 38.1176 36.1653C36.8899 34.8804 36.3952 33.3379 36.6409 31.5843C37.0902 28.3876 40.3543 26.31 43.4584 27.2163Z" fill="#050615"/>
<path d="M22.1744 44.4963C21.3573 43.5875 20.9677 42.502 20.9567 41.2836C20.9492 40.3285 20.9567 39.3743 20.9567 38.4226C20.9519 38.1818 20.9623 37.9409 20.9879 37.7014C21.1478 36.483 21.9892 35.8367 23.0259 35.3032C23.0259 37.2664 23.0259 39.1866 23.0259 41.1094C23.0259 41.5007 23.1942 41.7245 23.4912 41.7295C23.7883 41.7346 23.9768 41.504 23.9768 41.1254C23.9768 38.0815 23.9768 35.0382 23.9768 31.9954C23.9768 31.6403 23.7874 31.4173 23.4988 31.4165C23.2102 31.4157 23.0293 31.6302 23.0293 31.9904C23.0293 32.6299 23.0225 33.2703 23.0293 33.9106C23.0375 33.9815 23.0237 34.0531 22.9897 34.1158C22.9556 34.1784 22.903 34.229 22.8391 34.2607C22.4259 34.5072 22.0187 34.7655 21.6207 35.0357C20.6067 35.7215 20.0539 36.6833 20.0168 37.9042C19.9823 39.0049 20.0126 40.1072 20 41.2087C19.9874 42.7687 20.5293 44.1075 21.5618 45.2662C22.5601 46.3615 23.1085 47.793 23.0974 49.275C23.0974 49.7681 23.0907 50.2612 23.0974 50.7543C23.0953 50.8173 23.1059 50.8802 23.1287 50.939C23.1516 50.9978 23.1861 51.0513 23.2302 51.0964C23.2744 51.1415 23.3272 51.1772 23.3855 51.2012C23.4438 51.2253 23.5064 51.2373 23.5695 51.2364C23.63 51.2407 23.6907 51.2325 23.7478 51.2122C23.805 51.192 23.8573 51.1602 23.9016 51.1188C23.9459 51.0775 23.9812 51.0274 24.0053 50.9718C24.0294 50.9161 24.0417 50.8561 24.0416 50.7955C24.0609 50.0197 24.0979 49.2396 24.0087 48.468C23.8405 46.9458 23.1976 45.6331 22.1744 44.4963Z" fill="#050615"/>
<path d="M45.9121 38.4513C45.9736 38.6583 46.1048 38.8038 46.3278 38.8266C46.5803 38.8518 46.741 38.7256 46.8403 38.4984C47.2989 37.4491 47.5286 36.3535 47.5311 34.8986C47.5126 33.1534 46.847 31.34 45.5242 29.7656C44.6878 28.7685 43.6553 28.1214 42.3409 28.0179C41.6417 27.9591 40.9386 28.0686 40.2904 28.3372C39.6422 28.6059 39.0678 29.0259 38.6152 29.5621C38.1627 30.0983 37.8451 30.7351 37.6891 31.4192C37.5332 32.1033 37.5433 32.8148 37.7188 33.4942C37.9061 34.2501 38.299 34.9395 38.8539 35.4859C38.9387 35.5806 39.0574 35.6379 39.1843 35.6455C39.3111 35.653 39.4358 35.6102 39.5313 35.5263C39.7265 35.3496 39.74 35.082 39.5616 34.8532C39.5044 34.7783 39.4362 34.7118 39.3765 34.6394C38.5855 33.6802 38.3381 32.5938 38.6982 31.4073C39.48 28.8325 42.7078 28.1105 44.5355 30.1207C46.6476 32.4432 47.1188 35.1014 46.0013 38.0373C45.9492 38.1685 45.8667 38.2981 45.9121 38.4513Z" fill="#050615"/>
<path d="M43.2994 41.4401C43.2153 41.4333 43.1311 41.4401 43.047 41.4401H37.7937C36.6821 41.4401 35.5697 41.4359 34.4581 41.4401C34.2057 41.4401 34.0929 41.3728 34.1089 41.0984C34.1299 40.7324 34.119 40.3647 34.1089 39.9978C34.103 39.6932 33.9019 39.4769 33.6368 39.4727C33.3718 39.4685 33.1673 39.678 33.1606 39.9869C33.1521 40.3638 33.1564 40.7442 33.1606 41.1195C33.1606 41.9609 33.6166 42.4094 34.4657 42.4103C35.3989 42.4103 36.332 42.417 37.2652 42.4061C37.5017 42.4061 37.5362 42.4633 37.4891 42.6896C37.3465 43.4067 37.113 44.1026 36.794 44.7605C36.5357 45.2847 36.2218 45.7778 35.982 46.313C35.3526 47.7199 35.17 49.2009 35.2247 50.724C35.2365 51.0513 35.4174 51.2339 35.7001 51.2339C35.9828 51.2339 36.1747 51.0328 36.1865 50.6987C36.1915 50.5835 36.1865 50.4682 36.1865 50.3521C36.172 49.797 36.2035 49.2417 36.2807 48.6918C36.449 47.6038 36.8512 46.6042 37.3999 45.6558C37.9459 44.7258 38.3055 43.6983 38.4584 42.6307C38.4862 42.4364 38.5788 42.4052 38.753 42.4069C39.4968 42.4153 40.2415 42.4069 40.9862 42.4069C41.7519 42.4069 42.5177 42.412 43.2834 42.4069C43.62 42.4069 43.8152 42.2058 43.8119 41.9147C43.8085 41.6235 43.6259 41.467 43.2994 41.4401Z" fill="#050615"/>
<path d="M49.9899 34.9039V29.0776C49.9899 28.8462 49.9975 28.6148 49.9832 28.3851C49.9663 28.1116 49.7905 27.9736 49.533 27.9492C49.4112 27.9438 49.2921 27.9859 49.2008 28.0665C49.1094 28.1472 49.0529 28.2602 49.0433 28.3817C49.0382 28.4762 49.0382 28.5708 49.0433 28.6653V40.9423C49.0433 41.0155 49.0382 41.0896 49.0433 41.1628C49.0609 41.3723 48.9524 41.4463 48.7597 41.4388C48.6865 41.4388 48.6124 41.4388 48.5392 41.4388C47.5842 41.4388 46.6291 41.4388 45.6782 41.4388C45.2466 41.4388 44.9865 41.7148 45.0892 42.0522C45.1784 42.3358 45.4056 42.4132 45.6824 42.4123C46.6796 42.4123 47.6767 42.3896 48.673 42.4182C49.3697 42.4376 50.0152 41.9866 50.0025 41.1013C49.9697 39.0355 49.9899 36.968 49.9899 34.9039Z" fill="#050615"/>
<path d="M36.1873 38.3537C37.2812 39.3635 38.5762 39.7741 40.0387 39.4822C42.0582 39.0783 43.4045 37.5745 43.5972 35.5104C43.7108 34.2878 43.3204 33.1964 42.5033 32.2708C42.2652 31.9998 41.9017 32.0108 41.7258 32.28C41.5575 32.5325 41.656 32.7538 41.8327 32.9625C42.3746 33.602 42.6413 34.345 42.6422 35.4027C42.6085 36.4369 42.0784 37.4138 41.019 38.0954C39.809 38.8713 38.0082 38.7846 36.8403 37.6595C36.5651 37.3945 36.3034 37.3953 36.0956 37.6158C35.8877 37.8362 35.913 38.1013 36.1873 38.3537Z" fill="#050615"/>
<path d="M43.3499 40.003C44.5885 38.9208 45.3114 37.5627 45.5125 36.0582C45.5369 35.5912 45.398 35.3934 45.1203 35.3623C44.8141 35.3269 44.6155 35.507 44.5683 35.8596C44.5439 36.0346 44.5145 36.2105 44.4749 36.383C44.2213 37.5013 43.6165 38.5091 42.7491 39.2591C42.5152 39.4678 42.4857 39.7455 42.6532 39.9525C42.6938 40.0042 42.7448 40.0469 42.8028 40.0778C42.8609 40.1087 42.9248 40.1271 42.9904 40.1318C43.056 40.1366 43.1218 40.1276 43.1837 40.1054C43.2457 40.0832 43.3023 40.0483 43.3499 40.003Z" fill="#050615"/>
</g>
<defs>
<clipPath id="clip0_6_2839">
<rect width="30" height="32.2366" fill="white" transform="translate(20 19)"/>
</clipPath>
</defs>
</svg>
