<svg width="70" height="71" viewBox="0 0 70 71" fill="none" xmlns="http://www.w3.org/2000/svg">
<rect y="0.5" width="70" height="70" rx="10" fill="white"/>
<g clip-path="url(#clip0_6_2824)">
<path d="M49.9813 27.6608C49.9813 24.7764 49.9813 21.8914 49.9813 19.0059C49.9813 15.9715 49.9813 12.934 49.9813 9.90272C49.9813 8.6572 49.3009 8.00797 48.0663 8.00797C41.9591 8.00797 35.8524 8.00538 29.7462 8.00019C29.5728 7.99448 29.4002 8.02505 29.2393 8.08993C29.0785 8.15481 28.9329 8.25257 28.8121 8.37696C26.0096 11.0756 23.1937 13.768 20.3643 16.4542C20.2455 16.5576 20.1512 16.6861 20.0881 16.8304C20.0251 16.9747 19.995 17.1313 20 17.2887C20.0062 26.6571 20.0062 36.024 20 45.3893C20 46.6348 20.7037 47.3198 21.9586 47.326C23.0998 47.326 24.2441 47.3494 25.3838 47.3152C25.8212 47.3011 25.9333 47.4304 25.8788 47.8429C25.7325 48.9468 26.2494 49.6645 27.238 50.0927C27.4593 50.1912 27.6755 50.3009 27.8857 50.4212C28.2968 50.6555 28.6167 51.0218 28.7935 51.4606C28.9704 51.8994 28.994 52.3852 28.8603 52.839C28.0445 55.5481 27.2297 58.2581 26.416 60.9692C26.3335 61.2417 26.2183 61.5141 26.486 61.7477C26.7538 61.9812 27.0154 61.7601 27.2505 61.6371C27.9433 61.2744 28.6361 60.9069 29.3149 60.5161C29.5781 60.3605 29.6902 60.4165 29.8194 60.6718C30.1697 61.3724 30.548 62.059 30.9092 62.7519C31.0384 62.9994 31.1365 63.2983 31.493 63.2594C31.8496 63.2205 31.8854 62.9184 31.9601 62.646C32.7588 59.9884 33.5793 57.3385 34.3546 54.6731C34.4776 54.2465 34.6909 54.2776 34.9945 54.3306C35.2234 54.3695 35.1907 54.5719 35.2358 54.7229C36.0932 57.5565 36.9505 60.39 37.8079 63.2236C37.8826 63.468 37.9355 63.7483 38.2749 63.7794C38.6143 63.8106 38.7093 63.5537 38.8323 63.3201C39.206 62.6102 39.5921 61.9065 39.9533 61.1918C40.0856 60.9287 40.2039 60.8991 40.4608 61.0486C41.1381 61.4409 41.8325 61.8022 42.5237 62.1711C42.7682 62.3004 43.0297 62.4903 43.3022 62.2583C43.5746 62.0263 43.433 61.7461 43.352 61.4799C42.4926 58.6276 41.6337 55.7733 40.7753 52.9169C40.7286 52.7612 40.6196 52.5432 40.685 52.4498C41.2019 51.6371 41.4168 50.594 42.5004 50.2126C43.6509 49.8062 44.2861 49.0106 44.09 47.7215C44.0355 47.3681 44.2114 47.3354 44.5025 47.3401C45.5924 47.3541 46.6822 47.3027 47.7611 47.3572C49.0067 47.4179 50.0062 46.7936 49.9922 45.1495C49.9533 39.3127 49.9813 33.4867 49.9813 27.6608ZM28.9366 9.49637C28.9366 11.8473 28.9366 14.0721 28.9366 16.2954C28.9366 16.5445 28.8183 16.5585 28.6252 16.5585C26.307 16.5585 23.9903 16.5585 21.546 16.5585L28.9366 9.49637ZM33.5622 54.2621C32.8335 56.6862 32.108 59.1103 31.3451 61.6558C30.9902 60.9848 30.6803 60.3932 30.3674 59.8046C30.0545 59.2161 29.9361 59.171 29.3227 59.4933L27.484 60.4757C28.1737 58.1932 28.8276 56.0245 29.4815 53.8557C29.4924 53.8199 29.4971 53.7825 29.508 53.7467C29.7353 52.9947 29.7353 52.9947 30.4811 53.1504C30.8883 53.2193 31.3047 53.2124 31.7095 53.1302C32.4225 53.0072 32.9737 53.3357 33.517 53.7203C33.763 53.8915 33.6182 54.0737 33.5622 54.2621ZM42.1501 60.5177C42.1905 60.6516 42.2139 60.7902 42.259 60.9848C41.5989 60.6298 41.0011 60.3278 40.4235 59.9915C39.9766 59.7315 39.6793 59.7766 39.4426 60.2748C39.1499 60.8898 38.8027 61.4783 38.4337 62.1602C37.6304 59.487 36.8675 56.9228 36.0828 54.3648C35.9987 54.0939 36.0532 53.9912 36.2696 53.8292C37.0029 53.2765 37.7752 52.9387 38.7171 53.166C38.8804 53.2127 39.0535 53.2127 39.2169 53.166C39.8396 52.9262 39.9782 53.2719 40.1245 53.7732C40.7831 56.0323 41.4728 58.2726 42.1501 60.5177ZM43.8907 45.0545C43.6002 45.4335 43.3907 45.8682 43.2752 46.3315C43.1598 46.7949 43.1409 47.277 43.2197 47.748C43.3364 48.5685 43.0001 49.0776 42.2544 49.3531C41.2984 49.705 40.6975 50.39 40.2896 51.3055C39.8521 52.277 39.589 52.4031 38.5287 52.2568C38.1212 52.1933 37.7052 52.2109 37.3044 52.3084C36.9037 52.4059 36.5261 52.5815 36.1933 52.825C35.0381 53.6284 34.9369 53.6253 33.763 52.8126C33.1055 52.3381 32.2893 52.1377 31.4868 52.2537C30.355 52.4 30.1276 52.2817 29.6575 51.237C29.2604 50.3542 28.6688 49.7097 27.758 49.3687C26.9967 49.0838 26.6308 48.5731 26.7632 47.7277C26.8502 47.2275 26.825 46.7142 26.6893 46.225C26.5536 45.7357 26.3108 45.2827 25.9785 44.8988C25.5114 44.3306 25.5114 43.7249 25.9785 43.1644C26.315 42.773 26.5603 42.3117 26.6965 41.8138C26.8328 41.3159 26.8566 40.7939 26.7663 40.2857C26.6464 39.4855 26.9905 38.9935 27.7113 38.7288C28.6828 38.3676 29.2978 37.6764 29.7088 36.7375C30.1058 35.8314 30.3596 35.6695 31.3187 35.8034C31.7893 35.8744 32.2694 35.8495 32.7301 35.7301C33.1909 35.6108 33.6227 35.3995 33.9997 35.109C34.8887 34.4707 35.0895 34.4722 36.0003 35.1215C36.8005 35.6944 37.635 35.9466 38.6283 35.8065C39.6216 35.6664 39.8536 35.833 40.2849 36.7578C40.6508 37.5362 41.1147 38.1964 41.9321 38.584C43.2383 39.2068 43.229 39.2255 43.1979 40.7917C43.0422 41.5468 43.3862 42.2895 43.886 43.0056C44.5306 43.9195 44.5508 44.1655 43.8907 45.0545ZM49.0907 45.1511C49.0907 46.2191 48.8759 46.4339 47.8141 46.4339C46.7523 46.4339 45.678 46.4168 44.61 46.4433C44.1429 46.4542 44.1429 46.3094 44.364 45.9762C44.5851 45.643 44.7984 45.3223 44.9867 44.9813C45.1607 44.6911 45.2526 44.3591 45.2526 44.0207C45.2526 43.6824 45.1607 43.3503 44.9867 43.0601C44.9227 42.925 44.8444 42.7972 44.7532 42.6787C44.4747 42.3617 44.2715 41.9859 44.1585 41.5794C44.0455 41.1729 44.0258 40.7461 44.1009 40.3309C44.2737 39.1258 43.7225 38.3505 42.6389 37.9208C41.8978 37.6281 41.4339 37.1159 41.0992 36.3966C40.4764 35.0576 39.9673 34.7634 38.4882 34.9175C38.1377 34.9677 37.7805 34.9452 37.439 34.8515C37.0975 34.7577 36.779 34.5947 36.5032 34.3726C35.5036 33.577 34.4916 33.563 33.4906 34.3726C32.888 34.8584 32.2279 34.9954 31.451 34.9222C30.0031 34.7789 29.5018 35.0779 28.8915 36.3935C28.7453 36.7463 28.5295 37.0661 28.2569 37.3336C27.9843 37.6011 27.6605 37.8109 27.305 37.9504C26.2463 38.3598 25.7294 39.1383 25.882 40.3215C25.9878 41.142 25.8695 41.9049 25.3121 42.5837C24.5337 43.5365 24.5695 44.5189 25.3121 45.5045C25.5052 45.7614 25.8757 46.0712 25.7278 46.353C25.6095 46.5803 25.1455 46.4246 24.8373 46.4277C23.8829 46.4417 22.927 46.4402 21.971 46.4277C21.1926 46.4277 20.9123 46.1475 20.9123 45.383C20.9123 36.2035 20.9082 27.023 20.8999 17.8414C20.8999 17.449 21.0556 17.4381 21.3669 17.4381C23.9327 17.4475 26.5047 17.4381 29.0658 17.4381C29.7758 17.4381 29.8443 17.3743 29.8443 16.6706C29.8443 14.234 29.8552 11.799 29.8349 9.36248C29.8349 8.96235 29.9455 8.87672 30.3316 8.87828C36.2136 8.89074 42.0961 8.89385 47.9791 8.88762C48.8666 8.88762 49.1079 9.12271 49.1079 10.0117C49.1079 15.8958 49.1079 21.7788 49.1079 27.6608L49.0907 45.1511Z" fill="#050615"/>
<path d="M25.6702 22.6352C25.838 22.6495 26.0063 22.6552 26.1746 22.6523H43.5871C43.9234 22.6523 44.2908 22.6352 44.2846 22.2102C44.2846 21.8116 43.9343 21.7322 43.584 21.7431C43.5092 21.7431 43.4283 21.7431 43.3598 21.7431C37.6511 21.7431 31.9425 21.7431 26.2338 21.7431C26.0287 21.7343 25.8233 21.75 25.6219 21.7898C25.5706 21.7997 25.5218 21.8196 25.4783 21.8485C25.4348 21.8774 25.3974 21.9147 25.3685 21.9582C25.3395 22.0016 25.3194 22.0504 25.3095 22.1017C25.2996 22.153 25.2999 22.2057 25.3106 22.2569C25.3097 22.3543 25.3467 22.4482 25.4138 22.5188C25.4809 22.5894 25.5729 22.6312 25.6702 22.6352Z" fill="#050615"/>
<path d="M43.8658 25.3286C43.735 25.3193 43.6042 25.3286 43.4735 25.3286H26.114C25.9833 25.3208 25.8523 25.3208 25.7216 25.3286C25.6651 25.3282 25.609 25.3396 25.5571 25.362C25.5052 25.3844 25.4585 25.4174 25.42 25.4588C25.3815 25.5002 25.352 25.5492 25.3334 25.6027C25.3149 25.6561 25.3076 25.7128 25.3122 25.7692C25.3083 25.8262 25.3162 25.8835 25.3354 25.9374C25.3545 25.9912 25.3845 26.0406 25.4234 26.0825C25.4623 26.1244 25.5095 26.1578 25.5618 26.1808C25.6142 26.2037 25.6707 26.2157 25.7279 26.216C25.8777 26.2246 26.0279 26.2246 26.1778 26.216H43.4236C43.573 26.2254 43.7227 26.2254 43.872 26.216C43.9866 26.2124 44.095 26.1634 44.1735 26.08C44.252 25.9965 44.2942 25.8853 44.2908 25.7708C44.2936 25.7134 44.2846 25.6561 44.2645 25.6023C44.2443 25.5486 44.2134 25.4995 44.1736 25.4581C44.1338 25.4167 44.086 25.3839 44.033 25.3616C43.9801 25.3393 43.9232 25.3281 43.8658 25.3286Z" fill="#050615"/>
<path d="M43.8066 28.8843C43.6509 28.8843 43.5061 28.8843 43.3566 28.8843H28.3621C27.5198 28.8843 26.6775 28.8843 25.8352 28.8843C25.5425 28.8843 25.309 28.9792 25.3106 29.3249C25.3121 29.6705 25.5519 29.7577 25.8383 29.7764C25.9504 29.7764 26.0641 29.7764 26.1762 29.7764H43.4158C43.5481 29.7764 43.6789 29.7764 43.8097 29.7764C44.0822 29.7484 44.2923 29.602 44.2908 29.3233C44.2892 29.0446 44.0899 28.8936 43.8066 28.8843Z" fill="#050615"/>
<path d="M34.926 37.9304C31.6939 37.8525 28.8012 40.5211 28.7062 43.6722C28.5972 47.2251 31.2268 50.0555 34.7096 50.1443C38.0243 50.2252 40.7816 47.524 40.8796 44.116C40.9684 40.8293 38.2563 38.0113 34.926 37.9304ZM34.8108 49.2584C31.9866 49.274 29.6077 46.9231 29.5921 44.1206C29.5801 43.0908 29.8742 42.0807 30.4372 41.2183C31.0001 40.3559 31.8066 39.6801 32.7542 39.2768C33.7017 38.8734 34.7478 38.7606 35.7596 38.9526C36.7714 39.1447 37.7034 39.6329 38.4373 40.3554C39.1712 41.0779 39.674 42.0022 39.8818 43.0108C40.0896 44.0195 39.9932 45.0672 39.6047 46.021C39.2162 46.9748 38.5531 47.7917 37.6996 48.3681C36.8461 48.9444 35.8407 49.2543 34.8108 49.2584Z" fill="#050615"/>
</g>
<defs>
<clipPath id="clip0_6_2824">
<rect width="30" height="55.773" fill="white" transform="translate(20 8)"/>
</clipPath>
</defs>
</svg>
