<svg width="70" height="70" viewBox="0 0 70 70" fill="none" xmlns="http://www.w3.org/2000/svg">
<rect width="70" height="70" rx="10" fill="white"/>
<g clip-path="url(#clip0_6_2844)">
<path d="M20.1761 47.5901C20.4524 48.4613 21.3456 49.0413 22.2614 49.0382C27.8451 49.0178 33.4287 49.0178 39.0124 49.0382C39.2994 49.0436 39.5845 48.9911 39.8506 48.8837C40.1168 48.7764 40.3586 48.6165 40.5615 48.4136C40.7645 48.2106 40.9244 47.9688 41.0317 47.7027C41.139 47.4365 41.1916 47.1514 41.1861 46.8644C41.1564 45.2551 41.1861 43.6434 41.1728 42.0333C41.166 41.8791 41.1928 41.7252 41.2515 41.5825C41.3101 41.4397 41.3992 41.3115 41.5125 41.2067C43.6871 39.0463 45.849 36.8741 48.0204 34.7098C48.4423 34.2894 48.84 33.8487 49.2517 33.4167C50.1292 32.5008 50.1362 31.2711 49.2642 30.378C48.3922 29.4849 47.103 29.4434 46.1887 30.2841C45.7723 30.6676 45.3841 31.0809 44.9833 31.4809C43.8786 32.5867 42.7731 33.6914 41.6668 34.7951C41.5611 34.9008 41.4554 35.0871 41.2996 35.0456L41.2605 35.0808V35.0299C41.1243 34.9595 41.1783 34.7505 41.1783 34.6025C41.1783 30.7764 41.1783 26.95 41.1783 23.1234C41.1851 22.6545 41.0281 22.1979 40.7343 21.8323C40.4405 21.4668 40.0284 21.2153 39.569 21.1211C39.4154 21.0924 39.2593 21.0801 39.1032 21.0843C33.4517 21.0843 27.7999 21.0843 22.1479 21.0843C21.2227 21.0851 20.5135 21.586 20.1769 22.4635C20.1417 22.5551 20.1479 22.6874 20 22.6983V47.3552C20.1479 47.3662 20.1472 47.4977 20.1761 47.5901ZM46.5433 30.9502C46.6887 30.786 46.8676 30.6549 47.068 30.5659C47.2684 30.4769 47.4857 30.432 47.705 30.4343C48.375 30.4156 48.7742 30.8187 49.0356 31.3549C49.29 31.8762 49.1836 32.3787 48.7789 32.8069C48.736 32.8588 48.6965 32.9134 48.6607 32.9705C48.5738 33.0934 48.4987 33.0957 48.3844 32.983C47.7817 32.3858 47.1711 31.7948 46.559 31.2061C46.4682 31.1169 46.4384 31.0621 46.5433 30.9502ZM45.6471 31.8504C45.7457 31.7517 45.8083 31.6805 45.9406 31.8237C46.5559 32.4907 47.1821 33.1482 47.8592 33.8667C47.0529 34.6495 46.1621 35.498 45.2933 36.3669C42.8438 38.8195 40.4005 41.2761 37.9635 43.7365C37.7913 43.9103 37.706 43.9135 37.5393 43.7365C36.9843 43.1463 36.4137 42.5718 35.8415 41.998C35.7186 41.8759 35.6849 41.8078 35.8305 41.6622C39.1056 38.396 42.3778 35.1254 45.6471 31.8504ZM36.9585 44.2853L34.5906 44.8817L35.2638 42.697L36.9585 44.2853ZM20.8203 23.2384C20.8203 22.3414 21.3401 21.8209 22.234 21.8209C27.8276 21.8209 33.4209 21.8209 39.014 21.8209C39.9275 21.8209 40.4402 22.3367 40.4402 23.2557C40.4402 27.3944 40.4417 31.5328 40.4449 35.671C40.4489 35.7524 40.435 35.8337 40.404 35.909C40.373 35.9844 40.3258 36.052 40.2656 36.107C38.5357 37.8291 36.8215 39.5644 35.0767 41.2732C34.814 41.5257 34.6235 41.8438 34.5249 42.1945C34.2611 43.0665 33.9769 43.9322 33.7092 44.8042C33.6466 45.0085 33.5621 45.0845 33.3319 45.0845C29.8471 45.0745 26.3623 45.0722 22.8774 45.0774C22.7805 45.0657 22.6822 45.0707 22.587 45.0923C22.3905 45.1706 22.2606 45.3122 22.288 45.5392C22.2901 45.5884 22.3019 45.6367 22.3228 45.6813C22.3436 45.7259 22.3731 45.766 22.4094 45.7991C22.4458 45.8323 22.4884 45.858 22.5347 45.8746C22.581 45.8913 22.6302 45.8986 22.6794 45.8962C22.7475 45.8962 22.8156 45.8962 22.8845 45.8962H38.3753C38.434 45.8962 38.4927 45.8962 38.5506 45.8962C38.8246 45.8852 38.9842 45.7318 38.978 45.4868C38.9763 45.431 38.9635 45.3762 38.9405 45.3254C38.9174 45.2746 38.8845 45.2289 38.8437 45.1909C38.8028 45.1529 38.7549 45.1233 38.7025 45.104C38.6502 45.0847 38.5946 45.0759 38.5389 45.0782C38.1584 45.0727 37.778 45.0782 37.3976 45.0782C37.8171 44.9999 38.1021 44.7651 38.3768 44.4723C39.0351 43.7812 39.7185 43.1158 40.3963 42.4372C40.4746 42.5303 40.441 42.6203 40.441 42.701C40.4441 44.0677 40.4441 45.4341 40.441 46.8003C40.441 47.7724 39.9118 48.3016 38.9435 48.3016H22.3091C21.3597 48.3016 20.8219 47.7678 20.8219 46.8206C20.8203 38.957 20.8198 31.0963 20.8203 23.2384Z" fill="#050615"/>
<path d="M20.1769 22.4638C20.5135 21.5863 21.2227 21.0853 22.151 21.0853C27.8025 21.0853 33.4543 21.0853 39.1063 21.0853C39.2625 21.0811 39.4186 21.0935 39.5721 21.1221C40.0305 21.2174 40.4414 21.4694 40.7341 21.8349C41.0268 22.2003 41.183 22.6563 41.176 23.1244C41.176 26.9505 41.176 30.7769 41.176 34.6036C41.176 34.7515 41.122 34.9605 41.2582 35.0309V34.7178C41.2582 30.8442 41.2582 26.9704 41.2582 23.0962C41.2614 22.8225 41.2103 22.5508 41.1079 22.297C41.0055 22.0431 40.8538 21.812 40.6616 21.6171C40.4694 21.4222 40.2404 21.2673 39.988 21.1614C39.7356 21.0554 39.4646 21.0006 39.1909 21C33.4814 21 27.7725 21 22.0641 21C21.4207 21 20.9033 21.2779 20.4806 21.753C20.2348 22.0278 20.1385 22.373 20 22.6986C20.1479 22.6876 20.1417 22.5553 20.1769 22.4638Z" fill="#050615"/>
<path d="M22.2622 49.1128C27.8448 49.1128 33.4267 49.0956 39.0085 49.1245C40.3533 49.1316 41.2942 48.0756 41.2691 46.8733C41.2355 45.1857 41.2613 43.4973 41.2597 41.8089C41.2597 41.6711 41.2691 41.5537 41.3818 41.4417C43.8381 38.9995 46.2895 36.5521 48.7359 34.0995C49.1038 33.7292 49.4967 33.3652 49.7472 32.894C50.2763 31.8991 49.9562 30.7414 48.9644 30.0127C48.5411 29.7091 48.0241 29.565 47.5048 29.606C46.9854 29.6469 46.4974 29.8703 46.1269 30.2366C44.5865 31.7739 43.047 33.3133 41.5087 34.8548C41.4484 34.9151 41.3818 34.973 41.2981 35.0482C41.4546 35.0897 41.5595 34.9034 41.6652 34.7977C42.7725 33.6961 43.8775 32.5924 44.9802 31.4866C45.381 31.0866 45.7692 30.6733 46.1856 30.2898C47.0999 29.4491 48.3915 29.4937 49.2611 30.3837C50.1307 31.2737 50.126 32.5066 49.2486 33.4224C48.8368 33.8521 48.4392 34.2952 48.0173 34.7155C45.8459 36.879 43.6839 39.0512 41.5094 41.2124C41.3961 41.3172 41.307 41.4454 41.2483 41.5882C41.1897 41.731 41.1628 41.8848 41.1697 42.039C41.1822 43.6491 41.1533 45.2608 41.183 46.8702C41.1884 47.1571 41.1359 47.4422 41.0286 47.7084C40.9213 47.9746 40.7614 48.2164 40.5584 48.4193C40.3555 48.6222 40.1137 48.7822 39.8475 48.8895C39.5813 48.9968 39.2963 49.0493 39.0093 49.0439C33.4256 49.0141 27.842 49.0141 22.2583 49.0439C21.3424 49.0439 20.4493 48.467 20.173 47.5958C20.144 47.5034 20.1448 47.3719 19.9969 47.361C20.0141 47.3829 20.0407 47.4024 20.047 47.4267C20.3515 48.5288 21.1131 49.112 22.2622 49.1128Z" fill="#050615"/>
<path d="M25.9991 33.65C26.6042 33.65 27.2092 33.6555 27.8143 33.65C27.9708 33.65 28.0374 33.6813 28.028 33.8551C28.0131 34.1369 28.028 34.421 28.0217 34.7036C28.0147 34.9087 28.0272 35.1294 28.2284 35.2077C28.3335 35.2479 28.4477 35.2582 28.5582 35.2373C28.6688 35.2164 28.7714 35.1653 28.8546 35.0895C29.3931 34.648 29.9411 34.2285 30.4804 33.7956C30.5984 33.6957 30.7493 33.643 30.9038 33.6476C32.3191 33.6531 33.7343 33.6476 35.1487 33.6476C35.9472 33.6476 36.4012 33.1968 36.4012 32.4015V24.4956C36.4012 23.6996 35.9777 23.2808 35.1707 23.28C33.6573 23.28 32.144 23.28 30.6307 23.28V23.2213C29.0785 23.2213 27.527 23.2213 25.9756 23.2213C25.8288 23.2192 25.683 23.2466 25.547 23.3019C25.411 23.3572 25.2875 23.4393 25.1838 23.5433C25.0801 23.6472 24.9984 23.771 24.9435 23.9071C24.8885 24.0433 24.8615 24.1891 24.8641 24.336C24.8568 27.0693 24.8565 29.8017 24.8633 32.533C24.8649 33.1772 25.3525 33.6476 25.9991 33.65ZM26.0554 24.1003C29.1098 24.1003 32.1643 24.1003 35.2192 24.1003C35.483 24.1003 35.5816 24.2185 35.5816 24.4745C35.5785 27.1187 35.5785 29.7633 35.5816 32.4085C35.5816 32.731 35.472 32.8273 35.1245 32.8273C33.6111 32.8273 32.0978 32.8273 30.5845 32.8273C30.4101 32.8194 30.2392 32.8778 30.1062 32.9909C29.7148 33.3205 29.3008 33.632 28.8444 33.9905C28.8444 33.7157 28.8444 33.5036 28.8444 33.2915C28.8397 32.9713 28.7027 32.832 28.381 32.8312C27.6296 32.8312 26.8781 32.8312 26.1267 32.8312C25.7916 32.8312 25.6844 32.7326 25.6836 32.3991C25.6836 29.7542 25.6836 27.11 25.6836 24.4651C25.6789 24.199 25.801 24.1019 26.0554 24.1027V24.1003Z" fill="#050615"/>
<path d="M22.7538 37.516C24.8615 37.516 26.9702 37.516 29.08 37.516C31.1778 37.516 33.2759 37.516 35.3742 37.516C35.7068 37.516 35.872 37.3837 35.8744 37.1246C35.8767 36.8655 35.6841 36.7012 35.3609 36.7004H32.4333C29.2428 36.7004 26.0518 36.7004 22.8602 36.7004C22.7459 36.7004 22.6254 36.6738 22.5189 36.7426C22.3459 36.853 22.245 37.0041 22.2958 37.2084C22.3483 37.4377 22.5181 37.516 22.7538 37.516Z" fill="#050615"/>
<path d="M30.5117 40.9097C27.9359 40.9149 25.3601 40.9162 22.7843 40.9136C22.4806 40.9136 22.2911 41.0701 22.2849 41.3222C22.2778 41.5868 22.4461 41.7324 22.7694 41.7324C24.0568 41.7324 25.3447 41.7324 26.6331 41.7324C27.9215 41.7324 29.2094 41.7324 30.4968 41.7324C30.6346 41.7324 30.7708 41.7363 30.8804 41.6329C30.9412 41.5826 30.9847 41.5144 31.005 41.4381C31.0252 41.3617 31.021 41.281 30.9931 41.2071C30.9124 40.9973 30.7496 40.9089 30.5117 40.9097Z" fill="#050615"/>
<path d="M28.111 27.2074C28.3057 27.2175 28.5009 27.2175 28.6957 27.2074C28.8522 27.1956 28.9133 27.2543 28.9634 27.3952C29.2068 28.0826 29.5497 28.7305 29.981 29.3185C30.0679 29.4374 30.0647 29.5016 29.9622 29.6057C29.5748 30.0042 29.1338 30.3467 28.6519 30.6233C28.4436 30.7407 28.3168 30.8989 28.3842 31.1462C28.4515 31.3936 28.6464 31.4272 28.8679 31.4272C28.9838 31.4257 29.0967 31.3903 29.1927 31.3255C29.6679 31.0359 30.1045 30.6874 30.4921 30.2883C30.6181 30.1568 30.6823 30.1568 30.8052 30.2883C31.1961 30.684 31.6334 31.031 32.1077 31.3215C32.2079 31.3842 32.3042 31.4499 32.4302 31.4233C32.6424 31.4491 32.8036 31.3701 32.8639 31.1634C32.9242 30.9568 32.8545 30.7893 32.6494 30.6773C32.1555 30.4012 31.7031 30.0568 31.3054 29.6543C31.1911 29.5416 31.1896 29.4758 31.2851 29.3466C31.6167 28.8899 31.8924 28.3951 32.1062 27.8727C32.1962 27.6598 32.2158 27.3498 32.3731 27.2465C32.5484 27.1354 32.8427 27.2105 33.0862 27.2066C33.3891 27.2011 33.5762 27.0453 33.5801 26.7925C33.584 26.5397 33.4236 26.3925 33.0917 26.3863C32.4584 26.3737 31.8252 26.3565 31.1919 26.3542C31.0354 26.3542 30.9931 26.3048 31.0009 26.1546C31.0127 25.9409 31.0111 25.7256 31.0009 25.5111C31.0033 25.4561 30.9946 25.4012 30.9752 25.3497C30.9558 25.2981 30.9262 25.2511 30.8881 25.2113C30.85 25.1715 30.8043 25.1399 30.7537 25.1182C30.703 25.0966 30.6485 25.0854 30.5935 25.0854C30.5384 25.0854 30.4839 25.0966 30.4333 25.1182C30.3827 25.1399 30.3369 25.1715 30.2989 25.2113C30.2608 25.2511 30.2312 25.2981 30.2118 25.3497C30.1924 25.4012 30.1837 25.4561 30.1861 25.5111C30.1716 25.7157 30.1716 25.921 30.1861 26.1256C30.2033 26.3174 30.1266 26.3471 29.9512 26.3432C29.3368 26.3307 28.7223 26.3307 28.1071 26.333C27.8386 26.333 27.657 26.517 27.6601 26.7635C27.6587 26.8228 27.6694 26.8818 27.6916 26.9367C27.7139 26.9917 27.7472 27.0415 27.7894 27.0831C27.8317 27.1247 27.882 27.1572 27.9373 27.1786C27.9926 27.1999 28.0517 27.2097 28.111 27.2074ZM31.4299 27.2215C31.2351 27.7873 30.9618 28.3229 30.6181 28.8128C30.2641 28.3247 29.9808 27.7889 29.7767 27.2215H31.4299Z" fill="#050615"/>
</g>
<defs>
<clipPath id="clip0_6_2844">
<rect width="30" height="28.1245" fill="white" transform="translate(20 21)"/>
</clipPath>
</defs>
</svg>
