<svg xmlns="http://www.w3.org/2000/svg" viewBox="0 0 781.66 781.66"><defs><style>.cls-1{fill:#53225a;}.cls-2{fill:#fff;}.cls-3{fill:#f39122;}.cls-4{fill:#a02066;}.cls-5{fill:#231f20;}</style></defs><g id="Layer_2" data-name="Layer 2"><g id="Layer_1-2" data-name="Layer 1"><circle class="cls-1" cx="390.83" cy="390.83" r="390.83"/><circle class="cls-2" cx="390.83" cy="390.83" r="375.95"/><path d="M181.83,675.55l26-36.11,5.24,3.78-26.05,36.11Z"/><path d="M202.17,689.93l21.89-38.76,5.71,3.22L232.59,694l16.27-28.81,5.71,3.22-21.9,38.77L227,703.94l-2.8-39.62-16.28,28.84Z"/><path d="M268.43,722.54l13.62-42.39,16.66,5.35a13.55,13.55,0,0,1,6.24,3.82,11.57,11.57,0,0,1,2.76,5.58,12.3,12.3,0,0,1-.38,5.94,10.89,10.89,0,0,1-3.65,5.45,9,9,0,0,1-5.74,1.92l.41-1.46a11.24,11.24,0,0,1,5,5.91,11.39,11.39,0,0,1,0,7.45,14.3,14.3,0,0,1-3.57,6,11,11,0,0,1-5.72,2.92,15,15,0,0,1-7.37-.66Zm8.12-3.86,11.07,3.56a9.06,9.06,0,0,0,4,.41,6.46,6.46,0,0,0,3.35-1.44,6.74,6.74,0,0,0,2.1-3.24,7.47,7.47,0,0,0,.27-3.73,6.48,6.48,0,0,0-1.63-3.22,7.66,7.66,0,0,0-3.4-2.08l-11.45-3.68Zm6.18-19.22,10.33,3.32a7,7,0,0,0,3.3.3,5.63,5.63,0,0,0,2.82-1.3,6.23,6.23,0,0,0,1.83-2.91,5.66,5.66,0,0,0-.35-4.59,6.38,6.38,0,0,0-3.9-3L286.43,688Z"/><path d="M332.59,740.14a19.25,19.25,0,0,1-8.75-3.62,15.61,15.61,0,0,1-5.2-7,17.88,17.88,0,0,1-.73-9.38l4.59-27.73,6.47,1-4.54,27.43a12.18,12.18,0,0,0,.13,5.1,10.5,10.5,0,0,0,1.94,4,11.22,11.22,0,0,0,3.19,2.76,11.64,11.64,0,0,0,3.89,1.39,11.5,11.5,0,0,0,8.08-1.67,10.28,10.28,0,0,0,3.11-3.15,12.2,12.2,0,0,0,1.74-4.76l4.54-27.42,6.47,1.07L352.93,726a17.92,17.92,0,0,1-3.72,8.63,15.74,15.74,0,0,1-7.16,4.94A19.19,19.19,0,0,1,332.59,740.14Z"/><path d="M383.12,744.83a21.84,21.84,0,0,1-8.61-1.85,16.29,16.29,0,0,1-6.22-4.88,15.75,15.75,0,0,1-3.07-7.38l6.77-.87a10.55,10.55,0,0,0,4.12,6.45,12.85,12.85,0,0,0,7.52,2.45,14,14,0,0,0,5-.74,8.75,8.75,0,0,0,3.69-2.36,5.62,5.62,0,0,0,1.46-3.78,5.23,5.23,0,0,0-.36-2.15,5.45,5.45,0,0,0-1.11-1.65,6.78,6.78,0,0,0-1.74-1.24,13.56,13.56,0,0,0-2.25-.93L377,722.26a25,25,0,0,1-3.37-1.36,12.46,12.46,0,0,1-3.12-2.14,9.87,9.87,0,0,1-2.26-3.24,10.78,10.78,0,0,1-.79-4.64,11.33,11.33,0,0,1,2.28-6.92,13.13,13.13,0,0,1,5.83-4.2,21.44,21.44,0,0,1,8.13-1.28,21,21,0,0,1,8.05,1.79,15.43,15.43,0,0,1,5.83,4.58,16.21,16.21,0,0,1,3.1,7.07l-6.95,1a9.11,9.11,0,0,0-1.88-4.36,10.15,10.15,0,0,0-3.64-2.87,12,12,0,0,0-4.74-1.11,11.37,11.37,0,0,0-4.54.64,7.84,7.84,0,0,0-3.33,2.18,5,5,0,0,0-1.3,3.31,4.2,4.2,0,0,0,1,3,7.74,7.74,0,0,0,2.64,1.87,25,25,0,0,0,3.14,1.17l8.17,2.51c1,.31,2.18.72,3.48,1.24a16.3,16.3,0,0,1,3.75,2.11,10.26,10.26,0,0,1,3,3.52,10.89,10.89,0,0,1,1.08,5.42,12,12,0,0,1-5.32,10.07,17.15,17.15,0,0,1-5.51,2.45A24.22,24.22,0,0,1,383.12,744.83Z"/><path d="M416.35,743.09l-3.57-44.38,6.44-.52,3.58,44.38Z"/><path d="M441.2,740.86l-8.47-43.71,6.43-1.25L467,724.21l-6.3-32.48,6.44-1.24,8.47,43.71-6.44,1.24L441.33,707.1l6.3,32.51Z"/><path d="M493.55,729.09,479,687l26.88-9.31,2,5.76-20.77,7.19,4.09,11.8,17.26-6,2,5.76-17.27,6,4.5,13L518.43,714l2,5.75Z"/><path d="M548.77,707.82a21.83,21.83,0,0,1-8.48,2.37,16.28,16.28,0,0,1-7.78-1.42,15.63,15.63,0,0,1-6.15-5.11l5.58-3.91a10.62,10.62,0,0,0,6.65,3.79,12.88,12.88,0,0,0,7.8-1.34,14,14,0,0,0,4.05-3,8.75,8.75,0,0,0,2.16-3.81,5.64,5.64,0,0,0-.46-4,5.07,5.07,0,0,0-3.07-2.67,7.1,7.1,0,0,0-2.12-.29,15,15,0,0,0-2.43.22l-11.71,2.06a27.36,27.36,0,0,1-3.62.37,12.62,12.62,0,0,1-3.76-.45,9.81,9.81,0,0,1-3.51-1.81,10.76,10.76,0,0,1-2.86-3.74,11.41,11.41,0,0,1-1.21-7.18,13.12,13.12,0,0,1,3.21-6.43,21.69,21.69,0,0,1,6.6-4.93,20.86,20.86,0,0,1,8-2.15,15.37,15.37,0,0,1,7.29,1.33,16.43,16.43,0,0,1,6,4.81l-5.68,4.14a9.17,9.17,0,0,0-3.69-3,10.12,10.12,0,0,0-4.56-.84,11.84,11.84,0,0,0-4.71,1.22,11.55,11.55,0,0,0-3.73,2.68,8,8,0,0,0-1.93,3.48,5,5,0,0,0,.39,3.53,4.18,4.18,0,0,0,2.31,2.21,7.82,7.82,0,0,0,3.2.43,26.86,26.86,0,0,0,3.32-.43l8.4-1.59c1.05-.2,2.27-.37,3.66-.52a16.5,16.5,0,0,1,4.31.12,10.28,10.28,0,0,1,4.26,1.73A10.94,10.94,0,0,1,558,688a12,12,0,0,1,0,11.39,16.83,16.83,0,0,1-3.74,4.74A23.91,23.91,0,0,1,548.77,707.82Z"/><path d="M592.54,681.88a21.59,21.59,0,0,1-8,3.55,16.18,16.18,0,0,1-7.9-.28,15.68,15.68,0,0,1-6.82-4.17l5-4.68a10.64,10.64,0,0,0,7.13,2.8,12.91,12.91,0,0,0,7.52-2.44,13.8,13.8,0,0,0,3.58-3.52,8.72,8.72,0,0,0,1.6-4.07,5.68,5.68,0,0,0-1-3.93,5.18,5.18,0,0,0-1.56-1.51,5.24,5.24,0,0,0-1.86-.69,7.32,7.32,0,0,0-2.14,0,16.23,16.23,0,0,0-2.37.57l-11.3,3.72a24.29,24.29,0,0,1-3.53.88,12.26,12.26,0,0,1-3.78.1,9.56,9.56,0,0,1-3.73-1.29,10.78,10.78,0,0,1-3.37-3.29,11.33,11.33,0,0,1-2.22-6.94,13,13,0,0,1,2.25-6.82,21.46,21.46,0,0,1,5.82-5.82,20.9,20.9,0,0,1,7.57-3.27,15.4,15.4,0,0,1,7.4.27,16.18,16.18,0,0,1,6.67,3.9l-5,4.91a9.17,9.17,0,0,0-4.08-2.43,10.19,10.19,0,0,0-4.63-.17,12,12,0,0,0-4.49,1.88,11.58,11.58,0,0,0-3.3,3.19,8,8,0,0,0-1.41,3.72,5,5,0,0,0,.89,3.44,4.2,4.2,0,0,0,2.6,1.85,7.66,7.66,0,0,0,3.23,0,25.13,25.13,0,0,0,3.23-.91l8.08-2.77c1-.35,2.2-.69,3.55-1a16.57,16.57,0,0,1,4.28-.5,10.22,10.22,0,0,1,4.46,1.1,10.86,10.86,0,0,1,4.06,3.75,12.5,12.5,0,0,1,2.26,5.65,12.37,12.37,0,0,1-.64,5.62,16.93,16.93,0,0,1-3,5.23A24.1,24.1,0,0,1,592.54,681.88Z"/><path d="M146.71,218.6q-5.43,7.69-12.62,10.75A26.69,26.69,0,0,1,118.86,231a39.29,39.29,0,0,1-16-7,39.27,39.27,0,0,1-12-12.72,26.7,26.7,0,0,1-3.55-14.91q.45-7.78,5.87-15.5,6.25-8.86,14.86-11.54a28.37,28.37,0,0,1,17.8.41l-3.29,9a19.53,19.53,0,0,0-12.21-.63q-5.76,1.68-10.06,7.77a19.48,19.48,0,0,0-3.95,10.83,18.32,18.32,0,0,0,3,10.32,32.49,32.49,0,0,0,9,9.1A32.1,32.1,0,0,0,120,221.62a18.34,18.34,0,0,0,10.75-.64,19.48,19.48,0,0,0,8.88-7.38q4.3-6.1,3.92-12.1a19.64,19.64,0,0,0-4.68-11.28l7.36-6.12a28.43,28.43,0,0,1,6.37,16.62Q153,209.72,146.71,218.6Z"/><path d="M172.54,184.08l-42.76-46,29.39-27.33,5.85,6.3-22.71,21.11,12,12.91,18.88-17.55,5.85,6.29-18.88,17.55,13.21,14.22,22.72-21.11,5.85,6.29Z"/><path d="M216,146.44,182.15,93.52l7.68-4.91L219,134.29,243,119l4.63,7.24Z"/><path d="M259.72,120.18,236,62l37.16-15.17,3.25,8L247.67,66.54l6.66,16.31,23.87-9.74,3.25,8-23.87,9.74,7.34,18,28.71-11.72,3.25,8Z"/><path d="M312.55,100.32l-12-61.66L324.81,34a19.19,19.19,0,0,1,10.32.48,16.19,16.19,0,0,1,7.19,5,17.08,17.08,0,0,1,3.56,7.59,15.37,15.37,0,0,1-.8,9.22,12.71,12.71,0,0,1-5.78,6.28l-.5-2.08A15.87,15.87,0,0,1,349,64.39a16.21,16.21,0,0,1,5.08,9.21,20.16,20.16,0,0,1-.33,9.89A15.51,15.51,0,0,1,348.66,91a21.11,21.11,0,0,1-9.57,4.19Zm2-38.24,15-2.92a10,10,0,0,0,4.28-1.87,7.87,7.87,0,0,0,2.6-3.53,8.71,8.71,0,0,0,.29-4.83,8,8,0,0,0-3.55-5.45,9,9,0,0,0-6.87-1.06l-15,2.92ZM320,90l16.1-3.13a12.68,12.68,0,0,0,5.23-2.21,9.22,9.22,0,0,0,3.17-4.06,9.46,9.46,0,0,0,.39-5.43,10.52,10.52,0,0,0-2.2-4.79,9.13,9.13,0,0,0-4.2-2.88,10.87,10.87,0,0,0-5.62-.26l-16.66,3.23Z"/><path d="M371.9,90.44l1-62.8,25.38.41c.61,0,1.37,0,2.27.1a20.47,20.47,0,0,1,2.57.33,18.72,18.72,0,0,1,8.68,3.71,17,17,0,0,1,5.15,7,24.08,24.08,0,0,1,1.59,9.28,21.81,21.81,0,0,1-4.05,12.87q-3.93,5.37-11.62,6.59l-3.72.38L381.38,68,381,90.59Zm9.62-31,15.92.25c.58,0,1.23,0,1.94,0a14.19,14.19,0,0,0,2-.28A8.86,8.86,0,0,0,406,57a10.44,10.44,0,0,0,2.5-4,14.67,14.67,0,0,0,.15-9.23,10.49,10.49,0,0,0-2.37-4.09,8.81,8.81,0,0,0-4.46-2.49,10.63,10.63,0,0,0-2-.39c-.71-.07-1.36-.11-1.94-.11l-15.92-.26ZM408.62,91l-12-25.76,9.24-2.21,13.16,28.14Z"/><path d="M430.13,92.11l33.61-56.86,12.81,2.86,6.24,65.75-9.23-2.06-5.87-60,2.3.52L439.37,94.17Zm13.43-11.53,1.87-8.34,32,7.14-1.86,8.35Z"/><path d="M505.22,113.32l21.45-49.79-19.19-8.27,3.4-7.89L557.63,67.5l-3.4,7.9L535,67.13l-21.45,49.8Z"/><path d="M544.81,133.21,577.9,79.82l7.74,4.81L552.55,138Z"/><path d="M569.17,148.26l41.25-47.37,7,6.08-7.34,55.5,30.66-35.19,7,6.07-41.25,47.37-7-6.08,7.36-55.54-30.68,35.23Z"/><path d="M632.56,215.26a30,30,0,0,1-5.08-10.71,25.92,25.92,0,0,1-.25-11.26,29.74,29.74,0,0,1,4.72-11,40.43,40.43,0,0,1,9.85-9.88,38.34,38.34,0,0,1,16.31-7.3,27.09,27.09,0,0,1,15.15,1.69,29,29,0,0,1,12.14,9.95q6.52,8.94,6.25,17.32a25.74,25.74,0,0,1-6.18,15.66l-6.79-6.5a18.92,18.92,0,0,0,3.62-10.3,17,17,0,0,0-3.58-10.67,19,19,0,0,0-8.93-7.23,18.26,18.26,0,0,0-10.74-.4,33.6,33.6,0,0,0-11.54,5.6,32.28,32.28,0,0,0-8.89,9.18,18.21,18.21,0,0,0-2.84,10.36,19.77,19.77,0,0,0,4.1,10.8,18.62,18.62,0,0,0,7,6.29,15.29,15.29,0,0,0,8.52,1.37,25.82,25.82,0,0,0,9.69-3.45l-7.19-9.87,5.92-4.32,12.9,17.7c-.39.35-.92.8-1.6,1.33l-1.29,1a34.94,34.94,0,0,1-14.57,6.46,25.41,25.41,0,0,1-14.44-1.56A29.32,29.32,0,0,1,632.56,215.26Z"/><circle class="cls-1" cx="390.83" cy="390.83" r="284.91"/><circle class="cls-2" cx="390.83" cy="390.83" r="270.23"/><path d="M236.26,561.22V533.37l-23.38-40.59H228l14.83,25.76,14.83-25.76h15.11l-23.38,40.59v27.85Z"/><path d="M288.92,561.22V492.78H333.6v12.07H301.85v14.64h26v12.07h-26v17.59H333.6v12.07Z"/><path d="M349.76,561.22l20.92-68.44H390l20.92,68.44H397.58L379,500.86h2.47l-18.35,60.36ZM362.31,547V534.89h36.12V547Z"/><path d="M429,561.22V492.78h28.9c.66,0,1.56,0,2.68.07a22.89,22.89,0,0,1,3,.31,21.1,21.1,0,0,1,10.05,4,18.29,18.29,0,0,1,5.78,7.77,28,28,0,0,1,1.85,10.43A25,25,0,0,1,477,530.12q-4.29,6.11-13.41,7.53l-5.7.38h-16v23.19ZM441.88,526h15.4c.66,0,1.39,0,2.18-.1a11,11,0,0,0,2.19-.38,7.81,7.81,0,0,0,4-2.4,9.49,9.49,0,0,0,2-3.75,14.28,14.28,0,0,0,0-7.85,9.42,9.42,0,0,0-2-3.75,7.74,7.74,0,0,0-4-2.4,11,11,0,0,0-2.19-.38c-.79-.07-1.52-.1-2.18-.1h-15.4Zm25.66,35.26-13.49-27.85,13.3-2.57,14.83,30.42Z"/><path d="M528,562.65A33.71,33.71,0,0,1,514.29,560a25.53,25.53,0,0,1-10-7.7,25.12,25.12,0,0,1-5-12l13.5-2a15,15,0,0,0,5.9,9.08,17,17,0,0,0,10.17,3.19,19.6,19.6,0,0,0,6.18-1,12.34,12.34,0,0,0,4.92-3,6.58,6.58,0,0,0,1.92-4.8,6.51,6.51,0,0,0-.31-2,5.21,5.21,0,0,0-1-1.83,7.33,7.33,0,0,0-2-1.61,15.76,15.76,0,0,0-3.3-1.38l-17.78-5.23q-2-.57-4.63-1.62a20,20,0,0,1-5.11-3,15.4,15.4,0,0,1-4.12-5.16,17.78,17.78,0,0,1-1.63-8.1,18.34,18.34,0,0,1,3.47-11.46,20.7,20.7,0,0,1,9.26-6.8,35,35,0,0,1,12.84-2.18,33.65,33.65,0,0,1,12.64,2.42,24.33,24.33,0,0,1,9.32,6.78,27,27,0,0,1,5.41,10.86l-14,2.37a12.45,12.45,0,0,0-2.8-5.61,13.62,13.62,0,0,0-4.88-3.47,16.36,16.36,0,0,0-5.91-1.28,16.15,16.15,0,0,0-5.73.83,10.85,10.85,0,0,0-4.37,2.69,5.82,5.82,0,0,0-1.69,4.18,5,5,0,0,0,1.38,3.64,10.38,10.38,0,0,0,3.47,2.26,33.53,33.53,0,0,0,4.28,1.42l11.88,3.23c1.77.48,3.74,1.1,5.89,1.88a26.59,26.59,0,0,1,6.2,3.23,16.45,16.45,0,0,1,4.9,5.45,17.12,17.12,0,0,1,1.92,8.55,19.35,19.35,0,0,1-2.3,9.63,20.17,20.17,0,0,1-6.2,6.79,28.64,28.64,0,0,1-8.82,4A38.56,38.56,0,0,1,528,562.65Z"/><circle class="cls-2" cx="454.98" cy="334.59" r="110.34"/><circle cx="454.98" cy="334.59" r="106.14"/><path class="cls-3" d="M375,365.3l-3.4,1.26-.11-.32a3.7,3.7,0,0,0,1.71-1.79,2.89,2.89,0,0,0,.14-2.13,1.8,1.8,0,0,0-.83-1.08,1.32,1.32,0,0,0-1.1-.13,1.23,1.23,0,0,0-.56.37,2.8,2.8,0,0,0-.46.95,15,15,0,0,0-.33,1.95,7.83,7.83,0,0,1-.84,3,3.07,3.07,0,0,1-1.59,1.24,3.11,3.11,0,0,1-2.57-.25,3.79,3.79,0,0,1-1.8-2.24,4.82,4.82,0,0,1-.22-.95,7,7,0,0,1,0-1.21,1.72,1.72,0,0,0-.06-.65.76.76,0,0,0-.29-.37,1.15,1.15,0,0,0-.59-.2l-.09-.28,3.88-1.33.1.29a4.63,4.63,0,0,0-2.06,2.14,3.15,3.15,0,0,0-.16,2.34,2,2,0,0,0,.92,1.2,1.51,1.51,0,0,0,1.25.14,1.48,1.48,0,0,0,.64-.44A2.25,2.25,0,0,0,367,366a9.6,9.6,0,0,0,.33-1.67,13.16,13.16,0,0,1,.48-2.42,3.88,3.88,0,0,1,.76-1.32,3,3,0,0,1,1.21-.78,2.93,2.93,0,0,1,2.4.19,3.32,3.32,0,0,1,1.65,2,4.43,4.43,0,0,1,.21,1,5,5,0,0,1,0,1,2,2,0,0,0,0,.8.43.43,0,0,0,.22.27,1.48,1.48,0,0,0,.66,0Z"/><path class="cls-3" d="M370.89,375.85l-1.67-3.46-1.15.05a2.17,2.17,0,0,0-.88.17.71.71,0,0,0-.45.62,2.92,2.92,0,0,0,.29,1l-.27.13-1.56-3.26.26-.13a1.69,1.69,0,0,0,.86.66,6.69,6.69,0,0,0,1.88.13l9.5-.25.07.14-6.35,7.39a5.56,5.56,0,0,0-1,1.52,1.27,1.27,0,0,0,.08.82l-.27.13-2.28-4.74.27-.13.1.19a1.63,1.63,0,0,0,.54.73.43.43,0,0,0,.41,0,1,1,0,0,0,.25-.17s.18-.19.43-.48Zm.41-.5,2.68-3.08-4.1.12Z"/><path class="cls-3" d="M385,384.73l-.26.16a1.75,1.75,0,0,0-1.09-.57,10,10,0,0,0-2.13.14l-9,1.21-.14-.23,5.38-7.73a10.64,10.64,0,0,0,1.08-1.73,1.28,1.28,0,0,0-.16-.92l.25-.15,2.75,4.42-.25.16-.09-.15a1.8,1.8,0,0,0-.66-.72.37.37,0,0,0-.4,0,1,1,0,0,0-.25.23c-.09.11-.31.41-.67.92L376,384.63l5.22-.72c.63-.09,1.05-.16,1.25-.21a1.61,1.61,0,0,0,.47-.2.68.68,0,0,0,.3-.33.81.81,0,0,0,0-.47,2.8,2.8,0,0,0-.37-.85l.25-.15Z"/><path class="cls-3" d="M380.3,395.69l-.23.18-3.48-4.5.24-.18.22.28a1.55,1.55,0,0,0,.6.51.71.71,0,0,0,.5,0,3.33,3.33,0,0,0,.85-.54l5.67-4.37a3.75,3.75,0,0,0,.77-.71.89.89,0,0,0,.07-.51,1.62,1.62,0,0,0-.32-.67l-.22-.28.23-.18,3.48,4.5-.24.18-.22-.29a1.51,1.51,0,0,0-.6-.5.76.76,0,0,0-.5,0,3,3,0,0,0-.86.55l-5.66,4.37a3.25,3.25,0,0,0-.77.71.82.82,0,0,0-.07.51,1.5,1.5,0,0,0,.32.67Z"/><path class="cls-3" d="M391.35,392.28l-1.2,8.54,3.39-3.22a2.27,2.27,0,0,0,.77-1.11,1.56,1.56,0,0,0-.56-1.25l.21-.2,2.47,2.61-.21.2a2.73,2.73,0,0,0-.81-.51.85.85,0,0,0-.58,0,3,3,0,0,0-.88.65l-6.58,6.23-.18-.2,1.51-11.57-5,4.76a1.52,1.52,0,0,0-.62,1.18,1.56,1.56,0,0,0,.44.94l.17.19-.21.2L380.8,397l.22-.21a1.74,1.74,0,0,0,1.13.66,1.7,1.7,0,0,0,1.13-.59l5.58-5.27.05-.37a2.26,2.26,0,0,0,0-.84,1.8,1.8,0,0,0-.41-.65l.21-.21Z"/><path class="cls-3" d="M405.29,404.5l-2.4,3-.24-.19a4.83,4.83,0,0,0,.24-2.87,3.69,3.69,0,0,0-1.32-2.11,3,3,0,0,0-2-.74,3.71,3.71,0,0,0-2.09.78,9.95,9.95,0,0,0-3.27,4.12,3.17,3.17,0,0,0-.16,2.1,3.42,3.42,0,0,0,1.18,1.65,4.67,4.67,0,0,0,.68.44,5.61,5.61,0,0,0,.82.34l1.41-1.77a2.19,2.19,0,0,0,.45-.7.82.82,0,0,0-.07-.49,1.27,1.27,0,0,0-.43-.54l-.21-.18.18-.23,4.12,3.31-.18.23a2.16,2.16,0,0,0-.76-.39.76.76,0,0,0-.54.09,2.35,2.35,0,0,0-.53.54l-1.41,1.76a10.16,10.16,0,0,1-2.13-.81,11.64,11.64,0,0,1-2-1.28,6.82,6.82,0,0,1-1.75-1.94,6.51,6.51,0,0,1-.71-2,5.21,5.21,0,0,1,0-2,5.29,5.29,0,0,1,1.12-2.28,5.55,5.55,0,0,1,3.94-2.16,6,6,0,0,1,4.44,1.4,8,8,0,0,1,1.06,1,8.1,8.1,0,0,1,.66,1,5.28,5.28,0,0,0,.54.82.63.63,0,0,0,.43.13,1.37,1.37,0,0,0,.66-.26Z"/><path class="cls-3" d="M418.86,412.73l-.14.26a1.6,1.6,0,0,0-.88-.12,8.26,8.26,0,0,0-2,1l-4,2.32-1.26,2.31a3.44,3.44,0,0,0-.43,1,.83.83,0,0,0,.13.48,1.36,1.36,0,0,0,.54.48l.53.29-.14.26L405.91,418l.14-.26.5.27a1.5,1.5,0,0,0,.75.22.79.79,0,0,0,.47-.18,3.54,3.54,0,0,0,.56-.85l1.05-1.91V410a7,7,0,0,0-.16-1.95,1.34,1.34,0,0,0-.61-.62l.14-.26,4.58,2.51-.15.26-.2-.12a1.17,1.17,0,0,0-.65-.19.37.37,0,0,0-.3.16,4.89,4.89,0,0,0-.14,1.58v4.1l3.29-1.94a4.48,4.48,0,0,0,1.41-1,.45.45,0,0,0,0-.42,1.9,1.9,0,0,0-.77-.69l.15-.26Z"/><path class="cls-3" d="M424.51,414.74a5.41,5.41,0,0,1,3.41,2.91A5.47,5.47,0,0,1,428,422a5.83,5.83,0,0,1-2.43,3,5.43,5.43,0,0,1-5,.34,5.51,5.51,0,0,1-3.53-3.48,5.73,5.73,0,0,1,.14-3.93,5.41,5.41,0,0,1,3-3.19A5.23,5.23,0,0,1,424.51,414.74Zm-.09.51a2.44,2.44,0,0,0-2.66.62,8,8,0,0,0-1.87,3.13,7,7,0,0,0-.55,4.2,2.5,2.5,0,0,0,2.89,1.66,3.26,3.26,0,0,0,1.61-1.14,9.19,9.19,0,0,0,1.41-2.61A9.73,9.73,0,0,0,426,418a3.21,3.21,0,0,0-.42-1.78A2.42,2.42,0,0,0,424.42,415.25Z"/><path class="cls-3" d="M430.34,417.06l5.48,1.26-.07.28-.27-.06a2,2,0,0,0-.88-.06.74.74,0,0,0-.41.28,3.78,3.78,0,0,0-.36,1.11l-1.19,5.19a5.6,5.6,0,0,0-.21,1.93,1.84,1.84,0,0,0,.53.93,2.32,2.32,0,0,0,1.17.59,2.72,2.72,0,0,0,1.56-.05,2.44,2.44,0,0,0,1.15-.86,6.58,6.58,0,0,0,.84-2.3l1-4.32a2.62,2.62,0,0,0,.09-1.05,1,1,0,0,0-.28-.51,2.27,2.27,0,0,0-1-.41l.07-.29,3.67.84-.07.29-.22-.05a1.37,1.37,0,0,0-.78,0,1,1,0,0,0-.55.44,2.64,2.64,0,0,0-.31.88l-.92,4a10.35,10.35,0,0,1-.87,2.64A3,3,0,0,1,436,429a4.4,4.4,0,0,1-2.77.1,5.14,5.14,0,0,1-2-.85,3.18,3.18,0,0,1-1.15-1.61,4.48,4.48,0,0,1,.06-2.2l1.18-5.19a3.58,3.58,0,0,0,.16-1.16.74.74,0,0,0-.27-.44,2.17,2.17,0,0,0-.89-.34Z"/><path class="cls-3" d="M455,420.6l-.16,2.94-.29,0a4.49,4.49,0,0,0-.49-1.49,2.16,2.16,0,0,0-.82-.76,2.52,2.52,0,0,0-1.05-.2l-.81-.05-.47,8.38a3.15,3.15,0,0,0,0,1,.77.77,0,0,0,.34.39,1.5,1.5,0,0,0,.72.2l.36,0v.29l-5.69-.31,0-.3.36,0a1.41,1.41,0,0,0,.77-.13.76.76,0,0,0,.35-.36,3.62,3.62,0,0,0,.14-1l.47-8.37-.79-.05a2.3,2.3,0,0,0-1.62.38,3,3,0,0,0-1,1.8l-.31,0,.17-2.94Z"/><path class="cls-3" d="M461.65,430.85v.3l-5.68.22v-.29l.36,0a1.49,1.49,0,0,0,.76-.2.76.76,0,0,0,.3-.39,3.5,3.5,0,0,0,.05-1l-.28-7.15a3.57,3.57,0,0,0-.13-1,.75.75,0,0,0-.37-.35,1.43,1.43,0,0,0-.73-.13h-.36v-.29l5.68-.23v.3h-.36a1.49,1.49,0,0,0-.76.2.76.76,0,0,0-.31.4,3.46,3.46,0,0,0-.05,1l.28,7.15a3.2,3.2,0,0,0,.14,1,.84.84,0,0,0,.37.35,1.43,1.43,0,0,0,.73.13Z"/><path class="cls-3" d="M470.05,426.42l1.77-7.55,4.37-.71,0,.29-.34.06a1.53,1.53,0,0,0-.74.29.73.73,0,0,0-.25.42,3.07,3.07,0,0,0,.07,1l1.15,7.07a3.39,3.39,0,0,0,.25,1,.78.78,0,0,0,.41.3,1.51,1.51,0,0,0,.75,0l.35-.06.05.29-5.61.91-.05-.29.35-.06a1.4,1.4,0,0,0,.73-.29.74.74,0,0,0,.26-.43,3.2,3.2,0,0,0-.08-1l-1.28-8-2.53,10.46-.19,0-5.76-9.05,1.22,7.56a8.73,8.73,0,0,0,.2,1,1.17,1.17,0,0,0,.55.57,2,2,0,0,0,1.13.08l0,.29-3.67.59-.05-.29.11,0a1.57,1.57,0,0,0,.65-.22,1.12,1.12,0,0,0,.41-.4,1.35,1.35,0,0,0,.15-.62,5.77,5.77,0,0,0-.11-.81l-1.1-6.79a3.63,3.63,0,0,0-.25-1,.88.88,0,0,0-.42-.3,1.48,1.48,0,0,0-.74,0l-.34.05-.05-.29,4.39-.71Z"/><path class="cls-3" d="M480.34,417.32l1.34,4.22.21-.07a1.75,1.75,0,0,0,1.23-1.07,4,4,0,0,0,0-2l.29-.09,1.73,5.42-.29.09a4.12,4.12,0,0,0-.85-1.32,1.72,1.72,0,0,0-.92-.55,2.86,2.86,0,0,0-1.2.17l.93,2.92a4.62,4.62,0,0,0,.41,1,.67.67,0,0,0,.37.23,1.36,1.36,0,0,0,.68-.08l.62-.2a3.53,3.53,0,0,0,2.72-3.86l.28-.09.58,3.44-8.95,2.85-.09-.28.34-.11a1.44,1.44,0,0,0,.68-.39.74.74,0,0,0,.19-.46,3.52,3.52,0,0,0-.23-1l-2.17-6.82a5.84,5.84,0,0,0-.31-.85.77.77,0,0,0-.42-.32,1.36,1.36,0,0,0-.86,0l-.34.11-.1-.29,8.68-2.76,1,3.06-.29.09a3.85,3.85,0,0,0-1.13-1.41,2.47,2.47,0,0,0-1.37-.36,6.54,6.54,0,0,0-1.64.38Z"/><path class="cls-3" d="M499.8,413l2.94-1.58.15.28a1.84,1.84,0,0,0-.62.71,4.26,4.26,0,0,0-.18,1.43,14.23,14.23,0,0,1-.3,2.5,8,8,0,0,0,1.66.27,1.47,1.47,0,0,0,.72-.15,1.35,1.35,0,0,0,.58-1.2h.37a5,5,0,0,1-.37,2.28,2.14,2.14,0,0,1-.95,1,2.71,2.71,0,0,1-1.17.33,6.09,6.09,0,0,1-1.69-.24,8.6,8.6,0,0,1-1.2,1.75,5.87,5.87,0,0,1-1.48,1.13,3.44,3.44,0,0,1-2.52.42A2.55,2.55,0,0,1,494,420.6a3,3,0,0,1-.24-2.26,7.25,7.25,0,0,1,1.47-2.53,5.9,5.9,0,0,1-.75-.75,5,5,0,0,1-.55-.8,2.8,2.8,0,0,1-.22-2.31,3.21,3.21,0,0,1,1.63-1.84,2.63,2.63,0,0,1,1.85-.35,1.69,1.69,0,0,1,1.21.85,2.07,2.07,0,0,1,.13,1.69,6.25,6.25,0,0,1-1.33,2.05,18.36,18.36,0,0,0,4,1.78,3.78,3.78,0,0,0,0-2.56.73.73,0,0,0-.47-.39,1,1,0,0,0-.74.07Zm-3,1.09a2.57,2.57,0,0,0,.68-1.13,1.28,1.28,0,0,0-.15-.89,2.45,2.45,0,0,0-1.13-1.12.94.94,0,0,0-.88,0,.83.83,0,0,0-.42.56,1.13,1.13,0,0,0,.14.84,2.81,2.81,0,0,0,.51.68A14.55,14.55,0,0,0,496.76,414.06Zm-1.06,2.09a2.57,2.57,0,0,0-.52.94,1.54,1.54,0,0,0,.14,1.06,2.88,2.88,0,0,0,1.1,1.12,3.48,3.48,0,0,0,1.47.52,2.22,2.22,0,0,0,1.28-.23,1.9,1.9,0,0,0,.54-.44,4.18,4.18,0,0,0,.55-.74A15.63,15.63,0,0,1,495.7,416.15Z"/><path class="cls-3" d="M515,405.72l-2.36-7.38,3.39-2.85.19.22-.27.23a1.45,1.45,0,0,0-.48.62.71.71,0,0,0,0,.5,3,3,0,0,0,.57.82l4.62,5.49a4,4,0,0,0,.74.74.85.85,0,0,0,.51,0,1.34,1.34,0,0,0,.66-.35l.27-.23.19.23-4.34,3.66-.19-.23.27-.22a1.47,1.47,0,0,0,.48-.63.77.77,0,0,0,0-.5,3.2,3.2,0,0,0-.59-.83l-5.19-6.16,3.2,10.27-.14.12-9.59-4.8,4.94,5.86a8.12,8.12,0,0,0,.66.73,1.17,1.17,0,0,0,.77.21,2,2,0,0,0,1-.52l.19.23-2.84,2.4-.19-.23.08-.07a1.65,1.65,0,0,0,.44-.52,1.05,1.05,0,0,0,.15-.56,1.51,1.51,0,0,0-.19-.61s-.2-.27-.51-.64L507,405.5a3.31,3.31,0,0,0-.73-.73.77.77,0,0,0-.51,0,1.42,1.42,0,0,0-.66.35l-.26.22-.19-.23,3.4-2.86Z"/><path class="cls-3" d="M519.75,390.74a5.39,5.39,0,0,1,8-.78,5.83,5.83,0,0,1,2,3.3,5.41,5.41,0,0,1-1.39,4.79,5.52,5.52,0,0,1-4.48,2.13,5.79,5.79,0,0,1-3.65-1.49,5.4,5.4,0,0,1-2-3.89A5.22,5.22,0,0,1,519.75,390.74Zm.45.26a2.46,2.46,0,0,0-.34,2.72,8.24,8.24,0,0,0,2.3,2.83,7,7,0,0,0,3.75,2,2.51,2.51,0,0,0,2.56-2.14,3.35,3.35,0,0,0-.52-1.91,9.06,9.06,0,0,0-2-2.22,9.87,9.87,0,0,0-2.7-1.81,3.11,3.11,0,0,0-1.81-.22A2.41,2.41,0,0,0,520.2,391Z"/><path class="cls-3" d="M526,383l8.58-.81-3.92-2.56a2.26,2.26,0,0,0-1.26-.48,1.53,1.53,0,0,0-1.08.83l-.25-.16,2-3,.25.16a2.94,2.94,0,0,0-.32.9,1,1,0,0,0,.19.56,2.89,2.89,0,0,0,.83.71l7.59,4.94-.15.23-11.6,1.22,5.79,3.77a1.53,1.53,0,0,0,1.3.33,1.55,1.55,0,0,0,.81-.64l.14-.21.25.16L533,392.13l-.25-.16a1.35,1.35,0,0,0-.46-2.22l-6.43-4.19-.37,0a2,2,0,0,0-.81.2,1.88,1.88,0,0,0-.54.55l-.25-.16Z"/><path class="cls-3" d="M532.46,373.11l4,1.92.09-.19a1.67,1.67,0,0,0,.07-1.63,3.9,3.9,0,0,0-1.46-1.37l.13-.28,5.12,2.48-.13.28a4.35,4.35,0,0,0-1.55-.3,1.7,1.7,0,0,0-1,.3,2.71,2.71,0,0,0-.7,1l2.76,1.33a4.4,4.4,0,0,0,1,.41.67.67,0,0,0,.42-.11,1.28,1.28,0,0,0,.41-.55l.28-.59a3.82,3.82,0,0,0,.43-2.5,3.89,3.89,0,0,0-1.36-2.13l.13-.26,2.9,1.94-4.09,8.46-.27-.13.16-.32a1.7,1.7,0,0,0,.18-.76.77.77,0,0,0-.21-.46,3.34,3.34,0,0,0-.87-.52L532.43,376a4.38,4.38,0,0,0-.84-.36.73.73,0,0,0-.51.08,1.32,1.32,0,0,0-.57.65l-.16.33-.26-.13,4-8.2,2.9,1.4-.14.28a3.88,3.88,0,0,0-1.81-.15,2.4,2.4,0,0,0-1.19.74,6.52,6.52,0,0,0-.87,1.46Z"/><path class="cls-3" d="M538.26,356.4l.28.09a1.59,1.59,0,0,0,0,.88,8.58,8.58,0,0,0,1.34,1.79l3,3.48,2.49.84a3.7,3.7,0,0,0,1,.25.94.94,0,0,0,.45-.22,1.33,1.33,0,0,0,.37-.61l.19-.58.28.1-1.93,5.79-.29-.1.18-.54a1.46,1.46,0,0,0,.09-.77.85.85,0,0,0-.26-.44,3.71,3.71,0,0,0-.93-.4l-2.07-.69-5.23.94a6.91,6.91,0,0,0-1.88.51,1.34,1.34,0,0,0-.51.71l-.28-.09,1.65-4.95.28.1-.07.22a1.14,1.14,0,0,0-.08.67.38.38,0,0,0,.21.27,4.87,4.87,0,0,0,1.58-.15l4-.72-2.49-2.9a4.46,4.46,0,0,0-1.28-1.2.45.45,0,0,0-.41.09,2,2,0,0,0-.54.87l-.29-.09Z"/><path class="cls-2" d="M365.13,307.05l3.82,1.26a4.57,4.57,0,0,0,1.44.33,1.06,1.06,0,0,0,.61-.33,3.45,3.45,0,0,0,.6-1.22l.37.12-2.31,7-.37-.12a3.34,3.34,0,0,0,.25-1.34,1.11,1.11,0,0,0-.31-.62,4,4,0,0,0-1.34-.6L359,308.58a4.4,4.4,0,0,0-1.44-.32,1.06,1.06,0,0,0-.61.33,3.23,3.23,0,0,0-.59,1.22l-.38-.13,2.1-6.33a14.41,14.41,0,0,1,1.54-3.51,3.79,3.79,0,0,1,1.88-1.45,3.5,3.5,0,0,1,2.39,0,3.39,3.39,0,0,1,2.14,1.91,4.73,4.73,0,0,1,.29,2.25l5.7-1.75a8.12,8.12,0,0,0,1.42-.55,1.83,1.83,0,0,0,.66-.84l.37.12-1.42,4.29-7.67,2.34Zm-6.69-2.21,6,2,.19-.57a6.68,6.68,0,0,0,.44-2.18,2.18,2.18,0,0,0-.57-1.39,3.46,3.46,0,0,0-1.61-1,3.36,3.36,0,0,0-2.54,0,3.3,3.3,0,0,0-1.52,2.1Z"/><path class="cls-2" d="M377.62,292.91l.35.17-3.28,6.76-.36-.17.21-.43a1.85,1.85,0,0,0,.24-1,1,1,0,0,0-.27-.61,4.62,4.62,0,0,0-1.15-.69l-8.5-4.13a4.72,4.72,0,0,0-1.28-.49,1,1,0,0,0-.64.21,1.91,1.91,0,0,0-.61.77l-.21.43-.35-.17,3.28-6.76.36.17-.21.43a2.06,2.06,0,0,0-.24,1,1,1,0,0,0,.27.61,4.48,4.48,0,0,0,1.14.69l8.5,4.13a4.62,4.62,0,0,0,1.29.49,1,1,0,0,0,.64-.22,1.91,1.91,0,0,0,.61-.77Z"/><path class="cls-2" d="M373.85,272.29l4.2,2.82-.21.33a6.4,6.4,0,0,0-3.81,0,5,5,0,0,0-2.63,2,4,4,0,0,0-.74,2.73,4.84,4.84,0,0,0,1.25,2.66,12.73,12.73,0,0,0,2.51,2.23,11.81,11.81,0,0,0,3.28,1.61,4.15,4.15,0,0,0,2.77,0,4.53,4.53,0,0,0,2-1.74,5.24,5.24,0,0,0,.5-.94,8.49,8.49,0,0,0,.36-1.11l-2.48-1.67a3.33,3.33,0,0,0-1-.51,1,1,0,0,0-.64.15,1.76,1.76,0,0,0-.66.62l-.21.31-.32-.22,3.89-5.79.33.21a3.13,3.13,0,0,0-.44,1,1.11,1.11,0,0,0,.18.71,2.93,2.93,0,0,0,.77.63L385.3,280a14.1,14.1,0,0,1-.83,2.9,14.46,14.46,0,0,1-1.47,2.73,8.84,8.84,0,0,1-2.35,2.51,8.41,8.41,0,0,1-2.54,1.16,6.82,6.82,0,0,1-2.6.21,7.32,7.32,0,0,1-3.13-1.21,7.41,7.41,0,0,1-3.27-4.95,7.86,7.86,0,0,1,1.34-6,7.93,7.93,0,0,1,2.46-2.49,6.62,6.62,0,0,0,1-.8.82.82,0,0,0,.12-.58,1.8,1.8,0,0,0-.42-.84Z"/><path class="cls-2" d="M386,270.31l3.17,3.12a4.27,4.27,0,0,0,1.07.88,1.12,1.12,0,0,0,.68,0,2,2,0,0,0,.81-.54l.34-.34.28.27L387,279.06l-.28-.28.33-.34a2,2,0,0,0,.55-.87,1,1,0,0,0-.07-.66,4.79,4.79,0,0,0-.87-1L380,269.27a5.12,5.12,0,0,0-1.06-.88,1.12,1.12,0,0,0-.68,0,1.87,1.87,0,0,0-.82.54l-.33.34-.28-.27,5.26-5.36.28.27-.33.34a1.91,1.91,0,0,0-.55.88,1,1,0,0,0,.06.66,4.33,4.33,0,0,0,.87,1l2.9,2.85,3.56-3.62-2.91-2.85a4.56,4.56,0,0,0-1.06-.88,1.12,1.12,0,0,0-.68,0,2.07,2.07,0,0,0-.82.54l-.33.34-.28-.28,5.26-5.35.28.28-.33.33a1.94,1.94,0,0,0-.55.87,1.13,1.13,0,0,0,.06.67,4.79,4.79,0,0,0,.87,1l6.74,6.62a4.75,4.75,0,0,0,1.07.88,1.12,1.12,0,0,0,.68,0,2,2,0,0,0,.82-.55l.33-.33.27.28L393,273l-.28-.28.33-.33a1.91,1.91,0,0,0,.54-.87,1.05,1.05,0,0,0-.05-.67,4.65,4.65,0,0,0-.88-1l-3.17-3.12Z"/><path class="cls-2" d="M400.9,248.15l2.27,3.16-.31.22a5.83,5.83,0,0,0-1.74-1.13,2.85,2.85,0,0,0-1.46-.1,3.53,3.53,0,0,0-1.26.66l-.87.63,6.47,9a4.67,4.67,0,0,0,.9,1,1.14,1.14,0,0,0,.67.12,1.94,1.94,0,0,0,.9-.4l.39-.28.23.32L401,265.78l-.23-.32.39-.28a2,2,0,0,0,.69-.77,1,1,0,0,0,.06-.66,4.56,4.56,0,0,0-.69-1.16l-6.46-9-.85.6a3.06,3.06,0,0,0-1.35,1.73,4.09,4.09,0,0,0,.48,2.67l-.33.23-2.26-3.15Z"/><path class="cls-2" d="M416.39,248.5l1.72,4.1a4.41,4.41,0,0,0,.64,1.23,1.15,1.15,0,0,0,.62.26,2,2,0,0,0,1-.18l.44-.19.15.37L414,257l-.15-.36.44-.19a2.06,2.06,0,0,0,.84-.59,1,1,0,0,0,.2-.63,4.58,4.58,0,0,0-.41-1.28l-3.64-8.72a4.49,4.49,0,0,0-.63-1.22,1.11,1.11,0,0,0-.63-.27,2,2,0,0,0-1,.18l-.44.18-.15-.36,6.93-2.89.15.36-.44.19a2,2,0,0,0-.84.59,1,1,0,0,0-.21.64,4.55,4.55,0,0,0,.41,1.27l1.57,3.76,4.68-2-1.57-3.75a4.41,4.41,0,0,0-.64-1.23,1.08,1.08,0,0,0-.62-.26,2,2,0,0,0-1,.18l-.43.18-.15-.36,6.92-2.89.15.36-.43.18a1.94,1.94,0,0,0-.84.6,1,1,0,0,0-.21.63,4.58,4.58,0,0,0,.41,1.28l3.64,8.72a4.81,4.81,0,0,0,.63,1.23,1.18,1.18,0,0,0,.63.26,2.05,2.05,0,0,0,1-.18l.43-.18.15.36-6.92,2.89-.15-.37.43-.18a1.93,1.93,0,0,0,.84-.59,1,1,0,0,0,.21-.63,4.48,4.48,0,0,0-.41-1.28l-1.71-4.11Z"/><path class="cls-2" d="M432.82,243.27l.86,3.93a4.12,4.12,0,0,0,.45,1.4,1.06,1.06,0,0,0,.59.37,3.59,3.59,0,0,0,1.36-.12l.08.39L429,250.81l-.08-.39a3.39,3.39,0,0,0,1.28-.47,1.09,1.09,0,0,0,.38-.57,4.56,4.56,0,0,0-.17-1.46l-2-9.11a4.39,4.39,0,0,0-.46-1.4,1,1,0,0,0-.59-.36,3.3,3.3,0,0,0-1.35.11l-.09-.39,6.52-1.42a14.73,14.73,0,0,1,3.8-.46,3.76,3.76,0,0,1,2.21.88,3.48,3.48,0,0,1,1.23,2,3.4,3.4,0,0,1-.55,2.81,4.8,4.8,0,0,1-1.79,1.4l4.41,4a7.52,7.52,0,0,0,1.19,1,1.82,1.82,0,0,0,1.06.13l.09.39-4.42,1-5.92-5.4Zm-1.51-6.88,1.35,6.14.59-.13a6.75,6.75,0,0,0,2.09-.73,2.23,2.23,0,0,0,.92-1.2,3.59,3.59,0,0,0,0-1.88,3.34,3.34,0,0,0-1.26-2.21,3.39,3.39,0,0,0-2.59-.24Z"/><path class="cls-2" d="M458.52,232.45l.19,4.78h-.43a4.84,4.84,0,0,0-1.56-2.87,3.74,3.74,0,0,0-2.61-1.05,2.42,2.42,0,0,0-1.7.6,1.73,1.73,0,0,0-.61,1.34,1.55,1.55,0,0,0,.23.84,3.57,3.57,0,0,0,1,1,21.64,21.64,0,0,0,2.32,1.2,10.13,10.13,0,0,1,3.44,2.29,4,4,0,0,1,.91,2.51,4.08,4.08,0,0,1-1.35,3.12,5.06,5.06,0,0,1-3.55,1.35,5.3,5.3,0,0,1-1.28-.12,9.56,9.56,0,0,1-1.52-.49,2.28,2.28,0,0,0-.84-.2,1,1,0,0,0-.58.22,1.55,1.55,0,0,0-.49.66h-.39l-.09-5.42H450a6.25,6.25,0,0,0,1.85,3.46,4.22,4.22,0,0,0,2.89,1.15,2.67,2.67,0,0,0,1.88-.68,1.93,1.93,0,0,0,.39-2.49,3,3,0,0,0-.83-.89,12.45,12.45,0,0,0-2-1.09,16,16,0,0,1-2.84-1.6,5.1,5.1,0,0,1-1.35-1.49,3.79,3.79,0,0,1-.49-1.83,3.9,3.9,0,0,1,1.22-2.95,4.43,4.43,0,0,1,3.15-1.26,6.1,6.1,0,0,1,1.36.15,7,7,0,0,1,1.22.45,2.78,2.78,0,0,0,1,.33.54.54,0,0,0,.43-.18,1.88,1.88,0,0,0,.28-.82Z"/><path class="cls-2" d="M470.63,233.84a7.13,7.13,0,0,1,6.51,8.42,7.67,7.67,0,0,1-2.32,4.51,7.08,7.08,0,0,1-6.33,1.8,7.21,7.21,0,0,1-5.52-3.51,7.55,7.55,0,0,1-.91-5.12,7.2,7.2,0,0,1,3-4.94A6.94,6.94,0,0,1,470.63,233.84Zm0,.69a3.24,3.24,0,0,0-3.27,1.53,10.65,10.65,0,0,0-1.55,4.56,9.2,9.2,0,0,0,.44,5.57,3,3,0,0,0,2.31,1.6,3.06,3.06,0,0,0,1.88-.25,4.32,4.32,0,0,0,1.76-1.92,11.79,11.79,0,0,0,1.11-3.75,13.09,13.09,0,0,0,.13-4.3,4.16,4.16,0,0,0-1-2.18A3.15,3.15,0,0,0,470.65,234.53Z"/><path class="cls-2" d="M490.79,249.11l-2.13,4.6-12.07-4.09.12-.37.45.15a2,2,0,0,0,1,.11,1,1,0,0,0,.56-.34,4.39,4.39,0,0,0,.54-1.23l3-8.95a5,5,0,0,0,.33-1.34,1.1,1.1,0,0,0-.29-.61,2,2,0,0,0-.85-.5l-.45-.15.13-.37,7.25,2.46-.12.37-.6-.2a2,2,0,0,0-1-.12,1,1,0,0,0-.58.35,4.54,4.54,0,0,0-.53,1.22l-2.94,8.67a4.32,4.32,0,0,0-.33,1.37.84.84,0,0,0,.32.59,5.78,5.78,0,0,0,1.19.5l1.13.38a4,4,0,0,0,1.94.23,3.52,3.52,0,0,0,1.65-.78,9.85,9.85,0,0,0,1.82-2.09Z"/><path class="cls-2" d="M496.66,241.46l6.53,3.51-.18.34-.33-.17a2.44,2.44,0,0,0-1.1-.39,1,1,0,0,0-.62.21,5.49,5.49,0,0,0-.84,1.29l-3.33,6.2a6.93,6.93,0,0,0-1,2.38,2.4,2.4,0,0,0,.35,1.37,3.14,3.14,0,0,0,1.29,1.16,3.57,3.57,0,0,0,2,.48,3.25,3.25,0,0,0,1.77-.69,8.73,8.73,0,0,0,1.88-2.63l2.77-5.16a3.35,3.35,0,0,0,.48-1.31,1.23,1.23,0,0,0-.18-.75,3.09,3.09,0,0,0-1.07-.85l.19-.34,4.37,2.35-.18.35-.26-.15a2,2,0,0,0-1-.26,1.39,1.39,0,0,0-.86.37,3.69,3.69,0,0,0-.7,1l-2.59,4.8a13.68,13.68,0,0,1-2,3.06,4,4,0,0,1-2.41,1.05,5.79,5.79,0,0,1-3.55-.84,6.7,6.7,0,0,1-2.3-1.8,4.19,4.19,0,0,1-.91-2.46,6,6,0,0,1,.85-2.78l3.33-6.19a5.27,5.27,0,0,0,.61-1.43,1.09,1.09,0,0,0-.19-.65,3.08,3.08,0,0,0-1-.74Z"/><path class="cls-2" d="M522.32,258l-2.38,3.08-.3-.24a6.11,6.11,0,0,0,.59-2,2.89,2.89,0,0,0-.32-1.43,3.66,3.66,0,0,0-1-1l-.85-.66-6.78,8.76a4.26,4.26,0,0,0-.74,1.16,1.12,1.12,0,0,0,.08.68,1.86,1.86,0,0,0,.64.75l.38.3-.24.31-5.95-4.61.24-.31.38.29a1.83,1.83,0,0,0,.93.44,1,1,0,0,0,.65-.13,4.38,4.38,0,0,0,.91-1l6.78-8.76-.82-.63a3,3,0,0,0-2-.81,4.09,4.09,0,0,0-2.42,1.23l-.32-.25,2.38-3.08Z"/><path class="cls-2" d="M519.6,275.06l-.28.28L514,270l.28-.27.34.33a2,2,0,0,0,.86.56,1,1,0,0,0,.66-.06,4.51,4.51,0,0,0,1-.87l6.67-6.69a5,5,0,0,0,.89-1,1.11,1.11,0,0,0,0-.68,1.87,1.87,0,0,0-.54-.82l-.34-.34.28-.28,5.32,5.31-.28.27-.33-.33a2.06,2.06,0,0,0-.87-.56,1,1,0,0,0-.67.06,4.1,4.1,0,0,0-1,.86l-6.67,6.69a4.56,4.56,0,0,0-.88,1.06,1,1,0,0,0,0,.68,1.84,1.84,0,0,0,.53.82Z"/><path class="cls-2" d="M536.25,273a7.13,7.13,0,0,1-1.18,10.58,7.68,7.68,0,0,1-4.8,1.63,7.11,7.11,0,0,1-5.81-3.11,7.27,7.27,0,0,1-1.53-6.36,7.59,7.59,0,0,1,2.92-4.31,7.18,7.18,0,0,1,5.56-1.49A7,7,0,0,1,536.25,273Zm-.47.51a3.21,3.21,0,0,0-3.41-1.17,10.65,10.65,0,0,0-4.29,2.2c-2,1.48-3.14,2.91-3.55,4.31a3,3,0,0,0,.54,2.75,3,3,0,0,0,1.53,1.13,4.39,4.39,0,0,0,2.6-.15,12.15,12.15,0,0,0,3.41-1.93,12.82,12.82,0,0,0,3.07-3,4.15,4.15,0,0,0,.78-2.28A3.19,3.19,0,0,0,535.78,273.53Z"/><path class="cls-2" d="M544.66,286.41l-4.74,10.35,5.51-2.79a3,3,0,0,0,1.39-1.12,2,2,0,0,0-.25-1.79l.35-.18,2.15,4.23-.35.18a3.62,3.62,0,0,0-.82-1,1.24,1.24,0,0,0-.76-.16,4.34,4.34,0,0,0-1.36.5l-10.66,5.41-.16-.32,6.26-14.07-8.14,4.13q-1.11.56-1.23,1.26a2,2,0,0,0,.2,1.36l.15.3-.35.18-2.31-4.55.35-.17a2.36,2.36,0,0,0,1.18,1.25,2.28,2.28,0,0,0,1.66-.32l9-4.59.2-.45a3,3,0,0,0,.31-1,2.5,2.5,0,0,0-.28-1l.35-.18Z"/><path class="cls-2" d="M553.3,306.75l-4.51,1.6-.14-.42a4.88,4.88,0,0,0,2.29-2.33,3.82,3.82,0,0,0,.23-2.81,2.48,2.48,0,0,0-1.08-1.45,1.74,1.74,0,0,0-1.46-.18,1.55,1.55,0,0,0-.74.47,3.68,3.68,0,0,0-.63,1.24,22.25,22.25,0,0,0-.46,2.57,10,10,0,0,1-1.17,4,3.89,3.89,0,0,1-2.12,1.61,4.05,4.05,0,0,1-3.38-.37,5,5,0,0,1-2.34-3,5.37,5.37,0,0,1-.27-1.26,9.71,9.71,0,0,1,0-1.6,2.22,2.22,0,0,0-.06-.86,1,1,0,0,0-.38-.49,1.51,1.51,0,0,0-.77-.27l-.12-.37,5.15-1.69.12.37a6.26,6.26,0,0,0-2.76,2.79,4.23,4.23,0,0,0-.25,3.1,2.73,2.73,0,0,0,1.21,1.6,2,2,0,0,0,1.64.2,2,2,0,0,0,.86-.57,3.24,3.24,0,0,0,.6-1.06,12.45,12.45,0,0,0,.46-2.2,16.84,16.84,0,0,1,.68-3.19,4.9,4.9,0,0,1,1-1.72,3.69,3.69,0,0,1,1.61-1,3.92,3.92,0,0,1,3.17.28,4.4,4.4,0,0,1,2.13,2.65,5.23,5.23,0,0,1,.27,1.34,7.16,7.16,0,0,1-.08,1.3,2.81,2.81,0,0,0,0,1.06.57.57,0,0,0,.3.36,2,2,0,0,0,.86,0Z"/><circle class="cls-1" cx="454.98" cy="334.59" r="80.44"/><circle class="cls-4" cx="454.98" cy="334.59" r="49.75"/><path class="cls-3" d="M455.23,255.36s5,8.47-5.1,14.59c-13.45,8.17-37.1,24.89-6.7,38.49,0,0-9.83-14.08,1.75-23.4S474.42,266.09,455.23,255.36Z"/><path class="cls-3" d="M466.58,266s4,6.77-4.07,11.67c-10.77,6.53-29.68,19.91-5.36,30.79,0,0-7.86-11.27,1.4-18.72S481.94,274.56,466.58,266Z"/><path class="cls-3" d="M475.9,276.93s3.19,5.42-3.26,9.34c-8.61,5.23-23.74,15.93-4.29,24.63,0,0-6.29-9,1.12-15S488.19,283.79,475.9,276.93Z"/><rect class="cls-2" x="422.83" y="313.06" width="64.3" height="9.51"/><path class="cls-2" d="M429.46,324.73h51a0,0,0,0,1,0,0v5.12a5.69,5.69,0,0,1-5.69,5.69H435.16a5.69,5.69,0,0,1-5.69-5.69v-5.12A0,0,0,0,1,429.46,324.73Z"/><polygon class="cls-2" points="464.02 395.95 445.94 395.95 441.14 339.44 468.82 339.44 464.02 395.95"/><polygon class="cls-2" points="441.14 398.11 441.14 407.05 447.92 407.05 447.92 413.83 462.05 413.83 462.05 407.05 468.82 407.05 468.82 398.11 441.14 398.11"/><path class="cls-5" d="M262.24,457V262.51l-45.9,28.22v-51l45.9-27.53H309.5V457Z"/></g></g></svg>