<svg xmlns="http://www.w3.org/2000/svg" viewBox="0 0 781.66 781.66"><defs><style>.cls-1{fill:#231f20;}.cls-2{fill:#fff;}.cls-3{fill:#53225a;}.cls-4{fill:#f39122;}.cls-5{fill:#a02066;}</style></defs><g id="Layer_2" data-name="Layer 2"><g id="Layer_1-2" data-name="Layer 1"><circle class="cls-1" cx="390.83" cy="390.83" r="390.83"/><circle class="cls-2" cx="390.83" cy="390.83" r="375.95"/><path d="M111.67,607.62l27.51-23.22,3.42,4.05-9,30.8L154,602l3.42,4-27.52,23.22-3.41-4,9-30.82-20.46,17.27Z"/><path d="M162.56,661.29a17.16,17.16,0,0,1-5.5-7.74,15.36,15.36,0,0,1-.19-8.79,24.91,24.91,0,0,1,12.65-15,15.38,15.38,0,0,1,8.69-1.28,19,19,0,0,1,14,11.87,15.24,15.24,0,0,1,.19,8.78,25,25,0,0,1-12.65,15,15.21,15.21,0,0,1-8.69,1.28A17.08,17.08,0,0,1,162.56,661.29Zm3.21-3.8a10.8,10.8,0,0,0,5.95,2.82,10.61,10.61,0,0,0,6.05-1.25,21.06,21.06,0,0,0,9.32-11,10.46,10.46,0,0,0,.2-6.13,11.23,11.23,0,0,0-3.74-5.45,10.74,10.74,0,0,0-5.94-2.82,10.44,10.44,0,0,0-6,1.24,19.44,19.44,0,0,0-5.67,4.7,18.5,18.5,0,0,0-3.7,6.32A10.36,10.36,0,0,0,162,652,11.35,11.35,0,0,0,165.77,657.49Z"/><path d="M206.3,692l16.06-26.61-10.25-6.19,2.54-4.21,25,15.08-2.55,4.22-10.25-6.19-16.06,26.6Z"/><path d="M242.29,711.69l24.52-28.84,6.95,2.86-2.87,37.75-5-2.07,2.53-34.48,1.24.52-22.34,26.33Zm8.71-5.2,1.86-4.53,17.39,7.15-1.86,4.53Z"/><path d="M297.65,731.8l8.2-35L320,700.06l1.26.33a11,11,0,0,1,1.4.5,10.62,10.62,0,0,1,4.41,3.13,9.64,9.64,0,0,1,2,4.56,13.56,13.56,0,0,1-.23,5.39,12.52,12.52,0,0,1-3.83,6.72,9.79,9.79,0,0,1-7.31,2.28l-2.13-.24-9.93-2.33L302.73,733Zm9.16-16.22,8.88,2.08c.32.08.69.15,1.1.21A7.88,7.88,0,0,0,318,718a5.08,5.08,0,0,0,2.82-.76,5.93,5.93,0,0,0,1.9-2,8.81,8.81,0,0,0,1-2.48,8.48,8.48,0,0,0,.19-2.67,6,6,0,0,0-.83-2.58,5.1,5.1,0,0,0-2.19-1.94,7.13,7.13,0,0,0-1.09-.46c-.39-.12-.75-.22-1.07-.3l-8.89-2.08Zm11.33,21-3.57-15.88,5.44-.11L324,738Z"/><path d="M360.66,742.72l1.15-14.83-10.52-22,6.08.47,7.54,15.75,9.86-14.41,6.08.47L367.09,728.3,366,743.13Z"/><path d="M434.61,741.51,429,706l14.37-2.28c.35,0,.78-.11,1.29-.16a12.58,12.58,0,0,1,6.76,1.16,9.76,9.76,0,0,1,3.59,3.46,14.6,14.6,0,0,1,1.67,10.49,9.71,9.71,0,0,1-2.35,4.4,10.73,10.73,0,0,1-4.63,2.81c-.45.14-.93.27-1.45.38s-.93.2-1.26.25l-9.21,1.46,2,12.77ZM437,723l9-1.42c.32-.06.69-.13,1.09-.23a7.72,7.72,0,0,0,1.12-.36,5,5,0,0,0,2.32-1.77,5.89,5.89,0,0,0,1-2.53,8.6,8.6,0,0,0,0-2.68,8.5,8.5,0,0,0-.83-2.54,5.91,5.91,0,0,0-1.75-2.07,5,5,0,0,0-2.76-1,6.6,6.6,0,0,0-1.18,0c-.41,0-.77.08-1.1.13l-9,1.43Z"/><path d="M502.25,726.84a15.63,15.63,0,0,1-7.63.7,12.66,12.66,0,0,1-6.34-3,14.35,14.35,0,0,1-4.06-6.44l-7.15-21.57,5-1.69,7.07,21.33a10.2,10.2,0,0,0,2,3.61,8.6,8.6,0,0,0,2.89,2.12,9,9,0,0,0,3.33.77,9.45,9.45,0,0,0,3.31-.47,9.07,9.07,0,0,0,2.95-1.62,9.38,9.38,0,0,0,2.2-2.61,8.44,8.44,0,0,0,1-3.43,10,10,0,0,0-.55-4.06l-7.07-21.33,5-1.67L511.46,709a14.48,14.48,0,0,1,.59,7.58,12.55,12.55,0,0,1-3.27,6.23A15.54,15.54,0,0,1,502.25,726.84Z"/><path d="M543.71,709.5,527,677.61,539.54,671a11,11,0,0,1,5.74-1.43,9.32,9.32,0,0,1,4.78,1.58,9.72,9.72,0,0,1,3.2,3.58,8.86,8.86,0,0,1,1.08,5.2,7.36,7.36,0,0,1-2.15,4.4l-.61-1.06a9.06,9.06,0,0,1,6.23.47,9.22,9.22,0,0,1,4.3,4.23,11.5,11.5,0,0,1,1.45,5.48,8.94,8.94,0,0,1-1.56,5,12.1,12.1,0,0,1-4.56,3.87Zm-5.19-21.33,7.77-4.07a5.75,5.75,0,0,0,2.05-1.74,4.62,4.62,0,0,0,.85-2.36,5,5,0,0,0-.64-2.7,4.57,4.57,0,0,0-2.84-2.4,5.13,5.13,0,0,0-4,.54L534,679.51Zm7.57,14.46,8.33-4.36a7.2,7.2,0,0,0,2.51-2.08,5.16,5.16,0,0,0,1.07-2.75,5.43,5.43,0,0,0-.67-3,6.06,6.06,0,0,0-2-2.27,5.18,5.18,0,0,0-2.78-.89,6.15,6.15,0,0,0-3.13.78l-8.61,4.51Z"/><path d="M591.14,681.86l-21.2-29.1,4.23-3.07,18.29,25.11,13.18-9.59,2.9,4Z"/><path d="M629.27,651.35,604.76,625l3.83-3.55,24.51,26.36Z"/><path d="M664.65,615.05a17.11,17.11,0,0,1-7.66,5.61,15.31,15.31,0,0,1-8.78.31,24.88,24.88,0,0,1-15.15-12.43,15.4,15.4,0,0,1-1.4-8.68,17.18,17.18,0,0,1,4-8.61,15.65,15.65,0,0,1,19.14-5l-2.26,5a11.2,11.2,0,0,0-7-.88,10.87,10.87,0,0,0-6.08,4,11.19,11.19,0,0,0-2.71,6,10.47,10.47,0,0,0,1.3,6,18.74,18.74,0,0,0,4.76,5.58,18.52,18.52,0,0,0,6.39,3.61,10.48,10.48,0,0,0,6.17.09,11.31,11.31,0,0,0,5.39-3.85,10.71,10.71,0,0,0,2.74-6.75,11.22,11.22,0,0,0-2.19-6.64l4.46-3.19a15.66,15.66,0,0,1-1.17,19.74Z"/><path d="M101.06,316.1a20.18,20.18,0,0,1-3.51,7.47,15.24,15.24,0,0,1-5.77,4.67,14.79,14.79,0,0,1-7.39,1.24l.64-6.37a9.93,9.93,0,0,0,6.76-2.4,12.11,12.11,0,0,0,3.82-6.36,13.1,13.1,0,0,0,.38-4.69,8.3,8.3,0,0,0-1.38-3.87,5.31,5.31,0,0,0-3.15-2.14,4.72,4.72,0,0,0-3.78.55,6.77,6.77,0,0,0-1.5,1.32,13.4,13.4,0,0,0-1.33,1.86L79.14,317a25.31,25.31,0,0,1-2,2.8,12.23,12.23,0,0,1-2.62,2.4,9.29,9.29,0,0,1-3.44,1.38,10.12,10.12,0,0,1-4.41-.26,10.71,10.71,0,0,1-5.84-3.54,12.24,12.24,0,0,1-2.61-6.22,20.1,20.1,0,0,1,.55-7.7,19.48,19.48,0,0,1,3.34-7,14.39,14.39,0,0,1,5.4-4.37,15.34,15.34,0,0,1,7.12-1.34l-.53,6.56a8.67,8.67,0,0,0-4.38.8,9.53,9.53,0,0,0-3.39,2.73,11.28,11.28,0,0,0-2,4.09,11,11,0,0,0-.38,4.29,7.37,7.37,0,0,0,1.3,3.5A4.67,4.67,0,0,0,68,317a3.89,3.89,0,0,0,3-.29,7.31,7.31,0,0,0,2.27-2A24.77,24.77,0,0,0,75,312.08l4-6.93c.5-.87,1.12-1.85,1.86-2.92a15.6,15.6,0,0,1,2.73-3,9.73,9.73,0,0,1,3.84-2,10.23,10.23,0,0,1,5.18.16A11.56,11.56,0,0,1,97.69,300a11.68,11.68,0,0,1,3,4.37,16.13,16.13,0,0,1,1.08,5.56A22.88,22.88,0,0,1,101.06,316.1Z"/><path d="M118.26,265.18,85.69,249.74l-6,12.55-5.16-2.45,14.5-30.58,5.16,2.45-5.95,12.55,32.57,15.44Z"/><path d="M138,228.25l-25.68-35.62,5.16-7,41.71,13.72-3.72,5.07L117.31,192l.93-1.26,23.45,32.47ZM134.53,217l-4.59-3.36L142.82,196l4.59,3.36Z"/><path d="M182.35,175l-24.79-26.17-10.08,9.55-3.93-4.15L168.12,131l3.93,4.15L162,144.68l24.78,26.18Z"/><path d="M217.54,145.53l-22.66-35.08L217.29,96l3.1,4.8L203.07,112l6.36,9.84,14.39-9.3,3.1,4.8-14.39,9.3,7,10.84,17.32-11.19,3.1,4.8Z"/><path d="M313.34,101.79a19.87,19.87,0,0,1-11,.11,17.85,17.85,0,0,1-8.49-5.64,26,26,0,0,1-5.19-10.38A26.06,26.06,0,0,1,288,74.29a17.74,17.74,0,0,1,4.53-9.12,22.15,22.15,0,0,1,20.61-5.51,17.62,17.62,0,0,1,8.49,5.64,26.53,26.53,0,0,1,5.18,10.38,26.35,26.35,0,0,1,.69,11.58,17.64,17.64,0,0,1-4.54,9.13A19.91,19.91,0,0,1,313.34,101.79Zm-1.5-5.58a12.46,12.46,0,0,0,6.63-3.79,12.25,12.25,0,0,0,2.82-6.58,22.11,22.11,0,0,0-.74-8.49,21.81,21.81,0,0,0-3.59-7.7,12.21,12.21,0,0,0-5.72-4.26,13,13,0,0,0-7.65,0A12.58,12.58,0,0,0,297,69.12a12.19,12.19,0,0,0-2.82,6.58,22.42,22.42,0,0,0,.72,8.52,21.49,21.49,0,0,0,3.56,7.71,12.12,12.12,0,0,0,5.74,4.24A13.15,13.15,0,0,0,311.84,96.21Z"/><path d="M359.06,92.25l-2.87-41.66,24.68-1.7.42,6-18.63,1.28.8,11.75,15.16-1L379,73l-15.16,1,1.22,17.79Z"/><path d="M443.91,95.26l8.83-40.81,24.18,5.23-1.28,5.92-18.26-3.95L454.9,73.16l14.85,3.21-1.29,6-14.85-3.22-3.77,17.43Z"/><path d="M494.09,108.82l15.74-38.67,5.61,2.28-13.59,33.39L519.36,113l-2.15,5.29Z"/><path d="M553.75,139.86a19.81,19.81,0,0,1-7.45-8.11,17.82,17.82,0,0,1-1.49-10.08,28.78,28.78,0,0,1,12.4-19.06A17.79,17.79,0,0,1,567,99.88a22.11,22.11,0,0,1,17.88,11.63,17.65,17.65,0,0,1,1.48,10.08A29,29,0,0,1,574,140.65a17.75,17.75,0,0,1-9.82,2.73A19.84,19.84,0,0,1,553.75,139.86ZM556.9,135a12.46,12.46,0,0,0,7.25,2.38,12.28,12.28,0,0,0,6.78-2.3,22.25,22.25,0,0,0,5.81-6.24,21.87,21.87,0,0,0,3.33-7.82,12.2,12.2,0,0,0-.67-7.09,13,13,0,0,0-5.08-5.72,12.49,12.49,0,0,0-7.24-2.4,12.14,12.14,0,0,0-6.78,2.31,22.54,22.54,0,0,0-5.85,6.22,21.72,21.72,0,0,0-3.35,7.81,12.15,12.15,0,0,0,.69,7.1A13.2,13.2,0,0,0,556.9,135Z"/><path d="M591.48,167.26l29.39-29.67,12,11.88c.29.28.64.65,1,1.09A11.74,11.74,0,0,1,635,151.9a12.4,12.4,0,0,1,2.46,5.78,11.22,11.22,0,0,1-.76,5.74,16,16,0,0,1-3.5,5.18,14.53,14.53,0,0,1-7.87,4.31,11.34,11.34,0,0,1-8.61-2.18l-2-1.53-8.4-8.33-10.55,10.65Zm17.35,17.18,6.11-17.87,5.44,3.2-6.63,19.55Zm1.55-27.65,7.52,7.45q.4.4,1,.87a9.88,9.88,0,0,0,1.1.8,5.82,5.82,0,0,0,3.25,1,6.75,6.75,0,0,0,3.06-.78,9.76,9.76,0,0,0,4.32-4.36,7,7,0,0,0,.75-3.06,6,6,0,0,0-1-3.24,7,7,0,0,0-.8-1.12c-.31-.36-.6-.68-.88-.95l-7.51-7.45Z"/><path d="M631.56,211.67l33.73-24.62,3.57,4.9-33.73,24.62Z"/><path d="M651.82,241.85l37.31-18.78L695,234.75l.94,1.95a25.31,25.31,0,0,1,1.16,2.81,15.18,15.18,0,0,1,.57,8.94,18,18,0,0,1-4.29,7.83,28.74,28.74,0,0,1-17.46,8.79,18.1,18.1,0,0,1-8.83-1.22,15.23,15.23,0,0,1-6.83-5.8,26,26,0,0,1-1.57-2.6q-.74-1.41-1-1.92Zm7.95,3,3.09,6.14c.3.58.66,1.27,1.11,2.07a19.24,19.24,0,0,0,1.29,2,9.1,9.1,0,0,0,4.8,3.38,13.08,13.08,0,0,0,6.06.21,24.72,24.72,0,0,0,12.1-6.12,13.17,13.17,0,0,0,3.39-5,9.07,9.07,0,0,0,.12-5.79,14.85,14.85,0,0,0-.87-2.28c-.39-.83-.72-1.53-1-2.1l-3.09-6.14Z"/><path d="M675.46,294l43.87,2,2.31,8.42L685,328.55l-1.67-6.07,33.44-22.13.41,1.51-40-1.84Zm11,4.3,5.48-1.51,5.77,21-5.48,1.51Z"/><circle class="cls-1" cx="390.83" cy="390.83" r="284.91"/><circle class="cls-2" cx="390.83" cy="390.83" r="277.46"/><rect class="cls-2" x="39.35" y="365.64" width="702.96" height="144.38"/><path class="cls-1" d="M521.53,551.18c-3.3.87-6.38,2-9.54,2.43-7.58.95-11.52-3.71-9.77-11.19,1.48-6.4,1.39-7.2-4.19-10.67a48.52,48.52,0,0,0-11-5c-7.53-2.31-9.49-3.9-10.17-11.7-.36-4.07-1.66-5.59-5.85-5.75-5.43-.2-7.61-2.64-8.49-8.09s-1.73-10.73-2.29-16.13c-.28-2.69-1.16-4.17-4-3.56-4.46.95-7.48-1.17-10.3-4.26a37.69,37.69,0,0,1-10.39-25c-.08-2.71,0-5.43.22-8.15.18-3-.37-4.68-4.11-4.84-5.19-.22-8-3.87-7.31-9.72.81-7.14,2.42-14.17,3.52-21.28a138,138,0,0,0,2-16.52c.23-7-2.43-10.34-9.36-11.71-8.49-1.68-14.38-5.75-17-14.36a14.34,14.34,0,0,0-4.37-6.74c-7.15-5.77-14.21-11.84-22.09-16.45-8.56-5-14.38-3.28-20.82,4.28a51,51,0,0,1-20.49,15c-5.6,2.19-10,.8-12-4.71-5-13.41-13.71-23-26.93-28.32-14.31-5.78-28.72-4.69-43,.15-3,1-5.72,2.54-8.68,3.51-1.65.53-3.87,1.05-5.18.35-.95-.5-1.09-3-1.1-4.65,0-4.34.85-8.8.14-13a73.67,73.67,0,0,0-4.76-15.75c-1.65-4-1-5.88,3.45-6.07.81,0,1.63,0,2.45,0,31.8,0,63.6.06,95.4-.09,4,0,6.92.88,8.54,4.63,2.34,5.41,6.26,6.87,12.17,6.79,28.13-.36,56.26-.17,84.39-.15,6.46,0,6.53.21,5.48,6.53-.23,1.43.42,3,.66,4.54l1.44.13c.56-2.37,1.2-4.73,1.67-7.12.76-3.83,1.11-7.76,2.2-11.49.86-3,3.27-4,6.48-3.2,4.2,1.09,8.45,2,12.71,2.84a4.54,4.54,0,0,1,4.14,4.26c3.75,24.42,13.33,46.94,23.32,69.24,1.84,4.11,5.63,7.63,9.21,10.61,7,5.85,10.81,12.94,9.93,22-.87,8.91,1.56,16.77,5.76,24.5,5.64,10.38,10.58,21.13,16.16,31.54,4.49,8.37,7.53,16.9,8,26.57,1,21,.78,41.86-5.55,62.14-3.6,11.53-9.9,21.43-19.71,28.78-4.51,3.39-9.35,6.14-15.21,6.18-3.4,0-6.7-.53-7.94-4.3s1.09-5.84,3.77-7.76c6-4.26,11.91-8.51,17.8-12.86C523.51,555.7,523.57,553.45,521.53,551.18Zm7.85,7.39c1.94-3.47,4.4-6.76,5.72-10.45,7.14-20.12,7.23-41,6.23-62A52.45,52.45,0,0,0,534.65,463c-6-10.95-11.21-22.32-17.1-33.33-4.4-8.22-7.11-16.63-6.1-26.09a18.43,18.43,0,0,0-8-18c-6.39-4.6-10.31-10.95-13.25-18.16-8.28-20.24-16.77-40.38-20.66-62.07-.19-1-1.05-2.46-1.89-2.71-3.21-.93-6.54-1.46-10.28-2.23-.28,2.14-.45,3.85-.72,5.54-.56,3.47-.79,7.05-1.85,10.37-1.17,3.66-3.86,6.59-8,6.39-4.36-.21-6.38-3.91-6.75-7.57-.41-4.15-2.53-4.26-5.68-4.25-26.91.07-53.82-.22-80.72.22-6.6.1-10.92-1.6-13.51-7.59-1.29-3-3.5-3.83-6.79-3.82-28.81.14-57.62.08-86.43.08h-3.4c1,8.5,2,16.58,2.91,24.66,4.76-1.4,9.62-3.09,14.61-4.25,30.12-7,55.28,5.29,68.07,33.24,1.13,2.47,2.39,3.17,5,2.11,7.54-3.06,13.17-8.38,18.53-14.28,7.49-8.26,15.11-10,25.36-5.6a75.36,75.36,0,0,1,27.73,20.92,17.67,17.67,0,0,1,3.68,6.27c1.92,6.73,6.33,9.72,13.05,11,9.06,1.73,13.68,7.78,13.93,17a51.07,51.07,0,0,1-.63,9.73c-1.49,9.1-3.25,18.17-4.85,27.25-.52,2.93-.58,5.3,3.74,5.31s7.05,3.17,7.42,7.7a55.3,55.3,0,0,1-.1,8.14,31.09,31.09,0,0,0,3.71,16.9c3.13,5.84,6.76,10.9,14.79,9.1,3.53-.79,5.06,1.19,5.46,4.75.75,6.6,2,13.15,2.85,19.74.29,2.27,1.11,3.3,3.46,3.59,8.82,1.1,10,2.3,10.88,11.46.32,3.34,1.67,5.09,5,5.79a36.88,36.88,0,0,1,18.35,10C510,533.62,513,537,509.09,542a4.61,4.61,0,0,0-.52,1.53c-.94,3,.19,4.23,3.17,3.6a29.15,29.15,0,0,0,5.39-1.72c6.68-2.84,8.93-2.07,11.3,4.82.9,2.59.71,5.56,1,8.35l-21,17.16C517.88,573.05,525,567.51,529.38,558.57Z"/><rect class="cls-3" x="165.24" y="383.76" width="451.17" height="108.15"/><circle class="cls-2" cx="214.34" cy="437.83" r="45.24"/><circle cx="214.34" cy="437.83" r="43.51"/><path class="cls-4" d="M181.54,450.42l-1.4.51,0-.12a1.61,1.61,0,0,0,.7-.74,1.21,1.21,0,0,0,.06-.87.8.8,0,0,0-.34-.45.58.58,0,0,0-.46-.05.44.44,0,0,0-.22.15,1,1,0,0,0-.19.39,6.75,6.75,0,0,0-.14.8,3.17,3.17,0,0,1-.34,1.23,1.2,1.2,0,0,1-.66.51,1.26,1.26,0,0,1-1-.1,1.57,1.57,0,0,1-.74-.92,2.74,2.74,0,0,1-.09-.39,2.79,2.79,0,0,1,0-.49.67.67,0,0,0,0-.27.4.4,0,0,0-.12-.15.43.43,0,0,0-.24-.08l0-.12,1.6-.54,0,.11a2,2,0,0,0-.85.88,1.25,1.25,0,0,0-.06,1,.78.78,0,0,0,.38.49.58.58,0,0,0,.51.06.56.56,0,0,0,.26-.18.75.75,0,0,0,.18-.33,4.27,4.27,0,0,0,.14-.68,4.55,4.55,0,0,1,.2-1,1.44,1.44,0,0,1,.31-.54,1.27,1.27,0,0,1,.49-.32,1.22,1.22,0,0,1,1,.08,1.4,1.4,0,0,1,.67.81,1.58,1.58,0,0,1,.09.42,2,2,0,0,1,0,.4.87.87,0,0,0,0,.33.2.2,0,0,0,.09.11.59.59,0,0,0,.27,0Z"/><path class="cls-4" d="M179.86,454.74l-.68-1.42-.47,0a.8.8,0,0,0-.36.08.28.28,0,0,0-.19.25,1.68,1.68,0,0,0,.12.43l-.11,0-.64-1.33.11-.06a.61.61,0,0,0,.35.27,2.45,2.45,0,0,0,.77.06l3.9-.11,0,.06-2.6,3a2.1,2.1,0,0,0-.42.63.49.49,0,0,0,0,.33l-.11.05-.94-1.94.11-.05,0,.08a.74.74,0,0,0,.22.29.17.17,0,0,0,.17,0,.23.23,0,0,0,.1-.07,1.11,1.11,0,0,0,.18-.19Zm.17-.2,1.1-1.26-1.68,0Z"/><path class="cls-4" d="M185.66,458.38l-.1.07a.7.7,0,0,0-.45-.23,4.56,4.56,0,0,0-.88,0l-3.7.5-.06-.09,2.21-3.17a5.51,5.51,0,0,0,.44-.71.52.52,0,0,0-.07-.38l.11-.06,1.12,1.81-.1.07,0-.07a.69.69,0,0,0-.27-.29.15.15,0,0,0-.16,0,.31.31,0,0,0-.1.1s-.13.17-.28.37l-1.38,2,2.14-.29.51-.09a.76.76,0,0,0,.2-.08.33.33,0,0,0,.12-.14.3.3,0,0,0,0-.19.75.75,0,0,0-.15-.34l.11-.07Z"/><path class="cls-4" d="M183.72,462.88l-.09.07-1.43-1.84.1-.08.09.12a.61.61,0,0,0,.24.2.3.3,0,0,0,.21,0,1.38,1.38,0,0,0,.35-.22l2.32-1.79a1.67,1.67,0,0,0,.32-.29.36.36,0,0,0,0-.21.64.64,0,0,0-.13-.28l-.1-.11.1-.08,1.43,1.85-.1.07-.09-.11a.53.53,0,0,0-.25-.21.27.27,0,0,0-.2,0,1.23,1.23,0,0,0-.35.22l-2.33,1.8a1.26,1.26,0,0,0-.31.29.34.34,0,0,0,0,.21.66.66,0,0,0,.13.27Z"/><path class="cls-4" d="M188.25,461.48l-.49,3.5,1.39-1.32a.87.87,0,0,0,.31-.46.62.62,0,0,0-.23-.51l.09-.08,1,1.07-.09.08a1.17,1.17,0,0,0-.33-.21.41.41,0,0,0-.24,0,1.09,1.09,0,0,0-.36.27l-2.7,2.55-.08-.08.63-4.74-2.06,1.95a.62.62,0,0,0-.26.48.7.7,0,0,0,.18.39l.07.07-.08.09-1.09-1.15.09-.09a.69.69,0,0,0,.46.27.71.71,0,0,0,.46-.24l2.29-2.16,0-.15a.94.94,0,0,0,0-.34.84.84,0,0,0-.17-.27l.09-.09Z"/><path class="cls-4" d="M194,466.49l-1,1.22-.09-.07a2,2,0,0,0,.09-1.18,1.58,1.58,0,0,0-.54-.87,1.32,1.32,0,0,0-.82-.3,1.58,1.58,0,0,0-.86.32,4.21,4.21,0,0,0-1.34,1.69,1.3,1.3,0,0,0-.06.86,1.43,1.43,0,0,0,.48.68l.28.18a2.52,2.52,0,0,0,.33.14l.58-.73a1.21,1.21,0,0,0,.19-.28.41.41,0,0,0,0-.21.6.6,0,0,0-.18-.22l-.09-.07.08-.09,1.69,1.35-.08.1a1,1,0,0,0-.31-.17.36.36,0,0,0-.22,0,1.4,1.4,0,0,0-.22.22l-.58.73a4,4,0,0,1-.87-.34,4.44,4.44,0,0,1-.81-.52,2.69,2.69,0,0,1-.71-.8,2.46,2.46,0,0,1-.29-.81,2.21,2.21,0,0,1,0-.81,2.23,2.23,0,0,1,.46-.94,2.32,2.32,0,0,1,1.61-.88,2.43,2.43,0,0,1,1.82.57,3,3,0,0,1,.44.42,3.58,3.58,0,0,1,.27.41,1.81,1.81,0,0,0,.22.33.28.28,0,0,0,.18.06.56.56,0,0,0,.27-.11Z"/><path class="cls-4" d="M199.53,469.86l-.06.11a.69.69,0,0,0-.36-.05,3.42,3.42,0,0,0-.82.41l-1.62.95-.52,1a1.55,1.55,0,0,0-.17.39.31.31,0,0,0,.05.2.6.6,0,0,0,.22.19l.22.12-.06.11-2.19-1.2.06-.11.2.11a.51.51,0,0,0,.31.09.3.3,0,0,0,.19-.07,1,1,0,0,0,.23-.35l.43-.78v-2.18a2.5,2.5,0,0,0-.07-.8.5.5,0,0,0-.25-.25l.06-.11,1.88,1-.06.11-.09-.05a.47.47,0,0,0-.26-.08.17.17,0,0,0-.13.07,2.28,2.28,0,0,0-.05.64V471l1.35-.8a1.63,1.63,0,0,0,.57-.43.17.17,0,0,0,0-.17.79.79,0,0,0-.31-.28l.06-.11Z"/><path class="cls-4" d="M201.85,470.69a2.17,2.17,0,0,1,1.39,1.19,2.24,2.24,0,0,1,0,1.78,2.33,2.33,0,0,1-1,1.22,2.18,2.18,0,0,1-2,.14,2.25,2.25,0,0,1-1.45-1.42,2.35,2.35,0,0,1,.06-1.61,2.23,2.23,0,0,1,1.22-1.31A2.17,2.17,0,0,1,201.85,470.69Zm0,.21a1,1,0,0,0-1.09.25,3.35,3.35,0,0,0-.77,1.28,2.87,2.87,0,0,0-.22,1.72.9.9,0,0,0,.59.64,1,1,0,0,0,.59,0,1.4,1.4,0,0,0,.66-.47,3.89,3.89,0,0,0,.58-1.07,3.94,3.94,0,0,0,.31-1.3,1.22,1.22,0,0,0-.17-.73A1,1,0,0,0,201.81,470.9Z"/><path class="cls-4" d="M204.24,471.64l2.24.51,0,.12-.11,0a.82.82,0,0,0-.36,0,.34.34,0,0,0-.17.11,1.55,1.55,0,0,0-.14.46l-.49,2.13a2.2,2.2,0,0,0-.09.79.78.78,0,0,0,.22.38.91.91,0,0,0,.48.24,1.06,1.06,0,0,0,.64,0,1,1,0,0,0,.47-.35,2.71,2.71,0,0,0,.35-.94l.4-1.78a1,1,0,0,0,0-.43.43.43,0,0,0-.12-.21.9.9,0,0,0-.39-.16l0-.12,1.5.34,0,.12-.08,0a.52.52,0,0,0-.33,0,.42.42,0,0,0-.22.18.94.94,0,0,0-.13.36l-.38,1.65a4.09,4.09,0,0,1-.35,1.08,1.26,1.26,0,0,1-.64.51,1.77,1.77,0,0,1-1.13,0,2.06,2.06,0,0,1-.84-.35,1.38,1.38,0,0,1-.47-.66,1.86,1.86,0,0,1,0-.9l.48-2.13a1.66,1.66,0,0,0,.07-.47.34.34,0,0,0-.11-.18.83.83,0,0,0-.37-.14Z"/><path class="cls-4" d="M214.35,473.09l-.07,1.2h-.12a1.79,1.79,0,0,0-.2-.62.9.9,0,0,0-.33-.31,1.2,1.2,0,0,0-.43-.08l-.34,0-.19,3.44a1.53,1.53,0,0,0,0,.43.33.33,0,0,0,.14.15.5.5,0,0,0,.29.08h.15v.12l-2.34-.13v-.12h.15a.58.58,0,0,0,.31-.05.36.36,0,0,0,.15-.15,1.52,1.52,0,0,0,.06-.41l.19-3.44h-.32a1,1,0,0,0-.67.15,1.27,1.27,0,0,0-.4.74h-.13l.07-1.2Z"/><path class="cls-4" d="M217.07,477.29v.12l-2.33.1v-.13h.15a.67.67,0,0,0,.31-.08.33.33,0,0,0,.13-.17,1.8,1.8,0,0,0,0-.41l-.12-2.93a1.94,1.94,0,0,0,0-.43.41.41,0,0,0-.15-.14.56.56,0,0,0-.3-.05h-.15v-.12l2.33-.09v.12h-.15a.57.57,0,0,0-.31.08.27.27,0,0,0-.13.16,1.38,1.38,0,0,0,0,.42l.12,2.93a1.37,1.37,0,0,0,.05.42.34.34,0,0,0,.16.15.62.62,0,0,0,.3.05Z"/><path class="cls-4" d="M220.52,475.47l.72-3.09,1.79-.29,0,.12-.14,0a.59.59,0,0,0-.3.12.34.34,0,0,0-.11.17,1.91,1.91,0,0,0,0,.42l.47,2.9a1.26,1.26,0,0,0,.11.41.29.29,0,0,0,.17.13.59.59,0,0,0,.3,0l.14,0,0,.12-2.29.37,0-.12.14,0a.59.59,0,0,0,.3-.12.32.32,0,0,0,.1-.18,1.08,1.08,0,0,0,0-.41l-.52-3.26-1,4.29h-.08l-2.36-3.71.5,3.1c0,.22.07.35.08.4a.51.51,0,0,0,.23.23.83.83,0,0,0,.46,0l0,.12-1.51.25,0-.12h.05a.88.88,0,0,0,.26-.09.46.46,0,0,0,.17-.17.57.57,0,0,0,.07-.25s0-.14-.05-.33l-.45-2.79a1.78,1.78,0,0,0-.1-.41.37.37,0,0,0-.17-.12.63.63,0,0,0-.31,0l-.14,0,0-.12,1.8-.29Z"/><path class="cls-4" d="M224.73,471.74l.55,1.73.09,0a.7.7,0,0,0,.5-.44,1.64,1.64,0,0,0,0-.83l.12,0,.7,2.22-.11,0a1.86,1.86,0,0,0-.35-.55.72.72,0,0,0-.38-.22,1,1,0,0,0-.49.07l.38,1.19a1.61,1.61,0,0,0,.17.42.24.24,0,0,0,.15.1.64.64,0,0,0,.28,0l.25-.08a1.56,1.56,0,0,0,.87-.58,1.64,1.64,0,0,0,.25-1l.11,0,.24,1.41-3.67,1.17,0-.11.14,0a.58.58,0,0,0,.28-.16.28.28,0,0,0,.08-.19,2,2,0,0,0-.09-.4l-.89-2.8c-.07-.19-.11-.31-.13-.35a.36.36,0,0,0-.17-.13.57.57,0,0,0-.36,0l-.14,0,0-.11,3.56-1.14.4,1.26-.12,0a1.64,1.64,0,0,0-.46-.58,1,1,0,0,0-.56-.15,2.72,2.72,0,0,0-.68.15Z"/><path class="cls-4" d="M232.71,470l1.21-.64.06.11a.66.66,0,0,0-.25.29,1.73,1.73,0,0,0-.08.59,5.25,5.25,0,0,1-.12,1,3.21,3.21,0,0,0,.68.11.65.65,0,0,0,.29-.06.53.53,0,0,0,.24-.49h.15a2,2,0,0,1-.15.93.8.8,0,0,1-.39.4,1.16,1.16,0,0,1-.48.14,2.58,2.58,0,0,1-.69-.1,3.91,3.91,0,0,1-.49.72,2.51,2.51,0,0,1-.61.46,1.35,1.35,0,0,1-1,.17,1,1,0,0,1-.7-.52,1.2,1.2,0,0,1-.1-.93,2.91,2.91,0,0,1,.6-1,2.22,2.22,0,0,1-.31-.3,2.1,2.1,0,0,1-.22-.33,1.13,1.13,0,0,1-.09-.95,1.32,1.32,0,0,1,.67-.75,1.07,1.07,0,0,1,.75-.15.73.73,0,0,1,.5.35.83.83,0,0,1,0,.69,2.56,2.56,0,0,1-.54.85,7.49,7.49,0,0,0,1.62.73,1.52,1.52,0,0,0,0-1.05.3.3,0,0,0-.19-.16.48.48,0,0,0-.31,0Zm-1.24.45a1.27,1.27,0,0,0,.28-.46.54.54,0,0,0-.07-.37,1,1,0,0,0-.46-.46.41.41,0,0,0-.36,0,.33.33,0,0,0-.17.24.47.47,0,0,0,.05.34,1.28,1.28,0,0,0,.21.28A6.12,6.12,0,0,0,231.47,470.41Zm-.44.86a.92.92,0,0,0-.21.38.56.56,0,0,0,.06.44,1.12,1.12,0,0,0,.44.45,1.42,1.42,0,0,0,.61.22,1,1,0,0,0,.53-.1.83.83,0,0,0,.22-.18,2,2,0,0,0,.22-.3A6.64,6.64,0,0,1,231,471.27Z"/><path class="cls-4" d="M238.93,467l-1-3,1.38-1.17.08.1-.11.09a.56.56,0,0,0-.19.26.27.27,0,0,0,0,.2,1.83,1.83,0,0,0,.24.34l1.9,2.24a1.23,1.23,0,0,0,.3.31.34.34,0,0,0,.21,0,.74.74,0,0,0,.27-.15l.11-.09.08.09-1.78,1.5-.08-.09.11-.09a.65.65,0,0,0,.2-.26.37.37,0,0,0,0-.21,2.26,2.26,0,0,0-.24-.34l-2.13-2.52,1.31,4.21-.06.05-3.93-2,2,2.4a2.27,2.27,0,0,0,.28.3.42.42,0,0,0,.31.09.76.76,0,0,0,.41-.21l.08.09-1.17,1-.08-.09,0,0a.6.6,0,0,0,.18-.21.56.56,0,0,0,.06-.23.52.52,0,0,0-.08-.25,2.69,2.69,0,0,0-.21-.26l-1.81-2.16a1.94,1.94,0,0,0-.3-.3.36.36,0,0,0-.21,0,.53.53,0,0,0-.27.15l-.11.09-.08-.1,1.39-1.17Z"/><path class="cls-4" d="M240.89,460.85a2.17,2.17,0,0,1,1.6-.9,2.2,2.2,0,0,1,1.69.58,2.37,2.37,0,0,1,.8,1.35,2.19,2.19,0,0,1-.57,2,2.26,2.26,0,0,1-1.83.88,2.4,2.4,0,0,1-1.5-.61,2.25,2.25,0,0,1-.81-1.6A2.14,2.14,0,0,1,240.89,460.85Zm.18.11a1,1,0,0,0-.13,1.11,3.36,3.36,0,0,0,.94,1.16,2.79,2.79,0,0,0,1.54.8.91.91,0,0,0,.8-.34.88.88,0,0,0,.24-.53,1.4,1.4,0,0,0-.21-.79,3.9,3.9,0,0,0-.8-.91,4.28,4.28,0,0,0-1.11-.74,1.27,1.27,0,0,0-.74-.09A1,1,0,0,0,241.07,461Z"/><path class="cls-4" d="M243.44,457.66l3.52-.33-1.61-1.05a.9.9,0,0,0-.52-.2.63.63,0,0,0-.44.34l-.1-.07.8-1.23.1.07a1,1,0,0,0-.12.37.36.36,0,0,0,.07.23,1.38,1.38,0,0,0,.34.28l3.11,2-.06.1-4.75.49,2.37,1.55a.54.54,0,0,0,.86-.13l.06-.08.1.06-.86,1.33-.1-.07a.72.72,0,0,0,.15-.51.69.69,0,0,0-.34-.4l-2.64-1.72-.15,0a.79.79,0,0,0-.33.08.81.81,0,0,0-.22.23l-.1-.07Z"/><path class="cls-4" d="M246.1,453.62l1.63.79,0-.08a.7.7,0,0,0,0-.67,1.56,1.56,0,0,0-.6-.56l.05-.11,2.1,1,0,.12a1.81,1.81,0,0,0-.63-.13.73.73,0,0,0-.43.13,1,1,0,0,0-.28.4l1.13.54a1.48,1.48,0,0,0,.42.17.28.28,0,0,0,.17,0,.8.8,0,0,0,.17-.23l.11-.24a1.66,1.66,0,0,0,.18-1,1.63,1.63,0,0,0-.56-.87l0-.11,1.19.8L249.14,457l-.11-.05.07-.14a.63.63,0,0,0,.07-.31.31.31,0,0,0-.08-.19,1.83,1.83,0,0,0-.36-.21l-2.64-1.28-.34-.14a.28.28,0,0,0-.22,0,.63.63,0,0,0-.23.27l-.06.13-.11,0,1.62-3.36,1.19.57-.05.11a1.72,1.72,0,0,0-.75-.06,1.1,1.1,0,0,0-.49.31,3.16,3.16,0,0,0-.35.59Z"/><path class="cls-4" d="M248.48,446.77l.11,0a.71.71,0,0,0,0,.36,3.11,3.11,0,0,0,.55.73l1.22,1.43,1,.34a1.39,1.39,0,0,0,.42.1.28.28,0,0,0,.19-.09.55.55,0,0,0,.15-.24l.08-.24.11,0-.79,2.37-.11,0,.07-.22a.61.61,0,0,0,0-.32.33.33,0,0,0-.1-.18,1.47,1.47,0,0,0-.39-.16l-.84-.29-2.15.39a2.87,2.87,0,0,0-.77.21.59.59,0,0,0-.21.29l-.11,0,.68-2,.11,0,0,.09a.5.5,0,0,0,0,.28c0,.06,0,.1.09.11a1.68,1.68,0,0,0,.64-.06l1.66-.3-1-1.18c-.25-.3-.42-.46-.53-.49a.16.16,0,0,0-.16,0,.79.79,0,0,0-.23.36l-.11,0Z"/><path class="cls-2" d="M177.5,426.54l1.57.52a1.81,1.81,0,0,0,.59.13.43.43,0,0,0,.25-.14,1.2,1.2,0,0,0,.24-.5l.16.05-.95,2.87-.15-.05a1.43,1.43,0,0,0,.1-.55.43.43,0,0,0-.13-.26,1.73,1.73,0,0,0-.55-.24l-3.62-1.2a2,2,0,0,0-.59-.14.45.45,0,0,0-.26.14,1.63,1.63,0,0,0-.24.5l-.15-.05.86-2.6a5.64,5.64,0,0,1,.63-1.44A1.55,1.55,0,0,1,176,423a1.43,1.43,0,0,1,1,0,1.41,1.41,0,0,1,.88.79,2.12,2.12,0,0,1,.12.92l2.33-.72a4.1,4.1,0,0,0,.59-.22.79.79,0,0,0,.27-.35l.15.05-.58,1.76-3.15,1Zm-2.74-.91,2.45.81.08-.23a2.85,2.85,0,0,0,.17-.9.85.85,0,0,0-.23-.57,1.4,1.4,0,0,0-.66-.4,1.38,1.38,0,0,0-1,0,1.34,1.34,0,0,0-.62.86Z"/><path class="cls-2" d="M182.62,420.74l.15.07-1.35,2.77-.14-.07.08-.18a.75.75,0,0,0,.1-.41.37.37,0,0,0-.11-.24,1.84,1.84,0,0,0-.47-.29l-3.49-1.69a1.71,1.71,0,0,0-.53-.2.41.41,0,0,0-.26.08,1,1,0,0,0-.25.32l-.08.18-.15-.07,1.35-2.77.15.07-.09.17a.87.87,0,0,0-.1.41.49.49,0,0,0,.11.26,2.35,2.35,0,0,0,.47.28l3.49,1.69a1.71,1.71,0,0,0,.53.2.36.36,0,0,0,.26-.09.82.82,0,0,0,.25-.31Z"/><path class="cls-2" d="M181.08,412.29l1.72,1.16-.09.13a2.59,2.59,0,0,0-1.56,0,2.11,2.11,0,0,0-1.08.81,1.69,1.69,0,0,0-.3,1.12,2,2,0,0,0,.51,1.09,5,5,0,0,0,1,.91,5.08,5.08,0,0,0,1.34.67,1.7,1.7,0,0,0,1.14,0,1.83,1.83,0,0,0,.84-.71,2,2,0,0,0,.21-.38c0-.14.1-.3.14-.46l-1-.68a1.38,1.38,0,0,0-.4-.21.48.48,0,0,0-.27.06.79.79,0,0,0-.27.25l-.08.13-.14-.09,1.6-2.37.13.09a1.77,1.77,0,0,0-.18.42.46.46,0,0,0,.08.29,1.39,1.39,0,0,0,.31.26l1,.68a5.56,5.56,0,0,1-.34,1.19,6.74,6.74,0,0,1-.6,1.12,3.59,3.59,0,0,1-1,1,3.24,3.24,0,0,1-1,.47,2.75,2.75,0,0,1-1.06.09,2.91,2.91,0,0,1-1.28-.5,3,3,0,0,1-1.35-2,3.25,3.25,0,0,1,.55-2.46,4.67,4.67,0,0,1,.5-.61,3.62,3.62,0,0,1,.51-.41,2,2,0,0,0,.42-.33.34.34,0,0,0,0-.23.84.84,0,0,0-.17-.35Z"/><path class="cls-2" d="M186,411.48l1.3,1.27a1.5,1.5,0,0,0,.43.36.44.44,0,0,0,.28,0,.78.78,0,0,0,.34-.22l.14-.14.11.12-2.16,2.19-.11-.11.14-.14a.88.88,0,0,0,.22-.36.44.44,0,0,0,0-.27,1.87,1.87,0,0,0-.35-.42l-2.77-2.71a2,2,0,0,0-.43-.36.44.44,0,0,0-.28,0,.78.78,0,0,0-.34.22l-.13.14-.12-.11,2.16-2.2.11.11-.13.14a.81.81,0,0,0-.23.36.44.44,0,0,0,0,.27,1.61,1.61,0,0,0,.35.42l1.19,1.17,1.46-1.48L186,408.56a1.75,1.75,0,0,0-.44-.36.41.41,0,0,0-.27,0,.78.78,0,0,0-.34.22l-.13.14-.12-.12,2.16-2.19.11.11-.13.14a.73.73,0,0,0-.23.36.44.44,0,0,0,0,.27,1.61,1.61,0,0,0,.35.42l2.77,2.71a2,2,0,0,0,.43.36.44.44,0,0,0,.28,0,.78.78,0,0,0,.34-.22l.13-.14.12.12-2.16,2.19-.11-.11.13-.14a.81.81,0,0,0,.23-.36.44.44,0,0,0,0-.27,1.74,1.74,0,0,0-.36-.42l-1.3-1.28Z"/><path class="cls-2" d="M192.17,402.39l.93,1.29-.13.1a2.65,2.65,0,0,0-.71-.47,1.21,1.21,0,0,0-.6,0,1.5,1.5,0,0,0-.52.27l-.35.26,2.65,3.69a1.6,1.6,0,0,0,.37.43.39.39,0,0,0,.27,0,.73.73,0,0,0,.37-.16l.16-.11.09.13-2.5,1.8-.09-.13.16-.12a.89.89,0,0,0,.28-.31.51.51,0,0,0,0-.28,1.8,1.8,0,0,0-.28-.47l-2.65-3.69-.35.25a1.25,1.25,0,0,0-.55.71,1.64,1.64,0,0,0,.2,1.09l-.14.1-.93-1.29Z"/><path class="cls-2" d="M198.52,402.53l.7,1.69a2.24,2.24,0,0,0,.26.5.47.47,0,0,0,.26.1.79.79,0,0,0,.4-.07l.18-.07.06.14L197.54,406l-.07-.15.19-.07a.84.84,0,0,0,.34-.25.4.4,0,0,0,.08-.26,1.75,1.75,0,0,0-.17-.52l-1.49-3.57a1.82,1.82,0,0,0-.26-.51.44.44,0,0,0-.25-.1.68.68,0,0,0-.4.07l-.18.07-.06-.14,2.84-1.19.06.15-.18.07a.84.84,0,0,0-.34.25.41.41,0,0,0-.09.26,2.14,2.14,0,0,0,.17.52l.64,1.54,1.92-.8-.64-1.54a1.82,1.82,0,0,0-.26-.5.42.42,0,0,0-.26-.11.91.91,0,0,0-.4.07l-.17.08-.06-.15,2.83-1.18.07.14-.18.08a.8.8,0,0,0-.35.24.42.42,0,0,0-.08.26,1.77,1.77,0,0,0,.17.53l1.49,3.57a1.57,1.57,0,0,0,.26.5.39.39,0,0,0,.25.11.87.87,0,0,0,.4-.07l.18-.08.06.15-2.84,1.18-.06-.14.18-.08a.76.76,0,0,0,.34-.24.43.43,0,0,0,.09-.26,2.16,2.16,0,0,0-.17-.53l-.7-1.68Z"/><path class="cls-2" d="M205.25,400.39l.35,1.61a1.86,1.86,0,0,0,.19.58.42.42,0,0,0,.24.14,1.29,1.29,0,0,0,.56,0l0,.16-2.94.64,0-.16a1.45,1.45,0,0,0,.53-.19.47.47,0,0,0,.16-.24,2.06,2.06,0,0,0-.07-.59l-.82-3.74a1.68,1.68,0,0,0-.19-.57.42.42,0,0,0-.24-.15,1.42,1.42,0,0,0-.55,0l0-.15,2.67-.59a6.39,6.39,0,0,1,1.56-.19,1.63,1.63,0,0,1,.91.36,1.45,1.45,0,0,1,.5.85,1.34,1.34,0,0,1-.23,1.15,1.83,1.83,0,0,1-.73.57l1.81,1.65a2.81,2.81,0,0,0,.49.38.7.7,0,0,0,.43.06l0,.16-1.81.39-2.43-2.21Zm-.61-2.82.55,2.52.24-.06a2.55,2.55,0,0,0,.86-.3.84.84,0,0,0,.37-.49,1.52,1.52,0,0,0,0-.77,1.37,1.37,0,0,0-.52-.9,1.35,1.35,0,0,0-1.06-.1Z"/><path class="cls-2" d="M215.79,396l.08,2h-.18a2,2,0,0,0-.64-1.18,1.55,1.55,0,0,0-1.07-.43,1,1,0,0,0-.7.25.73.73,0,0,0-.25.55.65.65,0,0,0,.1.34,1.43,1.43,0,0,0,.41.4,8.71,8.71,0,0,0,1,.49,4.29,4.29,0,0,1,1.41.94,1.61,1.61,0,0,1,.37,1,1.67,1.67,0,0,1-.55,1.28,2.07,2.07,0,0,1-1.45.55,2.22,2.22,0,0,1-.53-.05,3.64,3.64,0,0,1-.63-.2,1.08,1.08,0,0,0-.34-.08.42.42,0,0,0-.24.09.64.64,0,0,0-.2.27h-.16l0-2.22h.16a2.47,2.47,0,0,0,.76,1.41,1.71,1.71,0,0,0,1.18.48,1.13,1.13,0,0,0,.77-.28.83.83,0,0,0,.28-.62.75.75,0,0,0-.12-.4,1.45,1.45,0,0,0-.34-.37,5.14,5.14,0,0,0-.81-.44,6.89,6.89,0,0,1-1.16-.66,2,2,0,0,1-.55-.61,1.61,1.61,0,0,1,.29-2,1.84,1.84,0,0,1,1.3-.52,2,2,0,0,1,.55.07,2.37,2.37,0,0,1,.5.18,1,1,0,0,0,.42.13.21.21,0,0,0,.17-.07.73.73,0,0,0,.12-.33Z"/><path class="cls-2" d="M220.75,396.52a2.91,2.91,0,0,1,2.67,3.46,3.1,3.1,0,0,1-.95,1.84,2.86,2.86,0,0,1-2.59.74,3,3,0,0,1-2.27-1.44,3.14,3.14,0,0,1-.37-2.1,3,3,0,0,1,1.22-2A2.84,2.84,0,0,1,220.75,396.52Zm0,.29a1.31,1.31,0,0,0-1.34.62,4.38,4.38,0,0,0-.63,1.87,3.72,3.72,0,0,0,.18,2.29,1.34,1.34,0,0,0,1.71.55,1.83,1.83,0,0,0,.73-.79,5,5,0,0,0,.45-1.54,5.09,5.09,0,0,0,0-1.76,1.65,1.65,0,0,0-.42-.89A1.29,1.29,0,0,0,220.76,396.81Z"/><path class="cls-2" d="M229,402.79l-.87,1.88-5-1.68.05-.15.18.06a.81.81,0,0,0,.42.05.36.36,0,0,0,.23-.14,1.62,1.62,0,0,0,.22-.5l1.25-3.67a1.66,1.66,0,0,0,.13-.55.37.37,0,0,0-.12-.25.66.66,0,0,0-.34-.21l-.19-.06.06-.15,3,1-.05.16-.24-.09a.81.81,0,0,0-.42,0,.38.38,0,0,0-.24.14,1.62,1.62,0,0,0-.22.5l-1.21,3.55a2,2,0,0,0-.13.57.36.36,0,0,0,.13.24,2.57,2.57,0,0,0,.49.2l.46.16a1.65,1.65,0,0,0,.8.09,1.37,1.37,0,0,0,.68-.32,4.21,4.21,0,0,0,.74-.85Z"/><path class="cls-2" d="M231.43,399.65l2.67,1.44-.07.14-.14-.07a.93.93,0,0,0-.45-.16.44.44,0,0,0-.25.08,2.4,2.4,0,0,0-.35.53l-1.36,2.54a2.94,2.94,0,0,0-.39,1,1,1,0,0,0,.14.56,1.31,1.31,0,0,0,.53.48,1.47,1.47,0,0,0,.82.19,1.29,1.29,0,0,0,.72-.28,3.48,3.48,0,0,0,.77-1.08l1.14-2.11a1.51,1.51,0,0,0,.2-.54.49.49,0,0,0-.08-.31,1.29,1.29,0,0,0-.44-.35l.08-.14,1.79,1-.07.14-.11-.06a.82.82,0,0,0-.41-.11.54.54,0,0,0-.35.16,1.5,1.5,0,0,0-.29.41l-1.06,2a5.17,5.17,0,0,1-.83,1.25,1.63,1.63,0,0,1-1,.43,2.38,2.38,0,0,1-1.45-.34,2.87,2.87,0,0,1-.95-.74,1.85,1.85,0,0,1-.37-1,2.5,2.5,0,0,1,.35-1.14l1.37-2.54a2.23,2.23,0,0,0,.25-.58.47.47,0,0,0-.08-.27,1.25,1.25,0,0,0-.42-.3Z"/><path class="cls-2" d="M242,406.45l-1,1.26-.12-.1a2.62,2.62,0,0,0,.24-.81,1.24,1.24,0,0,0-.13-.59,1.71,1.71,0,0,0-.41-.42l-.35-.27-2.78,3.59a2.1,2.1,0,0,0-.31.48.49.49,0,0,0,0,.28.87.87,0,0,0,.26.31l.15.12-.09.12L235,408.54l.1-.13.15.12a.93.93,0,0,0,.38.18.39.39,0,0,0,.27-.06,1.64,1.64,0,0,0,.37-.4l2.78-3.59-.33-.26a1.27,1.27,0,0,0-.84-.33,1.68,1.68,0,0,0-1,.5l-.13-.1,1-1.26Z"/><path class="cls-2" d="M240.83,413.42l-.12.12-2.18-2.18.12-.11.14.14a.81.81,0,0,0,.35.22.37.37,0,0,0,.27,0,2,2,0,0,0,.42-.36l2.74-2.74a2,2,0,0,0,.36-.43.52.52,0,0,0,0-.28.89.89,0,0,0-.22-.34l-.14-.13.11-.12,2.18,2.18-.11.11-.14-.14a.78.78,0,0,0-.36-.22.37.37,0,0,0-.27,0,1.61,1.61,0,0,0-.42.35l-2.73,2.74a1.83,1.83,0,0,0-.37.44.44.44,0,0,0,0,.28.71.71,0,0,0,.22.33Z"/><path class="cls-2" d="M247.65,412.59a2.91,2.91,0,0,1-.48,4.33,3.06,3.06,0,0,1-2,.67,2.9,2.9,0,0,1-2.38-1.27,3,3,0,0,1-.62-2.61,3.08,3.08,0,0,1,1.19-1.77,3,3,0,0,1,2.28-.61A2.83,2.83,0,0,1,247.65,412.59Zm-.19.21a1.34,1.34,0,0,0-1.4-.49,4.59,4.59,0,0,0-1.75.91,3.76,3.76,0,0,0-1.46,1.76,1.23,1.23,0,0,0,.22,1.13,1.28,1.28,0,0,0,.63.47,1.75,1.75,0,0,0,1.07-.07,4.83,4.83,0,0,0,1.39-.79,5.25,5.25,0,0,0,1.26-1.23,1.7,1.7,0,0,0,.32-.93A1.27,1.27,0,0,0,247.46,412.8Z"/><path class="cls-2" d="M251.1,418.08l-1.94,4.24,2.26-1.15a1.23,1.23,0,0,0,.57-.46.87.87,0,0,0-.1-.73l.14-.07.88,1.73-.14.08a1.5,1.5,0,0,0-.34-.4.51.51,0,0,0-.31-.06,1.9,1.9,0,0,0-.56.2l-4.37,2.22-.06-.13,2.56-5.77-3.33,1.69c-.31.16-.47.33-.51.52a.84.84,0,0,0,.08.56l.06.12-.14.07-.94-1.86.14-.07a.72.72,0,0,0,1.16.38l3.71-1.88.08-.18a1.27,1.27,0,0,0,.13-.44,1,1,0,0,0-.12-.4l.15-.08Z"/><path class="cls-2" d="M254.65,426.41l-1.85.66-.06-.17a2,2,0,0,0,.94-1,1.55,1.55,0,0,0,.09-1.15,1,1,0,0,0-.44-.59.72.72,0,0,0-.6-.08.69.69,0,0,0-.3.2,1.51,1.51,0,0,0-.26.51,8.8,8.8,0,0,0-.19,1.05,4.22,4.22,0,0,1-.48,1.62,1.68,1.68,0,0,1-2.25.51,2.08,2.08,0,0,1-1-1.22,2.51,2.51,0,0,1-.1-.52,3.59,3.59,0,0,1,0-.66.77.77,0,0,0,0-.35.42.42,0,0,0-.16-.2.57.57,0,0,0-.31-.11l-.05-.15,2.11-.69.05.15a2.58,2.58,0,0,0-1.13,1.14,1.72,1.72,0,0,0-.1,1.27,1.1,1.1,0,0,0,.49.66.86.86,0,0,0,.68.08.85.85,0,0,0,.35-.23,1.23,1.23,0,0,0,.24-.44,4.59,4.59,0,0,0,.19-.9,6.91,6.91,0,0,1,.28-1.31,2,2,0,0,1,.42-.7,1.62,1.62,0,0,1,2-.3,1.84,1.84,0,0,1,.88,1.08,2.2,2.2,0,0,1,.1.55,2.72,2.72,0,0,1,0,.54,1.17,1.17,0,0,0,0,.43.23.23,0,0,0,.12.15,1,1,0,0,0,.36,0Z"/><circle class="cls-3" cx="214.34" cy="437.83" r="32.98"/><circle class="cls-5" cx="214.34" cy="437.83" r="20.39"/><path class="cls-4" d="M214.44,405.35s2,3.47-2.09,6c-5.52,3.35-15.21,10.2-2.75,15.78,0,0-4-5.78.72-9.6S222.31,409.75,214.44,405.35Z"/><path class="cls-4" d="M219.09,409.7s1.64,2.78-1.67,4.78c-4.41,2.68-12.16,8.17-2.19,12.63,0,0-3.23-4.62.57-7.68S225.39,413.22,219.09,409.7Z"/><path class="cls-4" d="M222.91,414.19s1.31,2.22-1.33,3.83c-3.53,2.14-9.74,6.53-1.76,10.1,0,0-2.58-3.7.46-6.14S228,417,222.91,414.19Z"/><rect class="cls-2" x="201.16" y="429" width="26.36" height="3.9"/><path class="cls-2" d="M203.88,433.79H224.8a0,0,0,0,1,0,0v2.1a2.33,2.33,0,0,1-2.33,2.33H206.21a2.33,2.33,0,0,1-2.33-2.33v-2.1A0,0,0,0,1,203.88,433.79Z"/><polygon class="cls-2" points="218.04 462.98 210.63 462.98 208.66 439.82 220.01 439.82 218.04 462.98"/><polygon class="cls-2" points="208.66 463.87 208.66 467.54 211.44 467.54 211.44 470.31 217.23 470.31 217.23 467.54 220.01 467.54 220.01 463.87 208.66 463.87"/><path class="cls-2" d="M273.67,450V423h11.19l1,0a9.68,9.68,0,0,1,1.15.12,8.2,8.2,0,0,1,3.88,1.56,7.33,7.33,0,0,1,2.28,3,10.84,10.84,0,0,1,.74,4.07,9.65,9.65,0,0,1-1.67,5.69,7.42,7.42,0,0,1-5.14,3l-1.94.17h-7V450Zm4.53-13.7h6.47l.85,0a5.42,5.42,0,0,0,.87-.15,3.5,3.5,0,0,0,1.78-1,4.23,4.23,0,0,0,.92-1.62,6.14,6.14,0,0,0,.27-1.77,6.31,6.31,0,0,0-.27-1.78,4.16,4.16,0,0,0-.92-1.62,3.5,3.5,0,0,0-1.78-1,3.86,3.86,0,0,0-.87-.14l-.85,0H278.2Zm11,13.7-5.35-11,4.61-1,5.87,12Z"/><path class="cls-2" d="M298.88,426.64v-4.16h4.53v4.16Zm0,23.4V429.72h4.53V450Z"/><path class="cls-2" d="M317.2,450.61a8.53,8.53,0,0,1-4.89-1.42,9.33,9.33,0,0,1-3.23-3.83,12.62,12.62,0,0,1-1.15-5.48,12.45,12.45,0,0,1,1.16-5.5,9.2,9.2,0,0,1,3.28-3.82,8.83,8.83,0,0,1,5-1.4,8.17,8.17,0,0,1,4.87,1.4,8.69,8.69,0,0,1,3,3.83,15.37,15.37,0,0,1,0,11,8.66,8.66,0,0,1-3,3.84A8.49,8.49,0,0,1,317.2,450.61Zm.4,9a10.11,10.11,0,0,1-3.25-.53,9.21,9.21,0,0,1-2.79-1.52,7.89,7.89,0,0,1-2-2.38l4.17-2.06a3.79,3.79,0,0,0,1.65,1.64,4.93,4.93,0,0,0,2.27.54,6.13,6.13,0,0,0,2.52-.5,3.81,3.81,0,0,0,1.72-1.47,4.17,4.17,0,0,0,.57-2.42v-5.77H323V429.72h4V451a14.25,14.25,0,0,1-.07,1.48,10.43,10.43,0,0,1-.21,1.38,6.46,6.46,0,0,1-1.74,3.24,7.89,7.89,0,0,1-3.17,1.9A13.44,13.44,0,0,1,317.6,459.64Zm.3-13.1a4.75,4.75,0,0,0,2.94-.84,4.64,4.64,0,0,0,1.64-2.34,11.94,11.94,0,0,0,0-7,4.78,4.78,0,0,0-1.61-2.33,4.5,4.5,0,0,0-2.82-.84,4.89,4.89,0,0,0-3,.89,5.27,5.27,0,0,0-1.75,2.41,9.48,9.48,0,0,0-.56,3.36,9.78,9.78,0,0,0,.55,3.38,5.24,5.24,0,0,0,1.7,2.4A4.65,4.65,0,0,0,317.9,446.54Z"/><path class="cls-2" d="M332.2,450V423h4v14.26h.55V450Zm14.09,0v-9.78a18.64,18.64,0,0,0-.13-2.13,7.75,7.75,0,0,0-.61-2.25,4.34,4.34,0,0,0-1.43-1.77,4.23,4.23,0,0,0-2.57-.7,5.28,5.28,0,0,0-1.71.28,3.9,3.9,0,0,0-1.54,1,5,5,0,0,0-1.1,1.88,9.72,9.72,0,0,0-.41,3.06l-2.69-1.15a10.76,10.76,0,0,1,1-4.7,8,8,0,0,1,3-3.36,8.78,8.78,0,0,1,4.81-1.25,8.17,8.17,0,0,1,3.73.75,6.45,6.45,0,0,1,2.33,1.92,8.25,8.25,0,0,1,1.28,2.48,12.37,12.37,0,0,1,.54,2.5c.08.78.12,1.42.12,1.91V450Z"/><path class="cls-2" d="M353.51,433.28v-3.56h14.17v3.56ZM367.68,450a19.06,19.06,0,0,1-3.94.33,8.91,8.91,0,0,1-3.45-.72,4.72,4.72,0,0,1-2.32-2.11,6.07,6.07,0,0,1-.73-2.69c0-.92,0-2,0-3.11V424.08h4.52v17.4c0,.82,0,1.53,0,2.15a3,3,0,0,0,.39,1.5,2.63,2.63,0,0,0,2.16,1.26,14.35,14.35,0,0,0,3.39-.15Z"/><path class="cls-2" d="M379.59,450V423h4.53v11.4H397V423h4.52V450H397V438.6H384.12V450Z"/><path class="cls-2" d="M406.74,450V423h11.19l1,0a9.51,9.51,0,0,1,1.14.12,8.19,8.19,0,0,1,3.89,1.56,7.33,7.33,0,0,1,2.28,3,10.84,10.84,0,0,1,.74,4.07,9.59,9.59,0,0,1-1.68,5.69,7.38,7.38,0,0,1-5.13,3l-1.94.17h-7V450Zm4.53-13.7h6.47l.85,0a5.29,5.29,0,0,0,.86-.15,3.42,3.42,0,0,0,1.78-1,4.11,4.11,0,0,0,.92-1.62,5.83,5.83,0,0,0,.28-1.77,6,6,0,0,0-.28-1.78,4,4,0,0,0-.92-1.62,3.42,3.42,0,0,0-1.78-1,3.77,3.77,0,0,0-.86-.14l-.85,0h-6.47Zm11,13.7L417,439l4.61-1,5.87,12Z"/><path class="cls-2" d="M449.12,450.61a13.3,13.3,0,0,1-5.35-1,10,10,0,0,1-3.91-3,9.71,9.71,0,0,1-1.95-4.58l4.7-.72a6.26,6.26,0,0,0,2.48,3.73,7.38,7.38,0,0,0,4.32,1.31,8.13,8.13,0,0,0,2.72-.45,5,5,0,0,0,2.08-1.32,3,3,0,0,0,.8-2.12,2.76,2.76,0,0,0-.19-1,2.49,2.49,0,0,0-.55-.85,4.16,4.16,0,0,0-.94-.69,6.83,6.83,0,0,0-1.33-.53l-7-2.07a17.38,17.38,0,0,1-1.94-.71,7.62,7.62,0,0,1-2-1.22,5.93,5.93,0,0,1-1.52-2,6.74,6.74,0,0,1-.6-3,7.18,7.18,0,0,1,1.33-4.39,7.94,7.94,0,0,1,3.58-2.66,13.27,13.27,0,0,1,5-.87,13,13,0,0,1,5,.95,9.55,9.55,0,0,1,3.65,2.7,10.46,10.46,0,0,1,2.07,4.27l-4.88.85a5.42,5.42,0,0,0-1.15-2.44,5.59,5.59,0,0,0-2.09-1.53,7.25,7.25,0,0,0-2.63-.57,7.07,7.07,0,0,0-2.51.41,4.56,4.56,0,0,0-1.86,1.21,2.69,2.69,0,0,0-.71,1.85,2.22,2.22,0,0,0,.61,1.62,4.25,4.25,0,0,0,1.49,1,13.41,13.41,0,0,0,1.82.61l4.85,1.36c.67.17,1.41.41,2.24.71a10.17,10.17,0,0,1,2.39,1.26,6.51,6.51,0,0,1,1.89,2.13,6.7,6.7,0,0,1,.74,3.35,7.57,7.57,0,0,1-.87,3.69,7.8,7.8,0,0,1-2.36,2.65,10.84,10.84,0,0,1-3.4,1.58A15,15,0,0,1,449.12,450.61Z"/><path class="cls-2" d="M472.81,450.61a10,10,0,0,1-5.32-1.38,9.29,9.29,0,0,1-3.53-3.79,13,13,0,0,1,0-11.17,9.39,9.39,0,0,1,3.55-3.76,11,11,0,0,1,10.61,0,9.44,9.44,0,0,1,3.54,3.79,12.9,12.9,0,0,1,0,11.14,9.44,9.44,0,0,1-3.55,3.78A10.13,10.13,0,0,1,472.81,450.61Zm0-4.26a4.66,4.66,0,0,0,4-1.8,7.8,7.8,0,0,0,1.31-4.67,7.59,7.59,0,0,0-1.33-4.71,4.73,4.73,0,0,0-4-1.76,5.09,5.09,0,0,0-3,.82,4.69,4.69,0,0,0-1.74,2.27,9.28,9.28,0,0,0-.57,3.38,7.53,7.53,0,0,0,1.35,4.71A4.67,4.67,0,0,0,472.81,446.35Z"/><path class="cls-2" d="M487.47,450V422.38H492V450Z"/><path class="cls-2" d="M505.26,450.62a8.16,8.16,0,0,1-3.72-.75A6.58,6.58,0,0,1,499.2,448a8.61,8.61,0,0,1-1.28-2.48,13.1,13.1,0,0,1-.53-2.49c-.08-.79-.12-1.42-.12-1.91V429.72h4.59v9.78a18.6,18.6,0,0,0,.13,2.12,7.65,7.65,0,0,0,.61,2.26,4.44,4.44,0,0,0,1.43,1.78,4.28,4.28,0,0,0,2.57.69,5.33,5.33,0,0,0,1.71-.28,3.8,3.8,0,0,0,1.53-1,4.8,4.8,0,0,0,1.1-1.89,9.38,9.38,0,0,0,.42-3l2.69,1.15a10.76,10.76,0,0,1-1,4.7,8,8,0,0,1-3,3.36A8.73,8.73,0,0,1,505.26,450.62Zm6.64-.58v-6.3h-.54v-14h4.55V450Z"/><path class="cls-2" d="M518.92,433.28v-3.56h14.17v3.56ZM533.09,450a19.06,19.06,0,0,1-3.94.33,9,9,0,0,1-3.46-.72,4.74,4.74,0,0,1-2.31-2.11,6.07,6.07,0,0,1-.73-2.69c0-.92,0-2,0-3.11V424.08h4.51v17.4c0,.82,0,1.53,0,2.15a3,3,0,0,0,.39,1.5,2.63,2.63,0,0,0,2.16,1.26,14.35,14.35,0,0,0,3.39-.15Z"/><path class="cls-2" d="M537.85,426.64v-4.16h4.53v4.16Zm0,23.4V429.72h4.53V450Z"/><path class="cls-2" d="M557,450.61a10,10,0,0,1-5.32-1.38,9.29,9.29,0,0,1-3.53-3.79,13,13,0,0,1,0-11.17,9.39,9.39,0,0,1,3.55-3.76,11,11,0,0,1,10.61,0,9.44,9.44,0,0,1,3.54,3.79,12.9,12.9,0,0,1,0,11.14,9.44,9.44,0,0,1-3.55,3.78A10.13,10.13,0,0,1,557,450.61Zm0-4.26a4.66,4.66,0,0,0,4-1.8,7.8,7.8,0,0,0,1.31-4.67,7.59,7.59,0,0,0-1.33-4.71,4.73,4.73,0,0,0-4-1.76,5.09,5.09,0,0,0-3,.82,4.75,4.75,0,0,0-1.74,2.27,9.28,9.28,0,0,0-.57,3.38,7.53,7.53,0,0,0,1.35,4.71A4.67,4.67,0,0,0,557,446.35Z"/><path class="cls-2" d="M571.24,450V429.72h4V436h.54v14Zm14.09,0v-9.78a18.64,18.64,0,0,0-.13-2.13,7.75,7.75,0,0,0-.61-2.25,4.34,4.34,0,0,0-1.43-1.77,4.21,4.21,0,0,0-2.57-.7,5.28,5.28,0,0,0-1.71.28,3.8,3.8,0,0,0-1.53,1,4.83,4.83,0,0,0-1.1,1.88,9.41,9.41,0,0,0-.42,3.06l-2.69-1.15a10.76,10.76,0,0,1,1-4.7,8,8,0,0,1,3-3.36,8.82,8.82,0,0,1,4.82-1.25,8.16,8.16,0,0,1,3.72.75,6.58,6.58,0,0,1,2.34,1.92,8.46,8.46,0,0,1,1.27,2.48,12.37,12.37,0,0,1,.54,2.5c.08.78.12,1.42.12,1.91V450Z"/><path class="cls-2" d="M602.66,450.61a10.18,10.18,0,0,1-6.11-1.7,7,7,0,0,1-2.86-4.76l4.62-.71a4,4,0,0,0,1.58,2.37,5.29,5.29,0,0,0,3.09.86,4.21,4.21,0,0,0,2.53-.65,2.05,2.05,0,0,0,.89-1.77,1.76,1.76,0,0,0-.33-1.12,3.06,3.06,0,0,0-1.43-.82c-.74-.27-1.88-.6-3.41-1a20.07,20.07,0,0,1-4.06-1.46A5.33,5.33,0,0,1,595,438a4.88,4.88,0,0,1-.66-2.6,5.63,5.63,0,0,1,1-3.31,6.38,6.38,0,0,1,2.79-2.17,10.62,10.62,0,0,1,4.21-.76,11.29,11.29,0,0,1,4.21.73,7.33,7.33,0,0,1,3,2.09,6.29,6.29,0,0,1,1.39,3.18l-4.63.83a2.9,2.9,0,0,0-1.17-2.05,4.79,4.79,0,0,0-2.68-.85,4.56,4.56,0,0,0-2.58.48,1.79,1.79,0,0,0-1,1.61,1.34,1.34,0,0,0,.4,1,4.05,4.05,0,0,0,1.58.83q1.2.42,3.57,1a17.09,17.09,0,0,1,3.89,1.42,5.25,5.25,0,0,1,2.1,1.91,5.18,5.18,0,0,1,.65,2.69,5.79,5.79,0,0,1-2.23,4.82A9.77,9.77,0,0,1,602.66,450.61Z"/><path class="cls-3" d="M94.42,395.38l12.19,22.29a20,20,0,0,0,8,8l22.29,12.19L114.58,450a20,20,0,0,0-8,8L94.42,480.28,82.23,458a20.06,20.06,0,0,0-8-8L52,437.83l22.28-12.19a20.06,20.06,0,0,0,8-8Z"/><path class="cls-3" d="M687.24,395.38l12.19,22.29a20.06,20.06,0,0,0,8,8l22.28,12.19L707.41,450a20.06,20.06,0,0,0-8,8l-12.19,22.29L675.05,458a20,20,0,0,0-8-8l-22.29-12.19,22.29-12.19a20,20,0,0,0,8-8Z"/></g></g></svg>