<svg width="71" height="70" viewBox="0 0 71 70" fill="none" xmlns="http://www.w3.org/2000/svg">
<rect x="0.5" width="70" height="70" rx="35" fill="white" fill-opacity="0.5"/>
<g clip-path="url(#clip0_13_1678)">
<path d="M20.6761 47.5903C20.9524 48.4615 21.8456 49.0415 22.7614 49.0384C28.3451 49.0181 33.9287 49.0181 39.5124 49.0384C39.7994 49.0438 40.0845 48.9913 40.3506 48.884C40.6168 48.7767 40.8586 48.6168 41.0615 48.4138C41.2645 48.2109 41.4244 47.9691 41.5317 47.7029C41.639 47.4367 41.6916 47.1516 41.6861 46.8647C41.6564 45.2553 41.6861 43.6436 41.6728 42.0335C41.666 41.8793 41.6928 41.7255 41.7515 41.5827C41.8101 41.44 41.8992 41.3117 42.0125 41.2069C44.1871 39.0465 46.349 36.8743 48.5204 34.71C48.9423 34.2897 49.34 33.849 49.7517 33.4169C50.6292 32.5011 50.6362 31.2714 49.7642 30.3782C48.8922 29.4851 47.603 29.4436 46.6887 30.2843C46.2723 30.6679 45.8841 31.0811 45.4833 31.4811C44.3786 32.5869 43.2731 33.6916 42.1668 34.7953C42.0611 34.901 41.9554 35.0873 41.7996 35.0458L41.7605 35.081V35.0302C41.6243 34.9597 41.6783 34.7507 41.6783 34.6028C41.6783 30.7767 41.6783 26.9503 41.6783 23.1236C41.6851 22.6547 41.5281 22.1981 41.2343 21.8326C40.9405 21.4671 40.5284 21.2155 40.069 21.1213C39.9154 21.0927 39.7593 21.0803 39.6032 21.0845C33.9517 21.0845 28.2999 21.0845 22.6479 21.0845C21.7227 21.0853 21.0135 21.5863 20.6769 22.4638C20.6417 22.5553 20.6479 22.6876 20.5 22.6986V47.3555C20.6479 47.3664 20.6472 47.4979 20.6761 47.5903ZM47.0433 30.9504C47.1887 30.7862 47.3676 30.6551 47.568 30.5661C47.7684 30.4771 47.9857 30.4323 48.205 30.4346C48.875 30.4158 49.2742 30.8189 49.5356 31.3551C49.79 31.8764 49.6836 32.379 49.2789 32.8071C49.236 32.859 49.1965 32.9137 49.1607 32.9707C49.0738 33.0936 48.9987 33.096 48.8844 32.9833C48.2817 32.386 47.6711 31.795 47.059 31.2064C46.9682 31.1172 46.9384 31.0624 47.0433 30.9504ZM46.1471 31.8506C46.2457 31.752 46.3083 31.6807 46.4406 31.824C47.0559 32.4909 47.6821 33.1484 48.3592 33.867C47.5529 34.6497 46.6621 35.4983 45.7933 36.3671C43.3438 38.8198 40.9005 41.2763 38.4635 43.7368C38.2913 43.9106 38.206 43.9137 38.0393 43.7368C37.4843 43.1466 36.9137 42.572 36.3415 41.9983C36.2186 41.8762 36.1849 41.8081 36.3305 41.6625C39.6056 38.3963 42.8778 35.1257 46.1471 31.8506ZM37.4585 44.2855L35.0906 44.882L35.7638 42.6973L37.4585 44.2855ZM21.3203 23.2387C21.3203 22.3417 21.8401 21.8211 22.734 21.8211C28.3276 21.8211 33.9209 21.8211 39.514 21.8211C40.4275 21.8211 40.9402 22.337 40.9402 23.2559C40.9402 27.3946 40.9417 31.5331 40.9449 35.6712C40.9489 35.7526 40.935 35.8339 40.904 35.9093C40.873 35.9847 40.8258 36.0522 40.7656 36.1072C39.0357 37.8293 37.3215 39.5647 35.5767 41.2734C35.314 41.526 35.1235 41.844 35.0249 42.1948C34.7611 43.0667 34.4769 43.9325 34.2092 44.8045C34.1466 45.0088 34.0621 45.0847 33.8319 45.0847C30.3471 45.0748 26.8623 45.0724 23.3774 45.0777C23.2805 45.0659 23.1822 45.0709 23.087 45.0925C22.8905 45.1708 22.7606 45.3125 22.788 45.5395C22.7901 45.5887 22.8019 45.637 22.8228 45.6816C22.8436 45.7262 22.8731 45.7662 22.9094 45.7994C22.9458 45.8325 22.9884 45.8582 23.0347 45.8749C23.081 45.8915 23.1302 45.8988 23.1794 45.8964C23.2475 45.8964 23.3156 45.8964 23.3845 45.8964H38.8753C38.934 45.8964 38.9927 45.8964 39.0506 45.8964C39.3246 45.8855 39.4842 45.732 39.478 45.487C39.4763 45.4313 39.4635 45.3764 39.4405 45.3256C39.4174 45.2748 39.3845 45.2291 39.3437 45.1911C39.3028 45.1531 39.2549 45.1236 39.2025 45.1042C39.1502 45.0849 39.0946 45.0761 39.0389 45.0784C38.6584 45.073 38.278 45.0784 37.8976 45.0784C38.3171 45.0002 38.6021 44.7653 38.8768 44.4726C39.5351 43.7814 40.2185 43.1161 40.8963 42.4374C40.9746 42.5306 40.941 42.6206 40.941 42.7012C40.9441 44.0679 40.9441 45.4343 40.941 46.8005C40.941 47.7727 40.4118 48.3018 39.4435 48.3018H22.8091C21.8597 48.3018 21.3219 47.768 21.3219 46.8209C21.3203 38.9573 21.3198 31.0965 21.3203 23.2387Z" fill="#050615"/>
<path d="M20.6769 22.4638C21.0135 21.5863 21.7227 21.0853 22.651 21.0853C28.3025 21.0853 33.9543 21.0853 39.6063 21.0853C39.7625 21.0811 39.9186 21.0935 40.0721 21.1221C40.5305 21.2174 40.9414 21.4694 41.2341 21.8349C41.5268 22.2003 41.683 22.6563 41.676 23.1244C41.676 26.9505 41.676 30.7769 41.676 34.6036C41.676 34.7515 41.622 34.9605 41.7582 35.0309V34.7178C41.7582 30.8442 41.7582 26.9704 41.7582 23.0962C41.7614 22.8225 41.7103 22.5508 41.6079 22.297C41.5055 22.0431 41.3538 21.812 41.1616 21.6171C40.9694 21.4222 40.7404 21.2673 40.488 21.1614C40.2356 21.0554 39.9646 21.0006 39.6909 21C33.9814 21 28.2725 21 22.5641 21C21.9207 21 21.4033 21.2779 20.9806 21.753C20.7348 22.0278 20.6385 22.373 20.5 22.6986C20.6479 22.6876 20.6417 22.5553 20.6769 22.4638Z" fill="#050615"/>
<path d="M22.7624 49.1128C28.345 49.1128 33.9269 49.0956 39.5087 49.1245C40.8535 49.1316 41.7944 48.0756 41.7693 46.8733C41.7357 45.1857 41.7615 43.4973 41.7599 41.8089C41.7599 41.6711 41.7693 41.5537 41.882 41.4417C44.3383 38.9995 46.7897 36.5521 49.236 34.0995C49.6039 33.7292 49.9969 33.3652 50.2474 32.894C50.7765 31.8991 50.4564 30.7414 49.4646 30.0127C49.0413 29.7091 48.5243 29.565 48.0049 29.606C47.4856 29.6469 46.9976 29.8703 46.6271 30.2366C45.0866 31.7739 43.5472 33.3133 42.0088 34.8548C41.9486 34.9151 41.882 34.973 41.7983 35.0482C41.9548 35.0897 42.0597 34.9034 42.1654 34.7977C43.2727 33.6961 44.3777 32.5924 45.4804 31.4866C45.8811 31.0866 46.2694 30.6733 46.6858 30.2898C47.6001 29.4491 48.8916 29.4937 49.7613 30.3837C50.6309 31.2737 50.6262 32.5066 49.7488 33.4224C49.337 33.8521 48.9394 34.2952 48.5175 34.7155C46.3461 36.879 44.1841 39.0512 42.0096 41.2124C41.8963 41.3172 41.8072 41.4454 41.7485 41.5882C41.6899 41.731 41.663 41.8848 41.6699 42.039C41.6824 43.6491 41.6535 45.2608 41.6832 46.8702C41.6886 47.1571 41.6361 47.4422 41.5288 47.7084C41.4215 47.9746 41.2616 48.2164 41.0586 48.4193C40.8557 48.6222 40.6139 48.7822 40.3477 48.8895C40.0815 48.9968 39.7964 49.0493 39.5095 49.0439C33.9258 49.0141 28.3421 49.0141 22.7585 49.0439C21.8426 49.0439 20.9495 48.467 20.6732 47.5958C20.6442 47.5034 20.645 47.3719 20.4971 47.361C20.5143 47.3829 20.5409 47.4024 20.5472 47.4267C20.8517 48.5288 21.6133 49.112 22.7624 49.1128Z" fill="#050615"/>
<path d="M26.4991 33.6502C27.1042 33.6502 27.7092 33.6557 28.3143 33.6502C28.4708 33.6502 28.5374 33.6816 28.528 33.8553C28.5131 34.1371 28.528 34.4213 28.5217 34.7038C28.5147 34.9089 28.5272 35.1297 28.7284 35.2079C28.8335 35.2482 28.9477 35.2584 29.0582 35.2375C29.1688 35.2167 29.2714 35.1655 29.3546 35.0897C29.8931 34.6483 30.4411 34.2287 30.9804 33.7958C31.0984 33.6959 31.2493 33.6432 31.4038 33.6479C32.8191 33.6534 34.2343 33.6479 35.6487 33.6479C36.4472 33.6479 36.9012 33.197 36.9012 32.4017V24.4959C36.9012 23.6998 36.4777 23.281 35.6707 23.2803C34.1573 23.2803 32.644 23.2803 31.1307 23.2803V23.2215C29.5785 23.2215 28.027 23.2215 26.4756 23.2215C26.3288 23.2194 26.183 23.2468 26.047 23.3021C25.911 23.3574 25.7875 23.4395 25.6838 23.5435C25.5801 23.6475 25.4984 23.7712 25.4435 23.9074C25.3885 24.0436 25.3615 24.1894 25.3641 24.3362C25.3568 27.0696 25.3565 29.8019 25.3633 32.5332C25.3649 33.1775 25.8525 33.6479 26.4991 33.6502ZM26.5554 24.1006C29.6098 24.1006 32.6643 24.1006 35.7192 24.1006C35.983 24.1006 36.0816 24.2188 36.0816 24.4747C36.0785 27.1189 36.0785 29.7636 36.0816 32.4088C36.0816 32.7313 35.972 32.8276 35.6245 32.8276C34.1111 32.8276 32.5978 32.8276 31.0845 32.8276C30.9101 32.8196 30.7392 32.8781 30.6062 32.9912C30.2148 33.3207 29.8008 33.6322 29.3444 33.9907C29.3444 33.716 29.3444 33.5039 29.3444 33.2917C29.3397 32.9716 29.2027 32.8323 28.881 32.8315C28.1296 32.8315 27.3781 32.8315 26.6267 32.8315C26.2916 32.8315 26.1844 32.7328 26.1836 32.3994C26.1836 29.7545 26.1836 27.1103 26.1836 24.4654C26.1789 24.1992 26.301 24.1022 26.5554 24.1029V24.1006Z" fill="#050615"/>
<path d="M23.2543 37.5162C25.362 37.5162 27.4708 37.5162 29.5806 37.5162C31.6784 37.5162 33.7764 37.5162 35.8747 37.5162C36.2074 37.5162 36.3726 37.384 36.3749 37.1249C36.3772 36.8658 36.1847 36.7014 35.8614 36.7006H32.9339C29.7434 36.7006 26.5523 36.7006 23.3608 36.7006C23.2465 36.7006 23.1259 36.674 23.0195 36.7429C22.8465 36.8533 22.7455 37.0043 22.7964 37.2086C22.8488 37.438 23.0187 37.5162 23.2543 37.5162Z" fill="#050615"/>
<path d="M31.0122 40.9094C28.4364 40.9146 25.8606 40.916 23.2848 40.9133C22.9811 40.9133 22.7916 41.0699 22.7854 41.3219C22.7783 41.5865 22.9466 41.7321 23.2699 41.7321C24.5573 41.7321 25.8452 41.7321 27.1336 41.7321C28.422 41.7321 29.7099 41.7321 30.9973 41.7321C31.1351 41.7321 31.2713 41.736 31.3808 41.6327C31.4417 41.5823 31.4852 41.5142 31.5054 41.4379C31.5257 41.3615 31.5215 41.2807 31.4936 41.2069C31.4129 40.9971 31.2501 40.9086 31.0122 40.9094Z" fill="#050615"/>
<path d="M28.6112 27.2074C28.8059 27.2175 29.0011 27.2175 29.1959 27.2074C29.3524 27.1956 29.4135 27.2543 29.4636 27.3952C29.707 28.0826 30.0498 28.7305 30.4812 29.3185C30.568 29.4374 30.5649 29.5016 30.4624 29.6057C30.075 30.0042 29.634 30.3467 29.152 30.6233C28.9438 30.7407 28.817 30.8989 28.8843 31.1462C28.9517 31.3936 29.1466 31.4272 29.3681 31.4272C29.484 31.4257 29.5969 31.3903 29.6929 31.3255C30.1681 31.0359 30.6046 30.6874 30.9923 30.2883C31.1183 30.1568 31.1825 30.1568 31.3054 30.2883C31.6963 30.684 32.1336 31.031 32.6079 31.3215C32.7081 31.3842 32.8044 31.4499 32.9304 31.4233C33.1425 31.4491 33.3038 31.3701 33.3641 31.1634C33.4243 30.9568 33.3547 30.7893 33.1496 30.6773C32.6557 30.4012 32.2032 30.0568 31.8056 29.6543C31.6913 29.5416 31.6897 29.4758 31.7852 29.3466C32.1169 28.8899 32.3926 28.3951 32.6064 27.8727C32.6964 27.6598 32.7159 27.3498 32.8733 27.2465C33.0486 27.1354 33.3429 27.2105 33.5864 27.2066C33.8893 27.2011 34.0764 27.0453 34.0803 26.7925C34.0842 26.5397 33.9237 26.3925 33.5918 26.3863C32.9586 26.3737 32.3253 26.3565 31.6921 26.3542C31.5355 26.3542 31.4933 26.3048 31.5011 26.1546C31.5128 25.9409 31.5113 25.7256 31.5011 25.5111C31.5035 25.4561 31.4948 25.4012 31.4754 25.3497C31.456 25.2981 31.4264 25.2511 31.3883 25.2113C31.3502 25.1715 31.3045 25.1399 31.2539 25.1182C31.2032 25.0966 31.1487 25.0854 31.0937 25.0854C31.0386 25.0854 30.9841 25.0966 30.9335 25.1182C30.8829 25.1399 30.8371 25.1715 30.7991 25.2113C30.761 25.2511 30.7314 25.2981 30.712 25.3497C30.6926 25.4012 30.6838 25.4561 30.6862 25.5111C30.6718 25.7157 30.6718 25.921 30.6862 26.1256C30.7035 26.3174 30.6268 26.3471 30.4514 26.3432C29.837 26.3307 29.2225 26.3307 28.6072 26.333C28.3388 26.333 28.1572 26.517 28.1603 26.7635C28.1588 26.8228 28.1696 26.8818 28.1918 26.9367C28.2141 26.9917 28.2473 27.0415 28.2896 27.0831C28.3318 27.1247 28.3822 27.1572 28.4375 27.1786C28.4928 27.1999 28.5519 27.2097 28.6112 27.2074ZM31.93 27.2215C31.7353 27.7873 31.462 28.3229 31.1183 28.8128C30.7642 28.3247 30.481 27.7889 30.2769 27.2215H31.93Z" fill="#050615"/>
</g>
<defs>
<clipPath id="clip0_13_1678">
<rect width="30" height="28.1245" fill="white" transform="translate(20.5 21)"/>
</clipPath>
</defs>
</svg>
