<svg width="71" height="70" viewBox="0 0 71 70" fill="none" xmlns="http://www.w3.org/2000/svg">
<rect x="0.5" width="70" height="70" rx="35" fill="white" fill-opacity="0.5"/>
<g clip-path="url(#clip0_13_1568)">
<path d="M49.0917 28.1979C49.3848 28.0444 49.674 27.8821 49.9559 27.7133C50.476 27.395 50.6545 26.8063 50.3597 26.2772C49.2855 24.3604 48.203 22.4489 47.1121 20.5428C46.8108 20.0154 46.2123 19.8619 45.6752 20.1478C45.2929 20.3481 44.9174 20.56 44.5485 20.7835C44.0413 21.0928 43.8846 21.6719 44.1512 22.1985C44.215 22.3245 44.2917 22.4408 44.3603 22.5652C44.3902 22.6177 44.4242 22.6823 44.3603 22.7267C44.3078 22.7606 44.2513 22.8269 44.1722 22.7679C44.1156 22.7259 44.0559 22.6871 43.9977 22.6484C41.7535 21.0822 39.1158 20.1754 36.383 20.0307C33.6921 19.8614 31.0062 20.4329 28.6173 21.6832C28.4501 21.7704 28.3637 21.7696 28.2256 21.6105C27.0028 20.2092 25.4722 19.6842 23.6752 20.1858C22.0033 20.6518 20.9517 21.8011 20.606 23.49C20.2604 25.1788 20.7999 26.6035 22.1075 27.7246C22.2634 27.8586 22.2779 27.9459 22.1883 28.1155C21.9025 28.6441 21.6571 29.1935 21.4541 29.7591C20.556 32.1615 20.2915 34.7547 20.686 37.289C20.9069 38.7474 21.3452 40.1644 21.9863 41.4929C22.0736 41.6738 22.0372 41.7433 21.8749 41.824C21.6156 41.9549 21.3652 42.1043 21.1133 42.2497C20.5002 42.6042 20.3387 43.1914 20.6876 43.8157C20.9113 44.2196 21.1399 44.6234 21.3677 45.0216C22.1893 46.4705 23.0105 47.9189 23.8311 49.3668C24.1945 50.0057 24.7728 50.1648 25.4133 49.811C25.7638 49.6172 26.1159 49.4242 26.4576 49.2126C26.9559 48.904 27.1094 48.3475 26.8542 47.8226C26.7928 47.6966 26.7177 47.5803 26.6498 47.4543C26.6167 47.3937 26.569 47.3307 26.6498 47.2709C26.7169 47.2225 26.7855 47.1902 26.8655 47.2564C26.9203 47.3002 26.9777 47.3407 27.0375 47.3775C29.1618 48.8431 31.634 49.7246 34.2064 49.9338C37.2308 50.1863 40.0749 49.5879 42.7386 48.1384C42.812 48.098 42.8791 48.0156 43.014 48.0802C42.9663 48.1828 42.9251 48.274 42.8823 48.3637C42.7765 48.5858 42.7426 48.8128 42.9025 49.0187C43.0624 49.2247 43.2781 49.282 43.5486 49.2231C44.114 49.0995 44.114 49.1092 44.3991 49.5994C44.5324 49.8296 44.6899 50.0033 44.9863 49.9895C45.2827 49.9758 45.4184 49.7739 45.5282 49.5356C45.7237 49.1076 45.9321 48.6843 46.1211 48.2539C46.1873 48.1052 46.2551 47.9906 46.4401 47.9922C46.625 47.9938 46.6864 48.1238 46.7518 48.2668C46.9417 48.6868 47.1468 49.1003 47.335 49.5203C47.4473 49.7723 47.5773 49.979 47.8939 49.9903C48.1927 50 48.343 49.8143 48.4746 49.5865C48.7444 49.1189 48.7468 49.1205 49.2766 49.2101C49.2867 49.2115 49.2967 49.2137 49.3065 49.2166C49.4196 49.2621 49.5448 49.2684 49.6619 49.2345C49.7791 49.2005 49.8814 49.1282 49.9526 49.0292C50.1239 48.8152 50.0859 48.585 49.9736 48.3508C49.7733 47.9356 49.5843 47.5157 49.3897 47.0981C49.3493 47.0101 49.2702 46.9204 49.4163 46.8501C50.1271 46.5101 50.22 45.9011 50.1037 45.2195C50.0667 45.0329 50.0985 44.8392 50.1933 44.6743C50.3185 44.4449 50.4518 44.2163 50.4825 43.9522C50.5128 43.7312 50.4829 43.506 50.3961 43.3005C50.3092 43.095 50.1686 42.9167 49.989 42.7843C49.8569 42.6852 49.7466 42.5601 49.6646 42.4168C49.5827 42.2735 49.5309 42.1149 49.5125 41.9508C49.4958 41.7488 49.419 41.5564 49.292 41.3984C49.1652 41.2562 49.1805 41.1407 49.2532 40.9744C50.3839 38.3898 50.7288 35.689 50.3484 32.8977C50.1416 31.3649 49.6874 29.8759 49.0036 28.4886C48.9253 28.3352 48.9471 28.2738 49.0917 28.1979ZM44.6414 23.6951C44.8393 23.5522 44.9378 23.5635 45.0638 23.7961C45.5565 24.7039 46.071 25.6004 46.5863 26.4961C46.6751 26.6504 46.7066 26.7344 46.5152 26.8418C45.5791 27.3676 44.6511 27.9079 43.7223 28.4458C42.9954 28.8666 42.2685 28.9522 41.4536 28.63C40.3188 28.1817 39.163 27.7779 37.9539 27.555C37.8717 27.5419 37.7928 27.5127 37.7219 27.469C37.651 27.4254 37.5895 27.3681 37.5408 27.3005C37.4922 27.233 37.4574 27.1564 37.4384 27.0753C37.4195 26.9942 37.4168 26.9102 37.4306 26.8281C37.4766 26.505 37.7221 26.3144 38.1163 26.3588C38.7462 26.4291 39.3423 26.6496 39.9513 26.8119C40.1839 26.8733 40.4125 26.9492 40.6451 27.0082C40.9883 27.0946 41.2306 26.971 41.3179 26.6778C41.3986 26.3976 41.246 26.1545 40.9051 26.0608C39.9004 25.7854 38.9102 25.4534 37.874 25.3064C37.6858 25.2798 37.4944 25.2717 37.3086 25.2547C36.7255 25.2402 36.2005 25.4163 35.7054 25.7086C34.4578 26.4366 33.2094 27.1635 31.9602 27.8893C31.5257 28.1429 31.0783 28.3642 30.5767 28.4547C30.1478 28.5355 29.8207 28.3933 29.6883 28.0711C29.5332 27.6858 29.6584 27.3442 30.0509 27.1019C32.3164 25.707 34.586 24.3194 36.8442 22.9133C37.1377 22.7196 37.47 22.5924 37.8178 22.5406C38.1656 22.4889 38.5205 22.5138 38.8577 22.6136C40.4319 23.0449 42.0157 23.4415 43.5826 23.897C44.0074 24.0246 44.3264 23.9229 44.6406 23.6951H44.6414ZM21.4807 24.3614C21.4888 23.4673 21.8476 22.6121 22.4799 21.9799C23.1122 21.3477 23.9675 20.9892 24.8616 20.9814C26.7031 20.9814 28.2409 22.5159 28.2433 24.3606C28.2458 26.2053 26.7031 27.7423 24.8616 27.7423C23.0202 27.7423 21.4807 26.2053 21.4807 24.3614ZM25.8623 48.4299C25.5482 48.606 25.2316 48.778 24.9246 48.967C24.73 49.0866 24.7017 48.9202 24.6452 48.8208C23.9872 47.661 23.3325 46.5012 22.6809 45.3414C22.3215 44.705 21.971 44.0629 21.5954 43.4361C21.4686 43.2245 21.509 43.1316 21.715 43.0323C21.9593 42.9162 22.195 42.7826 22.4201 42.6325C22.6325 42.4895 22.7431 42.5154 22.8724 42.7496C23.7656 44.3593 24.6783 45.9601 25.5885 47.5641C25.6927 47.7466 25.7953 47.93 25.8979 48.1133C25.927 48.1658 25.9536 48.2199 25.9786 48.2652C25.9924 48.3637 25.9261 48.392 25.8623 48.4299ZM26.3154 46.33C26.1539 46.4625 26.0618 46.4301 25.9576 46.242C25.4494 45.3196 24.9311 44.4029 24.4029 43.4919C24.3027 43.319 24.3221 43.2496 24.4958 43.1518C25.4205 42.6301 26.3397 42.0962 27.2588 41.5648C27.9857 41.1432 28.7126 41.0406 29.5267 41.3645C30.6696 41.8192 31.8342 42.2222 33.0514 42.4508C33.1337 42.4643 33.2125 42.4941 33.2832 42.5384C33.3539 42.5827 33.4151 42.6407 33.4632 42.7088C33.5113 42.777 33.5454 42.8541 33.5634 42.9355C33.5815 43.017 33.5831 43.1012 33.5683 43.1833C33.5198 43.5064 33.2711 43.6922 32.8777 43.6477C32.2583 43.5775 31.6719 43.357 31.071 43.2043C30.8287 43.1429 30.592 43.0589 30.3505 42.9968C30.0105 42.9111 29.7666 43.0371 29.681 43.3319C29.6002 43.6106 29.7561 43.8521 30.0977 43.9458C31.1025 44.2196 32.0919 44.5531 33.1273 44.6993C33.3163 44.726 33.5077 44.734 33.6975 44.751C34.3017 44.7647 34.8388 44.5661 35.3508 44.2664C36.5793 43.546 37.8126 42.8336 39.0427 42.1164C39.4869 41.8579 39.9416 41.6261 40.4553 41.5454C40.7436 41.4993 41.0295 41.526 41.225 41.7756C41.4075 42.0074 41.4067 42.2747 41.3057 42.5469C41.2458 42.687 41.1382 42.8015 41.0021 42.8699L34.0561 47.1506C33.7944 47.3199 33.4995 47.4312 33.1912 47.4769C32.8828 47.5226 32.5683 47.5016 32.2688 47.4155C30.7132 46.9947 29.1487 46.6078 27.6004 46.1588C27.1175 46.011 26.708 46.0069 26.3154 46.33ZM44.912 48.4808C44.7359 48.1424 44.4799 48.0237 44.0954 48.1432C44.1541 47.9424 44.2394 47.7503 44.349 47.5722C44.4972 47.8026 44.7033 47.9901 44.9467 48.1157C45.2003 48.2426 44.912 48.3492 44.9112 48.4808H44.912ZM47.9739 48.5067C47.8164 48.2951 47.7227 48.1521 48.0336 48.0431C48.2436 47.9696 48.3688 47.7693 48.5239 47.5633C48.6095 47.7507 48.6854 47.9122 48.7823 48.1327C48.393 48.0366 48.1168 48.1311 47.973 48.5107L47.9739 48.5067ZM49.3986 43.5742C49.4283 43.594 49.4537 43.6196 49.4731 43.6496C49.4925 43.6796 49.5056 43.7132 49.5114 43.7485C49.5172 43.7837 49.5158 43.8198 49.507 43.8544C49.4983 43.889 49.4826 43.9215 49.4608 43.9498C49.145 44.4546 49.0077 44.9901 49.1563 45.5845C49.2112 45.8042 49.1086 45.9431 48.8881 46.0118C48.6315 46.0845 48.3933 46.2108 48.1891 46.3825C47.985 46.5542 47.8197 46.7673 47.7041 47.0076C47.5934 47.2322 47.4141 47.2758 47.2017 47.1877C46.9578 47.0809 46.6943 47.0257 46.428 47.0257C46.1616 47.0257 45.8982 47.0809 45.6542 47.1877C45.4434 47.2758 45.2682 47.2249 45.1543 46.9996C45.0407 46.7637 44.8787 46.5545 44.6789 46.3854C44.4791 46.2163 44.2459 46.0912 43.9945 46.0182C43.7683 45.9488 43.6512 45.8187 43.6981 45.5732C43.8919 44.9836 43.7069 44.4635 43.4097 43.9651C43.3854 43.9327 43.3681 43.8955 43.359 43.856C43.3499 43.8165 43.3491 43.7755 43.3567 43.7357C43.3643 43.6959 43.3801 43.6581 43.4032 43.6247C43.4262 43.5913 43.4559 43.5632 43.4905 43.5419C43.7223 43.3729 43.9161 43.1571 44.0592 42.9085C44.2024 42.6599 44.2918 42.384 44.3216 42.0986C44.3231 42.0579 44.3332 42.018 44.3514 41.9816C44.3696 41.9452 44.3953 41.913 44.4269 41.8873C44.4584 41.8617 44.4951 41.843 44.5345 41.8326C44.5739 41.8223 44.615 41.8204 44.6551 41.8272C44.9363 41.8487 45.2188 41.8103 45.4841 41.7145C45.7493 41.6187 45.9912 41.4678 46.1938 41.2716C46.3553 41.1222 46.5168 41.1302 46.6727 41.278C46.8758 41.4742 47.1186 41.6247 47.3846 41.7193C47.6507 41.8139 47.934 41.8504 48.2153 41.8264C48.2534 41.8203 48.2924 41.8221 48.3297 41.8318C48.3671 41.8414 48.4021 41.8587 48.4324 41.8825C48.4627 41.9063 48.4878 41.9362 48.5061 41.9702C48.5243 42.0042 48.5353 42.0416 48.5384 42.08C48.5682 42.3756 48.6601 42.6616 48.8083 42.9191C48.9564 43.1766 49.1573 43.3999 49.3978 43.5742H49.3986ZM49.4793 35.9313C49.3811 37.5057 49.0129 39.0515 48.3906 40.5011C48.2396 40.8548 47.9327 40.9501 47.6007 40.7434C47.482 40.6691 47.3729 40.5818 47.2599 40.4954C46.6864 40.0786 46.1784 40.0552 45.6308 40.4881C45.3333 40.725 44.9659 40.857 44.5857 40.8637C43.9339 40.8936 43.4978 41.2425 43.3742 41.8717C43.3102 42.2463 43.1174 42.5868 42.829 42.8344C42.3186 43.2899 42.2257 43.8319 42.5584 44.4376C42.7445 44.7705 42.8042 45.1594 42.7264 45.5328C42.6457 45.9956 42.8266 46.3785 43.19 46.7088C42.6412 47.0926 42.057 47.4234 41.4455 47.6966C37.811 49.3442 34.1199 49.4541 30.3804 48.0552C30.3336 48.0374 30.2892 48.0132 30.2439 47.9914C30.1211 47.9777 30.0081 47.9176 29.9281 47.8234C30.0665 47.8177 30.2034 47.8525 30.3223 47.9235C30.8456 48.0584 31.3722 48.182 31.8916 48.3274C32.8656 48.6076 33.767 48.4776 34.6304 47.9405C36.6415 46.6894 38.6631 45.4545 40.6806 44.2131C40.9883 44.0241 41.2993 43.8391 41.603 43.6437C41.9063 43.4412 42.1362 43.1463 42.2587 42.8028C42.3812 42.4593 42.3897 42.0855 42.283 41.7368C42.0738 41.0099 41.4899 40.5738 40.7242 40.5536C40.0579 40.5366 39.4578 40.7563 38.8957 41.0769C37.5444 41.8458 36.2029 42.6325 34.8573 43.4119C34.7467 43.4757 34.6352 43.5363 34.4818 43.6219C34.6586 42.941 34.5335 42.3813 34.0626 41.9177C33.8662 41.7133 33.613 41.5726 33.3357 41.5139C32.0717 41.2716 30.8666 40.8322 29.6681 40.3831C29.2519 40.2154 28.8031 40.1442 28.3554 40.175C27.9077 40.2057 27.4728 40.3377 27.0835 40.5608C26.0538 41.1262 25.0401 41.715 24.0265 42.3054C23.8529 42.4055 23.7608 42.4193 23.6728 42.2157C23.585 41.999 23.4295 41.8165 23.2293 41.6956C23.1478 41.6342 23.0865 41.5498 23.0533 41.4533C21.8765 39.1377 21.3483 36.6881 21.5187 34.0898C21.6424 32.1818 22.1533 30.3189 23.0202 28.6146C23.1163 28.424 23.1906 28.3877 23.403 28.4612C24.0898 28.7042 24.8265 28.7714 25.5459 28.6565C26.2653 28.5416 26.9445 28.2483 27.5214 27.8034C28.0984 27.3586 28.5546 26.7763 28.8486 26.1097C29.1426 25.4431 29.265 24.7135 29.2045 23.9875C29.1797 23.6063 29.0946 23.2315 28.9525 22.8769C28.8717 22.6936 28.9177 22.6225 29.0857 22.5369C30.5792 21.7733 32.1971 21.2826 33.8631 21.088C36.1978 20.8058 38.5659 21.1204 40.746 22.0022C40.8203 22.0321 40.8946 22.0612 40.9673 22.0943C41.0179 22.1291 41.066 22.1674 41.1111 22.209C40.465 22.0378 39.8956 21.9142 39.3447 21.7349C38.2043 21.3642 37.1761 21.5346 36.1609 22.1807C33.9317 23.5942 31.6703 24.9575 29.4242 26.3451C28.8152 26.7214 28.5438 27.395 28.6787 28.1502C28.7385 28.4634 28.8908 28.7515 29.1159 28.9773C29.3411 29.203 29.6288 29.3561 29.9419 29.4166C30.4572 29.52 30.9611 29.4215 31.4474 29.2357C31.8197 29.0869 32.1793 28.9078 32.5224 28.7002C33.7355 27.9927 34.9491 27.2857 36.1633 26.5793C36.2659 26.5195 36.3709 26.4654 36.5171 26.3855C36.3475 27.0316 36.4517 27.5776 36.8894 28.0379C37.0905 28.2664 37.3589 28.425 37.6559 28.491C38.9296 28.7382 40.1435 29.1808 41.3518 29.6339C42.233 29.9642 43.0657 29.8762 43.8798 29.4659C44.9176 28.9377 45.9054 28.319 46.9102 27.7335C47.1525 27.5945 47.2583 27.605 47.3608 27.8635C47.4334 28.043 47.5635 28.1933 47.7307 28.2907C47.8298 28.3601 47.906 28.4574 47.9496 28.5702C49.1211 30.8384 49.6488 33.3843 49.4753 35.9313H49.4793ZM48.5691 27.3781C48.364 27.5146 48.2598 27.4855 48.137 27.2642C47.4779 26.0721 46.8019 24.8897 46.1308 23.7048C45.7907 23.1031 45.4572 22.5038 45.1058 21.9029C45.0065 21.7325 44.9952 21.6283 45.1987 21.529C45.4854 21.3884 45.7584 21.218 46.0379 21.0605C46.0815 21.0363 46.1259 21.0137 46.176 20.987C46.3036 21.0096 46.3246 21.134 46.3755 21.2245C47.2068 22.6874 48.036 24.1512 48.8631 25.6157C49.0456 25.9388 49.212 26.2716 49.4155 26.5801C49.5504 26.7844 49.4866 26.8692 49.3 26.9629C49.0486 27.087 48.8045 27.2257 48.5691 27.3781Z" fill="#050615"/>
<path d="M39.1267 36.3529C38.6163 35.8079 37.9927 35.3814 37.2997 35.1034C38.6566 33.7821 38.4094 32.0262 37.433 31.0538C36.9301 30.5595 36.257 30.2765 35.552 30.2628C34.847 30.2492 34.1635 30.5059 33.6418 30.9803C32.6782 31.8405 32.2372 33.6755 33.6878 35.1051L33.5263 35.1858C31.898 35.9434 30.9062 37.1969 30.6122 38.9746C30.5113 39.5828 30.6793 39.7435 31.3092 39.7435C34.1092 39.7435 36.9069 39.7435 39.7025 39.7435C39.8029 39.7461 39.9034 39.7409 40.003 39.7281C40.0682 39.7219 40.1315 39.7022 40.1888 39.6703C40.2461 39.6384 40.2962 39.595 40.3358 39.5428C40.3755 39.4906 40.404 39.4307 40.4194 39.367C40.4348 39.3033 40.4368 39.237 40.4254 39.1725C40.3076 38.1172 39.8521 37.1283 39.1267 36.3529ZM35.5366 31.2484C36.5058 31.2573 37.2658 32.0456 37.2585 33.0366C37.2557 33.2676 37.2074 33.4958 37.1164 33.7082C37.0254 33.9205 36.8935 34.1129 36.7282 34.2742C36.5628 34.4356 36.3673 34.5628 36.1528 34.6486C35.9383 34.7344 35.709 34.7771 35.478 34.7743C35.247 34.7715 35.0188 34.7232 34.8065 34.6322C34.5941 34.5412 34.4018 34.4093 34.2404 34.244C33.9145 33.91 33.7346 33.4604 33.7403 32.9938C33.746 32.0036 34.531 31.2388 35.5366 31.2484ZM31.6832 38.7379C31.8762 37.5046 33.2711 35.7633 35.5002 35.7641C37.748 35.7641 39.1307 37.5273 39.3148 38.7388C39.0362 38.7614 31.9497 38.7614 31.6832 38.7379Z" fill="#050615"/>
<path d="M25.3314 25.6803C24.7886 25.9178 24.342 25.7474 24.0698 25.207C24.022 25.0944 23.9335 25.0041 23.8219 24.954C23.7103 24.904 23.5839 24.898 23.4681 24.9373C23.2072 25.0302 23.0844 25.2813 23.1652 25.5673C23.3162 26.1044 23.6797 26.4436 24.1869 26.6318C24.3177 26.6802 24.3759 26.723 24.388 26.8741C24.409 27.1454 24.5996 27.2868 24.8548 27.2949C25.1101 27.3029 25.3039 27.1616 25.3289 26.9177C25.3491 26.7174 25.4428 26.6827 25.5963 26.6302C26.223 26.4185 26.5978 25.938 26.5986 25.3758C26.5986 24.6877 26.114 24.1458 25.3168 23.9463C25.0648 23.8833 24.808 23.8356 24.5592 23.7597C24.3977 23.7096 24.2451 23.6232 24.2499 23.4059C24.2547 23.1887 24.388 23.0829 24.5673 23.0142C24.9598 22.8608 25.312 22.99 25.5365 23.3696C25.7118 23.662 25.9605 23.7557 26.215 23.6264C26.4694 23.4972 26.5501 23.204 26.3999 22.8995C26.2332 22.5406 25.9343 22.2599 25.5656 22.1161C25.4259 22.0628 25.3475 22.0103 25.3322 21.8302C25.3104 21.5677 25.1044 21.4223 24.8476 21.4264C24.6053 21.4312 24.4042 21.5709 24.392 21.8229C24.3824 22.0216 24.2814 22.0652 24.1384 22.1258C23.4923 22.4028 23.1692 22.9908 23.2888 23.6515C23.4172 24.3493 23.9389 24.6207 24.552 24.7822C24.8217 24.8541 25.1068 24.8719 25.3596 25.0067C25.5131 25.0875 25.6092 25.2006 25.6019 25.3888C25.5882 25.5656 25.4582 25.6254 25.3314 25.6803Z" fill="#050615"/>
<path d="M48.5042 26.0576C48.2618 26.064 48.1334 26.1941 48.1197 26.4315C48.1149 26.4841 48.1213 26.537 48.1383 26.587C48.1553 26.6369 48.1827 26.6827 48.2185 26.7214C48.2544 26.7601 48.298 26.7908 48.3465 26.8115C48.395 26.8323 48.4474 26.8426 48.5001 26.8418C48.6064 26.8436 48.7091 26.8033 48.7859 26.7299C48.8627 26.6564 48.9074 26.5556 48.9104 26.4493C48.9102 26.3967 48.8995 26.3446 48.8788 26.2962C48.8581 26.2478 48.828 26.2041 48.7901 26.1676C48.7522 26.131 48.7074 26.1025 48.6583 26.0836C48.6092 26.0647 48.5567 26.0559 48.5042 26.0576Z" fill="#050615"/>
<path d="M22.4876 43.1614C22.4347 43.1605 22.3822 43.1702 22.3332 43.19C22.2842 43.2098 22.2397 43.2394 22.2024 43.2768C22.1651 43.3143 22.1357 43.3589 22.116 43.4079C22.0964 43.457 22.0868 43.5095 22.088 43.5624C22.0891 43.6152 22.1009 43.6673 22.1227 43.7155C22.1445 43.7637 22.1757 43.807 22.2146 43.8428C22.2535 43.8786 22.2993 43.9061 22.3491 43.9238C22.3989 43.9415 22.4518 43.9489 22.5045 43.9457C22.5573 43.9459 22.6095 43.9349 22.6578 43.9136C22.706 43.8922 22.7492 43.861 22.7846 43.8218C22.82 43.7826 22.8467 43.7364 22.863 43.6863C22.8793 43.6361 22.8849 43.583 22.8793 43.5305C22.8615 43.2931 22.7258 43.1663 22.4876 43.1614Z" fill="#050615"/>
<path d="M46.4413 41.7757C45.963 41.7736 45.4948 41.9134 45.096 42.1775C44.6971 42.4415 44.3855 42.8179 44.2006 43.2591C44.0158 43.7002 43.9659 44.1863 44.0573 44.6558C44.1486 45.1254 44.3772 45.5572 44.7141 45.8968C45.051 46.2364 45.481 46.4685 45.9498 46.5636C46.4186 46.6588 46.905 46.6128 47.3476 46.4314C47.7903 46.2501 48.1692 45.9415 48.4364 45.5448C48.7036 45.1481 48.8472 44.681 48.849 44.2027C48.8503 43.8852 48.789 43.5707 48.6687 43.2769C48.5484 42.9831 48.3714 42.7159 48.1478 42.4905C47.9243 42.2652 47.6585 42.086 47.3657 41.9634C47.0729 41.8407 46.7588 41.7769 46.4413 41.7757ZM46.4308 45.6395C46.1465 45.6391 45.8688 45.5544 45.6326 45.3961C45.3964 45.2379 45.2124 45.0132 45.1038 44.7504C44.9953 44.4877 44.967 44.1987 45.0226 43.9199C45.0781 43.6411 45.2151 43.385 45.4161 43.1839C45.6171 42.9829 45.8732 42.846 46.152 42.7904C46.4308 42.7348 46.7199 42.7631 46.9826 42.8717C47.2454 42.9802 47.47 43.1642 47.6283 43.4004C47.7865 43.6366 47.8712 43.9144 47.8717 44.1987C47.8683 44.5798 47.7155 44.9443 47.446 45.2138C47.1765 45.4833 46.8119 45.6362 46.4308 45.6395Z" fill="#050615"/>
</g>
<defs>
<clipPath id="clip0_13_1568">
<rect width="30" height="29.996" fill="white" transform="translate(20.5 20)"/>
</clipPath>
</defs>
</svg>
