<svg width="71" height="70" viewBox="0 0 71 70" fill="none" xmlns="http://www.w3.org/2000/svg">
<rect x="0.5" width="70" height="70" rx="35" fill="white" fill-opacity="0.5"/>
<g clip-path="url(#clip0_13_1631)">
<path d="M46.9037 46.2448C46.7894 46.0788 46.7301 45.9764 46.9091 45.7812C49.6754 42.7767 49.4813 38.3955 46.466 35.6476C46.3851 35.5816 46.3209 35.4973 46.2788 35.4018C46.2366 35.3062 46.2176 35.202 46.2235 35.0978C46.2299 31.3246 46.2235 27.5439 46.2342 23.7674C46.2416 23.6084 46.2145 23.4497 46.1548 23.3021C46.095 23.1546 46.0041 23.0217 45.8882 22.9126C43.5244 20.5581 41.167 18.1997 38.8162 15.8373C38.718 15.7303 38.5977 15.6459 38.4637 15.5901C38.3297 15.5342 38.1851 15.5082 38.04 15.5139C33.054 15.5214 28.0669 15.5462 23.0799 15.4999C21.6935 15.4869 20.4882 16.5305 20.5001 18.1034C20.5357 23.0096 20.513 27.9136 20.513 32.822V47.5395C20.513 49.217 21.4833 50.1872 23.1575 50.1872C29.9722 50.1872 36.7869 50.1872 43.6016 50.1872C43.8582 50.1872 44.1223 50.2002 44.3563 50.1107C44.6474 50.0029 44.739 50.143 44.8436 50.3684C45.2748 51.2901 45.7135 52.201 46.1458 53.1239C46.2821 53.4314 46.488 53.7031 46.7474 53.9173C47.6098 54.6094 48.9035 54.5566 49.7358 53.7901C50.5906 53.0085 50.748 51.8291 50.1001 50.8793C49.0429 49.3298 47.9774 47.785 46.9037 46.2448ZM38.7687 17.1935L41.6299 20.0568L44.5288 22.9481H40.2166C39.8134 22.9481 39.4102 22.9481 39.007 22.9481C38.8442 22.9481 38.7644 22.9158 38.7644 22.7325C38.7709 20.9203 38.7687 19.1113 38.7687 17.1935ZM43.5919 49.1847C36.7758 49.1847 29.96 49.1847 23.1445 49.1847C21.9964 49.1847 21.5038 48.6877 21.5027 47.5395C21.5027 37.7401 21.5027 27.9399 21.5027 18.1389C21.5038 17.0091 22.0234 16.4863 23.1456 16.4863C27.8783 16.4863 32.6098 16.4863 37.3425 16.4755C37.7295 16.4755 37.7866 16.5973 37.7845 16.9412C37.7694 19.0251 37.7759 21.109 37.7769 23.1939C37.7769 23.8127 37.9117 23.9486 38.5391 23.9486C40.6485 23.9486 42.759 23.9486 44.8705 23.9486C45.098 23.9486 45.2338 23.955 45.2327 24.2612C45.2209 27.6765 45.2252 31.0906 45.2241 34.5027C45.2241 34.5663 45.2122 34.631 45.2025 34.7323C43.2621 33.7308 41.2828 33.5777 39.2474 34.3216C39.0695 31.9358 37.6896 30.6034 35.5152 29.949C37.295 28.3039 36.9242 26.0378 35.6877 24.8703C35.0452 24.2672 34.193 23.9382 33.3119 23.9533C32.4309 23.9684 31.5904 24.3264 30.969 24.9511C29.7897 26.137 29.49 28.3589 31.2289 29.9458C30.7157 30.1226 30.209 30.2875 29.7519 30.5667C28.3278 31.4335 27.5376 32.6743 27.5204 34.3658C27.5117 35.212 27.5204 36.0594 27.5204 36.9067C27.5204 37.4166 27.6519 37.5536 28.1672 37.5536C30.467 37.5536 32.7669 37.5536 35.0667 37.5536H35.5518C35.3231 38.033 35.1286 38.528 34.9697 39.0348C34.9061 39.259 34.7228 39.1502 34.5999 39.1512C31.6288 39.1577 28.6581 39.1577 25.6877 39.1512C25.016 39.1512 24.9018 39.2666 24.9007 39.9501C24.9007 40.4611 24.9007 40.9721 24.9007 41.4831C24.9007 41.9941 25.0549 42.1525 25.5756 42.1525C28.5197 42.1525 31.4639 42.1579 34.408 42.1471C34.7131 42.1471 34.8274 42.2151 34.9018 42.5417C35.6489 45.8125 38.6749 48.1217 42.0277 48.0074C42.4841 47.9935 42.9377 47.9307 43.3806 47.8198C43.5294 47.7821 43.62 47.767 43.6954 47.9417C43.8625 48.3319 44.0566 48.7103 44.2636 49.1448C44.0016 49.1609 43.7989 49.1847 43.5919 49.1847ZM36.6342 34.8929C36.6342 34.3906 36.4854 34.1663 36.1502 34.1545C35.8149 34.1426 35.6467 34.3701 35.6456 34.9091C35.6456 35.3662 35.6359 35.8244 35.6456 36.2804C35.6521 36.496 35.6003 36.5833 35.361 36.5812C34.03 36.5704 32.7004 36.5704 31.3722 36.5812C31.1469 36.5812 31.0704 36.524 31.0779 36.2922C31.0952 35.7683 31.0779 35.2433 31.0844 34.7194C31.0844 34.3862 30.9442 34.1609 30.596 34.1631C30.2478 34.1652 30.1066 34.3916 30.1077 34.7226C30.1077 35.2476 30.0958 35.7715 30.1131 36.2955C30.1206 36.5283 30.0451 36.5919 29.8209 36.5801C29.3897 36.5585 28.8313 36.7256 28.5736 36.5132C28.316 36.3009 28.5003 35.709 28.4949 35.2843C28.4863 34.6816 28.4453 34.0758 28.6092 33.4828C28.9261 32.3326 29.6937 31.5876 30.7739 31.1693C32.4617 30.4915 34.3475 30.4996 36.0294 31.192C37.4783 31.7709 38.2577 32.9869 38.2524 34.5124C38.2524 34.6773 38.2524 34.8185 38.0756 34.9188C37.5613 35.2099 37.1226 35.6023 36.6331 36.0659L36.6342 34.8929ZM30.9895 27.2927C30.9931 26.6608 31.2475 26.0562 31.6969 25.6119C32.1462 25.1677 32.7536 24.9201 33.3855 24.9237C34.0174 24.9272 34.6219 25.1817 35.0662 25.631C35.5105 26.0803 35.7581 26.6877 35.7545 27.3196C35.7527 27.6325 35.6894 27.942 35.568 28.2303C35.4466 28.5187 35.2697 28.7804 35.0472 29.0004C34.8247 29.2203 34.561 29.3943 34.2713 29.5124C33.9816 29.6305 33.6714 29.6904 33.3585 29.6886C33.0457 29.6869 32.7362 29.6235 32.4478 29.5021C32.1594 29.3808 31.8978 29.2038 31.6778 28.9813C31.4578 28.7588 31.2838 28.4952 31.1657 28.2054C31.0476 27.9157 30.9878 27.6055 30.9895 27.2927ZM34.7228 40.4934C34.6592 41.1704 34.6851 41.1737 34.0156 41.1737H30.3104C28.9531 41.1737 27.5969 41.164 26.2396 41.1812C25.9518 41.1812 25.8871 41.1014 25.8936 40.8244C25.9097 40.1215 25.8936 40.1204 26.6094 40.1204C29.1881 40.1204 31.7679 40.1204 34.3466 40.1204C34.6366 40.1139 34.7552 40.1484 34.7228 40.4934ZM41.7636 47.0178C38.4011 46.9973 35.6693 44.2547 35.6834 40.916C35.6925 39.3022 36.3412 37.7579 37.4873 36.6218C38.6333 35.4856 40.1832 34.8503 41.797 34.8552C45.2047 34.8671 47.8837 37.5945 47.8589 41.0281C47.8362 44.3302 45.0796 47.0393 41.7636 47.0178ZM48.4399 53.3847C47.8535 53.5292 47.3188 53.2823 47.046 52.7131C46.2439 51.0389 45.4527 49.3604 44.6517 47.6872C44.5654 47.5094 44.5676 47.4166 44.7735 47.3336C45.1336 47.1886 45.4718 46.9941 45.7782 46.7558C45.9432 46.6264 46.0143 46.6825 46.1157 46.8291C47.1765 48.375 48.2401 49.9184 49.3067 51.4593C49.4368 51.65 49.5067 51.8753 49.5072 52.1062C49.5104 52.712 49.0803 53.2317 48.4399 53.3847Z" fill="#050615"/>
<path d="M41.404 36.7375C40.2311 36.8626 39.2059 38.0312 39.2199 39.2008C39.2199 39.5243 39.3697 39.7334 39.677 39.7528C39.9842 39.7722 40.1783 39.5976 40.1955 39.2666C40.202 39.1733 40.2161 39.0806 40.2375 38.9895C40.4014 38.2252 40.9868 37.7174 41.7199 37.6959C42.0848 37.6838 42.4427 37.7975 42.7338 38.0179C43.0248 38.2383 43.2313 38.552 43.3186 38.9065C43.4044 39.256 43.3651 39.6245 43.2075 39.948C43.05 40.2716 42.7842 40.5297 42.4562 40.6778C41.6185 41.0605 41.2304 41.6793 41.2973 42.5708C41.2973 42.7519 41.2973 42.9137 41.2973 43.0743C41.3091 43.3783 41.487 43.5648 41.7738 43.5659C42.0821 43.5659 42.261 43.3654 42.2783 43.0506C42.2912 42.8492 42.2912 42.6472 42.2783 42.4458C42.247 42.0264 42.44 41.7806 42.8173 41.6038C44.0334 41.0271 44.6004 39.8002 44.2436 38.5756C43.8717 37.3143 42.7591 36.592 41.404 36.7375Z" fill="#050615"/>
<path d="M41.745 44.1654C41.4539 44.2064 41.2846 44.381 41.2976 44.685C41.3105 44.989 41.4992 45.1357 41.7708 45.1486C41.9031 45.1478 42.0299 45.0956 42.1245 45.0031C42.219 44.9106 42.2739 44.7849 42.2775 44.6527C42.2764 44.3821 42.0102 44.1288 41.745 44.1654Z" fill="#050615"/>
</g>
<defs>
<clipPath id="clip0_13_1631">
<rect width="30" height="38.9047" fill="white" transform="translate(20.5 15.5)"/>
</clipPath>
</defs>
</svg>
