<svg width="71" height="70" viewBox="0 0 71 70" fill="none" xmlns="http://www.w3.org/2000/svg">
<rect x="0.5" width="70" height="70" rx="35" fill="white" fill-opacity="0.5"/>
<g clip-path="url(#clip0_13_1642)">
<path d="M50.2741 41.9407C49.6556 41.4812 49.0295 41.0293 48.4158 40.564C48.1679 40.3726 47.8864 40.229 47.6882 39.9781C46.7117 38.738 45.7339 37.4995 44.7549 36.2626C44.6256 36.1062 44.5575 35.9082 44.5634 35.7054C44.5701 32.0157 44.5634 28.326 44.5739 24.6364C44.5797 24.5178 44.5596 24.3994 44.515 24.2895C44.4703 24.1795 44.4022 24.0806 44.3154 23.9997C42.8628 22.5566 41.4136 21.1075 39.968 19.6523C39.9192 19.6005 39.8596 19.56 39.7934 19.5337C39.7273 19.5074 39.6562 19.496 39.5851 19.5001C33.3884 19.5039 27.1913 19.5058 20.994 19.5058C20.5546 19.5058 20.5 19.5681 20.5 20.0506V50.6863C20.5 51.1927 20.5498 51.2425 21.0562 51.2425H44.0627C44.5031 51.2425 44.5682 51.1784 44.571 50.7485C44.571 50.5072 44.571 50.2698 44.571 50.0247V47.4102C45.4978 47.66 46.4054 47.8419 47.1818 48.3905C47.4321 48.5568 47.6913 48.7092 47.9582 48.8472C48.1075 48.9305 48.2588 48.9429 48.3632 48.7696C48.4675 48.5963 48.3833 48.4824 48.2444 48.4077C47.5274 48.0248 46.884 47.5078 46.0837 47.279C42.6959 46.3114 39.2988 45.3735 35.8925 44.4653C35.3181 44.3131 34.9734 43.8344 35.0424 43.3327C35.1209 42.7583 35.5613 42.3974 36.1864 42.4194C37.1017 42.451 38.016 42.4951 38.9312 42.5429C40.0197 42.6004 40.9015 42.2193 41.4644 41.2706C42.0273 40.3218 41.9632 39.3645 41.3687 38.4454C41.1073 38.0414 40.8277 37.6489 40.5511 37.2554C40.1881 36.7212 39.6358 36.3448 39.0059 36.2023C38.083 35.9869 37.1572 35.781 36.24 35.5446C36.0116 35.48 35.7677 35.4986 35.5517 35.5972C34.6901 35.9582 33.8208 36.3019 32.9505 36.6436C32.3761 36.8696 31.8974 36.6953 31.6878 36.1975C31.4781 35.6997 31.6954 35.2172 32.243 34.9673C33.2789 34.4943 34.3173 34.0259 35.3583 33.5619C35.6869 33.4089 36.0551 33.3624 36.4114 33.4288C37.3688 33.603 38.3367 33.7246 39.2931 33.9075C39.9001 34.0214 40.5377 34.03 41.0872 34.3862C41.9871 34.9606 42.9062 35.5072 43.8243 36.0625C43.9693 36.1476 44.0975 36.2586 44.2025 36.3899C44.8544 37.2257 45.5045 38.0634 46.1689 38.8887C46.6217 39.4506 46.9913 40.0959 47.5465 40.5554C48.3249 41.1988 49.1664 41.7655 49.9782 42.3687C50.1372 42.4864 50.2961 42.5803 50.4435 42.3783C50.591 42.1762 50.4234 42.0499 50.2741 41.9407ZM39.9575 20.512L43.5333 24.084H42.3174C41.6195 24.084 40.9225 24.084 40.2246 24.084C40.1021 24.084 39.9537 24.1309 39.9546 23.9088C39.9604 22.7705 39.9575 21.6331 39.9575 20.512ZM39.026 36.7595C39.228 36.7995 39.4165 36.8905 39.5736 37.0237C40.3538 37.7666 41.0364 38.5938 41.2777 39.6689C41.5237 40.7718 40.5616 41.9494 39.4271 42.0011C39.0671 42.0183 38.7053 42.0011 38.3003 42.0011C39.2021 39.8948 38.8747 38.0232 37.3056 36.3373C37.8896 36.4818 38.4583 36.6187 39.026 36.7595ZM35.8035 36.0702C35.9289 36.0194 36.0361 36.0912 36.1405 36.1487C38.0552 37.1884 38.8364 39.78 37.8274 41.7158C37.745 41.8728 37.6598 41.9522 37.4703 41.9369C37.1151 41.9082 36.7542 41.9369 36.3884 41.8689C38.0925 39.4755 36.5655 36.949 34.7044 36.5287C35.1037 36.3612 35.4521 36.2128 35.8035 36.0702ZM34.0199 36.9902C35.4646 36.9902 36.622 38.2137 36.6048 39.7149C36.5876 41.216 35.4234 42.429 34.0199 42.4242C32.6164 42.4194 31.4743 41.2007 31.4743 39.7005C31.4743 38.2003 32.603 36.9864 34.0199 36.9902ZM31.7107 37.0295C32.0937 37.1673 31.9348 37.3071 31.7557 37.5081C30.0746 39.3951 31.077 42.3993 33.5489 42.9029C33.8821 42.9709 34.219 42.9297 34.5962 42.9211C34.5091 43.2313 34.4718 43.5242 34.5647 43.8009C34.6451 44.0383 34.5235 44.0249 34.3665 44.0402C32.402 44.2317 30.4863 42.9297 29.9712 40.991C29.5452 39.3894 29.93 37.9753 31.0913 36.7786C31.2359 36.6283 31.3221 36.6168 31.4427 36.7949C31.5072 36.8976 31.6004 36.9791 31.7107 37.0295ZM28.9344 34.9501C27.0675 34.5125 25.2208 35.7159 24.79 37.6527C24.3926 39.4468 25.6324 41.328 27.4524 41.711C28.0662 41.8531 28.7081 41.8125 29.2991 41.5942C29.5404 41.4984 29.6112 41.5578 29.6955 41.7799C29.8592 42.2107 29.8774 42.2117 29.4399 42.34C29.0349 42.4587 28.6223 42.5429 28.269 42.5199C25.9618 42.5199 24.1792 40.9039 23.9886 38.5947C23.8288 36.6465 25.0714 34.7098 27.2906 34.2119C28.6252 33.9123 29.841 34.2406 30.9027 35.1099C31.0856 35.2593 31.1832 35.939 31.0396 36.1161C30.896 36.2932 30.8367 36.1075 30.7697 36.0338C30.2872 35.4889 29.6454 35.1097 28.9353 34.9501H28.9344ZM28.9612 35.4977C27.7587 36.6982 26.5659 37.8901 25.3826 39.0734C25.0695 38.2175 25.3242 37.0744 26.0374 36.3344C26.854 35.4881 27.843 35.2334 28.9622 35.4977H28.9612ZM29.3824 40.8053C29.4102 40.9288 29.4025 41.013 29.2369 41.0686C28.6568 41.26 28.0785 41.328 27.5309 41.1787L29.3011 39.4133C29.2501 39.8786 29.278 40.3492 29.3834 40.8053H29.3824ZM29.7654 37.7322C29.6036 38.1821 29.3097 38.5095 28.9823 38.8312C28.337 39.4631 27.6987 40.1013 27.0675 40.7459C26.9153 40.901 26.7928 40.9575 26.6157 40.8005C26.5199 40.7144 26.4002 40.6483 26.2988 40.564C25.5137 39.9169 25.5061 39.7924 26.1982 39.1002C27.2351 38.073 28.2748 37.0515 29.2886 36.0051C29.5308 35.7552 29.6965 35.7609 29.9368 35.9716C30.1143 36.1152 30.2798 36.273 30.4317 36.4435C30.469 36.4895 30.4997 36.5393 30.5341 36.5891C30.4805 36.6551 30.4384 36.7126 30.3896 36.7662C30.125 37.047 29.915 37.3745 29.7702 37.7322H29.7654ZM44.0196 35.4345C44.014 35.4749 44.0056 35.5149 43.9947 35.5542C43.2786 35.1166 42.5721 34.7299 41.9163 34.2703C41.1504 33.7352 40.305 33.5044 39.3994 33.3819C38.4353 33.2507 37.4789 33.066 36.5186 32.909C36.0788 32.822 35.623 32.8687 35.2099 33.043C34.1262 33.5303 33.0137 33.963 31.974 34.5288C31.5011 34.7863 31.2675 34.7059 30.8683 34.4331C29.3355 33.3924 27.6802 33.2708 26.0269 34.1181C24.3524 34.974 23.4822 36.3995 23.4602 38.2807C23.4209 41.6315 26.7612 43.9292 29.8956 42.7239C30.1206 42.6367 30.2201 42.6894 30.3676 42.8579C31.5059 44.1657 32.9323 44.7563 34.6757 44.54C34.7714 44.5285 34.8997 44.5026 34.9543 44.5505C35.5488 45.0752 36.3233 45.1115 37.0299 45.3116C39.2452 45.9397 41.4692 46.538 43.6931 47.1373C43.9545 47.2072 44.0464 47.3192 44.0387 47.6016C44.0164 48.5054 44.0164 49.4095 44.0387 50.3139C44.0474 50.6288 43.9708 50.7092 43.6491 50.7083C37.8858 50.6968 32.1224 50.6942 26.3591 50.7006C24.7076 50.7006 23.0552 50.6939 21.4038 50.7064C21.1338 50.7064 21.0419 50.6566 21.0419 50.3598C21.0514 40.3649 21.0514 30.3697 21.0419 20.3742C21.0419 20.0975 21.1185 20.041 21.3817 20.041C27.3021 20.0487 33.2221 20.0487 39.1418 20.041C39.4003 20.041 39.4578 20.1109 39.4549 20.3588C39.4405 21.5766 39.4472 22.7944 39.4472 24.0122C39.4472 24.6249 39.4472 24.6249 40.0791 24.6249C41.2968 24.6249 42.5146 24.6249 43.7324 24.6249C43.9143 24.6249 44.0368 24.6153 44.0359 24.8776C44.0244 28.3969 44.0206 31.9168 44.0244 35.4374L44.0196 35.4345Z" fill="#050615"/>
<path d="M41.3163 27.673C41.2799 27.673 41.2445 27.673 41.2081 27.673H24.3997C24.3154 27.673 24.2312 27.673 24.1469 27.673C23.9736 27.6654 23.8549 27.7554 23.8463 27.9152C23.8358 28.1 23.9622 28.191 24.1498 28.1871C24.2455 28.1871 24.3413 28.1871 24.437 28.1871H41.3192C41.5164 28.1871 41.7481 28.2015 41.7452 27.9296C41.7423 27.6577 41.5183 27.6644 41.3163 27.673Z" fill="#050615"/>
<path d="M24.2168 23.6052H36.8713C36.9555 23.6094 37.04 23.6078 37.124 23.6004C37.2801 23.5794 37.4112 23.5047 37.4112 23.3314C37.4112 23.1581 37.2858 23.0806 37.1288 23.0624C37.0332 23.0551 36.9373 23.0535 36.8416 23.0576H24.2187C24.0272 23.0576 23.8568 23.1093 23.8463 23.3123C23.8339 23.5401 24.0158 23.6043 24.2168 23.6052Z" fill="#050615"/>
<path d="M25.2258 47.9857C25.6087 48.158 25.9581 48.0287 26.1831 47.6104C26.3517 47.2781 26.4587 46.9181 26.4991 46.5477C26.5756 46.0001 26.6206 45.957 27.1568 45.8335C27.2362 45.8153 27.3186 45.8086 27.4689 45.7856C27.2774 46.0949 27.174 46.3706 27.2094 46.6827C27.2147 46.7705 27.2405 46.8559 27.2847 46.932C27.3289 47.0081 27.3904 47.0728 27.464 47.1209C27.5377 47.169 27.6217 47.1992 27.7091 47.209C27.7966 47.2189 27.8851 47.2081 27.9677 47.1776C28.4617 47.0158 28.8685 46.2739 28.6656 45.8009C28.5296 45.485 28.656 45.3864 28.903 45.2983C29.0351 45.2436 29.1704 45.1966 29.308 45.1576C29.7206 45.0619 29.8565 45.1461 29.9437 45.5539C29.9819 45.732 30.0461 45.8574 30.2462 45.8258C30.4463 45.7942 30.475 45.6458 30.4683 45.4735C30.4491 44.9843 30.0949 44.632 29.5866 44.6042C29.0782 44.5765 28.6349 44.8053 28.2185 45.0829C28.1122 45.1528 28.027 45.2591 27.8719 45.2447C27.5235 45.2121 27.1724 45.2603 26.8456 45.3854C26.6723 45.4515 26.6139 45.3941 26.6235 45.2083C26.6379 44.9441 26.6235 44.6789 26.6235 44.4137C26.6235 44.2108 26.5977 43.9934 26.3363 44.0059C26.0749 44.0183 26.0769 44.2404 26.0778 44.4396C26.0778 44.7402 26.0663 45.0418 26.0778 45.3424C26.0936 45.4586 26.0734 45.5768 26.02 45.6812C25.9666 45.7856 25.8826 45.8711 25.7791 45.9264C25.3625 46.1766 25.0416 46.5591 24.8677 47.013C24.7126 47.4438 24.8543 47.8181 25.2258 47.9857ZM28.0883 45.8546C28.2395 46.2375 28.1381 46.4701 27.7331 46.6836C27.7015 46.3198 27.8987 46.1035 28.0883 45.8546ZM25.3751 47.1527C25.4957 46.8655 25.7006 46.6434 25.9907 46.4127C25.9294 46.7708 25.8835 47.0627 25.7466 47.3299C25.6843 47.4514 25.5963 47.5654 25.4373 47.4907C25.2784 47.416 25.3234 47.2772 25.3751 47.1527Z" fill="#050615"/>
<path d="M33.1096 30.2408C33.0039 30.219 32.8958 30.2106 32.7879 30.2159C29.9797 30.2159 27.1714 30.2159 24.3631 30.2159C24.2553 30.2129 24.1474 30.2216 24.0414 30.2417C23.9805 30.253 23.9261 30.2869 23.8892 30.3366C23.8522 30.3863 23.8355 30.4482 23.8423 30.5098C23.8437 30.5651 23.8642 30.6182 23.9003 30.6601C23.9365 30.702 23.986 30.7301 24.0405 30.7396C24.1468 30.7574 24.2544 30.7658 24.3622 30.7644C25.7727 30.7644 27.1829 30.7644 28.5928 30.7644C29.9905 30.7644 31.3886 30.7644 32.787 30.7644C32.8947 30.7684 33.0026 30.7607 33.1087 30.7415C33.1627 30.7321 33.2116 30.7039 33.2467 30.6618C33.2817 30.6197 33.3007 30.5665 33.3001 30.5117C33.3089 30.4508 33.2941 30.3887 33.2587 30.3384C33.2233 30.288 33.1699 30.2531 33.1096 30.2408Z" fill="#050615"/>
<path d="M24.0721 25.8808C24.1793 25.8914 24.2885 25.8961 24.3967 25.8961H32.7458C32.8658 25.8968 32.9858 25.8898 33.1049 25.8751C33.1587 25.8691 33.2084 25.843 33.2439 25.802C33.2794 25.761 33.2981 25.7081 33.2963 25.6539C33.3058 25.5933 33.2917 25.5314 33.257 25.4809C33.2223 25.4304 33.1696 25.395 33.1096 25.382C33.0033 25.3627 32.8949 25.3562 32.787 25.3629H24.3622C24.2664 25.3583 24.1704 25.3608 24.075 25.3706C24.0416 25.3729 24.009 25.3817 23.979 25.3966C23.9491 25.4116 23.9224 25.4322 23.9004 25.4575C23.8784 25.4827 23.8617 25.5121 23.851 25.5438C23.8404 25.5755 23.8362 25.6091 23.8385 25.6424C23.8387 25.7048 23.8633 25.7646 23.9069 25.8091C23.9505 25.8536 24.0098 25.8793 24.0721 25.8808Z" fill="#050615"/>
<path d="M28.0741 38.4349C27.559 38.9385 27.0516 39.4488 26.5423 39.959C26.5102 39.9955 26.4901 40.041 26.4848 40.0893C26.4795 40.1376 26.4892 40.1864 26.5126 40.229C26.5356 40.2731 26.5695 40.3107 26.611 40.3382C26.6526 40.3656 26.7004 40.3821 26.75 40.386C26.7941 40.3767 26.836 40.3592 26.8735 40.3343C27.3943 39.8202 27.9171 39.308 28.4273 38.7843C28.4469 38.7609 28.4617 38.7338 28.4708 38.7046C28.4798 38.6754 28.483 38.6447 28.4802 38.6143C28.4773 38.5838 28.4685 38.5543 28.4542 38.5273C28.4398 38.5002 28.4203 38.4763 28.3967 38.4569C28.3 38.3602 28.1736 38.3373 28.0741 38.4349Z" fill="#050615"/>
<path d="M28.8567 37.1155C28.6911 37.104 28.3579 37.4621 28.3675 37.6287C28.3659 37.6599 28.3707 37.6912 28.3814 37.7206C28.3921 37.75 28.4087 37.777 28.43 37.7999C28.4513 37.8229 28.477 37.8413 28.5056 37.8541C28.5341 37.867 28.565 37.874 28.5963 37.8747C28.7973 37.8747 29.1171 37.5396 29.1104 37.3644C29.1112 37.3311 29.1052 37.298 29.0926 37.2671C29.0801 37.2362 29.0614 37.2082 29.0376 37.1849C29.0138 37.1615 28.9855 37.1433 28.9543 37.1314C28.9232 37.1195 28.89 37.1141 28.8567 37.1155Z" fill="#050615"/>
</g>
<defs>
<clipPath id="clip0_13_1642">
<rect width="30" height="31.7462" fill="white" transform="translate(20.5 19.5)"/>
</clipPath>
</defs>
</svg>
