<svg width="71" height="70" viewBox="0 0 71 70" fill="none" xmlns="http://www.w3.org/2000/svg">
<rect x="0.5" width="70" height="70" rx="35" fill="white" fill-opacity="0.5"/>
<g clip-path="url(#clip0_13_1595)">
<path d="M50.0332 29.8989C48.551 28.4344 47.0762 26.9599 45.6087 25.4756C45.4912 25.3534 45.3493 25.2573 45.1923 25.1935C45.0352 25.1297 44.8665 25.0997 44.697 25.1054C42.2706 25.1054 39.8442 25.1142 37.4189 25.1054C37.1081 25.1054 37.1158 25.2427 37.1114 25.4657C37.107 25.6887 37.1213 25.8183 37.4211 25.8172C39.7278 25.8018 42.0345 25.8172 44.3488 25.8029C44.5685 25.8029 44.6311 25.8534 44.6289 26.0797C44.6158 27.1968 44.6531 28.3161 44.6136 29.4321C44.604 29.6366 44.6373 29.8408 44.7112 30.0317C44.7851 30.2226 44.898 30.396 45.0427 30.5407C45.1875 30.6854 45.3609 30.7984 45.5518 30.8723C45.7427 30.9462 45.9469 30.9794 46.1514 30.9699C47.0301 30.9567 47.9187 30.9479 48.8007 30.9765C49.1577 30.9875 49.0863 30.7897 49.1028 30.5821C49.1215 30.3438 49.0633 30.2526 48.7985 30.2625C47.9198 30.2812 47.0323 30.2724 46.1492 30.268C45.6461 30.268 45.333 30.0099 45.3297 29.5749C45.3198 28.4688 45.3297 27.3627 45.3297 26.2071C45.3678 26.2318 45.4045 26.2586 45.4396 26.2873C46.8309 27.6786 48.2222 29.07 49.6136 30.4613C49.683 30.5337 49.7358 30.6203 49.7684 30.7151C49.8011 30.81 49.8127 30.9108 49.8025 31.0105C49.8025 36.619 49.8025 42.2268 49.8025 47.8339C49.8025 48.7862 49.2785 49.3069 48.3196 49.3069H33.982C33.0231 49.3069 32.5013 48.7873 32.5002 47.8328C32.5002 46.1097 32.5002 44.386 32.5002 42.6614C32.5002 40.6843 32.5002 38.7049 32.5002 36.7234C32.5002 36.6234 32.5573 36.4598 32.4453 36.4356C32.2587 36.3905 32.064 36.3905 31.8774 36.4356C31.7302 36.4762 31.8093 36.6553 31.8093 36.7772C31.8049 40.4386 31.8049 44.1 31.8093 47.7614C31.8093 49.1893 32.6199 50.0011 34.0336 50.0011H48.2658C49.6861 50.0011 50.4945 49.1904 50.4945 47.7658C50.4945 42.1902 50.4963 36.6143 50.5 31.038C50.5086 30.8257 50.4714 30.6141 50.3909 30.4175C50.3103 30.2209 50.1883 30.0441 50.0332 29.8989Z" fill="#050615"/>
<path d="M36.8666 28.1897C36.8721 23.7126 33.1957 20.0175 28.7141 19.9999C24.2326 19.9824 20.5298 23.6588 20.5002 28.1348C20.4705 32.6318 24.1513 36.3433 28.6746 36.3664C33.154 36.3916 36.86 32.6922 36.8666 28.1897ZM28.6757 35.6689C24.5435 35.6502 21.1713 32.2638 21.1955 28.1524C21.2196 24.041 24.6225 20.6755 28.712 20.6952C32.8211 20.7161 36.1922 24.1102 36.1669 28.2029C36.1417 32.3341 32.7783 35.6865 28.6757 35.6689Z" fill="#050615"/>
<path d="M39.2653 39.8528C41.6452 39.8374 44.0251 39.8374 46.405 39.8528C46.7345 39.8528 46.6653 39.6716 46.6653 39.4947C46.6653 39.3179 46.7356 39.1312 46.4061 39.1377C45.2154 39.1608 44.0247 39.1465 42.834 39.1465C41.6433 39.1465 40.4526 39.1586 39.262 39.1388C38.9742 39.1334 38.9863 39.275 39.0016 39.4618C39.017 39.6485 38.9017 39.8561 39.2653 39.8528Z" fill="#050615"/>
<path d="M46.411 40.8018C45.2104 40.8238 44.0088 40.8106 42.8071 40.8106C41.6274 40.8106 40.4466 40.8249 39.2669 40.8018C38.9374 40.7952 39.0066 40.9797 39.0066 41.1577C39.0066 41.3356 38.9352 41.5191 39.2636 41.5169C41.645 41.5015 44.0249 41.5015 46.4033 41.5169C46.69 41.5169 46.6823 41.3829 46.6647 41.195C46.6472 41.0072 46.7757 40.7952 46.411 40.8018Z" fill="#050615"/>
<path d="M39.2666 43.1765C40.4562 43.1534 41.6469 43.1677 42.8376 43.1677C44.0283 43.1677 45.2178 43.1556 46.4085 43.1765C46.6952 43.1765 46.6842 43.0425 46.67 42.8547C46.6557 42.6668 46.7677 42.4614 46.4085 42.4636C44.0272 42.479 41.6473 42.479 39.2688 42.4636C38.9393 42.4636 39.0074 42.6449 39.0085 42.8228C39.0096 43.0008 38.936 43.1864 39.2666 43.1765Z" fill="#050615"/>
<path d="M34.1867 29.6848C34.1541 29.5662 34.091 29.4583 34.0037 29.3718C33.9164 29.2852 33.8079 29.2231 33.6891 29.1916C33.409 29.1092 33.3365 28.9401 33.3936 28.6709C33.4502 28.3993 33.4502 28.1188 33.3936 27.8471C33.342 27.5879 33.4024 27.4352 33.6792 27.3188C34.2284 27.087 34.3383 26.7377 34.0845 26.1852C33.9835 25.9655 33.8769 25.7459 33.7737 25.5262C33.4628 24.8671 33.1816 24.7573 32.5193 25.0429C32.4358 25.0802 32.36 25.1527 32.2535 25.0956C32.093 25.0168 31.9687 24.8797 31.906 24.7122C31.8433 24.5448 31.847 24.3597 31.9163 24.1949C31.9349 24.1455 31.9569 24.0971 31.9756 24.0477C32.1283 23.6534 32.003 23.3085 31.6208 23.1151C31.2814 22.9438 30.9354 22.7856 30.5894 22.6252C30.4733 22.5701 30.3438 22.5502 30.2165 22.5677C30.0893 22.5853 29.97 22.6396 29.8732 22.7241C29.7442 22.8201 29.6514 22.9566 29.6096 23.1118C29.5382 23.3733 29.3723 23.4216 29.134 23.3711C28.8633 23.308 28.5822 23.3046 28.3101 23.3612C28.0246 23.4249 27.8565 23.3744 27.7346 23.0613C27.5445 22.5747 27.1535 22.4594 26.6724 22.6791C26.4527 22.7801 26.233 22.8867 26.0134 22.991C25.2917 23.3304 25.206 23.5699 25.5235 24.3146C25.552 24.3827 25.6498 24.4574 25.5663 24.5442C25.4125 24.7046 25.273 24.8979 25.0852 25.0033C24.9622 25.0714 24.8018 24.9111 24.6601 24.8506C24.2449 24.6716 23.878 24.7968 23.6715 25.1999C23.5419 25.4548 23.4233 25.714 23.3025 25.9688C22.9927 26.6367 23.0883 26.9146 23.7517 27.2276C23.9033 27.299 23.9769 27.3693 23.9505 27.5571C23.8929 27.8839 23.8899 28.218 23.9417 28.5457C23.9956 28.8214 23.8978 28.9532 23.6397 29.0631C23.1289 29.2828 23.0147 29.6398 23.2464 30.1461C23.3563 30.3768 23.4661 30.6064 23.5683 30.8359C23.8692 31.4796 24.1801 31.5916 24.8359 31.3017C24.9182 31.2654 25.0094 31.1633 25.0984 31.2379C25.2766 31.3713 25.434 31.5305 25.5652 31.7103C25.6443 31.8344 25.4872 31.9772 25.4301 32.1068C25.2258 32.5692 25.3532 32.9317 25.8123 33.1536C26.0595 33.2733 26.3066 33.3941 26.5571 33.5084C27.2095 33.8082 27.4281 33.7358 27.7247 33.0855C27.7353 33.0482 27.7534 33.0135 27.7778 32.9834C27.8022 32.9533 27.8325 32.9284 27.8668 32.9104C27.9011 32.8923 27.9387 32.8814 27.9773 32.8782C28.0159 32.8751 28.0548 32.8798 28.0916 32.8922C28.3931 32.9618 28.706 32.9674 29.0098 32.9086C29.2877 32.846 29.4426 32.9086 29.559 33.192C29.7787 33.7127 30.1225 33.828 30.6377 33.6006C30.9475 33.4633 31.2572 33.326 31.5571 33.1701C31.9547 32.9636 32.1063 32.5934 31.902 32.2133C31.7317 31.8981 31.7416 31.6773 32.0514 31.4873C32.0778 31.4691 32.0996 31.4451 32.1151 31.417C32.2139 31.2577 32.3194 31.2874 32.4534 31.3807C32.6247 31.5016 32.7917 31.6466 33.0114 31.6191C33.1321 31.6282 33.2528 31.6019 33.3588 31.5433C33.4647 31.4848 33.5513 31.3966 33.6078 31.2896C33.8275 30.8887 34.0098 30.4734 34.1933 30.0571C34.2352 29.9362 34.2328 29.8042 34.1867 29.6848ZM32.5391 27.2221C32.7044 27.8518 32.7044 28.5136 32.5391 29.1433C32.4918 29.3267 32.5391 29.3981 32.6917 29.4442L32.7203 29.4563C32.94 29.5826 33.3574 29.6551 33.3508 29.8067C33.3365 30.111 33.1179 30.4053 32.9839 30.7041C32.9389 30.8063 32.8741 30.7667 32.8049 30.7316C32.6061 30.6338 32.3963 30.5536 32.204 30.4438C32.0601 30.3614 31.9844 30.3944 31.8877 30.5174C31.6365 30.8492 31.3408 31.1449 31.009 31.3961C30.8815 31.4928 30.8695 31.5741 30.942 31.7158C31.0661 31.9596 31.1616 32.2166 31.2715 32.4671C30.998 32.6022 30.7223 32.7351 30.451 32.8746C30.3411 32.9306 30.2489 32.9427 30.2159 32.7999C30.0599 32.1277 29.6744 31.9871 29.0241 32.1705C28.6166 32.2803 28.1575 32.21 27.7335 32.0837C27.5511 32.0299 27.4479 32.0684 27.3721 32.2584C27.2787 32.4912 27.1887 32.8405 27.0173 32.8977C26.846 32.9548 26.5779 32.7087 26.3341 32.6231C26.0902 32.5374 26.021 32.4166 26.1726 32.1771C26.2891 31.9926 26.445 31.7773 26.4362 31.5818C26.4275 31.3862 26.1364 31.3137 25.9925 31.1556C25.8826 31.0303 25.753 30.9139 25.6421 30.7854C25.306 30.3933 25.3126 30.3922 24.8391 30.6086C24.4349 30.7953 24.4349 30.7953 24.2504 30.3988C23.9659 29.7902 23.9593 29.776 24.5645 29.5079C24.8128 29.3981 24.8776 29.2773 24.8051 29.0137C24.6576 28.456 24.6614 27.869 24.8161 27.3133C24.8666 27.1222 24.8699 26.9838 24.6403 26.8992C24.4108 26.8146 24.0977 26.7619 24.0241 26.562C23.9505 26.3621 24.2054 26.1336 24.2724 25.9029C24.3613 25.5954 24.5074 25.591 24.7721 25.7316C25.3159 26.0216 25.3214 26.0007 25.7497 25.547C25.9404 25.3471 26.144 25.1599 26.3594 24.9868C26.4824 24.8891 26.523 24.8034 26.4286 24.6716C26.422 24.6639 26.4286 24.6518 26.4187 24.6419C26.3088 24.4003 26.0584 24.0763 26.1353 23.9379C26.2781 23.6819 26.6713 23.6435 26.9481 23.493C27.058 23.4359 27.0953 23.4589 27.1337 23.5644C27.2095 23.772 27.3084 23.973 27.3754 24.1839C27.4226 24.3322 27.4775 24.3838 27.6423 24.3388C28.2891 24.1591 28.9727 24.1591 29.6195 24.3388C29.7875 24.3849 29.8457 24.3256 29.9007 24.1894C29.9764 24.0501 30.0442 23.9068 30.1039 23.7599C30.1862 23.4579 30.3422 23.4655 30.5641 23.6094C30.786 23.7533 31.1375 23.7467 31.1902 23.9708C31.2341 24.1575 31.0353 24.4102 30.9167 24.6233C30.8189 24.7957 30.8332 24.9012 31.0024 25.0121C31.3226 25.2421 31.604 25.5217 31.8361 25.8403C31.8866 25.9029 31.9174 25.9952 32.0338 25.9919C32.2458 25.893 32.4732 25.7986 32.684 25.6832C32.8554 25.591 32.9619 25.5833 33.041 25.7931C33.1366 26.049 33.387 26.3192 33.3431 26.5367C33.2992 26.7542 32.9037 26.8036 32.6621 26.93C32.5358 27.0068 32.4951 27.0563 32.5391 27.2221Z" fill="#050615"/>
<path d="M28.7169 24.9769C28.0808 24.9715 27.4573 25.155 26.9256 25.5042C26.3939 25.8535 25.9779 26.3527 25.7301 26.9386C25.4824 27.5246 25.4142 28.1708 25.5342 28.7956C25.6542 29.4203 25.9569 29.9953 26.404 30.4479C26.8511 30.9004 27.4225 31.21 28.0457 31.3374C28.669 31.4649 29.316 31.4044 29.9049 31.1638C30.4938 30.9231 30.9979 30.5131 31.3535 29.9856C31.7091 29.4581 31.9001 28.8369 31.9023 28.2008C31.9041 27.3519 31.5703 26.5366 30.9736 25.9328C30.3769 25.3289 29.5658 24.9853 28.7169 24.9769ZM28.685 30.703C28.1876 30.7021 27.7016 30.5537 27.2886 30.2766C26.8755 29.9994 26.5539 29.606 26.3645 29.146C26.1751 28.6861 26.1264 28.1803 26.2246 27.6927C26.3227 27.205 26.5633 26.7574 26.9158 26.4066C27.2684 26.0557 27.7171 25.8173 28.2053 25.7215C28.6934 25.6257 29.1989 25.6768 29.6579 25.8684C30.117 26.0601 30.5089 26.3835 30.784 26.7979C31.0592 27.2123 31.2052 27.699 31.2037 28.1964C31.1985 28.8617 30.9311 29.498 30.4595 29.9673C29.988 30.4366 29.3503 30.701 28.685 30.703Z" fill="#050615"/>
</g>
<defs>
<clipPath id="clip0_13_1595">
<rect width="30" height="29.9945" fill="white" transform="translate(20.5 20)"/>
</clipPath>
</defs>
</svg>
