<svg width="71" height="70" viewBox="0 0 71 70" fill="none" xmlns="http://www.w3.org/2000/svg">
<rect x="0.5" width="70" height="70" rx="35" fill="white" fill-opacity="0.5"/>
<g clip-path="url(#clip0_13_1658)">
<path d="M27.495 18.7305C27.3326 19.0561 27.4706 19.3119 27.84 19.3464C28.1421 19.3742 28.4459 19.3464 28.7496 19.3573C29.0946 19.3674 29.1519 19.423 29.162 19.7621C29.1704 20.065 29.162 20.3688 29.167 20.6717C29.1609 20.8085 29.1955 20.9441 29.2663 21.0613C29.4119 21.2734 29.687 21.2725 29.8511 21.0613C29.9078 20.9983 29.9426 20.9186 29.9504 20.8341C29.9698 20.0701 30.1608 19.2917 29.7653 18.5622C29.7582 18.5423 29.7582 18.5206 29.7653 18.5007H27.5682C27.596 18.5933 27.5312 18.6572 27.495 18.7305Z" fill="#050615"/>
<path d="M27.3442 19.1496C27.4376 19.3819 27.632 19.4576 27.8785 19.4475C28.1924 19.4349 28.508 19.461 28.821 19.4391C29.0524 19.4231 29.0987 19.5081 29.0869 19.7193C29.0692 20.0433 29.081 20.3689 29.0869 20.6937C29.0869 21.1018 29.2653 21.3307 29.5749 21.329C29.8846 21.3273 30.0495 21.1085 30.052 20.6878C30.052 20.1829 30.0436 19.6781 30.052 19.1791C30.0588 18.9014 29.9856 18.6742 29.7634 18.5008C29.7564 18.5207 29.7564 18.5424 29.7634 18.5623C30.1589 19.2927 29.9679 20.071 29.9485 20.8342C29.9408 20.9187 29.906 20.9984 29.8493 21.0614C29.681 21.2726 29.41 21.2735 29.2644 21.0614C29.1942 20.944 29.1602 20.8085 29.1668 20.6718C29.1593 20.3689 29.1668 20.0651 29.1618 19.7622C29.1517 19.4256 29.0945 19.3676 28.7495 19.3575C28.4457 19.3482 28.1419 19.3743 27.8398 19.3465C27.4704 19.312 27.335 19.0562 27.4948 18.7306C27.531 18.6574 27.5958 18.5934 27.5638 18.5C27.5512 18.5236 27.5436 18.5547 27.5243 18.569C27.3257 18.7205 27.2516 18.9207 27.3442 19.1496Z" fill="#050615"/>
<path d="M21.6873 20.8292C21.6825 20.8798 21.6885 20.9309 21.705 20.9789C21.7215 21.027 21.7481 21.071 21.783 21.108C21.8179 21.145 21.8603 21.1741 21.9074 21.1933C21.9544 21.2126 22.0051 21.2215 22.0559 21.2196C22.2629 21.2289 22.4185 21.0581 22.432 20.7989C22.4488 20.4623 22.432 20.1257 22.4387 19.7933C22.4463 19.4164 22.5002 19.3642 22.8847 19.3566C23.1464 19.3507 23.4089 19.3566 23.6706 19.3566C24.1848 19.3465 24.3211 19.1042 24.0745 18.6489C24.058 18.6283 24.0461 18.6042 24.0397 18.5785C24.0333 18.5528 24.0326 18.526 24.0375 18.5H21.8968C21.4786 19.2439 21.726 20.05 21.6873 20.8292Z" fill="#050615"/>
<path d="M21.5811 19.0049C21.5895 19.6107 21.5811 20.2174 21.5853 20.8233C21.5853 21.1271 21.7915 21.3341 22.0616 21.3341C22.3317 21.3341 22.5252 21.1279 22.5311 20.8199C22.5379 20.4438 22.5429 20.0668 22.5311 19.6915C22.5244 19.5039 22.5665 19.434 22.7684 19.4433C23.1336 19.461 23.5005 19.4492 23.8623 19.4475C23.9518 19.4497 24.0397 19.4242 24.1141 19.3745C24.1886 19.3248 24.2458 19.2533 24.278 19.1698C24.3185 19.084 24.3318 18.9878 24.316 18.8942C24.3002 18.8007 24.2561 18.7142 24.1897 18.6464C24.1424 18.5944 24.0918 18.5455 24.0382 18.5C24.0336 18.5256 24.0346 18.5519 24.0409 18.5772C24.0473 18.6024 24.059 18.626 24.0752 18.6464C24.3218 19.1042 24.1855 19.344 23.6713 19.3541C23.4096 19.36 23.1471 19.3541 22.8854 19.3541C22.5008 19.3617 22.447 19.4138 22.4394 19.7908C22.4327 20.1274 22.4495 20.464 22.4327 20.7964C22.4192 21.0547 22.2644 21.2255 22.0565 21.2171C22.0057 21.219 21.9551 21.21 21.9081 21.1908C21.861 21.1715 21.8186 21.1424 21.7837 21.1055C21.7488 21.0685 21.7222 21.0245 21.7057 20.9764C21.6892 20.9283 21.6831 20.8773 21.688 20.8267C21.7267 20.05 21.4793 19.2439 21.8975 18.5C21.7242 18.6237 21.5777 18.7524 21.5811 19.0049Z" fill="#050615"/>
<path d="M33.6606 36.988C33.6606 37.0923 33.6606 37.1984 33.6682 37.3027C33.6909 37.5795 33.866 37.7234 34.1226 37.7285C34.3793 37.7335 34.5543 37.5838 34.6065 37.3254C34.6191 37.2213 34.6216 37.1162 34.614 37.0116V24.7034C34.614 24.228 34.614 24.228 35.0768 24.228H46.5343C47.4262 24.228 48.3182 24.233 49.2101 24.228C49.4533 24.228 49.5518 24.3121 49.5467 24.5587C49.5341 24.9365 49.5383 25.316 49.5467 25.6921C49.5518 26.0026 49.7445 26.197 50.0255 26.197C50.3066 26.197 50.4892 26.0085 50.4934 25.6862C50.4992 25.2453 50.4934 24.8052 50.4934 24.3643C50.4916 24.2224 50.4614 24.0823 50.4046 23.9522C50.3478 23.8221 50.2655 23.7048 50.1627 23.607C49.8833 23.3175 49.5316 23.2754 49.1529 23.2754C44.4407 23.2799 39.7285 23.2799 35.0162 23.2754C34.922 23.2754 34.8278 23.2805 34.7335 23.2805C34.4687 23.285 34.2159 23.3914 34.0275 23.5775C33.7532 23.83 33.6606 24.1447 33.6623 24.5099C33.6691 25.8108 33.6623 27.1125 33.6691 28.4134C33.6691 28.6061 33.6287 28.6659 33.4267 28.6448C32.9115 28.5975 32.3955 28.7259 31.9626 29.0092C31.8961 29.0504 31.8481 29.1346 31.7505 29.1135C31.3971 27.906 29.8774 26.8416 28.1246 27.8631C28.1246 27.4617 28.1314 27.0949 28.1246 26.728C28.1246 26.5656 28.1684 26.5075 28.3367 26.5126C28.7347 26.5227 29.1344 26.5235 29.5324 26.5126C29.8631 26.5033 30.0373 26.3561 30.0499 26.0447C30.0676 25.4153 30.0659 24.7825 30.0499 24.1565C30.05 24.0932 30.0376 24.0306 30.0135 23.9721C29.9893 23.9137 29.9539 23.8606 29.9092 23.8159C29.8645 23.7711 29.8114 23.7357 29.7529 23.7115C29.6945 23.6874 29.6318 23.675 29.5686 23.6751C29.4395 23.6801 29.3172 23.7343 29.2269 23.8266C29.1366 23.919 29.0851 24.0424 29.0831 24.1716C29.0704 24.3912 29.0831 24.6117 29.0831 24.8322C29.0831 25.5844 29.0831 25.5785 28.3257 25.5617C28.1574 25.5617 28.1145 25.5137 28.1179 25.3497C28.1272 24.7606 28.133 24.1716 28.1179 23.5826C28.0859 22.3372 27.1923 21.4074 25.9301 21.2963C24.8547 21.2054 23.7986 22.009 23.5689 23.1391C23.4578 23.6852 23.5294 24.2482 23.5294 24.8035C23.5218 25.576 23.5294 25.5701 22.7611 25.5609C22.5886 25.5609 22.5238 25.5205 22.5306 25.3362C22.5449 24.9592 22.539 24.5789 22.5306 24.2036C22.5255 23.8914 22.3336 23.6819 22.0661 23.6777C21.7985 23.6735 21.5864 23.8948 21.5839 24.2212C21.5839 24.8103 21.5797 25.3993 21.5839 25.9883C21.5839 26.3342 21.7572 26.5075 22.1031 26.5142C22.4809 26.5218 22.8604 26.5319 23.2365 26.5142C23.4772 26.5008 23.5344 26.5782 23.5302 26.8113C23.5159 27.609 23.5201 28.4101 23.5302 29.2036C23.5267 29.2641 23.5358 29.3247 23.5569 29.3815C23.578 29.4384 23.6106 29.4902 23.6528 29.5338C23.6949 29.5773 23.7457 29.6117 23.8018 29.6347C23.8579 29.6576 23.9181 29.6687 23.9787 29.6672C24.0415 29.6709 24.1044 29.6618 24.1636 29.6406C24.2229 29.6194 24.2772 29.5865 24.3235 29.5439C24.3697 29.5013 24.4069 29.4498 24.4328 29.3925C24.4587 29.3351 24.4729 29.2732 24.4743 29.2103C24.4811 29.1262 24.4743 29.042 24.4743 28.9579C24.4743 27.174 24.4743 25.39 24.4743 23.607C24.4743 23.0432 24.747 22.6216 25.2645 22.3911C25.782 22.1605 26.2692 22.2404 26.695 22.6073C27.0585 22.9187 27.141 23.3369 27.1401 23.798C27.1334 27.4393 27.1334 31.0801 27.1401 34.7202C27.1371 34.8457 27.1464 34.9711 27.1679 35.0947C27.1829 35.2003 27.2369 35.2965 27.3193 35.3642C27.4017 35.432 27.5065 35.4664 27.613 35.4607C27.7191 35.4713 27.8253 35.4424 27.9113 35.3795C27.9973 35.3166 28.0571 35.2242 28.0792 35.1199C28.1056 35.0081 28.1169 34.8932 28.1128 34.7783C28.1128 33.1105 28.1078 31.4419 28.1179 29.7741C28.1162 29.5757 28.1581 29.3793 28.2407 29.1989C28.3233 29.0185 28.4446 28.8585 28.596 28.7302C28.7473 28.6018 28.925 28.5084 29.1165 28.4564C29.308 28.4045 29.5086 28.3952 29.7041 28.4294C30.4345 28.5397 30.8897 29.1077 30.8914 29.9247C30.8914 31.9179 30.8914 33.9113 30.8914 35.905C30.8871 36.01 30.8897 36.1151 30.8989 36.2197C30.9351 36.4831 31.0891 36.6304 31.3584 36.6363C31.6638 36.6438 31.8422 36.4377 31.8422 36.0733C31.8422 34.3845 31.8422 32.6948 31.8422 31.006C31.8422 30.1814 32.5482 29.5158 33.3165 29.594C33.5462 29.6176 33.6691 29.6698 33.6674 29.9659C33.6531 32.3086 33.6606 34.6479 33.6606 36.988Z" fill="#050615"/>
<path d="M43.9578 26.716C44.8151 26.9651 45.5989 27.4191 46.2415 28.0388C46.4881 28.2727 46.7338 28.2913 46.9416 28.1112C47.1722 27.9126 47.1595 27.5996 46.897 27.3463C45.6643 26.159 44.1833 25.5792 42.4793 25.5489C41.9859 25.5381 41.4933 25.5947 41.0151 25.7172C38.3654 26.3769 36.5335 28.399 36.186 31.1026C35.9234 33.1533 36.5554 34.9296 38.0061 36.3937C38.6986 37.093 39.5619 37.2764 40.496 36.9693C42.1545 36.424 42.7309 34.3061 41.451 32.9555C40.8208 32.2916 40.8561 31.3727 41.4847 30.8014C42.1133 30.23 43.0162 30.3083 43.6388 30.9747C44.1871 31.5676 44.6035 32.2699 44.8607 33.0354C44.9658 33.3417 45.2115 33.4747 45.4623 33.3939C45.7366 33.3098 45.8595 33.0455 45.7619 32.7384C45.4512 31.7352 44.8849 30.8302 44.1185 30.1122C43.8567 29.8697 43.5447 29.688 43.2045 29.58C42.8644 29.4721 42.5047 29.4406 42.151 29.4878C41.7973 29.535 41.4584 29.6597 41.1585 29.853C40.8586 30.0463 40.605 30.3035 40.416 30.6061C40.1237 31.059 39.9929 31.5974 40.0448 32.1339C40.0967 32.6705 40.3284 33.1738 40.7021 33.5622C41.1128 34.004 41.2911 34.5013 41.1229 35.0853C40.8048 36.1994 39.4349 36.5158 38.617 35.665C37.3893 34.3801 36.8945 32.8377 37.1402 31.0841C37.5895 27.8873 40.8536 25.8098 43.9578 26.716Z" fill="#050615"/>
<path d="M22.6737 43.9965C21.8567 43.0877 21.4671 42.0022 21.4561 40.7838C21.4486 39.8287 21.4561 38.8745 21.4561 37.9228C21.4513 37.682 21.4617 37.4412 21.4873 37.2017C21.6471 35.9832 22.4886 35.337 23.5253 34.8035C23.5253 36.7666 23.5253 38.6869 23.5253 40.6096C23.5253 41.0009 23.6936 41.2247 23.9906 41.2298C24.2877 41.2348 24.4762 41.0043 24.4762 40.6256C24.4762 37.5817 24.4762 34.5384 24.4762 31.4957C24.4762 31.1406 24.2868 30.9176 23.9982 30.9168C23.7096 30.9159 23.5287 31.1305 23.5287 31.4906C23.5287 32.1301 23.5219 32.7705 23.5287 33.4109C23.5369 33.4817 23.5231 33.5534 23.489 33.616C23.455 33.6787 23.4024 33.7293 23.3385 33.7609C22.9253 34.0075 22.5181 34.2658 22.1201 34.5359C21.1061 35.2217 20.5532 36.1835 20.5162 37.4045C20.4817 38.5051 20.512 39.6074 20.4994 40.7089C20.4868 42.269 21.0287 43.6078 22.0612 44.7665C23.0595 45.8617 23.6079 47.2933 23.5968 48.7752C23.5968 49.2683 23.5901 49.7614 23.5968 50.2545C23.5947 50.3176 23.6053 50.3804 23.6281 50.4392C23.651 50.498 23.6855 50.5516 23.7296 50.5967C23.7738 50.6418 23.8266 50.6774 23.8849 50.7015C23.9432 50.7255 24.0058 50.7375 24.0689 50.7367C24.1294 50.741 24.1901 50.7327 24.2472 50.7125C24.3043 50.6923 24.3567 50.6605 24.401 50.6191C24.4453 50.5777 24.4806 50.5276 24.5047 50.472C24.5288 50.4164 24.5411 50.3564 24.541 50.2957C24.5603 49.5199 24.5973 48.7399 24.5081 47.9683C24.3398 46.446 23.697 45.1333 22.6737 43.9965Z" fill="#050615"/>
<path d="M46.412 37.9513C46.4734 38.1583 46.6047 38.3038 46.8277 38.3266C47.0801 38.3518 47.2409 38.2256 47.3401 37.9984C47.7987 36.9491 48.0285 35.8535 48.031 34.3986C48.0125 32.6534 47.3469 30.84 46.0241 29.2656C45.1877 28.2685 44.1552 27.6214 42.8408 27.5179C42.1416 27.4591 41.4385 27.5686 40.7903 27.8372C40.1421 28.1059 39.5677 28.5259 39.1151 29.0621C38.6625 29.5983 38.345 30.2351 38.189 30.9192C38.033 31.6033 38.0432 32.3148 38.2186 32.9942C38.406 33.7501 38.7989 34.4395 39.3538 34.9859C39.4386 35.0806 39.5573 35.1379 39.6842 35.1455C39.811 35.153 39.9357 35.1102 40.0312 35.0263C40.2264 34.8496 40.2398 34.582 40.0615 34.3532C40.0042 34.2783 39.9361 34.2118 39.8763 34.1394C39.0853 33.1802 38.838 32.0938 39.1981 30.9073C39.9798 28.3325 43.2077 27.6105 45.0354 29.6207C47.1474 31.9432 47.6187 34.6014 46.5012 37.5373C46.449 37.6685 46.3666 37.7981 46.412 37.9513Z" fill="#050615"/>
<path d="M43.799 40.9403C43.7148 40.9336 43.6307 40.9403 43.5465 40.9403H38.2933C37.1817 40.9403 36.0693 40.9361 34.9577 40.9403C34.7052 40.9403 34.5925 40.873 34.6085 40.5987C34.6295 40.2326 34.6186 39.8649 34.6085 39.498C34.6026 39.1934 34.4015 38.9772 34.1364 38.973C33.8713 38.9688 33.6669 39.1783 33.6601 39.4871C33.6517 39.8641 33.6559 40.2444 33.6601 40.6197C33.6601 41.4612 34.1162 41.9097 34.9652 41.9105C35.8984 41.9105 36.8316 41.9173 37.7648 41.9063C38.0013 41.9063 38.0358 41.9635 37.9886 42.1899C37.8461 42.907 37.6125 43.6029 37.2936 44.2607C37.0353 44.785 36.7214 45.2781 36.4816 45.8133C35.8522 47.2202 35.6696 48.7012 35.7243 50.2242C35.736 50.5516 35.9169 50.7342 36.1997 50.7342C36.4824 50.7342 36.6743 50.533 36.686 50.199C36.6911 50.0837 36.686 49.9684 36.686 49.8523C36.6716 49.2972 36.7031 48.7419 36.7803 48.1921C36.9486 47.1041 37.3508 46.1044 37.8994 45.1561C38.4455 44.2261 38.8051 43.1986 38.958 42.131C38.9858 41.9366 39.0783 41.9055 39.2525 41.9072C39.9964 41.9156 40.7411 41.9072 41.4858 41.9072C42.2515 41.9072 43.0173 41.9122 43.783 41.9072C44.1196 41.9072 44.3148 41.706 44.3114 41.4149C44.3081 41.1238 44.1255 40.9672 43.799 40.9403Z" fill="#050615"/>
<path d="M50.4895 34.4037V28.5774C50.4895 28.346 50.4971 28.1145 50.4827 27.8848C50.4659 27.6114 50.2901 27.4734 50.0326 27.4489C49.9108 27.4435 49.7917 27.4856 49.7003 27.5663C49.609 27.647 49.5525 27.76 49.5428 27.8815C49.5378 27.9759 49.5378 28.0706 49.5428 28.165V40.442C49.5428 40.5153 49.5378 40.5893 49.5428 40.6625C49.5605 40.872 49.452 40.9461 49.2593 40.9385C49.186 40.9385 49.112 40.9385 49.0388 40.9385C48.0837 40.9385 47.1287 40.9385 46.1778 40.9385C45.7461 40.9385 45.4861 41.2145 45.5888 41.5519C45.678 41.8355 45.9052 41.9129 46.182 41.9121C47.1791 41.9121 48.1763 41.8894 49.1726 41.918C49.8693 41.9373 50.5147 41.4863 50.5021 40.6011C50.4693 38.5353 50.4895 36.4678 50.4895 34.4037Z" fill="#050615"/>
<path d="M36.6873 37.8537C37.7812 38.8635 39.0763 39.2741 40.5387 38.9822C42.5583 38.5783 43.9046 37.0745 44.0973 35.0104C44.2109 33.7878 43.8205 32.6964 43.0034 31.7708C42.7653 31.4998 42.4017 31.5108 42.2259 31.78C42.0576 32.0325 42.156 32.2538 42.3327 32.4625C42.8747 33.102 43.1414 33.845 43.1422 34.9027C43.1086 35.9369 42.5785 36.9138 41.519 37.5954C40.309 38.3713 38.5083 38.2846 37.3403 37.1595C37.0652 36.8945 36.8035 36.8953 36.5956 37.1158C36.3878 37.3362 36.413 37.6013 36.6873 37.8537Z" fill="#050615"/>
<path d="M43.8498 39.503C45.0885 38.4208 45.8113 37.0627 46.0124 35.5582C46.0368 35.0912 45.898 34.8934 45.6203 34.8623C45.314 34.8269 45.1154 35.007 45.0683 35.3596C45.0439 35.5346 45.0144 35.7105 44.9749 35.883C44.7212 37.0013 44.1165 38.0091 43.249 38.7591C43.0151 38.9678 42.9857 39.2455 43.1531 39.4525C43.1937 39.5042 43.2447 39.5469 43.3028 39.5778C43.3608 39.6087 43.4247 39.6271 43.4903 39.6318C43.5559 39.6366 43.6218 39.6276 43.6837 39.6054C43.7456 39.5832 43.8022 39.5483 43.8498 39.503Z" fill="#050615"/>
</g>
<defs>
<clipPath id="clip0_13_1658">
<rect width="30" height="32.2366" fill="white" transform="translate(20.5 18.5)"/>
</clipPath>
</defs>
</svg>
