<svg width="71" height="70" viewBox="0 0 71 70" fill="none" xmlns="http://www.w3.org/2000/svg">
<rect x="0.5" width="70" height="70" rx="35" fill="white" fill-opacity="0.5"/>
<g clip-path="url(#clip0_13_1547)">
<path d="M22.6163 33.0717C22.8685 33.0789 22.9259 33.0135 22.9259 32.7621C22.9162 28.9313 22.9219 25.1014 22.913 21.2707C22.913 21.0201 22.9704 20.9611 23.2218 20.9611C31.407 20.9692 39.592 20.9692 47.7768 20.9611C48.0265 20.9611 48.088 21.0152 48.0872 21.2682C48.0785 24.978 48.0764 28.6875 48.0807 32.3967C48.0807 33.0652 48.0807 33.0514 48.7452 33.0708C48.9965 33.0781 49.0556 33.0135 49.0547 32.7612C49.0456 28.7292 49.0437 24.6972 49.0491 20.6652C49.0491 20.1285 48.9165 19.9991 48.3677 19.9991H22.6333C22.0739 20 21.9551 20.1252 21.9551 20.6951V32.3983C21.9551 33.066 21.9551 33.0523 22.6163 33.0717Z" fill="#050615"/>
<path d="M47.5103 32.9754C47.2475 32.7427 46.9374 32.5698 46.6013 32.4686C46.2652 32.3675 45.9111 32.3405 45.5636 32.3895C45.216 32.4385 44.8832 32.5624 44.5882 32.7526C44.2932 32.9429 44.0431 33.1948 43.855 33.4912C43.2657 34.3892 42.7071 35.3083 42.1453 36.2242C42.1008 36.3116 42.0342 36.3858 41.9521 36.4394C41.8699 36.493 41.7752 36.5241 41.6773 36.5297C41.0306 36.6017 40.3839 36.7124 39.7373 36.8102C38.8723 36.9404 38.3445 37.6056 38.4051 38.4867C38.4568 39.2425 39.1326 39.8375 39.9507 39.8383C41.1696 39.8383 42.3886 39.8334 43.6076 39.8431C43.9075 39.8431 44.0926 39.7388 44.2236 39.4656C44.4434 38.996 44.6859 38.5368 44.9559 38.0001C45.1984 39.3145 45.4231 40.5464 45.6543 41.7775C45.7263 42.1558 45.8629 42.2576 46.2541 42.2584H49.9111C50.3443 42.2584 50.4979 42.0968 50.4995 41.6514C50.5103 40.7147 50.3739 39.7821 50.0954 38.8877C49.5368 37.1295 48.7745 35.4482 48.089 33.7385C47.9604 33.4413 47.7618 33.1795 47.5103 32.9754ZM49.498 41.0977C49.5093 41.2642 49.4745 41.3006 49.3177 41.2973C48.8845 41.2892 48.4512 41.2973 48.0179 41.2973C47.6243 41.2973 47.2306 41.2828 46.8385 41.303C46.6082 41.3151 46.5378 41.2375 46.499 41.0128C46.2323 39.4899 45.9445 37.971 45.6713 36.4497C45.6244 36.1926 45.5096 36.0164 45.2429 35.9784C44.9761 35.9404 44.8104 36.0851 44.6972 36.3139C44.31 37.0964 43.918 37.8764 43.534 38.6581C43.4613 38.806 43.3869 38.8844 43.1986 38.882C42.1405 38.8699 41.0823 38.882 40.0234 38.8747C39.5336 38.8747 39.2539 38.5053 39.4293 38.1092C39.4693 38.0166 39.5341 37.9368 39.6165 37.8787C39.699 37.8205 39.7958 37.7861 39.8965 37.7794C40.6822 37.6687 41.4663 37.5426 42.2536 37.4375C42.3579 37.4265 42.458 37.3902 42.5451 37.3319C42.6323 37.2736 42.704 37.195 42.754 37.1028C43.357 36.1288 43.973 35.1628 44.5711 34.1855C44.9171 33.6197 45.3924 33.3012 46.0658 33.3772C46.7124 33.4475 47.0996 33.8476 47.3268 34.441C47.9096 35.9663 48.5846 37.4553 49.1051 39.0041C49.3254 39.6822 49.4575 40.3858 49.498 41.0977Z" fill="#050615"/>
<path d="M21.0534 42.2577C22.2928 42.2577 23.5323 42.2577 24.7718 42.2577C25.1347 42.2577 25.2762 42.1461 25.3449 41.7816C25.5761 40.5497 25.8008 39.3161 26.0441 37.9977C26.3173 38.5425 26.5582 39.0122 26.7886 39.4875C26.8329 39.5992 26.9116 39.6938 27.0134 39.7578C27.1151 39.8217 27.2346 39.8516 27.3544 39.8432C28.6041 39.8343 29.853 39.8432 31.1027 39.8375C31.8561 39.8375 32.5149 39.2466 32.5909 38.5207C32.6757 37.7075 32.1584 36.9614 31.3824 36.8232C30.6896 36.7011 29.992 36.6041 29.2936 36.5233C29.2056 36.5185 29.1203 36.4908 29.0462 36.443C28.9721 36.3953 28.9117 36.3291 28.8709 36.2509C28.3188 35.352 27.7634 34.4556 27.196 33.5664C26.6657 32.7346 25.9026 32.3102 24.91 32.3878C23.8794 32.4687 23.1818 33.0288 22.7978 33.9811C22.2805 35.2626 21.7666 36.5454 21.2563 37.8296C20.7536 39.0613 20.4961 40.3793 20.4981 41.7096C20.4997 42.0855 20.6727 42.2569 21.0534 42.2577ZM21.5028 41.0638C21.5752 40.0811 21.8002 39.1157 22.1697 38.2022C22.679 36.9275 23.1931 35.6543 23.6967 34.378C23.923 33.8048 24.315 33.4362 24.9334 33.37C25.5801 33.3004 26.0554 33.5842 26.3941 34.1306C26.981 35.0788 27.5921 36.0132 28.1603 36.9752C28.3535 37.2985 28.6001 37.4343 28.9517 37.478C29.6703 37.5685 30.3857 37.6768 31.1019 37.7811C31.4252 37.828 31.6362 38.06 31.6241 38.3405C31.6111 38.6363 31.3727 38.8659 31.0364 38.8715C30.4819 38.8812 29.9274 38.8715 29.3728 38.8715C28.8587 38.8715 28.3446 38.8618 27.8313 38.8764C27.7538 38.8873 27.6749 38.8711 27.6079 38.8306C27.5409 38.7901 27.4899 38.7278 27.4635 38.6541C27.0974 37.8951 26.7142 37.1441 26.3424 36.3907C26.2203 36.141 26.0756 35.9316 25.7555 35.9744C25.4354 36.0173 25.3513 36.263 25.3061 36.5338C25.0369 38.026 24.7588 39.5158 24.4977 41.0096C24.4589 41.2343 24.3886 41.3038 24.1582 41.2998C23.3426 41.2844 22.5262 41.2885 21.7098 41.2998C21.5255 41.2974 21.4891 41.2594 21.5028 41.0638Z" fill="#050615"/>
<path d="M36.6142 28.3607C36.4792 28.4965 36.4162 28.452 36.3079 28.3429C35.5496 27.5771 34.7879 26.8143 34.0227 26.0545C33.6694 25.7029 33.4568 25.7045 33.1052 26.0545C32.1783 26.9803 31.2522 27.9064 30.3269 28.8328C30.1653 28.9944 29.8864 29.1666 29.8848 29.3347C29.8832 29.5029 30.1782 29.6581 30.3229 29.8367C30.4676 30.0154 30.5508 30.0089 30.7141 29.8424C31.5944 28.9419 32.4925 28.064 33.3768 27.1619C33.5215 27.0148 33.5983 27.0002 33.7495 27.1571C34.4818 27.9072 35.2271 28.6436 35.9684 29.384C36.3782 29.7939 36.5593 29.7931 36.9723 29.384L42.0164 24.34C42.0891 24.2672 42.1667 24.1985 42.2742 24.0975V25.0812C42.2742 25.8152 42.2742 25.8087 43.0017 25.8087C43.2014 25.8087 43.2499 25.7554 43.2442 25.5598C43.2337 24.7037 43.2442 23.8469 43.2394 22.9909C43.2394 22.577 43.0729 22.4169 42.6493 22.4161H40.5961C39.829 22.4161 39.8347 22.4161 39.8508 23.1873C39.8508 23.349 39.8937 23.391 40.0521 23.3878C40.5411 23.3773 41.0302 23.3837 41.5516 23.3837C41.5304 23.4172 41.5074 23.4496 41.4829 23.4807C39.8592 25.1076 38.2363 26.7343 36.6142 28.3607Z" fill="#050615"/>
<path d="M40.8207 47.0397C40.8104 46.4142 40.5563 45.8175 40.1126 45.3767C39.6688 44.9358 39.0705 44.6856 38.445 44.6793C36.4796 44.6739 34.514 44.6739 32.5481 44.6793C31.9226 44.6883 31.3253 44.9408 30.883 45.3833C30.4408 45.8257 30.1885 46.4231 30.1797 47.0486C30.1797 47.633 30.1797 48.2174 30.1797 48.8027C30.1797 49.5302 30.1797 49.5213 30.9177 49.5213C31.0996 49.5213 31.1602 49.4841 31.1529 49.2917C31.1392 48.6168 31.1465 47.941 31.1473 47.2652C31.1473 46.2491 31.7454 45.6485 32.7543 45.6485C33.6704 45.6485 34.5878 45.6485 35.5067 45.6485C36.454 45.6485 37.4014 45.6437 38.3496 45.6485C39.2258 45.655 39.845 46.2774 39.8555 47.1553C39.8628 47.7098 39.8555 48.2643 39.8555 48.8189C39.8555 49.5262 39.8555 49.5189 40.5782 49.5229C40.7698 49.5229 40.832 49.4825 40.8288 49.2804C40.8142 48.5343 40.8272 47.785 40.8207 47.0397Z" fill="#050615"/>
<path d="M32.5977 41.358C32.6139 43.2252 34.469 44.5994 36.2692 44.0991C36.9183 43.9154 37.4845 43.5143 37.873 42.9628C38.2615 42.4114 38.4487 41.7432 38.4032 41.0702C38.4032 40.97 38.4032 40.8689 38.4032 40.7679C38.3927 39.3371 37.3572 38.1586 35.8973 37.9193C34.5927 37.7059 33.2428 38.5312 32.7658 39.81C32.5791 40.3176 32.5937 40.8358 32.5977 41.358ZM35.0429 38.9329C36.2328 38.6581 37.3265 39.464 37.4267 40.6887C37.4865 41.4162 37.4203 42.1283 36.8407 42.6683C36.2611 43.2083 35.5562 43.3756 34.8053 43.0806C34.0309 42.7766 33.634 42.1687 33.5685 41.3426C33.5604 41.2432 33.5685 41.1413 33.5685 41.1001C33.5144 39.7801 34.309 39.1051 35.0429 38.9354V38.9329Z" fill="#050615"/>
<path d="M29.4247 34.6414C29.5419 34.6939 29.5944 34.6875 29.6397 34.5517C29.7318 34.2768 29.8563 34.0125 29.9517 33.7385C30.0026 33.593 30.0762 33.5445 30.233 33.5445C33.7487 33.5493 37.2642 33.5493 40.7794 33.5445C40.9193 33.5445 40.9936 33.58 41.0405 33.7215C41.1294 33.9866 41.2386 34.2453 41.3469 34.504C41.4382 34.7238 41.4536 35.0763 41.6387 35.1288C41.8238 35.1814 42.0914 34.9785 42.3282 34.9065C42.4899 34.8564 42.5206 34.7909 42.4535 34.6301C42.2304 34.0941 42.0138 33.555 41.8149 33.0134C41.7026 32.7062 41.5175 32.5769 41.1844 32.5785C39.301 32.5882 37.4175 32.5834 35.5341 32.5834C33.62 32.5834 31.7066 32.5834 29.7949 32.5834C29.4901 32.5834 29.3018 32.6957 29.2056 32.9875C29.1328 33.2058 29.0367 33.4159 28.9574 33.6342C28.8693 33.8767 28.6276 34.1548 28.7368 34.3383C28.8459 34.5218 29.1878 34.5355 29.4247 34.6414Z" fill="#050615"/>
<path d="M23.8867 29.6362C23.8811 31.0104 24.9376 32.0936 26.2794 32.0968C26.9211 32.1036 27.5391 31.8551 27.9976 31.4062C28.4561 30.9572 28.7175 30.3446 28.7243 29.7029C28.731 29.0612 28.4826 28.4432 28.0337 27.9847C27.5847 27.5262 26.972 27.2648 26.3304 27.2581C24.9796 27.2548 23.8948 28.313 23.8867 29.6362ZM26.3304 28.2273C27.1064 28.2378 27.7741 28.9232 27.7555 29.692C27.7524 29.979 27.6642 30.2586 27.502 30.4954C27.3398 30.7322 27.1109 30.9155 26.8444 31.0221C26.5779 31.1287 26.2858 31.1538 26.005 31.0941C25.7243 31.0345 25.4675 30.8928 25.2674 30.6871C25.0672 30.4814 24.9327 30.2209 24.8807 29.9386C24.8288 29.6563 24.8619 29.365 24.9757 29.1015C25.0896 28.838 25.2791 28.6143 25.5203 28.4586C25.7614 28.303 26.0434 28.2225 26.3304 28.2273Z" fill="#050615"/>
<path d="M42.2744 29.6718C42.2733 30.1497 42.4138 30.6172 42.6781 31.0154C42.9424 31.4136 43.3187 31.7245 43.7596 31.9091C44.2005 32.0936 44.6861 32.1434 45.1552 32.0523C45.6244 31.9611 46.056 31.7331 46.3957 31.3969C46.7354 31.0607 46.9679 30.6315 47.0639 30.1633C47.1598 29.6951 47.115 29.209 46.9351 28.7662C46.7551 28.3235 46.448 27.944 46.0526 27.6756C45.6572 27.4072 45.1911 27.2619 44.7132 27.2581C44.3938 27.2535 44.0767 27.3127 43.7804 27.4321C43.4841 27.5515 43.2146 27.7287 42.9876 27.9534C42.7605 28.1781 42.5805 28.4458 42.4581 28.7408C42.3357 29.0359 42.2732 29.3523 42.2744 29.6718ZM44.7253 28.2273C45.503 28.2434 46.1666 28.9321 46.1432 29.6992C46.1189 30.4898 45.4536 31.1381 44.6792 31.1252C43.8822 31.1122 43.2162 30.4211 43.2461 29.6386C43.2624 29.2578 43.4255 28.898 43.7013 28.6349C43.9771 28.3717 44.3441 28.2257 44.7253 28.2273Z" fill="#050615"/>
<path d="M29.3912 45.6389C28.283 45.6543 27.1739 45.6478 26.0657 45.6389C25.9849 45.6389 25.8232 45.7198 25.8305 45.5516C25.8507 45.0666 25.727 44.5622 25.9113 44.0869C26.2831 43.1169 26.6679 42.1469 27.0478 41.1769C27.3219 40.4768 27.3186 40.4857 26.6251 40.2125C26.4335 40.1373 26.3745 40.1955 26.3098 40.3629C25.8499 41.5398 25.3867 42.7143 24.9259 43.8881C24.8769 44.009 24.8516 44.1383 24.8516 44.2688C24.8572 44.8637 24.8516 45.4579 24.8516 46.0528C24.8516 46.4481 25.0213 46.6122 25.4255 46.613C26.0811 46.613 26.7358 46.613 27.3914 46.613H29.0242C29.6903 46.613 29.6774 46.613 29.6968 45.9477C29.7073 45.6955 29.641 45.6357 29.3912 45.6389Z" fill="#050615"/>
<path d="M46.0294 43.7846C45.6366 42.7976 45.2558 41.8058 44.8678 40.8172C44.7805 40.5957 44.7304 40.2594 44.572 40.1923C44.4135 40.1252 44.1403 40.3362 43.9116 40.4049C43.7192 40.4623 43.699 40.5391 43.775 40.7283C44.1266 41.5908 44.4329 42.4718 44.8048 43.3255C45.0987 43.9753 45.2296 44.687 45.1863 45.3989C45.1726 45.6179 45.1128 45.6551 44.9123 45.6527C43.9552 45.6422 42.9981 45.6478 42.0403 45.6478C41.2909 45.6478 41.2998 45.6478 41.2998 46.3963C41.2998 46.596 41.3677 46.6219 41.5423 46.6195C42.2278 46.6106 42.9165 46.6195 43.5987 46.6195C44.2632 46.6195 44.9285 46.6195 45.5937 46.6195C45.9728 46.6195 46.1442 46.4465 46.1458 46.0674C46.1458 45.5128 46.1418 44.9583 46.1458 44.4046C46.1498 44.1921 46.1102 43.9811 46.0294 43.7846Z" fill="#050615"/>
<path d="M30.9025 22.4145C30.0263 22.4258 29.1492 22.4194 28.2722 22.4194H26.0347C25.3355 22.4194 25.346 22.4194 25.3322 23.1145C25.3282 23.3417 25.3856 23.3942 25.6111 23.3926C27.214 23.3821 28.8162 23.3869 30.4183 23.3869C31.1539 23.3869 31.1458 23.3869 31.1507 22.6594C31.1515 22.4638 31.0997 22.4121 30.9025 22.4145Z" fill="#050615"/>
<path d="M28.5125 24.3513C28.0194 24.3626 27.5255 24.3513 27.0316 24.3513H26.0616C25.3268 24.3513 25.3341 24.3513 25.3301 25.0788C25.3301 25.2769 25.381 25.3286 25.5782 25.3262C26.3866 25.314 27.1901 25.3213 27.9968 25.3213C28.7421 25.3213 28.7356 25.3213 28.7243 24.5647C28.7275 24.3958 28.6839 24.3473 28.5125 24.3513Z" fill="#050615"/>
</g>
<defs>
<clipPath id="clip0_13_1547">
<rect width="30" height="29.5215" fill="white" transform="translate(20.5 20)"/>
</clipPath>
</defs>
</svg>
