<svg width="71" height="70" viewBox="0 0 71 70" fill="none" xmlns="http://www.w3.org/2000/svg">
<rect x="0.5" width="70" height="70" rx="35" fill="white" fill-opacity="0.5"/>
<g clip-path="url(#clip0_13_1582)">
<path d="M48.2945 35.3346C48.1105 35.3033 48.0728 35.2527 48.0765 35.0853C48.0866 34.6381 48.0765 34.191 48.0765 33.7429C48.0765 32.7943 47.507 32.2221 46.5639 32.2211C45.1765 32.2211 43.7882 32.2083 42.3998 32.2303C42.0695 32.2303 42.0207 32.1273 42.0226 31.8329C42.0336 29.4702 42.029 27.1066 42.0281 24.743C42.0281 24.2922 41.9067 24.1689 41.465 24.168C40.4223 24.168 39.3796 24.168 38.3369 24.168C37.8842 24.168 37.7747 24.2802 37.7747 24.7375C37.7747 26.9628 37.7747 29.1884 37.7747 31.4143C37.7747 32.2248 37.7747 32.2129 36.9623 32.2276C36.7075 32.2276 36.6403 32.1715 36.6431 31.9102C36.6578 30.5917 36.6523 29.2724 36.6486 27.954C36.6486 27.5271 36.5198 27.4019 36.0966 27.4019C35.041 27.4019 33.9857 27.4019 32.9307 27.4019C32.5139 27.4019 32.4026 27.5133 32.4026 27.9291C32.4026 29.0645 32.4026 30.1992 32.4026 31.3333C32.4026 32.2533 32.4026 32.2423 31.4926 32.223C31.2875 32.223 31.2461 32.1512 31.2507 31.9645C31.2617 31.4603 31.258 30.9524 31.2507 30.4501C31.2507 30.0581 31.1301 29.9477 30.7327 29.9468C29.7114 29.9468 28.6905 29.9468 27.6698 29.9468C27.069 29.9468 27.0083 30.0094 27.0083 30.6221C27.0083 33.4436 27.0083 36.2651 27.0083 39.0865C27.0083 39.2135 27.0083 39.3396 27.0083 39.4656C27.0129 39.7729 27.1611 39.9256 27.4766 39.9256C27.8088 39.921 28.1418 39.9339 28.474 39.921C28.658 39.9137 28.7389 39.9551 28.7325 40.1621C28.7169 40.6221 28.7325 41.0821 28.7325 41.6001C28.6101 41.5311 28.5328 41.4888 28.4565 41.4446C27.4734 40.8628 26.3272 40.618 25.1921 40.7472C21.8073 41.1217 19.6581 44.5498 20.8164 47.7396C21.0994 48.5318 21.5689 49.2444 22.1852 49.817C22.8016 50.3897 23.5466 50.8057 24.3575 51.0299C25.1683 51.2541 26.0212 51.2799 26.8442 51.1051C27.6671 50.9304 28.436 50.5602 29.0858 50.0259C29.2698 49.8778 29.3535 49.8796 29.5219 50.0379C30.0353 50.5209 30.66 50.7371 31.362 50.7371C36.8565 50.7371 42.351 50.7371 47.8456 50.7371C49.4188 50.7371 50.4962 49.6524 50.4962 48.0809C50.4962 44.7074 50.4962 41.3339 50.4962 37.9604C50.4999 36.5592 49.6829 35.5756 48.2945 35.3346ZM38.542 28.5916C38.542 27.4682 38.5476 26.3448 38.5365 25.2223C38.5365 24.9979 38.5926 24.9279 38.8217 24.9325C39.5431 24.946 40.265 24.946 40.9875 24.9325C41.2019 24.9325 41.258 24.9942 41.2571 25.203C41.2504 27.462 41.2504 29.7202 41.2571 31.9773C41.2571 32.1751 41.2001 32.2276 41.0059 32.2248C40.2846 32.2138 39.5615 32.211 38.8401 32.2248C38.6037 32.2294 38.5328 32.1715 38.5356 31.9258C38.5466 30.8162 38.5393 29.7039 38.5393 28.5916H38.542ZM33.1607 30.1915C33.1607 29.6064 33.168 29.0221 33.1561 28.437C33.1561 28.2401 33.1855 28.161 33.4137 28.161C34.1497 28.1775 34.8812 28.1739 35.6145 28.161C35.8113 28.161 35.8647 28.218 35.8638 28.4121C35.8555 29.6082 35.8537 30.7969 35.8638 31.9893C35.8638 32.2046 35.7791 32.2239 35.6034 32.2221C34.8674 32.2147 34.1359 32.2119 33.4027 32.2221C33.2094 32.2221 33.1506 32.1742 33.1552 31.9773C33.1662 31.3848 33.1579 30.7877 33.1579 30.1915H33.1607ZM30.9884 32.9793C36.1407 32.9793 41.293 32.9793 46.4453 32.9793C47.1095 32.9793 47.2963 33.1679 47.2963 33.8331C47.2963 34.2011 47.277 34.5691 47.3027 34.9371C47.3239 35.2306 47.2503 35.3199 46.9347 35.318C44.273 35.3033 41.6113 35.3097 38.9496 35.3097C36.3122 35.3097 33.6747 35.3097 31.0372 35.3097C30.7736 35.3211 30.5103 35.283 30.2607 35.1975C30.0322 35.1183 29.8362 34.9659 29.7031 34.764C29.57 34.562 29.5073 34.3218 29.5247 34.0806C29.5394 33.8392 29.6309 33.6088 29.7859 33.4231C29.9408 33.2374 30.151 33.1061 30.3858 33.0483C30.5832 33.0012 30.7855 32.9781 30.9884 32.9793ZM28.3939 39.1712C27.7876 39.1528 27.7876 39.1666 27.7876 38.5584V34.9463C27.7876 33.6389 27.7959 32.3306 27.7802 31.0242C27.7802 30.7583 27.8548 30.7021 28.1059 30.7086C28.8162 30.7261 29.5274 30.7215 30.2386 30.7086C30.4346 30.7086 30.5063 30.7629 30.4852 30.9579C30.4714 31.0836 30.4714 31.2104 30.4852 31.3361C30.5496 31.8881 30.4999 32.2561 29.8108 32.4686C29.0499 32.6996 28.738 33.4236 28.7334 34.2167C28.723 35.7532 28.723 37.29 28.7334 38.8271C28.7343 39.1059 28.658 39.1795 28.3893 39.1712H28.3939ZM25.7506 50.4602C24.8653 50.4565 24.0008 50.1909 23.2662 49.6966C22.5317 49.2024 21.9599 48.5017 21.623 47.683C21.2861 46.8642 21.1991 45.9641 21.373 45.096C21.547 44.2279 21.9741 43.4307 22.6004 42.805C23.2268 42.1792 24.0244 41.753 24.8927 41.5799C25.7609 41.4069 26.661 41.4947 27.4794 41.8325C28.2978 42.1703 28.9979 42.7428 29.4914 43.4778C29.9849 44.2129 30.2497 45.0776 30.2524 45.963C30.2523 46.5539 30.1357 47.139 29.9094 47.6849C29.6831 48.2308 29.3514 48.7267 28.9333 49.1443C28.5153 49.562 28.019 49.8931 27.4729 50.1189C26.9268 50.3447 26.3415 50.4607 25.7506 50.4602ZM49.7271 48.0681C49.7813 49.3902 48.7408 49.9845 47.7839 49.9827C44.9011 49.9772 42.0217 49.9772 39.1456 49.9827H31.4706C30.9259 49.9827 30.4309 49.8465 30.0187 49.4702C29.8982 49.3607 29.8485 49.2862 29.969 49.1123C31.4926 46.9392 31.362 44.4201 29.6341 42.4226C29.5519 42.3445 29.504 42.237 29.5007 42.1236C29.5007 40.0011 29.5007 37.8785 29.5007 35.6897C30.0316 36.043 30.5698 36.0817 31.1255 36.0807C36.6783 36.0752 42.2308 36.0737 47.783 36.0761C48.335 36.0761 48.8181 36.2298 49.2229 36.6125C49.3854 36.7666 49.5135 36.9533 49.5988 37.1604C49.6841 37.3675 49.7247 37.5903 49.7179 37.8141C49.7179 38.6633 49.7087 39.5125 49.7252 40.3608C49.7307 40.6083 49.6332 40.6368 49.4262 40.6368C47.9698 40.6304 46.5124 40.6561 45.056 40.6258C43.94 40.6028 43.1239 41.4538 43.2021 42.4944C43.2352 42.9544 43.2067 43.4144 43.2076 43.8745C43.2076 44.9196 43.9197 45.629 44.9851 45.6345C46.4425 45.6419 47.8999 45.6474 49.3563 45.6272C49.6737 45.6226 49.7353 45.7192 49.7243 46.0108C49.7068 46.6935 49.6985 47.3789 49.7271 48.0662V48.0681ZM49.7271 44.617C49.7271 44.8138 49.6461 44.8396 49.4805 44.8378C48.7012 44.8322 47.9219 44.8378 47.1426 44.8378C46.4204 44.8378 45.6991 44.8378 44.9769 44.8378C44.3328 44.8378 43.9832 44.4863 43.974 43.8404C43.9666 43.3592 43.9648 42.8771 43.974 42.396C43.9869 41.8007 44.3172 41.4299 44.8996 41.4235C46.4351 41.406 47.9707 41.4179 49.5072 41.4124C49.6691 41.4124 49.7261 41.463 49.7252 41.6286C49.7188 42.6204 49.7169 43.6178 49.7261 44.6151L49.7271 44.617Z" fill="#050615"/>
<path d="M22.1558 39.9283C23.2101 39.9283 24.2648 39.9283 25.3198 39.9283C25.7522 39.9283 25.8599 39.8179 25.8599 39.3763C25.8599 37.6589 25.8599 35.939 25.8599 34.2167V29.0589C25.8599 28.5805 25.7734 28.4885 25.3079 28.4875C24.2651 28.4875 23.2224 28.4875 22.1797 28.4875C21.7252 28.4875 21.6083 28.6035 21.6074 29.0515C21.6074 32.4913 21.6074 35.9313 21.6074 39.3717C21.6102 39.8005 21.7371 39.9274 22.1558 39.9283ZM22.6958 29.2503C23.4172 29.2668 24.1394 29.2631 24.8607 29.2503C25.0539 29.2503 25.1082 29.3 25.1073 29.495C25.1018 32.6348 25.1018 35.7749 25.1073 38.9154C25.1073 39.1491 25.0153 39.1684 24.8313 39.1656C24.121 39.1564 23.4098 39.1518 22.7004 39.1656C22.4575 39.1711 22.3959 39.1003 22.3977 38.8611C22.4079 37.3025 22.4033 35.744 22.4033 34.1854C22.4033 32.6268 22.4088 31.0913 22.3968 29.5447C22.3931 29.3046 22.4575 29.2447 22.6968 29.2503H22.6958Z" fill="#050615"/>
<path d="M23.9708 26.02L28.111 28.0063C28.5609 28.2235 28.6106 28.2115 28.9593 27.8315C30.1452 26.5435 31.3385 25.2554 32.5125 23.9489C32.703 23.7373 32.8539 23.7208 33.094 23.8257C33.6065 24.0483 34.1383 24.2268 34.6443 24.4614C34.9433 24.6003 35.1678 24.5644 35.4346 24.3869C37.1284 23.2571 38.8314 22.1429 40.5317 21.0241C40.7267 20.8953 40.9245 20.7711 41.1693 20.6138C41.1214 20.9615 41.0855 21.244 41.0432 21.5265C40.9981 21.8245 41.1168 22.0555 41.3588 22.0785C41.6458 22.1061 41.7756 21.9184 41.8105 21.6672C41.897 21.0554 41.966 20.4417 42.0497 19.8271C42.0921 19.5134 41.9577 19.3441 41.656 19.3018C40.9199 19.2006 40.1839 19.1012 39.4478 19.0037C39.2013 18.9715 38.9998 19.0515 38.9593 19.3147C38.9151 19.5907 39.0752 19.7305 39.3494 19.7655C39.7864 19.8225 40.2216 19.8934 40.6697 19.9596C40.6421 20.0047 40.6356 20.0295 40.62 20.0406C38.786 21.2501 36.953 22.4603 35.1209 23.6711C34.993 23.7548 34.8945 23.7272 34.7749 23.6775C34.1741 23.4319 33.5669 23.2 32.9707 22.9415C32.6745 22.8136 32.4665 22.8642 32.2476 23.1062C31.2196 24.2403 30.1866 25.3649 29.1488 26.48C28.9004 26.7459 28.7017 27.1884 28.3834 27.2225C28.065 27.2565 27.7246 26.9575 27.4007 26.8011C26.351 26.3006 25.303 25.7964 24.2514 25.2977C23.9487 25.1551 23.681 25.26 23.6313 25.5369C23.5816 25.8139 23.7638 25.9215 23.9708 26.02Z" fill="#050615"/>
<path d="M25.8358 44.1026C26.2958 44.1348 26.5488 44.3566 26.6114 44.8166C26.6472 45.0788 26.7788 45.2352 27.03 45.2122C27.2812 45.1892 27.398 45.0098 27.375 44.7632C27.375 44.1606 27.0125 43.6638 26.3915 43.4411C26.2075 43.3749 26.1099 43.3031 26.1357 43.0897C26.1679 42.8219 26.0437 42.6296 25.7612 42.6296C25.4788 42.6296 25.3601 42.8201 25.3813 43.0897C25.3951 43.2645 25.3638 43.3657 25.165 43.4338C24.4217 43.6951 24.0941 44.2278 24.1447 45.0236C24.187 45.6824 24.5624 46.0752 25.3205 46.2611C25.6112 46.3202 25.8981 46.3964 26.1799 46.4892C26.5654 46.6337 26.7006 46.9769 26.5589 47.3541C26.4393 47.6706 26.0805 47.8758 25.6987 47.8472C25.2561 47.815 24.981 47.5795 24.9139 47.1324C24.8725 46.8563 24.7519 46.699 24.4686 46.7358C24.1852 46.7726 24.1236 46.9695 24.1438 47.2142C24.1926 47.8196 24.4953 48.2502 25.0638 48.4646C25.292 48.5511 25.4227 48.6366 25.3905 48.9126C25.3629 49.1546 25.5165 49.3027 25.764 49.3027C26.0115 49.3027 26.1523 49.1574 26.1375 48.9108C26.1228 48.6642 26.1863 48.5603 26.432 48.4729C27.1211 48.2291 27.4173 47.7028 27.3759 46.9042C27.3437 46.2786 27.0153 45.9105 26.2985 45.7081C25.9811 45.6161 25.6545 45.5536 25.3454 45.4404C24.9645 45.3005 24.8357 44.9914 24.959 44.6123C25.0657 44.2664 25.4052 44.0723 25.8358 44.1026Z" fill="#050615"/>
<path d="M45.8935 41.9305C45.7353 41.9292 45.5784 41.9596 45.4322 42.0198C45.2859 42.0801 45.1531 42.169 45.0417 42.2813C44.9302 42.3936 44.8424 42.527 44.7833 42.6737C44.7241 42.8205 44.695 42.9775 44.6974 43.1357C44.6974 43.4512 44.8227 43.7538 45.0458 43.9769C45.2689 44.2 45.5715 44.3253 45.887 44.3253C46.2025 44.3253 46.5051 44.2 46.7282 43.9769C46.9513 43.7538 47.0767 43.4512 47.0767 43.1357C47.0795 42.9785 47.0509 42.8223 46.9927 42.6763C46.9346 42.5302 46.8479 42.3972 46.7377 42.285C46.6276 42.1729 46.4962 42.0837 46.3513 42.0228C46.2063 41.962 46.0507 41.9306 45.8935 41.9305ZM45.9202 43.5332C45.6699 43.5424 45.5061 43.4163 45.4822 43.155C45.4777 43.098 45.4848 43.0407 45.5033 42.9865C45.5217 42.9324 45.5509 42.8825 45.5892 42.8401C45.6276 42.7976 45.6741 42.7634 45.7261 42.7396C45.7781 42.7158 45.8344 42.7028 45.8916 42.7015C46.1134 42.6969 46.3066 42.8855 46.3167 43.1523C46.3169 43.2041 46.3065 43.2554 46.2862 43.303C46.2658 43.3507 46.2359 43.3937 46.1984 43.4293C46.1608 43.465 46.1163 43.4926 46.0677 43.5105C46.0191 43.5283 45.9673 43.5361 45.9156 43.5332H45.9202Z" fill="#050615"/>
</g>
<defs>
<clipPath id="clip0_13_1582">
<rect width="30" height="32.2238" fill="white" transform="translate(20.5 19)"/>
</clipPath>
</defs>
</svg>
