<svg width="71" height="70" viewBox="0 0 71 70" fill="none" xmlns="http://www.w3.org/2000/svg">
<rect x="0.5" width="70" height="70" rx="35" fill="white" fill-opacity="0.5"/>
<g clip-path="url(#clip0_13_1618)">
<path d="M50.4809 27.1605C50.4809 24.2761 50.4809 21.3912 50.4809 18.5057C50.4809 15.4713 50.4809 12.4338 50.4809 9.40248C50.4809 8.15696 49.8005 7.50773 48.5659 7.50773C42.4587 7.50773 36.352 7.50513 30.2458 7.49994C30.0724 7.49424 29.8998 7.5248 29.7389 7.58968C29.5781 7.65456 29.4325 7.75233 29.3116 7.87671C26.5092 10.5753 23.6933 13.2678 20.8639 15.9539C20.7451 16.0573 20.6507 16.1858 20.5877 16.3302C20.5247 16.4745 20.4946 16.631 20.4996 16.7884C20.5058 26.1569 20.5058 35.5237 20.4996 44.889C20.4996 46.1345 21.2033 46.8196 22.4581 46.8258C23.5993 46.8258 24.7437 46.8492 25.8833 46.8149C26.3208 46.8009 26.4329 46.9301 26.3784 47.3427C26.2321 48.4465 26.749 49.1643 27.7376 49.5924C27.9589 49.691 28.175 49.8006 28.3853 49.9209C28.7963 50.1553 29.1162 50.5215 29.2931 50.9604C29.47 51.3992 29.4935 51.8849 29.3599 52.3388C28.5441 55.0478 27.7293 57.7579 26.9156 60.469C26.833 60.7414 26.7178 61.0139 26.9856 61.2474C27.2534 61.4809 27.515 61.2599 27.7501 61.1369C28.4429 60.7741 29.1357 60.4067 29.8145 60.0159C30.0776 59.8602 30.1897 59.9163 30.3189 60.1716C30.6693 60.8722 31.0476 61.5588 31.4088 62.2516C31.538 62.4992 31.6361 62.7981 31.9926 62.7592C32.3492 62.7202 32.385 62.4182 32.4597 62.1457C33.2584 59.4881 34.0789 56.8383 34.8542 54.1728C34.9772 53.7462 35.1905 53.7774 35.4941 53.8303C35.723 53.8692 35.6903 54.0716 35.7354 54.2227C36.5928 57.0562 37.4501 59.8898 38.3074 62.7234C38.3822 62.9678 38.4351 63.248 38.7745 63.2792C39.1139 63.3103 39.2089 63.0534 39.3319 62.8199C39.7055 62.1099 40.0916 61.4062 40.4528 60.6916C40.5852 60.4285 40.7035 60.3989 40.9604 60.5484C41.6376 60.9407 42.332 61.3019 43.0233 61.6709C43.2677 61.8001 43.5293 61.9901 43.8017 61.7581C44.0742 61.5261 43.9325 61.2459 43.8516 60.9796C42.9922 58.1274 42.1333 55.2731 41.2749 52.4166C41.2282 52.261 41.1192 52.043 41.1846 51.9496C41.7015 51.1369 41.9163 50.0937 42.9999 49.7123C44.1505 49.306 44.7857 48.5104 44.5895 47.2213C44.535 46.8678 44.711 46.8351 45.0021 46.8398C46.092 46.8538 47.1818 46.8024 48.2607 46.8569C49.5062 46.9177 50.5058 46.2933 50.4918 44.6493C50.4528 38.8124 50.4809 32.9865 50.4809 27.1605ZM29.4362 8.99613C29.4362 11.3471 29.4362 13.5719 29.4362 15.7951C29.4362 16.0442 29.3179 16.0582 29.1248 16.0582C26.8066 16.0582 24.4899 16.0582 22.0456 16.0582L29.4362 8.99613ZM34.0617 53.7618C33.3331 56.1859 32.6076 58.61 31.8447 61.1556C31.4897 60.4845 31.1799 59.8929 30.867 59.3044C30.554 58.7159 30.4357 58.6707 29.8223 58.993L27.9836 59.9754C28.6733 57.693 29.3272 55.5242 29.9811 53.3555C29.992 53.3197 29.9967 53.2823 30.0076 53.2465C30.2349 52.4945 30.2349 52.4945 30.9806 52.6502C31.3879 52.719 31.8043 52.7122 32.209 52.6299C32.9221 52.507 33.4732 52.8355 34.0166 53.22C34.2626 53.3913 34.1178 53.5734 34.0617 53.7618ZM42.6496 60.0175C42.6901 60.1514 42.7135 60.2899 42.7586 60.4845C42.0985 60.1296 41.5006 59.8275 40.923 59.4912C40.4762 59.2312 40.1788 59.2764 39.9422 59.7746C39.6495 60.3896 39.3023 60.9781 38.9333 61.66C38.1299 58.9868 37.3671 56.4226 36.5824 53.8646C36.4983 53.5937 36.5528 53.4909 36.7692 53.329C37.5025 52.7763 38.2747 52.4384 39.2167 52.6658C39.38 52.7124 39.5531 52.7124 39.7164 52.6658C40.3392 52.426 40.4778 52.7716 40.6241 53.2729C41.2827 55.532 41.9724 57.7724 42.6496 60.0175ZM44.3903 44.5543C44.0997 44.9333 43.8903 45.3679 43.7748 45.8313C43.6594 46.2946 43.6405 46.7768 43.7192 47.2477C43.836 48.0682 43.4997 48.5773 42.7539 48.8529C41.798 49.2048 41.197 49.8898 40.7891 50.8053C40.3516 51.7768 40.0885 51.9029 39.0283 51.7565C38.6208 51.6931 38.2047 51.7106 37.804 51.8081C37.4033 51.9056 37.0257 52.0812 36.6929 52.3248C35.5377 53.1282 35.4365 53.125 34.2626 52.3123C33.605 51.8379 32.7889 51.6375 31.9864 51.7534C30.8545 51.8998 30.6272 51.7814 30.157 50.7367C29.76 49.854 29.1684 49.2094 28.2576 48.8685C27.4963 48.5835 27.1304 48.0729 27.2627 47.2275C27.3498 46.7273 27.3246 46.214 27.1888 45.7247C27.0531 45.2355 26.8104 44.7825 26.4781 44.3986C26.011 43.8303 26.011 43.2247 26.4781 42.6642C26.8146 42.2728 27.0599 41.8114 27.1961 41.3135C27.3324 40.8157 27.3562 40.2937 27.2659 39.7855C27.146 38.9852 27.4901 38.4932 28.2109 38.2286C29.1824 37.8674 29.7974 37.1761 30.2084 36.2373C30.6054 35.3312 30.8592 35.1693 31.8182 35.3032C32.2889 35.3741 32.769 35.3492 33.2297 35.2299C33.6904 35.1106 34.1223 34.8993 34.4992 34.6088C35.3882 33.9704 35.5891 33.972 36.4999 34.6212C37.3001 35.1942 38.1346 35.4464 39.1279 35.3063C40.1212 35.1661 40.3532 35.3327 40.7845 36.2575C41.1503 37.036 41.6143 37.6961 42.4317 38.0838C43.7379 38.7065 43.7286 38.7252 43.6974 40.2915C43.5417 41.0466 43.8858 41.7892 44.3856 42.5054C45.0301 43.4193 45.0504 43.6653 44.3903 44.5543ZM49.5903 44.6508C49.5903 45.7188 49.3755 45.9337 48.3137 45.9337C47.2518 45.9337 46.1776 45.9166 45.1095 45.943C44.6425 45.9539 44.6425 45.8091 44.8636 45.476C45.0846 45.1428 45.2979 44.8221 45.4863 44.4811C45.6603 44.1909 45.7522 43.8589 45.7522 43.5205C45.7522 43.1821 45.6603 42.8501 45.4863 42.5599C45.4223 42.4248 45.344 42.2969 45.2528 42.1784C44.9743 41.8615 44.771 41.4857 44.6581 41.0792C44.5451 40.6726 44.5254 40.2458 44.6004 39.8306C44.7733 38.6256 44.2221 37.8502 43.1385 37.4205C42.3974 37.1278 41.9335 36.6156 41.5987 35.8963C40.976 34.5574 40.4669 34.2631 38.9878 34.4173C38.6372 34.4675 38.2801 34.445 37.9386 34.3512C37.5971 34.2575 37.2785 34.0945 37.0027 33.8724C36.0032 33.0768 34.9912 33.0628 33.9901 33.8724C33.3876 34.3581 32.7275 34.4951 31.9506 34.4219C30.5027 34.2787 30.0013 34.5776 29.391 35.8932C29.2449 36.2461 29.029 36.5658 28.7564 36.8333C28.4839 37.1009 28.1601 37.3106 27.8045 37.4501C26.7459 37.8596 26.229 38.638 26.3815 39.8213C26.4874 40.6418 26.3691 41.4047 25.8117 42.0835C25.0333 43.0363 25.0691 44.0187 25.8117 45.0042C26.0048 45.2611 26.3753 45.5709 26.2274 45.8527C26.1091 46.08 25.6451 45.9244 25.3369 45.9275C24.3825 45.9415 23.4265 45.9399 22.4706 45.9275C21.6921 45.9275 21.4119 45.6472 21.4119 44.8828C21.4119 35.7033 21.4077 26.5227 21.3994 17.3411C21.3994 16.9488 21.5551 16.9379 21.8665 16.9379C24.4323 16.9472 27.0043 16.9379 29.5654 16.9379C30.2754 16.9379 30.3439 16.8741 30.3439 16.1703C30.3439 13.7338 30.3548 11.2988 30.3345 8.86223C30.3345 8.46211 30.4451 8.37648 30.8312 8.37804C36.7132 8.39049 42.5957 8.3936 48.4787 8.38738C49.3661 8.38738 49.6074 8.62247 49.6074 9.51146C49.6074 15.3955 49.6074 21.2785 49.6074 27.1605L49.5903 44.6508Z" fill="#050615"/>
<path d="M26.1697 22.1347C26.3374 22.149 26.5058 22.1547 26.6741 22.1519H44.0865C44.4228 22.1519 44.7902 22.1347 44.784 21.7097C44.784 21.3111 44.4337 21.2317 44.0834 21.2426C44.0087 21.2426 43.9277 21.2426 43.8592 21.2426C38.1506 21.2426 32.4419 21.2426 26.7333 21.2426C26.5282 21.2338 26.3228 21.2495 26.1214 21.2893C26.0701 21.2992 26.0213 21.3191 25.9777 21.348C25.9342 21.3769 25.8969 21.4142 25.8679 21.4577C25.8389 21.5011 25.8189 21.5499 25.809 21.6012C25.799 21.6525 25.7994 21.7053 25.81 21.7564C25.8091 21.8538 25.8462 21.9478 25.9133 22.0184C25.9804 22.089 26.0723 22.1307 26.1697 22.1347Z" fill="#050615"/>
<path d="M44.3655 24.8284C44.2347 24.819 44.1039 24.8284 43.9732 24.8284H26.6137C26.483 24.8206 26.352 24.8206 26.2213 24.8284C26.1648 24.828 26.1087 24.8393 26.0568 24.8617C26.0049 24.8842 25.9582 24.9171 25.9197 24.9586C25.8811 25 25.8517 25.049 25.8331 25.1024C25.8146 25.1559 25.8073 25.2126 25.8119 25.269C25.808 25.326 25.8159 25.3832 25.8351 25.4371C25.8542 25.491 25.8842 25.5404 25.9231 25.5823C25.962 25.6241 26.0091 25.6576 26.0615 25.6805C26.1139 25.7035 26.1704 25.7155 26.2276 25.7158C26.3774 25.7244 26.5276 25.7244 26.6775 25.7158H43.9233C44.0726 25.7252 44.2224 25.7252 44.3717 25.7158C44.4863 25.7121 44.5947 25.6632 44.6732 25.5797C44.7517 25.4963 44.7939 25.3851 44.7905 25.2705C44.7933 25.2132 44.7843 25.1559 44.7641 25.1021C44.744 25.0483 44.7131 24.9993 44.6733 24.9579C44.6335 24.9165 44.5857 24.8836 44.5327 24.8614C44.4798 24.8391 44.4229 24.8279 44.3655 24.8284Z" fill="#050615"/>
<path d="M44.3066 28.3843C44.1509 28.3843 44.0061 28.3843 43.8566 28.3843H28.8621C28.0198 28.3843 27.1775 28.3843 26.3352 28.3843C26.0425 28.3843 25.809 28.4792 25.8106 28.8249C25.8121 29.1705 26.0519 29.2577 26.3383 29.2764C26.4504 29.2764 26.5641 29.2764 26.6762 29.2764H43.9158C44.0481 29.2764 44.1789 29.2764 44.3097 29.2764C44.5822 29.2484 44.7923 29.102 44.7908 28.8233C44.7892 28.5446 44.5899 28.3936 44.3066 28.3843Z" fill="#050615"/>
<path d="M35.4253 37.4299C32.1931 37.352 29.3004 40.0206 29.2054 43.1717C29.0964 46.7246 31.726 49.5551 35.2088 49.6438C38.5235 49.7248 41.2808 47.0235 41.3789 43.6155C41.4676 40.3288 38.7555 37.5108 35.4253 37.4299ZM35.31 48.7579C32.4858 48.7735 30.1069 46.4226 30.0913 43.6201C30.0793 42.5903 30.3734 41.5802 30.9364 40.7178C31.4993 39.8554 32.3058 39.1796 33.2534 38.7763C34.201 38.3729 35.247 38.2601 36.2588 38.4521C37.2706 38.6442 38.2026 39.1324 38.9365 39.8549C39.6704 40.5775 40.1732 41.5017 40.381 42.5104C40.5888 43.519 40.4924 44.5667 40.1039 45.5205C39.7154 46.4743 39.0523 47.2912 38.1988 47.8676C37.3454 48.444 36.3399 48.7538 35.31 48.7579Z" fill="#050615"/>
</g>
<defs>
<clipPath id="clip0_13_1618">
<rect width="30" height="55.773" fill="white" transform="translate(20.5 7.5)"/>
</clipPath>
</defs>
</svg>
