<svg width="71" height="70" viewBox="0 0 71 70" fill="none" xmlns="http://www.w3.org/2000/svg">
<rect x="0.5" width="70" height="70" rx="35" fill="white" fill-opacity="0.5"/>
<g clip-path="url(#clip0_13_1532)">
<path d="M44.5747 40.8191C44.4323 40.6617 44.2533 40.542 44.0535 40.4706C43.8537 40.3992 43.6393 40.3783 43.4295 40.4097C43.3337 40.4267 43.2351 40.4169 43.1445 40.3815C43.0539 40.3461 42.9748 40.2865 42.9158 40.2091C41.9203 39.1636 40.9236 38.1205 39.9133 37.0898C39.7263 36.8981 39.7024 36.7893 39.8646 36.5523C41.664 33.9444 42.2616 31.0666 41.5246 27.987C40.1798 22.3664 34.8551 18.9365 29.1801 19.9649C24.1854 20.8697 20.5003 25.31 20.5094 30.4952C20.4931 30.9262 20.5209 31.3578 20.5922 31.7832C20.9006 34.0419 21.7952 36.0398 23.3815 37.6794C26.1334 40.5277 29.4783 41.5731 33.3698 40.8349C34.6861 40.5752 35.9367 40.053 37.0469 39.2997C37.1603 39.2283 37.2385 39.1432 37.3791 39.2906C38.4427 40.4086 39.5176 41.5175 40.5903 42.6265C40.6335 42.6614 40.6654 42.7084 40.682 42.7615C40.6985 42.8146 40.699 42.8713 40.6832 42.9247C40.5438 43.4474 40.7229 43.8817 41.071 44.2626C41.2434 44.4509 41.4237 44.6312 41.6017 44.816C43.2277 46.5024 44.8529 48.1889 46.4773 49.8753C47.0703 50.4899 47.931 50.5556 48.5308 50.0091C49.0599 49.5306 49.572 49.0393 50.0672 48.5351C50.6273 47.9681 50.6454 47.137 50.0932 46.5576C48.2632 44.6361 46.4237 42.7232 44.5747 40.8191ZM31.0816 39.9845C25.8658 39.9483 21.5922 35.6758 21.5832 30.4022C21.5786 25.149 25.8783 20.8584 31.1587 20.8561C36.4788 20.8561 40.7195 25.107 40.7286 30.4498C40.7309 35.6974 36.4017 40.0197 31.0861 39.9845H31.0816ZM41.3999 41.8679C41.3477 41.9155 41.2944 41.8135 41.2524 41.7715C40.2501 40.7352 39.2474 39.6992 38.2443 38.6636C38.123 38.5389 38.1128 38.4618 38.2568 38.3586C38.3524 38.2826 38.4429 38.2004 38.5278 38.1125C38.9813 37.6794 38.9813 37.6782 39.4349 38.1454C40.3042 39.0525 41.1735 39.9566 42.0428 40.8576L42.2219 41.0458C42.2219 41.064 42.2219 41.0787 42.214 41.0844C41.952 41.3475 41.6867 41.6151 41.4089 41.8679H41.3999ZM49.261 47.8139L47.8448 49.1746C47.8126 49.2121 47.7722 49.2418 47.7269 49.2614C47.6815 49.281 47.6323 49.2901 47.5829 49.288C47.5219 49.291 47.4611 49.2789 47.4059 49.2528C47.3507 49.2267 47.3028 49.1874 47.2665 49.1383C45.4742 47.2772 43.682 45.4165 41.8897 43.5562C41.6629 43.3159 41.672 43.1469 41.9203 42.9054C42.3489 42.4881 42.782 42.0743 43.2129 41.6581C43.4873 41.3939 43.6313 41.3951 43.9057 41.6797C45.3419 43.1628 46.774 44.647 48.202 46.1324C48.5478 46.4907 48.8925 46.8524 49.2428 47.2073C49.4469 47.4103 49.4832 47.6076 49.2701 47.8139H49.261Z" fill="#050615"/>
<path d="M44.9242 29.4396C44.1554 30.1415 43.7302 31.5395 44.8267 32.8163L44.5239 33.0158C43.4524 33.729 42.898 34.7359 42.8379 36.0149C42.8209 36.3766 43.034 36.6113 43.3504 36.6249C43.6667 36.6386 43.8652 36.4537 43.9116 36.1011C43.927 35.9022 43.9527 35.7043 43.9887 35.5081C44.2904 34.2608 45.4741 33.39 46.684 33.5102C48.0514 33.6451 49.0356 34.6724 49.0946 36.024C49.1116 36.4129 49.3134 36.6317 49.6502 36.6249C49.9869 36.6181 50.1763 36.388 50.1638 35.9934C50.1196 34.6736 49.5152 33.6723 48.412 32.9682C48.2226 32.8469 48.192 32.7913 48.3462 32.5997C48.7073 32.1375 48.8814 31.5565 48.8339 30.972C48.7865 30.3874 48.521 29.8421 48.0901 29.4442C47.6592 29.0463 47.0945 28.8249 46.508 28.8241C45.9216 28.8233 45.3562 29.043 44.9242 29.4396ZM47.7589 31.1892C47.7509 31.5184 47.6153 31.8316 47.3807 32.0627C47.146 32.2937 46.8307 32.4245 46.5014 32.4273C46.2493 32.4291 46.0025 32.3556 45.7924 32.2162C45.5824 32.0768 45.4187 31.878 45.3223 31.6451C45.226 31.4121 45.2013 31.1557 45.2515 30.9087C45.3016 30.6617 45.4244 30.4352 45.604 30.2584C45.7836 30.0815 46.0119 29.9623 46.2597 29.9159C46.5075 29.8696 46.7635 29.8982 46.9949 29.9981C47.2263 30.0981 47.4226 30.2648 47.5587 30.477C47.6948 30.6892 47.7645 30.9371 47.7589 31.1892Z" fill="#050615"/>
<path d="M36.5122 46.1948C36.3285 46.0757 36.2854 46.0224 36.434 45.8206C36.9805 45.079 37.0655 44.2729 36.6426 43.4451C36.2197 42.6174 35.5348 42.241 34.6345 42.2058C34.4775 42.2132 34.3211 42.2303 34.1662 42.2568C32.5119 42.6446 31.8418 44.486 32.8611 45.8591C32.9745 46.0202 32.9745 46.0734 32.8033 46.1664C32.5025 46.336 32.2339 46.557 32.0096 46.8195C31.4291 47.4566 31.1058 48.2866 31.1025 49.1485C31.0984 49.218 31.108 49.2876 31.1307 49.3534C31.1535 49.4191 31.189 49.4797 31.2353 49.5318C31.2815 49.5838 31.3375 49.6262 31.4002 49.6565C31.4628 49.6869 31.5308 49.7046 31.6003 49.7086C31.6692 49.7147 31.7387 49.707 31.8047 49.686C31.8706 49.6649 31.9317 49.631 31.9845 49.5862C32.0372 49.5414 32.0805 49.4865 32.1119 49.4248C32.1433 49.3631 32.1621 49.2958 32.1672 49.2267C32.1876 49.0839 32.2012 48.9399 32.2216 48.797C32.2722 48.4652 32.3909 48.1474 32.5703 47.8637C32.7497 47.58 32.9858 47.3365 33.2639 47.1485C33.542 46.9605 33.856 46.8321 34.1861 46.7714C34.5163 46.7107 34.8554 46.719 35.1822 46.7957C36.307 47.0792 36.9805 47.9081 37.0871 49.1406C37.1188 49.508 37.3286 49.7223 37.6427 49.7075C37.9568 49.6928 38.1699 49.4592 38.1563 49.0975C38.1144 47.8491 37.5622 46.8762 36.5122 46.1948ZM34.6107 45.6278C34.4589 45.6284 34.3085 45.5991 34.1681 45.5415C34.0277 45.4839 33.9 45.3992 33.7924 45.2922C33.6847 45.1852 33.5993 45.058 33.5408 44.9179C33.4824 44.7778 33.4522 44.6276 33.4519 44.4758C33.4499 44.1619 33.5728 43.86 33.7934 43.6366C34.014 43.4132 34.3143 43.2866 34.6283 43.2847C34.9422 43.2827 35.2441 43.4056 35.4675 43.6262C35.6909 43.8468 35.8175 44.1471 35.8194 44.4611C35.8081 45.2253 35.1538 45.7061 34.6107 45.6256V45.6278Z" fill="#050615"/>
<path d="M25.3038 43.3193C26.0805 42.2988 25.7993 41.1842 25.119 40.5708C24.7622 40.2501 24.3011 40.0699 23.8214 40.0636C23.3418 40.0574 22.8761 40.2255 22.5111 40.5368C21.7888 41.1547 21.5257 42.3351 22.2843 43.3227C21.5065 43.8103 20.9906 44.4849 20.8159 45.3977C20.7886 45.5504 20.7742 45.7052 20.7729 45.8603C20.7627 46.2594 20.9497 46.4851 21.2865 46.4907C21.6233 46.4964 21.8115 46.2844 21.841 45.8887C21.8977 45.121 22.2548 44.5393 22.9567 44.2071C23.6586 43.8749 24.3344 43.9452 24.9602 44.3987C25.4909 44.7831 25.7086 45.3331 25.754 45.9737C25.7812 46.3263 26 46.5043 26.3209 46.4873C26.6418 46.4703 26.8277 46.2447 26.8255 45.9034C26.8191 45.5823 26.7601 45.2643 26.6509 44.9623C26.4084 44.2736 25.9316 43.692 25.3038 43.3193ZM23.7765 42.8975C23.6606 42.8994 23.5456 42.8778 23.4383 42.8341C23.331 42.7904 23.2337 42.7254 23.1521 42.6431C23.0706 42.5608 23.0065 42.4629 22.9638 42.3552C22.921 42.2475 22.9005 42.1323 22.9034 42.0165C22.904 41.9005 22.9276 41.7857 22.9729 41.6789C23.0183 41.5721 23.0844 41.4754 23.1674 41.3944C23.2504 41.3133 23.3487 41.2496 23.4566 41.2069C23.5645 41.1642 23.6798 41.1434 23.7958 41.1457C24.0301 41.1441 24.2558 41.2346 24.4241 41.3976C24.5925 41.5607 24.6901 41.7833 24.6961 42.0176C24.6965 42.1367 24.6727 42.2546 24.6261 42.3641C24.5796 42.4737 24.5112 42.5727 24.4252 42.655C24.3392 42.7373 24.2373 42.8012 24.1258 42.8429C24.0142 42.8846 23.8954 42.9032 23.7765 42.8975Z" fill="#050615"/>
<path d="M42.0121 25.3633C42.3341 25.3803 42.5303 25.1875 42.579 24.81C42.5956 24.6341 42.6256 24.4597 42.6686 24.2884C42.7929 23.8658 43.0598 23.4993 43.4238 23.2512C43.7879 23.0032 44.2266 22.8889 44.6654 22.9277C45.6518 23.0411 46.3412 23.7657 46.4206 24.7827C46.4512 25.1785 46.6474 25.3848 46.9875 25.369C47.3277 25.3531 47.4978 25.132 47.4864 24.7544C47.4581 23.7566 47.0182 22.9719 46.2165 22.3914C46.0555 22.278 45.9999 22.2191 46.1303 22.0195C46.3964 21.6243 46.5067 21.1445 46.4399 20.6727C46.3731 20.201 46.134 19.7707 45.7686 19.4649C45.4148 19.1653 44.9662 19.001 44.5027 19.001C44.0391 19.001 43.5905 19.1653 43.2367 19.4649C42.8725 19.7705 42.6335 20.1994 42.5651 20.6698C42.4968 21.1403 42.6038 21.6195 42.8659 22.0161C42.994 22.21 42.9544 22.2689 42.7843 22.388C42.413 22.6418 42.1047 22.9772 41.8831 23.3685C41.6614 23.7598 41.5321 24.1966 41.5053 24.6455C41.4951 25.1002 41.6878 25.3497 42.0121 25.3633ZM44.5384 20.0942C44.6516 20.0969 44.7632 20.1223 44.8666 20.1688C44.9699 20.2152 45.0629 20.2819 45.1401 20.3648C45.2173 20.4477 45.2772 20.5452 45.3162 20.6516C45.3552 20.758 45.3726 20.8711 45.3672 20.9843C45.3667 21.0975 45.3436 21.2095 45.2994 21.3138C45.2551 21.418 45.1907 21.5124 45.1096 21.5915C45.0286 21.6707 44.9327 21.7329 44.8274 21.7746C44.7222 21.8164 44.6096 21.8368 44.4964 21.8347C44.3821 21.8319 44.2695 21.8067 44.165 21.7604C44.0605 21.7141 43.9661 21.6477 43.8872 21.565C43.8083 21.4822 43.7466 21.3847 43.7054 21.2781C43.6642 21.1714 43.6444 21.0577 43.6472 20.9435C43.6499 20.8292 43.6751 20.7165 43.7214 20.612C43.7677 20.5075 43.8341 20.4131 43.9169 20.3342C43.9996 20.2554 44.0971 20.1936 44.2038 20.1524C44.3104 20.1112 44.4241 20.0914 44.5384 20.0942Z" fill="#050615"/>
<path d="M30.9658 21.5772C26.1605 21.6351 22.235 25.6331 22.2996 30.5802C22.3608 35.3424 26.3475 39.2532 31.1812 39.2328C36.0648 39.2112 40.0164 35.254 39.9858 30.4146C39.9529 25.4074 36.0149 21.5171 30.9658 21.5772ZM31.1586 38.1624C30.137 38.1646 29.125 37.9652 28.1807 37.5755C27.2363 37.1859 26.3782 36.6136 25.6554 35.8916C24.9327 35.1696 24.3596 34.3121 23.969 33.3681C23.5783 32.4242 23.3779 31.4124 23.3791 30.3908C23.3791 26.1365 26.8589 22.6578 31.1234 22.6442C32.1424 22.6419 33.1518 22.8403 34.094 23.2281C35.0363 23.6159 35.8929 24.1855 36.6151 24.9044C37.3372 25.6232 37.9107 26.4773 38.3027 27.4178C38.6948 28.3583 38.8978 29.3668 38.9001 30.3857C38.9024 31.4047 38.704 32.4141 38.3162 33.3563C37.9284 34.2986 37.3588 35.1552 36.6399 35.8774C35.9211 36.5995 35.067 37.173 34.1265 37.565C33.186 37.9571 32.1775 38.1601 31.1586 38.1624Z" fill="#050615"/>
<path d="M35.3205 32.8774C34.9089 31.6846 34.1129 30.8365 32.9904 30.2763C34.334 28.9701 34.0834 27.1548 33.0516 26.1865C32.5277 25.6884 31.8292 25.4158 31.1064 25.4272C30.3836 25.4387 29.6941 25.7333 29.1862 26.2477C28.1657 27.2818 28.0229 29.0313 29.311 30.2741C29.1908 30.3387 29.0921 30.3874 28.998 30.4441C27.6079 31.2832 26.8334 32.4976 26.7529 34.1326C26.7291 34.627 26.9207 34.8243 27.4163 34.8243H34.8749C35.3749 34.8243 35.5801 34.6157 35.5552 34.1111C35.5366 33.6907 35.4575 33.2753 35.3205 32.8774ZM31.1524 26.5073C31.4865 26.5078 31.8131 26.6072 32.0908 26.793C32.3685 26.9788 32.585 27.2427 32.7129 27.5514C32.8409 27.8601 32.8745 28.1998 32.8096 28.5276C32.7447 28.8554 32.5842 29.1566 32.3483 29.3933C32.1124 29.63 31.8117 29.7915 31.4841 29.8575C31.1566 29.9235 30.8168 29.891 30.5077 29.7641C30.1985 29.6372 29.9339 29.4216 29.7472 29.1445C29.5604 28.8674 29.4599 28.5412 29.4584 28.207C29.4607 27.7579 29.6398 27.3279 29.9568 27.0098C30.2738 26.6917 30.7033 26.5112 31.1524 26.5073ZM28.0773 33.7641C27.8505 33.7641 27.8857 33.6507 27.914 33.5158C28.1589 32.3286 29.2894 31.2481 30.497 31.0315C32.3906 30.7027 34.046 31.8411 34.419 33.7596C32.293 33.7551 30.184 33.7528 28.0773 33.7596V33.7641Z" fill="#050615"/>
</g>
<defs>
<clipPath id="clip0_13_1532">
<rect width="30" height="31.3799" fill="white" transform="translate(20.5 19)"/>
</clipPath>
</defs>
</svg>
