<svg width="161" height="50" viewBox="0 0 161 50" fill="none" xmlns="http://www.w3.org/2000/svg">
<g clip-path="url(#clip0_204_2457)">
<path fill-rule="evenodd" clip-rule="evenodd" d="M110.363 25.4139C110.363 21.1427 108.294 17.7725 104.34 17.7725C100.369 17.7725 97.9668 21.1427 97.9668 25.3806C97.9668 30.4026 100.803 32.9386 104.874 32.9386C106.86 32.9386 108.361 32.4882 109.496 31.8541V28.5173C108.361 29.0845 107.06 29.4349 105.408 29.4349C103.79 29.4349 102.355 28.8676 102.171 26.8989H110.33C110.33 26.682 110.363 25.8144 110.363 25.4139ZM102.121 23.8289C102.121 21.9436 103.272 21.1594 104.324 21.1594C105.341 21.1594 106.426 21.9436 106.426 23.8289H102.121Z" fill="#635BFF"/>
<path fill-rule="evenodd" clip-rule="evenodd" d="M91.5258 17.7725C89.8907 17.7725 88.8396 18.5399 88.2556 19.0738L88.0387 18.0394H84.3682V37.4935L88.5393 36.6092L88.556 31.8875C89.1566 32.3213 90.0409 32.9386 91.5091 32.9386C94.4956 32.9386 97.2152 30.5361 97.2152 25.2471C97.1985 20.4086 94.4456 17.7725 91.5258 17.7725ZM90.5247 29.2681C89.5403 29.2681 88.9564 28.9177 88.556 28.4839L88.5393 22.2939C88.9731 21.8101 89.5737 21.4764 90.5247 21.4764C92.043 21.4764 93.0941 23.1782 93.0941 25.3639C93.0941 27.5996 92.0597 29.2681 90.5247 29.2681Z" fill="#635BFF"/>
<path fill-rule="evenodd" clip-rule="evenodd" d="M78.6289 16.7879L82.8167 15.8869V12.5L78.6289 13.3843V16.7879Z" fill="#635BFF"/>
<path d="M82.8167 18.0562H78.6289V32.6551H82.8167V18.0562Z" fill="#635BFF"/>
<path fill-rule="evenodd" clip-rule="evenodd" d="M74.1413 19.2904L73.8744 18.0558H70.2705V32.6547H74.4416V22.7608C75.426 21.4761 77.0945 21.7097 77.6117 21.8932V18.0558C77.0778 17.8555 75.1257 17.4885 74.1413 19.2904Z" fill="#635BFF"/>
<path fill-rule="evenodd" clip-rule="evenodd" d="M65.7986 14.4355L61.7276 15.3031L61.7109 28.6674C61.7109 31.1367 63.5629 32.9553 66.0322 32.9553C67.4003 32.9553 68.4014 32.705 68.952 32.4047V29.0178C68.4181 29.2347 65.7819 30.0022 65.7819 27.5329V21.6099H68.952V18.0561H65.7819L65.7986 14.4355Z" fill="#635BFF"/>
<path fill-rule="evenodd" clip-rule="evenodd" d="M54.52 22.2939C54.52 21.6433 55.0539 21.393 55.9382 21.393C57.2062 21.393 58.8079 21.7767 60.0759 22.4608V18.5399C58.6911 17.9894 57.323 17.7725 55.9382 17.7725C52.5512 17.7725 50.2988 19.541 50.2988 22.4942C50.2988 27.0991 56.6389 26.365 56.6389 28.3504C56.6389 29.1179 55.9715 29.3682 55.0372 29.3682C53.6524 29.3682 51.8839 28.8009 50.4824 28.0334V32.0043C52.034 32.6717 53.6024 32.9553 55.0372 32.9553C58.5076 32.9553 60.8935 31.2368 60.8935 28.2503C60.8768 23.2783 54.52 24.1626 54.52 22.2939Z" fill="#635BFF"/>
</g>
<defs>
<clipPath id="clip0_204_2457">
<rect width="60.0674" height="25" fill="white" transform="translate(50.2988 12.5)"/>
</clipPath>
</defs>
</svg>
