<svg width="90" height="90" viewBox="0 0 90 90" fill="none" xmlns="http://www.w3.org/2000/svg">
<rect width="90" height="90" rx="45" fill="#E0E0E0"/>
<g clip-path="url(#clip0_6_2533)">
<path d="M69.5687 63.1177C68.4744 57.8944 67.3818 52.6711 66.291 47.4479C65.5393 43.8643 64.7872 40.2807 64.0347 36.6972C63.9298 36.1989 63.7108 36.0587 63.1956 36.1609C62.4457 36.3117 61.6983 36.469 60.9497 36.625L55.1889 37.8286V37.2557C55.1889 34.2481 55.1889 31.2405 55.1889 28.2329C55.1889 26.9402 54.38 25.9228 53.1686 25.7157C52.7306 25.6617 52.2883 25.6516 51.8483 25.6855C51.5756 25.6947 51.4825 25.6187 51.4891 25.3355C51.5009 24.8465 51.5573 24.3496 51.4406 23.8697C51.143 22.6648 50.1872 22.0001 48.749 22.0001C40.0855 22.0001 31.4224 22.0001 22.7598 22.0001C22.4171 21.9856 22.0741 22.0227 21.7424 22.1103C20.6346 22.4525 20 23.3702 20 24.6498V62.6562C20 62.7375 20 62.8201 20 62.9014C20.0087 63.4441 20.1986 63.9683 20.5395 64.3907C20.8804 64.8131 21.3527 65.1094 21.8814 65.2324C22.2964 65.3255 22.7245 65.3459 23.1466 65.2927C23.6002 65.2534 23.692 65.4238 23.671 65.8316C23.6316 66.4504 23.6277 67.081 23.9397 67.6487C24.4642 68.6058 25.2967 68.9703 26.3731 68.969C35.0689 68.9558 43.7656 68.9537 52.4632 68.9624C52.8723 68.9624 53.2813 68.9624 53.6615 68.7828C53.7559 68.7382 53.8464 68.7107 53.9316 68.792C54.2004 69.0542 54.5085 68.9493 54.81 68.8864C57.3902 68.3462 59.9686 67.806 62.5453 67.2659C64.8541 66.7808 67.1602 66.2892 69.469 65.8054C69.9082 65.7136 70.0708 65.4619 69.9764 65.0279C69.8361 64.392 69.7024 63.7549 69.5687 63.1177ZM23.6592 28.4637C23.6592 39.4661 23.6592 50.469 23.6592 61.4723C23.6592 62.2589 23.6487 63.0456 23.6592 63.8322C23.6592 64.1075 23.5831 64.1875 23.3026 64.1967C21.8132 64.2413 21.1118 64.0853 21.1275 62.1187C21.176 55.9724 21.1446 49.8248 21.1446 43.6773C21.1446 37.3842 21.1446 31.091 21.1446 24.7979C21.1446 23.559 21.5785 23.125 22.8162 23.125H48.7123C49.9263 23.125 50.3891 23.5931 50.3904 24.8176C50.3904 25.6803 50.3904 25.6803 49.5304 25.6803H26.3809C24.6189 25.6803 23.6592 26.6583 23.6592 28.4637ZM53.4885 67.5569C53.3023 67.8742 52.8749 67.865 52.5078 67.865C44.415 67.865 36.3223 67.865 28.2295 67.865C27.574 67.865 26.9185 67.865 26.2629 67.865C25.3059 67.865 24.7893 67.3406 24.788 66.3783C24.788 60.0179 24.788 53.6575 24.788 47.2971V28.4178C24.788 27.2811 25.2469 26.8249 26.3901 26.8249H52.3361C52.4672 26.8249 52.5983 26.8249 52.7294 26.8249C53.5344 26.8668 54.0313 27.3663 54.0326 28.1687C54.0326 31.3402 54.0326 34.5129 54.0417 37.6844C54.0417 37.9872 53.9644 38.0974 53.6484 38.1577C51.9086 38.5012 50.1754 38.8748 48.4383 39.238C47.8312 39.3691 47.6516 39.5867 47.8457 40.1964C48.0699 40.8991 47.8378 41.278 47.2557 41.7002C44.7057 43.5501 42.2002 45.4616 39.6791 47.3522C39.0694 47.8097 39.0432 47.988 39.4903 48.5872C44.0265 54.6539 48.5615 60.7211 53.0952 66.7887C53.2748 67.0168 53.672 67.2436 53.4885 67.5569ZM43.9335 47.2079C44.5418 48.2725 44.433 49.1024 43.5519 49.9258C43.1717 50.2811 43.2622 50.5813 43.5336 50.9445C46.452 54.837 49.356 58.74 52.2875 62.6221C52.6992 63.1675 52.7621 63.7693 52.8788 64.3802L52.7608 64.4274C52.01 63.4284 51.2584 62.4285 50.5058 61.4277C47.2998 57.1406 44.0886 52.8551 40.8721 48.5714C40.5889 48.1965 40.6165 48.047 40.9927 47.7665C43.295 46.0765 45.5749 44.3577 47.8666 42.6533C47.9873 42.5642 48.1747 42.2954 48.2718 42.4855C48.3688 42.6756 48.5982 42.985 48.2311 43.2485C47.2098 43.9814 46.2121 44.7471 45.2052 45.4983C44.8381 45.7723 44.4723 46.0463 44.1039 46.3164C43.7683 46.5603 43.7302 46.8553 43.9335 47.2079ZM51.9309 60.3015L49.3783 56.8744C47.8627 54.8475 46.3524 52.8193 44.8276 50.8003C44.6545 50.5695 44.6454 50.4371 44.8276 50.1893C45.4739 49.2965 45.5841 48.3079 45.2209 47.2656C45.1645 47.1017 45.0767 46.9733 45.2917 46.8172C46.4127 46.0031 47.5205 45.1679 48.6861 44.2974C49.8109 49.6636 50.9149 54.9589 52.0306 60.2556L51.9309 60.3015ZM68.6837 64.7473C68.5434 65.0384 67.9521 64.9755 67.5588 65.0581C63.4359 65.9321 59.3131 66.8026 55.1902 67.6697C54.8494 67.7431 54.7432 67.6959 54.6658 67.3196C53.617 62.2367 52.5393 57.1589 51.4734 52.0799C50.6745 48.2734 49.8787 44.4665 49.0859 40.6592C49.0717 40.603 49.0538 40.5478 49.0322 40.494C48.9902 40.2187 49.1895 40.2318 49.3403 40.1977L58.3709 38.3137C59.7724 38.0213 61.1779 37.7486 62.5663 37.4169C62.9596 37.3212 63.0527 37.4274 63.1248 37.7762C63.8459 41.2837 64.5744 44.7886 65.3103 48.2909C66.3784 53.3708 67.4447 58.4503 68.5093 63.5294C68.6011 63.941 68.8345 64.4392 68.6876 64.7473H68.6837Z" fill="#050615"/>
<path d="M27.4128 37.733C27.675 37.7632 27.9372 37.7828 28.1902 37.8195C28.5127 37.8641 28.5665 38.045 28.3882 38.2928C28.2348 38.5052 28.0526 38.694 27.8939 38.9012C27.5216 39.3863 27.5399 39.8058 27.9687 40.2542C28.3528 40.6554 28.7448 41.05 29.1486 41.4341C29.5839 41.8484 29.9851 41.8681 30.4597 41.5141C30.6694 41.3581 30.8609 41.1785 31.0693 41.0225C31.342 40.8179 31.5295 40.9045 31.5767 41.2506C31.6082 41.4774 31.6409 41.7029 31.6619 41.931C31.7209 42.542 32.0133 42.8566 32.6216 42.8829C33.2077 42.9078 33.8016 42.9065 34.385 42.8829C34.9684 42.8593 35.2215 42.5761 35.3027 42.0005C35.3355 41.758 35.3644 41.5141 35.3893 41.2716C35.4024 41.1405 35.3893 41.0356 35.5466 40.9569C35.7039 40.8783 35.8088 40.9491 35.9307 41.0434C36.1326 41.2086 36.3319 41.3791 36.5417 41.5325C37.0084 41.8733 37.3952 41.8511 37.8147 41.4617C38.0547 41.2388 38.2723 40.9936 38.5122 40.7721C39.3959 39.9487 39.7722 39.5567 38.6827 38.3925C38.3811 38.07 38.4637 37.8864 38.8898 37.813C39.114 37.7737 39.3434 37.7658 39.5702 37.7396C40.1156 37.6793 40.467 37.3463 40.488 36.8336C40.509 36.2135 40.5103 35.5907 40.488 34.9706C40.4709 34.517 40.2258 34.201 39.7669 34.1119C39.4798 34.0568 39.1835 34.0502 38.8937 34.0109C38.5083 33.9572 38.4204 33.7579 38.6499 33.4524C38.7967 33.257 38.9645 33.0774 39.1127 32.8834C39.4391 32.456 39.4378 31.9788 39.0799 31.5972C38.6669 31.1567 38.2382 30.728 37.7951 30.3176C37.4017 29.9584 36.9835 29.9597 36.5561 30.2836C36.3608 30.4317 36.1746 30.5903 35.9871 30.7464C35.8717 30.8408 35.7655 30.9417 35.5938 30.8657C35.422 30.7896 35.4063 30.6651 35.3932 30.5091C35.3735 30.2652 35.3408 30.0227 35.304 29.7814C35.2149 29.2085 34.9002 28.9371 34.3076 28.9266C33.9655 28.9201 33.622 28.9266 33.2785 28.9266C32.1929 28.8951 31.7209 28.806 31.5898 30.3911C31.5754 30.5549 31.6462 30.7673 31.4207 30.8604C31.1952 30.9535 31.0641 30.7673 30.9107 30.6572C30.5855 30.4252 30.3312 30.0659 29.8238 30.0751C29.7255 30.0672 29.6266 30.08 29.5335 30.1128C29.4405 30.1455 29.3553 30.1974 29.2836 30.2652C28.8064 30.7385 28.3187 31.1987 27.8664 31.6903C27.5675 32.0142 27.5596 32.4009 27.8153 32.7667C27.9936 33.0197 28.2086 33.2505 28.3869 33.4996C28.5849 33.771 28.4839 33.9768 28.1443 34.0162C27.9018 34.0437 27.6566 34.0581 27.4154 34.0948C26.8044 34.1892 26.537 34.4567 26.5134 35.0506C26.4898 35.6445 26.4885 36.2305 26.5134 36.814C26.537 37.3515 26.8752 37.6727 27.4128 37.733ZM28.653 35.0807C29.0123 35.0414 29.2758 34.9037 29.3636 34.5262C29.3689 34.4776 29.3831 34.4305 29.4056 34.3872C29.93 33.7041 29.677 33.1364 29.1237 32.6369C28.8156 32.359 28.8615 32.1623 29.1617 31.9132C29.3902 31.7006 29.6028 31.4714 29.7976 31.2275C29.9143 31.3114 29.9798 31.3586 30.0428 31.4045C30.2141 31.5296 30.3775 31.6653 30.5318 31.8109C30.8936 32.1898 31.2791 32.2213 31.7117 31.9525C31.8519 31.8698 32.0028 31.8067 32.1601 31.7651C32.4682 31.6759 32.6033 31.4806 32.6373 31.1646C32.7685 29.9755 32.7685 29.9846 33.9314 30.0476C34.1385 30.0594 34.2342 30.1092 34.2159 30.3242C34.2093 30.3871 34.2368 30.4553 34.229 30.5182C34.1084 31.5356 34.7993 31.8463 35.5794 32.1033C35.9255 32.2174 36.1379 32.0325 36.366 31.8516C37.1251 31.2564 37.112 31.2708 37.8082 31.9342C38.0822 32.1964 38.1123 32.3695 37.8305 32.6238C37.672 32.7878 37.5257 32.9631 37.3926 33.1482C37.3104 33.24 37.2568 33.3537 37.2381 33.4755C37.2195 33.5972 37.2367 33.7218 37.2877 33.8339C37.4096 34.1355 37.525 34.4409 37.6705 34.7307C37.8357 35.0637 38.174 35.0571 38.4794 35.082C39.3198 35.1476 39.2884 35.145 39.3316 35.9998C39.3579 36.5072 39.2136 36.6842 38.6945 36.6842C37.858 36.6842 37.2523 37.3528 37.2392 38.2089C37.2392 38.6363 37.5853 38.8645 37.8239 39.1267C38.0861 39.423 38.0861 39.5882 37.7911 39.8648C37.1002 40.5072 37.1015 40.5426 36.3752 39.9251C36.0081 39.6144 35.6711 39.5659 35.2687 39.8045C35.1474 39.8846 35.0148 39.946 34.8753 39.9867C34.4479 40.0837 34.3181 40.3656 34.2945 40.7734C34.2342 41.7645 34.2224 41.7449 33.2378 41.7724C32.8563 41.7829 32.6675 41.7173 32.7029 41.2873C32.7027 41.0426 32.6758 40.7986 32.6229 40.5597C32.6152 40.4956 32.5984 40.4329 32.5731 40.3735C32.3397 39.8491 31.068 39.5449 30.6249 39.9028C29.8382 40.5426 29.8382 40.5321 29.0949 39.8084C28.8707 39.5921 28.8235 39.4322 29.0647 39.2224C29.0993 39.1875 29.1308 39.1498 29.1591 39.1096C29.8146 38.3125 29.8356 37.8615 29.243 36.987C29.2 36.9175 29.1413 36.859 29.0716 36.8162C29.002 36.7734 28.9233 36.7475 28.8418 36.7405C28.5495 36.7117 28.2584 36.6684 27.966 36.6527C27.7038 36.637 27.6173 36.5295 27.6147 36.2594C27.6173 35.2027 27.6042 35.1987 28.653 35.0807Z" fill="#050615"/>
<path d="M26.9355 59.7169C27.1143 59.7374 27.2944 59.7449 27.4743 59.7391H43.7564C44.1419 59.7391 44.412 59.57 44.4002 59.1728C44.3884 58.7755 44.1183 58.6326 43.7289 58.6339C40.9835 58.64 38.2373 58.64 35.4902 58.6339H27.3485C27.2174 58.6257 27.0858 58.6287 26.9552 58.6431C26.8229 58.6583 26.7018 58.7245 26.6176 58.8275C26.5334 58.9306 26.4927 59.0624 26.5042 59.1951C26.4955 59.3207 26.5354 59.4449 26.6157 59.542C26.696 59.6391 26.8104 59.7017 26.9355 59.7169Z" fill="#050615"/>
<path d="M43.468 62.7466C38.1215 62.7466 32.7754 62.7466 27.4298 62.7466C27.283 62.7466 27.1361 62.7466 26.9893 62.7584C26.6628 62.7794 26.5278 63.0101 26.5239 63.2828C26.5239 63.583 26.655 63.8217 27.0116 63.8387C27.1742 63.8466 27.338 63.8492 27.5006 63.8492H43.4353C44.1393 63.8492 44.395 63.7063 44.4055 63.309C44.4159 62.9118 44.1498 62.7466 43.468 62.7466Z" fill="#050615"/>
<path d="M26.9238 55.6024C27.1171 55.6331 27.3128 55.6467 27.5085 55.6431H40.3438C40.5392 55.6475 40.7345 55.6335 40.9272 55.6011C41.0501 55.5821 41.1613 55.5176 41.239 55.4205C41.3167 55.3234 41.3551 55.2008 41.3468 55.0767C41.3529 54.9437 41.3082 54.8133 41.2218 54.712C41.1354 54.6108 41.0136 54.5461 40.8813 54.5313C40.7507 54.517 40.6191 54.5139 40.488 54.5221H27.3603C27.2292 54.5138 27.0976 54.5169 26.967 54.5313C26.8347 54.5465 26.7131 54.6114 26.6269 54.7129C26.5407 54.8145 26.4964 54.945 26.5029 55.078C26.4943 55.2023 26.5328 55.3253 26.6108 55.4225C26.6888 55.5197 26.8005 55.5839 26.9238 55.6024Z" fill="#050615"/>
<path d="M33.7662 46.2785C32.6885 46.2916 31.6095 46.2785 30.5318 46.2785C29.4213 46.2785 28.3095 46.2785 27.1991 46.2785C26.7874 46.2785 26.5173 46.4371 26.5186 46.858C26.5199 47.2788 26.8071 47.4165 27.1807 47.4165H33.7963C34.1896 47.4165 34.4925 47.25 34.4807 46.8265C34.4689 46.403 34.1687 46.2732 33.7662 46.2785Z" fill="#050615"/>
<path d="M33.8081 50.3966C32.7134 50.4097 31.6186 50.3966 30.5304 50.3966C29.4423 50.3966 28.3095 50.4045 27.199 50.3966C26.8057 50.3966 26.5435 50.5277 26.5238 50.9289C26.5042 51.3301 26.7598 51.5202 27.1426 51.5202C29.3811 51.5202 31.6186 51.5202 33.8553 51.5202C34.2368 51.5202 34.503 51.3275 34.4859 50.9328C34.4689 50.5382 34.2001 50.3914 33.8081 50.3966Z" fill="#050615"/>
<path d="M63.1575 41.5022C63.012 40.8099 62.9609 40.7667 62.2398 40.7995C61.1674 40.8493 60.4345 40.355 60.1185 39.3193C59.9874 38.8892 59.7317 38.7437 59.3122 38.8263C59.1693 38.8551 59.0264 38.8905 58.8835 38.9207L53.1004 40.119C52.6913 40.2029 52.4317 40.3694 52.4567 40.8689C52.5235 42.2154 52.1813 42.7044 50.8834 43.2157C50.7595 43.2505 50.6511 43.3264 50.5763 43.4311C50.5014 43.5358 50.4645 43.6628 50.4717 43.7913C50.4992 43.9473 50.5176 44.0942 50.5477 44.2371C51.2854 47.7402 52.0236 51.2434 52.7621 54.7465C53.3836 57.7384 54.0059 60.7329 54.6291 63.7299C54.7143 64.139 54.9333 64.3606 55.3843 64.3055C56.5236 64.1678 57.3246 64.6726 57.6576 65.7568C57.7966 66.2052 58.0654 66.3521 58.5072 66.259C60.5289 65.8329 62.5518 65.4133 64.5748 64.9859C65.2644 64.8404 65.3326 64.7434 65.3051 64.0315C65.2657 63.0141 65.7456 62.276 66.6581 61.9456C67.3044 61.7135 67.3883 61.5628 67.2481 60.8967C65.8837 54.4323 64.5202 47.9675 63.1575 41.5022ZM65.8688 61.0698C64.8514 61.6047 64.3087 62.4661 64.1736 63.5962C64.1526 63.7693 64.1736 63.9148 63.9114 63.9672C62.2372 64.3016 60.5682 64.6647 58.8966 65.0161C58.8651 65.0226 58.831 65.0226 58.7891 65.0279C58.595 65.0961 58.5557 64.9322 58.4849 64.8076C57.9146 63.7942 57.0585 63.2226 55.8903 63.1544C55.6832 63.1413 55.6281 63.0665 55.5862 62.8712C54.6772 58.5071 53.7633 54.1439 52.8447 49.7815C52.4711 47.9985 52.1014 46.2141 51.7146 44.4337C51.6687 44.2174 51.6949 44.1191 51.8942 44.0142C52.9077 43.478 53.4675 42.6205 53.5855 41.4878C53.613 41.2255 53.7166 41.1259 53.9539 41.0774C55.5796 40.7483 57.2066 40.4219 58.8271 40.0666C59.067 40.0141 59.1575 40.0456 59.2742 40.2632C59.813 41.2767 60.6875 41.8155 61.815 41.9348C62.0549 41.9611 62.1336 42.0292 62.1834 42.2692C63.4648 48.4014 64.7553 54.5307 66.055 60.6568C66.1048 60.881 66.0563 60.9728 65.8688 61.0698Z" fill="#050615"/>
<path d="M33.5131 39.1215C35.3486 39.111 36.6964 37.7331 36.6859 35.8753C36.6754 34.0175 35.3014 32.6462 33.4764 32.6475C31.6292 32.6475 30.2722 34.049 30.2853 35.9369C30.2971 37.7881 31.6606 39.1333 33.5131 39.1215ZM33.521 33.7999C34.6774 33.7999 35.5872 34.7439 35.5912 35.9382C35.5912 37.071 34.6262 38.0504 33.5223 38.0359C32.324 38.011 31.3564 37.0592 31.3669 35.8976C31.3668 35.6173 31.4229 35.3398 31.5318 35.0816C31.6408 34.8233 31.8003 34.5895 32.0011 34.394C32.2019 34.1985 32.4399 34.0451 32.7009 33.9431C32.962 33.841 33.2408 33.7924 33.521 33.7999Z" fill="#050615"/>
<path d="M58.9897 48.6001C57.9349 48.5839 56.9167 48.9869 56.1587 49.7206C55.4007 50.4543 54.9647 51.4588 54.9464 52.5136C54.9057 54.6493 56.6377 56.414 58.8298 56.4704C60.993 56.5241 62.8141 54.7988 62.8468 52.6604C62.8809 50.5024 61.1136 48.642 58.9897 48.6001ZM58.8809 55.3652C58.5058 55.362 58.135 55.2841 57.7903 55.1361C57.4456 54.988 57.1339 54.7728 56.8733 54.5029C56.6127 54.233 56.4085 53.914 56.2726 53.5643C56.1367 53.2146 56.0718 52.8414 56.0818 52.4664C56.0936 51.0046 57.4505 49.7132 58.9582 49.7132C59.6911 49.7252 60.3894 50.0273 60.9 50.5532C61.4107 51.0791 61.6921 51.7859 61.6826 52.5188C61.6721 54.1328 60.4515 55.3704 58.8809 55.3652Z" fill="#050615"/>
</g>
<defs>
<clipPath id="clip0_6_2533">
<rect width="50" height="46.9688" fill="white" transform="translate(20 22)"/>
</clipPath>
</defs>
</svg>
