<svg width="90" height="90" viewBox="0 0 90 90" fill="none" xmlns="http://www.w3.org/2000/svg">
<rect width="90" height="90" rx="45" fill="#E0E0E0"/>
<g clip-path="url(#clip0_6_2525)">
<path d="M41.4836 24.2792C39.8841 24.4025 38.2916 24.6022 36.6907 24.7042C36.3889 24.7241 36.0971 24.7906 35.7982 24.819C35.4751 24.8501 35.2187 24.989 35.1195 25.3191C35.0756 25.4645 35.0775 25.62 35.1252 25.7643C35.1729 25.9086 35.2639 26.0346 35.3859 26.1252C36.3139 26.9399 37.2277 27.7658 38.1698 28.5691C38.5948 28.9361 38.9901 29.3455 39.4449 29.6855C39.8472 29.9887 39.928 30.3698 39.8118 30.8558C39.4505 32.366 39.1275 33.8862 38.7776 35.3993C38.7379 35.5707 38.7011 35.7435 38.6628 35.9164C38.5821 36.2791 38.5679 36.6333 38.8924 36.8855C39.2168 37.1376 39.5582 37.02 39.8841 36.8401C40.0527 36.7452 40.2255 36.6559 40.3913 36.5568C41.7074 35.7634 43.0519 35.0196 44.3468 34.195C44.8101 33.8989 45.1969 33.9117 45.663 34.195C46.9508 34.9983 48.2783 35.7365 49.5732 36.5284C49.7234 36.6205 49.8793 36.7055 50.0337 36.7905C50.3822 36.9846 50.7421 37.1759 51.1161 36.884C51.4901 36.5922 51.3994 36.1983 51.3201 35.8101C51.0481 34.5875 50.7534 33.3677 50.4899 32.1436C50.3921 31.6945 50.3114 31.2425 50.1853 30.8005C50.1174 30.6081 50.1136 30.3988 50.1744 30.204C50.2351 30.0092 50.3572 29.8393 50.5225 29.7195C51.5383 28.8695 52.5059 27.9642 53.5104 27.107C53.8731 26.7982 54.2188 26.4681 54.5843 26.1649C54.8436 25.9524 54.9909 25.6676 54.8846 25.3148C54.7784 24.9621 54.4908 24.8473 54.1522 24.8062C52.3501 24.5852 50.538 24.4506 48.7303 24.2877C48.3052 24.2494 48.0644 24.1049 47.8958 23.7082C47.2299 22.1498 46.5371 20.6027 45.8996 19.033C45.7466 18.6561 45.4335 18.3813 45.3216 17.9902H44.6798C43.6314 19.8788 42.9513 21.9203 42.0404 23.8627C41.9986 23.979 41.9236 24.0806 41.8246 24.1546C41.7256 24.2287 41.607 24.272 41.4836 24.2792ZM43.4189 24.7226C43.868 23.5099 44.429 22.3368 44.9405 21.151C45.1572 21.1793 45.1459 21.3607 45.1941 21.4712C45.6984 22.6046 46.2141 23.7465 46.6703 24.9054C46.9012 25.4877 47.2625 25.7739 47.8788 25.8206C49.1978 25.9198 50.514 26.0473 51.8315 26.1635C51.8953 26.1635 51.9576 26.1776 52.1319 26.1975C51.6176 26.6551 51.177 27.0475 50.735 27.4414C50.113 27.9897 49.4996 28.5493 48.862 29.0806C48.6693 29.2198 48.5258 29.4167 48.4522 29.6428C48.3786 29.869 48.3787 30.1126 48.4526 30.3386C48.7685 31.6137 49.042 32.9072 49.3281 34.1936C49.3441 34.3134 49.3512 34.4341 49.3494 34.5549C48.1452 33.8465 46.9678 33.175 45.8245 32.4539C45.2451 32.0883 44.7634 32.0784 44.1783 32.4539C43.0449 33.1821 41.8576 33.8437 40.6024 34.5875C40.812 33.6099 41.0019 32.723 41.1946 31.8376C41.2994 31.3573 41.3759 30.8657 41.5261 30.3996C41.7188 29.8031 41.5261 29.3993 41.0656 29.0154C40.0938 28.2008 39.153 27.3394 38.1981 26.5007C38.1089 26.4227 38.0111 26.359 37.8142 26.206C39.2465 26.0742 40.5174 25.9226 41.7939 25.8504C42.6028 25.8065 43.1199 25.5302 43.4189 24.7226Z" fill="#050615"/>
<path d="M44.0635 18.8175C43.3551 20.4637 42.6468 22.1043 41.9384 23.752C41.8307 24.0042 41.7075 24.1331 41.4085 24.1572C39.7566 24.289 38.1061 24.4406 36.4499 24.5964C36.2572 24.6148 36.0645 24.6701 35.8733 24.6701C35.4341 24.6701 35.1224 24.8528 34.975 25.2679C34.8277 25.683 35.0261 26.0117 35.3377 26.2866C36.7177 27.4979 38.0891 28.7191 39.4789 29.9191C39.5883 29.9967 39.6696 30.1077 39.7105 30.2355C39.7513 30.3632 39.7496 30.5008 39.7056 30.6275C39.2933 32.3899 38.9235 34.1694 38.5113 35.9247C38.4093 36.3611 38.4135 36.7365 38.7847 37.0185C39.1814 37.3217 39.5696 37.1913 39.9606 36.9576C41.5006 36.0381 43.052 35.137 44.5877 34.2091C44.8711 34.0334 45.0807 34.0135 45.3853 34.1991C46.9324 35.1441 48.5022 36.0522 50.0606 36.9816C50.4389 37.2069 50.8172 37.3061 51.194 37.0213C51.5383 36.7578 51.585 36.4093 51.4774 35.98C51.0963 34.372 50.7945 32.7456 50.3737 31.1489C50.181 30.4164 50.344 29.9928 50.9277 29.5224C52.2027 28.4925 53.4056 27.369 54.6396 26.2866C54.9371 26.0259 55.1425 25.7199 55.0235 25.3147C54.9836 25.1406 54.8883 24.9842 54.7518 24.869C54.6154 24.7538 54.4452 24.6859 54.267 24.6757C52.4068 24.4986 50.5466 24.3116 48.6835 24.1544C48.3421 24.126 48.1636 24.0339 48.0247 23.701C47.3433 22.0647 46.6236 20.4425 45.9251 18.8118C45.8061 18.4873 45.5942 18.205 45.3159 18C45.4278 18.391 45.7409 18.6659 45.894 19.0427C46.5315 20.6125 47.2243 22.1596 47.8902 23.718C48.0588 24.1147 48.2982 24.2592 48.7246 24.2975C50.5324 24.4604 52.3444 24.595 54.1465 24.816C54.4851 24.8571 54.7699 24.9704 54.879 25.3246C54.9881 25.6788 54.8379 25.9579 54.5786 26.1747C54.2117 26.4778 53.8703 26.8079 53.5047 27.1168C52.4974 27.9739 51.5326 28.8807 50.5168 29.7293C50.352 29.8484 50.2299 30.0175 50.1686 30.2114C50.1074 30.4053 50.1103 30.6138 50.1768 30.806C50.3029 31.248 50.3836 31.7 50.4814 32.1491C50.7506 33.3732 51.0396 34.593 51.3116 35.8157C51.398 36.2038 51.476 36.6034 51.1076 36.8895C50.7392 37.1757 50.3737 36.9901 50.0252 36.796C49.8708 36.711 49.7149 36.626 49.5648 36.5339C48.2698 35.742 46.9424 35.0039 45.6545 34.2006C45.1912 33.9172 44.8045 33.903 44.3384 34.2006C43.0434 35.0251 41.699 35.7689 40.3828 36.5623C40.217 36.6629 40.0442 36.7521 39.8756 36.8456C39.5526 37.0256 39.2168 37.1488 38.8839 36.891C38.5509 36.6331 38.5736 36.2846 38.6544 35.9219C38.6926 35.7491 38.7294 35.5762 38.7691 35.4048C39.119 33.8917 39.4421 32.3715 39.8033 30.8613C39.9195 30.3753 39.8388 29.9942 39.4364 29.691C38.9845 29.351 38.5863 28.9416 38.1613 28.5746C37.2234 27.7713 36.3054 26.9454 35.3774 26.1307C35.2554 26.0401 35.1644 25.9141 35.1167 25.7698C35.0691 25.6255 35.0671 25.47 35.1111 25.3246C35.2102 24.9945 35.4667 24.8557 35.7897 24.8245C36.0886 24.7962 36.3805 24.7296 36.6822 24.7097C38.2832 24.6021 39.8756 24.4023 41.4751 24.2847C41.5985 24.2775 41.7171 24.2342 41.8161 24.1601C41.9151 24.0861 41.9901 23.9846 42.0319 23.8682C42.9514 21.9202 43.6314 19.8786 44.6798 18C44.3972 18.2047 44.1825 18.4895 44.0635 18.8175Z" fill="#050615"/>
<path d="M59.0782 49.1462C55.7758 49.1349 52.4719 49.1462 49.1695 49.1462H48.5773C48.6552 48.921 48.7048 48.775 48.7572 48.6291C49.9813 45.2133 49.9898 41.8018 48.7204 38.3973C48.1126 36.7624 46.5952 35.8925 44.9022 36.2524C43.7844 36.4904 42.9103 37.1407 42.5575 38.2443C42.3535 38.8819 42.3733 39.6016 42.3577 40.2859C42.3138 42.1574 41.9058 43.9099 40.7809 45.4485C40.2794 46.1356 39.7523 46.8157 39.0128 47.2478C38.4475 47.5707 37.9059 47.9334 37.392 48.333C36.2855 49.2086 35.2669 50.1748 34.2086 51.1665C34.1703 51.0659 34.1392 51.0036 34.1221 50.9384C33.8487 49.8645 33.2565 49.3913 32.1713 49.3899C29.3113 49.3899 26.45 49.3899 23.5872 49.3899C22.4396 49.3899 21.6817 50.1295 21.6802 51.2558C21.6802 57.1192 21.6802 62.9832 21.6802 68.8476C21.6802 69.9682 22.4042 70.6993 23.5319 70.7035C26.4457 70.712 29.36 70.712 32.2747 70.7035C33.2664 70.7035 33.8841 70.2006 34.1037 69.2216C34.1562 68.9878 34.1788 68.8887 34.4933 68.9581C36.3025 69.3562 37.9247 70.0915 39.2791 71.3836C39.5904 71.6831 39.9584 71.9174 40.3616 72.0726C40.7648 72.2279 41.1949 72.3009 41.6267 72.2874C46.1844 72.2733 50.7421 72.2874 55.2983 72.2874C56.6896 72.2874 57.7465 71.6627 58.4152 70.4584C59.0839 69.2542 59.0329 68.0499 58.3089 66.8995C58.0936 66.5595 58.1531 66.4476 58.4379 66.2294C59.9963 65.0308 60.3689 63.1891 59.3857 61.54C59.2213 61.2637 59.2893 61.1773 59.5061 61.02C60.3122 60.4596 60.8678 59.6066 61.0546 58.6427C61.2459 57.6892 60.9965 56.8137 60.4879 56.0076C62.0732 55.2156 62.9205 53.8598 62.7547 52.426C62.511 50.41 61.1169 49.1533 59.0782 49.1462ZM31.9205 69.0034C29.2372 68.9855 26.5539 68.9855 23.8705 69.0034C23.4738 69.0034 23.3747 68.9042 23.3761 68.5076C23.3903 62.8774 23.3903 57.2467 23.3761 51.6156C23.3761 51.1906 23.4937 51.0872 23.9088 51.09C26.5742 51.108 29.2396 51.108 31.9049 51.09C32.3455 51.09 32.4178 51.2317 32.415 51.627C32.3994 54.4335 32.4065 57.2401 32.4065 60.0467C32.4065 62.8533 32.398 65.6953 32.4178 68.5189C32.4192 68.9227 32.3073 69.0034 31.9205 69.0034ZM59.7413 54.4109C59.5376 54.4675 59.3262 54.491 59.1151 54.4803C58.214 54.4803 57.313 54.4803 56.4119 54.4803C55.8211 54.4803 55.4103 54.8486 55.4046 55.3431C55.3989 55.8375 55.7899 56.1931 56.3963 56.2116C56.8723 56.23 57.3526 56.1988 57.8244 56.2512C58.114 56.2849 58.3907 56.39 58.6296 56.557C58.8686 56.7241 59.0624 56.9478 59.1935 57.2081C59.3247 57.4685 59.3892 57.7574 59.3812 58.0488C59.3731 58.3402 59.2929 58.6251 59.1477 58.8779C58.6702 59.7279 57.9689 60.0595 56.9999 59.8951C56.8773 59.8785 56.7537 59.8705 56.6301 59.871C55.9585 59.8512 55.5633 60.1303 55.5208 60.6545C55.4811 61.1489 55.8622 61.5046 56.5125 61.5711C57.5184 61.6802 58.2608 62.5204 58.1942 63.4696C58.1276 64.4188 57.0778 65.3624 56.1328 65.2958C55.8877 65.2774 55.644 65.2122 55.3975 65.2037C55.1658 65.1892 54.9374 65.2643 54.7597 65.4136C54.5819 65.5629 54.4684 65.7749 54.4426 66.0056C54.4044 66.4207 54.7047 66.8004 55.1708 66.9066C55.4103 66.9619 55.6653 66.9605 55.8962 67.0384C56.7293 67.3217 57.1854 68.074 57.0934 68.9836C57.0069 69.8237 56.3467 70.4598 55.4372 70.5661C55.2614 70.5803 55.085 70.5845 54.9087 70.5788H48.3917C46.183 70.5788 43.9742 70.5788 41.7669 70.5788C41.2697 70.5788 40.8206 70.4811 40.4564 70.1255C38.8116 68.5231 36.7927 67.6603 34.5826 67.2098C34.2114 67.1333 34.1406 66.9916 34.142 66.6573C34.1505 62.4354 34.1505 58.213 34.142 53.9901C34.129 53.8783 34.1417 53.765 34.1793 53.6589C34.2169 53.5528 34.2783 53.4567 34.3587 53.3781C35.7472 52.0704 37.1242 50.7528 38.5977 49.5358C39.1474 49.0825 39.8359 48.8657 40.3686 48.4024C42.6354 46.419 43.9105 43.9694 44.0252 40.9418C44.0493 40.2887 44.0918 39.637 44.1428 38.9853C44.2038 38.2089 45.2762 37.6762 46.1348 37.9865C46.3608 38.063 46.5659 38.1912 46.7336 38.3609C46.9013 38.5306 47.0272 38.7371 47.101 38.964C48.3478 42.4322 48.1957 45.8367 46.6448 49.1774C46.6009 49.2737 46.5442 49.363 46.5031 49.4607C46.1376 50.2485 46.5031 50.8392 47.3688 50.8548C47.5275 50.8548 47.6875 50.8548 47.8462 50.8548C51.6242 50.8548 55.4051 50.8548 59.1887 50.8548C59.6212 50.8559 60.039 51.0115 60.3668 51.2936C60.6946 51.5756 60.9109 51.9655 60.9765 52.393C61.0422 52.8204 60.9529 53.2572 60.7248 53.6246C60.4968 53.992 60.1449 54.2659 59.7328 54.3967L59.7413 54.4109Z" fill="#050615"/>
<path d="M69.1797 29.6587C67.9046 29.517 66.6182 29.3753 65.3346 29.2776C64.9889 29.2506 64.8572 29.0934 64.7396 28.8129C64.2777 27.712 63.7988 26.6169 63.3228 25.5189C63.1556 25.1265 62.9389 24.7978 62.4543 24.7879C61.9429 24.7765 61.7162 25.1166 61.5405 25.5288C61.0645 26.6424 60.5743 27.7517 60.1068 28.8681C60.0005 29.1203 59.8844 29.2478 59.5812 29.2719C58.333 29.3725 57.0891 29.5227 55.8424 29.6332C55.3961 29.6728 55.0603 29.8202 54.9201 30.2764C54.7798 30.7326 55.0221 31.0117 55.3295 31.2794C56.2461 32.0813 57.1529 32.8959 58.078 33.6879C58.1903 33.7678 58.2736 33.882 58.3153 34.0134C58.357 34.1448 58.3547 34.2861 58.3089 34.4161C58.0256 35.5949 57.7777 36.7835 57.5028 37.958C57.4022 38.383 57.4121 38.774 57.7989 39.0475C58.1857 39.3209 58.5526 39.2161 58.9323 38.988C59.9722 38.3604 61.0291 37.7596 62.0633 37.1235C62.1722 37.0405 62.3054 36.9955 62.4423 36.9955C62.5793 36.9955 62.7124 37.0405 62.8213 37.1235C63.8725 37.7682 64.9464 38.383 65.9976 39.0163C66.3603 39.2331 66.7287 39.2997 67.08 39.0347C67.4045 38.7882 67.481 38.4595 67.3832 38.043C67.0999 36.8288 66.8562 35.6019 66.5601 34.3906C66.5156 34.2603 66.5152 34.1189 66.559 33.9884C66.6028 33.8578 66.6883 33.7452 66.8024 33.6681C67.7261 32.8747 68.6328 32.0601 69.5523 31.2596C69.7935 31.0773 69.9537 30.8077 69.9986 30.5087C70.0113 30.0865 69.6798 29.7125 69.1797 29.6587ZM65.2128 32.8024C64.7056 33.202 64.6106 33.6525 64.7651 34.2461C64.9592 34.9913 65.1079 35.7464 65.2992 36.6036C64.503 36.1332 63.7918 35.7323 63.1004 35.2973C62.6414 35.014 62.2305 35.014 61.7743 35.3073C61.0659 35.7521 60.3377 36.1573 59.5755 36.6121C59.7809 35.7096 59.9623 34.8808 60.1606 34.0619C60.2236 33.85 60.2197 33.6238 60.1495 33.4141C60.0793 33.2044 59.9461 33.0215 59.7682 32.8903C59.1307 32.3519 58.5186 31.7923 57.8272 31.176C58.741 31.0882 59.5585 30.9904 60.3774 30.9366C60.8733 30.9054 61.2034 30.7 61.396 30.2438C61.7304 29.4518 62.0747 28.6655 62.4416 27.8141C62.7986 28.6414 63.1401 29.4065 63.4588 30.18C63.6628 30.6759 63.9986 30.9111 64.5441 30.9408C65.3516 30.9833 66.1549 31.0825 67.0545 31.176C66.4085 31.7498 65.8333 32.3094 65.2085 32.8024H65.2128Z" fill="#050615"/>
<path d="M23.2259 35.3751C22.9086 36.3371 22.7669 37.3585 22.5515 38.3318C22.5515 39.0516 23.2826 39.4355 23.9371 39.0601C25.0195 38.4367 26.0944 37.7991 27.1617 37.1474C27.428 36.9845 27.6306 36.942 27.9196 37.1205C28.9822 37.7779 30.066 38.3956 31.1385 39.0416C31.4842 39.2485 31.8469 39.3052 32.1784 39.0629C32.5099 38.8206 32.6034 38.4962 32.5056 38.0839C32.2223 36.8683 31.98 35.6429 31.6853 34.4301C31.6003 34.083 31.6853 33.8861 31.9446 33.6651C32.8924 32.8504 33.8346 32.0174 34.7682 31.1758C35.0515 30.9279 35.2017 30.6261 35.0515 30.2337C34.9977 30.0654 34.8928 29.9181 34.7514 29.8122C34.6099 29.7064 34.439 29.6472 34.2624 29.6429C32.9873 29.5225 31.7009 29.3751 30.4173 29.2661C30.2978 29.2681 30.1808 29.2306 30.0848 29.1594C29.9887 29.0882 29.9188 28.9872 29.8861 28.8722C29.4228 27.76 28.9255 26.6521 28.4537 25.5372C28.2781 25.1263 28.057 24.7806 27.5456 24.7877C27.0341 24.7948 26.8372 25.1476 26.6545 25.5598C26.1813 26.6748 25.6826 27.7756 25.2136 28.8963C25.1844 29.0031 25.1208 29.0973 25.0328 29.1644C24.9447 29.2314 24.837 29.2677 24.7263 29.2675C23.4611 29.3766 22.1988 29.5267 20.9336 29.6358C20.476 29.6769 20.1572 29.8583 20.0311 30.306C19.915 30.7225 20.1402 31.0143 20.4349 31.2651C21.1277 31.8686 21.761 32.5586 22.5161 33.0658C23.4342 33.6835 23.556 34.3791 23.2259 35.3751ZM25.4686 30.9392C25.9886 30.9095 26.3272 30.6913 26.5255 30.2181C26.8514 29.4417 27.1872 28.671 27.5541 27.8167C27.9125 28.6413 28.2625 29.3921 28.5657 30.1572C28.7768 30.6786 29.121 30.9137 29.6877 30.9421C30.4839 30.9817 31.2858 31.0908 32.1713 31.1758C31.5252 31.7425 30.96 32.2979 30.3437 32.7824C29.8209 33.1919 29.7189 33.658 29.8847 34.27C30.0802 34.9968 30.2218 35.7378 30.4145 36.5963C29.7061 36.1784 29.0587 35.8511 28.4707 35.4403C27.8346 34.9954 27.2807 34.994 26.6431 35.4403C26.0467 35.8653 25.3836 36.1954 24.6852 36.6048C24.8864 35.7434 25.0606 34.9571 25.2519 34.1737C25.3935 33.6268 25.2859 33.1933 24.8268 32.8179C24.1936 32.3248 23.6099 31.7666 22.9468 31.1758C23.8394 31.0894 24.6526 30.986 25.4686 30.9392Z" fill="#050615"/>
<path d="M28.7725 53.014C28.3248 52.9715 27.8913 53.3554 27.8417 53.8385C27.8285 53.9566 27.8388 54.0761 27.8719 54.1902C27.905 54.3044 27.9604 54.4108 28.0348 54.5035C28.1091 54.5961 28.2011 54.6732 28.3053 54.7303C28.4095 54.7873 28.524 54.8232 28.6422 54.8359C28.7566 54.8438 28.8714 54.8287 28.9799 54.7916C29.0884 54.7545 29.1884 54.6961 29.2741 54.6198C29.3597 54.5435 29.4293 54.4509 29.4786 54.3474C29.528 54.2439 29.5562 54.1316 29.5616 54.017C29.577 53.8991 29.5687 53.7794 29.5372 53.6647C29.5057 53.5501 29.4516 53.4429 29.3781 53.3495C29.3046 53.256 29.2131 53.1782 29.1091 53.1206C29.0052 53.063 28.8907 53.0267 28.7725 53.014Z" fill="#050615"/>
</g>
<defs>
<clipPath id="clip0_6_2525">
<rect width="50" height="54.2828" fill="white" transform="translate(20 18)"/>
</clipPath>
</defs>
</svg>
