<svg width="90" height="90" viewBox="0 0 90 90" fill="none" xmlns="http://www.w3.org/2000/svg">
<rect width="90" height="90" rx="45" fill="#E0E0E0"/>
<g clip-path="url(#clip0_6_2538)">
<path d="M45.4891 47.8852C43.8767 47.8852 42.2737 47.8745 40.6654 47.8933C40.2959 47.8933 40.1414 47.8355 40.1642 47.4163C40.2045 46.6813 40.1749 45.9383 40.1749 45.206C40.1749 43.8395 39.663 42.6772 38.752 41.6843C38.1066 40.9796 37.2699 40.4782 36.3442 40.2412C35.5259 40.0262 35.022 39.5022 34.7493 38.7309C34.4926 38.0107 34.7493 37.4907 35.2531 36.913C36.5834 35.3839 37.2686 33.5538 37.0281 31.5209C36.6505 28.3378 34.0264 26.7388 31.8147 26.63C28.7606 26.4795 25.9336 28.7933 25.947 32.2155C25.9551 34.1477 26.725 35.8434 28.0391 37.2596C28.1459 37.3612 28.2291 37.4849 28.283 37.6221C28.3368 37.7593 28.36 37.9066 28.3508 38.0537C28.2997 39.1125 27.6602 39.9066 26.6323 40.2466C24.4556 40.9681 23.1724 42.4448 22.87 44.7478C22.7491 45.6682 22.819 46.5886 22.8136 47.5076C22.8136 47.8221 22.729 47.9107 22.4213 47.8919C21.9873 47.8651 21.5506 47.8839 21.1152 47.8919C20.2996 47.8919 20.0067 48.1875 20.0027 49.0166C20.0027 49.9047 20.0027 50.7929 20.0027 51.681C20.0027 53.28 20.0605 53.3579 21.6621 53.3257C22.131 53.3163 22.1996 53.4667 22.1996 53.886C22.1861 58.7787 22.1834 63.6709 22.1915 68.5627C22.1915 69.4844 22.4159 69.7102 23.3443 69.7102C26.6587 69.7102 29.9757 69.7102 33.2954 69.7102H43.1955C44.2301 69.7102 44.4048 69.5328 44.4048 68.4807C44.4048 63.8397 44.4048 59.1988 44.4048 54.5578C44.4048 54.1641 44.222 53.6401 44.4908 53.4103C44.7165 53.2168 45.223 53.3485 45.6046 53.3378C46.3262 53.3176 46.603 53.0435 46.6057 52.3287C46.6057 51.2224 46.6057 50.1166 46.6057 49.0112C46.6043 48.1943 46.298 47.8866 45.4891 47.8852ZM27.5742 32.1779C27.5521 31.2278 27.8835 30.3032 28.5041 29.5834C29.1246 28.8635 29.9903 28.3995 30.9333 28.2813C33.2175 28.0314 34.9777 29.285 35.3566 31.4335C35.706 33.4114 34.9266 35.0372 33.5346 36.4051C33.1477 36.7966 32.6643 37.0788 32.1332 37.2233C30.9696 37.5324 30.0774 37.007 29.3115 36.2452C28.7679 35.7153 28.3346 35.0832 28.0364 34.3851C27.7382 33.6871 27.5811 32.9369 27.5742 32.1779ZM24.602 44.2453C24.942 43.0494 25.7414 42.2029 26.94 41.8522C28.4677 41.4034 29.4203 40.432 29.8584 38.9298C29.9323 38.6745 30.0021 38.61 30.2763 38.7094C31.0662 38.9963 31.9318 38.9963 32.7217 38.7094C33.016 38.606 33.0737 38.661 33.1584 38.9781C33.5279 40.3567 34.3556 41.351 35.7718 41.734C37.6435 42.2419 38.666 43.8838 38.576 45.4962C38.5384 46.1801 38.5585 46.8681 38.576 47.5547C38.5827 47.814 38.5115 47.8973 38.2441 47.8919C37.4245 47.8745 36.6035 47.8704 35.7839 47.8919C35.4735 47.9 35.4305 47.7764 35.4413 47.5144C35.4587 47.0629 35.4533 46.6101 35.4413 46.1586C35.4292 45.5956 35.0852 45.2382 34.5907 45.2584C34.1178 45.2785 33.8423 45.6158 33.8396 46.1801C33.8396 46.6491 33.8248 47.1207 33.8396 47.5869C33.849 47.8368 33.759 47.8933 33.5252 47.8892C32.8399 47.8745 32.1533 47.8892 31.4667 47.8892C30.7801 47.8892 30.0935 47.8785 29.4083 47.8892C29.1624 47.8892 29.0938 47.8167 29.1019 47.5789C29.1194 47.0938 29.114 46.6074 29.1019 46.1223C29.0925 45.5849 28.762 45.249 28.2809 45.2584C27.8214 45.2678 27.507 45.601 27.4989 46.1089C27.4909 46.5765 27.4841 47.0495 27.4989 47.5144C27.5083 47.775 27.468 47.9 27.1576 47.8919C26.3514 47.8691 25.5453 47.8852 24.7471 47.8825C24.6128 47.8825 24.4233 47.939 24.4327 47.689C24.4918 46.5416 24.2836 45.3712 24.602 44.2453ZM42.3046 68.0991C39.2895 68.0857 36.2743 68.0911 33.2605 68.0911C30.2467 68.0911 27.2638 68.0817 24.2661 68.1018C23.863 68.1018 23.7837 67.9863 23.7851 67.606C23.7985 63.0376 23.7985 58.4647 23.7851 53.8873C23.7851 53.4936 23.8455 53.3579 24.2863 53.3579C30.2995 53.3749 36.3124 53.3749 42.3248 53.3579C42.7279 53.3579 42.8072 53.4762 42.8058 53.8537C42.7924 58.4436 42.7924 63.0336 42.8058 67.6235C42.8031 68.0454 42.6634 68.1005 42.3046 68.0991ZM45.0148 51.2833C45.0443 51.6488 44.9127 51.7146 44.5714 51.7146C40.8186 51.7012 37.0657 51.7066 33.3129 51.7066C29.5937 51.7066 25.8744 51.6972 22.1606 51.7173C21.732 51.7173 21.6137 51.6044 21.6527 51.1933C21.692 50.7912 21.692 50.3861 21.6527 49.984C21.6097 49.5608 21.7871 49.4895 22.1619 49.5003C27.7703 49.6602 33.3814 49.5728 38.9898 49.5581C40.8468 49.5581 42.7037 49.5379 44.5606 49.4963C44.9516 49.4882 45.0497 49.6037 45.0215 49.9733C44.9829 50.4089 44.9789 50.847 45.0094 51.2833H45.0148Z" fill="#050615"/>
<path d="M58.8033 55.5212C61.4275 55.5668 63.5437 53.3646 63.5061 50.8076C63.4631 47.5748 63.447 44.3406 63.5142 41.1091C63.5518 39.2939 62.2458 37.4235 59.842 37.4329C58.4983 37.4383 57.1582 37.4383 55.8218 37.4329C55.2788 37.419 54.7389 37.5195 54.2373 37.7278C53.7356 37.9362 53.2834 38.2477 52.9101 38.6422C51.7384 39.838 50.5372 41.0057 49.3668 42.2042C49.2432 42.3469 49.0887 42.4595 48.915 42.5336C48.7413 42.6076 48.553 42.6411 48.3645 42.6315C47.0208 42.6006 45.6852 42.6194 44.3456 42.6221C44.0122 42.6035 43.6779 42.6325 43.3527 42.7081C42.0963 43.0749 41.4191 44.1028 41.5804 45.3954C41.7147 46.4918 42.7494 47.3491 43.999 47.3558C46.3436 47.3706 48.6883 47.3558 51.033 47.3625C51.1993 47.3666 51.3647 47.3353 51.518 47.2707C51.6714 47.206 51.8092 47.1096 51.9225 46.9876C52.425 46.4703 52.9316 45.9597 53.5349 45.3403V45.8227C53.5349 47.0951 53.5268 48.3689 53.5349 49.6413C53.5349 49.9584 53.3387 49.8845 53.1694 49.8845C52.1321 49.8845 51.0934 49.8845 50.0548 49.8845C48.6829 49.8913 47.3984 51.1704 47.397 52.5477C47.406 56.9557 47.4105 61.3611 47.4105 65.7638C47.4105 67.2418 48.906 68.3853 50.3423 68.0373C51.3219 67.7995 52.292 67.0537 52.2772 65.3795C52.249 62.2636 52.2772 59.1477 52.2584 56.0331C52.2584 55.63 52.335 55.4956 52.769 55.4956C54.7831 55.5319 56.7946 55.4862 58.8033 55.5212ZM51.8674 53.9088C50.9 53.9088 50.646 54.1587 50.646 55.1181C50.646 58.6035 50.6258 62.0889 50.6621 65.573C50.6688 66.2113 50.0387 66.7313 49.3937 66.3618C49.0847 66.1844 49.0121 65.8928 49.0135 65.5556C49.0215 63.4057 49.0135 61.2653 49.0135 59.1208C49.0135 57.0771 49.0538 55.0307 48.9947 52.9884C48.9705 52.1298 49.5321 51.4203 50.5304 51.4795C51.7317 51.5507 52.9423 51.4996 54.1476 51.4956C54.8557 51.4956 55.1499 51.1959 55.1499 50.4946C55.1499 48.1821 55.1432 45.8697 55.158 43.5586C55.158 43.1555 55.0411 42.8411 54.6917 42.6947C54.3424 42.5482 53.993 42.6328 53.6947 42.9405C52.8671 43.7938 52.0098 44.6188 51.1794 45.4706C51.0966 45.5609 50.9949 45.6318 50.8816 45.6782C50.7682 45.7247 50.6461 45.7455 50.5237 45.7394C48.4128 45.7286 46.302 45.7394 44.1911 45.7394C44.0907 45.7432 43.9902 45.7409 43.8901 45.7327C43.401 45.6695 43.1498 45.3914 43.1713 44.9426C43.1861 44.7498 43.2752 44.5702 43.4198 44.4419C43.5645 44.3135 43.7533 44.2464 43.9465 44.2546C44.8522 44.2372 45.7564 44.2452 46.6607 44.2439C47.4481 44.2439 48.2355 44.2345 49.0229 44.2439C49.2055 44.2513 49.3877 44.2191 49.5567 44.1495C49.7258 44.0799 49.8778 43.9746 50.0024 43.8408C51.346 42.481 52.7045 41.14 54.0468 39.7816C54.4499 39.3718 54.9094 39.0883 55.4899 39.0829C57.113 39.0641 58.7388 38.9821 60.3593 39.1259C60.7777 39.1721 61.1645 39.3709 61.4458 39.6841C61.7271 39.9974 61.8832 40.4033 61.8843 40.8243C61.8937 44.2425 61.9004 47.6608 61.8843 51.079C61.8762 52.5571 60.4963 53.9007 59.0022 53.9088C56.6253 53.9195 54.247 53.9074 51.8674 53.9074V53.9088Z" fill="#050615"/>
<path d="M68.5717 43.7559C67.7503 43.7559 66.9298 43.7559 66.1101 43.7559C65.2959 43.7559 65.011 44.0488 65.011 44.8778C65.011 48.765 65.011 52.6508 65.0191 56.5367C65.0191 56.9116 64.9506 57.0379 64.5407 57.0352C61.3576 57.015 58.1759 57.0231 54.9927 57.0231C54.3209 57.0231 54.0522 57.2918 54.0455 57.9435C54.0455 61.2937 54.0455 64.6438 54.0455 67.994C54.0455 68.5892 54.3344 68.8795 54.9323 68.8835C55.8366 68.8916 56.7408 68.8902 57.6451 68.8835C58.3022 68.8835 58.5709 68.5987 58.5722 67.9322C58.5722 65.9557 58.5816 63.9792 58.5628 62.0027C58.5628 61.6426 58.626 61.5257 59.0183 61.531C60.9774 61.5552 62.9369 61.5552 64.8968 61.531C65.2999 61.531 65.4343 61.5996 65.4208 62.0349C65.394 63.9778 65.4087 65.9221 65.4101 67.865C65.4101 68.561 65.7151 68.8714 66.4084 68.8768C67.1017 68.8822 67.8152 68.8768 68.5193 68.8768C69.8347 68.8768 69.9973 68.7155 69.9973 67.4189V45.1627C70 43.9346 69.8186 43.7559 68.5717 43.7559ZM68.0033 67.2859C67.0171 67.2859 67.0171 67.3047 67.0171 66.3091C67.0171 64.8727 67.0305 63.4363 67.0077 62C67.0077 61.6358 67.0789 61.5189 67.4645 61.5324C68.3513 61.5619 68.3527 61.5324 68.3527 62.4138V64.4669C68.3527 65.2852 68.3406 66.1048 68.3594 66.9218C68.3715 67.2026 68.2909 67.2846 68.0033 67.2859ZM68.3527 52.6683C68.3527 54.9297 68.3433 57.191 68.3607 59.4511C68.3607 59.8286 68.2868 59.9509 67.8797 59.9482C64.5649 59.9294 61.2488 59.9375 57.9367 59.9388C57.2407 59.9388 56.9706 60.2075 56.9706 60.8982C56.9706 62.8908 56.9612 64.8835 56.9773 66.8761C56.9773 67.2066 56.8913 67.2913 56.5648 67.2859C55.6605 67.2725 55.6605 67.2859 55.6605 66.3722C55.6605 63.9442 55.6699 61.5163 55.6511 59.0869C55.6511 58.7188 55.7277 58.618 56.1107 58.6207C59.275 58.6382 62.4406 58.6314 65.6049 58.6314C66.3802 58.6314 66.6194 58.3923 66.6194 57.621C66.6194 53.6855 66.6261 49.7499 66.6113 45.8143C66.6113 45.4435 66.6879 45.3051 67.0708 45.3535C67.482 45.4045 68.0262 45.1828 68.2801 45.4341C68.5341 45.6853 68.3513 46.2255 68.3527 46.6434C68.3567 48.6494 68.3527 50.6582 68.3527 52.6683Z" fill="#050615"/>
<path d="M37.4675 28.9193C37.4675 30.3732 38.2885 31.2654 39.7423 31.3527C40.0513 31.3715 40.0836 31.479 40.0782 31.7343C40.0634 32.4061 40.0863 33.0779 40.0688 33.7498C40.0581 34.1824 40.1333 34.5345 40.5848 34.7253C41.0362 34.9161 41.3157 34.6648 41.5925 34.3893C42.5062 33.481 43.4226 32.5727 44.3228 31.651C44.4114 31.5541 44.5204 31.4782 44.6419 31.4287C44.7635 31.3792 44.8945 31.3573 45.0255 31.3648C46.7329 31.3773 48.4407 31.3773 50.1489 31.3648C51.5302 31.3567 52.507 30.4578 52.5245 29.1303C52.55 27.1377 52.5567 25.145 52.5245 23.1524C52.4989 21.712 51.3985 20.9891 50.3666 21.0093C48.5916 21.0442 46.8166 21.0187 45.0417 21.0187C43.3191 21.0133 41.5925 21.0536 39.8699 20.9998C38.2737 20.9528 37.4379 22.1769 37.4675 23.444C37.493 25.2686 37.4675 27.0947 37.4675 28.9193ZM39.0799 23.3123C39.0799 22.8178 39.2908 22.6284 39.788 22.6284C43.2734 22.6284 46.7589 22.6284 50.2443 22.6284C50.7817 22.6284 50.9161 22.7547 50.9161 23.3163C50.9233 25.21 50.9233 27.1032 50.9161 28.9959C50.9161 29.5428 50.6863 29.7403 50.0817 29.7417C48.2718 29.7417 46.4619 29.7537 44.6533 29.7417C44.171 29.7417 43.7961 29.8586 43.4615 30.2294C42.9241 30.826 42.3342 31.3769 41.6758 32.038C41.6758 31.5086 41.6758 31.0974 41.6758 30.6822C41.6758 30.0561 41.3923 29.7726 40.7608 29.7511C40.4262 29.7403 40.089 29.7511 39.7557 29.7511C39.3137 29.7363 39.0758 29.4971 39.0758 29.0537C39.0785 27.1377 39.0799 25.2238 39.0799 23.3123Z" fill="#050615"/>
<path d="M57.9488 36.1039C60.4802 36.116 62.6193 33.9876 62.5817 31.4616C62.5708 30.2421 62.0817 29.0757 61.2195 28.2133C60.3573 27.3509 59.1911 26.8614 57.9716 26.8502C55.322 26.8367 53.246 29.1102 53.3454 31.4656C53.2339 33.7095 55.1513 36.0891 57.9488 36.1039ZM57.9488 28.4625C59.4268 28.4545 60.9626 29.5643 60.968 31.4723C60.968 33.25 59.6055 34.4619 57.9555 34.4929C56.3055 34.5238 54.9498 33.1465 54.9484 31.4804C54.9449 31.085 55.0197 30.6929 55.1687 30.3266C55.3177 29.9603 55.5378 29.6273 55.8163 29.3466C56.0948 29.066 56.4262 28.8433 56.7913 28.6916C57.1565 28.5398 57.548 28.462 57.9434 28.4625H57.9488Z" fill="#050615"/>
</g>
<defs>
<clipPath id="clip0_6_2538">
<rect width="50" height="48.7047" fill="white" transform="translate(20 21)"/>
</clipPath>
</defs>
</svg>
