<svg width="90" height="90" viewBox="0 0 90 90" fill="none" xmlns="http://www.w3.org/2000/svg">
<rect width="90" height="90" rx="45" fill="#E0E0E0"/>
<g clip-path="url(#clip0_6_2528)">
<path d="M43.0846 20.2399C41.3542 20.4531 39.6662 20.9278 38.0784 21.6478C35.0973 22.998 32.5771 25.192 30.8293 27.9587C29.3314 30.3073 28.512 32.8906 28.2733 35.6567C28.2315 36.1433 28.2628 36.6313 28.2576 37.1193C28.2576 37.4063 28.3881 37.529 28.6725 37.529C29.9251 37.529 31.1776 37.5224 32.4302 37.529C32.7811 37.529 32.8699 37.3554 32.8764 37.0436C32.892 36.236 33.1243 35.5184 33.7284 34.9339C34.4695 34.2189 35.3306 33.9527 36.3235 34.1928C37.3947 34.4537 38.0705 35.153 38.3784 36.2047C38.4513 36.455 38.4951 36.7128 38.5089 36.9732C38.5376 37.5224 38.5415 37.5251 39.1156 37.5264C40.4656 37.5264 41.8138 37.5264 43.1603 37.5264C44.4154 37.5264 44.3646 37.4389 44.3633 38.7124C44.3633 40.0784 44.375 41.4523 44.3554 42.8118C44.3554 43.2228 44.4702 43.3859 44.9021 43.4016C45.9785 43.4381 46.8592 43.8752 47.415 44.8368C48.4588 46.653 47.2011 48.8815 45.0665 49.0198C44.3659 49.0641 44.3646 49.0641 44.3646 49.7856C44.3646 50.8751 44.3646 51.9645 44.3646 53.0475C44.3646 53.5981 44.3985 53.6294 44.9413 53.6346C48.5775 53.6711 51.8563 52.5908 54.8037 50.4771C55.5566 49.9383 55.5709 49.9331 55.8162 50.8386C56.1903 52.2907 56.8079 53.6689 57.6428 54.9145C58.154 55.6303 58.7435 56.2867 59.4003 56.8716C59.6887 57.1326 59.7787 57.3779 59.6404 57.7654C59.2698 58.8027 59.5908 59.8778 60.4023 60.4818C60.8181 60.8037 61.3268 60.9826 61.8526 60.9918C62.3783 61.0009 62.893 60.8399 63.3197 60.5327C65.1794 59.1897 67.0317 57.838 68.8766 56.4776C69.2105 56.2158 69.4831 55.884 69.6751 55.5056C69.7547 55.3621 69.7651 55.1403 70.0065 55.1377V53.9634C69.769 53.4167 69.5381 52.8687 69.0358 52.4917C68.6078 52.1707 68.1225 51.9593 67.6006 51.9698C67.2196 51.9802 67.1974 51.8119 67.1661 51.5144C66.9469 49.4677 66.6255 47.4362 66.2019 45.42C65.9083 44.0187 65.0511 43.1889 63.8116 42.6383C63.1115 42.304 62.3942 42.0069 61.6627 41.7485C61.3405 41.6454 61.2569 41.5084 61.347 41.16C62.2851 37.5472 62.1298 33.9749 60.6659 30.5356C58.2835 24.95 54.0861 21.5147 48.1235 20.2726C47.5794 20.159 47.0275 20.0782 46.4795 19.9829H46.0881C45.99 20.058 45.8699 20.0987 45.7463 20.0987C45.6227 20.0987 45.5026 20.058 45.4044 19.9829H43.5439C43.4943 20.2765 43.2555 20.2165 43.0846 20.2399ZM54.3967 48.9858C51.9228 50.9127 48.9169 52.0335 45.7854 52.1968C45.7854 51.6605 45.7932 51.1269 45.7854 50.5946C45.7854 50.3336 45.9655 50.3806 46.1116 50.3336C46.9464 50.1082 47.6923 49.6328 48.2491 48.9711C48.8058 48.3094 49.1467 47.4932 49.226 46.6321C49.4478 44.6541 48.1561 42.7062 46.2251 42.1725C45.8533 42.0694 45.7658 41.9181 45.775 41.5528C45.8024 40.3785 45.7972 39.2121 45.775 38.0417C45.775 37.7325 45.8611 37.6647 46.156 37.6699C47.3737 37.6864 48.5915 37.6864 49.8092 37.6699C50.0702 37.6699 50.1563 37.7456 50.2293 37.9882C50.8217 39.9336 52.4474 41.1783 54.3536 41.1574C56.2755 41.1366 57.8633 39.9036 58.4439 37.9452C58.5131 37.7142 58.6005 37.6699 58.8027 37.6751C59.1942 37.6842 59.5856 37.6973 59.977 37.6751C60.2667 37.6568 60.2758 37.7808 60.2614 38.0169C60.1127 40.2385 59.467 42.3983 58.3722 44.3371C58.2326 44.5876 58.1452 44.6176 57.9325 44.3984C57.1979 43.639 56.4555 42.8862 55.6923 42.1556C54.2192 40.7464 51.859 41.4275 51.3997 43.4029C51.187 44.3162 51.4597 45.1356 52.1264 45.8075C52.9093 46.5903 53.6921 47.3732 54.4632 48.156C54.899 48.597 54.8872 48.6075 54.3967 48.9858ZM66.7094 53.8838C67.26 53.4467 67.8576 53.4637 68.2138 53.9164C68.6052 54.4083 68.4747 54.9798 67.8837 55.4156C66.1284 56.6977 64.3727 57.9789 62.6165 59.2593C62.3908 59.4224 62.165 59.5803 61.895 59.549C61.7669 59.5534 61.6393 59.5317 61.52 59.4851C61.4007 59.4385 61.2921 59.3681 61.201 59.278C61.1098 59.188 61.038 59.0803 60.99 58.9615C60.942 58.8428 60.9187 58.7154 60.9216 58.5874C60.9282 58.3825 60.9216 58.2155 61.2361 58.1607C61.497 58.1164 61.7149 57.8502 61.9432 57.6701C63.5307 56.4089 65.1194 55.1468 66.7094 53.8838ZM61.0743 43.2163C61.9673 43.5496 62.8387 43.9379 63.6838 44.3788C63.8994 44.4894 64.0886 44.6452 64.2384 44.8358C64.3881 45.0263 64.4949 45.247 64.5514 45.4826C64.9702 47.0483 65.1868 48.6583 65.4125 50.2619C65.5091 50.9534 65.5613 51.6501 65.6656 52.3403C65.6893 52.4314 65.6821 52.5277 65.6453 52.6143C65.6085 52.7009 65.5441 52.7729 65.4621 52.8191C64.0021 53.876 62.5408 54.9315 61.0991 56.0131C60.7807 56.2519 60.6255 56.0392 60.4402 55.8827C59.0246 54.6888 58.0917 53.1688 57.5098 51.4309C57.3245 50.8803 57.1797 50.3141 57.0479 49.7478C56.7884 48.6359 56.2156 47.6216 55.3974 46.8252C54.6824 46.1128 53.9622 45.4043 53.2589 44.6841C52.9562 44.3749 52.814 44.0109 53.0071 43.5764C53.0758 43.4061 53.1926 43.2594 53.3432 43.1542C53.4937 43.0491 53.6716 42.9899 53.8552 42.9841C54.2323 42.9841 54.4867 43.1654 54.7241 43.4055C55.8697 44.5602 57.0283 45.7018 58.1686 46.8617C58.3944 47.0901 58.4857 47.1122 58.6814 46.8174C59.4016 45.7357 60.0814 44.6345 60.5733 43.4251C60.6829 43.1615 60.7833 43.1015 61.0717 43.2163H61.0743ZM45.7893 24.0093C45.7893 23.3739 45.8076 22.7398 45.7815 22.1057C45.7672 21.7495 45.8259 21.6034 46.2421 21.6386C49.1045 21.8541 51.8445 22.8881 54.1357 24.6173C57.6454 27.2581 59.6352 30.7965 60.2236 35.1374C60.3541 36.1094 60.3541 36.1094 59.3925 36.1094C58.808 36.1094 58.2182 36.1446 57.6376 36.099C57.1444 36.0611 56.9565 36.1864 57.0048 36.7122C57.0557 37.3341 56.8734 37.9526 56.4934 38.4475C56.166 38.8968 55.7065 39.2326 55.179 39.408C54.6515 39.5834 54.0824 39.5898 53.5512 39.4261C52.4513 39.0933 51.7246 38.0965 51.6659 36.8583C51.6345 36.1094 51.6345 36.1094 50.8974 36.1094C49.3317 36.1094 47.7751 36.1003 46.2134 36.1172C45.8859 36.1172 45.7672 36.0611 45.7789 35.7036C45.8089 34.8582 45.7893 34.0075 45.7893 33.1659C45.7893 32.3244 45.7776 31.4424 45.7893 30.58C45.7959 30.306 45.7202 30.2107 45.441 30.2329C45.0192 30.2689 44.5945 30.2214 44.191 30.0933C43.5811 29.8992 43.0611 29.4924 42.7259 28.9472C42.3906 28.4019 42.2623 27.7543 42.3644 27.1224C42.5445 25.9025 43.6496 24.9474 44.9491 24.8887C45.7893 24.8509 45.7893 24.8509 45.7893 24.0093ZM43.8922 21.6386C44.1897 21.619 44.2654 21.7195 44.2276 21.9818C44.225 21.9977 44.225 22.0141 44.2276 22.03C44.3476 22.8872 44.1989 23.4196 43.1929 23.7706C41.609 24.3225 40.6356 26.1399 40.7609 27.7422C40.9083 29.6184 42.0278 31.1005 43.7422 31.6029C44.1454 31.7203 44.2471 31.886 44.2367 32.2839C44.208 33.4386 44.2132 34.5946 44.2367 35.748C44.2367 36.0624 44.1467 36.1277 43.8557 36.1159C43.2373 36.0938 42.6188 36.1159 42.0017 36.1159C41.4315 36.1159 40.8614 36.0938 40.2938 36.1251C39.9624 36.142 39.8358 36.0442 39.7393 35.7167C39.25 34.0779 38.1305 33.0485 36.4774 32.7354C34.797 32.4196 33.3748 32.982 32.3023 34.3376C31.9561 34.7699 31.7109 35.274 31.5847 35.8132C31.5273 36.0559 31.4464 36.1303 31.2102 36.1212C30.8045 36.1042 30.3974 36.1107 29.9903 36.1212C29.7946 36.1212 29.7202 36.0964 29.7294 35.8602C30.1312 29.1617 35.2092 23.3035 41.7851 21.957C42.4797 21.8044 43.1836 21.698 43.8922 21.6386Z" fill="#050615"/>
<path d="M43.2516 20.1005C41.6359 20.2622 40.0531 20.6623 38.5546 21.2878C32.0244 24.0525 28.0463 30.16 28.0998 37.2708C28.0998 37.6296 28.2107 37.6896 28.5356 37.6844C29.7555 37.6648 30.9767 37.6765 32.1966 37.6765C32.9795 37.6765 32.9795 37.6765 32.9964 36.912C32.9989 36.4959 33.098 36.0861 33.286 35.715C33.474 35.3438 33.7456 35.0213 34.0795 34.7731C34.4134 34.5249 34.8004 34.3576 35.21 34.2846C35.6195 34.2115 36.0405 34.2346 36.4396 34.3521C37.5878 34.6822 38.3302 35.7299 38.3511 37.0516C38.3602 37.6739 38.3602 37.6739 39.0034 37.6739C40.6135 37.6739 42.2248 37.6831 43.8309 37.6661C44.1493 37.6661 44.2367 37.7457 44.2328 38.0666C44.2158 39.6323 44.225 41.1902 44.225 42.7519C44.225 43.5022 44.225 43.5035 44.9935 43.5517C46.1482 43.6261 47.0106 44.1441 47.4516 45.2362C47.8678 46.2656 47.6721 47.218 46.9362 48.0374C46.3178 48.7263 45.501 48.9507 44.5994 48.892C44.3098 48.8711 44.208 48.9416 44.2171 49.256C44.2367 50.656 44.2341 52.0547 44.2171 53.4547C44.2171 53.7417 44.3098 53.7926 44.5746 53.7965C48.5071 53.8574 52.0486 52.7132 55.1991 50.3638C55.2956 50.292 55.3687 50.1615 55.5201 50.2007C56.1281 52.9197 57.2984 55.3126 59.4721 57.1275C59.6574 57.2828 59.6313 57.395 59.5465 57.575C59.3012 58.0954 59.2548 58.6876 59.416 59.2399C59.8896 60.9921 61.8832 61.7071 63.3824 60.6451C64.9598 59.5282 66.5007 58.3605 68.0794 57.2371C68.8727 56.6708 69.6529 56.1085 70.0039 55.143C69.7625 55.143 69.7521 55.3674 69.6725 55.5109C69.4805 55.8893 69.2079 56.2211 68.874 56.483C67.0282 57.8477 65.176 59.2003 63.3171 60.5407C62.8904 60.8479 62.3757 61.0089 61.85 60.9997C61.3242 60.9906 60.8156 60.8117 60.3998 60.4898C59.5882 59.8857 59.2673 58.8106 59.6378 57.7733C59.7761 57.3819 59.6861 57.1471 59.3977 56.8796C58.7409 56.2947 58.1514 55.6383 57.6402 54.9225C56.8053 53.6769 56.1877 52.2987 55.8136 50.8465C55.5683 49.941 55.5527 49.9462 54.8012 50.4851C51.8525 52.5949 48.575 53.6791 44.9387 53.6426C44.3959 53.6426 44.3633 53.606 44.362 53.0554C44.362 51.966 44.362 50.8765 44.362 49.7936C44.362 49.0721 44.362 49.0721 45.0639 49.0277C47.1998 48.8907 48.4562 46.6609 47.4124 44.8447C46.8618 43.8897 45.9772 43.4526 44.8995 43.4095C44.4677 43.3939 44.3476 43.2308 44.3528 42.8198C44.3724 41.4537 44.3594 40.0798 44.3607 38.7203C44.3607 37.4469 44.4129 37.5356 43.1577 37.5343C41.8086 37.5343 40.4604 37.5343 39.113 37.5343C38.5389 37.5343 38.535 37.5343 38.5063 36.9811C38.4925 36.7208 38.4487 36.4629 38.3759 36.2126C38.0679 35.161 37.3921 34.4604 36.3209 34.2007C35.328 33.9606 34.4669 34.2268 33.7258 34.9418C33.1217 35.5263 32.8895 36.2465 32.8738 37.0516C32.8673 37.3634 32.7786 37.5395 32.4276 37.5369C31.175 37.5291 29.9225 37.5369 28.6699 37.5369C28.3855 37.5369 28.2511 37.4143 28.255 37.1272C28.255 36.6393 28.2289 36.1513 28.2707 35.6646C28.5095 32.8934 29.3288 30.3152 30.8267 27.9667C32.5751 25.1973 35.0973 23.0013 38.081 21.6505C39.6679 20.9299 41.355 20.4543 43.0846 20.2401C43.2556 20.2166 43.4943 20.2766 43.5439 20C43.4852 20.1513 43.3547 20.09 43.2516 20.1005Z" fill="#050615"/>
<path d="M46.0816 20H45.3979C45.6187 20.0809 45.8609 20.0809 46.0816 20Z" fill="#050615"/>
<path d="M46.0816 20C45.8609 20.0809 45.6187 20.0809 45.3979 20C45.4961 20.0751 45.6162 20.1158 45.7398 20.1158C45.8634 20.1158 45.9835 20.0751 46.0816 20Z" fill="#050615"/>
<path d="M41.9678 50.9925C41.7251 50.8477 41.6847 50.7433 41.7603 50.4706C42.217 48.8006 42.6306 47.1201 43.0899 45.4513C43.1812 45.1173 43.1029 45.0495 42.795 44.9712C41.1954 44.5693 39.6049 44.1309 38.0053 43.7226C37.6283 43.6273 37.353 43.5177 37.4182 43.0402C37.4339 42.8286 37.4132 42.6159 37.3569 42.4113C37.1802 41.5726 36.7573 40.8058 36.1423 40.2089C35.5273 39.612 34.7481 39.2122 33.9045 39.0607C33.0574 38.919 32.1871 39.0371 31.4083 39.3995C30.6295 39.7619 29.9787 40.3515 29.5415 41.0909C29.3941 41.3336 29.2806 41.4275 28.9779 41.3349C28.1415 41.0831 27.2817 40.8978 26.4454 40.6577C26.1662 40.5768 26.054 40.6029 25.9692 40.9082C25.0154 44.3358 25.0558 47.7346 26.2418 51.1021C26.3514 51.4127 26.251 51.5288 25.99 51.6384C24.8549 52.1185 24.1517 52.9353 23.8646 54.1656C23.4055 56.2233 23.0678 58.3062 22.8534 60.4036C22.8274 60.641 22.8443 60.8185 22.4946 60.8315C21.9649 60.8417 21.4518 61.018 21.0277 61.3354C20.6035 61.6529 20.2897 62.0954 20.1305 62.6007C19.7912 63.6615 20.1305 64.7523 21.0816 65.4503C22.9213 66.8137 24.7779 68.1563 26.6307 69.5028C27.0599 69.8315 27.5894 70.002 28.1298 69.9855C28.5501 69.989 28.9647 69.888 29.3363 69.6915C29.7079 69.495 30.0248 69.2093 30.2586 68.8599C30.4924 68.5106 30.6357 68.1087 30.6757 67.6902C30.7156 67.2718 30.6509 66.85 30.4874 66.4628C30.4196 66.2918 30.2891 66.1522 30.5161 65.963C32.1666 64.5813 33.2417 62.8082 33.9437 60.7963C34.0481 60.4949 34.1485 60.4701 34.4121 60.6123C35.6457 61.2574 36.9518 61.7532 38.3028 62.0893C38.6433 62.1793 38.706 62.0893 38.7738 61.7931C38.9486 61.0364 39.1783 60.2927 39.3531 59.5372C39.4497 59.121 39.5645 58.8118 40.0942 58.8849C40.3221 58.8963 40.5502 58.8662 40.7674 58.7961C42.4532 58.393 43.7592 57.0334 44.0201 55.4208C44.315 53.6111 43.553 51.9385 41.9678 50.9925ZM28.6112 68.275C28.2355 68.4929 27.8688 68.4473 27.5205 68.1928C26.2253 67.2473 24.9288 66.3018 23.6311 65.3563C23.1092 64.9741 22.5781 64.5983 22.0654 64.2069C21.5526 63.8155 21.4352 63.2766 21.7757 62.8082C22.1163 62.3398 22.7138 62.2654 23.2292 62.6712C24.9254 64.0059 26.6085 65.3563 28.3046 66.6924C28.486 66.8346 28.6256 67.0421 28.91 67.0551C29.1136 67.0655 29.0875 67.2821 29.1005 67.4465C29.1025 67.6162 29.058 67.7831 28.9717 67.9292C28.8854 68.0752 28.7608 68.1949 28.6112 68.275ZM32.121 61.099C31.5599 62.5342 30.644 63.7489 29.4828 64.7796C29.2401 64.9962 29.0849 64.9871 28.8304 64.7992C27.5166 63.8207 26.1962 62.8486 24.8575 61.9027C24.4831 61.6418 24.3121 61.3991 24.3774 60.8902C24.6383 58.8027 24.911 56.7151 25.3664 54.6523C25.5347 53.889 25.9235 53.3776 26.6307 53.0579C26.8916 52.9418 26.9999 52.9353 27.1343 53.2093C28.0893 55.1572 29.4645 56.7934 31.0224 58.286C31.0579 58.3131 31.0954 58.3376 31.1346 58.3591L32.7003 54.2361C32.8542 53.829 32.9978 53.4154 33.1687 53.0149C33.3905 52.493 33.8771 52.2816 34.3534 52.4617C34.4731 52.5026 34.5831 52.568 34.6762 52.6537C34.7694 52.7393 34.8437 52.8435 34.8945 52.9594C34.9453 53.0753 34.9714 53.2005 34.9713 53.3271C34.9711 53.4537 34.9446 53.5788 34.8935 53.6946C33.9776 56.1645 33.0734 58.6383 32.121 61.099ZM39.2239 57.2605C38.3876 57.0648 38.3902 57.0648 38.1645 57.9128C37.9623 58.6774 37.7535 59.4394 37.5434 60.217C36.6482 59.9257 35.7806 59.5555 34.9509 59.1106C34.69 58.9801 34.6574 58.8496 34.7578 58.5887C35.2941 57.1835 35.8147 55.7744 36.334 54.3627C36.8741 52.8961 36.2687 51.4596 34.9079 50.9586C33.547 50.4576 32.1836 51.1374 31.6291 52.5752C31.2638 53.5237 30.9063 54.4749 30.5305 55.4639C28.9952 53.6773 27.9015 51.5548 27.3378 49.2677C26.826 47.1789 26.7562 45.0062 27.133 42.8888C27.1891 42.5548 27.2987 42.5078 27.6157 42.6005C28.4534 42.8458 29.3054 43.0402 30.1469 43.2737C30.3557 43.3324 30.4366 43.3155 30.4744 43.0885C30.519 42.8496 30.5831 42.6148 30.6662 42.3865C30.8781 41.7288 31.3374 41.1792 31.9469 40.8536C32.5564 40.5281 33.2686 40.4521 33.9331 40.6417C34.5976 40.8313 35.1624 41.2717 35.5084 41.8699C35.8543 42.4681 35.9543 43.1773 35.7873 43.8478C35.5863 44.6959 35.585 44.6985 36.4109 44.9164C37.897 45.3078 39.3818 45.6992 40.8692 46.0828C41.1536 46.1559 41.2502 46.2407 41.1562 46.5747C40.7113 48.1626 40.3264 49.7687 39.875 51.3539C39.7445 51.821 39.8685 51.9411 40.3017 52.0337C41.3454 52.2568 42.0761 52.87 42.3892 53.9204C42.5206 54.367 42.5323 54.8404 42.4232 55.293C42.314 55.7456 42.0878 56.1616 41.7672 56.4992C41.4466 56.8369 41.0429 57.0843 40.5965 57.2168C40.1502 57.3493 39.6768 57.3621 39.2239 57.2539V57.2605Z" fill="#050615"/>
</g>
<defs>
<clipPath id="clip0_6_2528">
<rect width="50" height="49.987" fill="white" transform="translate(20 20)"/>
</clipPath>
</defs>
</svg>
