<svg width="70" height="70" viewBox="0 0 70 70" fill="none" xmlns="http://www.w3.org/2000/svg">
<g clip-path="url(#clip0_111_2922)">
<path d="M35 70C54.33 70 70 54.33 70 35C70 15.67 54.33 0 35 0C15.67 0 0 15.67 0 35C0 54.33 15.67 70 35 70Z" fill="white"/>
<path d="M34.9997 68.6674C53.5937 68.6674 68.6672 53.594 68.6672 34.9999C68.6672 16.4059 53.5937 1.33249 34.9997 1.33249C16.4057 1.33249 1.33228 16.4059 1.33228 34.9999C1.33228 53.594 16.4057 68.6674 34.9997 68.6674Z" fill="#050615"/>
<path d="M9.61985 44.7389L8.54521 45.1384L8.5076 45.0389C8.74626 44.9166 8.93586 44.7162 9.04492 44.4712C9.14684 44.2602 9.16352 44.018 9.09148 43.7951C9.0513 43.6508 8.95699 43.5276 8.8282 43.4512C8.77583 43.4197 8.71732 43.3998 8.6566 43.3928C8.59589 43.3859 8.53439 43.392 8.47625 43.4109C8.40695 43.4324 8.34496 43.4727 8.29715 43.5273C8.22857 43.6169 8.17835 43.7191 8.14939 43.8282C8.10329 44.0323 8.0689 44.2389 8.0464 44.447C7.9867 44.893 7.89715 45.2112 7.77774 45.4016C7.65975 45.587 7.48132 45.7259 7.27266 45.7948C7.13944 45.8407 6.99791 45.8575 6.85763 45.8441C6.71736 45.8306 6.5816 45.7873 6.45952 45.7169C6.18393 45.5637 5.97871 45.3093 5.88728 45.0076C5.85363 44.9098 5.8308 44.8086 5.81922 44.7058C5.80833 44.5777 5.80833 44.4489 5.81922 44.3207C5.82693 44.2516 5.82115 44.1817 5.8022 44.1148C5.78514 44.0676 5.75385 44.0269 5.71265 43.9983C5.65787 43.9606 5.59369 43.9389 5.52727 43.9357L5.49683 43.8461L6.72908 43.4252L6.75952 43.5148C6.43713 43.704 6.21922 43.9306 6.10579 44.1945C5.99466 44.427 5.97672 44.6933 6.05564 44.9387C6.10447 45.098 6.21289 45.2324 6.35833 45.3139C6.45223 45.3715 6.56347 45.3942 6.67243 45.3778C6.78139 45.3614 6.88106 45.307 6.95385 45.2243C7.01769 45.1488 7.06607 45.0615 7.09624 44.9673C7.14662 44.7941 7.1808 44.6167 7.19833 44.4372C7.22487 44.177 7.27645 43.92 7.35236 43.6697C7.40431 43.5164 7.48654 43.3751 7.59416 43.2542C7.69834 43.1397 7.8304 43.0543 7.97744 43.0061C8.10151 42.9619 8.23348 42.9444 8.36478 42.9545C8.49608 42.9647 8.62377 43.0024 8.73954 43.0652C8.86368 43.13 8.97373 43.2188 9.06335 43.3264C9.15296 43.434 9.22036 43.5583 9.26163 43.6921C9.29722 43.7957 9.31949 43.9034 9.3279 44.0127C9.3337 44.117 9.3295 44.2217 9.31537 44.3252C9.29982 44.4093 9.29982 44.4955 9.31537 44.5795C9.32017 44.5989 9.32916 44.6169 9.34169 44.6324C9.35422 44.6478 9.37 44.6604 9.3879 44.6691C9.45658 44.6848 9.52789 44.6848 9.59656 44.6691L9.61985 44.7389Z" fill="#F49020"/>
<path d="M8.3285 48.09L7.79835 46.9885L7.43297 47.0028C7.33647 47.0032 7.24096 47.0224 7.15178 47.0592C7.11195 47.0757 7.07751 47.1029 7.05235 47.1379C7.02719 47.1728 7.01231 47.2142 7.00939 47.2571C7.01985 47.3719 7.05015 47.484 7.09894 47.5885L7.00939 47.6288L6.51953 46.5944L6.60908 46.5533C6.67221 46.6516 6.76697 46.7255 6.87774 46.7628C7.07351 46.8053 7.27446 46.8189 7.47417 46.8031L10.4894 46.7252L10.51 46.7691L8.49597 49.1145C8.30522 49.3375 8.19596 49.4978 8.16641 49.5972C8.14427 49.6838 8.15216 49.7753 8.1888 49.8569L8.10462 49.8972L7.38282 48.3927L7.467 48.3524L7.49655 48.4142C7.53155 48.5055 7.59142 48.5852 7.66939 48.6443C7.68932 48.6551 7.71164 48.6608 7.73432 48.6608C7.75699 48.6608 7.77931 48.6551 7.79924 48.6443C7.82795 48.6304 7.85426 48.6119 7.87715 48.5897C7.88969 48.5798 7.93626 48.5297 8.01686 48.4383L8.3285 48.09ZM8.46104 47.9306L9.31 46.9536L8.00969 46.9903L8.46104 47.9306Z" fill="#F49020"/>
<path d="M12.8058 50.9029L12.7261 50.9522C12.6355 50.8528 12.5122 50.7893 12.3787 50.773C12.1523 50.7641 11.9256 50.7794 11.7025 50.8187L8.83685 51.2002L8.79297 51.1295L10.4945 48.6766C10.6261 48.5045 10.7412 48.3204 10.8384 48.1268C10.8576 48.027 10.8394 47.9238 10.7873 47.8366L10.867 47.7865L11.7393 49.1915L11.6596 49.2408L11.63 49.1933C11.5825 49.0995 11.5103 49.0202 11.4213 48.9641C11.4014 48.9542 11.3792 48.9499 11.357 48.9514C11.3348 48.953 11.3134 48.9605 11.2951 48.973C11.2646 48.9935 11.2374 49.0186 11.2145 49.0474C11.1858 49.0814 11.116 49.179 11.0022 49.3411L9.92761 50.8716L11.5861 50.6441C11.7858 50.6154 11.9175 50.5922 11.9811 50.5751C12.0338 50.5621 12.0845 50.5416 12.1315 50.5142C12.1715 50.489 12.2028 50.4522 12.2211 50.4086C12.2403 50.3615 12.2447 50.3096 12.2336 50.2599C12.2115 50.164 12.1721 50.0729 12.1172 49.9912L12.1969 49.9411L12.8058 50.9029Z" fill="#F49020"/>
<path d="M11.3117 54.3802L11.2374 54.4375L10.135 53.0047L10.2102 52.9474L10.2801 53.0369C10.3282 53.1059 10.3937 53.1609 10.4699 53.1963C10.5205 53.2167 10.5766 53.2186 10.6284 53.2017C10.7264 53.158 10.8171 53.0994 10.8971 53.028L12.6935 51.6417C12.7858 51.5797 12.8682 51.5043 12.938 51.4178C12.9628 51.3682 12.9707 51.3119 12.9604 51.2575C12.946 51.1788 12.9111 51.1052 12.8592 51.0444L12.7894 50.9548L12.8637 50.8975L13.9661 52.3303L13.8909 52.3877L13.821 52.2981C13.7731 52.2291 13.7076 52.1744 13.6312 52.1396C13.5802 52.1187 13.5236 52.1158 13.4709 52.1315C13.3728 52.1748 13.2822 52.2331 13.2022 52.3044L11.4049 53.6906C11.3128 53.7532 11.2307 53.8293 11.1613 53.9163C11.1368 53.9663 11.1293 54.0229 11.1398 54.0775C11.154 54.156 11.189 54.2293 11.241 54.2898L11.3117 54.3802Z" fill="#F49020"/>
<path d="M14.8176 53.2983L14.4343 56.0055L15.509 54.9855C15.6585 54.8431 15.74 54.7258 15.7517 54.6326C15.7678 54.5055 15.7078 54.3738 15.5726 54.2368L15.6406 54.1723L16.4242 54.9998L16.3561 55.0652C16.2812 54.9962 16.1948 54.9408 16.1009 54.9013C16.0392 54.8859 15.9742 54.8909 15.9155 54.9156C15.811 54.9676 15.7164 55.0377 15.6361 55.1225L13.5505 57.0971L13.4913 57.0345L13.9731 53.3628L12.38 54.8709C12.2367 55.007 12.1707 55.1321 12.1821 55.2461C12.1932 55.3584 12.2421 55.4635 12.3209 55.5443L12.3764 55.6034L12.3084 55.6679L11.4666 54.7795L11.5355 54.7141C11.6669 54.8509 11.7863 54.9201 11.8937 54.9219C12.0012 54.9237 12.1206 54.8616 12.2519 54.7356L14.0197 53.0619L14.0358 52.9455C14.0536 52.8568 14.0536 52.7655 14.0358 52.6768C14.007 52.6026 13.9635 52.5349 13.9078 52.478L13.9767 52.4135L14.8176 53.2983Z" fill="#F49020"/>
<path d="M19.2362 57.1724L18.475 58.1198L18.4016 58.0607C18.5183 57.7718 18.5448 57.4543 18.4777 57.15C18.4174 56.8861 18.2697 56.6504 18.0586 56.481C17.8814 56.3284 17.6548 56.2453 17.421 56.2473C17.1799 56.2593 16.9483 56.3449 16.7574 56.4927C16.5387 56.651 16.3423 56.8381 16.1735 57.0488C15.9853 57.2752 15.8325 57.5288 15.7204 57.801C15.6273 58.0101 15.6099 58.245 15.6711 58.4655C15.7396 58.6742 15.8698 58.8572 16.0446 58.9903C16.1118 59.0438 16.1841 59.0906 16.2604 59.13C16.3437 59.1718 16.4299 59.2077 16.5183 59.2375L16.9661 58.6778C17.0267 58.6126 17.0753 58.5371 17.1094 58.4548C17.1185 58.4015 17.1107 58.3467 17.087 58.2981C17.057 58.2306 17.0105 58.1718 16.9517 58.127L16.8819 58.0715L16.941 57.9981L18.2485 59.0476L18.1894 59.1211C18.1177 59.0649 18.0364 59.0224 17.9494 58.9957C17.8904 58.9855 17.8296 58.9959 17.7774 59.0252C17.7128 59.0723 17.6565 59.1298 17.6108 59.1954L17.1631 59.7551C16.9293 59.6931 16.7026 59.6067 16.487 59.4972C16.2646 59.3839 16.0545 59.248 15.8601 59.0915C15.6401 58.9242 15.4546 58.7159 15.3138 58.4781C15.204 58.2812 15.1275 58.0676 15.0872 57.8458C15.0489 57.6385 15.0504 57.4257 15.0917 57.2189C15.1496 56.9527 15.2706 56.7042 15.4446 56.4945C15.5946 56.2997 15.7836 56.1384 15.9995 56.0207C16.2153 55.9031 16.4533 55.8317 16.6983 55.8112C16.9509 55.7863 17.206 55.8127 17.4482 55.8887C17.6904 55.9647 17.9148 56.0888 18.1079 56.2536C18.2298 56.3498 18.342 56.4578 18.4428 56.576C18.5217 56.6756 18.5921 56.7816 18.6532 56.893C18.7013 56.9851 18.7586 57.0721 18.8243 57.1527C18.863 57.1828 18.9114 57.1978 18.9604 57.1948C19.0363 57.1847 19.1086 57.1561 19.1709 57.1115L19.2362 57.1724Z" fill="#F49020"/>
<path d="M23.5415 59.7847L23.4967 59.8671C23.4096 59.8286 23.3134 59.8153 23.2191 59.8286C23.1107 59.8501 22.8994 59.9567 22.5868 60.1465L21.3331 60.8827L20.9301 61.6125C20.8706 61.7069 20.825 61.8095 20.7949 61.917C20.7932 61.9711 20.8078 62.0245 20.837 62.0701C20.8792 62.134 20.9376 62.1856 21.0062 62.2197L21.1764 62.3092L21.1307 62.3916L19.4292 61.4621L19.474 61.3797L19.6325 61.4692C19.7042 61.5134 19.7865 61.5376 19.8707 61.5391C19.9256 61.5375 19.9784 61.5173 20.0202 61.4818C20.0938 61.4023 20.1543 61.3116 20.1994 61.2131L20.5316 60.6059V58.9197C20.5316 58.5865 20.5146 58.3814 20.4806 58.3044C20.4397 58.2188 20.3712 58.1495 20.2862 58.1074L20.3319 58.0241L21.7827 58.8185L21.737 58.9008L21.6725 58.8659C21.6117 58.8254 21.5405 58.8034 21.4674 58.8023C21.4485 58.8027 21.4299 58.8077 21.4132 58.8167C21.3966 58.8257 21.3823 58.8386 21.3716 58.8543C21.3423 58.908 21.328 59.0752 21.3286 59.3558V60.657L22.3728 60.0426C22.6307 59.894 22.78 59.7829 22.8206 59.7095C22.832 59.6894 22.8379 59.6668 22.8379 59.6437C22.8379 59.6206 22.832 59.5979 22.8206 59.5779C22.7604 59.4844 22.6767 59.4084 22.5779 59.3576L22.6236 59.2752L23.5415 59.7847Z" fill="#F49020"/>
<path d="M25.3347 60.4214C25.8559 60.5969 26.2171 60.9044 26.4183 61.3438C26.517 61.5595 26.5704 61.7933 26.575 62.0305C26.5796 62.2678 26.5354 62.5035 26.4452 62.7229C26.3042 63.1182 26.0321 63.4532 25.6741 63.6722C25.2001 63.9641 24.6741 64.0002 24.0962 63.7805C23.5183 63.5608 23.1442 63.1936 22.9741 62.679C22.8414 62.2707 22.857 61.8287 23.018 61.4306C23.0966 61.2058 23.2211 60.9997 23.3836 60.8255C23.5461 60.6513 23.743 60.5128 23.9618 60.4187C24.1777 60.3215 24.4118 60.2715 24.6486 60.2719C24.8853 60.2724 25.1192 60.3234 25.3347 60.4214ZM25.306 60.5844C25.0105 60.4727 24.7287 60.5381 24.4607 60.7805C24.2422 60.9805 24.0448 61.3118 23.8687 61.7745C23.658 62.3232 23.6001 62.7665 23.695 63.1044C23.7249 63.2181 23.7827 63.3226 23.8633 63.4083C23.9438 63.494 24.0445 63.5583 24.1562 63.5951C24.2996 63.656 24.4589 63.6689 24.6102 63.6319C24.8131 63.5672 24.9915 63.4423 25.1216 63.2736C25.3152 63.0243 25.4665 62.7447 25.5693 62.4462C25.7317 62.0199 25.8135 61.6859 25.8147 61.4441C25.8268 61.2473 25.7804 61.0513 25.6813 60.8808C25.5911 60.7444 25.4596 60.6405 25.306 60.5844Z" fill="#F49020"/>
<path d="M27.1843 61.1593L28.9253 61.556L28.9038 61.6455L28.8142 61.6258C28.7242 61.5977 28.6289 61.5907 28.5357 61.6052C28.4837 61.6199 28.438 61.6514 28.4058 61.6948C28.3511 61.8062 28.313 61.9251 28.293 62.0476L27.916 63.6945C27.8479 63.9954 27.8264 64.1996 27.8479 64.307C27.8739 64.4197 27.9325 64.5221 28.0163 64.6017C28.1206 64.6976 28.2496 64.7624 28.3888 64.7888C28.5515 64.831 28.7229 64.8251 28.8823 64.7718C29.0281 64.7211 29.1552 64.6275 29.2467 64.5032C29.3435 64.3733 29.433 64.1306 29.5154 63.7733L29.8288 62.4023C29.8607 62.2943 29.8698 62.1808 29.8557 62.0691C29.844 62.0071 29.8126 61.9506 29.7662 61.9079C29.677 61.8419 29.5737 61.7978 29.4644 61.779L29.485 61.6894L30.6491 61.9581L30.6285 62.0476L30.5587 62.0315C30.4776 62.0089 30.3918 62.0089 30.3106 62.0315C30.2362 62.0557 30.1727 62.1055 30.1315 62.1721C30.0833 62.2584 30.0503 62.3523 30.0339 62.4497L29.742 63.7267C29.6872 64.0168 29.5951 64.2985 29.4679 64.565C29.3524 64.7477 29.1795 64.8869 28.9763 64.9608C28.7411 65.0623 28.4491 65.073 28.1005 64.993C27.8672 64.9522 27.6459 64.8604 27.4521 64.7244C27.2791 64.5967 27.1511 64.4173 27.0867 64.2121C27.0354 63.9816 27.0419 63.7419 27.1055 63.5145L27.4817 61.8676C27.5173 61.7483 27.5342 61.6241 27.5318 61.4996C27.5186 61.4447 27.487 61.396 27.4423 61.3616C27.357 61.3055 27.2604 61.2691 27.1593 61.2551L27.1843 61.1593Z" fill="#F49020"/>
<path d="M35.0089 62.2797L34.9569 63.2119L34.8674 63.2075C34.8434 63.0419 34.7913 62.8817 34.7133 62.7337C34.6489 62.6327 34.5595 62.55 34.4536 62.4937C34.3473 62.4504 34.2335 62.4285 34.1187 62.4292L33.8599 62.4185L33.7121 65.0755C33.6989 65.1859 33.7028 65.2977 33.7238 65.4069C33.746 65.4579 33.7836 65.5008 33.8312 65.5296C33.901 65.5696 33.98 65.5909 34.0605 65.5914L34.1751 65.5976L34.1698 65.6872L32.3662 65.5869L32.3715 65.4973L32.4862 65.5045C32.5698 65.5126 32.6541 65.4987 32.7306 65.4642C32.7796 65.4389 32.8187 65.3979 32.8417 65.3478C32.8729 65.2447 32.8883 65.1375 32.8874 65.0299L33.0342 62.3728L32.7853 62.3585C32.553 62.346 32.382 62.3857 32.2721 62.4776C32.1062 62.6271 31.996 62.8286 31.9596 63.0489L31.8638 63.0436L31.9148 62.1113L35.0089 62.2797Z" fill="#F49020"/>
<path d="M37.1161 65.533V65.6271L35.3134 65.6978V65.6083L35.428 65.6038C35.5118 65.6044 35.5943 65.5828 35.6671 65.5411C35.7135 65.5118 35.7481 65.4671 35.7647 65.4148C35.786 65.309 35.7911 65.2006 35.7799 65.0933L35.6904 62.8258C35.6929 62.7146 35.679 62.6035 35.6492 62.4963C35.6232 62.4475 35.582 62.4085 35.5319 62.3852C35.4593 62.3521 35.3794 62.3382 35.2999 62.3449H35.1853V62.2554L36.988 62.1846V62.2742L36.8734 62.2787C36.7895 62.278 36.707 62.2997 36.6343 62.3414C36.5877 62.3709 36.5526 62.4154 36.5349 62.4676C36.5131 62.5734 36.508 62.6818 36.5196 62.7891L36.6092 65.0566C36.6068 65.1679 36.621 65.279 36.6513 65.3862C36.6785 65.4346 36.7202 65.4734 36.7704 65.4972C36.8429 65.5304 36.9228 65.5443 37.0023 65.5375L37.1161 65.533Z" fill="#F49020"/>
<path d="M39.7792 64.1263L40.3398 61.7316L41.7261 61.5069L41.7413 61.5964L41.6303 61.6143C41.5464 61.6233 41.4665 61.6542 41.3983 61.7039C41.3573 61.7386 41.3287 61.7858 41.3168 61.8382C41.308 61.945 41.3159 62.0526 41.3401 62.157L41.7037 64.4021C41.7141 64.5127 41.7413 64.6211 41.7843 64.7236C41.816 64.7696 41.8625 64.8033 41.9159 64.8194C41.9923 64.8443 42.0738 64.8486 42.1524 64.832L42.2625 64.8141L42.2777 64.9036L40.4992 65.1911L40.4849 65.1015L40.595 65.0836C40.6791 65.0746 40.7594 65.0437 40.8279 64.9941C40.8687 64.9582 40.897 64.9102 40.9085 64.857C40.9173 64.7496 40.9094 64.6415 40.8852 64.5364L40.4777 62.0164L39.6717 65.3299L39.6109 65.3388L37.7858 62.4731L38.1744 64.8714C38.1872 64.975 38.2082 65.0774 38.2371 65.1776C38.2719 65.2564 38.3339 65.32 38.4117 65.3567C38.5258 65.4015 38.6509 65.4099 38.7699 65.3809L38.7852 65.4705L37.621 65.6594L37.6058 65.5699L37.6407 65.5645C37.7131 65.5551 37.7829 65.531 37.8458 65.4938C37.9005 65.4639 37.946 65.4196 37.9774 65.3657C38.0065 65.3042 38.023 65.2375 38.0258 65.1696C38.0258 65.1508 38.0141 65.0648 37.989 64.9126L37.6398 62.7579C37.6291 62.6486 37.6022 62.5414 37.5601 62.44C37.5282 62.3948 37.4822 62.3614 37.4293 62.3451C37.3526 62.3206 37.2708 62.3166 37.192 62.3334L37.0846 62.3505L37.0693 62.2609L38.461 62.0352L39.7792 64.1263Z" fill="#F49020"/>
<path d="M43.043 61.24L43.4693 62.5779L43.5346 62.5573C43.7436 62.491 43.8737 62.3773 43.9251 62.2161C43.9774 62.0071 43.9756 61.7883 43.9197 61.5803L44.0093 61.5507L44.5582 63.271L44.4687 63.3006C44.4062 63.1447 44.3151 63.0019 44.2 62.8797C44.123 62.7924 44.0201 62.7322 43.9063 62.7077C43.778 62.6964 43.6488 62.7141 43.5284 62.7597L43.823 63.6856C43.8528 63.7988 43.8961 63.9079 43.952 64.0107C43.9824 64.0469 44.024 64.0721 44.0702 64.0824C44.1431 64.0925 44.2175 64.0836 44.286 64.0564L44.4821 63.9937C44.7525 63.9335 44.9906 63.7745 45.1499 63.5479C45.3093 63.3213 45.3783 63.0434 45.3436 62.7686L45.4332 62.74L45.6176 63.8316L42.777 64.737L42.7484 64.6474L42.8576 64.6125C42.9385 64.5907 43.0123 64.5481 43.0716 64.4889C43.1083 64.4482 43.1295 64.3959 43.1316 64.3412C43.1244 64.2337 43.1006 64.1279 43.0609 64.0277L42.3713 61.865C42.3453 61.773 42.3121 61.6832 42.2719 61.5964C42.2416 61.5478 42.1949 61.5116 42.1403 61.4943C42.0503 61.4689 41.9545 61.4733 41.8672 61.5068L41.7579 61.5418L41.7292 61.4522L44.4803 60.5755L44.7902 61.5471L44.7006 61.5767C44.618 61.4014 44.4953 61.248 44.3424 61.1289C44.2125 61.0494 44.062 61.0101 43.9099 61.0161C43.7312 61.0327 43.5554 61.0725 43.3869 61.1343L43.043 61.24Z" fill="#F49020"/>
<path d="M49.2172 59.8609L50.1495 59.3612L50.1969 59.4507C50.1127 59.5075 50.0448 59.5853 49.9999 59.6764C49.9556 59.8232 49.9366 59.9764 49.9435 60.1295C49.9351 60.396 49.9034 60.6612 49.8486 60.9221C50.0205 60.9701 50.197 61.0002 50.3751 61.0116C50.454 61.0146 50.5323 60.9974 50.6026 60.9615C50.7128 60.9024 50.7746 60.7761 50.7862 60.5827H50.9044C50.9211 60.8299 50.8813 61.0776 50.788 61.3071C50.7228 61.4396 50.6171 61.5478 50.4862 61.6161C50.3711 61.6783 50.2434 61.7135 50.1128 61.7191C49.931 61.72 49.7501 61.695 49.5754 61.6448C49.4734 61.8457 49.3454 62.0323 49.1948 62.2C49.0598 62.3446 48.9015 62.4657 48.7265 62.5582C48.4429 62.7104 48.176 62.7546 47.9259 62.6907C47.8114 62.6662 47.7036 62.6171 47.6101 62.5467C47.5165 62.4764 47.4394 62.3865 47.3841 62.2833C47.3243 62.1749 47.2869 62.0557 47.2742 61.9326C47.2614 61.8095 47.2735 61.6851 47.3097 61.5668C47.4064 61.2684 47.5651 60.9937 47.7754 60.7609C47.6887 60.6889 47.6084 60.6095 47.5354 60.5236C47.469 60.4452 47.4108 60.3603 47.3617 60.2701C47.2991 60.1598 47.2607 60.0374 47.249 59.9112C47.2372 59.7849 47.2524 59.6575 47.2936 59.5376C47.3812 59.282 47.5668 59.0716 47.8095 58.9528C47.9848 58.846 48.1929 58.8066 48.3951 58.8417C48.4751 58.8547 48.5512 58.8856 48.6176 58.9321C48.6839 58.9787 48.7389 59.0396 48.7784 59.1104C48.8232 59.1918 48.8502 59.2818 48.8576 59.3745C48.865 59.4671 48.8527 59.5602 48.8214 59.6477C48.7252 59.8907 48.5818 60.1123 48.3996 60.2997C48.7937 60.5367 49.2146 60.7261 49.6533 60.8639C49.7405 60.4991 49.7369 60.2286 49.6426 60.0525C49.6271 60.0225 49.6057 59.9959 49.5797 59.9744C49.5537 59.9528 49.5236 59.9368 49.4913 59.9271C49.4134 59.9072 49.3311 59.9152 49.2584 59.9495L49.2172 59.8609ZM48.2527 60.2056C48.3538 60.1064 48.4281 59.9832 48.4686 59.8474C48.4862 59.7498 48.469 59.649 48.4202 59.5626C48.3437 59.4082 48.2175 59.284 48.062 59.2098C48.0193 59.1874 47.9718 59.1758 47.9236 59.1758C47.8754 59.1758 47.828 59.1874 47.7853 59.2098C47.7512 59.2281 47.7214 59.2537 47.6981 59.2846C47.6747 59.3155 47.6583 59.3511 47.65 59.3889C47.6299 59.4809 47.6459 59.5771 47.6948 59.6576C47.7387 59.7366 47.7932 59.8092 47.8569 59.8734C47.9819 59.9922 48.1141 60.1031 48.2527 60.2056ZM47.9169 60.871C47.8404 60.9568 47.7835 61.0583 47.7503 61.1683C47.7244 61.2823 47.7403 61.4018 47.7951 61.5051C47.8767 61.6535 47.9967 61.7772 48.1426 61.8633C48.2842 61.953 48.4444 62.0094 48.611 62.028C48.7506 62.0452 48.8922 62.0202 49.0175 61.9564C49.082 61.9195 49.1401 61.8723 49.1895 61.8167C49.2541 61.7438 49.3117 61.665 49.3614 61.5812C48.8445 61.4245 48.3566 61.1847 47.9169 60.871Z" fill="#F49020"/>
<path d="M54.0238 57.562L53.2743 55.2193L54.3489 54.3148L54.4098 54.3864L54.3202 54.459C54.2529 54.5103 54.2003 54.5786 54.168 54.6569C54.1513 54.7078 54.1513 54.7627 54.168 54.8136C54.215 54.9099 54.277 54.9981 54.3516 55.0751L55.8176 56.8142C55.8833 56.9036 55.9621 56.9827 56.0513 57.0488C56.1021 57.0718 56.1592 57.0771 56.2134 57.0641C56.2916 57.0456 56.3637 57.0073 56.4229 56.953L56.508 56.8805L56.5689 56.9521L55.1916 58.1163L55.1307 58.0447L55.2202 57.973C55.2877 57.9214 55.3402 57.8528 55.3725 57.7742C55.39 57.7228 55.39 57.6671 55.3725 57.6157C55.3248 57.5188 55.2622 57.43 55.1871 57.3524L53.5402 55.3975L54.5531 58.6572L54.5065 58.6966L51.4662 57.1742L53.0325 59.0315C53.0969 59.1138 53.1675 59.1911 53.2438 59.2626C53.314 59.3133 53.4003 59.3368 53.4865 59.3288C53.6066 59.3081 53.7174 59.2512 53.8044 59.1659L53.8644 59.2384L52.9617 59.9987L52.9017 59.9271L52.9286 59.9038C52.9859 59.8586 53.0335 59.8022 53.0683 59.7381C53.1002 59.6839 53.1163 59.6219 53.1149 59.559C53.1085 59.4912 53.0884 59.4253 53.0557 59.3656C53.0459 59.3494 52.9922 59.2823 52.8928 59.1641L51.4859 57.493C51.4203 57.4048 51.3421 57.3267 51.2539 57.2611C51.203 57.2396 51.1465 57.2349 51.0927 57.2476C51.0146 57.2661 50.9424 57.3044 50.8832 57.3587L50.7999 57.4294L50.739 57.3569L51.8136 56.4488L54.0238 57.562Z" fill="#F49020"/>
<path d="M55.5432 52.8102C55.8883 52.381 56.3017 52.1484 56.7835 52.1126C57.0201 52.094 57.2579 52.1241 57.4824 52.2011C57.7068 52.2782 57.913 52.4004 58.0883 52.5604C58.408 52.8288 58.6268 53.198 58.7089 53.6073C58.82 54.1529 58.6728 54.6604 58.2674 55.1297C57.862 55.5989 57.3889 55.8237 56.848 55.804C56.4189 55.788 56.0092 55.6212 55.691 55.3329C55.5067 55.1819 55.3558 54.9942 55.2479 54.7818C55.14 54.5694 55.0774 54.3368 55.0641 54.0989C55.0476 53.8624 55.0818 53.625 55.1644 53.4028C55.247 53.1806 55.3762 52.9785 55.5432 52.8102ZM55.6865 52.8935C55.4793 53.1323 55.4438 53.4192 55.5799 53.7541C55.6922 54.0282 55.9355 54.3267 56.3098 54.6497C56.754 55.0347 57.1504 55.2416 57.499 55.2703C57.6165 55.2806 57.7348 55.2615 57.843 55.2145C57.9512 55.1676 58.046 55.0944 58.1188 55.0016C58.2246 54.8871 58.2911 54.7419 58.3086 54.587C58.3172 54.3736 58.2597 54.1628 58.1438 53.9834C57.9762 53.7161 57.766 53.478 57.5214 53.2786C57.177 52.9801 56.8913 52.7884 56.6644 52.7037C56.4838 52.6242 56.2837 52.6002 56.0895 52.6347C55.9308 52.6754 55.7895 52.7662 55.6865 52.8935Z" fill="#F49020"/>
<path d="M57.5166 50.3413L60.2381 50.0834L58.996 49.2774C58.8223 49.1646 58.6889 49.113 58.5957 49.1225C58.4686 49.1377 58.3548 49.2255 58.2527 49.3912L58.1739 49.3392L58.7963 48.3846L58.8751 48.4356C58.8252 48.5246 58.7912 48.6216 58.7748 48.7222C58.7741 48.7867 58.7945 48.8496 58.833 48.9013C58.9082 48.9917 58.9993 49.0675 59.1017 49.1252L61.5044 50.687L61.4578 50.7595L57.7772 51.1455L59.6148 52.3428C59.7805 52.4512 59.9175 52.487 60.0259 52.4485C60.1324 52.4118 60.2231 52.3397 60.2829 52.2443L60.3277 52.1763L60.4065 52.2273L59.7384 53.2527L59.6596 53.2017C59.7617 53.0414 59.8011 52.9097 59.7778 52.8049C59.7545 52.7002 59.6668 52.599 59.5092 52.4987L57.47 51.1688L57.3527 51.1813C57.2637 51.1848 57.1763 51.2061 57.0957 51.244C57.0263 51.2908 56.9677 51.3518 56.9238 51.4231L56.845 51.3712L57.5166 50.3413Z" fill="#F49020"/>
<path d="M59.5753 47.216L60.8389 47.8276L60.8694 47.7658C60.9643 47.5688 60.9715 47.3963 60.8909 47.2482C60.7753 47.066 60.615 46.9165 60.4252 46.8139L60.4673 46.7243L62.0936 47.5106L62.0515 47.6002C61.8951 47.5387 61.7287 47.5066 61.5607 47.5052C61.4442 47.5019 61.3296 47.5351 61.233 47.6002C61.137 47.6862 61.0611 47.7923 61.0109 47.9109L61.8858 48.3336C61.9881 48.3903 62.097 48.4342 62.21 48.4644C62.2572 48.4675 62.3041 48.4549 62.3434 48.4285C62.4006 48.3821 62.4452 48.322 62.4733 48.2539L62.5628 48.0676C62.7049 47.83 62.7533 47.548 62.6987 47.2766C62.644 47.0053 62.4902 46.764 62.2673 46.5999L62.3076 46.5103L63.2246 47.1318L61.9261 49.8184L61.8419 49.7781L61.8912 49.6742C61.9312 49.6007 61.951 49.5179 61.9485 49.4342C61.9445 49.3797 61.9213 49.3283 61.8831 49.2891C61.8 49.2202 61.7066 49.1646 61.6064 49.1244L59.5637 48.1393C59.4787 48.0944 59.3904 48.056 59.2995 48.0247C59.2433 48.014 59.1852 48.0228 59.1347 48.0497C59.0542 48.0979 58.9914 48.1708 58.9556 48.2575L58.9082 48.3587L58.824 48.3175L60.0777 45.7205L60.9956 46.1682L60.9535 46.2578C60.7689 46.1972 60.5725 46.1809 60.3804 46.2103C60.2332 46.2498 60.1011 46.3321 60.0007 46.4467C59.8894 46.5874 59.7973 46.7422 59.7267 46.907L59.5753 47.216Z" fill="#F49020"/>
<path d="M61.4158 41.9163L61.5054 41.9458C61.4827 42.0385 61.4867 42.1357 61.517 42.2261C61.5576 42.3294 61.6991 42.5181 61.9415 42.7921L62.889 43.8972L63.6806 44.1658C63.784 44.2077 63.8929 44.2342 64.0039 44.2446C64.058 44.2373 64.1084 44.2132 64.1481 44.1757C64.2036 44.1233 64.2439 44.0567 64.2645 43.9831L64.3263 43.7996L64.4158 43.8291L63.8015 45.6649L63.712 45.6354L63.7693 45.4643C63.8 45.3861 63.8089 45.301 63.7952 45.2181C63.7842 45.1641 63.7552 45.1155 63.7129 45.0802C63.6214 45.0227 63.5218 44.9795 63.4173 44.9521L62.7609 44.7327L61.1024 45.0336C60.7746 45.0933 60.5755 45.1467 60.5051 45.1939C60.4285 45.2491 60.3724 45.3282 60.3457 45.4187L60.2561 45.3891L60.7809 43.8211L60.8704 43.8506L60.8463 43.9205C60.8172 43.9875 60.8085 44.0616 60.8212 44.1336C60.8243 44.1529 60.8322 44.1712 60.8441 44.1868C60.8559 44.2024 60.8714 44.2149 60.8892 44.2231C60.9466 44.242 61.114 44.2231 61.3898 44.1757L62.6714 43.9473L61.8815 43.0213C61.689 42.7939 61.5537 42.6676 61.4749 42.6407C61.4528 42.6338 61.4292 42.6326 61.4065 42.6373C61.3838 42.642 61.3626 42.6524 61.3451 42.6676C61.2636 42.7431 61.2036 42.8389 61.1713 42.9452L61.0818 42.9148L61.4158 41.9163Z" fill="#F49020"/>
<path d="M6.49803 26.2623L7.71058 26.6635C7.94431 26.7405 8.09655 26.7754 8.1664 26.7665C8.24145 26.7552 8.31037 26.7185 8.36163 26.6626C8.44987 26.5477 8.51385 26.4161 8.54969 26.2757L8.6679 26.3142L7.93625 28.5289L7.81804 28.4895C7.87364 28.3547 7.90048 28.2098 7.89685 28.0641C7.88717 27.9895 7.85355 27.92 7.80102 27.8662C7.75088 27.8178 7.60938 27.7551 7.37475 27.6781L4.56727 26.7494C4.33353 26.6724 4.18129 26.6375 4.11144 26.6465C4.03632 26.6575 3.96734 26.6942 3.91622 26.7503C3.82789 26.8642 3.76388 26.9949 3.72815 27.1345L3.61084 27.0951L4.27532 25.0855C4.44846 24.5626 4.61115 24.1918 4.76339 23.9733C4.90859 23.7605 5.11735 23.5991 5.35981 23.5121C5.60564 23.4243 5.87429 23.4243 6.12011 23.5121C6.27031 23.5575 6.40876 23.6352 6.52572 23.7398C6.64268 23.8443 6.73532 23.9733 6.79714 24.1175C6.88487 24.3454 6.91561 24.5914 6.88669 24.8339L8.69476 24.2787C8.84967 24.2365 8.99975 24.1783 9.14253 24.1049C9.23807 24.039 9.31093 23.9452 9.35119 23.8363L9.4694 23.8757L9.02163 25.2378L6.58937 25.9793L6.49803 26.2623ZM4.37741 25.5611L6.27146 26.1879L6.33236 26.0088C6.41597 25.7878 6.46256 25.5546 6.47027 25.3184C6.46457 25.1542 6.40115 24.9972 6.29116 24.8751C6.15112 24.7281 5.97423 24.6214 5.77892 24.5661C5.44936 24.4569 5.1807 24.4533 4.97294 24.5554C4.76518 24.6575 4.60458 24.8799 4.49115 25.2226L4.37741 25.5611Z" fill="white"/>
<path d="M10.4608 21.7784L10.5727 21.833L9.53032 23.9751L9.41927 23.9205L9.48465 23.7844C9.53769 23.687 9.56396 23.5773 9.56077 23.4665C9.55457 23.3942 9.52282 23.3266 9.47121 23.2757C9.36177 23.1844 9.23881 23.1107 9.10673 23.0572L6.41119 21.7461C6.28329 21.6744 6.14577 21.6213 6.00283 21.5885C5.92952 21.5888 5.85826 21.6127 5.79954 21.6566C5.71545 21.72 5.64939 21.8043 5.6079 21.9011L5.54163 22.0372L5.42969 21.9826L6.47477 19.8405L6.58671 19.8951L6.52044 20.0312C6.46807 20.1288 6.44184 20.2384 6.44432 20.3491C6.45153 20.4221 6.48307 20.4905 6.53388 20.5434C6.64273 20.6342 6.76472 20.7078 6.89567 20.762L9.59122 22.0721C9.71866 22.1451 9.85675 22.1977 10.0005 22.2279C10.0741 22.2272 10.1457 22.2031 10.2047 22.159C10.2887 22.0956 10.3548 22.0113 10.3963 21.9145L10.4608 21.7784Z" fill="white"/>
<path d="M9.26616 15.2366L10.5987 16.1321L10.5298 16.2351C10.0814 16.1157 9.6787 16.1157 9.32168 16.2351C8.98123 16.3445 8.68754 16.5653 8.48794 16.862C8.30573 17.1133 8.22193 17.4227 8.25242 17.7316C8.29468 18.0474 8.4332 18.3426 8.64914 18.5769C8.88197 18.8468 9.15005 19.0842 9.44616 19.2826C9.76533 19.5033 10.1158 19.6747 10.4859 19.7913C10.7716 19.8901 11.0827 19.8866 11.3662 19.7814C11.6332 19.6684 11.8595 19.4769 12.0154 19.2325C12.0783 19.1379 12.1316 19.0374 12.1748 18.9325C12.2213 18.8183 12.2588 18.7006 12.2868 18.5805L11.5005 18.0522C11.4077 17.9805 11.3031 17.9253 11.1916 17.8892C11.1206 17.8829 11.0494 17.8992 10.9883 17.9357C10.9028 17.9829 10.8307 18.051 10.7787 18.1337L10.7124 18.2313L10.6095 18.1614L11.8444 16.3238L11.9483 16.3936C11.8815 16.4937 11.8344 16.6055 11.8095 16.7232C11.8023 16.802 11.8229 16.8809 11.8677 16.9462C11.9366 17.0261 12.0187 17.0936 12.1104 17.1459L12.8966 17.6743C12.8419 17.989 12.7536 18.2971 12.6334 18.5931C12.509 18.8975 12.3535 19.1883 12.1695 19.4608C11.9739 19.7717 11.72 20.0418 11.4217 20.2561C11.1755 20.4231 10.9031 20.5478 10.6157 20.625C10.3479 20.6983 10.0687 20.7202 9.79273 20.6895C9.43606 20.6425 9.09584 20.5107 8.80048 20.3053C8.52831 20.13 8.29546 19.9001 8.11665 19.6302C7.93785 19.3603 7.81697 19.0562 7.76167 18.7372C7.63809 18.0757 7.77988 17.442 8.18705 16.836C8.3 16.6646 8.42926 16.5044 8.57302 16.3578C8.6959 16.2437 8.82766 16.1394 8.96705 16.0462C9.08296 15.9727 9.19099 15.8875 9.28944 15.7918C9.32525 15.7378 9.33961 15.6723 9.32974 15.6083C9.30862 15.5089 9.26272 15.4165 9.19631 15.3396L9.26616 15.2366Z" fill="white"/>
<path d="M13.1016 14.6097L14.1091 15.5947C14.2066 15.7048 14.3208 15.7988 14.4476 15.8732C14.5175 15.8958 14.5927 15.8958 14.6625 15.8732C14.7623 15.8394 14.8517 15.7805 14.9222 15.7022L15.0279 15.5938L15.1175 15.6834L13.4491 17.3849L13.3595 17.2953L13.4661 17.187C13.5471 17.1116 13.6068 17.0161 13.639 16.9103C13.6571 16.8405 13.6498 16.7665 13.6184 16.7016C13.5435 16.5803 13.4505 16.4713 13.3425 16.3783L11.2031 14.2801C11.105 14.1708 10.9912 14.0766 10.8655 14.0007C10.796 13.9776 10.7209 13.9776 10.6515 14.0007C10.5517 14.0346 10.4623 14.0935 10.3918 14.1717L10.2861 14.2801L10.1965 14.1905L11.8658 12.489L11.9554 12.5786L11.8497 12.6869C11.7683 12.7622 11.7084 12.8577 11.6759 12.9637C11.6577 13.0342 11.6643 13.1088 11.6948 13.175C11.7693 13.2965 11.8623 13.4056 11.9706 13.4983L12.8957 14.4028L14.0187 13.2538L13.098 12.3493C13 12.24 12.8862 12.1458 12.7604 12.0699C12.6907 12.0465 12.6152 12.0465 12.5455 12.0699C12.4455 12.1043 12.3559 12.1635 12.2849 12.2419L12.1792 12.3493L12.0897 12.2598L13.7563 10.5583L13.8458 10.6478L13.7428 10.7535C13.661 10.8284 13.601 10.924 13.5691 11.0302C13.5517 11.1008 13.5583 11.1752 13.5879 11.2416C13.6624 11.3631 13.7555 11.4721 13.8637 11.5648L16.0023 13.6649C16.1003 13.7742 16.2141 13.8684 16.3399 13.9443C16.4095 13.9682 16.4851 13.9682 16.5548 13.9443C16.6552 13.9107 16.745 13.8514 16.8154 13.7723L16.9193 13.6667L17.0088 13.7562L15.3422 15.4532L15.2527 15.3637L15.3557 15.258C15.437 15.1828 15.497 15.0873 15.5294 14.9813C15.5472 14.9107 15.5406 14.8362 15.5106 14.77C15.4361 14.6484 15.343 14.5394 15.2348 14.4467L14.2282 13.4616L13.1016 14.6097Z" fill="white"/>
<path d="M17.8457 7.57883L18.5621 8.58093L18.4636 8.65078C18.3013 8.50099 18.1148 8.37986 17.912 8.29256C17.7624 8.24195 17.6023 8.23084 17.4472 8.26033C17.3016 8.304 17.1661 8.37614 17.0487 8.47257L16.7728 8.67048L18.8236 11.5245C18.9015 11.6493 18.9982 11.7614 19.1102 11.8568C19.1751 11.8907 19.2491 11.9033 19.3215 11.8926C19.4271 11.8766 19.5266 11.8331 19.6099 11.7663L19.7326 11.6768L19.8051 11.778L17.8681 13.1696L17.7955 13.0693L17.9182 12.9798C18.011 12.9192 18.0861 12.8352 18.1358 12.7362C18.1658 12.6699 18.1722 12.5953 18.1538 12.5248C18.1008 12.3926 18.0277 12.2693 17.937 12.1595L15.8863 9.30541L15.6176 9.49795C15.3687 9.67705 15.2257 9.85974 15.1887 10.046C15.1412 10.3373 15.1953 10.6361 15.3418 10.8923L15.2379 10.9666L14.5215 9.96541L17.8457 7.57883Z" fill="white"/>
<path d="M22.7598 7.68902L23.3034 8.99201C23.3512 9.13082 23.4197 9.26157 23.5067 9.37978C23.5626 9.4277 23.6322 9.45684 23.7055 9.46306C23.8105 9.4706 23.9156 9.45118 24.0109 9.40664L24.1506 9.34843L24.199 9.46306L22.0004 10.3801L21.9521 10.2646L22.0918 10.2072C22.1962 10.1691 22.2889 10.1043 22.3604 10.0192C22.4036 9.96148 22.4254 9.89059 22.4222 9.81859C22.4001 9.67787 22.3567 9.54137 22.2933 9.41381L21.1389 6.64751C21.0909 6.50873 21.0227 6.37777 20.9365 6.25885C20.8819 6.20992 20.8127 6.18034 20.7395 6.17467C20.6345 6.16705 20.5293 6.1868 20.4342 6.23199L20.2945 6.2902L20.2461 6.17915L22.4446 5.26123L22.493 5.37676L22.3533 5.43497C22.2485 5.47243 22.1557 5.53739 22.0846 5.62303C22.0422 5.68017 22.0198 5.74976 22.021 5.82094C22.0422 5.96187 22.0857 6.09852 22.15 6.22572L22.6461 7.41678L24.1318 6.79707L23.6348 5.60601C23.5869 5.46716 23.5187 5.33618 23.4324 5.21735C23.3772 5.16891 23.3077 5.13968 23.2345 5.13407C23.1281 5.12747 23.0217 5.14812 22.9255 5.19407L22.7894 5.25138L22.7464 5.13407L24.9378 4.21794L24.9861 4.33257L24.8491 4.38988C24.7443 4.42727 24.6515 4.49224 24.5805 4.57794C24.5363 4.63566 24.5132 4.70678 24.5151 4.77944C24.5372 4.92015 24.5807 5.05666 24.644 5.18422L25.7975 7.95051C25.8455 8.08929 25.9137 8.22025 25.9999 8.33917C26.0549 8.38849 26.1249 8.41783 26.1987 8.42246C26.3043 8.4301 26.4101 8.41036 26.5058 8.36514L26.642 8.30783L26.6903 8.42335L24.4945 9.33858L24.4479 9.22395L24.584 9.16664C24.6891 9.12974 24.7821 9.06469 24.8527 8.97858C24.8962 8.92058 24.919 8.84959 24.9172 8.77709C24.896 8.63615 24.8525 8.4995 24.7882 8.37231L24.2455 7.07468L22.7598 7.68902Z" fill="white"/>
<path d="M27.9702 6.03057L28.2389 7.27805C28.2917 7.51894 28.3392 7.6676 28.3831 7.72581C28.431 7.78441 28.4972 7.82511 28.5712 7.84133C28.7151 7.85845 28.861 7.84626 29.0001 7.80551L29.027 7.92731L26.7487 8.42522L26.7228 8.30343C26.8694 8.28147 27.0097 8.22899 27.1347 8.1494C27.1934 8.1042 27.236 8.04144 27.2565 7.97029C27.2726 7.90313 27.2565 7.74909 27.2019 7.5082L26.5705 4.61922C26.5177 4.37922 26.4702 4.23056 26.4264 4.17145C26.379 4.11225 26.3125 4.0714 26.2383 4.05593C26.0944 4.03897 25.9486 4.05084 25.8093 4.09085L25.7825 3.96996L27.8511 3.51951C28.3885 3.4001 28.7906 3.35115 29.0574 3.37264C29.3144 3.38946 29.5594 3.48693 29.7577 3.65115C29.9591 3.81735 30.097 4.04793 30.1482 4.30399C30.1852 4.45658 30.1884 4.61544 30.1575 4.76938C30.1265 4.92333 30.0622 5.06862 29.9691 5.19504C29.8193 5.38817 29.6248 5.54187 29.4022 5.64281L30.801 6.91536C30.9165 7.02797 31.0435 7.12821 31.1798 7.21446C31.2847 7.26289 31.402 7.2779 31.5157 7.25745L31.5425 7.37924L30.141 7.68551L28.2604 5.97057L27.9702 6.03057ZM27.4929 3.85085L27.9192 5.80042L28.1064 5.76012C28.3393 5.71956 28.5638 5.64057 28.7709 5.52639C28.9095 5.43816 29.0123 5.30361 29.061 5.14668C29.1163 4.95166 29.1181 4.74536 29.0664 4.54937C28.9924 4.20966 28.8583 3.97653 28.6643 3.84996C28.4703 3.72339 28.1968 3.69802 27.844 3.77384L27.4929 3.85085Z" fill="white"/>
<path d="M36.1232 2.59697L36.1841 4.11937H36.047C35.9911 3.76826 35.8166 3.44687 35.5527 3.20862C35.3293 2.99448 35.032 2.87482 34.7225 2.87458C34.5255 2.86715 34.3331 2.93576 34.1852 3.06623C34.1236 3.11874 34.0741 3.18411 34.0404 3.25775C34.0067 3.33138 33.9895 3.41151 33.99 3.4925C33.9898 3.58728 34.0158 3.68027 34.0652 3.76116C34.1497 3.88334 34.2575 3.98771 34.3822 4.06833C34.6195 4.20995 34.8651 4.33734 35.1175 4.44982C35.6548 4.70355 36.0184 4.94505 36.2082 5.17431C36.3936 5.39797 36.4955 5.67906 36.4966 5.96954C36.5006 6.15564 36.4643 6.34041 36.3903 6.51121C36.3162 6.682 36.2062 6.83478 36.0676 6.9591C35.7632 7.24321 35.36 7.39742 34.9437 7.38895C34.807 7.3921 34.6703 7.37978 34.5363 7.35223C34.3713 7.31334 34.2099 7.26092 34.0536 7.19552C33.9689 7.15741 33.8777 7.13612 33.7849 7.13283C33.7196 7.1378 33.6573 7.16211 33.6058 7.20268C33.5357 7.25583 33.4823 7.32792 33.4518 7.41044H33.3273L33.2995 5.69013H33.4231C33.53 6.17312 33.7258 6.53909 34.0106 6.78805C34.2581 7.02167 34.5855 7.15175 34.9258 7.15164C35.1449 7.15979 35.3587 7.08276 35.5223 6.93671C35.6333 6.84068 35.7064 6.70817 35.7284 6.56303C35.7504 6.4179 35.7198 6.26968 35.6423 6.14506C35.5722 6.03397 35.4809 5.9378 35.3736 5.86207C35.1755 5.72863 34.9657 5.61353 34.7467 5.51819C34.4328 5.37952 34.1329 5.21098 33.8512 5.0149C33.6786 4.88738 33.5336 4.72623 33.4249 4.54117C33.3241 4.36362 33.2705 4.16322 33.2691 3.95907C33.2639 3.78505 33.2956 3.61189 33.3619 3.45094C33.4283 3.28998 33.5279 3.14485 33.6542 3.02503C33.7864 2.89489 33.9431 2.79232 34.1153 2.72329C34.2875 2.65427 34.4717 2.62015 34.6572 2.62294C34.8022 2.62056 34.9469 2.63651 35.0879 2.6704C35.2211 2.70544 35.3507 2.75312 35.4748 2.81279C35.5739 2.86742 35.6823 2.90297 35.7945 2.91757C35.82 2.91849 35.8455 2.91392 35.8691 2.90419C35.8927 2.89446 35.914 2.87979 35.9315 2.86115C35.9806 2.78248 36.0113 2.69368 36.0211 2.60145L36.1232 2.59697Z" fill="white"/>
<path d="M39.964 3.03946C40.6852 3.12483 41.2353 3.42334 41.6144 3.93499C41.8016 4.1864 41.9349 4.47369 42.0061 4.77892C42.0773 5.08415 42.0848 5.40077 42.0282 5.70903C41.9535 6.25628 41.6945 6.7617 41.2938 7.14188C40.7619 7.64875 40.092 7.8395 39.2843 7.71413C38.4765 7.58875 37.8926 7.21741 37.5326 6.60009C37.2491 6.10877 37.148 5.53323 37.2469 4.9747C37.287 4.66285 37.3913 4.36271 37.5533 4.09326C37.7153 3.82381 37.9315 3.59091 38.1881 3.40931C38.4408 3.22483 38.7299 3.0964 39.0361 3.03262C39.3424 2.96883 39.6587 2.97117 39.964 3.03946ZM39.9711 3.25797C39.5592 3.19409 39.2132 3.35588 38.9332 3.74335C38.7046 4.06216 38.5404 4.54455 38.4407 5.19052C38.3213 5.95889 38.3684 6.54755 38.5822 6.95651C38.6524 7.09521 38.7561 7.21426 38.8838 7.3029C39.0115 7.39155 39.1593 7.447 39.3138 7.46427C39.5158 7.5028 39.7249 7.47549 39.9102 7.38636C40.127 7.27532 40.3138 7.07233 40.4708 6.7774C40.6515 6.40199 40.7701 5.99974 40.8219 5.58635C40.9144 4.98933 40.9279 4.53529 40.8622 4.22425C40.7977 3.91171 40.6885 3.68066 40.5362 3.5329C40.3818 3.38366 40.1839 3.28738 39.9711 3.25797Z" fill="white"/>
<path d="M46.3601 7.88508L45.6848 9.34479L41.8538 8.04538L41.8941 7.92806L42.0364 7.97642C42.1398 8.01662 42.2519 8.02898 42.3615 8.01224C42.4323 7.99827 42.4958 7.95953 42.5406 7.90299C42.6176 7.78285 42.6753 7.65141 42.7117 7.51343L43.6744 4.6755C43.7297 4.53954 43.765 4.39624 43.7791 4.25012C43.7707 4.17773 43.7393 4.10995 43.6896 4.05669C43.6155 3.98103 43.5229 3.92607 43.4209 3.89728L43.2777 3.84892L43.3171 3.73071L45.6177 4.51072L45.5783 4.62893L45.3902 4.56535C45.2869 4.52485 45.1748 4.51249 45.0651 4.52953C44.995 4.54459 44.9319 4.58274 44.886 4.63788C44.809 4.75802 44.7513 4.88946 44.715 5.02744L43.7791 7.77582C43.7227 7.91487 43.6874 8.06156 43.6744 8.21105C43.6782 8.24739 43.6893 8.28257 43.7072 8.31444C43.7251 8.34632 43.7492 8.37421 43.7783 8.39642C43.8948 8.46531 44.0197 8.51889 44.1499 8.55583L44.5081 8.67762C44.7039 8.75162 44.9147 8.77683 45.1224 8.75105C45.3174 8.7177 45.5003 8.6337 45.6526 8.50747C45.874 8.31313 46.0683 8.08994 46.2302 7.84388L46.3601 7.88508Z" fill="white"/>
<path d="M48.2211 5.45645L50.2924 6.57049L50.2333 6.67975L50.1304 6.62691C50.0251 6.56043 49.9064 6.51821 49.7829 6.50333C49.7114 6.50294 49.6419 6.52695 49.5859 6.57139C49.5303 6.61527 49.4417 6.75049 49.3172 6.98064L48.2623 8.94275C48.0688 9.30096 47.9676 9.5535 47.9596 9.69947C47.9534 9.85182 47.9924 10.0026 48.0715 10.1329C48.1706 10.2915 48.3121 10.4193 48.4799 10.5019C48.6721 10.6128 48.8924 10.6653 49.1139 10.6532C49.3186 10.6381 49.514 10.5616 49.6745 10.4338C49.8417 10.3031 50.0402 10.0248 50.2701 9.59917L51.1504 7.96214C51.2282 7.83562 51.2794 7.69453 51.3008 7.54751C51.3078 7.4647 51.288 7.38182 51.2444 7.31109C51.1534 7.19667 51.0373 7.10474 50.905 7.04244L50.9641 6.93318L52.3522 7.67916L52.2931 7.7911L52.2107 7.74632C52.1142 7.69026 52.0043 7.66176 51.8928 7.66393C51.7924 7.67033 51.6974 7.71149 51.6241 7.78035C51.5323 7.87341 51.4572 7.98155 51.402 8.10006L50.5826 9.62246C50.3295 10.0941 50.1154 10.4177 49.9405 10.5932C49.7614 10.7723 49.5115 10.8798 49.1757 10.9263C48.8399 10.9729 48.4656 10.8834 48.0491 10.6577C47.7017 10.4714 47.4584 10.281 47.3193 10.0863C47.1437 9.86316 47.0434 9.59009 47.0327 9.30633C47.0327 9.052 47.1223 8.75797 47.3014 8.42424L48.3581 6.45944C48.4829 6.229 48.5474 6.07974 48.5515 6.01168C48.5547 5.93816 48.5333 5.86567 48.4906 5.80571C48.4013 5.70443 48.2906 5.62429 48.1665 5.57108L48.2211 5.45645Z" fill="white"/>
<path d="M56.3613 10.7177L55.6064 11.693L55.5105 11.6186C55.6082 11.4203 55.6715 11.2068 55.6977 10.9873C55.7027 10.8293 55.6673 10.6727 55.5947 10.5324C55.5117 10.4053 55.4042 10.296 55.2786 10.2109L55.0099 10.0031L52.8607 12.7792C52.7635 12.8894 52.6838 13.0139 52.6242 13.1482C52.6103 13.2205 52.6194 13.2954 52.6502 13.3622C52.6958 13.4587 52.7659 13.5415 52.8535 13.6022L52.9726 13.6918L52.8965 13.7903L51.0105 12.3297L51.0866 12.2321L51.2057 12.3216C51.2905 12.393 51.3923 12.4412 51.5013 12.4613C51.5735 12.471 51.6468 12.4555 51.709 12.4175C51.821 12.3295 51.9184 12.2243 51.9974 12.1058L54.1466 9.32966L53.8869 9.12817C53.644 8.94011 53.4278 8.85503 53.2386 8.87294C52.9459 8.91038 52.6749 9.04728 52.4711 9.26071L52.3708 9.1819L53.1248 8.20757L56.3613 10.7177Z" fill="white"/>
<path d="M55.4962 16.1195L55.4067 16.209L53.7195 14.5272L53.809 14.4377L53.9165 14.5451C53.9914 14.6267 54.0866 14.6869 54.1923 14.7197C54.2619 14.7385 54.3359 14.7318 54.401 14.7009C54.5229 14.627 54.6326 14.5346 54.7261 14.4269L56.8422 12.3045C56.9523 12.2074 57.0474 12.0946 57.1243 11.9696C57.1474 11.9001 57.1474 11.825 57.1243 11.7555C57.0918 11.6555 57.0338 11.5657 56.9559 11.4949L56.8485 11.3875L56.938 11.2979L58.6252 12.9797L58.5356 13.0693L58.4282 12.9627C58.3536 12.8798 58.2585 12.818 58.1524 12.7836C58.082 12.7656 58.0076 12.7716 57.941 12.8006C57.8191 12.8746 57.7094 12.967 57.6159 13.0747L55.4998 15.1971C55.3895 15.2944 55.2947 15.4079 55.2186 15.5338C55.1966 15.6037 55.1966 15.6788 55.2186 15.7487C55.2513 15.8489 55.3097 15.9387 55.3879 16.0093L55.4962 16.1195Z" fill="white"/>
<path d="M60.7768 15.4686C61.2371 16.031 61.4246 16.628 61.3392 17.2596C61.299 17.5706 61.1951 17.8699 61.0341 18.1389C60.8731 18.4079 60.6584 18.6408 60.4034 18.8232C59.9692 19.1631 59.4324 19.3453 58.881 19.34C58.1455 19.3346 57.5311 19.0062 57.038 18.3549C56.5449 17.7035 56.3834 17.0304 56.5535 16.3354C56.6918 15.7857 57.019 15.302 57.4777 14.9689C57.7233 14.7725 58.007 14.6293 58.3108 14.5482C58.6147 14.4671 58.932 14.45 59.2428 14.4978C59.5529 14.541 59.8502 14.65 60.1147 14.8174C60.3793 14.9848 60.605 15.2068 60.7768 15.4686ZM60.6273 15.6307C60.3759 15.2987 60.015 15.1745 59.5446 15.2581C59.1595 15.328 58.7061 15.5605 58.1843 15.9557C57.5652 16.425 57.1899 16.8808 57.0586 17.3232C57.0124 17.4716 57.004 17.6291 57.034 17.7816C57.064 17.934 57.1316 18.0766 57.2305 18.1964C57.3493 18.3643 57.5188 18.4899 57.7141 18.5546C57.9875 18.6231 58.2754 18.6062 58.5389 18.5062C58.9301 18.3622 59.2952 18.1553 59.6198 17.8937C60.101 17.5301 60.4267 17.2134 60.5968 16.9435C60.767 16.6749 60.8494 16.4322 60.8422 16.219C60.8351 16.005 60.7598 15.7989 60.6273 15.6307Z" fill="white"/>
<path d="M63.4447 19.717L61.9428 23L63.6891 22.1134C63.9327 21.9898 64.0796 21.8707 64.1306 21.7552C64.1981 21.6 64.1724 21.4107 64.0536 21.1874L64.1638 21.131L64.8453 22.4743L64.7351 22.5307C64.6664 22.4153 64.5779 22.3128 64.4736 22.228C64.4011 22.185 64.3164 22.1671 64.2327 22.177C64.081 22.2033 63.9351 22.2563 63.802 22.3337L60.4196 24.0504L60.3685 23.9483L62.3557 19.4841L59.773 20.7952C59.5395 20.9146 59.4088 21.0483 59.3807 21.1964C59.3532 21.3424 59.3756 21.4935 59.4443 21.6253L59.4936 21.7212L59.3825 21.7776L58.6509 20.3367L58.7619 20.2802C58.8774 20.5032 59.0019 20.6385 59.1372 20.6779C59.2724 20.7173 59.4461 20.6868 59.6619 20.5767L62.5276 19.1214L62.5975 18.9853C62.6513 18.8807 62.6841 18.7667 62.6942 18.6495C62.6875 18.5397 62.6569 18.4328 62.6046 18.3361L62.7157 18.2796L63.4447 19.717Z" fill="white"/>
<path d="M66.1865 26.1665L64.7537 26.6743L64.7107 26.5435C65.0296 26.3865 65.2852 26.1252 65.4352 25.8029C65.574 25.525 65.6003 25.2043 65.5086 24.9074C65.4579 24.7162 65.3358 24.5518 65.1674 24.448C65.0991 24.4053 65.0223 24.378 64.9423 24.3679C64.8624 24.3579 64.7812 24.3653 64.7044 24.3898C64.6142 24.4175 64.5333 24.4696 64.4707 24.5402C64.3792 24.6574 64.3114 24.7912 64.271 24.9343C64.2067 25.2032 64.158 25.4756 64.125 25.7501C64.042 26.3376 63.9187 26.7555 63.7551 27.0039C63.5963 27.247 63.3579 27.4274 63.0808 27.5143C62.9039 27.5735 62.7162 27.5938 62.5308 27.5737C62.3453 27.5536 62.1663 27.4936 62.0062 27.3979C61.645 27.191 61.3786 26.8514 61.2638 26.4513C61.2187 26.3217 61.1887 26.1874 61.1742 26.051C61.1623 25.8819 61.1644 25.712 61.1805 25.5432C61.1923 25.4518 61.1859 25.359 61.1617 25.2701C61.1383 25.2075 61.0961 25.1537 61.0408 25.1161C60.9695 25.0636 60.8847 25.0326 60.7963 25.0265L60.7578 24.9083L62.393 24.371L62.4316 24.4892C62.0023 24.734 61.7107 25.0292 61.5566 25.3749C61.4049 25.6809 61.3763 26.0335 61.4769 26.36C61.5348 26.5712 61.6713 26.7522 61.8584 26.8659C61.9827 26.9445 62.1308 26.9761 62.2763 26.955C62.4217 26.934 62.5549 26.8618 62.6519 26.7513C62.7376 26.653 62.8027 26.5385 62.8435 26.4146C62.9129 26.1869 62.9615 25.9534 62.9886 25.717C63.03 25.3771 63.1047 25.042 63.2116 24.7167C63.2822 24.5142 63.3931 24.328 63.5375 24.1695C63.6773 24.0204 63.8531 23.9097 64.048 23.848C64.2125 23.7914 64.3871 23.7701 64.5604 23.7856C64.7337 23.801 64.9017 23.8528 65.0537 23.9376C65.2164 24.0257 65.3601 24.1452 65.4763 24.2893C65.5925 24.4333 65.679 24.599 65.7307 24.7767C65.7763 24.9144 65.8043 25.0573 65.814 25.202C65.8198 25.3398 65.8123 25.4777 65.7916 25.614C65.7688 25.7246 65.767 25.8385 65.7862 25.9498C65.7924 25.974 65.8036 25.9965 65.819 26.0161C65.8344 26.0357 65.8537 26.0519 65.8758 26.0635C65.9656 26.0872 66.0595 26.0903 66.1507 26.0725L66.1865 26.1665Z" fill="white"/>
<path d="M35.0001 60.5145C49.0914 60.5145 60.5147 49.0912 60.5147 34.9999C60.5147 20.9086 49.0914 9.48538 35.0001 9.48538C20.9088 9.48538 9.4856 20.9086 9.4856 34.9999C9.4856 49.0912 20.9088 60.5145 35.0001 60.5145Z" fill="#53225A"/>
<path d="M35.0001 50.7802C43.7152 50.7802 50.7802 43.7152 50.7802 35.0001C50.7802 26.2849 43.7152 19.2199 35.0001 19.2199C26.285 19.2199 19.22 26.2849 19.22 35.0001C19.22 43.7152 26.285 50.7802 35.0001 50.7802Z" fill="#A01E66"/>
<path d="M35.0767 9.86699C35.0767 9.86699 36.6582 12.5536 33.4648 14.4951C29.194 17.0868 21.6939 22.3883 31.337 26.703C31.337 26.703 28.2188 22.2369 31.8904 19.2817C35.5621 16.3264 41.1663 13.27 35.0767 9.86699Z" fill="#F49020"/>
<path d="M38.6798 13.2342C38.6798 13.2342 39.9452 15.3835 37.3876 16.9372C33.9729 19.0095 27.9737 23.2534 35.686 26.703C35.686 26.703 33.1911 23.1298 36.1284 20.7656C39.0658 18.4014 43.5515 15.9566 38.6798 13.2342Z" fill="#F49020"/>
<path d="M41.6349 16.7079C41.6349 16.7079 42.6469 18.4282 40.6006 19.6703C37.8692 21.3288 33.0701 24.7238 39.2412 27.4829C39.2412 27.4829 37.2459 24.6253 39.5994 22.7366C41.9528 20.8479 45.5323 18.8858 41.6349 16.7079Z" fill="#F49020"/>
<path d="M45.1975 28.168H24.8027V31.1859H45.1975V28.168Z" fill="white"/>
<path d="M26.9063 31.871H43.0939V33.4928C43.0942 33.7306 43.0476 33.966 42.9568 34.1857C42.8659 34.4054 42.7326 34.605 42.5645 34.7731C42.3963 34.9411 42.1967 35.0743 41.9769 35.1651C41.7572 35.2558 41.5217 35.3023 41.284 35.3018H28.7125C28.4751 35.3018 28.24 35.255 28.0207 35.164C27.8014 35.0731 27.6021 34.9398 27.4343 34.7718C27.2666 34.6038 27.1336 34.4043 27.043 34.1849C26.9524 33.9654 26.9059 33.7303 26.9063 33.4928V31.871Z" fill="white"/>
<path d="M37.8672 54.4625H32.1323L30.6099 36.5367H39.3896L37.8672 54.4625Z" fill="white"/>
<path d="M30.6099 55.1486V57.9838H32.7591V60.1331H37.2404V57.9838H39.3896V55.1486H30.6099Z" fill="white"/>
</g>
<defs>
<clipPath id="clip0_111_2922">
<rect width="70" height="70" fill="white"/>
</clipPath>
</defs>
</svg>
