<svg width="70" height="70" viewBox="0 0 70 70" fill="none" xmlns="http://www.w3.org/2000/svg">
<g clip-path="url(#clip0_111_2972)">
<path d="M35 70C54.33 70 70 54.33 70 35C70 15.67 54.33 0 35 0C15.67 0 0 15.67 0 35C0 54.33 15.67 70 35 70Z" fill="#53225A"/>
<path d="M35 57C47.1503 57 57 47.1503 57 35C57 22.8497 47.1503 13 35 13C22.8497 13 13 22.8497 13 35C13 47.1503 22.8497 57 35 57Z" fill="#A01E66"/>
<path d="M35.3642 1C35.3642 1 37.4937 4.67021 33.1937 7.32255C27.4431 10.8631 17.3442 18.1056 30.3286 24C30.3286 24 26.1299 17.8989 31.0738 13.8616C36.0177 9.82441 43.5639 5.64894 35.3642 1Z" fill="#F49020"/>
<path d="M40.0922 5C40.0922 5 41.796 8.03192 38.3522 10.2237C33.7544 13.147 25.6767 19.1338 36.0611 24C36.0611 24 32.7017 18.9594 36.6568 15.6243C40.6119 12.2892 46.6518 8.84043 40.0922 5Z" fill="#F49020"/>
<path d="M43.817 10C43.817 10 45.0941 12.3949 42.5117 14.124C39.0647 16.4328 33.0082 21.159 40.7961 25C40.7961 25 38.2781 21.0219 41.2482 18.3926C44.2182 15.7634 48.7355 13.0319 43.817 10Z" fill="#F49020"/>
<path d="M49 26H21V30H49V26Z" fill="white"/>
<path d="M24 31H46V32.8909C46.0005 33.1681 45.9372 33.4426 45.8137 33.6987C45.6903 33.9549 45.5091 34.1876 45.2806 34.3835C45.052 34.5795 44.7807 34.7348 44.482 34.8406C44.1834 34.9464 43.8634 35.0005 43.5403 35H26.4549C26.1322 35 25.8127 34.9454 25.5146 34.8394C25.2165 34.7334 24.9457 34.578 24.7177 34.3821C24.4897 34.1862 24.309 33.9536 24.1858 33.6978C24.0627 33.4419 23.9995 33.1677 24 32.8909V31Z" fill="white"/>
<path d="M38.9192 62H31.0808L29 37H41L38.9192 62Z" fill="white"/>
<path d="M29 63V66.4129H31.9376V69H38.0624V66.4129H41V63H29Z" fill="white"/>
</g>
<defs>
<clipPath id="clip0_111_2972">
<rect width="70" height="70" fill="white"/>
</clipPath>
</defs>
</svg>
