<svg width="308" height="71" viewBox="0 0 308 71" fill="none" xmlns="http://www.w3.org/2000/svg">
<path d="M78.764 44.975V26.831H86.261C86.4374 26.831 86.6642 26.8394 86.9414 26.8562C87.2186 26.8646 87.4748 26.8898 87.71 26.9318C88.76 27.0914 89.6252 27.44 90.3056 27.9776C90.9944 28.5152 91.5026 29.1956 91.8302 30.0188C92.1662 30.8336 92.3342 31.7408 92.3342 32.7404C92.3342 34.2188 91.9604 35.4914 91.2128 36.5582C90.4652 37.6166 89.3186 38.2718 87.773 38.5238L86.4752 38.6372H81.8006V44.975H78.764ZM89.1842 44.975L85.6058 37.5914L88.6928 36.911L92.624 44.975H89.1842ZM81.8006 35.8022H86.135C86.303 35.8022 86.492 35.7938 86.702 35.777C86.912 35.7602 87.1052 35.7266 87.2816 35.6762C87.7856 35.5502 88.1804 35.3276 88.466 35.0084C88.76 34.6892 88.9658 34.328 89.0834 33.9248C89.2094 33.5216 89.2724 33.1268 89.2724 32.7404C89.2724 32.354 89.2094 31.9592 89.0834 31.556C88.9658 31.1444 88.76 30.779 88.466 30.4598C88.1804 30.1406 87.7856 29.918 87.2816 29.792C87.1052 29.7416 86.912 29.7122 86.702 29.7038C86.492 29.687 86.303 29.6786 86.135 29.6786H81.8006V35.8022ZM95.6519 29.3006V26.516H98.6885V29.3006H95.6519ZM95.6519 44.975V31.367H98.6885V44.975H95.6519ZM108.183 51.401C107.427 51.401 106.701 51.2834 106.003 51.0482C105.315 50.813 104.693 50.4728 104.139 50.0276C103.584 49.5908 103.131 49.0616 102.778 48.44L105.575 47.054C105.835 47.5496 106.201 47.915 106.671 48.1502C107.15 48.3938 107.658 48.5156 108.196 48.5156C108.826 48.5156 109.389 48.4022 109.884 48.1754C110.38 47.957 110.762 47.6294 111.031 47.1926C111.308 46.7642 111.438 46.2266 111.421 45.5798V41.7116H111.799V31.367H114.458V45.6302C114.458 45.9746 114.441 46.3022 114.408 46.613C114.382 46.9322 114.336 47.243 114.269 47.5454C114.067 48.4274 113.681 49.1498 113.11 49.7126C112.539 50.2838 111.829 50.708 110.98 50.9852C110.14 51.2624 109.208 51.401 108.183 51.401ZM107.919 45.353C106.667 45.353 105.575 45.038 104.643 44.408C103.71 43.778 102.988 42.9212 102.475 41.8376C101.963 40.754 101.707 39.5318 101.707 38.171C101.707 36.7934 101.963 35.567 102.475 34.4918C102.996 33.4082 103.731 32.5556 104.68 31.934C105.63 31.304 106.747 30.989 108.032 30.989C109.326 30.989 110.409 31.304 111.283 31.934C112.165 32.5556 112.833 33.4082 113.286 34.4918C113.74 35.5754 113.967 36.8018 113.967 38.171C113.967 39.5234 113.74 40.7456 113.286 41.8376C112.833 42.9212 112.156 43.778 111.258 44.408C110.359 45.038 109.246 45.353 107.919 45.353ZM108.385 42.6314C109.2 42.6314 109.855 42.4466 110.35 42.077C110.854 41.699 111.22 41.174 111.447 40.502C111.682 39.83 111.799 39.053 111.799 38.171C111.799 37.2806 111.682 36.5036 111.447 35.84C111.22 35.168 110.863 34.6472 110.376 34.2776C109.888 33.8996 109.258 33.7106 108.486 33.7106C107.671 33.7106 106.999 33.9122 106.47 34.3154C105.94 34.7102 105.55 35.2478 105.298 35.9282C105.046 36.6002 104.92 37.3478 104.92 38.171C104.92 39.0026 105.042 39.7586 105.285 40.439C105.537 41.111 105.919 41.6444 106.432 42.0392C106.944 42.434 107.595 42.6314 108.385 42.6314ZM127.404 44.975V38.423C127.404 37.9946 127.374 37.52 127.315 36.9992C127.257 36.4784 127.118 35.9786 126.9 35.4998C126.69 35.0126 126.37 34.6136 125.942 34.3028C125.522 33.992 124.951 33.8366 124.228 33.8366C123.842 33.8366 123.46 33.8996 123.082 34.0256C122.704 34.1516 122.359 34.37 122.049 34.6808C121.746 34.9832 121.503 35.4032 121.318 35.9408C121.133 36.47 121.041 37.1504 121.041 37.982L119.239 37.2134C119.239 36.0542 119.461 35.0042 119.907 34.0634C120.36 33.1226 121.024 32.375 121.897 31.8206C122.771 31.2578 123.846 30.9764 125.123 30.9764C126.131 30.9764 126.963 31.1444 127.618 31.4804C128.273 31.8164 128.794 32.2448 129.18 32.7656C129.567 33.2864 129.852 33.8408 130.037 34.4288C130.222 35.0168 130.339 35.5754 130.39 36.1046C130.449 36.6254 130.478 37.0496 130.478 37.3772V44.975H127.404ZM117.966 44.975V26.831H120.675V36.3818H121.041V44.975H117.966ZM141.742 44.975C140.843 45.143 139.961 45.2144 139.096 45.1892C138.239 45.1724 137.47 45.017 136.79 44.723C136.11 44.4206 135.593 43.946 135.24 43.2992C134.929 42.7112 134.766 42.1106 134.749 41.4974C134.732 40.8842 134.724 40.1912 134.724 39.4184V27.587H137.748V39.242C137.748 39.788 137.752 40.2668 137.76 40.6784C137.777 41.09 137.865 41.426 138.025 41.6864C138.327 42.1904 138.81 42.4718 139.474 42.5306C140.137 42.5894 140.893 42.5558 141.742 42.4298V44.975ZM132.254 33.7484V31.367H141.742V33.7484H132.254ZM149.713 44.975V26.831H152.749V34.4666H161.343V26.831H164.367V44.975H161.343V37.3142H152.749V44.975H149.713ZM167.899 44.975V26.831H175.396C175.573 26.831 175.799 26.8394 176.077 26.8562C176.354 26.8646 176.61 26.8898 176.845 26.9318C177.895 27.0914 178.76 27.44 179.441 27.9776C180.13 28.5152 180.638 29.1956 180.965 30.0188C181.301 30.8336 181.469 31.7408 181.469 32.7404C181.469 34.2188 181.096 35.4914 180.348 36.5582C179.6 37.6166 178.454 38.2718 176.908 38.5238L175.61 38.6372H170.936V44.975H167.899ZM178.319 44.975L174.741 37.5914L177.828 36.911L181.759 44.975H178.319ZM170.936 35.8022H175.27C175.438 35.8022 175.627 35.7938 175.837 35.777C176.047 35.7602 176.24 35.7266 176.417 35.6762C176.921 35.5502 177.316 35.3276 177.601 35.0084C177.895 34.6892 178.101 34.328 178.219 33.9248C178.345 33.5216 178.408 33.1268 178.408 32.7404C178.408 32.354 178.345 31.9592 178.219 31.556C178.101 31.1444 177.895 30.779 177.601 30.4598C177.316 30.1406 176.921 29.918 176.417 29.792C176.24 29.7416 176.047 29.7122 175.837 29.7038C175.627 29.687 175.438 29.6786 175.27 29.6786H170.936V35.8022ZM196.296 45.353C194.969 45.353 193.772 45.122 192.705 44.66C191.646 44.198 190.773 43.5386 190.084 42.6818C189.404 41.8166 188.971 40.7918 188.786 39.6074L191.936 39.1286C192.205 40.2038 192.755 41.0354 193.587 41.6234C194.427 42.2114 195.393 42.5054 196.485 42.5054C197.132 42.5054 197.741 42.4046 198.312 42.203C198.883 42.0014 199.345 41.7074 199.698 41.321C200.059 40.9346 200.24 40.46 200.24 39.8972C200.24 39.6452 200.198 39.4142 200.114 39.2042C200.03 38.9858 199.904 38.7926 199.736 38.6246C199.576 38.4566 199.366 38.3054 199.106 38.171C198.854 38.0282 198.56 37.9064 198.224 37.8056L193.536 36.4196C193.133 36.302 192.696 36.1466 192.226 35.9534C191.764 35.7518 191.323 35.4788 190.903 35.1344C190.491 34.7816 190.151 34.3364 189.882 33.7988C189.622 33.2528 189.492 32.5808 189.492 31.7828C189.492 30.6152 189.786 29.6366 190.374 28.847C190.97 28.049 191.768 27.4526 192.768 27.0578C193.776 26.663 194.893 26.4698 196.119 26.4782C197.363 26.4866 198.471 26.7008 199.446 27.1208C200.42 27.5324 201.235 28.133 201.89 28.9226C202.545 29.7122 203.007 30.6656 203.276 31.7828L200.013 32.3498C199.878 31.7114 199.618 31.1696 199.232 30.7244C198.854 30.2708 198.387 29.9264 197.833 29.6912C197.287 29.456 196.703 29.33 196.082 29.3132C195.477 29.3048 194.914 29.3972 194.393 29.5904C193.881 29.7752 193.465 30.044 193.146 30.3968C192.835 30.7496 192.68 31.1612 192.68 31.6316C192.68 32.0768 192.814 32.4422 193.083 32.7278C193.352 33.005 193.683 33.2276 194.078 33.3956C194.481 33.5552 194.889 33.6896 195.3 33.7988L198.551 34.706C198.996 34.8236 199.496 34.9832 200.051 35.1848C200.605 35.3864 201.138 35.6678 201.651 36.029C202.163 36.3902 202.583 36.8648 202.911 37.4528C203.247 38.0408 203.415 38.7884 203.415 39.6956C203.415 40.6364 203.217 41.4638 202.823 42.1778C202.436 42.8834 201.911 43.4714 201.248 43.9418C200.584 44.4122 199.824 44.765 198.967 45.0002C198.119 45.2354 197.228 45.353 196.296 45.353ZM212.152 45.353C210.792 45.353 209.603 45.0464 208.587 44.4332C207.57 43.82 206.781 42.9758 206.218 41.9006C205.663 40.817 205.386 39.5738 205.386 38.171C205.386 36.743 205.672 35.4914 206.243 34.4162C206.814 33.341 207.608 32.501 208.624 31.8962C209.641 31.2914 210.817 30.989 212.152 30.989C213.522 30.989 214.714 31.2956 215.731 31.9088C216.747 32.522 217.537 33.3704 218.1 34.454C218.662 35.5292 218.944 36.7682 218.944 38.171C218.944 39.5822 218.658 40.8296 218.087 41.9132C217.524 42.9884 216.735 43.8326 215.718 44.4458C214.702 45.0506 213.513 45.353 212.152 45.353ZM212.152 42.5054C213.362 42.5054 214.261 42.1022 214.849 41.2958C215.437 40.4894 215.731 39.4478 215.731 38.171C215.731 36.8522 215.433 35.8022 214.836 35.021C214.24 34.2314 213.345 33.8366 212.152 33.8366C211.338 33.8366 210.666 34.0214 210.136 34.391C209.616 34.7522 209.229 35.2604 208.977 35.9156C208.725 36.5624 208.599 37.3142 208.599 38.171C208.599 39.4898 208.897 40.544 209.494 41.3336C210.099 42.1148 210.985 42.5054 212.152 42.5054ZM221.972 44.975V26.453H225.008V44.975H221.972ZM233.886 45.3656C232.878 45.3656 232.046 45.1976 231.391 44.8616C230.736 44.5256 230.215 44.0972 229.829 43.5764C229.442 43.0556 229.157 42.5012 228.972 41.9132C228.787 41.3252 228.665 40.7708 228.606 40.25C228.556 39.7208 228.531 39.2924 228.531 38.9648V31.367H231.605V37.919C231.605 38.339 231.635 38.8136 231.693 39.3428C231.752 39.8636 231.887 40.3676 232.097 40.8548C232.315 41.3336 232.634 41.7284 233.054 42.0392C233.483 42.35 234.058 42.5054 234.78 42.5054C235.167 42.5054 235.549 42.4424 235.927 42.3164C236.305 42.1904 236.645 41.9762 236.948 41.6738C237.258 41.363 237.506 40.9388 237.691 40.4012C237.876 39.8636 237.968 39.1832 237.968 38.36L239.77 39.1286C239.77 40.2878 239.543 41.3378 239.09 42.2786C238.644 43.2194 237.985 43.9712 237.111 44.534C236.238 45.0884 235.163 45.3656 233.886 45.3656ZM238.334 44.975V40.754H237.968V31.367H241.017V44.975H238.334ZM252.533 44.975C251.634 45.143 250.752 45.2144 249.887 45.1892C249.03 45.1724 248.262 45.017 247.581 44.723C246.901 44.4206 246.384 43.946 246.032 43.2992C245.721 42.7112 245.557 42.1106 245.54 41.4974C245.523 40.8842 245.515 40.1912 245.515 39.4184V27.587H248.539V39.242C248.539 39.788 248.543 40.2668 248.552 40.6784C248.568 41.09 248.657 41.426 248.816 41.6864C249.119 42.1904 249.602 42.4718 250.265 42.5306C250.929 42.5894 251.685 42.5558 252.533 42.4298V44.975ZM243.045 33.7484V31.367H252.533V33.7484H243.045ZM255.711 29.3006V26.516H258.748V29.3006H255.711ZM255.711 44.975V31.367H258.748V44.975H255.711ZM268.532 45.353C267.172 45.353 265.983 45.0464 264.967 44.4332C263.95 43.82 263.161 42.9758 262.598 41.9006C262.043 40.817 261.766 39.5738 261.766 38.171C261.766 36.743 262.052 35.4914 262.623 34.4162C263.194 33.341 263.988 32.501 265.004 31.8962C266.021 31.2914 267.197 30.989 268.532 30.989C269.902 30.989 271.094 31.2956 272.111 31.9088C273.127 32.522 273.917 33.3704 274.48 34.454C275.042 35.5292 275.324 36.7682 275.324 38.171C275.324 39.5822 275.038 40.8296 274.467 41.9132C273.904 42.9884 273.115 43.8326 272.098 44.4458C271.082 45.0506 269.893 45.353 268.532 45.353ZM268.532 42.5054C269.742 42.5054 270.641 42.1022 271.229 41.2958C271.817 40.4894 272.111 39.4478 272.111 38.171C272.111 36.8522 271.813 35.8022 271.216 35.021C270.62 34.2314 269.725 33.8366 268.532 33.8366C267.718 33.8366 267.046 34.0214 266.516 34.391C265.996 34.7522 265.609 35.2604 265.357 35.9156C265.105 36.5624 264.979 37.3142 264.979 38.171C264.979 39.4898 265.277 40.544 265.874 41.3336C266.479 42.1148 267.365 42.5054 268.532 42.5054ZM287.512 44.975V38.423C287.512 37.9946 287.483 37.52 287.424 36.9992C287.365 36.4784 287.227 35.9786 287.008 35.4998C286.798 35.0126 286.479 34.6136 286.051 34.3028C285.631 33.992 285.059 33.8366 284.337 33.8366C283.951 33.8366 283.568 33.8996 283.19 34.0256C282.812 34.1516 282.468 34.37 282.157 34.6808C281.855 34.9832 281.611 35.4032 281.426 35.9408C281.242 36.47 281.149 37.1504 281.149 37.982L279.347 37.2134C279.347 36.0542 279.57 35.0042 280.015 34.0634C280.469 33.1226 281.132 32.375 282.006 31.8206C282.88 31.2578 283.955 30.9764 285.232 30.9764C286.24 30.9764 287.071 31.1444 287.726 31.4804C288.382 31.8164 288.902 32.2448 289.289 32.7656C289.675 33.2864 289.961 33.8408 290.146 34.4288C290.33 35.0168 290.448 35.5754 290.498 36.1046C290.557 36.6254 290.587 37.0496 290.587 37.3772V44.975H287.512ZM278.075 44.975V31.367H280.784V35.588H281.149V44.975H278.075ZM299.129 45.353C297.449 45.353 296.084 44.975 295.034 44.219C293.984 43.463 293.345 42.4004 293.119 41.0312L296.218 40.5524C296.378 41.2244 296.731 41.7536 297.277 42.14C297.823 42.5264 298.511 42.7196 299.343 42.7196C300.074 42.7196 300.637 42.5768 301.031 42.2912C301.435 41.9972 301.636 41.5982 301.636 41.0942C301.636 40.7834 301.561 40.5356 301.409 40.3508C301.267 40.1576 300.947 39.9728 300.452 39.7964C299.956 39.62 299.196 39.3974 298.171 39.1286C297.029 38.8262 296.122 38.5028 295.45 38.1584C294.778 37.8056 294.295 37.3898 294.001 36.911C293.707 36.4322 293.56 35.8526 293.56 35.1722C293.56 34.3238 293.782 33.5846 294.227 32.9546C294.673 32.3246 295.294 31.8416 296.092 31.5056C296.89 31.1612 297.831 30.989 298.915 30.989C299.973 30.989 300.91 31.1528 301.724 31.4804C302.548 31.808 303.211 32.2742 303.715 32.879C304.219 33.4838 304.53 34.1936 304.648 35.0084L301.548 35.5628C301.472 34.9832 301.208 34.5254 300.754 34.1894C300.309 33.8534 299.713 33.6644 298.965 33.6224C298.251 33.5804 297.676 33.6896 297.239 33.95C296.802 34.202 296.584 34.559 296.584 35.021C296.584 35.2814 296.672 35.504 296.848 35.6888C297.025 35.8736 297.377 36.0584 297.907 36.2432C298.444 36.428 299.242 36.6548 300.301 36.9236C301.384 37.2008 302.249 37.52 302.896 37.8812C303.551 38.234 304.022 38.6582 304.307 39.1538C304.601 39.6494 304.748 40.25 304.748 40.9556C304.748 42.3248 304.249 43.4 303.249 44.1812C302.258 44.9624 300.884 45.353 299.129 45.353Z" fill="#53225A"/>
<g clip-path="url(#clip0_111_2870)">
<path d="M35 70.3C54.33 70.3 70 54.63 70 35.3C70 15.97 54.33 0.300003 35 0.300003C15.67 0.300003 0 15.97 0 35.3C0 54.63 15.67 70.3 35 70.3Z" fill="white"/>
<path d="M34.9997 68.9673C53.5937 68.9673 68.6672 53.8939 68.6672 35.2999C68.6672 16.7059 53.5937 1.63245 34.9997 1.63245C16.4057 1.63245 1.33228 16.7059 1.33228 35.2999C1.33228 53.8939 16.4057 68.9673 34.9997 68.9673Z" fill="#050615"/>
<path d="M9.61985 45.0389L8.54521 45.4383L8.5076 45.3389C8.74626 45.2165 8.93586 45.0162 9.04492 44.7711C9.14684 44.5601 9.16352 44.318 9.09148 44.095C9.0513 43.9507 8.95699 43.8276 8.8282 43.7511C8.77583 43.7196 8.71732 43.6997 8.6566 43.6928C8.59589 43.6858 8.53439 43.692 8.47625 43.7108C8.40695 43.7324 8.34496 43.7727 8.29715 43.8272C8.22857 43.9168 8.17835 44.0191 8.14939 44.1281C8.10329 44.3323 8.0689 44.5389 8.0464 44.747C7.9867 45.1929 7.89715 45.5111 7.77774 45.7016C7.65975 45.887 7.48132 46.0258 7.27266 46.0947C7.13944 46.1407 6.99791 46.1575 6.85763 46.144C6.71736 46.1306 6.5816 46.0872 6.45952 46.0168C6.18393 45.8637 5.97871 45.6093 5.88728 45.3076C5.85363 45.2097 5.8308 45.1085 5.81922 45.0058C5.80833 44.8776 5.80833 44.7488 5.81922 44.6207C5.82693 44.5516 5.82115 44.4816 5.8022 44.4147C5.78514 44.3676 5.75385 44.3269 5.71265 44.2983C5.65787 44.2606 5.59369 44.2389 5.52727 44.2356L5.49683 44.1461L6.72908 43.7252L6.75952 43.8147C6.43713 44.004 6.21922 44.2305 6.10579 44.4944C5.99466 44.727 5.97672 44.9932 6.05564 45.2386C6.10447 45.398 6.21289 45.5324 6.35833 45.6138C6.45223 45.6715 6.56347 45.6941 6.67243 45.6777C6.78139 45.6613 6.88106 45.607 6.95385 45.5243C7.01769 45.4488 7.06607 45.3614 7.09624 45.2673C7.14662 45.0941 7.1808 44.9166 7.19833 44.7371C7.22487 44.4769 7.27645 44.2199 7.35236 43.9696C7.40431 43.8163 7.48654 43.675 7.59416 43.5541C7.69834 43.4397 7.8304 43.3542 7.97744 43.306C8.10151 43.2619 8.23348 43.2443 8.36478 43.2545C8.49608 43.2647 8.62377 43.3024 8.73954 43.3652C8.86368 43.43 8.97373 43.5187 9.06335 43.6263C9.15296 43.7339 9.22036 43.8582 9.26163 43.992C9.29722 44.0957 9.31949 44.2034 9.3279 44.3126C9.3337 44.417 9.3295 44.5216 9.31537 44.6252C9.29982 44.7092 9.29982 44.7954 9.31537 44.8795C9.32017 44.8988 9.32916 44.9169 9.34169 44.9323C9.35422 44.9478 9.37 44.9603 9.3879 44.969C9.45658 44.9847 9.52789 44.9847 9.59656 44.969L9.61985 45.0389Z" fill="#F49020"/>
<path d="M8.3285 48.3899L7.79835 47.2884L7.43297 47.3028C7.33647 47.3032 7.24096 47.3223 7.15178 47.3592C7.11195 47.3756 7.07751 47.4029 7.05235 47.4378C7.02719 47.4728 7.01231 47.5141 7.00939 47.5571C7.01985 47.6719 7.05015 47.784 7.09894 47.8884L7.00939 47.9287L6.51953 46.8944L6.60908 46.8532C6.67221 46.9516 6.76697 47.0255 6.87774 47.0628C7.07351 47.1053 7.27446 47.1189 7.47417 47.1031L10.4894 47.0251L10.51 47.069L8.49597 49.4144C8.30522 49.6374 8.19596 49.7977 8.16641 49.8971C8.14427 49.9837 8.15216 50.0753 8.1888 50.1568L8.10462 50.1971L7.38282 48.6926L7.467 48.6523L7.49655 48.7141C7.53155 48.8055 7.59142 48.8852 7.66939 48.9443C7.68932 48.9551 7.71164 48.9607 7.73432 48.9607C7.75699 48.9607 7.77931 48.9551 7.79924 48.9443C7.82795 48.9303 7.85426 48.9119 7.87715 48.8896C7.88969 48.8798 7.93626 48.8296 8.01686 48.7383L8.3285 48.3899ZM8.46104 48.2305L9.31 47.2535L8.00969 47.2902L8.46104 48.2305Z" fill="#F49020"/>
<path d="M12.8058 51.2028L12.7261 51.2521C12.6355 51.1528 12.5122 51.0892 12.3787 51.073C12.1523 51.064 11.9256 51.0793 11.7025 51.1187L8.83685 51.5002L8.79297 51.4294L10.4945 48.9766C10.6261 48.8045 10.7412 48.6204 10.8384 48.4267C10.8576 48.327 10.8394 48.2237 10.7873 48.1366L10.867 48.0864L11.7393 49.4915L11.6596 49.5407L11.63 49.4933C11.5825 49.3994 11.5103 49.3202 11.4213 49.264C11.4014 49.2542 11.3792 49.2498 11.357 49.2514C11.3348 49.253 11.3134 49.2604 11.2951 49.273C11.2646 49.2935 11.2374 49.3185 11.2145 49.3473C11.1858 49.3813 11.116 49.479 11.0022 49.641L9.92761 51.1715L11.5861 50.944C11.7858 50.9154 11.9175 50.8921 11.9811 50.8751C12.0338 50.862 12.0845 50.8415 12.1315 50.8142C12.1715 50.789 12.2028 50.7521 12.2211 50.7085C12.2403 50.6614 12.2447 50.6095 12.2336 50.5599C12.2115 50.4639 12.1721 50.3729 12.1172 50.2912L12.1969 50.241L12.8058 51.2028Z" fill="#F49020"/>
<path d="M11.3117 54.6802L11.2374 54.7375L10.135 53.3046L10.2102 53.2473L10.2801 53.3369C10.3282 53.4058 10.3937 53.4608 10.4699 53.4963C10.5205 53.5166 10.5766 53.5185 10.6284 53.5016C10.7264 53.458 10.8171 53.3994 10.8971 53.3279L12.6935 51.9416C12.7858 51.8797 12.8682 51.8042 12.938 51.7177C12.9628 51.6682 12.9707 51.6119 12.9604 51.5574C12.946 51.4787 12.9111 51.4052 12.8592 51.3443L12.7894 51.2548L12.8637 51.1974L13.9661 52.6303L13.8909 52.6876L13.821 52.5981C13.7731 52.5291 13.7076 52.4743 13.6312 52.4395C13.5802 52.4186 13.5236 52.4158 13.4709 52.4315C13.3728 52.4747 13.2822 52.533 13.2022 52.6043L11.4049 53.9906C11.3128 54.0531 11.2307 54.1292 11.1613 54.2163C11.1368 54.2662 11.1293 54.3228 11.1398 54.3775C11.154 54.456 11.189 54.5292 11.241 54.5897L11.3117 54.6802Z" fill="#F49020"/>
<path d="M14.8176 53.5983L14.4343 56.3054L15.509 55.2854C15.6585 55.143 15.74 55.0257 15.7517 54.9326C15.7678 54.8054 15.7078 54.6738 15.5726 54.5368L15.6406 54.4723L16.4242 55.2998L16.3561 55.3651C16.2812 55.2962 16.1948 55.2407 16.1009 55.2013C16.0392 55.1858 15.9742 55.1909 15.9155 55.2156C15.811 55.2676 15.7164 55.3376 15.6361 55.4225L13.5505 57.3971L13.4913 57.3344L13.9731 53.6627L12.38 55.1708C12.2367 55.3069 12.1707 55.432 12.1821 55.546C12.1932 55.6583 12.2421 55.7635 12.3209 55.8442L12.3764 55.9034L12.3084 55.9678L11.4666 55.0795L11.5355 55.0141C11.6669 55.1508 11.7863 55.2201 11.8937 55.2219C12.0012 55.2236 12.1206 55.1616 12.2519 55.0356L14.0197 53.3618L14.0358 53.2454C14.0536 53.1567 14.0536 53.0654 14.0358 52.9768C14.007 52.9025 13.9635 52.8349 13.9078 52.778L13.9767 52.7135L14.8176 53.5983Z" fill="#F49020"/>
<path d="M19.2362 57.4723L18.475 58.4198L18.4016 58.3607C18.5183 58.0718 18.5448 57.7543 18.4777 57.4499C18.4174 57.1861 18.2697 56.9504 18.0586 56.781C17.8814 56.6284 17.6548 56.5453 17.421 56.5473C17.1799 56.5592 16.9483 56.6449 16.7574 56.7926C16.5387 56.951 16.3423 57.138 16.1735 57.3488C15.9853 57.5751 15.8325 57.8288 15.7204 58.101C15.6273 58.3101 15.6099 58.545 15.6711 58.7655C15.7396 58.9742 15.8698 59.1572 16.0446 59.2903C16.1118 59.3438 16.1841 59.3906 16.2604 59.43C16.3437 59.4718 16.4299 59.5077 16.5183 59.5374L16.9661 58.9777C17.0267 58.9125 17.0753 58.837 17.1094 58.7547C17.1185 58.7014 17.1107 58.6466 17.087 58.598C17.057 58.5306 17.0105 58.4717 16.9517 58.427L16.8819 58.3715L16.941 58.298L18.2485 59.3476L18.1894 59.421C18.1177 59.3648 18.0364 59.3223 17.9494 59.2956C17.8904 59.2854 17.8296 59.2959 17.7774 59.3252C17.7128 59.3722 17.6565 59.4297 17.6108 59.4953L17.1631 60.055C16.9293 59.9931 16.7026 59.9067 16.487 59.7971C16.2646 59.6839 16.0545 59.548 15.8601 59.3915C15.6401 59.2241 15.4546 59.0158 15.3138 58.778C15.204 58.5812 15.1275 58.3676 15.0872 58.1458C15.0489 57.9384 15.0504 57.7257 15.0917 57.5189C15.1496 57.2526 15.2706 57.0042 15.4446 56.7944C15.5946 56.5997 15.7836 56.4384 15.9995 56.3207C16.2153 56.2031 16.4533 56.1317 16.6983 56.1111C16.9509 56.0863 17.206 56.1126 17.4482 56.1886C17.6904 56.2647 17.9148 56.3888 18.1079 56.5535C18.2298 56.6497 18.342 56.7577 18.4428 56.8759C18.5217 56.9755 18.5921 57.0816 18.6532 57.1929C18.7013 57.2851 18.7586 57.3721 18.8243 57.4526C18.863 57.4828 18.9114 57.4977 18.9604 57.4947C19.0363 57.4846 19.1086 57.456 19.1709 57.4114L19.2362 57.4723Z" fill="#F49020"/>
<path d="M23.5415 60.0847L23.4967 60.1671C23.4096 60.1286 23.3134 60.1153 23.2191 60.1286C23.1107 60.1501 22.8994 60.2566 22.5868 60.4465L21.3331 61.1826L20.9301 61.9125C20.8706 62.0069 20.825 62.1095 20.7949 62.2169C20.7932 62.2711 20.8078 62.3244 20.837 62.3701C20.8792 62.434 20.9376 62.4856 21.0062 62.5196L21.1764 62.6092L21.1307 62.6916L19.4292 61.762L19.474 61.6796L19.6325 61.7692C19.7042 61.8134 19.7865 61.8375 19.8707 61.839C19.9256 61.8375 19.9784 61.8173 20.0202 61.7817C20.0938 61.7022 20.1543 61.6115 20.1994 61.5131L20.5316 60.9059V59.2196C20.5316 58.8865 20.5146 58.6814 20.4806 58.6044C20.4397 58.5188 20.3712 58.4494 20.2862 58.4074L20.3319 58.3241L21.7827 59.1184L21.737 59.2008L21.6725 59.1659C21.6117 59.1254 21.5405 59.1033 21.4674 59.1023C21.4485 59.1027 21.4299 59.1076 21.4132 59.1167C21.3966 59.1257 21.3823 59.1386 21.3716 59.1542C21.3423 59.208 21.328 59.3751 21.3286 59.6557V60.9569L22.3728 60.3426C22.6307 60.1939 22.78 60.0829 22.8206 60.0095C22.832 59.9894 22.8379 59.9667 22.8379 59.9436C22.8379 59.9206 22.832 59.8979 22.8206 59.8778C22.7604 59.7843 22.6767 59.7083 22.5779 59.6575L22.6236 59.5751L23.5415 60.0847Z" fill="#F49020"/>
<path d="M25.3347 60.7213C25.8559 60.8969 26.2171 61.2043 26.4183 61.6437C26.517 61.8595 26.5704 62.0933 26.575 62.3305C26.5796 62.5678 26.5354 62.8034 26.4452 63.0229C26.3042 63.4181 26.0321 63.7532 25.6741 63.9721C25.2001 64.2641 24.6741 64.3002 24.0962 64.0805C23.5183 63.8608 23.1442 63.4936 22.9741 62.979C22.8414 62.5706 22.857 62.1286 23.018 61.7306C23.0966 61.5057 23.2211 61.2997 23.3836 61.1255C23.5461 60.9513 23.743 60.8127 23.9618 60.7187C24.1777 60.6215 24.4118 60.5714 24.6486 60.5719C24.8853 60.5724 25.1192 60.6233 25.3347 60.7213ZM25.306 60.8843C25.0105 60.7727 24.7287 60.8381 24.4607 61.0805C24.2422 61.2805 24.0448 61.6118 23.8687 62.0745C23.658 62.6232 23.6001 63.0664 23.695 63.4044C23.7249 63.5181 23.7827 63.6226 23.8633 63.7083C23.9438 63.794 24.0445 63.8582 24.1562 63.8951C24.2996 63.956 24.4589 63.9688 24.6102 63.9318C24.8131 63.8672 24.9915 63.7422 25.1216 63.5736C25.3152 63.3242 25.4665 63.0447 25.5693 62.7461C25.7317 62.3199 25.8135 61.9858 25.8147 61.744C25.8268 61.5472 25.7804 61.3512 25.6813 61.1808C25.5911 61.0443 25.4596 60.9404 25.306 60.8843Z" fill="#F49020"/>
<path d="M27.1843 61.4592L28.9253 61.8559L28.9038 61.9455L28.8142 61.9258C28.7242 61.8977 28.6289 61.8906 28.5357 61.9052C28.4837 61.9198 28.438 61.9513 28.4058 61.9947C28.3511 62.1061 28.313 62.225 28.293 62.3476L27.916 63.9945C27.8479 64.2953 27.8264 64.4995 27.8479 64.607C27.8739 64.7196 27.9325 64.8221 28.0163 64.9016C28.1206 64.9975 28.2496 65.0623 28.3888 65.0888C28.5515 65.1309 28.7229 65.125 28.8823 65.0718C29.0281 65.0211 29.1552 64.9274 29.2467 64.8031C29.3435 64.6733 29.433 64.4306 29.5154 64.0733L29.8288 62.7022C29.8607 62.5942 29.8698 62.4808 29.8557 62.3691C29.844 62.3071 29.8126 62.2506 29.7662 62.2079C29.677 62.1419 29.5737 62.0977 29.4644 62.0789L29.485 61.9894L30.6491 62.258L30.6285 62.3476L30.5587 62.3315C30.4776 62.3088 30.3918 62.3088 30.3106 62.3315C30.2362 62.3557 30.1727 62.4055 30.1315 62.472C30.0833 62.5583 30.0503 62.6522 30.0339 62.7497L29.742 64.0267C29.6872 64.3168 29.5951 64.5985 29.4679 64.8649C29.3524 65.0476 29.1795 65.1868 28.9763 65.2607C28.7411 65.3622 28.4491 65.373 28.1005 65.293C27.8672 65.2521 27.6459 65.1604 27.4521 65.0243C27.2791 64.8966 27.1511 64.7172 27.0867 64.5121C27.0354 64.2815 27.0419 64.0419 27.1055 63.8144L27.4817 62.1676C27.5173 62.0482 27.5342 61.924 27.5318 61.7995C27.5186 61.7447 27.487 61.696 27.4423 61.6616C27.357 61.6054 27.2604 61.569 27.1593 61.555L27.1843 61.4592Z" fill="#F49020"/>
<path d="M35.0089 62.5796L34.9569 63.5119L34.8674 63.5074C34.8434 63.3419 34.7913 63.1817 34.7133 63.0337C34.6489 62.9326 34.5595 62.8499 34.4536 62.7937C34.3473 62.7504 34.2335 62.7285 34.1187 62.7292L33.8599 62.7184L33.7121 65.3755C33.6989 65.4859 33.7028 65.5976 33.7238 65.7068C33.746 65.7579 33.7836 65.8007 33.8312 65.8295C33.901 65.8696 33.98 65.8909 34.0605 65.8913L34.1751 65.8976L34.1698 65.9871L32.3662 65.8868L32.3715 65.7973L32.4862 65.8044C32.5698 65.8126 32.6541 65.7987 32.7306 65.7641C32.7796 65.7388 32.8187 65.6978 32.8417 65.6477C32.8729 65.5447 32.8883 65.4375 32.8874 65.3298L33.0342 62.6728L32.7853 62.6584C32.553 62.6459 32.382 62.6856 32.2721 62.7776C32.1062 62.9271 31.996 63.1285 31.9596 63.3489L31.8638 63.3435L31.9148 62.4113L35.0089 62.5796Z" fill="#F49020"/>
<path d="M37.1161 65.833V65.927L35.3134 65.9978V65.9082L35.428 65.9037C35.5118 65.9044 35.5943 65.8827 35.6671 65.841C35.7135 65.8118 35.7481 65.767 35.7647 65.7148C35.786 65.609 35.7911 65.5006 35.7799 65.3933L35.6904 63.1258C35.6929 63.0145 35.679 62.9035 35.6492 62.7962C35.6232 62.7474 35.582 62.7084 35.5319 62.6852C35.4593 62.652 35.3794 62.6381 35.2999 62.6449H35.1853V62.5553L36.988 62.4846V62.5741L36.8734 62.5786C36.7895 62.578 36.707 62.5996 36.6343 62.6413C36.5877 62.6708 36.5526 62.7154 36.5349 62.7676C36.5131 62.8733 36.508 62.9818 36.5196 63.0891L36.6092 65.3566C36.6068 65.4679 36.621 65.579 36.6513 65.6861C36.6785 65.7346 36.7202 65.7734 36.7704 65.7972C36.8429 65.8304 36.9228 65.8442 37.0023 65.8375L37.1161 65.833Z" fill="#F49020"/>
<path d="M39.7792 64.4262L40.3398 62.0316L41.7261 61.8068L41.7413 61.8964L41.6303 61.9143C41.5464 61.9233 41.4665 61.9542 41.3983 62.0038C41.3573 62.0386 41.3287 62.0857 41.3168 62.1382C41.308 62.245 41.3159 62.3525 41.3401 62.457L41.7037 64.7021C41.7141 64.8127 41.7413 64.9211 41.7843 65.0236C41.816 65.0695 41.8625 65.1033 41.9159 65.1194C41.9923 65.1442 42.0738 65.1486 42.1524 65.1319L42.2625 65.114L42.2777 65.2036L40.4992 65.491L40.4849 65.4015L40.595 65.3836C40.6791 65.3745 40.7594 65.3437 40.8279 65.294C40.8687 65.2582 40.897 65.2101 40.9085 65.157C40.9173 65.0496 40.9094 64.9414 40.8852 64.8364L40.4777 62.3164L39.6717 65.6298L39.6109 65.6388L37.7858 62.7731L38.1744 65.1713C38.1872 65.2749 38.2082 65.3773 38.2371 65.4776C38.2719 65.5563 38.3339 65.6199 38.4117 65.6567C38.5258 65.7014 38.6509 65.7099 38.7699 65.6809L38.7852 65.7704L37.621 65.9594L37.6058 65.8698L37.6407 65.8645C37.7131 65.8551 37.7829 65.831 37.8458 65.7937C37.9005 65.7638 37.946 65.7195 37.9774 65.6657C38.0065 65.6042 38.023 65.5375 38.0258 65.4695C38.0258 65.4507 38.0141 65.3648 37.989 65.2125L37.6398 63.0579C37.6291 62.9485 37.6022 62.8414 37.5601 62.74C37.5282 62.6948 37.4822 62.6614 37.4293 62.645C37.3526 62.6206 37.2708 62.6166 37.192 62.6334L37.0846 62.6504L37.0693 62.5609L38.461 62.3352L39.7792 64.4262Z" fill="#F49020"/>
<path d="M43.043 61.5399L43.4693 62.8778L43.5346 62.8572C43.7436 62.791 43.8737 62.6772 43.9251 62.516C43.9774 62.3071 43.9756 62.0882 43.9197 61.8802L44.0093 61.8507L44.5582 63.571L44.4687 63.6005C44.4062 63.4447 44.3151 63.3019 44.2 63.1796C44.123 63.0924 44.0201 63.0321 43.9063 63.0077C43.778 62.9963 43.6488 63.0141 43.5284 63.0596L43.823 63.9856C43.8528 64.0987 43.8961 64.2079 43.952 64.3107C43.9824 64.3469 44.024 64.372 44.0702 64.3823C44.1431 64.3925 44.2175 64.3835 44.286 64.3563L44.4821 64.2937C44.7525 64.2334 44.9906 64.0744 45.1499 63.8478C45.3093 63.6213 45.3783 63.3434 45.3436 63.0686L45.4332 63.0399L45.6176 64.1316L42.777 65.037L42.7484 64.9474L42.8576 64.9125C42.9385 64.8907 43.0123 64.8481 43.0716 64.7889C43.1083 64.7481 43.1295 64.6959 43.1316 64.6411C43.1244 64.5336 43.1006 64.4279 43.0609 64.3277L42.3713 62.165C42.3453 62.073 42.3121 61.9831 42.2719 61.8963C42.2416 61.8477 42.1949 61.8115 42.1403 61.7942C42.0503 61.7688 41.9545 61.7732 41.8672 61.8068L41.7579 61.8417L41.7292 61.7521L44.4803 60.8754L44.7902 61.8471L44.7006 61.8766C44.618 61.7013 44.4953 61.548 44.3424 61.4289C44.2125 61.3493 44.062 61.31 43.9099 61.316C43.7312 61.3327 43.5554 61.3724 43.3869 61.4342L43.043 61.5399Z" fill="#F49020"/>
<path d="M49.2172 60.1608L50.1495 59.6611L50.1969 59.7507C50.1127 59.8074 50.0448 59.8852 49.9999 59.9763C49.9556 60.1231 49.9366 60.2763 49.9435 60.4295C49.9351 60.6959 49.9034 60.9611 49.8486 61.222C50.0205 61.2701 50.197 61.3001 50.3751 61.3116C50.454 61.3146 50.5323 61.2973 50.6026 61.2614C50.7128 61.2023 50.7746 61.076 50.7862 60.8826H50.9044C50.9211 61.1298 50.8813 61.3776 50.788 61.6071C50.7228 61.7396 50.6171 61.8478 50.4862 61.9161C50.3711 61.9782 50.2434 62.0134 50.1128 62.019C49.931 62.02 49.7501 61.9949 49.5754 61.9447C49.4734 62.1456 49.3454 62.3323 49.1948 62.4999C49.0598 62.6446 48.9015 62.7657 48.7265 62.8581C48.4429 63.0104 48.176 63.0546 47.9259 62.9907C47.8114 62.9662 47.7036 62.9171 47.6101 62.8467C47.5165 62.7763 47.4394 62.6864 47.3841 62.5832C47.3243 62.4749 47.2869 62.3556 47.2742 62.2326C47.2614 62.1095 47.2735 61.9851 47.3097 61.8668C47.4064 61.5683 47.5651 61.2936 47.7754 61.0608C47.6887 60.9888 47.6084 60.9094 47.5354 60.8235C47.469 60.7452 47.4108 60.6603 47.3617 60.5701C47.2991 60.4598 47.2607 60.3374 47.249 60.2111C47.2372 60.0848 47.2524 59.9575 47.2936 59.8375C47.3812 59.5819 47.5668 59.3716 47.8095 59.2527C47.9848 59.146 48.1929 59.1065 48.3951 59.1417C48.4751 59.1547 48.5512 59.1856 48.6176 59.2321C48.6839 59.2786 48.7389 59.3396 48.7784 59.4104C48.8232 59.4918 48.8502 59.5818 48.8576 59.6744C48.865 59.767 48.8527 59.8602 48.8214 59.9477C48.7252 60.1907 48.5818 60.4122 48.3996 60.5996C48.7937 60.8366 49.2146 61.026 49.6533 61.1638C49.7405 60.799 49.7369 60.5286 49.6426 60.3525C49.6271 60.3224 49.6057 60.2959 49.5797 60.2743C49.5537 60.2528 49.5236 60.2367 49.4913 60.2271C49.4134 60.2072 49.3311 60.2151 49.2584 60.2495L49.2172 60.1608ZM48.2527 60.5056C48.3538 60.4064 48.4281 60.2831 48.4686 60.1474C48.4862 60.0497 48.469 59.949 48.4202 59.8626C48.3437 59.7082 48.2175 59.5839 48.062 59.5098C48.0193 59.4874 47.9718 59.4757 47.9236 59.4757C47.8754 59.4757 47.828 59.4874 47.7853 59.5098C47.7512 59.5281 47.7214 59.5536 47.6981 59.5845C47.6747 59.6154 47.6583 59.651 47.65 59.6889C47.6299 59.7808 47.6459 59.8771 47.6948 59.9575C47.7387 60.0366 47.7932 60.1092 47.8569 60.1734C47.9819 60.2921 48.1141 60.4031 48.2527 60.5056ZM47.9169 61.171C47.8404 61.2567 47.7835 61.3582 47.7503 61.4683C47.7244 61.5823 47.7403 61.7018 47.7951 61.805C47.8767 61.9534 47.9967 62.0771 48.1426 62.1632C48.2842 62.253 48.4444 62.3093 48.611 62.328C48.7506 62.3451 48.8922 62.3202 49.0175 62.2564C49.082 62.2194 49.1401 62.1722 49.1895 62.1167C49.2541 62.0438 49.3117 61.9649 49.3614 61.8811C48.8445 61.7245 48.3566 61.4846 47.9169 61.171Z" fill="#F49020"/>
<path d="M54.0238 57.8619L53.2743 55.5192L54.3489 54.6147L54.4098 54.6864L54.3202 54.7589C54.2529 54.8102 54.2003 54.8785 54.168 54.9568C54.1513 55.0077 54.1513 55.0626 54.168 55.1135C54.215 55.2098 54.277 55.2981 54.3516 55.375L55.8176 57.1141C55.8833 57.2036 55.9621 57.2827 56.0513 57.3488C56.1021 57.3717 56.1592 57.3771 56.2134 57.364C56.2916 57.3455 56.3637 57.3073 56.4229 57.253L56.508 57.1804L56.5689 57.2521L55.1916 58.4162L55.1307 58.3446L55.2202 58.273C55.2877 58.2213 55.3402 58.1527 55.3725 58.0742C55.39 58.0228 55.39 57.967 55.3725 57.9156C55.3248 57.8188 55.2622 57.7299 55.1871 57.6524L53.5402 55.6974L54.5531 58.9571L54.5065 58.9966L51.4662 57.4742L53.0325 59.3315C53.0969 59.4138 53.1675 59.491 53.2438 59.5625C53.314 59.6132 53.4003 59.6368 53.4865 59.6288C53.6066 59.608 53.7174 59.5512 53.8044 59.4658L53.8644 59.5383L52.9617 60.2986L52.9017 60.227L52.9286 60.2037C52.9859 60.1586 53.0335 60.1022 53.0683 60.0381C53.1002 59.9839 53.1163 59.9218 53.1149 59.8589C53.1085 59.7911 53.0884 59.7253 53.0557 59.6655C53.0459 59.6494 52.9922 59.5822 52.8928 59.464L51.4859 57.793C51.4203 57.7048 51.3421 57.6266 51.2539 57.561C51.203 57.5396 51.1465 57.5349 51.0927 57.5476C51.0146 57.5661 50.9424 57.6043 50.8832 57.6586L50.7999 57.7294L50.739 57.6568L51.8136 56.7488L54.0238 57.8619Z" fill="#F49020"/>
<path d="M55.5432 53.1102C55.8883 52.6809 56.3017 52.4484 56.7835 52.4126C57.0201 52.394 57.2579 52.4241 57.4824 52.5011C57.7068 52.5781 57.913 52.7004 58.0883 52.8603C58.408 53.1288 58.6268 53.498 58.7089 53.9072C58.82 54.4529 58.6728 54.9604 58.2674 55.4296C57.862 55.8989 57.3889 56.1237 56.848 56.104C56.4189 56.088 56.0092 55.9212 55.691 55.6329C55.5067 55.4819 55.3558 55.2942 55.2479 55.0818C55.14 54.8693 55.0774 54.6368 55.0641 54.3989C55.0476 54.1623 55.0818 53.925 55.1644 53.7028C55.247 53.4805 55.3762 53.2785 55.5432 53.1102ZM55.6865 53.1935C55.4793 53.4323 55.4438 53.7192 55.5799 54.0541C55.6922 54.3281 55.9355 54.6266 56.3098 54.9496C56.754 55.3347 57.1504 55.5416 57.499 55.5702C57.6165 55.5806 57.7348 55.5614 57.843 55.5145C57.9512 55.4676 58.046 55.3944 58.1188 55.3016C58.2246 55.1871 58.2911 55.0418 58.3086 54.8869C58.3172 54.6736 58.2597 54.4627 58.1438 54.2833C57.9762 54.016 57.766 53.7779 57.5214 53.5786C57.177 53.2801 56.8913 53.0884 56.6644 53.0036C56.4838 52.9242 56.2837 52.9002 56.0895 52.9347C55.9308 52.9754 55.7895 53.0662 55.6865 53.1935Z" fill="#F49020"/>
<path d="M57.5166 50.6413L60.2381 50.3834L58.996 49.5774C58.8223 49.4646 58.6889 49.4129 58.5957 49.4225C58.4686 49.4377 58.3548 49.5255 58.2527 49.6911L58.1739 49.6392L58.7963 48.6845L58.8751 48.7356C58.8252 48.8245 58.7912 48.9215 58.7748 49.0222C58.7741 49.0866 58.7945 49.1496 58.833 49.2013C58.9082 49.2916 58.9993 49.3675 59.1017 49.4252L61.5044 50.987L61.4578 51.0595L57.7772 51.4455L59.6148 52.6428C59.7805 52.7512 59.9175 52.787 60.0259 52.7485C60.1324 52.7117 60.2231 52.6397 60.2829 52.5443L60.3277 52.4762L60.4065 52.5273L59.7384 53.5527L59.6596 53.5016C59.7617 53.3413 59.8011 53.2097 59.7778 53.1049C59.7545 53.0001 59.6668 52.8989 59.5092 52.7986L57.47 51.4688L57.3527 51.4813C57.2637 51.4847 57.1763 51.506 57.0957 51.544C57.0263 51.5907 56.9677 51.6518 56.9238 51.7231L56.845 51.6711L57.5166 50.6413Z" fill="#F49020"/>
<path d="M59.5753 47.5159L60.8389 48.1276L60.8694 48.0658C60.9643 47.8688 60.9715 47.6962 60.8909 47.5482C60.7753 47.366 60.615 47.2164 60.4252 47.1139L60.4673 47.0243L62.0936 47.8106L62.0515 47.9001C61.8951 47.8387 61.7287 47.8065 61.5607 47.8052C61.4442 47.8019 61.3296 47.8351 61.233 47.9001C61.137 47.9861 61.0611 48.0922 61.0109 48.2109L61.8858 48.6336C61.9881 48.6903 62.097 48.7342 62.21 48.7643C62.2572 48.7675 62.3041 48.7549 62.3434 48.7285C62.4006 48.682 62.4452 48.622 62.4733 48.5539L62.5628 48.3676C62.7049 48.13 62.7533 47.848 62.6987 47.5766C62.644 47.3052 62.4902 47.0639 62.2673 46.8998L62.3076 46.8103L63.2246 47.4318L61.9261 50.1184L61.8419 50.0781L61.8912 49.9742C61.9312 49.9007 61.951 49.8178 61.9485 49.7342C61.9445 49.6796 61.9213 49.6282 61.8831 49.5891C61.8 49.5201 61.7066 49.4645 61.6064 49.4243L59.5637 48.4392C59.4787 48.3943 59.3904 48.356 59.2995 48.3246C59.2433 48.3139 59.1852 48.3228 59.1347 48.3497C59.0542 48.3979 58.9914 48.4707 58.9556 48.5574L58.9082 48.6586L58.824 48.6174L60.0777 46.0204L60.9956 46.4682L60.9535 46.5577C60.7689 46.4971 60.5725 46.4809 60.3804 46.5103C60.2332 46.5497 60.1011 46.632 60.0007 46.7467C59.8894 46.8873 59.7973 47.0421 59.7267 47.207L59.5753 47.5159Z" fill="#F49020"/>
<path d="M61.4158 42.2162L61.5054 42.2458C61.4827 42.3384 61.4867 42.4356 61.517 42.5261C61.5576 42.6294 61.6991 42.818 61.9415 43.092L62.889 44.1971L63.6806 44.4658C63.784 44.5076 63.8929 44.5342 64.0039 44.5446C64.058 44.5372 64.1084 44.5131 64.1481 44.4756C64.2036 44.4232 64.2439 44.3567 64.2645 44.2831L64.3263 44.0995L64.4158 44.1291L63.8015 45.9649L63.712 45.9353L63.7693 45.7643C63.8 45.6861 63.8089 45.601 63.7952 45.518C63.7842 45.464 63.7552 45.4154 63.7129 45.3801C63.6214 45.3226 63.5218 45.2795 63.4173 45.2521L62.7609 45.0327L61.1024 45.3336C60.7746 45.3933 60.5755 45.4467 60.5051 45.4939C60.4285 45.5491 60.3724 45.6281 60.3457 45.7186L60.2561 45.6891L60.7809 44.121L60.8704 44.1506L60.8463 44.2204C60.8172 44.2875 60.8085 44.3616 60.8212 44.4335C60.8243 44.4529 60.8322 44.4712 60.8441 44.4868C60.8559 44.5024 60.8714 44.5149 60.8892 44.5231C60.9466 44.5419 61.114 44.5231 61.3898 44.4756L62.6714 44.2473L61.8815 43.3213C61.689 43.0938 61.5537 42.9676 61.4749 42.9407C61.4528 42.9337 61.4292 42.9325 61.4065 42.9373C61.3838 42.942 61.3626 42.9524 61.3451 42.9676C61.2636 43.0431 61.2036 43.1389 61.1713 43.2452L61.0818 43.2147L61.4158 42.2162Z" fill="#F49020"/>
<path d="M6.49803 26.5622L7.71058 26.9634C7.94431 27.0404 8.09655 27.0754 8.1664 27.0664C8.24145 27.0552 8.31037 27.0185 8.36163 26.9625C8.44987 26.8476 8.51385 26.716 8.54969 26.5757L8.6679 26.6142L7.93625 28.8288L7.81804 28.7894C7.87364 28.6546 7.90048 28.5098 7.89685 28.364C7.88717 28.2894 7.85355 28.22 7.80102 28.1661C7.75088 28.1178 7.60938 28.0551 7.37475 27.9781L4.56727 27.0494C4.33353 26.9724 4.18129 26.9374 4.11144 26.9464C4.03632 26.9574 3.96734 26.9941 3.91622 27.0503C3.82789 27.1641 3.76388 27.2949 3.72815 27.4345L3.61084 27.3951L4.27532 25.3855C4.44846 24.8625 4.61115 24.4918 4.76339 24.2732C4.90859 24.0605 5.11735 23.899 5.35981 23.812C5.60564 23.7242 5.87429 23.7242 6.12011 23.812C6.27031 23.8574 6.40876 23.9351 6.52572 24.0397C6.64268 24.1443 6.73532 24.2732 6.79714 24.4174C6.88487 24.6454 6.91561 24.8913 6.88669 25.1339L8.69476 24.5786C8.84967 24.5365 8.99975 24.4783 9.14253 24.4049C9.23807 24.3389 9.31093 24.2451 9.35119 24.1362L9.4694 24.1756L9.02163 25.5377L6.58937 26.2792L6.49803 26.5622ZM4.37741 25.861L6.27146 26.4879L6.33236 26.3088C6.41597 26.0878 6.46256 25.8545 6.47027 25.6183C6.46457 25.4541 6.40115 25.2971 6.29116 25.175C6.15112 25.0281 5.97423 24.9214 5.77892 24.8661C5.44936 24.7568 5.1807 24.7533 4.97294 24.8553C4.76518 24.9574 4.60458 25.1798 4.49115 25.5225L4.37741 25.861Z" fill="white"/>
<path d="M10.4608 22.0783L10.5727 22.133L9.53032 24.2751L9.41927 24.2204L9.48465 24.0843C9.53769 23.987 9.56396 23.8773 9.56077 23.7664C9.55457 23.6942 9.52282 23.6266 9.47121 23.5757C9.36177 23.4844 9.23881 23.4107 9.10673 23.3572L6.41119 22.0461C6.28329 21.9743 6.14577 21.9213 6.00283 21.8885C5.92952 21.8888 5.85826 21.9127 5.79954 21.9565C5.71545 22.02 5.64939 22.1042 5.6079 22.201L5.54163 22.3371L5.42969 22.2825L6.47477 20.1404L6.58671 20.195L6.52044 20.3312C6.46807 20.4288 6.44184 20.5383 6.44432 20.6491C6.45153 20.7221 6.48307 20.7905 6.53388 20.8434C6.64273 20.9341 6.76472 21.0078 6.89567 21.0619L9.59122 22.3721C9.71866 22.4451 9.85675 22.4976 10.0005 22.5279C10.0741 22.5272 10.1457 22.503 10.2047 22.4589C10.2887 22.3955 10.3548 22.3113 10.3963 22.2145L10.4608 22.0783Z" fill="white"/>
<path d="M9.26616 15.5366L10.5987 16.4321L10.5298 16.5351C10.0814 16.4157 9.6787 16.4157 9.32168 16.5351C8.98123 16.6444 8.68754 16.8653 8.48794 17.162C8.30573 17.4133 8.22193 17.7226 8.25242 18.0315C8.29468 18.3474 8.4332 18.6426 8.64914 18.8769C8.88197 19.1468 9.15005 19.3842 9.44616 19.5826C9.76533 19.8032 10.1158 19.9747 10.4859 20.0912C10.7716 20.19 11.0827 20.1866 11.3662 20.0814C11.6332 19.9683 11.8595 19.7769 12.0154 19.5324C12.0783 19.4379 12.1316 19.3374 12.1748 19.2324C12.2213 19.1182 12.2588 19.0006 12.2868 18.8805L11.5005 18.3521C11.4077 18.2804 11.3031 18.2253 11.1916 18.1891C11.1206 18.1829 11.0494 18.1992 10.9883 18.2357C10.9028 18.2828 10.8307 18.3509 10.7787 18.4336L10.7124 18.5312L10.6095 18.4614L11.8444 16.6237L11.9483 16.6936C11.8815 16.7937 11.8344 16.9055 11.8095 17.0232C11.8023 17.102 11.8229 17.1809 11.8677 17.2461C11.9366 17.326 12.0187 17.3936 12.1104 17.4458L12.8966 17.9742C12.8419 18.289 12.7536 18.597 12.6334 18.893C12.509 19.1975 12.3535 19.4883 12.1695 19.7608C11.9739 20.0717 11.72 20.3417 11.4217 20.556C11.1755 20.7231 10.9031 20.8478 10.6157 20.925C10.3479 20.9983 10.0687 21.0202 9.79273 20.9895C9.43606 20.9424 9.09584 20.8107 8.80048 20.6053C8.52831 20.4299 8.29546 20.2001 8.11665 19.9302C7.93785 19.6603 7.81697 19.3562 7.76167 19.0372C7.63809 18.3757 7.77988 17.742 8.18705 17.136C8.3 16.9645 8.42926 16.8044 8.57302 16.6578C8.6959 16.5436 8.82766 16.4394 8.96705 16.3461C9.08296 16.2726 9.19099 16.1874 9.28944 16.0918C9.32525 16.0378 9.33961 15.9723 9.32974 15.9082C9.30862 15.8089 9.26272 15.7164 9.19631 15.6396L9.26616 15.5366Z" fill="white"/>
<path d="M13.1016 14.9096L14.1091 15.8947C14.2066 16.0047 14.3208 16.0987 14.4476 16.1732C14.5175 16.1957 14.5927 16.1957 14.6625 16.1732C14.7623 16.1393 14.8517 16.0804 14.9222 16.0022L15.0279 15.8938L15.1175 15.9833L13.4491 17.6849L13.3595 17.5953L13.4661 17.4869C13.5471 17.4116 13.6068 17.3161 13.639 17.2102C13.6571 17.1404 13.6498 17.0665 13.6184 17.0016C13.5435 16.8803 13.4505 16.7713 13.3425 16.6783L11.2031 14.5801C11.105 14.4707 10.9912 14.3766 10.8655 14.3006C10.796 14.2776 10.7209 14.2776 10.6515 14.3006C10.5517 14.3345 10.4623 14.3934 10.3918 14.4717L10.2861 14.5801L10.1965 14.4905L11.8658 12.789L11.9554 12.8785L11.8497 12.9869C11.7683 13.0622 11.7084 13.1576 11.6759 13.2636C11.6577 13.3341 11.6643 13.4088 11.6948 13.475C11.7693 13.5965 11.8623 13.7056 11.9706 13.7983L12.8957 14.7027L14.0187 13.5538L13.098 12.6493C13 12.54 12.8862 12.4458 12.7604 12.3699C12.6907 12.3465 12.6152 12.3465 12.5455 12.3699C12.4455 12.4043 12.3559 12.4635 12.2849 12.5418L12.1792 12.6493L12.0897 12.5597L13.7563 10.8582L13.8458 10.9478L13.7428 11.0535C13.661 11.1283 13.601 11.2239 13.5691 11.3302C13.5517 11.4008 13.5583 11.4751 13.5879 11.5415C13.6624 11.663 13.7555 11.7721 13.8637 11.8648L16.0023 13.9648C16.1003 14.0742 16.2141 14.1683 16.3399 14.2442C16.4095 14.2681 16.4851 14.2681 16.5548 14.2442C16.6552 14.2106 16.745 14.1513 16.8154 14.0723L16.9193 13.9666L17.0088 14.0562L15.3422 15.7532L15.2527 15.6636L15.3557 15.558C15.437 15.4827 15.497 15.3872 15.5294 15.2813C15.5472 15.2107 15.5406 15.1362 15.5106 15.0699C15.4361 14.9484 15.343 14.8393 15.2348 14.7466L14.2282 13.7615L13.1016 14.9096Z" fill="white"/>
<path d="M17.8457 7.87878L18.5621 8.88088L18.4636 8.95073C18.3013 8.80095 18.1148 8.67982 17.912 8.59252C17.7624 8.5419 17.6023 8.5308 17.4472 8.56028C17.3016 8.60395 17.1661 8.6761 17.0487 8.77252L16.7728 8.97044L18.8236 11.8245C18.9015 11.9493 18.9982 12.0614 19.1102 12.1567C19.1751 12.1907 19.2491 12.2032 19.3215 12.1926C19.4271 12.1766 19.5266 12.133 19.6099 12.0663L19.7326 11.9767L19.8051 12.0779L17.8681 13.4696L17.7955 13.3693L17.9182 13.2797C18.011 13.2192 18.0861 13.1351 18.1358 13.0361C18.1658 12.9698 18.1722 12.8952 18.1538 12.8248C18.1008 12.6925 18.0277 12.5693 17.937 12.4594L15.8863 9.60537L15.6176 9.79791C15.3687 9.97701 15.2257 10.1597 15.1887 10.346C15.1412 10.6373 15.1953 10.936 15.3418 11.1922L15.2379 11.2666L14.5215 10.2654L17.8457 7.87878Z" fill="white"/>
<path d="M22.7598 7.98897L23.3034 9.29197C23.3512 9.43078 23.4197 9.56153 23.5067 9.67973C23.5626 9.72766 23.6322 9.75679 23.7055 9.76302C23.8105 9.77055 23.9156 9.75113 24.0109 9.7066L24.1506 9.64839L24.199 9.76302L22.0004 10.68L21.9521 10.5645L22.0918 10.5072C22.1962 10.4691 22.2889 10.4042 22.3604 10.3191C22.4036 10.2614 22.4254 10.1905 22.4222 10.1185C22.4001 9.97783 22.3567 9.84132 22.2933 9.71376L21.1389 6.94747C21.0909 6.80869 21.0227 6.67773 20.9365 6.55881C20.8819 6.50988 20.8127 6.4803 20.7395 6.47463C20.6345 6.46701 20.5293 6.48676 20.4342 6.53195L20.2945 6.59016L20.2461 6.47911L22.4446 5.56119L22.493 5.67671L22.3533 5.73492C22.2485 5.77239 22.1557 5.83734 22.0846 5.92299C22.0422 5.98013 22.0198 6.04972 22.021 6.1209C22.0422 6.26183 22.0857 6.39848 22.15 6.52568L22.6461 7.71673L24.1318 7.09703L23.6348 5.90597C23.5869 5.76711 23.5187 5.63613 23.4324 5.51731C23.3772 5.46886 23.3077 5.43964 23.2345 5.43403C23.1281 5.42743 23.0217 5.44808 22.9255 5.49403L22.7894 5.55134L22.7464 5.43403L24.9378 4.5179L24.9861 4.63253L24.8491 4.68984C24.7443 4.72723 24.6515 4.79219 24.5805 4.8779C24.5363 4.93562 24.5132 5.00673 24.5151 5.0794C24.5372 5.22011 24.5807 5.35662 24.644 5.48418L25.7975 8.25047C25.8455 8.38925 25.9137 8.52021 25.9999 8.63913C26.0549 8.68845 26.1249 8.71779 26.1987 8.72241C26.3043 8.73006 26.4101 8.71032 26.5058 8.6651L26.642 8.60778L26.6903 8.72331L24.4945 9.63854L24.4479 9.52391L24.584 9.4666C24.6891 9.4297 24.7821 9.36465 24.8527 9.27854C24.8962 9.22054 24.919 9.14955 24.9172 9.07704C24.896 8.93611 24.8525 8.79946 24.7882 8.67226L24.2455 7.37464L22.7598 7.98897Z" fill="white"/>
<path d="M27.9702 6.33053L28.2389 7.578C28.2917 7.8189 28.3392 7.96756 28.3831 8.02577C28.431 8.08436 28.4972 8.12507 28.5712 8.14129C28.7151 8.1584 28.861 8.14622 29.0001 8.10547L29.027 8.22726L26.7487 8.72518L26.7228 8.60339C26.8694 8.58142 27.0097 8.52895 27.1347 8.44935C27.1934 8.40415 27.236 8.3414 27.2565 8.27025C27.2726 8.20308 27.2565 8.04905 27.2019 7.80815L26.5705 4.91917C26.5177 4.67917 26.4702 4.53051 26.4264 4.47141C26.379 4.41221 26.3125 4.37135 26.2383 4.35589C26.0944 4.33892 25.9486 4.3508 25.8093 4.39081L25.7825 4.26992L27.8511 3.81946C28.3885 3.70006 28.7906 3.6511 29.0574 3.6726C29.3144 3.68942 29.5594 3.78688 29.7577 3.95111C29.9591 4.11731 30.097 4.34789 30.1482 4.60395C30.1852 4.75654 30.1884 4.91539 30.1575 5.06934C30.1265 5.22329 30.0622 5.36858 29.9691 5.495C29.8193 5.68813 29.6248 5.84182 29.4022 5.94277L30.801 7.21531C30.9165 7.32792 31.0435 7.42817 31.1798 7.51442C31.2847 7.56285 31.402 7.57785 31.5157 7.55741L31.5425 7.6792L30.141 7.98547L28.2604 6.27053L27.9702 6.33053ZM27.4929 4.15081L27.9192 6.10038L28.1064 6.06008C28.3393 6.01951 28.5638 5.94053 28.7709 5.82635C28.9095 5.73812 29.0123 5.60357 29.061 5.44664C29.1163 5.25161 29.1181 5.04531 29.0664 4.84932C28.9924 4.50962 28.8583 4.27648 28.6643 4.14991C28.4703 4.02335 28.1968 3.99797 27.844 4.07379L27.4929 4.15081Z" fill="white"/>
<path d="M36.1232 2.89693L36.1841 4.41933H36.047C35.9911 4.06821 35.8166 3.74683 35.5527 3.50857C35.3293 3.29444 35.032 3.17478 34.7225 3.17454C34.5255 3.1671 34.3331 3.23572 34.1852 3.36618C34.1236 3.4187 34.0741 3.48407 34.0404 3.5577C34.0067 3.63134 33.9895 3.71147 33.99 3.79246C33.9898 3.88724 34.0158 3.98023 34.0652 4.06112C34.1497 4.1833 34.2575 4.28767 34.3822 4.36828C34.6195 4.5099 34.8651 4.63729 35.1175 4.74978C35.6548 5.00351 36.0184 5.24501 36.2082 5.47426C36.3936 5.69793 36.4955 5.97902 36.4966 6.26949C36.5006 6.4556 36.4643 6.64037 36.3903 6.81116C36.3162 6.98196 36.2062 7.13474 36.0676 7.25905C35.7632 7.54317 35.36 7.69738 34.9437 7.68891C34.807 7.69206 34.6703 7.67974 34.5363 7.65219C34.3713 7.6133 34.2099 7.56088 34.0536 7.49547C33.9689 7.45737 33.8777 7.43608 33.7849 7.43279C33.7196 7.43775 33.6573 7.46207 33.6058 7.50264C33.5357 7.55578 33.4823 7.62787 33.4518 7.7104H33.3273L33.2995 5.99009H33.4231C33.53 6.47308 33.7258 6.83905 34.0106 7.08801C34.2581 7.32162 34.5855 7.45171 34.9258 7.45159C35.1449 7.45975 35.3587 7.38272 35.5223 7.23667C35.6333 7.14064 35.7064 7.00813 35.7284 6.86299C35.7504 6.71786 35.7198 6.56963 35.6423 6.44502C35.5722 6.33392 35.4809 6.23775 35.3736 6.16203C35.1755 6.02859 34.9657 5.91349 34.7467 5.81815C34.4328 5.67947 34.1329 5.51093 33.8512 5.31486C33.6786 5.18734 33.5336 5.02619 33.4249 4.84112C33.3241 4.66358 33.2705 4.46318 33.2691 4.25903C33.2639 4.08501 33.2956 3.91185 33.3619 3.75089C33.4283 3.58994 33.5279 3.4448 33.6542 3.32499C33.7864 3.19485 33.9431 3.09228 34.1153 3.02325C34.2875 2.95422 34.4717 2.92011 34.6572 2.9229C34.8022 2.92052 34.9469 2.93646 35.0879 2.97036C35.2211 3.0054 35.3507 3.05308 35.4748 3.11275C35.5739 3.16738 35.6823 3.20292 35.7945 3.21753C35.82 3.21844 35.8455 3.21388 35.8691 3.20415C35.8927 3.19442 35.914 3.17974 35.9315 3.16111C35.9806 3.08244 36.0113 2.99364 36.0211 2.9014L36.1232 2.89693Z" fill="white"/>
<path d="M39.964 3.33942C40.6852 3.42479 41.2353 3.7233 41.6144 4.23495C41.8016 4.48636 41.9349 4.77364 42.0061 5.07887C42.0773 5.3841 42.0848 5.70073 42.0282 6.00899C41.9535 6.55623 41.6945 7.06166 41.2938 7.44184C40.7619 7.94871 40.092 8.13946 39.2843 8.01408C38.4765 7.88871 37.8926 7.51736 37.5326 6.90004C37.2491 6.40873 37.148 5.83319 37.2469 5.27466C37.287 4.96281 37.3913 4.66267 37.5533 4.39321C37.7153 4.12376 37.9315 3.89087 38.1881 3.70927C38.4408 3.52478 38.7299 3.39636 39.0361 3.33257C39.3424 3.26879 39.6587 3.27112 39.964 3.33942ZM39.9711 3.55793C39.5592 3.49405 39.2132 3.65584 38.9332 4.0433C38.7046 4.36211 38.5404 4.8445 38.4407 5.49048C38.3213 6.25884 38.3684 6.84751 38.5822 7.25647C38.6524 7.39517 38.7561 7.51422 38.8838 7.60286C39.0115 7.6915 39.1593 7.74696 39.3138 7.76423C39.5158 7.80276 39.7249 7.77545 39.9102 7.68632C40.127 7.57527 40.3138 7.37229 40.4708 7.07736C40.6515 6.70195 40.7701 6.2997 40.8219 5.8863C40.9144 5.28928 40.9279 4.83525 40.8622 4.5242C40.7977 4.21166 40.6885 3.98062 40.5362 3.83285C40.3818 3.68362 40.1839 3.58734 39.9711 3.55793Z" fill="white"/>
<path d="M46.3601 8.18503L45.6848 9.64475L41.8538 8.34533L41.8941 8.22802L42.0364 8.27638C42.1398 8.31658 42.2519 8.32893 42.3615 8.3122C42.4323 8.29822 42.4958 8.25949 42.5406 8.20294C42.6176 8.08281 42.6753 7.95137 42.7117 7.81339L43.6744 4.97545C43.7297 4.83949 43.765 4.6962 43.7791 4.55008C43.7707 4.47769 43.7393 4.4099 43.6896 4.35664C43.6155 4.28099 43.5229 4.22603 43.4209 4.19724L43.2777 4.14888L43.3171 4.03067L45.6177 4.81068L45.5783 4.92889L45.3902 4.8653C45.2869 4.82481 45.1748 4.81245 45.0651 4.82948C44.995 4.84455 44.9319 4.8827 44.886 4.93784C44.809 5.05798 44.7513 5.18942 44.715 5.3274L43.7791 8.07578C43.7227 8.21482 43.6874 8.36152 43.6744 8.51101C43.6782 8.54735 43.6893 8.58253 43.7072 8.6144C43.7251 8.64627 43.7492 8.67417 43.7783 8.69638C43.8948 8.76527 44.0197 8.81885 44.1499 8.85579L44.5081 8.97758C44.7039 9.05158 44.9147 9.07678 45.1224 9.05101C45.3174 9.01766 45.5003 8.93366 45.6526 8.80743C45.874 8.61309 46.0683 8.3899 46.2302 8.14384L46.3601 8.18503Z" fill="white"/>
<path d="M48.2211 5.7564L50.2924 6.87044L50.2333 6.97969L50.1304 6.92686C50.0251 6.86038 49.9064 6.81816 49.7829 6.80328C49.7114 6.80289 49.6419 6.8269 49.5859 6.87134C49.5303 6.91522 49.4417 7.05044 49.3172 7.28059L48.2623 9.2427C48.0688 9.60091 47.9676 9.85345 47.9596 9.99942C47.9534 10.1518 47.9924 10.3025 48.0715 10.4329C48.1706 10.5915 48.3121 10.7193 48.4799 10.8018C48.6721 10.9127 48.8924 10.9653 49.1139 10.9532C49.3186 10.938 49.514 10.8616 49.6745 10.7338C49.8417 10.603 50.0402 10.3248 50.2701 9.89912L51.1504 8.26209C51.2282 8.13557 51.2794 7.99448 51.3008 7.84746C51.3078 7.76465 51.288 7.68177 51.2444 7.61104C51.1534 7.49662 51.0373 7.40469 50.905 7.34238L50.9641 7.23313L52.3522 7.97911L52.2931 8.09105L52.2107 8.04627C52.1142 7.99021 52.0043 7.96171 51.8928 7.96388C51.7924 7.97028 51.6974 8.01144 51.6241 8.0803C51.5323 8.17336 51.4572 8.2815 51.402 8.40001L50.5826 9.92241C50.3295 10.3941 50.1154 10.7176 49.9405 10.8932C49.7614 11.0723 49.5115 11.1797 49.1757 11.2263C48.8399 11.2729 48.4656 11.1833 48.0491 10.9576C47.7017 10.7714 47.4584 10.5809 47.3193 10.3863C47.1437 10.1631 47.0434 9.89004 47.0327 9.60628C47.0327 9.35195 47.1223 9.05792 47.3014 8.72419L48.3581 6.75939C48.4829 6.52894 48.5474 6.37969 48.5515 6.31163C48.5547 6.23811 48.5333 6.16562 48.4906 6.10566C48.4013 6.00438 48.2906 5.92424 48.1665 5.87103L48.2211 5.7564Z" fill="white"/>
<path d="M56.3613 11.0177L55.6064 11.9929L55.5105 11.9186C55.6082 11.7202 55.6715 11.5068 55.6977 11.2872C55.7027 11.1293 55.6673 10.9727 55.5947 10.8323C55.5117 10.7053 55.4042 10.596 55.2786 10.5108L55.0099 10.3031L52.8607 13.0792C52.7635 13.1894 52.6838 13.3138 52.6242 13.4482C52.6103 13.5205 52.6194 13.5953 52.6502 13.6622C52.6958 13.7586 52.7659 13.8414 52.8535 13.9022L52.9726 13.9917L52.8965 14.0903L51.0105 12.6296L51.0866 12.532L51.2057 12.6216C51.2905 12.693 51.3923 12.7411 51.5013 12.7613C51.5735 12.7709 51.6468 12.7554 51.709 12.7174C51.821 12.6295 51.9184 12.5243 51.9974 12.4058L54.1466 9.62962L53.8869 9.42813C53.644 9.24007 53.4278 9.15499 53.2386 9.1729C52.9459 9.21034 52.6749 9.34724 52.4711 9.56067L52.3708 9.48186L53.1248 8.50752L56.3613 11.0177Z" fill="white"/>
<path d="M55.4962 16.4194L55.4067 16.509L53.7195 14.8272L53.809 14.7376L53.9165 14.8451C53.9914 14.9266 54.0866 14.9869 54.1923 15.0197C54.2619 15.0385 54.3359 15.0318 54.401 15.0009C54.5229 14.927 54.6326 14.8345 54.7261 14.7269L56.8422 12.6045C56.9523 12.5074 57.0474 12.3945 57.1243 12.2695C57.1474 12.2 57.1474 12.125 57.1243 12.0555C57.0918 11.9555 57.0338 11.8656 56.9559 11.7949L56.8485 11.6874L56.938 11.5979L58.6252 13.2797L58.5356 13.3692L58.4282 13.2627C58.3536 13.1797 58.2585 13.118 58.1524 13.0836C58.082 13.0655 58.0076 13.0715 57.941 13.1006C57.8191 13.1745 57.7094 13.267 57.6159 13.3746L55.4998 15.497C55.3895 15.5943 55.2947 15.7079 55.2186 15.8337C55.1966 15.9037 55.1966 15.9787 55.2186 16.0487C55.2513 16.1488 55.3097 16.2387 55.3879 16.3093L55.4962 16.4194Z" fill="white"/>
<path d="M60.7768 15.7685C61.2371 16.3309 61.4246 16.9279 61.3392 17.5596C61.299 17.8705 61.1951 18.1698 61.0341 18.4388C60.8731 18.7078 60.6584 18.9408 60.4034 19.1232C59.9692 19.463 59.4324 19.6452 58.881 19.6399C58.1455 19.6345 57.5311 19.3062 57.038 18.6548C56.5449 18.0035 56.3834 17.3303 56.5535 16.6354C56.6918 16.0856 57.019 15.6019 57.4777 15.2688C57.7233 15.0725 58.007 14.9292 58.3108 14.8481C58.6147 14.7671 58.932 14.7499 59.2428 14.7978C59.5529 14.841 59.8502 14.9499 60.1147 15.1173C60.3793 15.2848 60.605 15.5068 60.7768 15.7685ZM60.6273 15.9306C60.3759 15.5987 60.015 15.4745 59.5446 15.5581C59.1595 15.6279 58.7061 15.8605 58.1843 16.2557C57.5652 16.725 57.1899 17.1808 57.0586 17.6232C57.0124 17.7715 57.004 17.9291 57.034 18.0815C57.064 18.234 57.1316 18.3765 57.2305 18.4963C57.3493 18.6643 57.5188 18.7898 57.7141 18.8545C57.9875 18.9231 58.2754 18.9062 58.5389 18.8062C58.9301 18.6622 59.2952 18.4553 59.6198 18.1936C60.101 17.83 60.4267 17.5133 60.5968 17.2435C60.767 16.9748 60.8494 16.7321 60.8422 16.519C60.8351 16.305 60.7598 16.0988 60.6273 15.9306Z" fill="white"/>
<path d="M63.4447 20.0169L61.9428 23.2999L63.6891 22.4134C63.9327 22.2898 64.0796 22.1707 64.1306 22.0551C64.1981 21.8999 64.1724 21.7107 64.0536 21.4874L64.1638 21.431L64.8453 22.7743L64.7351 22.8307C64.6664 22.7152 64.5779 22.6128 64.4736 22.528C64.4011 22.485 64.3164 22.4671 64.2327 22.4769C64.081 22.5032 63.9351 22.5563 63.802 22.6337L60.4196 24.3504L60.3685 24.2483L62.3557 19.7841L59.773 21.0951C59.5395 21.2145 59.4088 21.3483 59.3807 21.4963C59.3532 21.6424 59.3756 21.7935 59.4443 21.9253L59.4936 22.0211L59.3825 22.0775L58.6509 20.6366L58.7619 20.5802C58.8774 20.8032 59.0019 20.9384 59.1372 20.9778C59.2724 21.0172 59.4461 20.9868 59.6619 20.8766L62.5276 19.4214L62.5975 19.2853C62.6513 19.1807 62.6841 19.0666 62.6942 18.9494C62.6875 18.8397 62.6569 18.7327 62.6046 18.636L62.7157 18.5796L63.4447 20.0169Z" fill="white"/>
<path d="M66.1865 26.4665L64.7537 26.9743L64.7107 26.8435C65.0296 26.6865 65.2852 26.4252 65.4352 26.1029C65.574 25.825 65.6003 25.5042 65.5086 25.2074C65.4579 25.0162 65.3358 24.8517 65.1674 24.748C65.0991 24.7052 65.0223 24.6779 64.9423 24.6679C64.8624 24.6578 64.7812 24.6653 64.7044 24.6898C64.6142 24.7175 64.5333 24.7695 64.4707 24.8402C64.3792 24.9574 64.3114 25.0912 64.271 25.2342C64.2067 25.5032 64.158 25.7756 64.125 26.0501C64.042 26.6375 63.9187 27.0554 63.7551 27.3038C63.5963 27.5469 63.3579 27.7273 63.0808 27.8143C62.9039 27.8735 62.7162 27.8937 62.5308 27.8736C62.3453 27.8535 62.1663 27.7936 62.0062 27.6978C61.645 27.4909 61.3786 27.1514 61.2638 26.7513C61.2187 26.6217 61.1887 26.4874 61.1742 26.351C61.1623 26.1818 61.1644 26.012 61.1805 25.8432C61.1923 25.7518 61.1859 25.659 61.1617 25.5701C61.1383 25.5075 61.0961 25.4536 61.0408 25.416C60.9695 25.3636 60.8847 25.3325 60.7963 25.3265L60.7578 25.2083L62.393 24.671L62.4316 24.7892C62.0023 25.0339 61.7107 25.3292 61.5566 25.6748C61.4049 25.9809 61.3763 26.3335 61.4769 26.6599C61.5348 26.8711 61.6713 27.0522 61.8584 27.1659C61.9827 27.2444 62.1308 27.276 62.2763 27.255C62.4217 27.234 62.5549 27.1617 62.6519 27.0513C62.7376 26.9529 62.8027 26.8384 62.8435 26.7145C62.9129 26.4869 62.9615 26.2534 62.9886 26.0169C63.03 25.677 63.1047 25.342 63.2116 25.0166C63.2822 24.8141 63.3931 24.628 63.5375 24.4695C63.6773 24.3203 63.8531 24.2096 64.048 24.148C64.2125 24.0914 64.3871 24.0701 64.5604 24.0855C64.7337 24.101 64.9017 24.1527 65.0537 24.2375C65.2164 24.3256 65.3601 24.4452 65.4763 24.5892C65.5925 24.7333 65.679 24.8989 65.7307 25.0766C65.7763 25.2143 65.8043 25.3573 65.814 25.502C65.8198 25.6397 65.8123 25.7777 65.7916 25.9139C65.7688 26.0246 65.767 26.1385 65.7862 26.2498C65.7924 26.2739 65.8036 26.2965 65.819 26.3161C65.8344 26.3357 65.8537 26.3518 65.8758 26.3635C65.9656 26.3872 66.0595 26.3902 66.1507 26.3725L66.1865 26.4665Z" fill="white"/>
<path d="M35.0001 60.8144C49.0914 60.8144 60.5147 49.3912 60.5147 35.2999C60.5147 21.2086 49.0914 9.78533 35.0001 9.78533C20.9088 9.78533 9.4856 21.2086 9.4856 35.2999C9.4856 49.3912 20.9088 60.8144 35.0001 60.8144Z" fill="#53225A"/>
<path d="M35.0001 51.0801C43.7152 51.0801 50.7802 44.0151 50.7802 35.3C50.7802 26.5849 43.7152 19.5199 35.0001 19.5199C26.285 19.5199 19.22 26.5849 19.22 35.3C19.22 44.0151 26.285 51.0801 35.0001 51.0801Z" fill="#A01E66"/>
<path d="M35.0767 10.1669C35.0767 10.1669 36.6582 12.8535 33.4648 14.795C29.194 17.3867 21.6939 22.6882 31.337 27.0029C31.337 27.0029 28.2188 22.5369 31.8904 19.5817C35.5621 16.6264 41.1663 13.57 35.0767 10.1669Z" fill="#F49020"/>
<path d="M38.6798 13.5342C38.6798 13.5342 39.9452 15.6834 37.3876 17.2372C33.9729 19.3094 27.9737 23.5533 35.686 27.0029C35.686 27.0029 33.1911 23.4298 36.1284 21.0656C39.0658 18.7014 43.5515 16.2566 38.6798 13.5342Z" fill="#F49020"/>
<path d="M41.6349 17.0078C41.6349 17.0078 42.6469 18.7282 40.6006 19.9703C37.8692 21.6288 33.0701 25.0237 39.2412 27.7829C39.2412 27.7829 37.2459 24.9252 39.5994 23.0366C41.9528 21.1479 45.5323 19.1858 41.6349 17.0078Z" fill="#F49020"/>
<path d="M45.1975 28.4679H24.8027V31.4859H45.1975V28.4679Z" fill="white"/>
<path d="M26.9063 32.171H43.0939V33.7928C43.0942 34.0305 43.0476 34.266 42.9568 34.4857C42.8659 34.7054 42.7326 34.905 42.5645 35.073C42.3963 35.2411 42.1967 35.3743 41.9769 35.465C41.7572 35.5558 41.5217 35.6022 41.284 35.6018H28.7125C28.4751 35.6018 28.24 35.5549 28.0207 35.464C27.8014 35.3731 27.6021 35.2398 27.4343 35.0718C27.2666 34.9037 27.1336 34.7043 27.043 34.4848C26.9524 34.2654 26.9059 34.0302 26.9063 33.7928V32.171Z" fill="white"/>
<path d="M37.8672 54.7625H32.1323L30.6099 36.8367H39.3896L37.8672 54.7625Z" fill="white"/>
<path d="M30.6099 55.4485V58.2838H32.7591V60.4331H37.2404V58.2838H39.3896V55.4485H30.6099Z" fill="white"/>
</g>
<defs>
<clipPath id="clip0_111_2870">
<rect width="70" height="70" fill="white" transform="translate(0 0.300003)"/>
</clipPath>
</defs>
</svg>
