<svg width="243" height="71" viewBox="0 0 243 71" fill="none" xmlns="http://www.w3.org/2000/svg">
<path d="M79.26 42.125V29.165H84.615C84.741 29.165 84.903 29.171 85.101 29.183C85.299 29.189 85.482 29.207 85.65 29.237C86.4 29.351 87.018 29.6 87.504 29.984C87.996 30.368 88.359 30.854 88.593 31.442C88.833 32.024 88.953 32.672 88.953 33.386C88.953 34.442 88.686 35.351 88.152 36.113C87.618 36.869 86.799 37.337 85.695 37.517L84.768 37.598H81.429V42.125H79.26ZM86.703 42.125L84.147 36.851L86.352 36.365L89.16 42.125H86.703ZM81.429 35.573H84.525C84.645 35.573 84.78 35.567 84.93 35.555C85.08 35.543 85.218 35.519 85.344 35.483C85.704 35.393 85.986 35.234 86.19 35.006C86.4 34.778 86.547 34.52 86.631 34.232C86.721 33.944 86.766 33.662 86.766 33.386C86.766 33.11 86.721 32.828 86.631 32.54C86.547 32.246 86.4 31.985 86.19 31.757C85.986 31.529 85.704 31.37 85.344 31.28C85.218 31.244 85.08 31.223 84.93 31.217C84.78 31.205 84.645 31.199 84.525 31.199H81.429V35.573ZM91.3228 30.929V28.94H93.4918V30.929H91.3228ZM91.3228 42.125V32.405H93.4918V42.125H91.3228ZM100.274 46.715C99.7337 46.715 99.2147 46.631 98.7167 46.463C98.2247 46.295 97.7807 46.052 97.3847 45.734C96.9887 45.422 96.6647 45.044 96.4127 44.6L98.4107 43.61C98.5967 43.964 98.8577 44.225 99.1937 44.393C99.5357 44.567 99.8987 44.654 100.283 44.654C100.733 44.654 101.135 44.573 101.489 44.411C101.843 44.255 102.116 44.021 102.308 43.709C102.506 43.403 102.599 43.019 102.587 42.557V39.794H102.857V32.405H104.756V42.593C104.756 42.839 104.744 43.073 104.72 43.295C104.702 43.523 104.669 43.745 104.621 43.961C104.477 44.591 104.201 45.107 103.793 45.509C103.385 45.917 102.878 46.22 102.272 46.418C101.672 46.616 101.006 46.715 100.274 46.715ZM100.085 42.395C99.1907 42.395 98.4107 42.17 97.7447 41.72C97.0787 41.27 96.5627 40.658 96.1967 39.884C95.8307 39.11 95.6477 38.237 95.6477 37.265C95.6477 36.281 95.8307 35.405 96.1967 34.637C96.5687 33.863 97.0937 33.254 97.7717 32.81C98.4497 32.36 99.2477 32.135 100.166 32.135C101.09 32.135 101.864 32.36 102.488 32.81C103.118 33.254 103.595 33.863 103.919 34.637C104.243 35.411 104.405 36.287 104.405 37.265C104.405 38.231 104.243 39.104 103.919 39.884C103.595 40.658 103.112 41.27 102.47 41.72C101.828 42.17 101.033 42.395 100.085 42.395ZM100.418 40.451C101 40.451 101.468 40.319 101.822 40.055C102.182 39.785 102.443 39.41 102.605 38.93C102.773 38.45 102.857 37.895 102.857 37.265C102.857 36.629 102.773 36.074 102.605 35.6C102.443 35.12 102.188 34.748 101.84 34.484C101.492 34.214 101.042 34.079 100.49 34.079C99.9077 34.079 99.4277 34.223 99.0497 34.511C98.6717 34.793 98.3927 35.177 98.2127 35.663C98.0327 36.143 97.9427 36.677 97.9427 37.265C97.9427 37.859 98.0297 38.399 98.2037 38.885C98.3837 39.365 98.6567 39.746 99.0227 40.028C99.3887 40.31 99.8537 40.451 100.418 40.451ZM114.003 42.125V37.445C114.003 37.139 113.982 36.8 113.94 36.428C113.898 36.056 113.799 35.699 113.643 35.357C113.493 35.009 113.265 34.724 112.959 34.502C112.659 34.28 112.251 34.169 111.735 34.169C111.459 34.169 111.186 34.214 110.916 34.304C110.646 34.394 110.4 34.55 110.178 34.772C109.962 34.988 109.788 35.288 109.656 35.672C109.524 36.05 109.458 36.536 109.458 37.13L108.171 36.581C108.171 35.753 108.33 35.003 108.648 34.331C108.972 33.659 109.446 33.125 110.07 32.729C110.694 32.327 111.462 32.126 112.374 32.126C113.094 32.126 113.688 32.246 114.156 32.486C114.624 32.726 114.996 33.032 115.272 33.404C115.548 33.776 115.752 34.172 115.884 34.592C116.016 35.012 116.1 35.411 116.136 35.789C116.178 36.161 116.199 36.464 116.199 36.698V42.125H114.003ZM107.262 42.125V29.165H109.197V35.987H109.458V42.125H107.262ZM124.244 42.125C123.602 42.245 122.972 42.296 122.354 42.278C121.742 42.266 121.193 42.155 120.707 41.945C120.221 41.729 119.852 41.39 119.6 40.928C119.378 40.508 119.261 40.079 119.249 39.641C119.237 39.203 119.231 38.708 119.231 38.156V29.705H121.391V38.03C121.391 38.42 121.394 38.762 121.4 39.056C121.412 39.35 121.475 39.59 121.589 39.776C121.805 40.136 122.15 40.337 122.624 40.379C123.098 40.421 123.638 40.397 124.244 40.307V42.125ZM117.467 34.106V32.405H124.244V34.106H117.467ZM129.938 42.125V29.165H132.107V34.619H138.245V29.165H140.405V42.125H138.245V36.653H132.107V42.125H129.938ZM142.928 42.125V29.165H148.283C148.409 29.165 148.571 29.171 148.769 29.183C148.967 29.189 149.15 29.207 149.318 29.237C150.068 29.351 150.686 29.6 151.172 29.984C151.664 30.368 152.027 30.854 152.261 31.442C152.501 32.024 152.621 32.672 152.621 33.386C152.621 34.442 152.354 35.351 151.82 36.113C151.286 36.869 150.467 37.337 149.363 37.517L148.436 37.598H145.097V42.125H142.928ZM150.371 42.125L147.815 36.851L150.02 36.365L152.828 42.125H150.371ZM145.097 35.573H148.193C148.313 35.573 148.448 35.567 148.598 35.555C148.748 35.543 148.886 35.519 149.012 35.483C149.372 35.393 149.654 35.234 149.858 35.006C150.068 34.778 150.215 34.52 150.299 34.232C150.389 33.944 150.434 33.662 150.434 33.386C150.434 33.11 150.389 32.828 150.299 32.54C150.215 32.246 150.068 31.985 149.858 31.757C149.654 31.529 149.372 31.37 149.012 31.28C148.886 31.244 148.748 31.223 148.598 31.217C148.448 31.205 148.313 31.199 148.193 31.199H145.097V35.573ZM163.211 42.395C162.263 42.395 161.408 42.23 160.646 41.9C159.89 41.57 159.266 41.099 158.774 40.487C158.288 39.869 157.979 39.137 157.847 38.291L160.097 37.949C160.289 38.717 160.682 39.311 161.276 39.731C161.876 40.151 162.566 40.361 163.346 40.361C163.808 40.361 164.243 40.289 164.651 40.145C165.059 40.001 165.389 39.791 165.641 39.515C165.899 39.239 166.028 38.9 166.028 38.498C166.028 38.318 165.998 38.153 165.938 38.003C165.878 37.847 165.788 37.709 165.668 37.589C165.554 37.469 165.404 37.361 165.218 37.265C165.038 37.163 164.828 37.076 164.588 37.004L161.24 36.014C160.952 35.93 160.64 35.819 160.304 35.681C159.974 35.537 159.659 35.342 159.359 35.096C159.065 34.844 158.822 34.526 158.63 34.142C158.444 33.752 158.351 33.272 158.351 32.702C158.351 31.868 158.561 31.169 158.981 30.605C159.407 30.035 159.977 29.609 160.691 29.327C161.411 29.045 162.209 28.907 163.085 28.913C163.973 28.919 164.765 29.072 165.461 29.372C166.157 29.666 166.739 30.095 167.207 30.659C167.675 31.223 168.005 31.904 168.197 32.702L165.866 33.107C165.77 32.651 165.584 32.264 165.308 31.946C165.038 31.622 164.705 31.376 164.309 31.208C163.919 31.04 163.502 30.95 163.058 30.938C162.626 30.932 162.224 30.998 161.852 31.136C161.486 31.268 161.189 31.46 160.961 31.712C160.739 31.964 160.628 32.258 160.628 32.594C160.628 32.912 160.724 33.173 160.916 33.377C161.108 33.575 161.345 33.734 161.627 33.854C161.915 33.968 162.206 34.064 162.5 34.142L164.822 34.79C165.14 34.874 165.497 34.988 165.893 35.132C166.289 35.276 166.67 35.477 167.036 35.735C167.402 35.993 167.702 36.332 167.936 36.752C168.176 37.172 168.296 37.706 168.296 38.354C168.296 39.026 168.155 39.617 167.873 40.127C167.597 40.631 167.222 41.051 166.748 41.387C166.274 41.723 165.731 41.975 165.119 42.143C164.513 42.311 163.877 42.395 163.211 42.395ZM174.537 42.395C173.565 42.395 172.716 42.176 171.99 41.738C171.264 41.3 170.7 40.697 170.298 39.929C169.902 39.155 169.704 38.267 169.704 37.265C169.704 36.245 169.908 35.351 170.316 34.583C170.724 33.815 171.291 33.215 172.017 32.783C172.743 32.351 173.583 32.135 174.537 32.135C175.515 32.135 176.367 32.354 177.093 32.792C177.819 33.23 178.383 33.836 178.785 34.61C179.187 35.378 179.388 36.263 179.388 37.265C179.388 38.273 179.184 39.164 178.776 39.938C178.374 40.706 177.81 41.309 177.084 41.747C176.358 42.179 175.509 42.395 174.537 42.395ZM174.537 40.361C175.401 40.361 176.043 40.073 176.463 39.497C176.883 38.921 177.093 38.177 177.093 37.265C177.093 36.323 176.88 35.573 176.454 35.015C176.028 34.451 175.389 34.169 174.537 34.169C173.955 34.169 173.475 34.301 173.097 34.565C172.725 34.823 172.449 35.186 172.269 35.654C172.089 36.116 171.999 36.653 171.999 37.265C171.999 38.207 172.212 38.96 172.638 39.524C173.07 40.082 173.703 40.361 174.537 40.361ZM181.551 42.125V28.895H183.72V42.125H181.551ZM190.061 42.404C189.341 42.404 188.747 42.284 188.279 42.044C187.811 41.804 187.439 41.498 187.163 41.126C186.887 40.754 186.683 40.358 186.551 39.938C186.419 39.518 186.332 39.122 186.29 38.75C186.254 38.372 186.236 38.066 186.236 37.832V32.405H188.432V37.085C188.432 37.385 188.453 37.724 188.495 38.102C188.537 38.474 188.633 38.834 188.783 39.182C188.939 39.524 189.167 39.806 189.467 40.028C189.773 40.25 190.184 40.361 190.7 40.361C190.976 40.361 191.249 40.316 191.519 40.226C191.789 40.136 192.032 39.983 192.248 39.767C192.47 39.545 192.647 39.242 192.779 38.858C192.911 38.474 192.977 37.988 192.977 37.4L194.264 37.949C194.264 38.777 194.102 39.527 193.778 40.199C193.46 40.871 192.989 41.408 192.365 41.81C191.741 42.206 190.973 42.404 190.061 42.404ZM193.238 42.125V39.11H192.977V32.405H195.155V42.125H193.238ZM203.381 42.125C202.739 42.245 202.109 42.296 201.491 42.278C200.879 42.266 200.33 42.155 199.844 41.945C199.358 41.729 198.989 41.39 198.737 40.928C198.515 40.508 198.398 40.079 198.386 39.641C198.374 39.203 198.368 38.708 198.368 38.156V29.705H200.528V38.03C200.528 38.42 200.531 38.762 200.537 39.056C200.549 39.35 200.612 39.59 200.726 39.776C200.942 40.136 201.287 40.337 201.761 40.379C202.235 40.421 202.775 40.397 203.381 40.307V42.125ZM196.604 34.106V32.405H203.381V34.106H196.604ZM205.651 30.929V28.94H207.82V30.929H205.651ZM205.651 42.125V32.405H207.82V42.125H205.651ZM214.809 42.395C213.837 42.395 212.988 42.176 212.262 41.738C211.536 41.3 210.972 40.697 210.57 39.929C210.174 39.155 209.976 38.267 209.976 37.265C209.976 36.245 210.18 35.351 210.588 34.583C210.996 33.815 211.563 33.215 212.289 32.783C213.015 32.351 213.855 32.135 214.809 32.135C215.787 32.135 216.639 32.354 217.365 32.792C218.091 33.23 218.655 33.836 219.057 34.61C219.459 35.378 219.66 36.263 219.66 37.265C219.66 38.273 219.456 39.164 219.048 39.938C218.646 40.706 218.082 41.309 217.356 41.747C216.63 42.179 215.781 42.395 214.809 42.395ZM214.809 40.361C215.673 40.361 216.315 40.073 216.735 39.497C217.155 38.921 217.365 38.177 217.365 37.265C217.365 36.323 217.152 35.573 216.726 35.015C216.3 34.451 215.661 34.169 214.809 34.169C214.227 34.169 213.747 34.301 213.369 34.565C212.997 34.823 212.721 35.186 212.541 35.654C212.361 36.116 212.271 36.653 212.271 37.265C212.271 38.207 212.484 38.96 212.91 39.524C213.342 40.082 213.975 40.361 214.809 40.361ZM228.366 42.125V37.445C228.366 37.139 228.345 36.8 228.303 36.428C228.261 36.056 228.162 35.699 228.006 35.357C227.856 35.009 227.628 34.724 227.322 34.502C227.022 34.28 226.614 34.169 226.098 34.169C225.822 34.169 225.549 34.214 225.279 34.304C225.009 34.394 224.763 34.55 224.541 34.772C224.325 34.988 224.151 35.288 224.019 35.672C223.887 36.05 223.821 36.536 223.821 37.13L222.534 36.581C222.534 35.753 222.693 35.003 223.011 34.331C223.335 33.659 223.809 33.125 224.433 32.729C225.057 32.327 225.825 32.126 226.737 32.126C227.457 32.126 228.051 32.246 228.519 32.486C228.987 32.726 229.359 33.032 229.635 33.404C229.911 33.776 230.115 34.172 230.247 34.592C230.379 35.012 230.463 35.411 230.499 35.789C230.541 36.161 230.562 36.464 230.562 36.698V42.125H228.366ZM221.625 42.125V32.405H223.56V35.42H223.821V42.125H221.625ZM236.663 42.395C235.463 42.395 234.488 42.125 233.738 41.585C232.988 41.045 232.532 40.286 232.37 39.308L234.584 38.966C234.698 39.446 234.95 39.824 235.34 40.1C235.73 40.376 236.222 40.514 236.816 40.514C237.338 40.514 237.74 40.412 238.022 40.208C238.31 39.998 238.454 39.713 238.454 39.353C238.454 39.131 238.4 38.954 238.292 38.822C238.19 38.684 237.962 38.552 237.608 38.426C237.254 38.3 236.711 38.141 235.979 37.949C235.163 37.733 234.515 37.502 234.035 37.256C233.555 37.004 233.21 36.707 233 36.365C232.79 36.023 232.685 35.609 232.685 35.123C232.685 34.517 232.844 33.989 233.162 33.539C233.48 33.089 233.924 32.744 234.494 32.504C235.064 32.258 235.736 32.135 236.51 32.135C237.266 32.135 237.935 32.252 238.517 32.486C239.105 32.72 239.579 33.053 239.939 33.485C240.299 33.917 240.521 34.424 240.605 35.006L238.391 35.402C238.337 34.988 238.148 34.661 237.824 34.421C237.506 34.181 237.08 34.046 236.546 34.016C236.036 33.986 235.625 34.064 235.313 34.25C235.001 34.43 234.845 34.685 234.845 35.015C234.845 35.201 234.908 35.36 235.034 35.492C235.16 35.624 235.412 35.756 235.79 35.888C236.174 36.02 236.744 36.182 237.5 36.374C238.274 36.572 238.892 36.8 239.354 37.058C239.822 37.31 240.158 37.613 240.362 37.967C240.572 38.321 240.677 38.75 240.677 39.254C240.677 40.232 240.32 41 239.606 41.558C238.898 42.116 237.917 42.395 236.663 42.395Z" fill="white"/>
<g clip-path="url(#clip0_111_2818)">
<path d="M35 70.5C54.33 70.5 70 54.83 70 35.5C70 16.17 54.33 0.5 35 0.5C15.67 0.5 0 16.17 0 35.5C0 54.83 15.67 70.5 35 70.5Z" fill="white"/>
<path d="M34.9997 69.1674C53.5937 69.1674 68.6672 54.094 68.6672 35.4999C68.6672 16.9059 53.5937 1.83249 34.9997 1.83249C16.4057 1.83249 1.33228 16.9059 1.33228 35.4999C1.33228 54.094 16.4057 69.1674 34.9997 69.1674Z" fill="#050615"/>
<path d="M9.61985 45.2389L8.54521 45.6384L8.5076 45.5389C8.74626 45.4166 8.93586 45.2162 9.04492 44.9712C9.14684 44.7602 9.16352 44.518 9.09148 44.2951C9.0513 44.1508 8.95699 44.0276 8.8282 43.9512C8.77583 43.9197 8.71732 43.8998 8.6566 43.8928C8.59589 43.8859 8.53439 43.892 8.47625 43.9109C8.40695 43.9324 8.34496 43.9727 8.29715 44.0273C8.22857 44.1169 8.17835 44.2191 8.14939 44.3282C8.10329 44.5323 8.0689 44.7389 8.0464 44.947C7.9867 45.393 7.89715 45.7112 7.77774 45.9016C7.65975 46.087 7.48132 46.2259 7.27266 46.2948C7.13944 46.3407 6.99791 46.3575 6.85763 46.3441C6.71736 46.3306 6.5816 46.2873 6.45952 46.2169C6.18393 46.0637 5.97871 45.8093 5.88728 45.5076C5.85363 45.4098 5.8308 45.3086 5.81922 45.2058C5.80833 45.0777 5.80833 44.9489 5.81922 44.8207C5.82693 44.7516 5.82115 44.6817 5.8022 44.6148C5.78514 44.5676 5.75385 44.5269 5.71265 44.4983C5.65787 44.4606 5.59369 44.4389 5.52727 44.4357L5.49683 44.3461L6.72908 43.9252L6.75952 44.0148C6.43713 44.204 6.21922 44.4306 6.10579 44.6945C5.99466 44.927 5.97672 45.1933 6.05564 45.4387C6.10447 45.598 6.21289 45.7324 6.35833 45.8139C6.45223 45.8715 6.56347 45.8942 6.67243 45.8778C6.78139 45.8614 6.88106 45.807 6.95385 45.7243C7.01769 45.6488 7.06607 45.5615 7.09624 45.4673C7.14662 45.2941 7.1808 45.1167 7.19833 44.9372C7.22487 44.677 7.27645 44.42 7.35236 44.1697C7.40431 44.0164 7.48654 43.8751 7.59416 43.7542C7.69834 43.6397 7.8304 43.5543 7.97744 43.5061C8.10151 43.4619 8.23348 43.4444 8.36478 43.4545C8.49608 43.4647 8.62377 43.5024 8.73954 43.5652C8.86368 43.63 8.97373 43.7188 9.06335 43.8264C9.15296 43.934 9.22036 44.0583 9.26163 44.1921C9.29722 44.2957 9.31949 44.4034 9.3279 44.5127C9.3337 44.617 9.3295 44.7217 9.31537 44.8252C9.29982 44.9093 9.29982 44.9955 9.31537 45.0795C9.32017 45.0989 9.32916 45.1169 9.34169 45.1324C9.35422 45.1478 9.37 45.1604 9.3879 45.1691C9.45658 45.1848 9.52789 45.1848 9.59656 45.1691L9.61985 45.2389Z" fill="#F49020"/>
<path d="M8.3285 48.59L7.79835 47.4885L7.43297 47.5028C7.33647 47.5032 7.24096 47.5224 7.15178 47.5592C7.11195 47.5756 7.07751 47.6029 7.05235 47.6379C7.02719 47.6728 7.01231 47.7141 7.00939 47.7571C7.01985 47.8719 7.05015 47.984 7.09894 48.0885L7.00939 48.1288L6.51953 47.0944L6.60908 47.0532C6.67221 47.1516 6.76697 47.2255 6.87774 47.2628C7.07351 47.3053 7.27446 47.3189 7.47417 47.3031L10.4894 47.2252L10.51 47.2691L8.49597 49.6145C8.30522 49.8374 8.19596 49.9977 8.16641 50.0972C8.14427 50.1838 8.15216 50.2753 8.1888 50.3569L8.10462 50.3972L7.38282 48.8927L7.467 48.8524L7.49655 48.9142C7.53155 49.0055 7.59142 49.0852 7.66939 49.1443C7.68932 49.1551 7.71164 49.1608 7.73432 49.1608C7.75699 49.1608 7.77931 49.1551 7.79924 49.1443C7.82795 49.1304 7.85426 49.1119 7.87715 49.0897C7.88969 49.0798 7.93626 49.0297 8.01686 48.9383L8.3285 48.59ZM8.46104 48.4306L9.31 47.4535L8.00969 47.4903L8.46104 48.4306Z" fill="#F49020"/>
<path d="M12.8058 51.4029L12.7261 51.4522C12.6355 51.3528 12.5122 51.2893 12.3787 51.273C12.1523 51.2641 11.9256 51.2794 11.7025 51.3187L8.83685 51.7002L8.79297 51.6295L10.4945 49.1766C10.6261 49.0045 10.7412 48.8204 10.8384 48.6268C10.8576 48.527 10.8394 48.4238 10.7873 48.3366L10.867 48.2865L11.7393 49.6915L11.6596 49.7408L11.63 49.6933C11.5825 49.5995 11.5103 49.5202 11.4213 49.4641C11.4014 49.4542 11.3792 49.4499 11.357 49.4514C11.3348 49.453 11.3134 49.4605 11.2951 49.473C11.2646 49.4935 11.2374 49.5186 11.2145 49.5474C11.1858 49.5814 11.116 49.679 11.0022 49.8411L9.92761 51.3716L11.5861 51.1441C11.7858 51.1154 11.9175 51.0922 11.9811 51.0751C12.0338 51.0621 12.0845 51.0416 12.1315 51.0142C12.1715 50.989 12.2028 50.9522 12.2211 50.9086C12.2403 50.8615 12.2447 50.8096 12.2336 50.7599C12.2115 50.664 12.1721 50.5729 12.1172 50.4912L12.1969 50.4411L12.8058 51.4029Z" fill="#F49020"/>
<path d="M11.3117 54.8802L11.2374 54.9375L10.135 53.5047L10.2102 53.4474L10.2801 53.5369C10.3282 53.6059 10.3937 53.6609 10.4699 53.6963C10.5205 53.7167 10.5766 53.7186 10.6284 53.7017C10.7264 53.658 10.8171 53.5994 10.8971 53.528L12.6935 52.1417C12.7858 52.0797 12.8682 52.0043 12.938 51.9178C12.9628 51.8682 12.9707 51.8119 12.9604 51.7575C12.946 51.6788 12.9111 51.6052 12.8592 51.5444L12.7894 51.4548L12.8637 51.3975L13.9661 52.8303L13.8909 52.8876L13.821 52.7981C13.7731 52.7291 13.7076 52.6744 13.6312 52.6396C13.5802 52.6187 13.5236 52.6158 13.4709 52.6315C13.3728 52.6747 13.2822 52.7331 13.2022 52.8044L11.4049 54.1906C11.3128 54.2532 11.2307 54.3293 11.1613 54.4163C11.1368 54.4663 11.1293 54.5229 11.1398 54.5775C11.154 54.656 11.189 54.7293 11.241 54.7898L11.3117 54.8802Z" fill="#F49020"/>
<path d="M14.8176 53.7983L14.4343 56.5055L15.509 55.4855C15.6585 55.3431 15.74 55.2258 15.7517 55.1326C15.7678 55.0055 15.7078 54.8738 15.5726 54.7368L15.6406 54.6723L16.4242 55.4998L16.3561 55.5652C16.2812 55.4962 16.1948 55.4408 16.1009 55.4013C16.0392 55.3859 15.9742 55.3909 15.9155 55.4156C15.811 55.4676 15.7164 55.5377 15.6361 55.6225L13.5505 57.5971L13.4913 57.5345L13.9731 53.8628L12.38 55.3709C12.2367 55.507 12.1707 55.6321 12.1821 55.7461C12.1932 55.8584 12.2421 55.9635 12.3209 56.0443L12.3764 56.1034L12.3084 56.1679L11.4666 55.2795L11.5355 55.2141C11.6669 55.3509 11.7863 55.4201 11.8937 55.4219C12.0012 55.4237 12.1206 55.3616 12.2519 55.2356L14.0197 53.5619L14.0358 53.4455C14.0536 53.3568 14.0536 53.2655 14.0358 53.1768C14.007 53.1026 13.9635 53.0349 13.9078 52.978L13.9767 52.9135L14.8176 53.7983Z" fill="#F49020"/>
<path d="M19.2362 57.6724L18.475 58.6199L18.4016 58.5608C18.5183 58.2718 18.5448 57.9543 18.4777 57.65C18.4174 57.3862 18.2697 57.1504 18.0586 56.981C17.8814 56.8284 17.6548 56.7453 17.421 56.7473C17.1799 56.7593 16.9483 56.8449 16.7574 56.9927C16.5387 57.151 16.3423 57.3381 16.1735 57.5488C15.9853 57.7752 15.8325 58.0288 15.7204 58.301C15.6273 58.5101 15.6099 58.745 15.6711 58.9655C15.7396 59.1742 15.8698 59.3572 16.0446 59.4903C16.1118 59.5438 16.1841 59.5906 16.2604 59.63C16.3437 59.6718 16.4299 59.7077 16.5183 59.7375L16.9661 59.1778C17.0267 59.1126 17.0753 59.0371 17.1094 58.9548C17.1185 58.9015 17.1107 58.8467 17.087 58.7981C17.057 58.7306 17.0105 58.6718 16.9517 58.627L16.8819 58.5715L16.941 58.4981L18.2485 59.5476L18.1894 59.6211C18.1177 59.5649 18.0364 59.5224 17.9494 59.4957C17.8904 59.4855 17.8296 59.4959 17.7774 59.5252C17.7128 59.5723 17.6565 59.6298 17.6108 59.6954L17.1631 60.2551C16.9293 60.1932 16.7026 60.1067 16.487 59.9972C16.2646 59.884 16.0545 59.748 15.8601 59.5915C15.6401 59.4242 15.4546 59.2159 15.3138 58.9781C15.204 58.7812 15.1275 58.5676 15.0872 58.3458C15.0489 58.1385 15.0504 57.9257 15.0917 57.719C15.1496 57.4527 15.2706 57.2042 15.4446 56.9945C15.5946 56.7997 15.7836 56.6384 15.9995 56.5208C16.2153 56.4031 16.4533 56.3317 16.6983 56.3112C16.9509 56.2863 17.206 56.3127 17.4482 56.3887C17.6904 56.4647 17.9148 56.5888 18.1079 56.7536C18.2298 56.8498 18.342 56.9578 18.4428 57.076C18.5217 57.1756 18.5921 57.2816 18.6532 57.393C18.7013 57.4851 18.7586 57.5721 18.8243 57.6527C18.863 57.6828 18.9114 57.6978 18.9604 57.6948C19.0363 57.6847 19.1086 57.6561 19.1709 57.6115L19.2362 57.6724Z" fill="#F49020"/>
<path d="M23.5415 60.2847L23.4967 60.3671C23.4096 60.3286 23.3134 60.3153 23.2191 60.3286C23.1107 60.3501 22.8994 60.4567 22.5868 60.6465L21.3331 61.3827L20.9301 62.1125C20.8706 62.2069 20.825 62.3095 20.7949 62.417C20.7932 62.4711 20.8078 62.5245 20.837 62.5701C20.8792 62.634 20.9376 62.6856 21.0062 62.7197L21.1764 62.8092L21.1307 62.8916L19.4292 61.9621L19.474 61.8797L19.6325 61.9692C19.7042 62.0134 19.7865 62.0376 19.8707 62.0391C19.9256 62.0375 19.9784 62.0173 20.0202 61.9818C20.0938 61.9023 20.1543 61.8116 20.1994 61.7131L20.5316 61.1059V59.4197C20.5316 59.0865 20.5146 58.8814 20.4806 58.8044C20.4397 58.7188 20.3712 58.6495 20.2862 58.6074L20.3319 58.5241L21.7827 59.3185L21.737 59.4008L21.6725 59.3659C21.6117 59.3254 21.5405 59.3034 21.4674 59.3023C21.4485 59.3027 21.4299 59.3077 21.4132 59.3167C21.3966 59.3257 21.3823 59.3386 21.3716 59.3543C21.3423 59.408 21.328 59.5752 21.3286 59.8558V61.157L22.3728 60.5426C22.6307 60.394 22.78 60.2829 22.8206 60.2095C22.832 60.1894 22.8379 60.1668 22.8379 60.1437C22.8379 60.1206 22.832 60.0979 22.8206 60.0779C22.7604 59.9844 22.6767 59.9084 22.5779 59.8576L22.6236 59.7752L23.5415 60.2847Z" fill="#F49020"/>
<path d="M25.3347 60.9214C25.8559 61.0969 26.2171 61.4044 26.4183 61.8438C26.517 62.0596 26.5704 62.2933 26.575 62.5306C26.5796 62.7678 26.5354 63.0035 26.4452 63.2229C26.3042 63.6182 26.0321 63.9532 25.6741 64.1722C25.2001 64.4641 24.6741 64.5002 24.0962 64.2805C23.5183 64.0608 23.1442 63.6937 22.9741 63.179C22.8414 62.7707 22.857 62.3287 23.018 61.9307C23.0966 61.7058 23.2211 61.4997 23.3836 61.3255C23.5461 61.1513 23.743 61.0128 23.9618 60.9187C24.1777 60.8215 24.4118 60.7715 24.6486 60.772C24.8853 60.7724 25.1192 60.8234 25.3347 60.9214ZM25.306 61.0844C25.0105 60.9727 24.7287 61.0381 24.4607 61.2805C24.2422 61.4805 24.0448 61.8118 23.8687 62.2745C23.658 62.8232 23.6001 63.2665 23.695 63.6044C23.7249 63.7182 23.7827 63.8226 23.8633 63.9083C23.9438 63.994 24.0445 64.0583 24.1562 64.0952C24.2996 64.156 24.4589 64.1689 24.6102 64.1319C24.8131 64.0673 24.9915 63.9423 25.1216 63.7737C25.3152 63.5243 25.4665 63.2447 25.5693 62.9462C25.7317 62.5199 25.8135 62.1859 25.8147 61.9441C25.8268 61.7473 25.7804 61.5513 25.6813 61.3808C25.5911 61.2444 25.4596 61.1405 25.306 61.0844Z" fill="#F49020"/>
<path d="M27.1843 61.6593L28.9253 62.056L28.9038 62.1455L28.8142 62.1258C28.7242 62.0977 28.6289 62.0907 28.5357 62.1052C28.4837 62.1199 28.438 62.1514 28.4058 62.1948C28.3511 62.3062 28.313 62.4251 28.293 62.5476L27.916 64.1945C27.8479 64.4954 27.8264 64.6996 27.8479 64.807C27.8739 64.9197 27.9325 65.0221 28.0163 65.1017C28.1206 65.1976 28.2496 65.2624 28.3888 65.2888C28.5515 65.331 28.7229 65.3251 28.8823 65.2718C29.0281 65.2211 29.1552 65.1275 29.2467 65.0032C29.3435 64.8733 29.433 64.6306 29.5154 64.2733L29.8288 62.9023C29.8607 62.7943 29.8698 62.6808 29.8557 62.5691C29.844 62.5071 29.8126 62.4506 29.7662 62.4079C29.677 62.3419 29.5737 62.2978 29.4644 62.279L29.485 62.1894L30.6491 62.4581L30.6285 62.5476L30.5587 62.5315C30.4776 62.5089 30.3918 62.5089 30.3106 62.5315C30.2362 62.5557 30.1727 62.6055 30.1315 62.6721C30.0833 62.7584 30.0503 62.8523 30.0339 62.9497L29.742 64.2267C29.6872 64.5168 29.5951 64.7985 29.4679 65.065C29.3524 65.2477 29.1795 65.3869 28.9763 65.4608C28.7411 65.5623 28.4491 65.573 28.1005 65.493C27.8672 65.4522 27.6459 65.3604 27.4521 65.2244C27.2791 65.0967 27.1511 64.9173 27.0867 64.7121C27.0354 64.4816 27.0419 64.2419 27.1055 64.0145L27.4817 62.3676C27.5173 62.2483 27.5342 62.1241 27.5318 61.9996C27.5186 61.9447 27.487 61.896 27.4423 61.8616C27.357 61.8055 27.2604 61.7691 27.1593 61.7551L27.1843 61.6593Z" fill="#F49020"/>
<path d="M35.0089 62.7797L34.9569 63.7119L34.8674 63.7075C34.8434 63.5419 34.7913 63.3817 34.7133 63.2337C34.6489 63.1327 34.5595 63.05 34.4536 62.9937C34.3473 62.9504 34.2335 62.9285 34.1187 62.9292L33.8599 62.9185L33.7121 65.5755C33.6989 65.6859 33.7028 65.7977 33.7238 65.9069C33.746 65.9579 33.7836 66.0008 33.8312 66.0296C33.901 66.0696 33.98 66.0909 34.0605 66.0914L34.1751 66.0976L34.1698 66.1872L32.3662 66.0869L32.3715 65.9973L32.4862 66.0045C32.5698 66.0126 32.6541 65.9987 32.7306 65.9642C32.7796 65.9389 32.8187 65.8979 32.8417 65.8478C32.8729 65.7447 32.8883 65.6375 32.8874 65.5299L33.0342 62.8728L32.7853 62.8585C32.553 62.846 32.382 62.8857 32.2721 62.9776C32.1062 63.1271 31.996 63.3286 31.9596 63.5489L31.8638 63.5436L31.9148 62.6113L35.0089 62.7797Z" fill="#F49020"/>
<path d="M37.1161 66.033V66.1271L35.3134 66.1978V66.1083L35.428 66.1038C35.5118 66.1044 35.5943 66.0828 35.6671 66.0411C35.7135 66.0118 35.7481 65.9671 35.7647 65.9148C35.786 65.809 35.7911 65.7006 35.7799 65.5933L35.6904 63.3258C35.6929 63.2146 35.679 63.1035 35.6492 62.9963C35.6232 62.9475 35.582 62.9085 35.5319 62.8852C35.4593 62.8521 35.3794 62.8382 35.2999 62.8449H35.1853V62.7554L36.988 62.6846V62.7742L36.8734 62.7787C36.7895 62.778 36.707 62.7997 36.6343 62.8414C36.5877 62.8709 36.5526 62.9154 36.5349 62.9676C36.5131 63.0734 36.508 63.1818 36.5196 63.2891L36.6092 65.5566C36.6068 65.6679 36.621 65.779 36.6513 65.8862C36.6785 65.9346 36.7202 65.9734 36.7704 65.9972C36.8429 66.0304 36.9228 66.0443 37.0023 66.0375L37.1161 66.033Z" fill="#F49020"/>
<path d="M39.7792 64.6263L40.3398 62.2316L41.7261 62.0069L41.7413 62.0964L41.6303 62.1143C41.5464 62.1233 41.4665 62.1542 41.3983 62.2039C41.3573 62.2386 41.3287 62.2858 41.3168 62.3382C41.308 62.445 41.3159 62.5526 41.3401 62.657L41.7037 64.9021C41.7141 65.0127 41.7413 65.1211 41.7843 65.2236C41.816 65.2695 41.8625 65.3033 41.9159 65.3194C41.9923 65.3443 42.0738 65.3486 42.1524 65.332L42.2625 65.3141L42.2777 65.4036L40.4992 65.6911L40.4849 65.6015L40.595 65.5836C40.6791 65.5746 40.7594 65.5437 40.8279 65.4941C40.8687 65.4582 40.897 65.4102 40.9085 65.357C40.9173 65.2496 40.9094 65.1415 40.8852 65.0364L40.4777 62.5164L39.6717 65.8299L39.6109 65.8388L37.7858 62.9731L38.1744 65.3714C38.1872 65.4749 38.2082 65.5773 38.2371 65.6776C38.2719 65.7564 38.3339 65.82 38.4117 65.8567C38.5258 65.9015 38.6509 65.9099 38.7699 65.8809L38.7852 65.9705L37.621 66.1594L37.6058 66.0699L37.6407 66.0645C37.7131 66.0551 37.7829 66.031 37.8458 65.9938C37.9005 65.9639 37.946 65.9196 37.9774 65.8657C38.0065 65.8042 38.023 65.7375 38.0258 65.6696C38.0258 65.6508 38.0141 65.5648 37.989 65.4126L37.6398 63.2579C37.6291 63.1486 37.6022 63.0414 37.5601 62.94C37.5282 62.8948 37.4822 62.8614 37.4293 62.8451C37.3526 62.8206 37.2708 62.8166 37.192 62.8334L37.0846 62.8504L37.0693 62.7609L38.461 62.5352L39.7792 64.6263Z" fill="#F49020"/>
<path d="M43.043 61.7399L43.4693 63.0779L43.5346 63.0573C43.7436 62.991 43.8737 62.8773 43.9251 62.7161C43.9774 62.5071 43.9756 62.2883 43.9197 62.0802L44.0093 62.0507L44.5582 63.771L44.4687 63.8006C44.4062 63.6447 44.3151 63.5019 44.2 63.3797C44.123 63.2924 44.0201 63.2322 43.9063 63.2077C43.778 63.1964 43.6488 63.2141 43.5284 63.2597L43.823 64.1856C43.8528 64.2988 43.8961 64.4079 43.952 64.5107C43.9824 64.5469 44.024 64.5721 44.0702 64.5824C44.1431 64.5925 44.2175 64.5836 44.286 64.5564L44.4821 64.4937C44.7525 64.4334 44.9906 64.2745 45.1499 64.0479C45.3093 63.8213 45.3783 63.5434 45.3436 63.2686L45.4332 63.24L45.6176 64.3316L42.777 65.237L42.7484 65.1474L42.8576 65.1125C42.9385 65.0907 43.0123 65.0481 43.0716 64.9889C43.1083 64.9482 43.1295 64.8959 43.1316 64.8412C43.1244 64.7337 43.1006 64.6279 43.0609 64.5277L42.3713 62.365C42.3453 62.273 42.3121 62.1832 42.2719 62.0964C42.2416 62.0478 42.1949 62.0116 42.1403 61.9943C42.0503 61.9689 41.9545 61.9733 41.8672 62.0068L41.7579 62.0417L41.7292 61.9522L44.4803 61.0755L44.7902 62.0471L44.7006 62.0767C44.618 61.9014 44.4953 61.748 44.3424 61.6289C44.2125 61.5494 44.062 61.5101 43.9099 61.5161C43.7312 61.5327 43.5554 61.5725 43.3869 61.6343L43.043 61.7399Z" fill="#F49020"/>
<path d="M49.2172 60.3609L50.1495 59.8612L50.1969 59.9507C50.1127 60.0075 50.0448 60.0853 49.9999 60.1764C49.9556 60.3232 49.9366 60.4764 49.9435 60.6295C49.9351 60.896 49.9034 61.1612 49.8486 61.4221C50.0205 61.4701 50.197 61.5002 50.3751 61.5116C50.454 61.5146 50.5323 61.4974 50.6026 61.4615C50.7128 61.4024 50.7746 61.2761 50.7862 61.0827H50.9044C50.9211 61.3299 50.8813 61.5776 50.788 61.8071C50.7228 61.9396 50.6171 62.0478 50.4862 62.1161C50.3711 62.1783 50.2434 62.2135 50.1128 62.2191C49.931 62.22 49.7501 62.195 49.5754 62.1448C49.4734 62.3457 49.3454 62.5323 49.1948 62.7C49.0598 62.8446 48.9015 62.9657 48.7265 63.0582C48.4429 63.2104 48.176 63.2546 47.9259 63.1907C47.8114 63.1662 47.7036 63.1171 47.6101 63.0467C47.5165 62.9764 47.4394 62.8865 47.3841 62.7833C47.3243 62.6749 47.2869 62.5557 47.2742 62.4326C47.2614 62.3095 47.2735 62.1851 47.3097 62.0668C47.4064 61.7684 47.5651 61.4937 47.7754 61.2609C47.6887 61.1889 47.6084 61.1095 47.5354 61.0236C47.469 60.9452 47.4108 60.8603 47.3617 60.7701C47.2991 60.6598 47.2607 60.5374 47.249 60.4112C47.2372 60.2849 47.2524 60.1575 47.2936 60.0376C47.3812 59.782 47.5668 59.5716 47.8095 59.4528C47.9848 59.346 48.1929 59.3066 48.3951 59.3417C48.4751 59.3547 48.5512 59.3856 48.6176 59.4321C48.6839 59.4787 48.7389 59.5396 48.7784 59.6104C48.8232 59.6918 48.8502 59.7818 48.8576 59.8745C48.865 59.9671 48.8527 60.0602 48.8214 60.1477C48.7252 60.3907 48.5818 60.6123 48.3996 60.7997C48.7937 61.0367 49.2146 61.2261 49.6533 61.3639C49.7405 60.9991 49.7369 60.7286 49.6426 60.5525C49.6271 60.5225 49.6057 60.4959 49.5797 60.4744C49.5537 60.4528 49.5236 60.4368 49.4913 60.4271C49.4134 60.4072 49.3311 60.4152 49.2584 60.4495L49.2172 60.3609ZM48.2527 60.7056C48.3538 60.6064 48.4281 60.4832 48.4686 60.3474C48.4862 60.2498 48.469 60.149 48.4202 60.0626C48.3437 59.9082 48.2175 59.784 48.062 59.7098C48.0193 59.6874 47.9718 59.6758 47.9236 59.6758C47.8754 59.6758 47.828 59.6874 47.7853 59.7098C47.7512 59.7281 47.7214 59.7537 47.6981 59.7846C47.6747 59.8155 47.6583 59.8511 47.65 59.8889C47.6299 59.9809 47.6459 60.0771 47.6948 60.1576C47.7387 60.2366 47.7932 60.3092 47.8569 60.3734C47.9819 60.4922 48.1141 60.6031 48.2527 60.7056ZM47.9169 61.371C47.8404 61.4568 47.7835 61.5583 47.7503 61.6683C47.7244 61.7823 47.7403 61.9018 47.7951 62.0051C47.8767 62.1535 47.9967 62.2772 48.1426 62.3633C48.2842 62.453 48.4444 62.5094 48.611 62.528C48.7506 62.5452 48.8922 62.5202 49.0175 62.4564C49.082 62.4195 49.1401 62.3723 49.1895 62.3167C49.2541 62.2438 49.3117 62.165 49.3614 62.0812C48.8445 61.9245 48.3566 61.6847 47.9169 61.371Z" fill="#F49020"/>
<path d="M54.0238 58.062L53.2743 55.7193L54.3489 54.8148L54.4098 54.8864L54.3202 54.959C54.2529 55.0103 54.2003 55.0786 54.168 55.1569C54.1513 55.2078 54.1513 55.2627 54.168 55.3136C54.215 55.4099 54.277 55.4981 54.3516 55.5751L55.8176 57.3142C55.8833 57.4036 55.9621 57.4827 56.0513 57.5488C56.1021 57.5718 56.1592 57.5771 56.2134 57.5641C56.2916 57.5456 56.3637 57.5073 56.4229 57.453L56.508 57.3805L56.5689 57.4521L55.1916 58.6163L55.1307 58.5447L55.2202 58.473C55.2877 58.4214 55.3402 58.3528 55.3725 58.2742C55.39 58.2228 55.39 58.1671 55.3725 58.1157C55.3248 58.0188 55.2622 57.93 55.1871 57.8524L53.5402 55.8975L54.5531 59.1572L54.5065 59.1966L51.4662 57.6742L53.0325 59.5315C53.0969 59.6138 53.1675 59.6911 53.2438 59.7626C53.314 59.8133 53.4003 59.8368 53.4865 59.8288C53.6066 59.8081 53.7174 59.7512 53.8044 59.6659L53.8644 59.7384L52.9617 60.4987L52.9017 60.4271L52.9286 60.4038C52.9859 60.3586 53.0335 60.3022 53.0683 60.2381C53.1002 60.1839 53.1163 60.1219 53.1149 60.059C53.1085 59.9912 53.0884 59.9253 53.0557 59.8656C53.0459 59.8494 52.9922 59.7823 52.8928 59.6641L51.4859 57.993C51.4203 57.9048 51.3421 57.8267 51.2539 57.7611C51.203 57.7396 51.1465 57.7349 51.0927 57.7476C51.0146 57.7661 50.9424 57.8044 50.8832 57.8587L50.7999 57.9294L50.739 57.8569L51.8136 56.9488L54.0238 58.062Z" fill="#F49020"/>
<path d="M55.5432 53.3102C55.8883 52.881 56.3017 52.6484 56.7835 52.6126C57.0201 52.594 57.2579 52.6241 57.4824 52.7012C57.7068 52.7782 57.913 52.9004 58.0883 53.0604C58.408 53.3288 58.6268 53.698 58.7089 54.1073C58.82 54.6529 58.6728 55.1604 58.2674 55.6297C57.862 56.0989 57.3889 56.3237 56.848 56.304C56.4189 56.2881 56.0092 56.1213 55.691 55.833C55.5067 55.6819 55.3558 55.4942 55.2479 55.2818C55.14 55.0694 55.0774 54.8368 55.0641 54.5989C55.0476 54.3624 55.0818 54.1251 55.1644 53.9028C55.247 53.6806 55.3762 53.4785 55.5432 53.3102ZM55.6865 53.3935C55.4793 53.6323 55.4438 53.9192 55.5799 54.2541C55.6922 54.5282 55.9355 54.8267 56.3098 55.1497C56.754 55.5347 57.1504 55.7416 57.499 55.7703C57.6165 55.7806 57.7348 55.7615 57.843 55.7146C57.9512 55.6676 58.046 55.5944 58.1188 55.5016C58.2246 55.3872 58.2911 55.2419 58.3086 55.087C58.3172 54.8736 58.2597 54.6628 58.1438 54.4834C57.9762 54.2161 57.766 53.978 57.5214 53.7786C57.177 53.4801 56.8913 53.2885 56.6644 53.2037C56.4838 53.1242 56.2837 53.1002 56.0895 53.1347C55.9308 53.1754 55.7895 53.2662 55.6865 53.3935Z" fill="#F49020"/>
<path d="M57.5166 50.8413L60.2381 50.5834L58.996 49.7774C58.8223 49.6646 58.6889 49.613 58.5957 49.6225C58.4686 49.6377 58.3548 49.7255 58.2527 49.8912L58.1739 49.8392L58.7963 48.8846L58.8751 48.9356C58.8252 49.0246 58.7912 49.1216 58.7748 49.2222C58.7741 49.2867 58.7945 49.3496 58.833 49.4013C58.9082 49.4917 58.9993 49.5675 59.1017 49.6252L61.5044 51.187L61.4578 51.2595L57.7772 51.6455L59.6148 52.8428C59.7805 52.9512 59.9175 52.987 60.0259 52.9485C60.1324 52.9118 60.2231 52.8397 60.2829 52.7443L60.3277 52.6763L60.4065 52.7273L59.7384 53.7527L59.6596 53.7017C59.7617 53.5414 59.8011 53.4097 59.7778 53.3049C59.7545 53.2002 59.6668 53.099 59.5092 52.9987L57.47 51.6688L57.3527 51.6813C57.2637 51.6848 57.1763 51.7061 57.0957 51.744C57.0263 51.7908 56.9677 51.8518 56.9238 51.9231L56.845 51.8712L57.5166 50.8413Z" fill="#F49020"/>
<path d="M59.5753 47.716L60.8389 48.3276L60.8694 48.2658C60.9643 48.0688 60.9715 47.8963 60.8909 47.7482C60.7753 47.566 60.615 47.4165 60.4252 47.3139L60.4673 47.2243L62.0936 48.0106L62.0515 48.1002C61.8951 48.0387 61.7287 48.0066 61.5607 48.0052C61.4442 48.0019 61.3296 48.0351 61.233 48.1002C61.137 48.1862 61.0611 48.2923 61.0109 48.4109L61.8858 48.8336C61.9881 48.8903 62.097 48.9342 62.21 48.9644C62.2572 48.9675 62.3041 48.9549 62.3434 48.9285C62.4006 48.8821 62.4452 48.822 62.4733 48.7539L62.5628 48.5676C62.7049 48.33 62.7533 48.048 62.6987 47.7766C62.644 47.5053 62.4902 47.264 62.2673 47.0999L62.3076 47.0103L63.2246 47.6318L61.9261 50.3184L61.8419 50.2781L61.8912 50.1742C61.9312 50.1007 61.951 50.0179 61.9485 49.9342C61.9445 49.8797 61.9213 49.8283 61.8831 49.7891C61.8 49.7202 61.7066 49.6646 61.6064 49.6244L59.5637 48.6393C59.4787 48.5944 59.3904 48.556 59.2995 48.5247C59.2433 48.514 59.1852 48.5228 59.1347 48.5497C59.0542 48.5979 58.9914 48.6708 58.9556 48.7575L58.9082 48.8587L58.824 48.8175L60.0777 46.2205L60.9956 46.6682L60.9535 46.7578C60.7689 46.6972 60.5725 46.6809 60.3804 46.7103C60.2332 46.7498 60.1011 46.8321 60.0007 46.9467C59.8894 47.0874 59.7973 47.2422 59.7267 47.407L59.5753 47.716Z" fill="#F49020"/>
<path d="M61.4158 42.4163L61.5054 42.4458C61.4827 42.5385 61.4867 42.6357 61.517 42.7261C61.5576 42.8294 61.6991 43.0181 61.9415 43.2921L62.889 44.3972L63.6806 44.6658C63.784 44.7077 63.8929 44.7342 64.0039 44.7446C64.058 44.7373 64.1084 44.7132 64.1481 44.6757C64.2036 44.6233 64.2439 44.5567 64.2645 44.4831L64.3263 44.2996L64.4158 44.3291L63.8015 46.1649L63.712 46.1354L63.7693 45.9643C63.8 45.8861 63.8089 45.801 63.7952 45.7181C63.7842 45.6641 63.7552 45.6155 63.7129 45.5802C63.6214 45.5227 63.5218 45.4795 63.4173 45.4521L62.7609 45.2327L61.1024 45.5336C60.7746 45.5933 60.5755 45.6467 60.5051 45.6939C60.4285 45.7491 60.3724 45.8282 60.3457 45.9187L60.2561 45.8891L60.7809 44.3211L60.8704 44.3506L60.8463 44.4205C60.8172 44.4875 60.8085 44.5616 60.8212 44.6336C60.8243 44.6529 60.8322 44.6712 60.8441 44.6868C60.8559 44.7024 60.8714 44.7149 60.8892 44.7231C60.9466 44.742 61.114 44.7231 61.3898 44.6757L62.6714 44.4473L61.8815 43.5213C61.689 43.2939 61.5537 43.1676 61.4749 43.1407C61.4528 43.1338 61.4292 43.1326 61.4065 43.1373C61.3838 43.142 61.3626 43.1524 61.3451 43.1676C61.2636 43.2431 61.2036 43.3389 61.1713 43.4452L61.0818 43.4148L61.4158 42.4163Z" fill="#F49020"/>
<path d="M6.49803 26.7623L7.71058 27.1635C7.94431 27.2405 8.09655 27.2754 8.1664 27.2665C8.24145 27.2552 8.31037 27.2185 8.36163 27.1626C8.44987 27.0477 8.51385 26.9161 8.54969 26.7757L8.6679 26.8142L7.93625 29.0289L7.81804 28.9895C7.87364 28.8547 7.90048 28.7098 7.89685 28.5641C7.88717 28.4895 7.85355 28.42 7.80102 28.3662C7.75088 28.3178 7.60938 28.2551 7.37475 28.1781L4.56727 27.2494C4.33353 27.1724 4.18129 27.1375 4.11144 27.1464C4.03632 27.1575 3.96734 27.1942 3.91622 27.2503C3.82789 27.3642 3.76388 27.4949 3.72815 27.6345L3.61084 27.5951L4.27532 25.5855C4.44846 25.0626 4.61115 24.6918 4.76339 24.4733C4.90859 24.2605 5.11735 24.0991 5.35981 24.0121C5.60564 23.9243 5.87429 23.9243 6.12011 24.0121C6.27031 24.0575 6.40876 24.1352 6.52572 24.2397C6.64268 24.3443 6.73532 24.4733 6.79714 24.6175C6.88487 24.8454 6.91561 25.0914 6.88669 25.3339L8.69476 24.7787C8.84967 24.7365 8.99975 24.6783 9.14253 24.6049C9.23807 24.539 9.31093 24.4452 9.35119 24.3363L9.4694 24.3757L9.02163 25.7378L6.58937 26.4793L6.49803 26.7623ZM4.37741 26.0611L6.27146 26.6879L6.33236 26.5088C6.41597 26.2878 6.46256 26.0545 6.47027 25.8184C6.46457 25.6541 6.40115 25.4972 6.29116 25.3751C6.15112 25.2281 5.97423 25.1214 5.77892 25.0661C5.44936 24.9569 5.1807 24.9533 4.97294 25.0554C4.76518 25.1575 4.60458 25.3799 4.49115 25.7226L4.37741 26.0611Z" fill="white"/>
<path d="M10.4608 22.2784L10.5727 22.333L9.53032 24.4751L9.41927 24.4205L9.48465 24.2844C9.53769 24.187 9.56396 24.0773 9.56077 23.9665C9.55457 23.8942 9.52282 23.8266 9.47121 23.7757C9.36177 23.6844 9.23881 23.6107 9.10673 23.5572L6.41119 22.2461C6.28329 22.1744 6.14577 22.1213 6.00283 22.0885C5.92952 22.0888 5.85826 22.1127 5.79954 22.1566C5.71545 22.22 5.64939 22.3043 5.6079 22.4011L5.54163 22.5372L5.42969 22.4826L6.47477 20.3405L6.58671 20.3951L6.52044 20.5312C6.46807 20.6288 6.44184 20.7384 6.44432 20.8491C6.45153 20.9221 6.48307 20.9905 6.53388 21.0434C6.64273 21.1342 6.76472 21.2078 6.89567 21.262L9.59122 22.5721C9.71866 22.6451 9.85675 22.6977 10.0005 22.7279C10.0741 22.7272 10.1457 22.7031 10.2047 22.659C10.2887 22.5956 10.3548 22.5113 10.3963 22.4145L10.4608 22.2784Z" fill="white"/>
<path d="M9.26616 15.7366L10.5987 16.6322L10.5298 16.7351C10.0814 16.6157 9.6787 16.6157 9.32168 16.7351C8.98123 16.8445 8.68754 17.0653 8.48794 17.362C8.30573 17.6133 8.22193 17.9227 8.25242 18.2316C8.29468 18.5474 8.4332 18.8426 8.64914 19.0769C8.88197 19.3469 9.15005 19.5842 9.44616 19.7826C9.76533 20.0033 10.1158 20.1747 10.4859 20.2913C10.7716 20.3901 11.0827 20.3866 11.3662 20.2814C11.6332 20.1684 11.8595 19.9769 12.0154 19.7325C12.0783 19.6379 12.1316 19.5374 12.1748 19.4325C12.2213 19.3183 12.2588 19.2006 12.2868 19.0805L11.5005 18.5522C11.4077 18.4805 11.3031 18.4253 11.1916 18.3892C11.1206 18.3829 11.0494 18.3992 10.9883 18.4357C10.9028 18.4829 10.8307 18.551 10.7787 18.6337L10.7124 18.7313L10.6095 18.6614L11.8444 16.8238L11.9483 16.8936C11.8815 16.9937 11.8344 17.1055 11.8095 17.2232C11.8023 17.302 11.8229 17.3809 11.8677 17.4462C11.9366 17.5261 12.0187 17.5936 12.1104 17.6459L12.8966 18.1743C12.8419 18.489 12.7536 18.7971 12.6334 19.0931C12.509 19.3975 12.3535 19.6883 12.1695 19.9608C11.9739 20.2717 11.72 20.5418 11.4217 20.7561C11.1755 20.9231 10.9031 21.0478 10.6157 21.125C10.3479 21.1983 10.0687 21.2202 9.79273 21.1895C9.43606 21.1425 9.09584 21.0107 8.80048 20.8053C8.52831 20.63 8.29546 20.4001 8.11665 20.1302C7.93785 19.8603 7.81697 19.5562 7.76167 19.2372C7.63809 18.5758 7.77988 17.942 8.18705 17.336C8.3 17.1646 8.42926 17.0044 8.57302 16.8578C8.6959 16.7437 8.82766 16.6395 8.96705 16.5462C9.08296 16.4727 9.19099 16.3875 9.28944 16.2919C9.32525 16.2378 9.33961 16.1723 9.32974 16.1083C9.30862 16.0089 9.26272 15.9165 9.19631 15.8396L9.26616 15.7366Z" fill="white"/>
<path d="M13.1016 15.1097L14.1091 16.0947C14.2066 16.2048 14.3208 16.2988 14.4476 16.3732C14.5175 16.3958 14.5927 16.3958 14.6625 16.3732C14.7623 16.3394 14.8517 16.2805 14.9222 16.2022L15.0279 16.0938L15.1175 16.1834L13.4491 17.8849L13.3595 17.7954L13.4661 17.687C13.5471 17.6116 13.6068 17.5162 13.639 17.4103C13.6571 17.3405 13.6498 17.2665 13.6184 17.2016C13.5435 17.0803 13.4505 16.9713 13.3425 16.8783L11.2031 14.7801C11.105 14.6708 10.9912 14.5766 10.8655 14.5007C10.796 14.4776 10.7209 14.4776 10.6515 14.5007C10.5517 14.5346 10.4623 14.5935 10.3918 14.6717L10.2861 14.7801L10.1965 14.6905L11.8658 12.989L11.9554 13.0786L11.8497 13.187C11.7683 13.2622 11.7084 13.3577 11.6759 13.4637C11.6577 13.5342 11.6643 13.6088 11.6948 13.675C11.7693 13.7965 11.8623 13.9056 11.9706 13.9983L12.8957 14.9028L14.0187 13.7538L13.098 12.8493C13 12.74 12.8862 12.6458 12.7604 12.5699C12.6907 12.5465 12.6152 12.5465 12.5455 12.5699C12.4455 12.6044 12.3559 12.6635 12.2849 12.7419L12.1792 12.8493L12.0897 12.7598L13.7563 11.0583L13.8458 11.1478L13.7428 11.2535C13.661 11.3284 13.601 11.424 13.5691 11.5302C13.5517 11.6008 13.5583 11.6752 13.5879 11.7416C13.6624 11.8631 13.7555 11.9722 13.8637 12.0649L16.0023 14.1649C16.1003 14.2742 16.2141 14.3684 16.3399 14.4443C16.4095 14.4682 16.4851 14.4682 16.5548 14.4443C16.6552 14.4107 16.745 14.3514 16.8154 14.2723L16.9193 14.1667L17.0088 14.2562L15.3422 15.9532L15.2527 15.8637L15.3557 15.758C15.437 15.6828 15.497 15.5873 15.5294 15.4813C15.5472 15.4108 15.5406 15.3362 15.5106 15.27C15.4361 15.1485 15.343 15.0394 15.2348 14.9467L14.2282 13.9616L13.1016 15.1097Z" fill="white"/>
<path d="M17.8457 8.07883L18.5621 9.08093L18.4636 9.15078C18.3013 9.001 18.1148 8.87987 17.912 8.79257C17.7624 8.74195 17.6023 8.73085 17.4472 8.76033C17.3016 8.804 17.1661 8.87615 17.0487 8.97257L16.7728 9.17049L18.8236 12.0245C18.9015 12.1493 18.9982 12.2614 19.1102 12.3568C19.1751 12.3908 19.2491 12.4033 19.3215 12.3926C19.4271 12.3766 19.5266 12.3331 19.6099 12.2663L19.7326 12.1768L19.8051 12.278L17.8681 13.6696L17.7955 13.5693L17.9182 13.4798C18.011 13.4192 18.0861 13.3352 18.1358 13.2362C18.1658 13.1699 18.1722 13.0953 18.1538 13.0248C18.1008 12.8926 18.0277 12.7693 17.937 12.6595L15.8863 9.80542L15.6176 9.99796C15.3687 10.1771 15.2257 10.3597 15.1887 10.546C15.1412 10.8373 15.1953 11.1361 15.3418 11.3923L15.2379 11.4666L14.5215 10.4654L17.8457 8.07883Z" fill="white"/>
<path d="M22.7598 8.18902L23.3034 9.49202C23.3512 9.63083 23.4197 9.76158 23.5067 9.87978C23.5626 9.9277 23.6322 9.95684 23.7055 9.96307C23.8105 9.9706 23.9156 9.95118 24.0109 9.90665L24.1506 9.84844L24.199 9.96307L22.0004 10.8801L21.9521 10.7646L22.0918 10.7073C22.1962 10.6691 22.2889 10.6043 22.3604 10.5192C22.4036 10.4615 22.4254 10.3906 22.4222 10.3186C22.4001 10.1779 22.3567 10.0414 22.2933 9.91381L21.1389 7.14752C21.0909 7.00874 21.0227 6.87778 20.9365 6.75886C20.8819 6.70993 20.8127 6.68034 20.7395 6.67468C20.6345 6.66706 20.5293 6.6868 20.4342 6.73199L20.2945 6.7902L20.2461 6.67916L22.4446 5.76124L22.493 5.87676L22.3533 5.93497C22.2485 5.97243 22.1557 6.03739 22.0846 6.12303C22.0422 6.18017 22.0198 6.24976 22.021 6.32094C22.0422 6.46188 22.0857 6.59853 22.15 6.72572L22.6461 7.91678L24.1318 7.29707L23.6348 6.10602C23.5869 5.96716 23.5187 5.83618 23.4324 5.71736C23.3772 5.66891 23.3077 5.63968 23.2345 5.63407C23.1281 5.62747 23.0217 5.64812 22.9255 5.69407L22.7894 5.75139L22.7464 5.63407L24.9378 4.71795L24.9861 4.83257L24.8491 4.88989C24.7443 4.92727 24.6515 4.99224 24.5805 5.07795C24.5363 5.13566 24.5132 5.20678 24.5151 5.27944C24.5372 5.42016 24.5807 5.55666 24.644 5.68422L25.7975 8.45051C25.8455 8.5893 25.9137 8.72025 25.9999 8.83918C26.0549 8.8885 26.1249 8.91784 26.1987 8.92246C26.3043 8.93011 26.4101 8.91037 26.5058 8.86515L26.642 8.80783L26.6903 8.92335L24.4945 9.83859L24.4479 9.72396L24.584 9.66664C24.6891 9.62975 24.7821 9.56469 24.8527 9.47858C24.8962 9.42058 24.919 9.34959 24.9172 9.27709C24.896 9.13616 24.8525 8.99951 24.7882 8.87231L24.2455 7.57469L22.7598 8.18902Z" fill="white"/>
<path d="M27.9702 6.53058L28.2389 7.77805C28.2917 8.01895 28.3392 8.16761 28.3831 8.22581C28.431 8.28441 28.4972 8.32512 28.5712 8.34134C28.7151 8.35845 28.861 8.34627 29.0001 8.30552L29.027 8.42731L26.7487 8.92522L26.7228 8.80343C26.8694 8.78147 27.0097 8.729 27.1347 8.6494C27.1934 8.6042 27.236 8.54145 27.2565 8.4703C27.2726 8.40313 27.2565 8.2491 27.2019 8.0082L26.5705 5.11922C26.5177 4.87922 26.4702 4.73056 26.4264 4.67146C26.379 4.61225 26.3125 4.5714 26.2383 4.55593C26.0944 4.53897 25.9486 4.55084 25.8093 4.59086L25.7825 4.46996L27.8511 4.01951C28.3885 3.90011 28.7906 3.85115 29.0574 3.87264C29.3144 3.88947 29.5594 3.98693 29.7577 4.15115C29.9591 4.31736 30.097 4.54794 30.1482 4.80399C30.1852 4.95658 30.1884 5.11544 30.1575 5.26939C30.1265 5.42333 30.0622 5.56863 29.9691 5.69505C29.8193 5.88818 29.6248 6.04187 29.4022 6.14281L30.801 7.41536C30.9165 7.52797 31.0435 7.62822 31.1798 7.71447C31.2847 7.76289 31.402 7.7779 31.5157 7.75745L31.5425 7.87925L30.141 8.18552L28.2604 6.47058L27.9702 6.53058ZM27.4929 4.35086L27.9192 6.30043L28.1064 6.26013C28.3393 6.21956 28.5638 6.14057 28.7709 6.02639C28.9095 5.93816 29.0123 5.80361 29.061 5.64669C29.1163 5.45166 29.1181 5.24536 29.0664 5.04937C28.9924 4.70967 28.8583 4.47653 28.6643 4.34996C28.4703 4.22339 28.1968 4.19802 27.844 4.27384L27.4929 4.35086Z" fill="white"/>
<path d="M36.1232 3.09697L36.1841 4.61937H36.047C35.9911 4.26826 35.8166 3.94687 35.5527 3.70862C35.3293 3.49449 35.032 3.37483 34.7225 3.37459C34.5255 3.36715 34.3331 3.43577 34.1852 3.56623C34.1236 3.61874 34.0741 3.68411 34.0404 3.75775C34.0067 3.83139 33.9895 3.91151 33.99 3.9925C33.9898 4.08729 34.0158 4.18028 34.0652 4.26116C34.1497 4.38335 34.2575 4.48772 34.3822 4.56833C34.6195 4.70995 34.8651 4.83734 35.1175 4.94982C35.6548 5.20356 36.0184 5.44505 36.2082 5.67431C36.3936 5.89798 36.4955 6.17906 36.4966 6.46954C36.5006 6.65565 36.4643 6.84042 36.3903 7.01121C36.3162 7.182 36.2062 7.33479 36.0676 7.4591C35.7632 7.74322 35.36 7.89743 34.9437 7.88895C34.807 7.8921 34.6703 7.87978 34.5363 7.85224C34.3713 7.81334 34.2099 7.76093 34.0536 7.69552C33.9689 7.65742 33.8777 7.63613 33.7849 7.63283C33.7196 7.6378 33.6573 7.66212 33.6058 7.70268C33.5357 7.75583 33.4823 7.82792 33.4518 7.91045H33.3273L33.2995 6.19013H33.4231C33.53 6.67312 33.7258 7.0391 34.0106 7.28805C34.2581 7.52167 34.5855 7.65176 34.9258 7.65164C35.1449 7.65979 35.3587 7.58276 35.5223 7.43671C35.6333 7.34069 35.7064 7.20817 35.7284 7.06304C35.7504 6.9179 35.7198 6.76968 35.6423 6.64506C35.5722 6.53397 35.4809 6.4378 35.3736 6.36208C35.1755 6.22864 34.9657 6.11353 34.7467 6.01819C34.4328 5.87952 34.1329 5.71098 33.8512 5.5149C33.6786 5.38739 33.5336 5.22624 33.4249 5.04117C33.3241 4.86363 33.2705 4.66323 33.2691 4.45907C33.2639 4.28505 33.2956 4.1119 33.3619 3.95094C33.4283 3.78998 33.5279 3.64485 33.6542 3.52504C33.7864 3.39489 33.9431 3.29233 34.1153 3.2233C34.2875 3.15427 34.4717 3.12016 34.6572 3.12294C34.8022 3.12056 34.9469 3.13651 35.0879 3.17041C35.2211 3.20545 35.3507 3.25313 35.4748 3.3128C35.5739 3.36743 35.6823 3.40297 35.7945 3.41757C35.82 3.41849 35.8455 3.41393 35.8691 3.4042C35.8927 3.39447 35.914 3.37979 35.9315 3.36115C35.9806 3.28248 36.0113 3.19368 36.0211 3.10145L36.1232 3.09697Z" fill="white"/>
<path d="M39.964 3.53946C40.6852 3.62483 41.2353 3.92334 41.6144 4.43499C41.8016 4.6864 41.9349 4.97369 42.0061 5.27892C42.0773 5.58415 42.0848 5.90077 42.0282 6.20903C41.9535 6.75628 41.6945 7.2617 41.2938 7.64188C40.7619 8.14875 40.092 8.3395 39.2843 8.21413C38.4765 8.08875 37.8926 7.71741 37.5326 7.10009C37.2491 6.60877 37.148 6.03323 37.2469 5.4747C37.287 5.16285 37.3913 4.86271 37.5533 4.59326C37.7153 4.32381 37.9315 4.09091 38.1881 3.90931C38.4408 3.72483 38.7299 3.5964 39.0361 3.53262C39.3424 3.46883 39.6587 3.47117 39.964 3.53946ZM39.9711 3.75797C39.5592 3.69409 39.2132 3.85588 38.9332 4.24335C38.7046 4.56216 38.5404 5.04455 38.4407 5.69052C38.3213 6.45889 38.3684 7.04755 38.5822 7.45651C38.6524 7.59521 38.7561 7.71426 38.8838 7.8029C39.0115 7.89155 39.1593 7.947 39.3138 7.96427C39.5158 8.0028 39.7249 7.97549 39.9102 7.88636C40.127 7.77532 40.3138 7.57233 40.4708 7.2774C40.6515 6.90199 40.7701 6.49974 40.8219 6.08635C40.9144 5.48933 40.9279 5.03529 40.8622 4.72425C40.7977 4.41171 40.6885 4.18066 40.5362 4.0329C40.3818 3.88366 40.1839 3.78738 39.9711 3.75797Z" fill="white"/>
<path d="M46.3601 8.38508L45.6848 9.84479L41.8538 8.54538L41.8941 8.42806L42.0364 8.47642C42.1398 8.51662 42.2519 8.52898 42.3615 8.51224C42.4323 8.49827 42.4958 8.45953 42.5406 8.40299C42.6176 8.28285 42.6753 8.15141 42.7117 8.01343L43.6744 5.1755C43.7297 5.03954 43.765 4.89624 43.7791 4.75012C43.7707 4.67773 43.7393 4.60995 43.6896 4.55669C43.6155 4.48103 43.5229 4.42607 43.4209 4.39728L43.2777 4.34892L43.3171 4.23071L45.6177 5.01072L45.5783 5.12893L45.3902 5.06535C45.2869 5.02485 45.1748 5.01249 45.0651 5.02953C44.995 5.04459 44.9319 5.08274 44.886 5.13788C44.809 5.25802 44.7513 5.38946 44.715 5.52744L43.7791 8.27582C43.7227 8.41487 43.6874 8.56156 43.6744 8.71105C43.6782 8.74739 43.6893 8.78257 43.7072 8.81444C43.7251 8.84632 43.7492 8.87421 43.7783 8.89642C43.8948 8.96531 44.0197 9.01889 44.1499 9.05583L44.5081 9.17762C44.7039 9.25162 44.9147 9.27683 45.1224 9.25105C45.3174 9.2177 45.5003 9.1337 45.6526 9.00747C45.874 8.81313 46.0683 8.58994 46.2302 8.34388L46.3601 8.38508Z" fill="white"/>
<path d="M48.2211 5.95645L50.2924 7.07049L50.2333 7.17974L50.1304 7.1269C50.0251 7.06042 49.9064 7.01821 49.7829 7.00332C49.7114 7.00294 49.6419 7.02695 49.5859 7.07138C49.5303 7.11526 49.4417 7.25049 49.3172 7.48064L48.2623 9.44274C48.0688 9.80096 47.9676 10.0535 47.9596 10.1995C47.9534 10.3518 47.9924 10.5026 48.0715 10.6329C48.1706 10.7915 48.3121 10.9193 48.4799 11.0019C48.6721 11.1128 48.8924 11.1653 49.1139 11.1532C49.3186 11.1381 49.514 11.0616 49.6745 10.9338C49.8417 10.8031 50.0402 10.5248 50.2701 10.0992L51.1504 8.46214C51.2282 8.33562 51.2794 8.19452 51.3008 8.04751C51.3078 7.96469 51.288 7.88181 51.2444 7.81109C51.1534 7.69666 51.0373 7.60473 50.905 7.54243L50.9641 7.43317L52.3522 8.17915L52.2931 8.29109L52.2107 8.24632C52.1142 8.19026 52.0043 8.16176 51.8928 8.16393C51.7924 8.17032 51.6974 8.21149 51.6241 8.28035C51.5323 8.3734 51.4572 8.48155 51.402 8.60005L50.5826 10.1225C50.3295 10.5941 50.1154 10.9177 49.9405 11.0932C49.7614 11.2723 49.5115 11.3798 49.1757 11.4263C48.8399 11.4729 48.4656 11.3834 48.0491 11.1577C47.7017 10.9714 47.4584 10.781 47.3193 10.5863C47.1437 10.3632 47.0434 10.0901 47.0327 9.80633C47.0327 9.552 47.1223 9.25797 47.3014 8.92423L48.3581 6.95944C48.4829 6.72899 48.5474 6.57973 48.5515 6.51167C48.5547 6.43815 48.5333 6.36566 48.4906 6.3057C48.4013 6.20443 48.2906 6.12428 48.1665 6.07107L48.2211 5.95645Z" fill="white"/>
<path d="M56.3613 11.2177L55.6064 12.193L55.5105 12.1186C55.6082 11.9203 55.6715 11.7068 55.6977 11.4873C55.7027 11.3294 55.6673 11.1727 55.5947 11.0324C55.5117 10.9053 55.4042 10.796 55.2786 10.7109L55.0099 10.5031L52.8607 13.2793C52.7635 13.3894 52.6838 13.5139 52.6242 13.6482C52.6103 13.7205 52.6194 13.7954 52.6502 13.8622C52.6958 13.9587 52.7659 14.0415 52.8535 14.1022L52.9726 14.1918L52.8965 14.2903L51.0105 12.8297L51.0866 12.7321L51.2057 12.8216C51.2905 12.893 51.3923 12.9412 51.5013 12.9613C51.5735 12.971 51.6468 12.9555 51.709 12.9175C51.821 12.8295 51.9184 12.7243 51.9974 12.6058L54.1466 9.82967L53.8869 9.62817C53.644 9.44011 53.4278 9.35504 53.2386 9.37295C52.9459 9.41038 52.6749 9.54729 52.4711 9.76071L52.3708 9.68191L53.1248 8.70757L56.3613 11.2177Z" fill="white"/>
<path d="M55.4962 16.6195L55.4067 16.709L53.7195 15.0272L53.809 14.9377L53.9165 15.0451C53.9914 15.1267 54.0866 15.1869 54.1923 15.2197C54.2619 15.2385 54.3359 15.2318 54.401 15.2009C54.5229 15.127 54.6326 15.0346 54.7261 14.9269L56.8422 12.8045C56.9523 12.7074 57.0474 12.5946 57.1243 12.4696C57.1474 12.4001 57.1474 12.325 57.1243 12.2555C57.0918 12.1555 57.0338 12.0657 56.9559 11.9949L56.8485 11.8875L56.938 11.7979L58.6252 13.4797L58.5356 13.5693L58.4282 13.4627C58.3536 13.3798 58.2585 13.318 58.1524 13.2836C58.082 13.2656 58.0076 13.2716 57.941 13.3006C57.8191 13.3746 57.7094 13.467 57.6159 13.5747L55.4998 15.6971C55.3895 15.7944 55.2947 15.9079 55.2186 16.0338C55.1966 16.1037 55.1966 16.1788 55.2186 16.2487C55.2513 16.3489 55.3097 16.4387 55.3879 16.5093L55.4962 16.6195Z" fill="white"/>
<path d="M60.7768 15.9686C61.2371 16.531 61.4246 17.128 61.3392 17.7596C61.299 18.0705 61.1951 18.3698 61.0341 18.6389C60.8731 18.9079 60.6584 19.1408 60.4034 19.3232C59.9692 19.663 59.4324 19.8452 58.881 19.8399C58.1455 19.8346 57.5311 19.5062 57.038 18.8549C56.5449 18.2035 56.3834 17.5304 56.5535 16.8354C56.6918 16.2857 57.019 15.802 57.4777 15.4689C57.7233 15.2725 58.007 15.1293 58.3108 15.0482C58.6147 14.9671 58.932 14.95 59.2428 14.9978C59.5529 15.041 59.8502 15.15 60.1147 15.3174C60.3793 15.4848 60.605 15.7068 60.7768 15.9686ZM60.6273 16.1307C60.3759 15.7987 60.015 15.6745 59.5446 15.7581C59.1595 15.828 58.7061 16.0605 58.1843 16.4557C57.5652 16.925 57.1899 17.3808 57.0586 17.8232C57.0124 17.9716 57.004 18.1291 57.034 18.2816C57.064 18.434 57.1316 18.5766 57.2305 18.6964C57.3493 18.8643 57.5188 18.9899 57.7141 19.0546C57.9875 19.1231 58.2754 19.1062 58.5389 19.0062C58.9301 18.8622 59.2952 18.6553 59.6198 18.3937C60.101 18.0301 60.4267 17.7134 60.5968 17.4435C60.767 17.1748 60.8494 16.9322 60.8422 16.719C60.8351 16.505 60.7598 16.2989 60.6273 16.1307Z" fill="white"/>
<path d="M63.4447 20.217L61.9428 23.5L63.6891 22.6134C63.9327 22.4898 64.0796 22.3707 64.1306 22.2552C64.1981 22.1 64.1724 21.9107 64.0536 21.6874L64.1638 21.631L64.8453 22.9743L64.7351 23.0307C64.6664 22.9153 64.5779 22.8128 64.4736 22.728C64.4011 22.685 64.3164 22.6671 64.2327 22.677C64.081 22.7033 63.9351 22.7563 63.802 22.8337L60.4196 24.5504L60.3685 24.4483L62.3557 19.9841L59.773 21.2952C59.5395 21.4146 59.4088 21.5483 59.3807 21.6964C59.3532 21.8425 59.3756 21.9935 59.4443 22.1253L59.4936 22.2212L59.3825 22.2776L58.6509 20.8367L58.7619 20.7803C58.8774 21.0032 59.0019 21.1385 59.1372 21.1779C59.2724 21.2173 59.4461 21.1868 59.6619 21.0767L62.5276 19.6214L62.5975 19.4853C62.6513 19.3807 62.6841 19.2667 62.6942 19.1495C62.6875 19.0398 62.6569 18.9328 62.6046 18.8361L62.7157 18.7796L63.4447 20.217Z" fill="white"/>
<path d="M66.1865 26.6665L64.7537 27.1743L64.7107 27.0436C65.0296 26.8865 65.2852 26.6252 65.4352 26.303C65.574 26.025 65.6003 25.7043 65.5086 25.4074C65.4579 25.2162 65.3358 25.0518 65.1674 24.948C65.0991 24.9053 65.0223 24.878 64.9423 24.8679C64.8624 24.8579 64.7812 24.8653 64.7044 24.8898C64.6142 24.9175 64.5333 24.9696 64.4707 25.0403C64.3792 25.1574 64.3114 25.2912 64.271 25.4343C64.2067 25.7032 64.158 25.9756 64.125 26.2501C64.042 26.8376 63.9187 27.2555 63.7551 27.5039C63.5963 27.747 63.3579 27.9274 63.0808 28.0143C62.9039 28.0735 62.7162 28.0938 62.5308 28.0737C62.3453 28.0536 62.1663 27.9936 62.0062 27.8979C61.645 27.691 61.3786 27.3514 61.2638 26.9513C61.2187 26.8217 61.1887 26.6874 61.1742 26.551C61.1623 26.3819 61.1644 26.212 61.1805 26.0432C61.1923 25.9519 61.1859 25.859 61.1617 25.7701C61.1383 25.7075 61.0961 25.6537 61.0408 25.6161C60.9695 25.5636 60.8847 25.5326 60.7963 25.5265L60.7578 25.4083L62.393 24.871L62.4316 24.9892C62.0023 25.234 61.7107 25.5292 61.5566 25.8749C61.4049 26.1809 61.3763 26.5335 61.4769 26.86C61.5348 27.0712 61.6713 27.2522 61.8584 27.3659C61.9827 27.4445 62.1308 27.4761 62.2763 27.455C62.4217 27.434 62.5549 27.3618 62.6519 27.2513C62.7376 27.153 62.8027 27.0385 62.8435 26.9146C62.9129 26.6869 62.9615 26.4534 62.9886 26.217C63.03 25.8771 63.1047 25.542 63.2116 25.2167C63.2822 25.0142 63.3931 24.828 63.5375 24.6695C63.6773 24.5204 63.8531 24.4097 64.048 24.348C64.2125 24.2914 64.3871 24.2701 64.5604 24.2856C64.7337 24.301 64.9017 24.3528 65.0537 24.4376C65.2164 24.5257 65.3601 24.6452 65.4763 24.7893C65.5925 24.9333 65.679 25.099 65.7307 25.2767C65.7763 25.4144 65.8043 25.5573 65.814 25.7021C65.8198 25.8398 65.8123 25.9777 65.7916 26.114C65.7688 26.2246 65.767 26.3385 65.7862 26.4498C65.7924 26.474 65.8036 26.4965 65.819 26.5161C65.8344 26.5357 65.8537 26.5519 65.8758 26.5636C65.9656 26.5872 66.0595 26.5903 66.1507 26.5725L66.1865 26.6665Z" fill="white"/>
<path d="M35.0001 61.0145C49.0914 61.0145 60.5147 49.5912 60.5147 35.4999C60.5147 21.4086 49.0914 9.98537 35.0001 9.98537C20.9088 9.98537 9.4856 21.4086 9.4856 35.4999C9.4856 49.5912 20.9088 61.0145 35.0001 61.0145Z" fill="#53225A"/>
<path d="M35.0001 51.2802C43.7152 51.2802 50.7802 44.2152 50.7802 35.5001C50.7802 26.7849 43.7152 19.7199 35.0001 19.7199C26.285 19.7199 19.22 26.7849 19.22 35.5001C19.22 44.2152 26.285 51.2802 35.0001 51.2802Z" fill="#A01E66"/>
<path d="M35.0767 10.367C35.0767 10.367 36.6582 13.0536 33.4648 14.9951C29.194 17.5868 21.6939 22.8883 31.337 27.203C31.337 27.203 28.2188 22.7369 31.8904 19.7817C35.5621 16.8265 41.1663 13.77 35.0767 10.367Z" fill="#F49020"/>
<path d="M38.6798 13.7342C38.6798 13.7342 39.9452 15.8835 37.3876 17.4372C33.9729 19.5095 27.9737 23.7534 35.686 27.203C35.686 27.203 33.1911 23.6298 36.1284 21.2656C39.0658 18.9014 43.5515 16.4566 38.6798 13.7342Z" fill="#F49020"/>
<path d="M41.6349 17.2079C41.6349 17.2079 42.6469 18.9282 40.6006 20.1703C37.8692 21.8288 33.0701 25.2238 39.2412 27.9829C39.2412 27.9829 37.2459 25.1253 39.5994 23.2366C41.9528 21.3479 45.5323 19.3858 41.6349 17.2079Z" fill="#F49020"/>
<path d="M45.1975 28.668H24.8027V31.6859H45.1975V28.668Z" fill="white"/>
<path d="M26.9063 32.371H43.0939V33.9928C43.0942 34.2306 43.0476 34.466 42.9568 34.6857C42.8659 34.9054 42.7326 35.105 42.5645 35.2731C42.3963 35.4411 42.1967 35.5743 41.9769 35.6651C41.7572 35.7558 41.5217 35.8023 41.284 35.8018H28.7125C28.4751 35.8018 28.24 35.755 28.0207 35.664C27.8014 35.5731 27.6021 35.4398 27.4343 35.2718C27.2666 35.1038 27.1336 34.9043 27.043 34.6849C26.9524 34.4654 26.9059 34.2303 26.9063 33.9928V32.371Z" fill="white"/>
<path d="M37.8672 54.9625H32.1323L30.6099 37.0367H39.3896L37.8672 54.9625Z" fill="white"/>
<path d="M30.6099 55.6486V58.4838H32.7591V60.6331H37.2404V58.4838H39.3896V55.6486H30.6099Z" fill="white"/>
</g>
<defs>
<clipPath id="clip0_111_2818">
<rect width="70" height="70" fill="white" transform="translate(0 0.5)"/>
</clipPath>
</defs>
</svg>
